<!-- Generated by IcoMoon.io -->
<svg version="1.1" xmlns="http://www.w3.org/2000/svg" width="43" height="32" viewBox="0 0 43 32">
<title>ac</title>
<path fill="#006" d="M42.667 32v-32h-42.667v32h42.667z"></path>
<path fill="#8fc5ff" d="M38.3 13.313c0 4.247-0.68 8.833-6.2 11.020-5.507-2.187-6.18-6.773-6.207-11.020z"></path>
<path fill="#366cc9" d="M32.093 24.313c2.126-0.759 3.839-2.237 4.883-4.134l0.023-0.046h-0.52c-0.153-0.027-5.293-0.52-5.913-0.78-0.527-0.187-2.56 0.18-3.493 0.52 1.043 2.070 2.812 3.646 4.965 4.414l0.062 0.019z"></path>
<path fill="#5d3100" d="M28.24 21.707h0.313c0.073 0 0.073 0 0.1-0.080s0.107-0.053 0.16-0.027c0.047 0.027 0.153 0 0.2-0.053 0.060-0.053 0.060-0.053 0.113 0 0.047 0.053 0.073 0.027 0.133 0 0.020 0 0.127-0.053 0.153-0.133 0.020-0.073 0.1-0.1 0.133-0.047 0.020 0.053 0.067 0.053 0.127 0.053 0.047 0 0.047 0.020 0.047 0.1 0 0.053 0 0.080 0.133-0.027 0.107 0.107 0.133 0.053 0.133-0.053 0-0.1 0-0.52-0.053-0.547s-0.080-0.207-0.107-0.333c0-0.267 0-0.267-0.26-0.4 0-0.067-0.053-0.1-0.267-0.1 0.033-0.027 0-0.1-0.047-0.133-0.053-0.020-0.053-0.047 0-0.153 0.053 0 0.16 0 0.18-0.080 0.053-0.047 0.213-0.047 0.313 0 0.107 0.053 0.213 0.053 0.393 0l0.313-0.153c0.133-0.080 0.153-0.107 0.153-0.207 0-0.267-0.073-0.52-0.133-0.653-0.067-0.133-0.067-0.267-0.18-0.493-0.1-0.213-0.1-0.267-0.2-0.393-0.060-0.053-0.087-0.080-0.087-0.153-0.008-0.107-0.058-0.201-0.133-0.266l-0-0c-0.2-0.18-0.253-0.78-0.36-1.22-0.053-0.267 0-0.867-0.1-0.967-0.187-0.133-0.267-0.107-0.4-0.153-0.1-0.133-0.127-0.367-0.227-0.6-0.133 0.027-0.213 0.153-0.287 0.2-0.080 0.060-0.107 0.060-0.107 0.187 0 0.107-0.080 0.267-0.18 0.467-0.107 0.213-0.34 0.133-0.527 0.42-0.36-0.44-0.36-0.573-0.387-0.7 0-0.133-0.080-0.16-0.287-0.34v-0.4c-0.187-0.133-0.287-0.1-0.367 0-0.080 0.080-0.133 0.207-0.26 0.267-0.053 0.1-0.267 0.307-0.42 0.6 0.16 2.34 0.68 4.687 2.267 6.567z"></path>
<path fill="#ff0" d="M38.3 13.313c0-1.62-0.080-3.187-0.053-4.533-1.782-0.713-3.847-1.127-6.009-1.127-0.051 0-0.101 0-0.152 0.001l0.008-0c-1.38 0-4.093 0.207-6.147 1.12 0.047 1.353-0.053 2.92-0.053 4.533z"></path>
<path fill="#cf6200" d="M26.233 15.16c0.067 0.107 0.193 0.287 0.2 0.4 0.053-0.107 0.093-0.147 0.1-0.207 0-0.067 0.087-0.18 0.053-0.247-0.027-0.067-0.047-0.113 0.027-0.067s0.060 0.133 0.047 0.253c-0.047 0.333-0.18 0.4-0.2 0.62 0.193 0.467 0.047 0.64 0.267 1.107 0.033 0.013 0.12-0.020 0.147-0.013 0.12-0.080 0.2-0.060 0.367-0.020 0.16 0.033 0.247 0.147 0.247 0.253s0 0.127 0.040 0.187c0.033 0.053 0.093 0.153 0.087 0.227-0.020 0.067 0.007 0.107 0.033 0.133 0.020 0.033-0.013 0.12-0.027 0.16-0.020 0.040-0.013 0.113 0.067 0.213s0.267 0.527 0.267 0.773c0 0.26 0.020 0.373 0.12 0.42s0.133 0.087 0.12 0.193c-0.013 0.1 0.047 0.667 0.060 0.76 0.007 0.087 0.047 0.067 0.093 0.113 0.040 0.047 0.067 0.1 0.2 0.1 0.14 0 0.267-0.013 0.347 0 0.133 0.167 0.2 0.4 0.233 0.54 0.033 0.147 0.027 0.333 0.067 0.333 0.053 0 0.1 0 0.087-0.167-0.013-0.173-0.027-0.2-0.087-0.293-0.067-0.087-0.1-0.133-0.067-0.18 0.033-0.053 0.040-0.133 0.033-0.207-0.013-0.067-0.040-0.173 0.080-0.040l0.18 0.22c0.033 0.040 0.047 0.133 0.040 0.22-0.007 0.080 0 0.113 0.060 0.067 0.047-0.040 0.1 0.033 0.067 0.12-0.020 0.087 0.020 0.14 0.1 0.173 0.080 0.027 0.113 0.047 0.133 0.107 0.020 0.053 0.087 0.087 0.087-0.040-0.007-0.167-0.036-0.324-0.084-0.473l0.004 0.013c-0.033-0.080-0.060-0.253-0.067-0.36-0.013-0.1-0.027-0.127-0.073-0.14-0.047-0.020-0.093-0.067-0.1-0.107 0-0.047-0.047-0.067-0.073-0.067-0.033 0-0.060-0.020-0.080-0.053-0.013-0.040-0.033-0.040-0.067-0.040-0.033-0.007-0.087 0.013-0.107-0.040-0.013-0.053-0.040-0.133-0.073-0.173s-0.060-0.060-0.067-0.213c0-0.153 0-0.173-0.053-0.227s-0.133-0.2-0.167-0.253c-0.027-0.067-0.067-0.127-0.067 0 0 0.133 0 0.2 0.087 0.247 0.080 0.047 0.1 0.047 0.067 0.12-0.040 0.067 0 0.113 0.013 0.16 0.020 0.047 0.040 0.093 0 0.133-0.040 0.053-0.080 0.040-0.073-0.033 0-0.001 0-0.001 0-0.002 0-0.081-0.022-0.156-0.061-0.22l0.001 0.002c-0.027-0.067-0.060-0.107-0.1-0.067-0.040 0.027-0.073-0.013-0.047-0.040 0.033-0.027 0.020-0.047 0-0.067-0.013-0.013-0.027-0.040 0.007-0.080s0.033-0.060 0.013-0.153-0.167-0.573-0.233-0.68c-0.067-0.113-0.060-0.187 0.020-0.087 0.087 0.107 0.167 0.2 0.18 0.293 0 0.093 0.020 0.147 0.047 0.173 0.033 0.033 0.047 0.027 0.067-0.053 0-0.073 0.067-0.047-0.027-0.187-0.1-0.14-0.273-0.38-0.347-0.813-0.067-0.427-0.093-0.7-0.16-0.813-0.067-0.12-0.087-0.147-0.093-0.253s0-0.22-0.047-0.3c-0.047-0.080-0.080-0.093-0.087 0.027s0 0.4 0.040 0.44c0.040 0.047 0.013 0.173 0 0.233-0.013 0.067-0.113 0.14 0.113 0.273 0.087 0.060 0.067 0.133 0.067 0.173-0.020 0.053-0.033 0.047-0.080-0.027s-0.093-0.14-0.14-0.173c-0.047-0.033-0.060-0.067-0.047-0.167s0.020-0.167 0-0.2c-0.027-0.027-0.040-0.007-0.060 0.053-0.013 0.053-0.020 0.2-0.060 0.24-0.033 0.040-0.033 0.013-0.053-0.073-0.027-0.087 0.007-0.227 0.053-0.38 0.047-0.147 0.080-0.32 0.040-0.52s-0.027-0.267-0.173-0.433c-0.16-0.173-0.34-0.333-0.407-0.54-0.080-0.213-0.093-0.4-0.18-0.493-0.075-0.096-0.163-0.178-0.263-0.244l-0.004-0.003v-0.313c0-0.080-0.033-0.12-0.12-0.107s-0.147 0.087-0.2 0.187c-0.053 0.107-0.093 0.060-0.173 0.233s-0.173 0.267-0.173 0.453z"></path>
<path fill="#cf6200" d="M26.72 17.14c0.067 0.040 0.113 0.060 0.2 0.020 0.073-0.040 0.167-0.16 0.287-0.040 0.098 0.121 0.157 0.277 0.16 0.446v0.001c0 0.153 0 0.433 0.173 0.587s0.26 0.32 0.267 0.52c0.016 0.221 0.049 0.426 0.099 0.624l-0.005-0.024c0.027 0.080 0.067 0.173 0.127 0.233 0.047 0.053 0.093 0.207 0.1 0.367 0.007 0.167-0.020 0.273 0 0.36 0.027 0.080 0 0.147-0.053 0.113-0.067-0.033-0.080-0.067-0.12-0.133s-0.067-0.060-0.033 0.047 0.133 0.2 0.22 0.2c0.087 0 0.113 0.007 0.173 0.067 0.053 0.053 0.060 0.080 0.153 0.080s0.107 0 0.2 0.027c0.087 0.020 0.087 0.013 0.133 0 0.047-0.020 0.093 0.027 0.127 0.113 0.027 0.087 0.113 0.333 0.113 0.4s0 0.133 0.047 0.2c0.047 0.073 0.033 0.133-0.020 0.1-0.047-0.040-0.053-0.033-0.087-0.020-0.040 0.013-0.067-0.013-0.127-0.053-0.053-0.027-0.020-0.020-0.073-0.1-0.053-0.087-0.087-0.113-0.087-0.047s-0.013 0.133-0.053 0.093c-0.040-0.033-0.060-0.033-0.093 0-0.033 0.040-0.047 0.067-0.087 0s-0.087-0.067-0.133-0.087c-0.033-0.007-0.033-0.007-0.053-0.067-0.020-0.067-0.087-0.080-0.133-0.080-0.060 0-0.087-0.027-0.093-0.067 0-0.040-0.040-0.067-0.067-0.087-0.033-0.020-0.013-0.067-0.020-0.113 0-0.047-0.047-0.033-0.073-0.040-0.033-0.013-0.047-0.007-0.047-0.080 0-0.067-0.033-0.087-0.047-0.133-0.027-0.053 0-0.1 0.013-0.147 0.007-0.067 0-0.093-0.040-0.133-0.040-0.053 0-0.1-0.113-0.2-0.113-0.087-0.167-0.007-0.2-0.227-0.021-0.279-0.078-0.537-0.166-0.78l0.006 0.020c-0.067-0.067-0.1-0.133-0.167-0.153s-0.093 0-0.1-0.133c-0.007-0.133-0.047-0.293-0.133-0.373l-0.153-0.147c-0.040-0.027-0.060-0.093 0-0.2 0.060-0.12 0.033-0.28 0.027-0.353-0.007-0.067-0.027-0.173-0.013-0.253s0-0.18-0.013-0.233c-0.020-0.047-0.047-0.067-0.013-0.113zM28.353 15.22c-0.090 0.118-0.193 0.219-0.309 0.304l-0.004 0.003c-0.127 0.093-0.287 0.16-0.2 0.313 0.093 0.153 0.167 0.173 0.18 0.287 0.020 0.12 0.053 0.22 0.133 0.247 0.1 0.027 0.133 0.013 0.133 0.2 0 0.18 0 0.267 0.080 0.333s0.067 0.147 0.107 0.313c0.040 0.173 0.040 0.547 0.147 0.8 0.1 0.247 0.353 0.733 0.32 0.827-0.027 0.1-0.053 0.173 0.047 0.293 0.113 0.113 0.18 0.287 0.2 0.387 0 0.1 0.020 0.133 0.133 0.1 0.077-0.020 0.142-0.059 0.193-0.113l0-0c0.033-0.047 0.107-0.040 0.207 0.013 0.1 0.060 0.253 0.107 0.347 0.060 0.087-0.060 0.133-0.14 0.213-0.14 0.127-0.093 0.173-0.28 0.2-0.333s0.007-0.053-0.047-0.107c-0.053-0.053-0.027-0.147-0.033-0.233-0.013-0.093-0.047-0.233-0.153-0.433s-0.18-0.44-0.247-0.5c-0.067-0.067-0.107-0.22-0.113-0.293-0.007-0.067-0.093-0.133-0.147-0.187-0.060-0.060-0.107-0.133-0.173-0.453-0.067-0.313-0.107-0.533-0.107-0.6 0-0.053-0.013-0.053-0.067-0.080-0.053-0.020-0.080-0.107-0.053-0.147 0.007-0.047-0.027-0.093-0.047-0.147-0.013-0.053 0-0.153 0.040-0.213 0.033-0.053 0.027-0.2-0.007-0.333-0.033-0.12-0.073-0.227-0.22-0.253-0.14-0.013-0.173-0.053-0.22-0.173-0.067-0.113-0.12-0.32-0.133-0.367s-0.047-0.053-0.153 0.040c-0.107 0.087-0.147 0.113-0.147 0.287 0 0.113 0.027 0.147 0.060 0.207 0.033 0.067 0.047 0.087 0.067 0.253 0.027 0.167 0.18 0.44-0.013 0.6-0.2 0.147-0.173 0.187-0.167 0.293 0.013 0.113-0.053 0.18-0.087 0.033-0.040-0.16 0-0.247 0.107-0.32 0.107-0.067 0.207-0.167 0.133-0.267-0.061-0.129-0.101-0.278-0.113-0.436l-0-0.004c-0.007-0.107-0.020-0.147-0.087-0.060z"></path>
<path fill="#00b800" d="M26.747 17.52l0.020 0.22c0 0.073 0.027 0.233-0.033 0.347-0.053 0.113-0.040 0.173 0 0.207h0.007c0.113-0.033 0.133-0.153 0.1-0.213-0.012-0.026-0.019-0.056-0.019-0.087 0-0.042 0.012-0.081 0.033-0.113l-0.001 0.001c0.033-0.067 0.033-0.1 0-0.147s-0.033-0.047 0-0.173c0.040-0.113-0.047-0.113-0.107-0.040zM27.907 19.273c-0.020-0.080-0.1-0.4-0.1-0.6-0.007-0.2-0.1-0.367-0.267-0.52-0.133-0.12-0.16-0.313-0.173-0.467-0.1-0.060-0.133-0.033-0.127 0.080 0 0.12 0.133 0.173 0.113 0.353-0.020 0.173-0.020 0.133 0.067 0.22 0.073 0.080 0.113 0.173 0.067 0.2-0.047 0.033-0.047 0.1 0.013 0.12 0.067 0.027 0.067 0.093 0.060 0.16-0.007 0.060 0.060 0.073 0.087 0.113 0.040 0.047 0.040 0.16 0 0.22-0.027 0.067-0.033 0.167 0.027 0.113 0.067-0.060 0.093 0 0.14 0.080 0.040 0.067 0.080 0.047 0.133 0.033-0.018-0.030-0.033-0.066-0.046-0.103l-0.001-0.004zM28.773 20.847c-0.027 0.080-0.073 0.060-0.113 0.020s-0.087-0.040-0.067-0.12c0.013-0.073 0-0.087-0.047-0.127l-0.020-0.020h-0.053c-0.1 0-0.107-0.020-0.167-0.080-0.010-0.009-0.021-0.018-0.032-0.026l-0.001-0.001v0.053c0 0.073 0 0.053-0.067 0.080-0.067 0.020-0.067-0.073-0.080-0.133-0.001-0.015-0.003-0.028-0.007-0.042l0 0.002c-0.098-0.022-0.174-0.097-0.2-0.191l-0-0.002c-0.033-0.107 0-0.113 0.040-0.047s0.047 0.087 0.107 0.133c0.053 0.033 0.080-0.033 0.053-0.113-0.002-0.013-0.003-0.028-0.003-0.043s0.001-0.030 0.003-0.045l-0 0.002c-0.010-0.028-0.029-0.051-0.053-0.066l-0.001-0c-0.12-0.047-0.080-0.053-0.080-0.147 0.013-0.087-0.007-0.087-0.080-0.040-0.067 0.047-0.067 0-0.067-0.147 0-0.133-0.093-0.133-0.113-0.040-0.020 0.1-0.060 0.033-0.093-0.1s-0.1-0.173-0.1-0.040c0 0.113-0.040 0.133-0.107 0.080l0.027 0.207c0.033 0.22 0.087 0.133 0.2 0.233 0.107 0.093 0.073 0.147 0.113 0.193s0.047 0.080 0.040 0.133c-0.020 0.053-0.040 0.1-0.020 0.147 0.020 0.053 0.053 0.067 0.053 0.14 0 0.067 0.013 0.060 0.047 0.080h0.053l0.047-0.067c0.087-0.080 0.2 0 0.247 0.113 0.040 0.1 0.087 0.127 0.153 0.040 0.067-0.080 0.040-0.067 0.107 0.007 0.067 0.080 0.093 0.067 0.093 0.067s0.067-0.027 0.12 0.013c0.047 0.040 0.067 0.033 0.16-0.093 0.087-0.133-0.040-0.093-0.080-0.013zM29.027 17.127c0.027-0.2 0.007-0.393 0.087-0.467 0.087-0.067 0.18-0.22 0.18 0.093-0.013 0.307-0.027 0.287-0.087 0.36-0.067 0.073-0.12 0.093-0.067 0.207 0.073 0.113 0.080 0.133 0.073 0.307-0.007 0.18-0.007 0.26 0.060 0.347 0.073 0.093 0.093 0.093 0.113 0.2 0.022 0.119 0.079 0.221 0.16 0.3l0 0c0.080 0.080 0.173 0.28 0.18 0.427 0.013 0.147 0.133 0.18 0.253 0.287 0.12 0.1-0.027 0.167-0.113 0.12-0.093-0.040-0.060 0-0.113 0.067s-0.067 0.073-0.113-0.040c-0.047-0.107-0.2-0.18-0.273-0.207s-0.133-0.147-0.2-0.267c-0.054-0.094-0.148-0.159-0.258-0.173l-0.002-0c0.027 0.073 0.040 0.133 0.033 0.16-0.027 0.1-0.053 0.173 0.047 0.293 0.113 0.113 0.18 0.287 0.2 0.387 0 0.1 0.020 0.133 0.133 0.1 0.076-0.023 0.14-0.062 0.194-0.113l-0 0c0.033-0.047 0.107-0.047 0.207 0.013 0.1 0.053 0.253 0.107 0.347 0.053 0.087-0.060 0.133-0.133 0.213-0.133 0.127-0.093 0.173-0.287 0.2-0.333 0.027-0.067 0.007-0.067-0.047-0.113-0.053-0.053-0.027-0.147-0.040-0.233 0-0.093-0.040-0.227-0.147-0.427-0.113-0.2-0.18-0.44-0.247-0.5-0.067-0.067-0.113-0.22-0.113-0.293-0.013-0.067-0.093-0.133-0.147-0.193-0.060-0.053-0.113-0.133-0.173-0.447-0.047-0.247-0.093-0.44-0.1-0.533-0.067 0.1-0.113 0.133-0.133 0.053-0.033-0.080-0.060-0.12-0.1-0.067-0.033 0.053-0.047-0.053-0.047-0.1s0-0.047-0.060-0.047c-0.053 0 0-0.067-0.020-0.213-0.020-0.133-0.047-0.147-0.060 0.013-0.020 0.16-0.113 0.267-0.073 0.293 0.033 0.040 0.013 0.113-0.020 0.22-0.014 0.036-0.022 0.077-0.022 0.12s0.008 0.084 0.023 0.122l-0.001-0.002c0.027 0.067-0.013 0.213-0.027 0.327-0.020 0.113 0.073 0.233 0.1 0.040zM27.373 15.513c-0.067 0-0.113 0.067-0.073 0.267 0.027 0.133-0.067 0.107-0.107 0.040-0.033-0.067-0.067-0.2-0.133-0.313-0.073-0.113-0.040 0.073-0.047 0.187-0.013 0.113 0.060 0.113 0.12 0.2 0.067 0.093 0.013 0.127-0.053 0.127s-0.047 0.147-0.027 0.24c0.020 0.1-0.020 0.12-0.067 0.040-0.067-0.087-0.020-0.2-0.013-0.36 0.013-0.153 0.020-0.12-0.080-0.153-0.1-0.040-0.087-0.060-0.040-0.147 0.033-0.093 0.067-0.133 0.020-0.18-0.040-0.047-0.033-0.073 0.040-0.080 0.067-0.013 0.040-0.067 0.107-0.080 0.067-0.020 0.093 0 0.1-0.113 0.007-0.1 0.040-0.153 0.113-0.127 0.047 0.153 0.1 0.387 0.14 0.453zM28.287 16.58c0 0.187 0 0.267 0.080 0.333s0.067 0.147 0.107 0.313c0.040 0.173 0.040 0.547 0.147 0.8l0.12 0.267c0.056-0.047 0.101-0.105 0.132-0.17l0.001-0.003c0.020-0.053-0.060-0.187-0.12-0.287-0.067-0.12 0.007-0.153 0.067-0.293 0.067-0.127 0-0.133-0.107-0.173-0.093-0.033-0.093-0.133-0.147-0.273-0.053-0.147-0.047-0.207-0.013-0.293 0.033-0.080 0.013-0.14-0.060-0.16s-0.053-0.067-0.027-0.16c0.027-0.087 0.047-0.107-0.067-0.087-0.080 0.027-0.1 0.047-0.127 0.067z"></path>
<path fill="#5d3100" d="M29.327 16.953c-0.013 0.107-0.013 0.167-0.040 0.2s-0.007 0.087 0.020 0.147c0.033 0.053 0.040 0.12 0.020 0.227-0.027 0.1 0.013 0.173 0.067 0.2s0.080 0 0.067 0.133c-0.001 0.011-0.002 0.025-0.002 0.038 0 0.108 0.044 0.205 0.115 0.275l0 0c0.067 0.053 0.113 0.14 0.1 0.2 0 0.053 0.047 0.1 0.113 0.133 0.067 0.027 0.053 0.033 0.053 0.067s0.027 0.040 0.093 0.060c0.067 0.020 0.133 0.060 0.213 0.16 0.080 0.107 0.2 0.153 0.18 0.047-0.020-0.1 0-0.187-0.107-0.233-0.113-0.053-0.193-0.313-0.233-0.493-0.052-0.185-0.145-0.344-0.267-0.474l0.001 0.001c-0.020-0.133 0-0.193-0.080-0.253-0.068-0.048-0.112-0.125-0.113-0.213v-0c0-0.053-0.040-0.133-0.080-0.16-0.033-0.020-0.053-0.060-0.053-0.12 0-0.053-0.053-0.047-0.067 0.067z"></path>
<path fill="#00d860" d="M28.847 21.8c0.242-0.038 0.46-0.103 0.663-0.193l-0.017 0.007c0.113 0.073 0.3 0.173 0.38 0.173-0.153 0.033-0.26 0.020-0.293-0.013 0.020 0.047 0.067 0.127 0.107 0.133-0.153 0-0.32-0.040-0.373-0.093-0.133 0.053-0.347 0.067-0.467-0.013zM29.133 22c0.060 0.020 0.347 0.067 0.387 0.067-0.093 0.080-0.013 0.16 0.14 0.147-0.067 0.013-0.16 0.040-0.1 0.053 0.215-0.003 0.418-0.047 0.604-0.124l-0.011 0.004c-0.133 0.167-0.76 0.32-1.020-0.147zM29.4 22.407c0.043-0.011 0.093-0.018 0.144-0.018 0.075 0 0.147 0.014 0.213 0.039l-0.004-0.001c-0.093 0.040-0.3 0.040-0.36-0.013z"></path>
<path fill="#000" d="M29.687 22.407c0.133-0.020 0.533 0.067 0.667-0.013-0.047 0.127-0.287 0.147-0.38 0.113-0.087-0.020-0.167-0.053-0.227-0.053 0.040-0.020-0.013-0.020-0.067-0.047z"></path>
<path fill="#00d860" d="M29.827 22.6c0.017 0 0.036 0.001 0.056 0.001 0.194 0 0.381-0.027 0.558-0.078l-0.014 0.003c0.113 0.040 0.36 0.107 0.413 0.1-0.113 0.067-0.333 0.027-0.4 0-0.082 0.035-0.178 0.055-0.278 0.055-0.123 0-0.238-0.030-0.339-0.084l0.004 0.002z"></path>
<path fill="#00d860" d="M30 22.66c0.153 0.033 0.287 0.013 0.433-0.033 0.047 0.013 0.153 0.040 0.26 0.040 0.067 0.033 0.153 0.087 0.247 0.1-0.045 0.006-0.097 0.010-0.15 0.010-0.125 0-0.246-0.021-0.358-0.059l0.008 0.002c-0.011-0-0.023-0-0.036-0-0.18 0-0.35 0.037-0.506 0.104l0.008-0.003c0.007-0.066 0.045-0.122 0.099-0.153l0.001-0z"></path>
<path fill="#000" d="M29.827 21.907c0.113 0.033 0.547 0.013 0.753-0.087 0.093-0.047 0.147 0.027 0.047 0.053-0.347 0.133-0.633 0.173-0.833 0.067-0.080-0.040-0.093-0.080 0.033-0.040z"></path>
<path fill="#00d860" d="M31.907 21.32c-0.527 0.247-0.867 0.32-1.593 0.093-0.067-0.013-0.113 0-0.040 0.047 0.162 0.073 0.352 0.132 0.55 0.171l0.017 0.003c0.093 0.007 0.060 0.047 0 0.067-0.053 0.013-0.067 0.053 0.007 0.027 0.073-0.033 0.52-0.047 0.7 0.047 0.073 0.047 0.093 0.033 0.087 0-0.007-0.027 0.033-0.047 0.093-0.053 0.053-0.007 0.093-0.027 0.047-0.040-0.047-0.020-0.053-0.033-0.020-0.047 0.033-0.020 0.040-0.040-0.013-0.047-0.047-0.013-0.087-0.027-0.040-0.047 0.050-0.023 0.109-0.039 0.171-0.046l0.003-0c0.013-0.033-0.007-0.133 0.033-0.173z"></path>
<path fill="#000" d="M31.040 21.38c0.008 0 0.017 0 0.026 0 0.423 0 0.81-0.151 1.111-0.402l-0.003 0.002c0.107 0.067 0.247 0.133 0.327 0.147 0.073 0.013 0.133 0.080 0.020 0.080s-0.267-0.047-0.347-0.080c-0.292 0.182-0.647 0.29-1.027 0.29-0.037 0-0.074-0.001-0.111-0.003l0.005 0c-0.073 0-0.093-0.033 0-0.027z"></path>
<path fill="#00d860" d="M30.153 19.753c0.107 0.073 0.287 0.193 0.52 0.173 0.108 0.087 0.234 0.155 0.372 0.198l0.008 0.002c-0.16 0.053-0.333 0.113-0.373 0.16-0.067-0.067-0.167-0.053-0.187-0.093-0.067 0.067-0.060 0.087-0.013 0.12 0.125 0.039 0.269 0.061 0.418 0.061 0.017 0 0.034-0 0.051-0.001l-0.002 0c0.080-0.027 0.113 0.047 0.040 0.067-0.18 0.067-0.533 0-0.653-0.193-0.133-0.193-0.233-0.267-0.567-0.087-0.033-0.1-0.033-0.113-0.1-0.113s-0.187-0.087-0.093-0.087 0.36-0.040 0.58-0.2z"></path>
<path fill="#00d860" d="M30.24 20.2c-0.067 0.007-0.22 0.093-0.273 0.1-0.060 0.013-0.16 0.093-0.060 0.093 0.113 0 0.247-0.113 0.32-0.113s0.080-0.1 0.013-0.087zM30.573 20.533c-0.047 0.013-0.22 0.053-0.267 0.053s-0.1 0-0.093 0.040c0.007 0.033 0.020 0.060-0.060 0.047-0.067-0.013-0.127 0.020-0.14 0.040-0.020 0.020-0.033 0.040 0.040 0.047 0.067 0 0.107 0.020 0.193-0.027 0.080-0.040 0.153-0.087 0.24-0.093 0.087 0 0.173-0.12 0.080-0.1z"></path>
<path fill="#000" d="M30.327 20.74c0.073 0.060 0.44 0.173 0.567 0.173 0.133-0.007 0.113 0.047 0.013 0.067-0.036 0.006-0.077 0.009-0.119 0.009-0.199 0-0.381-0.071-0.522-0.19l0.001 0.001c-0.080-0.067 0-0.093 0.053-0.060z"></path>
<path fill="#00d860" d="M32.053 20.933c-0.114 0.033-0.245 0.053-0.38 0.053-0.106 0-0.21-0.012-0.309-0.034l0.009 0.002c-0.113-0.040-0.22-0.040-0.133 0.040 0.067 0.073 0.32 0.12 0.467 0.087-0.507 0.113-0.64 0.107-0.76 0.087-0.092-0.012-0.198-0.018-0.305-0.018-0.057 0-0.113 0.002-0.169 0.006l0.008-0c-0.019 0.003-0.041 0.005-0.064 0.005-0.056 0-0.11-0.012-0.159-0.033l0.003 0.001c-0.047-0.033-0.060-0.073 0.073-0.060 0.133 0.007 0.153-0.013 0.040-0.033-0.12-0.020-0.273 0.027-0.12 0.133 0.16 0.093 0.493-0.013 0.713 0.053 0.094 0.025 0.201 0.040 0.312 0.040 0.306 0 0.586-0.111 0.803-0.295l-0.002 0.001c0.020-0.013 0.060-0.067-0.027-0.040zM30.68 20.513c0.013 0.040 0.013 0.067 0 0.093s-0.007 0.060 0.033 0.027 0.067-0.080 0.12-0.053c0.047 0.020 0.153 0.020 0.2 0.013 0.053 0 0.067-0.020 0-0.047-0.057-0.025-0.123-0.040-0.193-0.040h-0c-0.040 0.007-0.093 0-0.127-0.020s-0.040 0-0.033 0.027z"></path>
<path fill="#00d860" d="M31.4 20.647c-0.053 0-0.16-0.040-0.207-0.067-0.053-0.020-0.133-0.020-0.080 0.067 0.060 0.080 0.307 0.113 0.4 0.080 0.087-0.040 0.053-0.080 0.133-0.027 0.093 0.053 0.18 0.087 0.247 0.087s0.087 0 0.020-0.040-0.107-0.047-0.12-0.080c-0.013-0.033-0.013-0.060 0.060-0.033 0.067 0.020 0.133 0.053 0.187 0.027s0.147-0.087 0.233-0.087l0.013-0.053c-0.12 0-0.2 0.033-0.233 0.040-0.027 0.013-0.093 0.027-0.16 0.013s-0.147-0.020-0.167-0.033c-0.027-0.020-0.020-0.033 0.033-0.040 0.053-0.013 0.067-0.047 0-0.040-0.067 0.013-0.28 0.013-0.387-0.020-0.1-0.033-0.147-0.040-0.187-0.020-0.047 0.013-0.040 0.067 0.020 0.067 0.067 0 0.213 0.020 0.267 0.067 0.040 0.047 0.040 0.047-0.013 0.027-0.060-0.027-0.167-0.013-0.060 0.067z"></path>
<path fill="#00d860" d="M32.287 20.52l-0.020 0.053c0.127 0 0.427 0.027 0.533 0.087 0.093-0.073 0.073-0.1 0.133-0.080 0.067 0.020 0.16 0.033 0.2 0.020 0.019-0.011 0.042-0.018 0.066-0.018 0.012 0 0.024 0.002 0.035 0.005l-0.001-0c0.040 0 0.133-0.013 0.18-0.040 0.053-0.033 0.16-0.067 0.22-0.067 0.053 0 0.133-0.020 0.020-0.040-0.107-0.020-0.28 0.020-0.333 0.040-0.067 0.020-0.233 0.033-0.333 0.033s-0.24 0.047-0.353 0.020c-0.12-0.027-0.28-0.013-0.353-0.013z"></path>
<path fill="#000" d="M33.86 20.467c-0.2 0.147-0.453 0.18-0.74 0.2-0.087 0-0.060 0.027 0.013 0.033 0.307 0.033 0.653-0.080 0.773-0.2 0.033-0.040 0.027-0.093-0.047-0.040z"></path>
<path fill="#00d860" d="M32.473 20.813c0.186 0.028 0.35 0.068 0.509 0.12l-0.022-0.006c0.080-0.013 0.1-0.027 0.087-0.060-0.020-0.027-0.027-0.053 0.113-0.040h0.5c0.053-0.020 0.153-0.1 0.2-0.1-0.12 0-0.633 0.027-0.693 0.020-0.067 0-0.1 0-0.14 0.027-0.040 0.020-0.060 0.033-0.113 0.007-0.067-0.020-0.14-0.047-0.2-0.007-0.040 0.027-0.153 0-0.24 0.040z"></path>
<path fill="#00d860" d="M33.66 20.827c0.047-0.020 0.153-0.1 0.2-0.107 0.093-0.007 0.187 0.027 0.233 0.040s0.1 0 0.067-0.040c-0.027-0.033 0-0.107 0.133-0.087 0.147 0.013 0.213 0.040 0.353 0.027s0.193 0.087 0.447-0.013c-0.013 0.1 0.033 0.107 0.080 0.087 0.047-0.013 0.1-0.013 0.18 0.047 0.087 0.067 0.58 0.067 0.693 0.047 0.12-0.020 0.173 0.040 0.087 0.067s-0.107 0.067-0.087 0.1c0.020 0.027 0.040 0.060-0.067 0.047-0.113-0.013-0.133 0.020-0.18 0.053-0.053 0.040-0.067 0.067-0.22 0.033-0.147-0.027-0.18-0.007-0.26 0-0.080 0.013-0.1 0.020-0.187-0.007-0.065-0.024-0.139-0.038-0.217-0.038-0.053 0-0.105 0.006-0.154 0.019l0.004-0.001c-0.107 0.040-0.18 0.067-0.28 0.040-0.1-0.020-0.1-0.013-0.040-0.067 0.053-0.067 0.067-0.067 0.187-0.073 0.12-0.013 0.2-0.047 0.127-0.093-0.087-0.047-0.107-0.040-0.22 0.007-0.107 0.053-0.16 0.093-0.287 0.027-0.12-0.067-0.173-0.060-0.267-0.033-0.080 0.020-0.213-0.033-0.327-0.080zM34.067 21.027c-0.16 0.027-0.2-0.073-0.36-0.060-0.053 0.013-0.147 0.080-0.020 0.067 0.127-0.007 0.267 0.060 0.387 0.053s0.067-0.067 0-0.060zM33.893 21.14c0.073-0.027 0.24 0.033 0.32 0.020 0.073-0.013 0.133 0.027 0.053 0.060-0.080 0.027-0.247-0.047-0.333-0.027-0.073 0.027-0.16-0.007-0.047-0.053zM32.267 21.587c0.113 0 0.52-0.020 0.68-0.353 0.013-0.027 0.020-0.040 0.067 0 0.047 0.033 0.24 0.14 0.587 0.173 0.1 0 0.2 0.053 0.007 0.047-0.2-0.013-0.507-0.067-0.607-0.133-0.18 0.273-0.493 0.307-0.733 0.3-0.14 0-0.107-0.040 0-0.033z"></path>
<path fill="#00d860" d="M33.14 21.12c-0.053 0.073-0.24 0.2-0.32 0.213-0.087 0-0.347-0.013-0.407-0.040-0.067-0.020-0.14-0.020-0.053 0.047 0.101 0.056 0.221 0.088 0.349 0.088 0.018 0 0.036-0.001 0.053-0.002l-0.002 0c0.107-0.020 0.207-0.053 0.28 0 0.067 0.040 0.2 0.12 0.28 0.107 0.080-0.020 0.233-0.020 0.287 0 0.053 0.027 0.14 0.107 0.007 0.067-0.133-0.047-0.24-0.013-0.3-0.040 0.067 0.093 0.22 0.247 0.347 0.247 0.033 0 0.060 0.060 0 0.087 0.053 0.027 0.2 0.060 0.287-0.020-0.027 0.033-0.013 0.047 0.020 0.060s0.073 0.040 0.013 0.053c-0.067 0.013-0.2 0.020-0.24 0 0.133 0.087 0.467 0.227 0.82 0.153 0.067-0.007 0.107-0.040 0-0.033-0.233 0-0.247 0-0.287-0.020-0.040-0.027-0.027-0.047 0.040-0.067 0.083-0.022 0.181-0.039 0.281-0.046l0.005-0c0.067 0 0.14-0.020 0-0.020-0.133 0-0.307 0-0.38-0.027-0.067-0.020-0.113-0.060-0.040-0.107 0.067-0.047 0.14-0.033 0.173-0.067-0.22 0-0.493-0.133-0.347-0.24 0.033-0.020 0.027-0.027-0.027-0.033-0.114-0.023-0.214-0.055-0.309-0.097l0.009 0.004c-0.067-0.033-0.027-0.073 0.033-0.087-0.133 0.020-0.4-0.047-0.573-0.173zM35.127 21.12c-0.12 0.087-0.353 0.133-0.453 0.133-0.093 0-0.113 0.027-0.033 0.033s0.167 0.027 0.2 0.013 0.060-0.013 0.107 0.013c0.038 0.013 0.081 0.021 0.127 0.021s0.089-0.008 0.129-0.021l-0.003 0.001c0.1-0.027 0.247-0.040 0.313-0.040 0.067 0.007 0.133 0.007 0-0.027-0.12-0.033-0.333-0.013-0.387 0-0.047 0.013-0.187 0-0.113-0.013 0.073-0.020 0.133-0.067 0.173-0.093l-0.060-0.020zM35.060 21.387c-0.113 0.085-0.252 0.14-0.404 0.153l-0.003 0c0.133 0.053 0.253 0.2 0.347 0.187-0.047 0.033-0.1 0.067-0.153 0.080 0.027 0.005 0.057 0.007 0.089 0.007 0.1 0 0.194-0.028 0.274-0.075l-0.002 0.001c0.2 0.053 0.467 0.013 0.553-0.067-0.133 0-0.287-0.040-0.36-0.107 0.067 0 0.127-0.033 0.153-0.073-0.153 0.027-0.4-0.047-0.487-0.12z"></path>
<path fill="#00d860" d="M34.847 21.8c0.053 0 0.113-0.040 0.153-0.067-0.027 0.002-0.059 0.003-0.091 0.003-0.239 0-0.463-0.066-0.655-0.18l0.006 0.003c-0.147-0.127-0.147-0.027-0.047 0.060 0.131 0.124 0.308 0.2 0.503 0.2 0.048 0 0.096-0.005 0.142-0.014l-0.005 0.001zM35.207 22.113c-0.060 0.033-0.353 0.060-0.447 0.033-0.1-0.020-0.133-0.013-0.12 0.033 0.020 0.040 0.040 0.067-0.040 0.053-0.011-0-0.023-0.001-0.035-0.001-0.082 0-0.162 0.012-0.237 0.036l0.006-0.002c-0.067 0.013-0.133 0.067-0.013 0.047 0.127-0.013 0.233-0.040 0.333-0.020 0.087 0.020 0.407 0.027 0.467 0 0.067-0.027 0.027-0.020 0-0.020-0.033 0-0.047-0.020 0-0.047 0.047-0.020 0.073-0.067 0.087-0.113zM32.387 21.727c-0.179 0.065-0.394 0.123-0.615 0.163l-0.025 0.004c-0.133 0.060-0.24 0.093-0.307 0.093 0.047 0.040 0.233 0.080 0.3 0.060-0.040 0.047-0.133 0.087-0.167 0.113 0.113-0.020 0.233 0.013 0.293 0.020-0.111 0.060-0.243 0.096-0.383 0.096-0.022 0-0.045-0.001-0.067-0.003l0.003 0c0.040 0.040 0.087 0.087 0.147 0.087-0.063 0.019-0.135 0.030-0.21 0.030-0.056 0-0.11-0.006-0.162-0.017l0.005 0.001c0.040 0.067 0.067 0.107 0.12 0.12-0.113 0.007-0.247 0.027-0.36-0.040 0.087 0.12 0.28 0.153 0.573 0.12s0.533-0.16 0.6-0.213c-0.12 0.013-0.287 0.020-0.36 0 0.218-0.059 0.408-0.143 0.582-0.252l-0.009 0.005c-0.070-0-0.135-0.023-0.188-0.061l0.001 0.001c0.027 0.001 0.058 0.002 0.090 0.002 0.158 0 0.311-0.020 0.456-0.058l-0.013 0.003c-0.097-0.021-0.178-0.076-0.233-0.152l-0.001-0.001c0.189 0.057 0.407 0.089 0.632 0.089 0.178 0 0.351-0.020 0.517-0.059l-0.015 0.003c0.053-0.013 0.053-0.087-0.047-0.073-0.187 0.013-0.553-0.040-0.653-0.087 0.075 0.054 0.165 0.094 0.262 0.113l0.004 0.001c-0.167 0.053-0.413 0.087-0.773-0.113z"></path>
<path fill="#00d860" d="M31.573 22.16c0.033-0.027 0.133-0.067 0.167-0.113-0.073 0.020-0.253-0.020-0.3-0.067 0.067 0 0.173-0.027 0.307-0.087-0.24-0.007-0.4-0.007-0.5-0.060-0.093-0.053-0.247-0.027-0.313-0.013-0.067 0.007-0.040 0.113 0.22 0.087-0.107 0.049-0.233 0.078-0.365 0.078-0.050 0-0.099-0.004-0.147-0.012l0.005 0.001c0.027 0.093 0.047 0.18 0.020 0.233 0.14 0.080 0.513 0.18 0.7 0.167-0.167-0.060-0.253-0.127-0.12-0.147 0.133-0.013 0.213-0.040 0.333-0.067z"></path>
<path fill="#000" d="M31.153 22.6c0.32-0.027 0.76-0.033 1.107-0.333 0.087-0.067 0.147-0.040 0.060 0.033-0.293 0.229-0.661 0.376-1.061 0.4l-0.005 0c-0.18 0-0.26-0.087-0.1-0.107z"></path>
<path fill="#00d860" d="M33.58 22.067c-0.109 0.034-0.234 0.053-0.364 0.053-0.003 0-0.007 0-0.010-0h0.001c-0.026-0.006-0.056-0.010-0.087-0.010-0.048 0-0.094 0.008-0.136 0.024l0.003-0.001c-0.053 0.033-0.060 0.067 0.013 0.067l0.22 0.013c-0.048 0.025-0.088 0.059-0.119 0.099l-0.001 0.001c0.12-0.027 0.313 0.020 0.373 0.053-0.011 0.002-0.023 0.004-0.035 0.004-0.037 0-0.071-0.011-0.099-0.031l0.001 0c0.18 0.2 0.727 0.2 0.813 0.16-0.040 0.033-0.080 0.067-0.113 0.067 0.147 0.033 0.32 0.027 0.5-0.067l-0.28-0.013c0.036-0.036 0.081-0.064 0.131-0.079l0.002-0.001c-0.067-0.013-0.28-0.007-0.333 0.020 0.020-0.048 0.055-0.087 0.099-0.113l0.001-0.001c-0.267 0-0.593 0-0.707-0.067 0.18 0.027 0.393-0.087 0.48-0.087-0.147 0-0.307-0.033-0.347-0.1zM32.907 22.2c-0.133 0.033-0.333 0.093-0.393 0.12-0.053 0.033-0.107 0.047 0.007 0.047-0.030 0.004-0.016 0.002-0.003-0.001l0.043-0.006c-0.047 0-0.1 0-0.007-0.033 0.087-0.027 0.2-0.087 0.347-0.113zM32.64 22.527c0.047 0 0.247 0 0.333-0.067 0.080 0.053 0.247 0.147 0.347 0.147 0.107 0 0.093 0.027 0 0.040-0.134-0.004-0.258-0.046-0.363-0.115l0.003 0.002c-0.12 0.047-0.22 0.007-0.333-0.007zM31.067 23.44c0.135 0.061 0.292 0.097 0.458 0.097 0.081 0 0.16-0.009 0.236-0.025l-0.007 0.001c0.12 0.1 0.353 0.107 0.48 0.080 0.133-0.027 0.247-0.040 0.393 0 0.133 0.053 0.427 0.060 0.513 0.127l-0.273 0.007c-0.040 0.013-0.020 0.033 0.053 0.067-0.004-0-0.009-0-0.014-0-0.273 0-0.528 0.074-0.746 0.204l0.007-0.004c0.068-0.151 0.217-0.253 0.39-0.253 0.004 0 0.007 0 0.011 0h-0.001c-0.12-0.040-0.513-0.047-0.647 0.033-0.034-0.037-0.062-0.082-0.079-0.131l-0.001-0.003c-0.207 0.113-0.613-0.060-0.78-0.2zM30.533 23.053c0.185-0.016 0.352-0.084 0.489-0.188l-0.002 0.002c0.047 0.040 0.233 0.080 0.433 0.020-0.040 0.027-0.047 0.087-0.033 0.113-0.172 0.016-0.33 0.059-0.476 0.124l0.010-0.004c-0.080 0.040-0.333 0.073-0.413 0.027-0.080-0.040-0.080-0.080-0.013-0.093z"></path>
<path fill="#00d860" d="M31.42 23.007c-0.172 0.016-0.33 0.059-0.476 0.124l0.010-0.004 0.033 0.113c0.244-0.072 0.524-0.114 0.813-0.114 0.073 0 0.145 0.003 0.216 0.008l-0.010-0.001c-0.107 0.007-0.3 0.12-0.407 0.127 0.267-0.020 0.52 0.033 0.587 0.053 0.067 0.013 0.087 0.067 0.033 0.12-0.053 0.060-0.073 0.047 0.033 0.060 0.107 0 0.333-0.020 0.433-0.12-0.047-0.040-0.147-0.020-0.18-0.060 0.070-0.023 0.13-0.059 0.18-0.107l-0 0c-0.013 0-0.029 0.001-0.044 0.001-0.093 0-0.184-0.007-0.272-0.022l0.010 0.001c-0.053-0.013-0.1-0.033-0.027-0.073 0.052-0.026 0.096-0.059 0.133-0.1l0-0c-0.133 0.033-0.34 0.067-0.52-0.067 0.067 0.013 0.22 0 0.273-0.020-0.042-0.027-0.091-0.046-0.145-0.053l-0.002-0c0.133-0.067 0.4-0.127 0.753 0.007 0.041-0.003 0.088-0.005 0.136-0.005 0.119 0 0.236 0.012 0.348 0.034l-0.011-0.002c0.067-0.053 0.173-0.187 0.233-0.213-0.4 0.027-1.12-0.040-1.1-0.253-0.133 0.173-0.433 0.267-0.56 0.24-0.013 0.053 0.040 0.133 0.087 0.173-0.133 0.027-0.367 0.053-0.473 0.027 0.067 0.060 0.173 0.113 0.24 0.113-0.133 0-0.213 0.027-0.327 0.013z"></path>
<path fill="#00d860" d="M32.247 23.487c0.12 0 0.333-0.013 0.44-0.113-0.047-0.040-0.147-0.020-0.18-0.060 0.070-0.023 0.13-0.059 0.18-0.107l-0 0c0.293-0.027 0.54-0.013 0.667-0.047 0.12-0.033 0.433-0.020 0.493-0.033-0.273 0.047-0.327 0.067-0.333 0.113-0.013 0.047 0.080 0.073 0.147 0.073-0.113 0-0.273 0.127-0.293 0.18-0.16-0.093-0.227 0.013-0.253 0.053-0.067-0.027-0.293-0.020-0.407 0.080-0.147-0.047-0.247-0.067-0.4-0.047 0.1-0.020 0.080-0.087-0.053-0.093zM33.547 22.687c0.093 0 0.293 0.013 0.367 0-0.046 0.023-0.086 0.052-0.12 0.087l-0 0c0.233-0.027 0.547-0.047 0.64-0.027-0.12-0.020-0.233 0.060-0.293 0.093-0.053 0.033-0.020 0.060 0.060 0.067 0.080 0.013 0.18 0.067 0.040 0.053-0.133-0.013-0.427-0.020-0.493-0.013-0.067 0.013-0.107-0.020 0-0.040 0.077-0.012 0.147-0.035 0.21-0.068l-0.004 0.002c-0.080 0.020-0.233 0.020-0.287 0s-0.073-0.033-0.020-0.053c0.060-0.020 0.020-0.027-0.040-0.020-0.060 0-0.2 0.067-0.287 0.14 0.087-0.093 0.173-0.173 0.227-0.213z"></path>
<path fill="#000" d="M32.52 22.847c0.107 0.123 0.264 0.2 0.438 0.2 0.005 0 0.011-0 0.016-0l-0.001 0c0.040 0 0.133 0.060 0.020 0.067-0.287 0.013-0.427-0.060-0.553-0.24-0.027-0.040 0.020-0.093 0.080-0.027zM34.22 20.473c0.147 0.067 0.447 0.133 0.68 0.127 0.047 0 0.12 0.040 0.020 0.047-0.044 0.006-0.096 0.009-0.148 0.009-0.209 0-0.406-0.053-0.578-0.146l0.006 0.003c-0.060-0.033-0.040-0.067 0.020-0.040z"></path>
<path fill="#00d860" d="M34.367 20.473c0.233 0 0.407 0 0.467 0.060 0.133-0.033 0.38-0.060 0.427-0.047 0.053 0.013 0.12-0.020-0.007-0.047-0.133-0.027-0.413-0.040-0.507-0.020-0.093 0.013-0.38 0.027-0.467 0.013 0.033 0 0.060 0.013 0.087 0.040zM35.26 20.56c0.107-0.053 0.42 0 0.513-0.040-0.067 0.080 0.22 0.087 0.467 0.027-0.093 0.053-0.3 0.067-0.387 0.107s-0.133 0.007-0.2-0.020c-0.092-0.045-0.2-0.071-0.315-0.071-0.028 0-0.055 0.002-0.082 0.005l0.003-0z"></path>
<path fill="#00d860" d="M36.24 20.547c-0.247 0.053-0.533 0.053-0.467-0.027-0.093 0.040-0.4-0.013-0.513 0.040 0.12-0.067 0.2-0.007 0.28-0.147 0.053 0.007 0.173 0.013 0.213-0.040 0.067 0.020 0.2 0.047 0.233 0.087s0.087-0.013 0.047-0.067c0.113-0.040 0.040 0.047 0.3-0.020 0.060-0.013 0.187-0.040 0.233-0.040-0.097 0.081-0.206 0.152-0.324 0.209l-0.010 0.004z"></path>
<path fill="#ff0" d="M31.44 19.407l-0.047-5.787c0-0.26-0.133-0.2-0.133 0v5.733zM33.32 13.313l0.207 6.093-0.027 0.053h-0.133l-0.127-6.147zM35.093 18.473l-0.107-4.953c0-0.16-0.133-0.133-0.133 0.027l0.107 4.927z"></path>
<path fill="#fff" d="M32.28 14.327l-1.827-0.027c-0.080 0.367 0.367 0.333 0.52 0.267 0.207 0.127 0.367 0.127 0.467 0 0.16 0.127 0.367 0.1 0.447 0 0.207 0.18 0.44 0 0.393-0.267zM32.413 15.213h-1.833c-0.333 0.313 0.080 0.467 0.447 0.26 0.053 0.107 0.26 0.153 0.413 0.080 0.16 0.1 0.367 0.027 0.467-0.080 0.187 0.080 0.42 0.107 0.527-0.267zM32.353 16.387h-1.773c-0.020 0.287 0.34 0.26 0.467 0.18 0.133 0.213 0.447 0.16 0.553 0.027 0.18 0.133 0.333 0.107 0.413 0 0.187 0.16 0.367-0.053 0.34-0.207zM32.467 17.533l-2.007-0.027c-0.107 0.333 0.207 0.393 0.333 0.313 0.060 0.18 0.32 0.133 0.4 0 0.1 0.080 0.233 0.027 0.28-0.053 0.027 0.18 0.267 0.207 0.447 0.053 0.367 0.26 0.7-0.053 0.52-0.287zM34.213 17.067h-1.64c0.073 0.307 0.233 0.387 0.493 0.2 0.207 0.213 0.52 0.133 0.6 0.033 0.367 0.287 0.547-0.053 0.547-0.267zM34.053 15.92l-1.613-0.053c0.027 0.413 0.42 0.387 0.627 0.233 0.133 0.18 0.393 0.133 0.52 0 0.18 0.207 0.52 0.080 0.467-0.18zM34.267 14.64h-1.733c0 0.287 0.387 0.44 0.673 0.18 0.080 0.34 0.393 0.233 0.527 0.107 0.2 0.26 0.647-0.053 0.52-0.267zM34.16 13.773l-1.567 0.033c0 0.26 0.367 0.367 0.5 0.153 0.080 0.133 0.333 0.107 0.413 0 0.107 0.187 0.267 0.053 0.313 0 0.187 0.133 0.367 0.053 0.34-0.18zM35.96 14.353l-1.88-0.027c0 0.18 0.187 0.267 0.313 0.18 0 0.213 0.267 0.267 0.447 0.107 0.1 0.18 0.44 0.207 0.573 0 0.26 0.233 0.573 0.053 0.52-0.267zM35.933 15.887h-1.827c0 0.267 0.287 0.34 0.467 0.213 0.033 0.207 0.267 0.233 0.4 0.107 0.18 0.18 0.44 0.2 0.6 0 0.2 0.073 0.387-0.107 0.36-0.313zM35.827 17.273h-1.46c0 0.26 0.313 0.26 0.447 0.133 0.153 0.18 0.367 0.18 0.493 0.047 0.18 0.16 0.493 0.107 0.52-0.18z"></path>
<path fill="#000" d="M33.5 19.467c-0.78 0-1.587 0-2.133-0.060-0.547-0.047-0.707-0.153-1.093-0.387l-1.473-0.887c-0.127-0.053-0.253 0.027-0.073 0.133l1.46 0.96c0.34 0.221 0.632 0.48 0.882 0.774l0.005 0.006c0.313 0.34 0.52 0.34 0.673 0.287 0.16-0.047 0.367-0.133 0.6-0.073 0.213 0.047 0.52 0.073 0.68 0.047 0.133 0.133 0.467 0.107 0.653 0.053 0.18-0.053 0.313-0.053 0.44-0.027h0.447c0.133 0 0.467-0.073 0.7-0.047 0.267 0.047 0.493 0 0.653 0 0.097-0.026 0.209-0.041 0.325-0.041 0.069 0 0.136 0.005 0.202 0.016l-0.007-0.001c0.16-0.107 0.207-0.24 0.267-0.367 0.153-0.027 0.2-0.053 0.227-0.133l0.16-0.413h0.053v-0.16l-0.107-0.153 0.053-0.267 0.133-0.047-0.053-0.267-2.293 0.060c-0.081 0.074-0.138 0.172-0.159 0.283l-0.001 0.003-0.68 0.1c-0.073 0.027-0.153 0.027-0.233 0.133z"></path>
<path fill="#000" d="M36.24 18.447l0.333-1.28c0.053-0.133-0.073-0.153-0.127 0l-0.333 1.28z"></path>
<path fill="#fff" d="M37.567 17.013c-0.287 0.133-0.44 0.207-0.573 0.153s-0.287-0.080-0.387-0.027c0 0.004 0.001 0.009 0.001 0.013s-0 0.009-0.001 0.014l0-0.001c-0.324 1.241-0.422 1.573-0.522 1.904l0.235-0.91c0.2 0.080 0.573 0.080 0.647 0 0.107-0.107 0.34-0.080 0.467-0.080 0.080-0.107 0.107-0.233 0.080-0.287s0-0.18 0-0.267c0-0.067 0.107-0.36 0.053-0.513z"></path>
<path fill="#00b800" d="M31.173 19.947c0.207-0.133 0.567-0.113 0.753 0.027 0.22-0.12 0.613-0.087 0.793 0.080 0.28-0.2 0.513-0.227 0.78-0.040 0.109-0.073 0.243-0.117 0.387-0.117 0.152 0 0.294 0.049 0.408 0.131l-0.002-0.001c0.247-0.113 0.513-0.207 0.747 0.040-0.097-0.066-0.217-0.106-0.346-0.106-0.156 0-0.299 0.058-0.408 0.153l0.001-0.001c-0.233-0.233-0.647-0.147-0.787 0.020-0.094-0.102-0.228-0.165-0.377-0.165-0.155 0-0.295 0.069-0.389 0.178l-0.001 0.001c-0.247-0.2-0.607-0.213-0.8-0.067-0.142-0.106-0.321-0.169-0.514-0.169-0.088 0-0.172 0.013-0.252 0.037l0.006-0.002z"></path>
<path fill="#cf6200" d="M34.873 19.653c-1.073 0.187-3.427 0.067-3.933-0.073-0.18-0.040-0.133-0.107 0.020-0.067 0.593 0.133 1.86 0.133 2.553 0.093l0.413-0.567c0.067-0.087 0.093-0.093 0.233-0.113l0.58-0.1v0.080c-0.013 0.020-0.027 0.040-0.047 0.047 0 0.133 0.027 0.473 0.060 0.6l0.073-0.020c0.047-0.013 0.093 0.113 0.047 0.12z"></path>
<path fill="#cf6200" d="M36.64 19.707h0.147c0.040 0 0.107-0.033 0.127-0.1l0.147-0.42-0.113-0.167 0.060-0.353 0.133-0.060c0.013-0.020 0-0.107-0.027-0.133l-2.107 0.067c-0.067 0-0.093 0-0.113 0.087-0.023 0.102-0.037 0.218-0.037 0.338 0 0.485 0.221 0.919 0.568 1.207l0.003 0.002c0.033 0.027 0.080 0 0.020-0.047-0.11-0.11-0.205-0.235-0.282-0.371l-0.005-0.009h0.347c0.027 0.113 0.113 0.347 0.133 0.393 0.013 0.047 0.053 0.047 0.027-0.020-0.040-0.133-0.067-0.3-0.087-0.38h0.353l0.027 0.347c0 0.047 0.040 0.047 0.040-0.007v-0.347l0.32-0.013-0.027 0.347c-0.007 0.060 0.020 0.080 0.033 0l0.047-0.347 0.22-0.013c0 0.080-0.073 0.293-0.093 0.347-0.020 0.067 0.013 0.067 0.033 0.007 0.041-0.097 0.078-0.213 0.104-0.333l0.002-0.013z"></path>
<path fill="#000" d="M35.1 19.653c-0.033-0.073-0.153-0.34-0.16-0.533h0.467c0.013 0.14 0.053 0.453 0.080 0.527zM35.487 19.107c0.007 0.12 0.067 0.5 0.080 0.533h0.373l-0.027-0.54zM34.96 18.64c-0.011 0.082-0.017 0.177-0.017 0.273 0 0.045 0.001 0.089 0.004 0.133l-0-0.006 0.447-0.020-0.040-0.393zM35.447 18.627l0.027 0.4 0.44-0.013-0.020-0.4zM35.98 18.607l0.013 0.4 0.38-0.007c0-0.087 0.020-0.347 0.013-0.407zM36.46 18.593l-0.013 0.4 0.413-0.013c0.020-0.087 0.060-0.313 0.060-0.4zM36.88 19.073l-0.44 0.013-0.040 0.533 0.42-0.013c0.050-0.106 0.102-0.239 0.146-0.375l0.007-0.025c-0.033-0.067-0.060-0.087-0.093-0.133zM35.993 19.1l0.013 0.533 0.32-0.013 0.040-0.533zM34.193 18.993l-0.173 0.027c-0.162 0.24-0.3 0.431-0.443 0.618l0.023-0.032 0.62-0.013-0.020-0.6zM34.273 18.973l0.027 0.613 0.373-0.027-0.067-0.64z"></path>
<path fill="#000" d="M32.46 17.533h-2.007v-0.053l2 0.027zM34.027 15.92c0.020 0 0.020 0 0 0l-1.567-0.027c-0.027 0-0.027 0 0 0h1.567zM32.36 16.36c0.020 0 0.020 0.027 0 0.027h-1.78c-0.020 0 0-0.027 0-0.027zM32.407 15.213c0.027 0 0.027 0.027 0 0.027h-1.847c-0.027 0-0.027-0.027 0-0.027zM32.273 14.3c0.027 0 0.027 0.027 0 0.027h-1.8c-0.020 0 0-0.053 0-0.053l1.827 0.027z"></path>
<path fill="#fff" d="M34.153 13.78l-1.567 0.027z"></path>
<path fill="#000" d="M34.233 14.667c0.027 0 0.027 0 0 0h-1.7c-0.027 0-0.027 0 0 0zM35.927 15.867v0.027h-1.827c-0.053 0-0.053 0 0 0h1.833zM35.927 14.327c0.053 0 0.053 0.027 0 0.027h-1.86c-0.027 0-0.027-0.027 0-0.027h1.88zM34.2 17.040c0.027 0 0.027 0.027 0 0.027h-1.667v-0.027zM35.813 17.273c0.027 0 0.027 0 0 0h-1.46z"></path>
<path fill="#ef072d" d="M37.153 17.533c0.014-0.055 0.022-0.118 0.022-0.183s-0.008-0.128-0.023-0.189l0.001 0.005c-0.024 0.007-0.051 0.011-0.080 0.011s-0.056-0.004-0.082-0.012l0.002 0.001c-0.023-0.018-0.049-0.035-0.076-0.051l-0.004-0.002c-0.008 0.182-0.044 0.352-0.104 0.512l0.004-0.012c-0.080 0-0.267 0-0.34-0.053l-0.080 0.26c0.059 0.014 0.127 0.021 0.197 0.021s0.138-0.008 0.203-0.023l-0.006 0.001c0 0.153-0.027 0.287-0.107 0.393 0.133 0 0.267 0 0.287-0.080 0.080-0.107 0.080-0.267 0.107-0.34l0.133-0.027 0.127-0.053 0.18-0.027v-0.153l0.053-0.107-0.413 0.133z"></path>
<path fill="#000" d="M30.687 8.72c-0.207 0-0.68 0-0.78 0.053-0.080 0.053-0.107 0.080 0.053 0.107 0.153 0.027 0.44 0.133 0.6 0.207 0.153 0.107 0.26 0.267 0.26 0.52-0.016 0.084-0.025 0.18-0.025 0.278 0 0.585 0.321 1.096 0.797 1.365l0.008 0.004c0.027 0.027 0.053 0.047 0.027 0.153l-0.080 0.287c0 0.053-0.027 0.107 0.053 0.080-0.095 0.163-0.183 0.298-0.277 0.429l0.011-0.015c-0.413-0.047-0.773 0-0.773 0.467 0 0.060 0 0.107 0.047 0 0.080-0.1 0.16-0.2 0.34-0.253-0.1 0.18-0.153 0.333-0.133 0.44 0 0.080 0.053 0.133 0.107 0 0.027-0.107 0.133-0.207 0.213-0.287 0.047-0.027 0.047-0.027 0.020 0.053-0.002 0.013-0.002 0.028-0.002 0.044 0 0.092 0.031 0.177 0.083 0.244l-0.001-0.001c0.053 0.053 0.080 0.027 0.053-0.053 0-0.107 0-0.287 0.133-0.333 0.153-0.107 0.307-0.060 0.36 0.047 0.080 0.133 0.133 0 0.053-0.107-0.080-0.1-0.153-0.233-0.26-0.233l0.267-0.44c0-0.053 0.047-0.080 0.1-0.053 0 0.027 0.053 0.027 0.073-0.053l0.187-0.367 0.153-0.047 0.267 0.387v0.16c0 0.1-0.107 0.333-0.133 0.413-0.313 0-0.467 0-0.573 0.187-0.053 0.073 0.027 0.1 0.1 0.073 0.076-0.046 0.168-0.073 0.266-0.073 0 0 0 0 0 0h-0c0.047 0 0.073 0.047 0 0.073-0.187 0.080-0.313 0.213-0.313 0.393 0 0.053 0.047 0.080 0.073 0 0.076-0.127 0.195-0.221 0.336-0.266l0.004-0.001c0 0.133 0.027 0.347 0.133 0.4 0.073 0.047 0.073 0 0.053-0.080-0.053-0.133 0-0.267 0.073-0.34 0.133-0.153 0.447 0.053 0.527 0.107 0.047 0.047 0.1 0.073 0.047-0.080-0.027-0.18-0.287-0.267-0.52-0.313l0.313-1.093c0.133 0.080 0.267-0.133 0.467-0.053 0.38 0.171 0.706 0.363 1.009 0.584l-0.016-0.011c0.107 0.080 0.133 0.053 0.18 0 0.053-0.027 0.133 0 0.213 0 0.047 0.027 0.1 0.053 0.027-0.107-0.154-0.276-0.365-0.503-0.619-0.669l-0.007-0.004c0.207 0 0.467 0 0.467-0.053s-0.313-0.16-0.44-0.16c0.16-0.030 0.301-0.101 0.414-0.201l-0.001 0.001c0.053-0.060 0-0.087-0.207-0.087-0.547 0-0.833 0-1.12-0.153-0.467-0.267-0.76-0.573-0.993-0.68-0.1-0.073-0.18-0.233-0.26-0.36-0.133-0.4-0.133-0.6-0.467-0.733-0.34-0.133-0.787 0.027-0.967 0.207z"></path>
<path fill="#fff" d="M30.713 8.827h-0.44s-0.053 0 0 0l0.387 0.107c0.080 0 0.053 0.073 0 0.047-0.053-0.020-0.1 0-0.053 0.053 0.267 0.187 0.313 0.267 0.267 0.967l0.127 0.107c0.053 0 0.027 0.047 0 0.020-0.027-0.020-0.133 0-0.053 0.053s0.133 0.053 0.053 0.053-0.153 0.053 0 0.027c0.133 0 0.207 0.053 0 0.080-0.153 0-0.107 0.053 0 0.053 0.18 0 0.133 0.047 0.080 0.047s-0.080 0.053 0.053 0.053h0.18c0.027 0 0.053 0 0 0.027-0.053 0-0.053 0.053 0.027 0.053s0.133 0 0.053 0.027c-0.027 0-0.080 0.027 0 0.053 0.18 0 0.2 0.047 0.153 0.073-0.053 0.027-0.080 0.027 0 0.027s0.16 0.027 0.080 0.053c-0.053 0-0.080 0.053 0 0.053s0.133 0.053 0.080 0.080c-0.053 0.027-0.080 0.053 0 0.053 0.073 0 0.1 0.020 0.047 0.047-0.047 0.053-0.073 0.053-0.133 0 0-0.047-0.047-0.047-0.047 0l-0.053-0.073c-0.027-0.080-0.080-0.080-0.080 0 0 0.073-0.047 0.027-0.1 0 0.158 0.181 0.39 0.295 0.648 0.295 0.143 0 0.278-0.035 0.397-0.097l-0.005 0.002c0.027 0 0.053 0 0.080 0.087l0.153 0.287c0.027 0.047 0.080 0 0.080-0.053l0.16-0.447c0-0.073 0.1-0.133 0.073 0.080 0.080-0.053 0.393-0.080 0.653 0 0.27 0.109 0.503 0.241 0.715 0.399l-0.008-0.006c0.026 0.020 0.058 0.032 0.094 0.032 0.014 0 0.028-0.002 0.041-0.005l-0.001 0c0.067 0 0.1 0-0.033-0.133s-0.073-0.18 0-0.133c0.080 0.053 0.133 0.027 0.053-0.047l-0.26-0.233c-0.027 0-0.027-0.053-0.153-0.053h-0.4c-0.047 0-0.1 0 0.060 0.053 0.153 0.047 0.44 0.26 0.52 0.307 0.080 0.053 0.107 0.16-0.027 0.053-0.266-0.18-0.572-0.353-0.892-0.502l-0.042-0.018c-0.707 0.080-1.28 0.16-1.7-0.287-0.207-0.233-0.207-0.733 0.133-0.933-0.053-0.060-0.053-0.107-0.027-0.107v-0.16c-0.053-0.027-0.107-0.080-0.107-0.133-0.080 0-0.133-0.127-0.26-0.073-0.133 0.053-0.153 0-0.207-0.027-0.027-0.053-0.053-0.053-0.133-0.053s-0.133 0-0.133-0.053c0-0.047 0.053-0.047 0.16 0 0.18 0.080 0.333 0.133 0.467-0.047 0.107-0.16-0.047-0.287-0.26-0.34-0.233-0.053-0.387 0.133-0.493 0.207z"></path>
<path fill="#fff" d="M31.86 8.747c-0.074-0.067-0.163-0.12-0.261-0.152l-0.005-0.001c-0.067 0-0.067 0.053-0.047 0.080v0.153c0.053 0.027 0.080 0.080 0 0.080-0.053 0.053 0 0.233 0.080 0.18h0.053s0 0.080 0.047 0.080c0.053 0 0 0.053 0 0.080h0.053c0.053 0 0.027 0.1-0.027 0.133 0.080 0 0.107 0 0.107 0.047 0.027 0.053 0.107 0.080 0.107 0.153 0 0.080 0 0.080-0.107 0.053s-0.107 0-0.133 0.053c-0.020 0.053-0.047 0.080 0 0.080 0.053 0 0.107 0.027 0.027 0.053-0.073 0.020-0.153 0-0.18 0.073 0 0.080 0 0.107 0.053 0.080l0.18-0.107 0.133 0.027c0.053 0.027 0 0.133-0.053 0.080s-0.107 0-0.133 0.027l-0.133 0.053c-0.047 0-0.1 0-0.067 0.133 0 0.36 0.28 0.62 0.8 0.62h0.867c-0.16-0.107-0.267-0.153-0.347-0.153h-0.073c0.027-0.027 0-0.080-0.027-0.080s-0.080-0.053-0.133 0l-0.26 0.133c-0.053 0-0.133 0-0.053-0.053l0.24-0.107c0.047 0 0.020-0.053 0.020-0.053s0-0.080 0.080-0.053c0.16 0.107 0.393 0.24 0.467 0.24 0.080 0 0.107-0.053 0.053-0.080-0.047-0.027-0.073-0.080-0.073-0.107s0.027-0.053 0.133 0c0.1 0.080 0.253 0.133 0.333 0.16s0.133 0.027 0-0.053l-0.6-0.447c-0.080-0.073-0.080 0-0.053 0.053s-0.073 0.080-0.133 0.027c-0.047-0.053-0.073-0.080 0-0.107 0.080-0.020 0.060-0.047-0.020-0.133-0.107-0.067-0.133-0.067-0.107 0 0.027 0.087 0.027 0.133-0.053 0.113-0.073-0.027-0.153-0.080-0.073-0.107 0.047-0.053 0.133-0.080 0-0.16-0.133-0.073-0.053 0-0.080 0.053s-0.107 0.053-0.133 0c-0.027-0.053-0.073-0.073-0.047-0.1 0.020-0.027 0.020-0.053 0.073 0 0.053 0.047 0.107 0 0.027-0.080s-0.1-0.053-0.080 0c0.027 0.053-0.047 0.107-0.153 0-0.053-0.027-0.053-0.080 0-0.107 0.053 0 0.053-0.027 0-0.073-0.18-0.313-0.107-0.553-0.313-0.787z"></path>
<path fill="#cf6200" d="M31.867 8.8c-0.013 0.027-0.020 0.020-0.053 0.047s-0.047 0.1 0.020 0.093c0.038-0.004 0.072-0.024 0.093-0.053l0-0c-0.017-0.033-0.034-0.062-0.054-0.088l0.001 0.002zM31.667 8.627c-0.060 0.053-0.067 0.080-0.040 0.080 0.033 0 0.020 0 0 0.040-0.027 0.033 0.040 0.053 0.067 0.020 0.033-0.027 0.033-0.033 0.047 0 0.007 0.033 0.067 0 0.087-0.020-0.047-0.047-0.113-0.087-0.167-0.12zM31.567 8.92c-0.067 0.033-0.047 0.213 0.060 0.16 0.033-0.013 0.060 0 0.060 0.020v0.047c0.045-0.019 0.083-0.046 0.113-0.080l0-0c0.060-0.080 0-0.067-0.093-0.067s-0.113-0.020-0.027-0.073c0.080-0.053 0.020-0.080-0.087-0.067 0.013 0.020 0.007 0.040-0.027 0.060zM31.96 9.32c-0.053-0.060-0.020-0.080 0.033-0.113 0.011-0.005 0.020-0.011 0.027-0.020l0-0-0.047-0.173c-0.020 0.013-0.053 0.073-0.067 0.1-0.013 0.047-0.027 0.073-0.067 0.067-0.047-0.020-0.087 0.027-0.093 0.073h0.033c0.013 0.007 0.020 0.040 0.013 0.067 0.127 0 0.147 0.073 0.167 0.133 0.027 0.067 0.047 0.060 0.067 0.020s-0.020-0.1-0.067-0.153z"></path>
<path fill="#ff0" d="M31.993 10.027c-0.027 0.053-0.027 0.047-0.1 0.047-0.067 0.007-0.16 0.020-0.2 0.060-0.020 0.020-0.147 0.033-0.147 0.087 0 0.060 0 0.1 0.053 0.107 0.053 0 0.067 0.013 0.047 0.053-0.027 0.040-0.040 0.1 0.053 0.113 0.093 0 0.167-0.020 0.187 0.027 0.027 0.067 0 0.14 0.020 0.18 0.013 0.033 0.080 0.047 0.18 0.080 0.067 0.013 0.32 0.033 0.4 0.020 0.067-0.013 0.040-0.053-0.033-0.053-0.080-0.013-0.133-0.027-0.153-0.080-0.020-0.060-0.033-0.087 0.013-0.133 0.040-0.053 0.080-0.087 0.053-0.167-0.020-0.073-0.067-0.167-0.153-0.193s-0.060-0.153-0.153-0.16c-0.033 0-0.053 0-0.067 0.013z"></path>
<path fill="#cf6200" d="M31.553 10.76c0.080 0.013 0.14 0.033 0.080 0.053s-0.1 0.053-0.020 0.060c0.080 0 0.153 0.040 0.087 0.053-0.067 0.020-0.067 0.067 0.007 0.067s0.113 0.027 0.060 0.067c-0.060 0.027-0.093 0.047-0.133-0.007-0.033-0.060-0.053-0.067-0.060-0.033-0.013 0.040-0.033 0.013-0.060-0.047-0.020-0.053-0.080-0.080-0.067-0.033 0.020 0.047-0.040 0.060-0.1 0.033 0.054 0.063 0.118 0.117 0.19 0.158l0.003 0.002c0.080-0.027 0.173 0 0.2 0 0.040 0 0.14 0.027 0.2 0.060 0.060 0.027 0.1-0.027 0.073-0.087-0.027-0.067-0.027-0.047-0.053 0-0.040 0.027-0.040-0.020-0.040-0.093 0-0.053-0.040-0.047-0.047-0.007-0.013 0.033-0.047-0.027-0.033-0.060 0.020-0.033 0-0.053-0.027-0.040-0.033 0.013-0.033 0-0.040-0.067-0.007-0.073-0.033-0.067-0.040-0.033-0.007 0.027-0.040-0.013-0.087-0.067-0.033-0.040-0.067-0.013-0.14 0.007z"></path>
<path fill="#ff0" d="M32.373 11.187c-0.367 0.147-0.633 0.080-0.833-0.053 0.080-0.027 0.173 0 0.207 0s0.14 0.027 0.193 0.060c0.053 0.027 0.1-0.027 0.073-0.087 0.047 0.067 0.087 0.107 0.147 0.1l0.213-0.020zM31.587 9.467c-0.027-0.080-0.047-0.093-0.087-0.087-0.040 0-0.060-0.007-0.107-0.027-0.040-0.020-0.1 0-0.107 0.087-0.013 0.087-0.067 0.12-0.133 0.173-0.067 0.047-0.1 0.087-0.1 0.173 0 0.080-0.020 0.093-0.067 0.16l-0.073 0.087 0.080 0.047c0.053 0.027 0.033 0.060-0.013 0.047s-0.1 0.013-0.013 0.027c0.080 0.020 0.113 0.067 0.040 0.067-0.087-0.020-0.173 0.053-0.020 0.033 0.153-0.013 0.207 0.060 0.033 0.060-0.18 0-0.113 0.060-0.013 0.060 0.167 0 0.113 0.047 0.067 0.047-0.040 0-0.060 0.067 0.053 0.047l0.040-0.067c0.020-0.053 0.033-0.207 0.1-0.253 0.060-0.040 0.093-0.113 0.093-0.153s0.1-0.247 0.153-0.293c0.067-0.047 0.093-0.153 0.067-0.227z"></path>
<path fill="#cf6200" d="M31.453 9.48c-0.060-0.047-0.127-0.013-0.127 0.067 0 0.067-0.040 0.1-0.093 0.133-0.060 0.031-0.104 0.086-0.12 0.152l-0 0.002c0 0.067 0.013 0.1-0.027 0.153-0.047 0.047-0.053 0.087-0.027 0.12 0.040 0.027 0.040 0.027 0.047 0.067 0.020 0.040 0.093 0 0.093-0.047s0.020-0.047 0.067-0.073c0.053-0.027 0.133-0.16 0.113-0.193-0.013-0.033-0.067-0.067 0-0.113 0.067-0.053 0.12-0.067 0.12-0.107 0-0.053 0.013-0.067 0.033-0.087s-0.040-0.047-0.080-0.067z"></path>
<path fill="#000" d="M31.453 9.413c-0.040-0.013-0.067 0.073-0.007 0.087s0.067-0.060 0-0.080zM31.447 9.527c-0.047 0.007-0.1 0.067-0.027 0.067 0.080-0.013 0.107-0.067 0.020-0.067zM31.353 9.64c-0.047 0.020-0.033 0.087 0.033 0.040s0.080-0.1-0.033-0.040zM31.287 9.733c-0.047 0.020-0.047 0.087 0.027 0.040 0.067-0.040 0.087-0.1-0.027-0.040z"></path>
<path fill="#000" d="M31.193 9.78c-0.047 0.020-0.020 0.080 0.047 0.040s0.067-0.1-0.047-0.040zM31.247 9.84c-0.053 0.020-0.020 0.080 0.047 0.040s0.067-0.1-0.053-0.040z"></path>
<path fill="#000" d="M31.16 9.86c-0.040 0.027-0.013 0.080 0.060 0.040 0.067-0.040 0.060-0.1-0.060-0.040zM31.22 9.927c-0.053 0.020-0.027 0.080 0.047 0.040 0.067-0.047 0.067-0.1-0.053-0.040z"></path>
<path fill="#000" d="M31.133 9.967c-0.040 0.020-0.013 0.080 0.060 0.040 0.067-0.040 0.053-0.1-0.053-0.040z"></path>
<path fill="#000" d="M31.133 10.020c-0.033 0.027-0.007 0.093 0.067 0.047 0.067-0.047 0.053-0.1-0.067-0.047z"></path>
<path fill="#cf6200" d="M31.107 10.593c-0.047 0-0.080 0.073-0.020 0.087s0.073 0.020 0.073 0.060c0 0.040 0.020 0.113 0.080 0.113 0.067 0 0.12-0.067 0.067-0.087-0.060-0.020-0.107-0.040-0.113-0.093 0-0.047-0.053-0.080-0.087-0.080z"></path>
<path fill="#ff0" d="M32.767 10.2l0.033 0.040c0.047 0.033 0.133 0 0.113-0.033-0.007-0.027-0.053-0.133 0.067-0.053l0.613 0.433c0.127 0.093 0.040 0.107-0.013 0.073l-0.333-0.153c-0.1-0.060-0.113-0.033-0.133-0.020 0 0.020 0 0.060 0.040 0.093-0.060 0.007-0.153 0-0.187-0.067-0.033-0.080-0.113-0.173-0.173-0.247-0.020-0.027-0.027-0.047-0.020-0.060z"></path>
<path fill="#00d860" d="M36.133 21.3c-0.087 0.060-0.2 0.16-0.127 0.3l0.027-0.007c0.308-0.371 0.593-0.786 0.839-1.225l0.022-0.042v-0.040c-0.086 0.071-0.185 0.132-0.292 0.177l-0.008 0.003c0.040 0.113-0.153 0.253-0.247 0.293 0.040 0.067 0.027 0.173-0.067 0.193 0.020 0.053-0.047 0.053-0.133 0.093-0.073 0.033-0.113 0.053-0.14 0.1 0.040-0.027 0.107-0.047 0.133-0.033s0.040 0.060-0.020 0.073c-0.053 0.020-0.093 0.047-0.12 0.067 0.087-0.020 0.213-0.013 0.133 0.047z"></path>
<path fill="#000" d="M32.12 10.080c-0.107-0.080-0.133-0.027-0.107 0s0 0.1-0.073 0.133h-0.267c-0.047 0-0.127 0.1 0 0.067l0.42-0.067c0.053 0 0.107-0.060 0-0.133zM32.3 10.233c-0.073-0.080-0.1-0.053-0.073 0s-0.027 0.080-0.080 0.080l-0.367 0.1c-0.1 0-0.1 0.080 0.027 0.080 0.133 0 0.393-0.133 0.42-0.133s0.053-0.073 0.073-0.047c0.027 0.027 0.080 0 0-0.080zM32.38 10.44l-0.26 0.133c-0.080 0-0.133 0.080 0 0.080s0.267-0.133 0.313-0.16l0.107-0.053s0.1-0.027 0-0.1c-0.107-0.080-0.213 0-0.16 0.027s0 0.073 0 0.073z"></path>
<path fill="#000" d="M31.313 8.747c-0.167-0.113-0.347 0.113-0.167 0.24 0.16 0.113 0.333-0.133 0.173-0.24z"></path>
<path fill="#fff" d="M31.107 8.847h0.047c0 0.053 0.047 0.133 0.12 0.113-0.060 0.047-0.173-0.013-0.167-0.113zM31.747 11.313c0.053 0.020 0.227 0.033 0.293 0.033l-0.080 0.147c-0.020 0.047-0.027 0.053-0.033-0.020 0-0.067-0.040-0.113-0.073-0.040l-0.067 0.133c-0.020 0.027-0.047 0.033-0.040-0.040 0.013-0.073 0.007-0.153 0-0.213z"></path>
<path fill="#012169" d="M0 0h21.333v16h-21.333z"></path>
<path fill="#fff" d="M2.5 0l8.133 6.033 8.1-6.033h2.6v2.067l-8 5.967 8 5.933v2.033h-2.667l-8-5.967-7.967 5.967h-2.7v-2l7.967-5.933-7.967-5.933v-2.133z"></path>
<path fill="#c8102e" d="M14.133 9.367l7.2 5.3v1.333l-9.033-6.633zM8 10.033l0.2 1.167-6.4 4.8h-1.8zM21.333 0v0.1l-8.3 6.267 0.067-1.467 6.567-4.9zM0 0l7.967 5.867h-2l-5.967-4.467z"></path>
<path fill="#fff" d="M8.033 0v16h5.333v-16zM0 5.333v5.333h21.333v-5.333z"></path>
<path fill="#c8102e" d="M0 6.433v3.2h21.333v-3.2zM9.1 0v16h3.2v-16z"></path>
</svg>
