<!-- Generated by IcoMoon.io -->
<svg version="1.1" xmlns="http://www.w3.org/2000/svg" width="43" height="32" viewBox="0 0 43 32">
<title>ad</title>
<path fill="#d0103a" d="M0 0h42.667v32h-42.667z"></path>
<path fill="#fedf00" d="M0 0h29.013v32h-29.013z"></path>
<path fill="#0018a8" d="M0 0h13.653v32h-13.653z"></path>
<path fill="#c7b37f" d="M20.027 9.107c0.513 0 0.727 0.44 1.24 0.44 0.313 0 0.5-0.1 0.78-0.26 0.193-0.107 0.313-0.167 0.533-0.167 0.227 0 0.367 0.067 0.487 0.267 0.067 0.107 0.12 0.327 0.087 0.447-0.044 0.21-0.106 0.395-0.187 0.57l0.007-0.017c-0.047 0.107-0.087 0.167-0.087 0.28 0 0.273 0.373 0.367 0.627 0.373 0.053 0 0.513 0 0.8-0.28-0.153-0.007-0.327-0.133-0.327-0.287 0-0.173 0.12-0.287 0.287-0.34 0.033-0.007 0.087 0.020 0.113 0 0.047-0.020 0.027-0.067 0.067-0.093 0.080-0.067 0.133-0.107 0.24-0.107 0.067 0 0.107 0.007 0.167 0.047 0.027 0.027 0.040 0.053 0.067 0.053 0.080 0 0.12-0.053 0.2-0.053 0.056 0.001 0.109 0.016 0.155 0.041l-0.002-0.001c0.040 0.020 0.040 0.1 0.093 0.1 0.027 0 0.16-0.060 0.233-0.060 0.147 0 0.227 0.053 0.32 0.167 0.027 0.033 0.040 0.093 0.067 0.093 0.136 0.012 0.252 0.088 0.319 0.198l0.001 0.002c0.020 0.027 0.047 0.093 0.073 0.1 0.040 0.020 0.067 0.013 0.113 0.047 0.108 0.069 0.18 0.185 0.187 0.319l0 0.001c0 0.047-0.020 0.107-0.033 0.147-0.12 0.433-0.42 0.573-0.72 0.953-0.133 0.16-0.233 0.287-0.233 0.493 0 0.047 0.067 0.14 0.087 0.18-0.013-0.093 0.033-0.213 0.133-0.22 0 0 0.001 0 0.001 0 0.138 0 0.251 0.105 0.265 0.239l0 0.001c0 0.004 0 0.008 0 0.012 0 0.039-0.007 0.076-0.021 0.11l0.001-0.002c0.076-0.048 0.167-0.082 0.264-0.093l0.003-0h0.127c0.22 0 0.467 0.127 0.62 0.253 0.299 0.258 0.488 0.638 0.488 1.062 0 0.020-0 0.041-0.001 0.061l0-0.003c-0.053 0.347-0.020 0.987-0.92 1.24 0.167 0.067 0.28 0.2 0.28 0.347 0 0.004 0 0.009 0 0.013 0 0.163-0.131 0.296-0.293 0.3h-0c-0.005 0-0.012 0.001-0.018 0.001-0.085 0-0.161-0.036-0.215-0.094l-0-0c-0.187 0.187-0.22 0.38-0.22 0.647 0 0.16 0.027 0.253 0.093 0.4s0.12 0.233 0.247 0.34c0.067-0.1 0.14-0.173 0.267-0.173 0.113 0 0.213 0.040 0.26 0.147 0.013 0.033 0 0.060 0.020 0.093 0.020 0.040 0.053 0.047 0.073 0.087 0.033 0.067 0 0.12 0.033 0.18 0.020 0.047 0.060 0.053 0.080 0.093 0.027 0.067 0.033 0.107 0.033 0.18 0 0.2-0.18 0.347-0.38 0.347-0.067 0-0.093-0.027-0.153-0.020 0.113 0.113 0.2 0.167 0.287 0.3 0.125 0.185 0.2 0.412 0.2 0.658 0 0.010-0 0.020-0 0.030l0-0.002c0 0.009 0 0.020 0 0.030 0 0.263-0.069 0.51-0.191 0.724l0.004-0.007c-0.103 0.233-0.263 0.425-0.462 0.564l-0.004 0.003c-0.299 0.22-0.661 0.372-1.055 0.425l-0.012 0.001c-0.213 0.046-0.464 0.079-0.721 0.093l-0.012 0.001-0.94 0.053c-0.48 0.027-0.813 0.1-1.153 0.44 0.16 0.113 0.267 0.233 0.267 0.427 0 0.2-0.12 0.353-0.313 0.413-0.047 0.013-0.080 0-0.127 0.027s-0.047 0.087-0.093 0.113c-0.064 0.042-0.142 0.068-0.226 0.068-0.009 0-0.019-0-0.028-0.001l0.001 0c-0.011 0.001-0.025 0.001-0.038 0.001-0.153 0-0.291-0.064-0.388-0.168l-0-0c-0.147 0.12-0.2 0.227-0.367 0.327-0.053 0.027-0.080 0.067-0.14 0.067-0.1 0-0.147-0.067-0.227-0.12-0.111-0.078-0.207-0.166-0.292-0.265l-0.002-0.002c-0.153 0.087-0.24 0.16-0.42 0.16-0.008 0-0.016 0.001-0.025 0.001-0.089 0-0.173-0.025-0.244-0.069l0.002 0.001c-0.040-0.033-0.053-0.080-0.1-0.107-0.047-0.033-0.087-0.020-0.14-0.047-0.2-0.087-0.333-0.233-0.333-0.453 0-0.193 0.12-0.313 0.293-0.4-0.333-0.333-0.667-0.387-1.133-0.413l-0.933-0.053c-0.293-0.020-0.453-0.047-0.733-0.093-0.22-0.033-0.347-0.047-0.547-0.14-0.68-0.32-1.12-0.753-1.2-1.5-0.013-0.067-0.013-0.1-0.013-0.167 0-0.387 0.153-0.627 0.427-0.9-0.067-0.020-0.113 0-0.187-0.020-0.167-0.067-0.293-0.18-0.293-0.367 0-0.067 0-0.113 0.033-0.173 0.027-0.040 0.067-0.047 0.080-0.093 0.013-0.067 0-0.107 0.027-0.167 0.020-0.033 0.053-0.040 0.067-0.080 0.067-0.127 0.133-0.227 0.273-0.227 0.12 0 0.2 0.067 0.253 0.167 0.12-0.053 0.147-0.14 0.213-0.247 0.096-0.154 0.153-0.341 0.153-0.541 0-0.124-0.022-0.243-0.062-0.353l0.002 0.007c-0.027-0.1-0.040-0.167-0.12-0.247-0.067 0.067-0.133 0.093-0.227 0.093-0.193 0-0.333-0.167-0.333-0.353-0-0.003-0-0.006-0-0.010 0-0.134 0.082-0.248 0.198-0.296l0.002-0.001c-0.107-0.093-0.2-0.1-0.313-0.173-0.173-0.107-0.233-0.227-0.347-0.4-0.080-0.107-0.1-0.187-0.133-0.313-0.045-0.124-0.071-0.268-0.071-0.418 0-0.036 0.002-0.072 0.004-0.107l-0 0.005c0.040-0.333 0.1-0.533 0.307-0.793 0.12-0.153 0.2-0.247 0.387-0.327 0.153-0.067 0.247-0.113 0.413-0.113l0.133 0.007c0.069 0.005 0.133 0.024 0.189 0.055l-0.002-0.001c0.027 0.013 0.073 0.060 0.073 0.027s-0.020-0.053-0.020-0.087c0-0.133 0.1-0.267 0.24-0.267 0.1 0 0.14 0.093 0.193 0.18 0.027-0.053 0.047-0.093 0.047-0.153 0-0.227-0.127-0.347-0.267-0.527-0.313-0.387-0.7-0.567-0.7-1.067 0-0.147 0.067-0.247 0.2-0.327 0.033-0.020 0.087 0 0.12-0.020s0.027-0.067 0.047-0.093c0.033-0.047 0.067-0.067 0.107-0.107 0.067-0.067 0.133-0.040 0.207-0.1 0.040-0.027 0.053-0.067 0.080-0.093 0.087-0.107 0.167-0.16 0.307-0.16 0.067 0 0.107 0 0.167 0.027l0.067 0.033c0.020-0.013 0.053-0.053 0.1-0.073 0.040-0.025 0.089-0.040 0.141-0.040 0.002 0 0.004 0 0.006 0h-0c0.073 0 0.12 0.040 0.2 0.040 0.020 0 0.027-0.027 0.053-0.040 0.067-0.047 0.1-0.067 0.18-0.067s0.12 0.020 0.187 0.067c0.067 0.033 0.067 0.087 0.133 0.12 0.033 0.020 0.067 0.013 0.1 0.027 0.173 0.060 0.3 0.173 0.3 0.353 0 0.1-0.020 0.167-0.093 0.233-0.060 0.047-0.113 0.040-0.187 0.067 0.181 0.147 0.415 0.237 0.67 0.237 0.029 0 0.058-0.001 0.087-0.004l-0.004 0c0.28 0 0.62-0.113 0.62-0.393 0-0.133-0.067-0.2-0.12-0.32-0.087-0.165-0.138-0.359-0.14-0.566v-0.001c0-0.187 0.020-0.3 0.127-0.447 0.107-0.153 0.24-0.193 0.433-0.193z"></path>
<path fill="#c7b37f" d="M18.447 10.22l0.047 0.033 0.053 0.053 0.033 0.067 0.013 0.053v0.127l-0.013 0.053-0.033 0.040-0.040 0.040-0.060 0.033-0.133 0.027-0.067-0.033-0.060-0.040-0.033-0.053-0.027-0.067v-0.027l0.32-0.307z"></path>
<path fill="#c7b37f" d="M16.533 19.040c0-0.092 0.075-0.167 0.167-0.167s0.167 0.075 0.167 0.167v0c0 0.092-0.075 0.167-0.167 0.167s-0.167-0.075-0.167-0.167v0zM15.5 17.867c0-0.087 0.053-0.153 0.12-0.153s0.113 0.067 0.113 0.153c0 0.080-0.053 0.147-0.113 0.147-0.067 0-0.12-0.067-0.12-0.147z"></path>
<path fill="#c7b37f" d="M16.087 14.907c0-0.067 0.053-0.12 0.113-0.12 0.067 0 0.113 0.053 0.113 0.12s-0.047 0.12-0.113 0.12-0.113-0.053-0.113-0.12zM18.133 10.533c0-0.067 0.033-0.133 0.093-0.133 0.060-0.007 0.113 0.040 0.12 0.107 0 0.067-0.033 0.133-0.093 0.133-0.060 0.007-0.107-0.040-0.12-0.107z"></path>
<path fill="#703d29" d="M22.22 10.107c0-0.113-0.113-0.12-0.16-0.12-0.12 0-0.153 0.073-0.307 0.153-0.124 0.084-0.276 0.133-0.44 0.133-0.002 0-0.005 0-0.007-0h0c-0.001 0-0.003 0-0.004 0-0.165 0-0.318-0.050-0.445-0.135l0.003 0.002c-0.153-0.080-0.18-0.153-0.307-0.153-0.082 0.004-0.147 0.071-0.147 0.153 0 0.002 0 0.005 0 0.007v-0 0.060l0.020 0.013c0-0.053 0.007-0.080 0.033-0.113 0.026-0.031 0.064-0.051 0.106-0.053h0c0.12 0 0.167 0.080 0.32 0.16 0.2 0.107 0.28 0.127 0.447 0.133 0.003 0 0.007 0 0.011 0 0.165 0 0.318-0.050 0.445-0.135l-0.003 0.002c0.153-0.080 0.2-0.167 0.32-0.167 0.040 0 0.067 0.027 0.087 0.067v0.060l0.013 0.007c0-0.020 0.013-0.027 0.013-0.067z"></path>
<path fill="#703d29" d="M17.627 19.6c0.033-0.033 0.060-0.020 0.067-0.040 0-0.013 0-0.013-0.020-0.020l-0.060-0.013-0.053-0.027c-0.007 0-0.027-0.013-0.033 0-0.007 0.027 0.067 0.027 0.040 0.093-0.013 0.031-0.031 0.058-0.053 0.080v0l-0.173 0.2-0.013 0.007v-0.287l0.007-0.12c0.013-0.027 0.053 0 0.060-0.027 0-0.007 0-0.013-0.020-0.020-0.013 0-0.033 0-0.073-0.020l-0.067-0.033c-0.013 0-0.033-0.013-0.040 0l0.007 0.020c0.027 0.013 0.033 0.027 0.033 0.067v0.493c0 0.033 0.007 0.040 0.013 0.047 0.007 0 0.013 0 0.027-0.020l0.353-0.38z"></path>
<path fill="#703d29" d="M17.833 19.68c0.020-0.073 0.067-0.027 0.067-0.053 0.007-0.013 0-0.013-0.013-0.020l-0.087-0.027c-0.027 0-0.053-0.020-0.080-0.027 0 0-0.020-0.007-0.027 0-0.007 0.033 0.073 0.033 0.053 0.1l-0.113 0.367c-0.020 0.067-0.067 0.040-0.073 0.067v0.007l0.080 0.027 0.107 0.033h0.020c0.013-0.027-0.080-0.020-0.047-0.113l0.113-0.36zM18.080 19.747c0.013-0.040 0.033-0.033 0.060-0.027 0.067 0.020 0.093 0.087 0.067 0.167-0.013 0.040-0.027 0.080-0.133 0.053-0.020-0.007-0.047-0.013-0.040-0.033l0.047-0.153zM17.893 20.080c-0.033 0.093-0.080 0.053-0.087 0.080 0 0.013 0.013 0.013 0.020 0.020l0.107 0.027 0.053 0.020h0.027c0.007-0.033-0.067-0.020-0.047-0.1l0.040-0.133c0.007-0.027 0.007-0.033 0.040-0.020 0.040 0.007 0.047 0.020 0.053 0.053l0.020 0.133c0.013 0.060 0.020 0.113 0.067 0.133 0.033 0 0.080 0 0.093-0.027l-0.013-0.013h-0.020s-0.020 0-0.020-0.020l-0.047-0.24c0-0.013 0.027-0.013 0.053-0.020 0.033-0.018 0.058-0.049 0.066-0.086l0-0.001c0.007-0.033 0.027-0.147-0.12-0.193l-0.14-0.033-0.080-0.027h-0.020c-0.007 0.033 0.073 0.027 0.047 0.113l-0.1 0.333zM18.453 20.247c-0.027 0.093-0.093 0.033-0.1 0.067 0 0.013 0.007 0.020 0.020 0.020l0.1 0.020 0.093 0.027c0.020 0 0.033 0.013 0.040-0.007 0-0.020-0.087-0.020-0.067-0.12l0.087-0.347c0-0.040 0.013-0.040 0.040-0.033l0.067 0.013c0.073 0.020 0.033 0.1 0.067 0.107 0.013 0 0.013-0.027 0.013-0.040l0.007-0.067v-0.027l-0.22-0.047-0.213-0.053c-0.007 0-0.013 0-0.013 0.013l-0.033 0.1c-0.007 0.007-0.013 0.027 0 0.027 0.033 0.007 0.033-0.1 0.113-0.080l0.060 0.013c0.027 0.007 0.033 0.013 0.027 0.053l-0.087 0.36zM19.3 20.027c0.027-0.040 0.053-0.033 0.060-0.047 0-0.013-0.013-0.013-0.027-0.020h-0.060l-0.060-0.020c-0.007 0-0.027-0.007-0.027 0.007-0.007 0.027 0.067 0.013 0.053 0.087 0 0.013-0.007 0.040-0.040 0.087l-0.133 0.22-0.020 0.013v-0.013l-0.047-0.267c-0.006-0.024-0.009-0.051-0.009-0.080 0-0.014 0.001-0.028 0.002-0.042l-0 0.002c0-0.033 0.047-0.013 0.047-0.033 0-0.013 0-0.013-0.027-0.020l-0.073-0.007c-0.027 0-0.047-0.013-0.067-0.020-0.013 0-0.033-0.007-0.040 0.007l0.007 0.013c0.033 0.013 0.040 0.027 0.047 0.060l0.087 0.487c0.007 0.033 0.013 0.047 0.020 0.047s0.013 0 0.027-0.020l0.28-0.44zM19.34 20.48c0 0.020 0 0.020 0.013 0.033 0.040 0.013 0.067 0.040 0.113 0.047 0.093 0.013 0.173-0.047 0.187-0.147 0.020-0.1-0.020-0.14-0.093-0.193-0.087-0.060-0.12-0.073-0.113-0.133 0.007-0.047 0.047-0.067 0.093-0.067 0.12 0.020 0.107 0.173 0.12 0.173 0.020 0 0.020-0.007 0.020-0.027l0.013-0.107v-0.027h-0.040c-0.027 0-0.047-0.033-0.107-0.047-0.080-0.013-0.153 0.047-0.167 0.133-0.013 0.080 0.027 0.12 0.080 0.16 0.107 0.073 0.147 0.093 0.133 0.16-0.007 0.067-0.060 0.093-0.113 0.087-0.080-0.013-0.107-0.093-0.12-0.173 0-0.013 0-0.020-0.013-0.020s-0.013 0.020-0.013 0.033v0.113zM20.393 20.18c0.020-0.047 0.053-0.040 0.053-0.060 0-0.013-0.007-0.007-0.027-0.013h-0.060l-0.060-0.007c-0.007 0-0.027 0-0.027 0.013 0 0.027 0.067 0 0.067 0.073 0 0.013-0.007 0.040-0.033 0.093l-0.12 0.233-0.007 0.020-0.007-0.020-0.073-0.267c-0.011-0.032-0.019-0.068-0.020-0.106l-0-0.001c0-0.033 0.047-0.020 0.047-0.040 0-0.013 0-0.013-0.027-0.013h-0.080l-0.067-0.013c-0.013 0-0.033-0.007-0.040 0.007l0.013 0.013c0.027 0.013 0.040 0.020 0.047 0.053l0.14 0.473 0.027 0.047c0.007 0 0.013 0 0.020-0.027l0.233-0.467z"></path>
<path fill="#703d29" d="M20.507 20.567c0 0.080-0.067 0.067-0.067 0.1 0 0.013 0.007 0.007 0.020 0.007h0.147l0.027-0.007c0-0.040-0.093 0.013-0.093-0.133v-0.28l0.007-0.007 0.013 0.007 0.34 0.42 0.020 0.007 0.013-0.020v-0.447c0-0.087 0.067-0.067 0.067-0.087 0 0 0-0.013-0.020-0.013h-0.153c-0.013 0-0.013 0.007-0.013 0.013 0 0.027 0.087 0.013 0.087 0.087v0.267l-0.007 0.027-0.027-0.020-0.28-0.353c-0.013-0.020-0.007-0.020-0.027-0.020h-0.12l-0.013 0.007c0 0.040 0.080-0.013 0.080 0.14v0.307zM21.2 20.2c0-0.073 0.053-0.047 0.053-0.073 0-0.007 0-0.013-0.027-0.013h-0.173s-0.020 0-0.020 0.013c0 0.027 0.073 0 0.073 0.080v0.38c0 0.073-0.053 0.053-0.053 0.080 0 0 0 0.013 0.013 0.013h0.187c0.013 0 0.020 0 0.020-0.013 0-0.027-0.080 0.013-0.080-0.087l0.007-0.38zM21.5 20.567c0 0.1-0.080 0.067-0.080 0.093 0 0.013 0.013 0.013 0.027 0.013h0.2c0.020 0 0.033 0 0.033-0.020s-0.093 0-0.093-0.093v-0.36c0-0.040 0-0.040 0.033-0.040h0.067c0.080-0.007 0.053 0.080 0.087 0.080 0.013 0 0.007-0.027 0.007-0.040l-0.007-0.067c0-0.013 0-0.027-0.013-0.027l-0.22 0.007h-0.22l-0.013 0.020-0.007 0.107 0.007 0.027c0.033 0 0.013-0.107 0.093-0.107h0.060c0.027 0 0.033 0 0.040 0.040v0.373zM21.92 20.42h-0.027l0.007-0.033 0.047-0.147v-0.013l0.013 0.007 0.067 0.14 0.013 0.027c0 0.013-0.013 0.013-0.027 0.013h-0.093zM22.040 20.453c0.020 0 0.020 0 0.053 0.067l0.013 0.053c0 0.047-0.047 0.040-0.047 0.067 0 0.007 0.013 0.007 0.027 0h0.080l0.087-0.007c0.020 0 0.027 0 0.027-0.013 0-0.027-0.040 0-0.067-0.047l-0.227-0.467-0.020-0.027c-0.013 0-0.013 0.013-0.020 0.027l-0.147 0.493c-0.013 0.047-0.053 0.047-0.047 0.067h0.153c0.013-0.007 0.033 0 0.033-0.020s-0.080 0-0.087-0.060l0.013-0.067c0.013-0.053 0.027-0.053 0.040-0.053l0.14-0.013zM22.593 20.12c-0.007-0.053 0-0.053 0.080-0.067 0.133-0.013 0.093 0.087 0.133 0.080 0.013 0 0-0.027 0-0.040l-0.007-0.073c0-0.007-0.007-0.013-0.020-0.013-0.067 0-0.113 0.013-0.16 0.020l-0.187 0.027c-0.013 0-0.020 0-0.020 0.013 0.007 0.033 0.087 0 0.093 0.067l0.047 0.367c0.013 0.1-0.047 0.067-0.040 0.1 0 0 0 0.007 0.013 0l0.093-0.007 0.080-0.007c0.020 0 0.033 0 0.033-0.020s-0.080 0.007-0.093-0.080l-0.013-0.113c-0.007-0.047-0.007-0.060 0.020-0.067h0.053c0.073-0.013 0.067 0.073 0.087 0.067 0.020 0 0.013-0.027 0.007-0.033l-0.020-0.14c0-0.020-0.013-0.020-0.013-0.020-0.020 0-0.007 0.073-0.067 0.080l-0.047 0.007c-0.033 0.007-0.033 0-0.040-0.033l-0.013-0.113zM22.86 20.307c0.027 0.153 0.14 0.247 0.28 0.22 0.227-0.047 0.233-0.24 0.213-0.353-0.033-0.167-0.153-0.247-0.293-0.22-0.167 0.033-0.233 0.18-0.2 0.353zM22.933 20.24c-0.020-0.107 0-0.227 0.113-0.247 0.093-0.020 0.2 0.053 0.227 0.227 0.020 0.133 0 0.24-0.12 0.267-0.127 0.027-0.2-0.133-0.22-0.24zM23.487 19.967c-0.007-0.047 0.013-0.053 0.040-0.060 0.067-0.013 0.12 0.033 0.14 0.107 0.013 0.047 0.020 0.093-0.087 0.12-0.020 0-0.047 0.007-0.053-0.013l-0.033-0.153zM23.487 20.347c0.027 0.093-0.033 0.087-0.033 0.107 0.007 0.020 0.020 0.013 0.027 0.007 0.040 0 0.067-0.020 0.107-0.027l0.067-0.013c0.013 0 0.013-0.007 0.013-0.013 0-0.027-0.067 0.020-0.087-0.067l-0.033-0.133c0-0.027-0.013-0.027 0.027-0.033 0.033-0.013 0.047-0.007 0.073 0.020l0.087 0.107c0.033 0.040 0.067 0.087 0.12 0.073 0.033-0.007 0.067-0.033 0.067-0.060l-0.013-0.007-0.020 0.007s-0.020 0.007-0.027 0l-0.16-0.193 0.033-0.040c0.013-0.027 0.027-0.060 0.013-0.107-0.007-0.033-0.047-0.14-0.2-0.107l-0.14 0.040-0.080 0.013c-0.013 0-0.020 0.007-0.013 0.013 0 0.033 0.073-0.013 0.093 0.067l0.080 0.347zM24.067 20.213c0.020 0.093-0.067 0.080-0.060 0.107 0 0.020 0.020 0.013 0.033 0.013l0.093-0.033 0.1-0.020c0.020 0 0.033 0 0.027-0.027 0-0.020-0.087 0.027-0.113-0.067l-0.087-0.353c-0.013-0.033 0-0.040 0.020-0.047l0.067-0.013c0.073-0.027 0.073 0.067 0.1 0.060 0.020 0 0-0.033 0-0.047l-0.027-0.067s0-0.020-0.013-0.013l-0.213 0.060-0.213 0.047v0.020l0.007 0.107c0 0.013 0 0.027 0.020 0.027 0.033-0.007-0.020-0.107 0.067-0.127l0.053-0.013c0.027-0.007 0.040 0 0.047 0.033l0.093 0.353zM24.433 19.727c-0.020-0.067 0.040-0.060 0.027-0.087h-0.020l-0.093 0.027-0.080 0.020s-0.020 0-0.020 0.013c0.007 0.027 0.080-0.013 0.1 0.053l0.107 0.373c0.013 0.067-0.040 0.067-0.033 0.087 0 0.007 0 0.013 0.013 0.007l0.073-0.020 0.107-0.027c0.020 0 0.020-0.007 0.020-0.020-0.007-0.020-0.073 0.033-0.1-0.060l-0.1-0.367zM24.587 19.907c0.047 0.153 0.173 0.227 0.313 0.18 0.213-0.073 0.2-0.273 0.16-0.38-0.053-0.16-0.187-0.22-0.32-0.18-0.16 0.060-0.213 0.213-0.153 0.38zM24.653 19.84c-0.040-0.113-0.040-0.233 0.073-0.267 0.087-0.033 0.2 0.027 0.26 0.193 0.040 0.12 0.033 0.24-0.080 0.28-0.12 0.040-0.213-0.1-0.253-0.213zM25.16 19.473c-0.013-0.047 0-0.053 0.027-0.067 0.067-0.020 0.133 0.020 0.16 0.093 0.013 0.040 0.027 0.087-0.073 0.127-0.020 0-0.047 0.013-0.053 0l-0.060-0.153zM25.213 19.847c0.040 0.093-0.027 0.093-0.013 0.113 0 0.020 0.013 0.007 0.027 0.007l0.1-0.047 0.060-0.013c0.013-0.007 0.013-0.013 0.013-0.020-0.013-0.027-0.067 0.027-0.093-0.053l-0.053-0.127c-0.013-0.027-0.013-0.033 0.020-0.047s0.047-0.007 0.073 0.020l0.107 0.093c0.033 0.033 0.073 0.073 0.133 0.053 0.020-0.013 0.060-0.047 0.047-0.067l-0.013-0.007-0.013 0.013h-0.033l-0.187-0.167 0.027-0.047c0.007-0.016 0.011-0.034 0.011-0.053s-0.004-0.038-0.011-0.054l0 0.001c-0.007-0.040-0.067-0.133-0.207-0.080l-0.133 0.060-0.080 0.027-0.013 0.013c0.013 0.027 0.073-0.027 0.107 0.053l0.133 0.333z"></path>
<path fill="#d52b1e" d="M17.609 11.703h3.503v3.499h-3.503z"></path>
<path fill="#fff" d="M19.251 14.455s0 0.128-0.034 0.226c-0.043 0.115-0.043 0.115-0.081 0.171-0.042 0.068-0.097 0.125-0.16 0.169l-0.002 0.001c-0.085 0.051-0.171 0.077-0.256 0.068-0.23-0.017-0.341-0.273-0.393-0.478-0.055-0.218-0.213-0.341-0.32-0.256-0.060 0.043-0.060 0.119-0.013 0.196 0.045 0.054 0.105 0.096 0.172 0.119l0.003 0.001-0.124 0.158s-0.269-0.034-0.32-0.316c-0.021-0.107 0.030-0.303 0.209-0.363 0.226-0.077 0.367 0.085 0.439 0.222 0.094 0.188 0.137 0.529 0.401 0.478 0.145-0.030 0.213-0.239 0.213-0.337l0.102-0.111 0.158 0.051h0.004z"></path>
<path fill="#fff" d="M19.469 14.455s0 0.128 0.034 0.226c0.043 0.115 0.043 0.115 0.081 0.171 0.042 0.068 0.097 0.125 0.16 0.169l0.002 0.001c0.085 0.051 0.171 0.077 0.256 0.068 0.23-0.017 0.341-0.273 0.393-0.478 0.055-0.218 0.213-0.341 0.32-0.256 0.060 0.043 0.060 0.119 0.013 0.196-0.045 0.054-0.105 0.096-0.172 0.119l-0.003 0.001 0.124 0.158s0.269-0.034 0.32-0.316c0.021-0.107-0.030-0.303-0.209-0.363-0.226-0.077-0.367 0.085-0.439 0.222-0.094 0.188-0.137 0.529-0.401 0.478-0.145-0.030-0.213-0.239-0.213-0.337l-0.102-0.111-0.158 0.051h-0.004z"></path>
<path fill="#fedf00" d="M19.674 12.971l0.461-0.499s0.068-0.055 0.068-0.145l-0.094 0.017-0.021-0.051-0.004-0.047 0.128-0.030v-0.055l0.013-0.055-0.137 0.009 0.013-0.060 0.021-0.043 0.081-0.017h0.081c0.077-0.145 0.393-0.273 0.614-0.043 0.162 0.171 0.128 0.478-0.085 0.563-0.032 0.015-0.070 0.023-0.109 0.023-0.070 0-0.133-0.027-0.181-0.070l0 0 0.085-0.171c0.115 0.073 0.213-0.013 0.205-0.102-0.009-0.115-0.085-0.183-0.183-0.192s-0.171 0.043-0.213 0.128c-0.026 0.055-0.013 0.094-0.021 0.154-0.009 0.064 0 0.098-0.021 0.162-0.022 0.061-0.057 0.113-0.102 0.153l-0 0-0.469 0.512-1.835 1.98-0.137-0.128 1.843-1.993z"></path>
<path fill="#fff" d="M18.325 13.141s0.115 0.572 0.508 1.429c0.201-0.073 0.316-0.119 0.529-0.119 0.209 0 0.324 0.043 0.525 0.119 0.2-0.407 0.374-0.883 0.497-1.379l0.011-0.050-1.033-1.323-1.041 1.323z"></path>
<path fill="#fedf00" d="M19.46 12.262l0.717 0.926s-0.094 0.448-0.384 1.122c-0.115-0.026-0.213-0.047-0.333-0.055v-1.993zM19.26 12.262l-0.717 0.926s0.094 0.448 0.384 1.122c0.115-0.026 0.213-0.047 0.333-0.055v-1.993z"></path>
<path fill="#fedf00" d="M21.487 11.7h3.507v3.5h-3.507z"></path>
<path fill="#d52b1e" d="M21.98 11.7h0.52v3.5h-0.52zM22.98 11.7h0.52v3.5h-0.52zM23.98 11.7h0.527v3.5h-0.527z"></path>
<path fill="#fedf00" d="M17.62 18.233c0.007 0.067 0.033 0.173 0.093 0.287 0.067 0.1 0.040 0.093 0.18 0.253 0.076 0.077 0.164 0.141 0.261 0.191l0.006 0.003c0.254 0.112 0.55 0.178 0.862 0.178 0.049 0 0.097-0.002 0.144-0.005l-0.006 0c0.18-0.007 0.32-0.027 0.44-0.047 0.187-0.026 0.404-0.041 0.624-0.041 0.039 0 0.077 0 0.115 0.001l-0.006-0c0.1 0 0.2 0.020 0.313 0.040 0.233 0.047 0.467 0.133 0.467 0.133v-3.647h-3.507v2.487l0.013 0.16z"></path>
<path fill="#d52b1e" d="M18.027 18.873l0.167 0.1 0.227 0.080v-3.48h-0.393zM19.973 19.033v-3.46h-0.387v3.52l0.387-0.047zM20.753 15.573h-0.387v3.473c0.127 0.013 0.253 0.040 0.387 0.067v-3.533zM19.193 15.573v3.56s-0.253 0.013-0.387 0v-3.56z"></path>
<path fill="#fedf00" d="M24.981 18.236c-0.017 0.105-0.049 0.2-0.096 0.286l0.002-0.005c-0.064 0.098-0.043 0.098-0.183 0.256-0.148 0.146-0.337 0.251-0.547 0.297l-0.007 0.001c-0.169 0.046-0.363 0.073-0.563 0.073-0.051 0-0.102-0.002-0.152-0.005l0.007 0c-0.183-0.009-0.32-0.030-0.439-0.043-0.162-0.026-0.286-0.038-0.469-0.043-0.040-0.002-0.086-0.003-0.132-0.003s-0.093 0.001-0.139 0.004l0.006-0c-0.29 0.034-0.555 0.096-0.806 0.187l0.025-0.008v-3.661h3.507v2.496l-0.013 0.162z"></path>
<path fill="#d52b1e" d="M22.383 15.872l-0.026 0.009-0.034 0.034c-0.017 0.017-0.030 0.021-0.051 0.034l-0.026 0.021c-0.013 0.013 0 0.026-0.013 0.043-0.004 0.017-0.013 0.026-0.026 0.043-0.017 0.017-0.030 0.021-0.043 0.043l-0.051 0.043-0.013 0.004h-0.026c-0.017 0.009-0.021 0.026-0.034 0.034l0.013 0.026 0.034 0.060c0.009 0.013 0.009 0.030 0.021 0.034 0.021 0.009 0.038 0.009 0.055 0.004 0.034 0.009 0.055 0.009 0.085 0.021l0.064 0.034c0.021 0.013 0.034 0.017 0.055 0.021h0.077v0.013l0.085 0.043c-0.002 0.005-0.003 0.011-0.004 0.017l-0 0c-0.004 0.013-0.009 0.030-0.004 0.034 0.026 0.081 0.051 0.128 0.064 0.137 0.026 0.009 0.034 0.038 0.047 0.064l-0.013 0.013c-0.026 0.026-0.051 0.043-0.073 0.077-0.030 0.051-0.051 0.051-0.013 0.119l0.064 0.102c0.017 0.030 0.026 0.051 0.034 0.085 0.009 0.030 0.013 0.051 0.013 0.085l0.043 0.013 0.030-0.026 0.026-0.051v-0.043c-0.009-0.004-0.013-0.017-0.009-0.030 0-0.017 0.021-0.013 0.030-0.026 0.013-0.021-0.017-0.034-0.030-0.047-0.026-0.030-0.060-0.038-0.068-0.081 0-0.009 0-0.017 0.017-0.030l0.085-0.077c0.009 0.004 0.026 0.009 0.043 0.004l0.055 0.017c0.026 0.009 0.038 0 0.051 0h0.017l0.004 0.026c0.004 0.043-0.004 0.128 0.009 0.149l0.013 0.026 0.009 0.026v0.085l-0.009 0.073c0 0.017-0.009 0.030-0.021 0.043-0.009 0.017-0.026 0.017-0.043 0.030v0.043l0.047 0.021 0.055 0.013 0.030-0.013 0.004-0.026 0.021-0.021c0.017-0.009 0.034 0 0.038-0.004 0.009-0.013 0-0.017 0-0.034 0-0.026-0.009-0.043-0.013-0.068-0.004-0.023-0.006-0.050-0.006-0.078 0-0.015 0.001-0.029 0.002-0.044l-0 0.002c0-0.026 0-0.043 0.009-0.064 0.004-0.043 0.017-0.060 0.026-0.094 0.013-0.043 0.013-0.068 0.017-0.107 0.047 0.007 0.1 0.012 0.155 0.012 0.098 0 0.193-0.014 0.283-0.039l-0.007 0.002c0.034 0.030 0.073 0.051 0.115 0.068v0.043c0 0.013 0 0.017 0.009 0.030l0.013 0.013c0.013 0 0.021 0 0.030-0.009s0.009-0.017 0.009-0.030v-0.030h0.077v0.047c0.004 0.013 0.013 0.017 0.021 0.017 0.004 0.002 0.008 0.003 0.013 0.003s0.009-0.001 0.013-0.003l-0 0c0.013-0.009 0.009-0.026 0.013-0.043v-0.030l0.043-0.017c0.001 0.006 0.001 0.012 0.001 0.019s-0 0.013-0.001 0.020l0-0.001-0.013 0.038c-0.009 0.026-0.021 0.034-0.034 0.060-0.017 0.026-0.021 0.043-0.043 0.064l-0.026 0.030-0.026 0.038-0.038 0.043c-0.030 0.026-0.051 0.009-0.085 0.038l-0.013 0.043 0.060 0.026 0.055 0.009 0.017-0.009c0-0.013 0-0.026 0.013-0.034 0.009-0.013 0.017-0.013 0.030-0.017 0.017 0 0.034 0 0.043-0.009 0.017-0.013 0.017-0.043 0.030-0.064 0.033-0.065 0.076-0.12 0.127-0.166l0.001-0.001 0.073-0.060c0.009-0.017 0.021-0.021 0.021-0.043l-0.009-0.026-0.009-0.043c0.064 0.030 0.043 0.030 0.051 0.060 0.013 0.026 0 0.043 0.004 0.073 0.004 0.034 0.021 0.047 0.021 0.081 0.004 0.038-0.004 0.060-0.013 0.098-0.004 0.034-0.004 0.055-0.021 0.085-0.011 0.026-0.027 0.047-0.047 0.064l-0 0-0.026 0.021-0.004 0.043 0.047 0.017 0.068 0.017 0.017-0.013c0.009-0.030 0-0.073 0.017-0.073 0.017-0.004 0.030 0 0.034-0.013v-0.030l0.030-0.192 0.017-0.081 0.017-0.073c0.030-0.085-0.009-0.098-0.043-0.154-0.021-0.030-0.030-0.043-0.030-0.064v-0.124c-0.001-0.018-0.001-0.039-0.001-0.060s0-0.042 0.001-0.063l-0 0.003 0.017-0.009c0.051-0.030 0.073-0.038 0.102-0.107 0.008-0.018 0.013-0.038 0.013-0.060 0-0.002-0-0.003-0-0.005v0-0.043l-0.017-0.043c-0.007-0.013-0.016-0.024-0.026-0.034l-0-0c-0.030-0.043-0.073-0.047-0.115-0.064-0.064-0.021-0.107-0.017-0.171-0.021-0.077-0.009-0.115-0.009-0.188 0-0.085 0-0.132 0.017-0.218 0.030l-0.209 0.017c-0.098 0-0.188-0.021-0.247-0.017-0.102 0.009-0.107 0.034-0.265 0.047-0.045 0.004-0.102 0.007-0.159 0.008l-0.004 0-0.094-0.030c0.038-0.013 0.047-0.021 0.064-0.043 0.013-0.017 0.009-0.030 0.026-0.047l0.030-0.043c-0.011-0.008-0.024-0.014-0.038-0.017l-0.001-0h-0.043c-0.019 0.001-0.036 0.005-0.052 0.013l0.001-0-0.034 0.026-0.094-0.051c-0.037-0.019-0.080-0.033-0.126-0.038l-0.002-0z"></path>
<path fill="#fcd900" d="M22.391 16.026c-0.021 0-0.038 0-0.055 0.013-0.021 0.013-0.026 0.030-0.043 0.047 0.021 0.004 0.034 0.017 0.051 0.013 0.017 0 0.021-0.009 0.034-0.021 0.013-0.017 0.017-0.030 0.017-0.051h-0.004z"></path>
<path fill="#fcd900" d="M22.089 16.192h0.030l0.034-0.009c0.013 0 0.021 0 0.030 0.009 0.009 0 0.009 0.004 0.013 0.013 0 0.009 0.009 0.013 0.004 0.021 0 0.009-0.013 0.017-0.026 0.017-0.009 0-0.017 0-0.021-0.013-0.001-0.003-0.002-0.005-0.002-0.009s0.001-0.006 0.002-0.009l-0 0c-0.006 0.003-0.012 0.005-0.019 0.005s-0.014-0.002-0.019-0.005l0 0c-0.011-0.003-0.020-0.011-0.026-0.021l-0-0z"></path>
<path fill="#0065bd" d="M22.404 16.606l-0.085-0.038c0.017-0.009 0.030-0.009 0.043-0.021 0.013-0.017 0.013-0.034 0.021-0.055s0.009-0.043 0.030-0.060c0.013-0.009 0.034-0.009 0.047-0.004 0.017 0 0.034 0.017 0.038 0.030 0 0.026-0.009 0.043-0.013 0.064 0 0.026-0.013 0.038-0.009 0.060 0 0.017 0.009 0.026 0.017 0.043l-0.085-0.017zM22.362 16.649c-0-0.001-0-0.003-0-0.004 0-0.014 0.011-0.026 0.026-0.026s0.026 0.011 0.026 0.026c0 0.013-0.009 0.023-0.021 0.025l-0 0c-0.001 0-0.003 0-0.004 0-0.014 0-0.026-0.011-0.026-0.026 0-0 0-0 0-0v0zM22.289 15.94h-0.009c-0.017-0.017-0.017-0.034-0.026-0.051-0.007-0.015-0.011-0.032-0.013-0.051l-0-0.001v-0.085c0-0.013 0-0.026-0.009-0.038 0-0.009-0.017-0.013-0.013-0.017 0-0.004 0.013 0 0.017 0 0.017 0 0.026 0.004 0.043 0.017 0.013 0.013 0.021 0.026 0.026 0.043l0.017 0.064 0.013 0.034 0.021 0.026-0.030 0.034-0.038 0.026zM22.443 16.393l0.094 0.043c0.064-0.039 0.115-0.094 0.148-0.16l0.001-0.002c0.038-0.077 0.043-0.115 0.060-0.188l-0.077-0.021h-0.017c-0.021 0.077-0.030 0.115-0.068 0.179-0.034 0.055-0.073 0.098-0.111 0.128l-0.030 0.021zM22.656 17.169l0.034-0.055 0.060-0.047h0.017c-0.001 0.043-0.008 0.084-0.022 0.122l0.001-0.003-0.017 0.043-0.021 0.021c-0.021-0.034-0.055-0.055-0.055-0.085zM24.064 17.246l0.060 0.026 0.064 0.038v0.021l-0.064 0.009c-0.008 0.001-0.018 0.001-0.028 0.001s-0.019-0-0.029-0.001l0.001 0h-0.043l-0.026-0.017c0.021-0.030 0.034-0.068 0.060-0.077zM23.646 17.161l0.060 0.021 0.064 0.043c0 0.004 0.004 0.013 0 0.017-0.030 0.008-0.064 0.013-0.1 0.013-0.006 0-0.011-0-0.016-0l0.001 0-0.043-0.004-0.030-0.013c0.026-0.030 0.038-0.073 0.064-0.077zM22.903 17.25l0.064 0.021 0.064 0.043v0.021c-0.026 0.006-0.056 0.010-0.087 0.010-0.012 0-0.023-0-0.034-0.002l0.001 0h-0.043l-0.026-0.017c0.021-0.030 0.034-0.068 0.060-0.077zM22.519 15.979c-0.026-0.013-0.043-0.043-0.026-0.068 0.004-0.009 0.017-0.009 0.026-0.017 0.009-0.013 0.004-0.021 0-0.034l-0.004-0.043-0.009-0.043c0-0.026 0-0.043 0.017-0.068 0.009-0.013 0.030-0.026 0.034-0.026 0.009 0.004 0 0.021 0 0.034 0 0.021 0.004 0.030 0.013 0.051l0.030 0.055c0.009 0.026 0.017 0.034 0.017 0.060 0 0.021 0 0.030-0.009 0.051-0.006 0.014-0.014 0.025-0.025 0.034l-0 0c-0.010 0.008-0.021 0.014-0.034 0.017l-0.001 0c-0.004 0.001-0.008 0.002-0.013 0.002s-0.009-0.001-0.013-0.002l0 0z"></path>
<path fill="#d52b1e" d="M22.383 17.434l-0.026 0.009-0.034 0.034c-0.017 0.017-0.030 0.021-0.051 0.034l-0.026 0.021c-0.013 0.013 0 0.026-0.013 0.043-0.004 0.017-0.013 0.026-0.026 0.043-0.017 0.017-0.030 0.021-0.043 0.043l-0.051 0.043-0.013 0.004h-0.026c-0.017 0.009-0.021 0.026-0.034 0.034l0.013 0.026 0.034 0.060c0.009 0.013 0.009 0.030 0.021 0.034 0.021 0.009 0.038 0.009 0.055 0.004 0.034 0.009 0.055 0.009 0.085 0.021l0.064 0.034c0.021 0.013 0.034 0.017 0.055 0.021h0.077v0.013l0.085 0.043c-0.002 0.005-0.003 0.011-0.004 0.017l-0 0c-0.004 0.013-0.009 0.030-0.004 0.034 0.026 0.081 0.051 0.128 0.064 0.137 0.026 0.009 0.034 0.038 0.047 0.064l-0.013 0.013c-0.026 0.026-0.051 0.043-0.073 0.077-0.030 0.051-0.051 0.051-0.013 0.119l0.064 0.102c0.017 0.030 0.026 0.051 0.034 0.085 0.009 0.030 0.013 0.051 0.013 0.085l0.043 0.013 0.030-0.026 0.026-0.051v-0.043c-0.009-0.004-0.013-0.017-0.009-0.030 0-0.017 0.021-0.013 0.030-0.026 0.013-0.021-0.017-0.034-0.030-0.047-0.026-0.030-0.060-0.038-0.068-0.081 0-0.009 0-0.017 0.017-0.030l0.085-0.077c0.009 0.004 0.026 0.009 0.043 0.004l0.055 0.017c0.026 0.009 0.038 0 0.051 0h0.017l0.004 0.026c0.004 0.043-0.004 0.128 0.009 0.149l0.013 0.026 0.009 0.026v0.085l-0.009 0.073c0 0.017-0.009 0.030-0.021 0.043-0.009 0.017-0.026 0.017-0.043 0.030v0.043l0.047 0.021 0.055 0.013 0.030-0.013 0.004-0.026 0.021-0.021c0.017-0.009 0.034 0 0.038-0.004 0.009-0.013 0-0.017 0-0.034 0-0.026-0.009-0.043-0.013-0.068-0.004-0.023-0.006-0.050-0.006-0.078 0-0.015 0.001-0.029 0.002-0.044l-0 0.002c0-0.026 0-0.043 0.009-0.064 0.004-0.043 0.017-0.060 0.026-0.094 0.013-0.043 0.013-0.068 0.017-0.107 0.047 0.007 0.1 0.012 0.155 0.012 0.098 0 0.193-0.014 0.283-0.039l-0.007 0.002c0.034 0.030 0.073 0.051 0.115 0.068v0.043c0 0.013 0 0.017 0.009 0.030l0.013 0.013c0.013 0 0.021 0 0.030-0.009s0.009-0.017 0.009-0.030v-0.030h0.077v0.047c0.004 0.013 0.013 0.017 0.021 0.017 0.004 0.002 0.008 0.003 0.013 0.003s0.009-0.001 0.013-0.003l-0 0c0.013-0.009 0.009-0.026 0.013-0.043v-0.030l0.043-0.017c0.001 0.006 0.001 0.012 0.001 0.019s-0 0.013-0.001 0.020l0-0.001-0.013 0.038c-0.009 0.026-0.021 0.034-0.034 0.060-0.017 0.026-0.021 0.043-0.043 0.064l-0.026 0.030-0.026 0.038-0.038 0.043c-0.030 0.026-0.051 0.009-0.085 0.038l-0.013 0.043 0.060 0.026 0.055 0.009 0.017-0.009c0-0.013 0-0.026 0.013-0.034 0.009-0.013 0.017-0.013 0.030-0.017 0.017 0 0.034 0 0.043-0.009 0.017-0.013 0.017-0.043 0.030-0.064 0.033-0.065 0.076-0.12 0.127-0.166l0.001-0.001 0.073-0.060c0.009-0.017 0.021-0.021 0.021-0.043l-0.009-0.026-0.009-0.043c0.064 0.030 0.043 0.030 0.051 0.060 0.013 0.026 0 0.043 0.004 0.073 0.004 0.034 0.021 0.047 0.021 0.081 0.004 0.038-0.004 0.060-0.013 0.098-0.004 0.034-0.004 0.055-0.021 0.085-0.011 0.026-0.027 0.047-0.047 0.064l-0 0-0.026 0.021-0.004 0.043 0.047 0.017 0.068 0.017 0.017-0.013c0.009-0.030 0-0.073 0.017-0.073 0.017-0.004 0.030 0 0.034-0.013v-0.030l0.030-0.192 0.017-0.081 0.017-0.073c0.030-0.085-0.009-0.098-0.043-0.154-0.021-0.030-0.030-0.043-0.030-0.064v-0.124c-0.001-0.018-0.001-0.039-0.001-0.060s0-0.042 0.001-0.063l-0 0.003 0.017-0.009c0.051-0.030 0.073-0.038 0.102-0.107 0.008-0.018 0.013-0.038 0.013-0.060 0-0.002-0-0.003-0-0.005v0-0.043l-0.017-0.043c-0.007-0.013-0.016-0.024-0.026-0.034l-0-0c-0.030-0.043-0.073-0.047-0.115-0.064-0.064-0.021-0.107-0.017-0.171-0.021-0.077-0.009-0.115-0.009-0.188 0-0.085 0-0.132 0.017-0.218 0.030l-0.209 0.017c-0.098 0-0.188-0.021-0.247-0.017-0.102 0.009-0.107 0.034-0.265 0.047-0.045 0.004-0.102 0.007-0.159 0.008l-0.004 0-0.094-0.030c0.038-0.013 0.047-0.021 0.064-0.043 0.013-0.017 0.009-0.030 0.026-0.047l0.030-0.043c-0.011-0.008-0.024-0.014-0.038-0.017l-0.001-0h-0.043c-0.019 0.001-0.036 0.005-0.052 0.013l0.001-0-0.034 0.026-0.094-0.051c-0.037-0.019-0.080-0.033-0.126-0.038l-0.002-0z"></path>
<path fill="#fcd900" d="M22.391 17.587c-0.021 0-0.038 0-0.055 0.013-0.021 0.013-0.026 0.030-0.043 0.047 0.021 0.004 0.034 0.017 0.051 0.013 0.017 0 0.021-0.009 0.034-0.021 0.013-0.017 0.017-0.030 0.017-0.051h-0.004z"></path>
<path fill="#fcd900" d="M22.089 17.754h0.030l0.034-0.009c0.013 0 0.021 0 0.030 0.009 0.009 0 0.009 0.004 0.013 0.013 0 0.009 0.009 0.013 0.004 0.021 0 0.009-0.013 0.017-0.026 0.017-0.009 0-0.017 0-0.021-0.013-0.001-0.003-0.002-0.005-0.002-0.009s0.001-0.006 0.002-0.009l-0 0c-0.006 0.003-0.012 0.005-0.019 0.005s-0.014-0.002-0.019-0.005l0 0c-0.011-0.003-0.020-0.011-0.026-0.021l-0-0z"></path>
<path fill="#0065bd" d="M22.404 18.167l-0.085-0.038c0.017-0.009 0.030-0.009 0.043-0.021 0.013-0.017 0.013-0.034 0.021-0.055s0.009-0.043 0.030-0.060c0.013-0.009 0.034-0.009 0.047-0.004 0.017 0 0.034 0.017 0.038 0.030 0 0.026-0.009 0.043-0.013 0.064 0 0.026-0.013 0.038-0.009 0.060 0 0.017 0.009 0.026 0.017 0.043l-0.085-0.017zM22.362 18.21c-0-0.001-0-0.003-0-0.004 0-0.014 0.011-0.026 0.026-0.026s0.026 0.011 0.026 0.026c0 0.013-0.009 0.023-0.021 0.025l-0 0c-0.001 0-0.003 0-0.004 0-0.014 0-0.026-0.011-0.026-0.026 0-0 0-0 0-0v0zM22.289 17.502h-0.009c-0.017-0.017-0.017-0.034-0.026-0.051-0.007-0.015-0.011-0.032-0.013-0.051l-0-0.001v-0.085c0-0.013 0-0.026-0.009-0.038 0-0.009-0.017-0.013-0.013-0.017 0-0.004 0.013 0 0.017 0 0.017 0 0.026 0.004 0.043 0.017 0.013 0.013 0.021 0.026 0.026 0.043l0.017 0.064 0.013 0.034 0.021 0.026-0.030 0.034-0.038 0.026zM22.443 17.954l0.094 0.043c0.064-0.039 0.115-0.094 0.148-0.16l0.001-0.002c0.038-0.077 0.043-0.115 0.060-0.188l-0.077-0.021h-0.017c-0.021 0.077-0.030 0.115-0.068 0.179-0.034 0.055-0.073 0.098-0.111 0.128l-0.030 0.021zM22.656 18.731l0.034-0.055 0.060-0.047h0.017c-0.001 0.043-0.008 0.084-0.022 0.122l0.001-0.003-0.017 0.043-0.021 0.021c-0.021-0.034-0.055-0.055-0.055-0.085zM24.064 18.807l0.060 0.026 0.064 0.038v0.021l-0.064 0.009c-0.008 0.001-0.018 0.001-0.028 0.001s-0.019-0-0.029-0.001l0.001 0h-0.043l-0.026-0.017c0.021-0.030 0.034-0.068 0.060-0.077zM23.646 18.722l0.060 0.021 0.064 0.043c0 0.004 0.004 0.013 0 0.017-0.030 0.008-0.064 0.013-0.1 0.013-0.006 0-0.011-0-0.016-0l0.001 0-0.043-0.004-0.030-0.013c0.026-0.030 0.038-0.073 0.064-0.077zM22.903 18.812l0.064 0.021 0.064 0.043v0.021c-0.026 0.006-0.056 0.010-0.087 0.010-0.012 0-0.023-0-0.034-0.002l0.001 0h-0.043l-0.026-0.017c0.021-0.030 0.034-0.068 0.060-0.077zM22.519 17.54c-0.026-0.013-0.043-0.043-0.026-0.068 0.004-0.009 0.017-0.009 0.026-0.017 0.009-0.013 0.004-0.021 0-0.034l-0.004-0.043-0.009-0.043c0-0.026 0-0.043 0.017-0.068 0.009-0.013 0.030-0.026 0.034-0.026 0.009 0.004 0 0.021 0 0.034 0 0.021 0.004 0.030 0.013 0.051l0.030 0.055c0.009 0.026 0.017 0.034 0.017 0.060 0 0.021 0 0.030-0.009 0.051-0.006 0.014-0.014 0.025-0.025 0.034l-0 0c-0.010 0.008-0.021 0.014-0.034 0.017l-0.001 0c-0.004 0.001-0.008 0.002-0.013 0.002s-0.009-0.001-0.013-0.002l0 0z"></path>
</svg>
