<!-- Generated by IcoMoon.io -->
<svg version="1.1" xmlns="http://www.w3.org/2000/svg" width="43" height="32" viewBox="0 0 43 32">
<title>af</title>
<path fill="#000" d="M0 0h42.667v32h-42.667z"></path>
<path fill="#090" d="M28.447 0h14.22v32h-14.22z"></path>
<path fill="#bf0000" d="M14.22 0h14.227v32h-14.227z"></path>
<path fill="#fff" d="M22.718 17.829h0.588c0 0.227 0.142 0.468 0.319 0.603h-1.134c0.177-0.156 0.227-0.355 0.227-0.603z"></path>
<path fill="#fff" d="M18.975 14.475l0.326 0.354 4.041 0.014 0.326-0.354-1.035-0.021-0.496-0.354h-1.631l-0.468 0.362h-1.063z"></path>
<path fill="#fff" d="M20.627 14.064h1.397c0.184-0.099 0.248-0.418 0.248-0.596 0-0.525-0.376-0.78-0.744-0.794-0.057 0-0.121-0.043-0.135-0.092-0.035-0.113-0.028-0.191-0.071-0.184-0.028 0-0.021 0.071-0.050 0.17-0.021 0.057-0.078 0.106-0.142 0.113-0.454 0.021-0.752 0.354-0.744 0.787 0.007 0.284 0.043 0.454 0.241 0.596z"></path>
<path fill="#fff" d="M18.337 19.034h5.977l-0.532-0.432h-4.92l-0.532 0.432z"></path>
<path fill="#fff" d="M21.081 17.396l0.106 0.326h0.248l-0.198-0.326h-0.156zM20.939 17.722l0.071 0.326h0.284l-0.106-0.326h-0.248zM21.435 17.722l0.198 0.326h0.418l-0.326-0.326h-0.291zM18.989 18.46c0.22-0.206 0.362-0.376 0.362-0.624h0.539c0 0.142 0.050 0.22 0.128 0.213h0.546v-0.319h-0.397v-1.751c-0.014-0.624 0.752-0.978 1.063-0.978h-1.865v-0.057h3.921v0.057h-1.879c0.56 0 1.099 0.532 1.106 0.978v0.496h-0.071l-0.007-0.489c0-0.489-0.617-0.943-1.113-0.929-0.425 0.007-1.092 0.418-1.085 0.922v0.156l1.014 0.007-0.007 0.177 0.156 0.099 0.319 0.099v0.269l0.227 0.064v0.262l0.269 0.121v0.269l0.177 0.106-0.007 0.276 0.234 0.163h-0.553l0.347 0.39h-0.518l-0.255-0.39h-0.333l0.149 0.383h-0.355l-0.092-0.383h-0.44v0.411h-1.574zM20.563 17.396v0.326h0.376l-0.071-0.326h-0.312z"></path>
<path fill="#fff" d="M22.428 16.73h0.071v0.503h-0.071z"></path>
<path fill="#fff" d="M18.309 15.042c-0.085-0.142-0.191 0.198-0.553 0.447-0.163 0.113-0.284 0.418-0.284 0.617 0 0.142 0.014 0.276 0 0.411-0.007 0.078-0.099 0.269-0.035 0.319 0.156 0.113 0.362 0.383 0.454 0.475 0.085 0.071 0.156-0.376 0.213-0.567 0.071-0.213 0.043-0.475 0.227-0.666 0.128-0.142 0.454-0.269 0.425-0.326l-0.447-0.709z"></path>
<path fill="#bf0000" d="M18.287 16.134c-0.030-0.071-0.068-0.131-0.114-0.185l0.001 0.001c-0.045-0.055-0.102-0.099-0.167-0.127l-0.003-0.001c-0.068-0.020-0.125-0.057-0.17-0.106l-0-0c-0.026-0.029-0.046-0.065-0.056-0.105l-0-0.002c-0.004-0.021-0.006-0.046-0.006-0.071s0.002-0.050 0.006-0.073l-0 0.003-0.021 0.021c-0.163 0.113-0.284 0.418-0.284 0.617-0.001 0.024-0.002 0.053-0.002 0.082s0.001 0.057 0.002 0.086l-0-0.004c0.014 0.035 0.021 0.071 0.043 0.092l0.078 0.057 0.191 0.050c0.074 0.034 0.135 0.082 0.184 0.141l0.001 0.001c0.050 0.053 0.093 0.114 0.126 0.18l0.002 0.004 0.014-0.057c0.057-0.191 0.050-0.418 0.184-0.603z"></path>
<path fill="#fff" d="M18.188 14.901l0.071-0.043 1.255 2.12-0.071 0.043-1.255-2.127z"></path>
<path fill="#fff" d="M18.323 14.815c0 0.078-0.063 0.142-0.142 0.142s-0.142-0.063-0.142-0.142v0c0-0.078 0.063-0.142 0.142-0.142s0.142 0.063 0.142 0.142v0zM19.4 13.114h0.51v0.113h-0.51zM19.4 13.334h0.51v0.978h-0.51zM19.372 12.979h0.567c0.014-0.191-0.177-0.397-0.284-0.397-0.113 0.007-0.291 0.213-0.284 0.397z"></path>
<path fill="#bd6b00" d="M20.811 12.866c-0.106 0.043-0.191 0.163-0.241 0.305s-0.071 0.305-0.043 0.432c0 0.050 0.021 0.078 0.035 0.106 0.014 0.021 0.028 0.035 0.043 0.035 0.021 0 0.043 0 0.050-0.021l0.014-0.057c-0.007-0.142-0.007-0.269 0.021-0.383 0.033-0.129 0.109-0.237 0.211-0.311l0.002-0.001c0.021-0.014 0.028-0.035 0.035-0.050-0-0.019-0.008-0.037-0.021-0.050v0c-0.028-0.021-0.071-0.028-0.106-0.007zM20.825 12.894c0.028-0.014 0.057 0 0.071 0.007l0.007 0.014c0 0.007 0 0.014-0.021 0.028-0.107 0.079-0.185 0.192-0.219 0.322l-0.001 0.004c-0.018 0.078-0.029 0.168-0.029 0.261 0 0.048 0.003 0.095 0.008 0.142l-0.001-0.006c0 0.016-0.005 0.031-0.014 0.043l0-0s0 0.007-0.014 0c0 0-0.014 0-0.028-0.021-0.013-0.025-0.023-0.053-0.028-0.083l-0-0.002c-0.021-0.128 0-0.284 0.050-0.425 0.050-0.128 0.128-0.241 0.213-0.284z"></path>
<path fill="#bd6b00" d="M20.996 13.001c-0.106 0.050-0.177 0.163-0.213 0.298-0.022 0.077-0.035 0.165-0.035 0.257 0 0.057 0.005 0.113 0.014 0.167l-0.001-0.006c0.014 0.092 0.071 0.142 0.113 0.142 0.021 0.007 0.043 0 0.057-0.021s0.021-0.043 0.014-0.071c-0.028-0.113-0.035-0.241-0.021-0.362 0.021-0.121 0.071-0.227 0.156-0.291 0.021-0.021 0.035-0.035 0.035-0.057 0-0.001 0-0.003 0-0.005 0-0.015-0.005-0.028-0.014-0.038l0 0c-0.028-0.021-0.071-0.028-0.106-0.014zM21.010 13.036c0.028-0.014 0.057-0.007 0.071 0l0.007 0.021-0.021 0.028c-0.093 0.075-0.157 0.185-0.17 0.31l-0 0.002c-0.021 0.128-0.007 0.262 0.014 0.369 0.007 0.028 0 0.043 0 0.057l-0.035 0.007c-0.021 0-0.071-0.035-0.085-0.121-0.021-0.121-0.014-0.277 0.021-0.404s0.106-0.234 0.198-0.269z"></path>
<path fill="#fff" d="M19.372 15.106h0.567v0.78h-0.567zM19.407 16.34h0.546v0.17h-0.546zM19.393 16.63h0.567v0.617h-0.567zM19.351 17.375h0.617v0.347h-0.617zM19.429 16.198h0.496l0.099-0.17h-0.681l0.085 0.17zM20.095 15.588l0.007-0.425h0.34c-0.145 0.114-0.262 0.256-0.344 0.418l-0.003 0.007z"></path>
<path fill="#fff" d="M19.719 16.921h0.142v0.071h-0.142zM19.471 16.921h0.142v0.071h-0.142zM19.613 16.708h0.106v0.213h-0.106zM19.613 16.992h0.106v0.22h-0.106zM17.366 11.675c0.028 0.39-0.099 0.61-0.305 0.574-0.057-0.213 0.071-0.362 0.305-0.574zM16.905 12.547c-0.184-0.092-0.050-0.815 0.021-1.12 0.050 0.39 0.142 0.943-0.021 1.12z"></path>
<path fill="#fff" d="M16.969 12.582c0.312 0.106 0.567-0.227 0.645-0.617-0.255 0.354-0.674 0.354-0.638 0.617zM16.735 12.944c-0.241-0.064-0.099-0.829-0.050-1.134 0.050 0.319 0.22 1.028 0.050 1.134zM16.82 12.923c0.014-0.262 0.276-0.191 0.461-0.333-0.035 0.142-0.142 0.369-0.461 0.333zM16.522 13.277c-0.241-0.071-0.099-0.893-0.113-1.234 0.071 0.298 0.298 1.156 0.113 1.234zM16.635 13.242c0.198 0.064 0.461-0.071 0.482-0.305-0.177 0.121-0.447 0.028-0.482 0.305z"></path>
<path fill="#fff" d="M16.338 13.639c-0.227 0.021-0.128-0.681-0.128-1.333 0.085 0.61 0.319 1.17 0.128 1.333z"></path>
<path fill="#fff" d="M16.423 13.61c0.156 0.071 0.432-0.050 0.51-0.312-0.284 0.121-0.468 0-0.51 0.312zM18.238 12.036c-0.043 0.347-0.184 0.546-0.39 0.51-0.057-0.213 0.113-0.354 0.39-0.51zM17.685 12.915c0.347 0.050 0.468-0.213 0.709-0.56-0.333 0.241-0.723 0.284-0.709 0.567z"></path>
<path fill="#fff" d="M17.578 12.88c-0.184-0.227 0-0.518 0.142-0.759-0.028 0.362 0.092 0.567-0.142 0.759zM17.507 13.256c-0.028-0.227 0.355-0.277 0.525-0.397-0.064 0.128-0.142 0.475-0.532 0.397z"></path>
<path fill="#fff" d="M17.422 13.256c-0.262-0.028-0.156-0.475 0.035-0.716-0.078 0.34 0.142 0.574-0.035 0.716z"></path>
<path fill="#fff" d="M17.224 13.632c-0.298-0.142-0.106-0.51 0-0.73-0.043 0.291 0.198 0.51 0 0.723z"></path>
<path fill="#fff" d="M17.281 13.589c0.156 0.213 0.461-0.057 0.525-0.369-0.262 0.22-0.461 0.184-0.525 0.376zM16.6 15.028c-0.028-0.305 0.198-0.851 0.035-1.149-0.021-0.043 0.050-0.149 0.099-0.085 0.071 0.106 0.142 0.404 0.177 0.291 0.028-0.121 0.035-0.326 0.142-0.369 0.071-0.021 0.163-0.043 0.135 0.071-0.028 0.099-0.085 0.241-0.021 0.248 0.035 0 0.142-0.142 0.234-0.213 0.071-0.057 0.184 0.043 0.071 0.128-0.34 0.284-0.674 0.418-0.872 1.078zM15.983 19.601c-0.043 0-0.092-0.021-0.043 0.043 0.404 0.496 0.518 0.638 1.106 0.567 0.588-0.078 0.73-0.241 1.149-0.475 0.14-0.075 0.306-0.119 0.482-0.119 0.111 0 0.219 0.018 0.319 0.050l-0.007-0.002c0.113 0.035 0.184 0.035 0.099-0.050-0.085-0.078-0.177-0.191-0.284-0.269-0.194-0.131-0.433-0.209-0.69-0.209-0.074 0-0.147 0.007-0.218 0.019l0.008-0.001c-0.425 0.071-0.787 0.347-1.219 0.454-0.105 0.022-0.227 0.035-0.351 0.035s-0.245-0.013-0.362-0.037l0.011 0.002zM19.372 20.487c0.071 0.014 0.121 0.156 0.163 0.064 0.057-0.163 0.014-0.284-0.057-0.276-0.085 0.021-0.22 0.213-0.106 0.213z"></path>
<path fill="#fff" d="M15.707 14.794c-0.085-0.099-0.064-0.128 0.071-0.135 0.099 0 0.298 0.071 0.376 0.007 0.071-0.050 0.035-0.262 0.071-0.354 0.014-0.064 0.050-0.142 0.142-0.014 0.255 0.411 0.567 0.908 0.709 1.39 0.071 0.269 0 0.695-0.241 0.978 0-0.241-0.085-0.404-0.191-0.61-0.142-0.262-0.645-0.993-0.936-1.269z"></path>
<path fill="#fff" d="M16.763 16.95c0.284 0 0.333-0.376 0.333-0.482-0.142 0.028-0.383 0.262-0.333 0.482zM19.209 20.629c0.198 0.043 0.191-0.44-0.014-0.645 0.092 0.312-0.142 0.596 0.007 0.638zM19.124 20.622c0.014 0.227-0.567-0.028-0.709-0.213 0.34 0.149 0.695 0.028 0.709 0.213zM18.876 20.296c0.021 0.22-0.496 0.021-0.659-0.149 0.347 0.113 0.638-0.035 0.659 0.142zM18.968 20.324c0.206 0.050 0.17-0.454-0.028-0.624 0.099 0.333-0.128 0.574 0.028 0.624zM18.755 20.019c0.206 0.050 0.085-0.383-0.064-0.553 0.028 0.312-0.071 0.532 0.071 0.553zM18.649 20.019c0.021 0.227-0.383 0.057-0.539-0.163 0.34 0.106 0.518-0.021 0.539 0.163zM18.543 19.842c0.128-0.092-0.007-0.34-0.262-0.326 0.028 0.149 0.113 0.418 0.262 0.326zM19.535 20.884c0.007 0.227-0.567 0.113-0.752-0.128 0.369 0.071 0.73-0.057 0.744 0.128zM17.238 20.473c0.021 0.227-0.61-0.028-0.766-0.241 0.333 0.113 0.744 0.057 0.766 0.241zM17.621 20.565c0.135-0.092-0.135-0.333-0.355-0.39 0.028 0.149 0.213 0.482 0.355 0.397zM17.663 20.728c0.014 0.206-0.674 0.092-0.851-0.099 0.588 0.106 0.829-0.078 0.851 0.099z"></path>
<path fill="#fff" d="M17.989 20.863c0.071 0.191-0.588 0.142-0.822 0.035 0.376 0 0.766-0.17 0.822-0.035z"></path>
<path fill="#fff" d="M18.294 21.005c0.071 0.17-0.539 0.17-0.837 0.071 0.397 0 0.766-0.241 0.837-0.071zM18.741 21.097c0.113 0.206-0.539 0.22-0.744 0.121 0.369-0.050 0.652-0.284 0.744-0.121zM17.982 20.75c-0.206 0.128-0.191-0.255-0.355-0.518 0.255 0.234 0.496 0.397 0.355 0.518z"></path>
<path fill="#fff" d="M18.351 20.891c-0.17 0.149-0.312-0.376-0.468-0.674 0.255 0.284 0.624 0.546 0.468 0.666zM18.833 21.033c-0.142 0.17-0.567-0.496-0.723-0.851 0.234 0.276 0.837 0.709 0.723 0.851zM18.422 21.544c-0.071 0.255-1.149-0.241-1.276-0.503 0.624 0.326 1.29 0.255 1.276 0.496zM14.969 16.311c-0.028-0.035-0.099 0-0.085 0.078 0.021 0.106 0.177 0.652 0.447 0.837 0.191 0.142 1.205 0.362 1.659 0.461 0.255 0.050 0.461 0.177 0.631 0.376-0.070-0.283-0.143-0.515-0.228-0.741l0.015 0.046c-0.085-0.213-0.312-0.44-0.553-0.447-0.432-0.021-1-0.057-1.418-0.234-0.194-0.083-0.354-0.212-0.473-0.373l-0.002-0.003z"></path>
<path fill="#fff" d="M17.472 18.474c0.142 0.099 0.291-0.262 0.121-0.61-0.007 0.333-0.269 0.447-0.121 0.61z"></path>
<path fill="#fff" d="M17.607 18.807c0.191 0.057 0.248-0.284 0.128-0.553 0.021 0.291-0.305 0.468-0.128 0.553z"></path>
<path fill="#fff" d="M17.756 19.076c0.184 0.092 0.248-0.255 0.121-0.503 0.014 0.319-0.262 0.418-0.121 0.496z"></path>
<path fill="#fff" d="M17.678 19.098c-0.071 0.213-0.496-0.191-0.567-0.411 0.262 0.262 0.617 0.227 0.567 0.404z"></path>
<path fill="#fff" d="M17.486 18.764c-0.085 0.213-0.617-0.355-0.737-0.617 0.262 0.262 0.794 0.461 0.737 0.61z"></path>
<path fill="#fff" d="M17.38 18.431c-0.085 0.248-0.659-0.411-0.829-0.645 0.284 0.255 0.893 0.468 0.829 0.645zM17.359 18.19c0.213-0.043-0.007-0.213-0.262-0.489-0.007 0.291 0.035 0.496 0.262 0.489z"></path>
<path fill="#fff" d="M17.011 18.020c0.092-0.092-0.078-0.135-0.291-0.376-0.035 0.163 0.198 0.461 0.298 0.376zM18.004 19.098c0.113 0.071 0.184-0.163 0.050-0.369-0.035 0.227-0.149 0.284-0.050 0.369zM15.579 17.658c-0.234 0.142-0.61-0.425-0.709-0.659 0.206 0.269 0.752 0.51 0.709 0.659z"></path>
<path fill="#fff" d="M15.785 17.985c-0.135 0.142-0.546-0.248-0.688-0.447 0.213 0.191 0.744 0.213 0.688 0.447z"></path>
<path fill="#fff" d="M16.004 18.282c-0.043 0.198-0.638-0.248-0.78-0.461 0.255 0.248 0.822 0.227 0.78 0.461z"></path>
<path fill="#fff" d="M15.912 18.502c-0.092 0.177-0.581-0.269-0.702-0.496 0.305 0.255 0.78 0.319 0.709 0.496zM15.664 17.63c0.149-0.163 0.085-0.241-0.028-0.496-0.057 0.262-0.149 0.369 0.028 0.496zM15.87 17.935c0.284 0.014 0-0.326-0.071-0.617 0.028 0.326-0.071 0.588 0.071 0.617z"></path>
<path fill="#fff" d="M16.047 18.204c0.191-0.043 0.142-0.319-0.014-0.652 0.035 0.362-0.163 0.567 0.014 0.652zM15.976 18.75c-0.071 0.213-0.624-0.284-0.709-0.482 0.284 0.241 0.759 0.319 0.709 0.482z"></path>
<path fill="#fff" d="M16.309 19.091c-0.078 0.213-0.659-0.227-0.837-0.468 0.347 0.284 0.879 0.255 0.837 0.468z"></path>
<path fill="#fff" d="M16.65 19.438c-0.092 0.305-0.702-0.184-0.879-0.425 0.383 0.298 0.922 0.213 0.879 0.425zM16.082 18.658c0.163 0.078 0.227-0.383 0.135-0.716 0 0.355-0.333 0.624-0.142 0.709z"></path>
<path fill="#fff" d="M16.359 19.027c0.198 0.057 0.142-0.447-0.035-0.78-0.021 0.333-0.163 0.638 0.035 0.78zM16.713 19.374c0.213 0.007 0.071-0.432-0.113-0.681 0.028 0.319-0.071 0.638 0.113 0.681zM16.323 19.558c-0.071 0.113-0.227-0.092-0.496-0.248 0.241 0.071 0.525 0.142 0.496 0.248zM16.196 15.822c0.213-0.156 0.050-0.44 0-0.709-0.071 0.255-0.241 0.596 0 0.709zM16.196 16.198c-0.319-0.035-0.269-0.432-0.284-0.688 0.099 0.347 0.354 0.404 0.284 0.695zM16.238 16.148c0.262-0.014 0.248-0.312 0.262-0.61-0.135 0.277-0.284 0.319-0.262 0.61z"></path>
<path fill="#fff" d="M16.231 16.517c-0.213 0.021-0.312-0.184-0.354-0.496 0.191 0.291 0.362 0.198 0.354 0.496zM16.302 16.496c0.262 0.035 0.213-0.269 0.213-0.496-0.085 0.213-0.298 0.284-0.213 0.496z"></path>
<path fill="#fff" d="M15.891 16.368c0.021 0.198 0.149 0.539 0.355 0.461 0.078-0.241-0.184-0.291-0.354-0.461z"></path>
<path fill="#fff" d="M16.302 16.85c-0.085-0.17 0.213-0.262 0.269-0.489 0.035 0.326 0.007 0.539-0.269 0.496zM15.458 14.78c0.163-0.17 0.021-0.454-0.028-0.723-0.071 0.255-0.177 0.596 0.028 0.723zM15.458 15.106c-0.284 0.035-0.354-0.546-0.39-0.801 0.099 0.347 0.425 0.496 0.39 0.808zM15.515 15.106c0.198-0.106 0.156-0.333 0.213-0.496-0.128 0.206-0.255 0.234-0.213 0.496z"></path>
<path fill="#fff" d="M15.451 15.489c-0.291 0.021-0.468-0.624-0.482-0.879 0.092 0.347 0.525 0.532 0.489 0.879zM15.515 15.475c0.284-0.064 0.248-0.248 0.206-0.539-0.092 0.298-0.248 0.234-0.206 0.539z"></path>
<path fill="#fff" d="M15.451 15.858c-0.326 0.057-0.305-0.468-0.567-0.844 0.227 0.284 0.638 0.638 0.567 0.844zM15.522 15.836c0.255 0.014 0.284-0.362 0.269-0.518-0.064 0.156-0.354 0.298-0.262 0.525z"></path>
<path fill="#fff" d="M14.941 15.454c0.121 0.404 0.298 0.808 0.51 0.78 0.106-0.234-0.206-0.262-0.51-0.78z"></path>
<path fill="#fff" d="M15.529 16.17c-0.085-0.177 0.213-0.262 0.269-0.489 0.035 0.326 0.007 0.539-0.269 0.489zM15.026 15.914c0.177 0.362 0.255 0.78 0.496 0.716 0.092-0.284-0.269-0.34-0.496-0.716z"></path>
<path fill="#fff" d="M15.572 16.567c-0.106-0.198 0.191-0.262 0.269-0.525 0.035 0.34 0 0.588-0.269 0.518zM16.082 14.121c0.17 0.043 0.355-0.149 0.291-0.44-0.198 0.043-0.284 0.227-0.291 0.44zM15.522 13.972c0.014 0.085 0.121 0.092 0.085-0.028-0.013-0.036-0.020-0.077-0.020-0.121s0.007-0.085 0.021-0.123l-0.001 0.003c0.016-0.049 0.026-0.105 0.026-0.163s-0.009-0.114-0.027-0.167l0.001 0.004c-0.028-0.071-0.128-0.028-0.085 0.028 0.043 0.064 0.050 0.198 0.014 0.262-0.043 0.092-0.028 0.213-0.014 0.305zM17.146 15.106c-0.071 0.092-0.206 0.028-0.099-0.106 0.085-0.106 0.213-0.198 0.213-0.312 0.014-0.142 0.092-0.354 0.17-0.432s0.17 0.028 0.085 0.085c-0.092 0.057-0.156 0.312-0.149 0.411-0.007 0.142-0.142 0.248-0.22 0.354zM16.933 14.943c-0.071 0.099-0.17 0.035-0.113-0.121 0.050-0.106 0.057-0.248 0.113-0.326 0.085-0.121 0.213-0.22 0.291-0.298 0.085-0.071 0.142 0 0.071 0.071-0.085 0.085-0.162 0.178-0.23 0.277l-0.004 0.007c-0.099 0.156-0.057 0.284-0.128 0.39zM15.82 14.433c-0.007 0.142 0.106 0.17 0.099-0.028 0-0.213-0.156-0.411-0.071-0.73 0.057-0.156 0.057-0.447 0.028-0.596-0.028-0.156-0.142-0.057-0.092 0.064 0.043 0.142-0.007 0.397-0.043 0.532-0.106 0.383 0.085 0.567 0.071 0.759zM16.125 13.653c-0.014 0.135-0.128 0.142-0.092-0.035 0.028-0.142 0.028-0.255 0-0.376-0.043-0.149-0.028-0.404 0-0.51 0.035-0.113 0.142-0.050 0.099 0.035-0.028 0.072-0.043 0.156-0.043 0.243 0 0.062 0.008 0.123 0.023 0.18l-0.001-0.005c0.043 0.142 0.035 0.34 0.014 0.475zM15.019 16.283c0.057 0.064 0.142 0.021 0.071-0.071-0.071-0.071-0.050-0.085-0.092-0.17-0.043-0.099-0.035-0.149-0.085-0.213-0.050-0.071-0.113 0-0.071 0.050 0.057 0.071 0.043 0.113 0.071 0.177 0.071 0.106 0.050 0.163 0.106 0.227zM16.465 18.027c0.172 0.097 0.292 0.27 0.312 0.472l0 0.003c0.008 0.186 0.060 0.358 0.145 0.509l-0.003-0.006c-0.142-0.035-0.213-0.262-0.234-0.482-0.021-0.227-0.142-0.319-0.213-0.496zM16.827 18.445c0.121 0.22 0.284 0.305 0.298 0.468 0.014 0.191 0.028 0.198 0.078 0.383-0.142-0.035-0.177-0.050-0.213-0.333-0.021-0.198-0.184-0.333-0.163-0.518z"></path>
<path fill="#fff" d="M20.556 20.487c0.071 0.128 0.142 0.319 0.284 0.284 0-0.092-0.149-0.163-0.284-0.284zM20.769 20.53c0.262 0.113 0.496 0.085 0.532 0.255-0.255 0.028-0.355-0.071-0.539-0.255zM19.627 19.629c0.173 0.135 0.298 0.323 0.353 0.539l0.001 0.007c0.062 0.21 0.149 0.394 0.26 0.561l-0.005-0.008c-0.182-0.123-0.315-0.305-0.374-0.518l-0.002-0.006c-0.050-0.213-0.113-0.376-0.234-0.567zM19.847 19.629c0.198 0.156 0.383 0.34 0.44 0.56 0.057 0.206 0.092 0.362 0.227 0.567-0.213-0.135-0.291-0.333-0.355-0.553-0.050-0.213-0.177-0.369-0.312-0.567zM20.499 20.147c-0.001-0.004-0.001-0.008-0.001-0.012 0-0.033 0.021-0.062 0.050-0.073l0.001-0c0.044-0.017 0.105-0.036 0.168-0.053l0.017-0.004c0.071-0.021 0.113 0.028 0.113 0.064v0.142c0 0.050-0.014 0.057-0.050 0.064-0.050 0.007-0.121 0.014-0.17 0.050-0.043 0.028-0.085 0.007-0.106-0.035l-0.021-0.142zM21.251 20.147c0-0.043-0.014-0.078-0.043-0.085-0.043-0.018-0.094-0.029-0.146-0.029-0.008 0-0.017 0-0.025 0.001l0.001-0c-0.071 0-0.078 0.014-0.078 0.043v0.149c0 0.057 0 0.057 0.028 0.071 0.050 0 0.128 0 0.177 0.043 0.035 0.021 0.071 0 0.078-0.043l0.007-0.149z"></path>
<path fill="#fff" d="M23.356 22.139c0 0.085 0.014 0.156 0.071 0.22-0.117-0.037-0.251-0.058-0.39-0.058-0.214 0-0.417 0.050-0.597 0.139l0.008-0.004c-0.128 0.057-0.284-0.071-0.135-0.191 0.213-0.163 0.688-0.071 1.042-0.106zM19.28 22.139c0.001 0.013 0.002 0.027 0.002 0.042 0 0.061-0.011 0.12-0.031 0.174l0.001-0.003c0.312-0.121 0.645-0.014 0.964 0.113 0.213 0.092 0.234-0.071 0.198-0.121-0.078-0.117-0.206-0.196-0.353-0.206l-0.001-0h-0.78zM19.549 20.601c-0.092-0.035-0.191 0-0.284 0.099-0.305 0.298-0.666 0.588-0.957 0.822-0.106 0.092-0.213 0.262 0.241 0.425 0.021 0.014 0.355 0.142 0.567 0.142 0.092 0 0.092 0.128 0.071 0.163-0.035 0.071-0.007 0.099-0.078 0.163-0.078 0.071 0 0.149 0.071 0.092 0.255-0.227 0.681-0.078 1.085 0.050 0.099 0.028 0.269 0.021 0.269-0.113 0-0.142 0.106-0.241 0.17-0.248 0.17 0.028 0.993 0.035 1.241 0.007 0.142-0.021 0.156 0.206 0.234 0.284 0.057 0.064 0.262 0.078 0.411 0.014 0.284-0.128 0.709-0.128 0.886 0 0.071 0.050 0.135 0 0.092-0.050-0.057-0.071-0.050-0.113-0.078-0.17-0.071-0.142-0.014-0.17 0.057-0.177 0.78-0.106 1.035-0.369 0.794-0.588-0.312-0.269-0.652-0.546-0.95-0.865-0.085-0.085-0.142-0.121-0.305-0.050-0.526 0.245-1.139 0.396-1.786 0.418l-0.008 0c-0.639-0.042-1.232-0.189-1.779-0.425l0.035 0.013z"></path>
<path fill="#bd6b00" d="M23.222 20.643l-0.113 0.028c-0.638 0.227-1.219 0.383-1.822 0.383-0.588 0-1.205-0.17-1.765-0.397-0.016-0.006-0.034-0.009-0.053-0.009s-0.037 0.003-0.054 0.009l0.001-0c-0.035 0.007-0.071 0.028-0.092 0.050-0.256 0.256-0.529 0.495-0.817 0.716l-0.020 0.014c-0.050 0.035-0.043 0.128 0.035 0.156 0.588 0.213 1.163 0.603 2.808 0.588 1.666-0.014 2.255-0.397 2.779-0.574 0.035-0.014 0.071-0.035 0.092-0.071 0.006-0.010 0.010-0.023 0.010-0.036 0-0.007-0.001-0.014-0.003-0.021l0 0c-0.010-0.023-0.024-0.042-0.042-0.056l-0-0c-0.305-0.248-0.624-0.447-0.837-0.737-0.021-0.035-0.064-0.043-0.106-0.035zM23.222 20.679c0.035 0 0.071 0 0.078 0.021 0.213 0.305 0.546 0.496 0.844 0.744l0.028 0.050c0.002 0.004 0.003 0.009 0.003 0.014s-0.001 0.010-0.003 0.014l0-0c-0.007 0.021-0.043 0.043-0.071 0.050-0.539 0.184-1.113 0.567-2.765 0.581-1.645 0.014-2.212-0.376-2.8-0.588-0.057-0.028-0.050-0.085-0.028-0.099 0.298-0.227 0.581-0.482 0.837-0.737 0.021-0.020 0.048-0.035 0.077-0.042l0.001-0h0.085c0.521 0.232 1.127 0.377 1.765 0.397l0.008 0c0.617 0 1.205-0.156 1.843-0.376 0.031-0.013 0.067-0.022 0.104-0.028l0.003-0z"></path>
<path fill="#fff" d="M19.188 9.945c0-0.099 0.142-0.106 0.128 0.028-0.021 0.163 0.319 0.588 0.347 0.851 0.021 0.177-0.106 0.326-0.227 0.425-0.075 0.054-0.169 0.086-0.27 0.086-0.077 0-0.15-0.019-0.214-0.052l0.003 0.001c-0.064-0.057-0.121-0.234-0.071-0.305 0.014-0.021 0.092 0.262 0.262 0.262 0.234 0 0.425-0.177 0.425-0.333 0.014-0.269-0.376-0.695-0.383-0.964zM19.861 10.611c0.043-0.028 0.099 0.092 0.057 0.121-0.035 0.021-0.106-0.092-0.057-0.128zM19.968 10.363c-0.021 0.014-0.057 0-0.050-0.014 0.069-0.095 0.154-0.173 0.251-0.232l0.004-0.002c0.028-0.014 0.071 0.028 0.057 0.050-0.072 0.083-0.159 0.15-0.258 0.197l-0.005 0.002zM20.861 9.654c0.021-0.043 0.149-0.092 0.184-0.121 0.028-0.035 0.043 0.028 0.028 0.050-0.021 0.050-0.135 0.121-0.184 0.128-0.021 0-0.043-0.028-0.028-0.050zM21.166 9.675c0.039-0.097 0.1-0.178 0.176-0.24l0.001-0.001c0.035-0.021 0.092 0 0.078 0.028-0.050 0.095-0.119 0.174-0.203 0.233l-0.002 0.001c-0.021 0.021-0.057 0-0.050-0.021zM20.903 9.867c-0.021 0.014-0.007 0.050 0.007 0.057 0.043 0.014 0.106 0.014 0.142 0 0.043-0.028 0.021-0.206-0.035-0.113-0.043 0.057-0.071 0.043-0.113 0.057zM20.386 10.264c-0.092-0.071 0.028-0.17 0.121-0.099 0.191 0.142-0.284 0.695-0.539 0.95-0.050 0.050-0.092-0.071-0.028-0.135 0.183-0.154 0.341-0.332 0.469-0.53l0.006-0.009c0.028-0.035 0.050-0.113-0.028-0.177zM21.471 9.796c0.007-0.071-0.113 0-0.113-0.092 0-0.050 0.135-0.085 0.191-0.028 0.092 0.099 0.021 0.262-0.142 0.277-0.128 0-0.355 0.191-0.319 0.227 0.035 0.050 0.383 0.078 0.588 0.050 0.128-0.021 0.099 0.092-0.028 0.106s-0.227 0-0.34 0.043c-0.142 0.035-0.198 0.213-0.276 0.284-0.014 0.014-0.057-0.057-0.043-0.085 0.057-0.085 0.142-0.213 0.241-0.255 0.057-0.021-0.17-0.028-0.241-0.050-0.057-0.014-0.043-0.092-0.021-0.135 0.028-0.057 0.241-0.277 0.333-0.269 0.078 0 0.163-0.021 0.17-0.071zM21.825 9.81c0.043-0.035 0.071-0.092 0.106-0.128 0.021-0.021 0.064 0 0.057 0.057-0.007 0.050-0.071 0.085-0.106 0.121-0.035 0.021-0.071-0.028-0.050-0.050zM22.286 9.647c0.064 0 0.071 0.113 0.014 0.128-0.043 0.014-0.071-0.121-0.014-0.128zM22.137 10.002c0 0.106 0.050 0.099 0.142 0.092 0.092 0 0.17 0 0.17-0.085 0-0.092-0.050-0.177-0.071-0.113-0.007 0.057-0.021 0.156-0.057 0.113-0.028-0.035-0.014-0.043-0.071 0.014-0.035 0.035-0.035-0.014-0.057-0.043-0.014-0.021-0.057 0.014-0.057 0.028zM21.485 10.512c-0.021 0.135 0 0.319 0.064 0.319 0.085 0 0.255-0.284 0.34-0.44 0.050-0.085 0.128-0.099 0.092-0.007-0.050 0.135-0.043 0.425 0 0.51 0.028 0.043 0.213-0.043 0.241-0.106 0.057-0.121 0.007-0.34 0.028-0.475 0.007-0.085 0.092-0.106 0.085-0.021-0.007 0.101-0.011 0.219-0.011 0.337 0 0.068 0.001 0.136 0.004 0.204l-0-0.010c0 0.071 0.206 0.17 0.234-0.043 0.014-0.128 0.085-0.262 0-0.404-0.057-0.092 0.078-0.085 0.149 0.043 0.050 0.085-0.043 0.227-0.035 0.333 0 0.17-0.128 0.269-0.22 0.269-0.085 0-0.142-0.106-0.213-0.106s-0.156 0.121-0.213 0.113c-0.255-0.014-0.121-0.376-0.198-0.383-0.085 0-0.177 0.354-0.284 0.347-0.099-0.014-0.213-0.298-0.163-0.411 0.035-0.113 0.106-0.142 0.099-0.071zM22.683 9.945c-0.121-0.071 0-0.262 0.064-0.198 0.113 0.142 0.227 0.461 0.312 0.489 0.050 0.014 0.043-0.241 0.078-0.354 0.028-0.092 0.128-0.064 0.113 0.050-0.007 0.035-0.142 0.454-0.128 0.468 0.085 0.156 0.165 0.339 0.227 0.529l0.007 0.024c0.021 0.085-0.078 0.028-0.092 0.014-0.064-0.099-0.17-0.461-0.17-0.44l-0.121 0.546c-0.014 0.071-0.121 0.057-0.092-0.071 0.021-0.099 0.163-0.588 0.156-0.61-0.084-0.179-0.204-0.328-0.352-0.445l-0.003-0.002z"></path>
<path fill="#fff" d="M22.896 11.122c-0.028 0-0.085 0.071 0.085 0.106 0.22 0.043 0.468-0.035 0.539-0.255 0.092-0.262 0.142-0.51 0.191-0.603 0.057-0.106 0.128-0.099 0.071-0.255-0.035-0.121-0.106-0.085-0.121-0.021-0.035 0.163-0.184 0.709-0.234 0.801-0.085 0.184-0.262 0.255-0.532 0.227z"></path>
<path fill="#fff" d="M23.349 10.257c-0.028-0.050-0.085 0-0.071 0.050 0.007 0.040 0.042 0.071 0.084 0.071 0 0 0.001 0 0.001 0h-0c0.050 0 0.156 0.007 0.156-0.071 0-0.057-0.050-0.106-0.078-0.043-0.035 0.057-0.071 0.050-0.092 0zM23.399 10.044c-0.014 0.014 0 0.078 0.021 0.071 0.001 0 0.002 0 0.004 0 0.084 0 0.164-0.021 0.233-0.058l-0.003 0.001c0.014-0.014 0.007-0.050-0.014-0.050-0.071 0-0.184 0-0.241 0.035zM24.023 10.207c0.057-0.085 0.198-0.092 0.142 0.028-0.26 0.536-0.409 0.822-0.561 1.106l0.114-0.234c-0.057 0.099-0.099 0.050-0.057-0.028 0.050-0.099 0.347-0.851 0.362-0.872z"></path>
<path fill="#fff" d="M23.477 11.249c-0.014-0.057-0.106-0.142-0.092 0.014 0.014 0.269 0.39 0.184 0.496 0.092s0.021 0.305 0.156 0.347c0.071 0.021 0.213-0.078 0.284-0.17 0.191-0.248 0.319-0.61 0.496-0.851 0.071-0.099-0.035-0.17-0.071-0.092-0.17 0.269-0.369 0.822-0.588 0.964-0.177 0.113-0.121-0.142-0.128-0.227-0.007-0.057-0.078-0.142-0.17-0.064-0.066 0.053-0.151 0.086-0.244 0.086-0.007 0-0.013-0-0.020-0l0.001 0c-0.050 0-0.099 0-0.121-0.099z"></path>
<path fill="#fff" d="M24.143 10.753c0-0.021-0.078-0.028-0.071 0.050 0 0.057 0.071 0.071 0.078 0.071 0.106-0.085-0.021-0.043-0.007-0.128zM23.98 11.065c-0.021 0-0.043 0.071 0.014 0.078l0.276-0.014c0.028 0 0.043-0.064-0.028-0.057-0.085 0-0.191-0.021-0.262 0zM19.585 9.888c0.035 0 0.113 0.099 0.106 0.135 0 0.014-0.085 0-0.106-0.021s-0.014-0.113 0-0.113zM19.209 10.625c-0.071 0.043 0.014 0.121 0.071 0.085 0.198-0.135 0.496-0.269 0.567-0.532 0.021-0.085 0.099-0.22 0.177-0.248 0.071-0.035 0.184 0.135 0.255 0 0.043-0.071 0.191 0.050 0.227-0.028 0.043-0.092 0.021-0.142 0.021-0.241 0-0.057-0.050-0.071-0.085 0.021-0.014 0.043 0 0.085-0.007 0.113-0.014 0.014-0.043 0.028-0.071 0.014-0.014-0.014 0-0.050-0.043-0.071-0.014 0-0.043-0.007-0.057 0.014-0.050 0.092-0.071 0.177-0.149 0.071-0.064-0.071-0.099-0.22-0.142-0.021-0.014 0.071-0.121 0.17-0.184 0.17-0.078 0-0.057-0.213-0.227-0.177-0.092 0.021-0.085 0.191-0.071 0.248 0.021 0.092 0.284 0.028 0.262 0.085-0.043 0.191-0.312 0.383-0.546 0.496zM17.6 11.561c-0.007 0.035 0.035 0.121 0.078 0.128 0.043 0 0.071-0.092 0.057-0.128-0.014-0.021-0.128-0.021-0.135 0zM17.834 11.909c-0.028-0.028-0.113 0.050-0.043 0.106 0.035 0.035 0.177 0.078 0.213 0.014 0.057-0.085-0.050-0.39 0-0.425 0.035-0.035 0.198 0.198 0.284 0.213 0.191 0.028 0.142-0.326 0.355-0.298 0.135 0.014 0.149-0.156 0.128-0.269-0.014-0.106-0.184-0.255-0.262-0.326-0.099-0.085-0.149 0.071-0.085 0.113 0.085 0.071 0.234 0.206 0.255 0.291 0.007 0.043-0.099 0.128-0.142 0.106-0.099-0.057-0.184-0.284-0.269-0.333-0.028-0.014-0.099 0.021-0.071 0.092 0.043 0.078 0.213 0.191 0.22 0.277 0.007 0.071-0.071 0.227-0.128 0.227-0.064 0-0.213-0.191-0.262-0.284-0.028-0.035-0.106-0.035-0.121 0.028-0.001 0.016-0.001 0.036-0.001 0.055 0 0.119 0.013 0.234 0.038 0.345l-0.002-0.010c0.014 0.113-0.064 0.121-0.106 0.078zM17.55 11.299c-0.028 0.028 0.057 0.085 0.071 0.071 0.028-0.028 0.149-0.163 0.128-0.213-0.021-0.043-0.184-0.142-0.213-0.092-0.050 0.078 0.156 0.121 0.121 0.142-0.041 0.026-0.076 0.057-0.106 0.092l-0 0.001zM17.841 10.703s0.057 0.177 0.099 0.099c0.028-0.050-0.099-0.099-0.099-0.099zM17.926 10.987c-0.014 0-0.071 0.050-0.035 0.071 0.057 0.028 0.206 0.057 0.17-0.050-0.021-0.064 0.227 0 0.163-0.17-0.026-0.053-0.068-0.094-0.119-0.12l-0.002-0.001c-0.028 0-0.106 0.035-0.057 0.064 0.035 0.014 0.142 0.078 0.106 0.121-0.050 0.043-0.078-0.021-0.135-0.007-0.028 0-0.007 0.085-0.028 0.106 0 0.014-0.050-0.028-0.064-0.021zM18.316 10.313c-0.043 0.035-0.073 0.084-0.085 0.14l-0 0.002c0 0.014 0.021 0.043 0.035 0.035 0.043-0.033 0.073-0.079 0.085-0.133l0-0.002c0-0.021-0.014-0.057-0.035-0.043zM18.514 10.292c-0.057-0.071 0.071-0.184 0.121-0.035 0.035 0.092 0.39 0.56 0.461 0.716 0.057 0.106 0 0.149-0.064 0.071-0.177-0.227-0.326-0.51-0.518-0.752zM18.883 10.299c0.064-0.071 0.191-0.213 0.156-0.284-0.028-0.071-0.106-0.071-0.121-0.050-0.071 0.092 0.057 0.071 0.035 0.099-0.035 0.071-0.071 0.113-0.092 0.184-0.007 0.021 0.007 0.064 0.021 0.050zM24.399 10.526c-0.050-0.035 0.043-0.213 0.106-0.142 0.163 0.191 0.241 0.822 0.291 1.297 0 0-0.071 0.064-0.071 0.050 0-0.248-0.106-1.021-0.326-1.205zM20.634 9.916c-0.057-0.128 0.078-0.17 0.099-0.085 0.092 0.411 0.319 0.723 0.496 1 0.050 0.085 0 0.142-0.121 0.057-0.085-0.057-0.177-0.277-0.213-0.284-0.085-0.014-0.269 0.354-0.645 0.248-0.099-0.028-0.092-0.319-0.099-0.447 0-0.064 0.071-0.071 0.071 0 0 0.121 0 0.369 0.149 0.383 0.128 0 0.397-0.17 0.454-0.312s-0.135-0.418-0.191-0.567z"></path>
<path fill="#fff" d="M24.498 11.632c0.028-0.085 0.432-0.766 0.489-0.915 0.028-0.071 0.142 0.128 0.028 0.234-0.099 0.085-0.39 0.567-0.447 0.737-0.028 0.071-0.099 0.035-0.071-0.057z"></path>
<path fill="#fff" d="M25.186 10.987c0.071-0.284 0.255 0.043 0.092 0.198-0.241 0.241-0.319 0.702-0.709 0.773-0.099 0.021-0.284-0.050-0.34-0.092-0.021-0.014 0.014-0.113 0.078-0.064 0.092 0.071 0.291 0.092 0.397 0.007 0.225-0.22 0.393-0.498 0.479-0.81l0.003-0.013zM21.144 11.887c-0.021 0.021-0.071 0.021-0.078 0.050-0.021 0.099 0 0.156-0.021 0.255s-0.092 0.099-0.085 0.021c0-0.099 0.092-0.248 0.028-0.255-0.043-0.007-0.071-0.064-0.028-0.092 0.078-0.050 0.121-0.043 0.17-0.028 0.021 0.007 0.028 0.035 0.014 0.050z"></path>
<path fill="#fff" d="M21.088 11.746c-0.099 0.099-0.198 0.135-0.291 0.248-0.043 0.043-0.035 0.106-0.064 0.17-0.021 0.064-0.099 0.071-0.121 0.064-0.035-0.028-0.028-0.142-0.071-0.085-0.043 0.064-0.064 0.142-0.121 0.142-0.050 0-0.142-0.106-0.092-0.106 0.163-0.021 0.156-0.142 0.213-0.156 0.071-0.007 0.071 0.106 0.121 0.085 0.028-0.014 0.050-0.149 0.085-0.184 0.106-0.113 0.191-0.17 0.305-0.255 0.050-0.043 0.092 0.035 0.035 0.085zM21.463 12.1c-0.085 0.014-0.071 0.121-0.043 0.128 0.035 0.021 0.099 0.028 0.121-0.092 0.014-0.050 0.021 0.248 0.128 0.135 0.071-0.071 0.22 0.014 0.284-0.071 0.050-0.064 0.071-0.106 0.028-0.191-0.014-0.021-0.071-0.014-0.071 0.050 0 0.057-0.035 0.121-0.092 0.113-0.028-0.007 0.014-0.135-0.014-0.17-0.006-0.006-0.015-0.010-0.025-0.010s-0.018 0.004-0.025 0.010v0c-0.021 0.028 0.021 0.156-0.043 0.17-0.085 0.014-0.043-0.085-0.071-0.099-0.121-0.057-0.128 0.014-0.177 0.021zM22.102 11.887c0.064-0.014 0.043-0.014 0.142-0.092 0.035-0.028 0.043 0.057 0.035 0.092 0 0.050-0.071 0.014-0.092 0.064-0.028 0.064-0.014 0.213-0.028 0.269 0 0.028-0.057 0.028-0.057 0-0.014-0.071 0.007-0.142 0-0.234 0-0.028-0.035-0.078 0-0.092zM21.747 11.71c-0.014 0.064-0.014 0.113-0.014 0.163 0 0.035 0.071 0.014 0.071 0.007 0-0.057 0.014-0.142 0-0.163-0.014-0.007-0.050-0.021-0.057-0.007z"></path>
<path fill="#fff" d="M21.3 11.051l-0.099 0.397-0.142-0.269v0.277l-0.312-0.369 0.106 0.397-0.284-0.241 0.156 0.269-0.496-0.319 0.312 0.369-0.397-0.198 0.284 0.241-0.638-0.241 0.617 0.305c0.25-0.117 0.543-0.185 0.852-0.185 0.015 0 0.029 0 0.044 0l-0.002-0c0.347 0 0.659 0.071 0.886 0.184l0.624-0.305-0.638 0.241 0.284-0.241-0.39 0.198 0.305-0.369-0.496 0.319 0.156-0.269-0.284 0.234 0.106-0.39-0.305 0.369v-0.277l-0.142 0.269-0.106-0.397z"></path>
<path fill="#fff" d="M20.753 19.667l-0.020 0.173h-0.027l-0.007-0.12c-0.009-0.041-0.020-0.077-0.035-0.111l0.002 0.004c-0.009-0.033-0.021-0.062-0.035-0.089l0.001 0.003-0.067-0.093 0.053-0.147c0.043 0.044 0.077 0.098 0.099 0.157l0.001 0.003c0.021 0.060 0.033 0.13 0.033 0.202 0 0.004-0 0.008-0 0.012v-0.001zM21.22 19.38c0 0.047-0.013 0.080-0.033 0.1-0.013 0.020-0.040 0.040-0.087 0.047l0.027 0.1c0.003 0.020 0.005 0.043 0.005 0.067s-0.002 0.047-0.005 0.069l0-0.003c-0.002 0.034-0.004 0.064-0.007 0.093l0.001-0.007h-0.027c0-0 0-0.001 0-0.002 0-0.030-0.002-0.060-0.007-0.088l0 0.003c-0.003-0.025-0.007-0.047-0.014-0.069l0.001 0.003-0.027-0.067c-0.015-0.037-0.031-0.067-0.048-0.096l0.002 0.003-0.067-0.113 0.040-0.133 0.067 0.067c0.020 0.013 0.040 0.020 0.067 0.020 0.053 0 0.080-0.027 0.080-0.087h0.027v0.093zM21.64 19.7l-0.033 0.14c-0.027 0-0.040-0.020-0.053-0.047l-0.027-0.087c-0.004-0.032-0.007-0.068-0.007-0.105 0-0.003 0-0.006 0-0.009v0c-0.020 0.007-0.042 0.012-0.066 0.013l-0.001 0c-0.002 0-0.004 0-0.006 0-0.030 0-0.058-0.010-0.081-0.027l0 0c-0.020-0.016-0.033-0.040-0.033-0.067v-0c0-0.060 0.020-0.113 0.047-0.153 0.033-0.047 0.067-0.067 0.1-0.073 0.033 0 0.053 0.007 0.067 0.027 0.011 0.017 0.018 0.038 0.020 0.059l0 0v0.133c0 0.060 0.007 0.1 0.020 0.127 0 0.020 0.020 0.040 0.053 0.067zM21.507 19.467c0-0.040-0.020-0.053-0.053-0.053-0.003-0-0.006-0.001-0.010-0.001-0.011 0-0.022 0.003-0.031 0.008l0-0c-0.013 0.007-0.013 0.013-0.013 0.020 0 0.020 0.020 0.033 0.067 0.033l0.040-0.007zM22.087 19.667l-0.020 0.173c-0.033-0.027-0.067-0.067-0.093-0.133-0.033-0.076-0.063-0.168-0.084-0.262l-0.002-0.011c-0.040 0.15-0.081 0.272-0.128 0.39l0.008-0.024c-0.015 0.019-0.032 0.034-0.052 0.046l-0.001 0v-0.167c0.040-0.047 0.060-0.073 0.067-0.1 0.021-0.033 0.039-0.070 0.052-0.11l0.001-0.004 0.033-0.18h0.027l0.060 0.18c0.013 0.040 0.033 0.080 0.060 0.107l0.067 0.093z"></path>
<path fill="#bf0000" d="M23.387 21.293c0.027 0.027 0.040 0.053 0.047 0.080l0.027 0.107-0.053 0.007c-0.020-0.038-0.042-0.071-0.067-0.101l0.001 0.001c-0.024-0.029-0.048-0.055-0.073-0.080v0c-0.034-0.032-0.071-0.064-0.109-0.096l-0.005-0.004c-0.040-0.037-0.084-0.074-0.129-0.11l-0.005-0.004c-0.027-0.013-0.040-0.027-0.040-0.033-0.010-0.015-0.017-0.033-0.020-0.053l-0-0.001c-0.006-0.031-0.011-0.067-0.013-0.105l-0-0.002 0.18 0.147c0.061 0.050 0.115 0.098 0.168 0.148l-0.001-0.001 0.093 0.1zM22.753 20.907l-0.013 0.133h-0.207l0.020-0.133h0.2zM23.313 21.5l-0.507 0.153-0.087-0.133 0.433-0.133-0.047-0.053c-0.017-0.017-0.037-0.030-0.059-0.040l-0.001-0c0 0 0 0.001 0 0.001 0 0.025-0.010 0.049-0.027 0.065v0c-0.017 0.019-0.040 0.033-0.066 0.040l-0.001 0c-0.018 0.005-0.039 0.008-0.060 0.008s-0.042-0.003-0.062-0.008l0.002 0c-0.035-0.004-0.065-0.021-0.087-0.046l-0-0c-0.028-0.041-0.046-0.092-0.047-0.146v-0c0-0.067 0.020-0.107 0.060-0.12 0.047-0.013 0.12 0 0.2 0.047 0.080 0.038 0.147 0.092 0.199 0.159l0.001 0.001 0.153 0.207zM22.927 21.233c-0.015-0.008-0.033-0.015-0.052-0.020l-0.002-0c-0.006-0.002-0.013-0.003-0.020-0.003s-0.014 0.001-0.021 0.003l0.001-0c-0.014 0.002-0.026 0.009-0.033 0.020l-0 0c-0.004 0.006-0.007 0.012-0.007 0.020s0.003 0.015 0.007 0.020l-0-0 0.033 0.013h0.040l0.027-0.020 0.027-0.033zM22.393 21.127l-0.033 0.133-0.213-0.020 0.033-0.133 0.207 0.020zM22.887 21.64l-0.113 0.027c-0.017 0.003-0.037 0.005-0.057 0.005s-0.040-0.002-0.059-0.005l0.002 0c-0.037-0.002-0.071-0.011-0.101-0.027l0.001 0.001c-0.020 0.033-0.053 0.067-0.1 0.080-0.031 0.016-0.066 0.030-0.103 0.039l-0.003 0.001-0.080 0.020-0.067-0.133 0.073-0.020c0.034-0.008 0.063-0.017 0.091-0.028l-0.004 0.001 0.060-0.033-0.067-0.033h-0.047c-0.002-0.001-0.004-0.001-0.007-0.001s-0.005 0-0.007 0.001l0-0c-0.006 0.005-0.011 0.012-0.013 0.020l-0 0h-0.033c-0.033-0.053-0.040-0.1-0.020-0.133s0.060-0.053 0.133-0.067c0.036-0.010 0.078-0.016 0.121-0.016 0.018 0 0.037 0.001 0.055 0.003l-0.002-0c0.053 0.007 0.087 0.027 0.1 0.060 0.013 0.013 0.013 0.033 0.013 0.047l-0.027 0.080h0.033c0.006 0.001 0.013 0.002 0.020 0.002s0.014-0.001 0.021-0.002l-0.001 0 0.113-0.020 0.067 0.133zM22.347 21.76l-0.107 0.020c-0.012 0.003-0.026 0.004-0.040 0.004-0.040 0-0.076-0.011-0.107-0.031l0.001 0c-0.053-0.045-0.092-0.104-0.113-0.171l-0.001-0.003-0.053-0.147c-0.010-0.028-0.029-0.051-0.053-0.066l-0.001-0c-0.017-0.012-0.037-0.024-0.058-0.033l-0.002-0.001 0.040-0.14c0.040 0.020 0.067 0.040 0.093 0.067l0.067 0.113 0.033 0.1 0.073 0.147c0.020 0.020 0.047 0.027 0.067 0.020l0.113-0.013 0.047 0.133zM21.88 21.26l-0.067 0.127-0.2-0.047 0.067-0.127 0.2 0.047zM22 21.82l-0.5 0.047-0.027-0.133 0.413-0.047c-0.010-0.021-0.023-0.039-0.040-0.053l-0-0c-0.019-0.014-0.041-0.027-0.064-0.039l-0.003-0.001 0.033-0.133c0.047 0.027 0.080 0.060 0.107 0.087 0.020 0.033 0.040 0.080 0.053 0.14l0.027 0.133zM21.6 21.887c-0.053-0.001-0.104-0.006-0.153-0.014l0.006 0.001c-0.044-0.009-0.082-0.021-0.118-0.035l0.005 0.002c-0.025 0.012-0.054 0.021-0.084 0.026l-0.002 0c-0.017 0.002-0.037 0.002-0.057 0.002s-0.040-0.001-0.059-0.003l0.003 0h-0.133c-0 0-0.001 0-0.001 0-0.029 0-0.056-0.007-0.080-0.020l0.001 0c-0.020-0.013-0.033-0.033-0.053-0.067-0.027 0.029-0.061 0.051-0.098 0.066l-0.002 0.001-0.113 0.007h-0.113l0.013-0.14h0.113c0.053 0 0.1 0 0.14-0.027 0.050-0.019 0.085-0.065 0.087-0.12v-0l0.047 0.007c-0.002 0.021-0.005 0.051-0.006 0.081l-0 0.005c0 0.020 0 0.033 0.020 0.047s0.040 0.020 0.067 0.020h0.1c0.067 0 0.107 0 0.133-0.013 0.040-0.013 0.060-0.033 0.067-0.073l0.007-0.027s0.020 0 0.033-0.013l0.033-0.013v0.027c0 0.003 0 0.006 0 0.010s-0 0.007-0 0.011v-0.001l-0.020 0.073c0.037 0.013 0.082 0.025 0.128 0.033l0.005 0.001c0.007-0.013 0-0.027-0.007-0.047l-0.020-0.040c0-0.008 0.003-0.015 0.007-0.020l-0 0 0.020-0.013 0.067-0.060 0.033 0.067v0.067l-0.013 0.193zM20.847 21.307l-0.133 0.087-0.087-0.060-0.093 0.067-0.127-0.067 0.12-0.087 0.1 0.053 0.1-0.067 0.12 0.067zM20.647 21.847l-0.487-0.080 0.053-0.133 0.413 0.067c0-0.027 0-0.047-0.013-0.067-0.010-0.020-0.021-0.038-0.034-0.054l0.001 0.001 0.107-0.113c0.027 0.040 0.040 0.067 0.047 0.107 0 0.033-0.013 0.080-0.033 0.14l-0.053 0.133zM20.24 21.78l-0.107-0.020c-0.060-0.013-0.093-0.040-0.1-0.080-0.013-0.040 0.007-0.1 0.053-0.187l0.080-0.133c0.020-0.033 0.027-0.060 0.020-0.080-0.004-0.018-0.011-0.033-0.020-0.047l0 0.001 0.147-0.107c0.020 0.033 0.020 0.067 0.020 0.093 0 0.033-0.020 0.073-0.047 0.12l-0.053 0.093c-0.029 0.042-0.050 0.091-0.060 0.144l-0 0.002c0 0.027 0.013 0.040 0.033 0.047l0.107 0.027-0.073 0.133zM19.987 21.253l-0.167 0.073-0.12-0.113 0.173-0.067 0.113 0.113zM19.92 21.7c-0.030 0.036-0.066 0.067-0.105 0.092l-0.002 0.001c-0.032 0.020-0.071 0.035-0.112 0.040l-0.001 0-0.16-0.007c-0.070-0.011-0.133-0.027-0.194-0.049l0.007 0.002c-0.089-0.025-0.166-0.072-0.227-0.133l-0-0c-0.040-0.053-0.040-0.1 0-0.147 0.037-0.043 0.081-0.079 0.131-0.105l0.002-0.001c0.053-0.033 0.133-0.067 0.253-0.107l0.027 0.033-0.187 0.080c-0.033 0.020-0.067 0.040-0.087 0.067-0.027 0.027-0.020 0.067 0.013 0.107 0.115 0.090 0.261 0.145 0.42 0.147h0c0.080 0 0.133-0.020 0.153-0.047 0.020-0.020 0.027-0.040 0.033-0.067l0.013-0.107 0.167-0.1c0 0.004 0 0.010 0 0.015 0 0.030-0.003 0.060-0.007 0.088l0-0.003c-0.015 0.042-0.038 0.077-0.067 0.107l0-0-0.080 0.093z"></path>
</svg>
