<!-- Generated by IcoMoon.io -->
<svg version="1.1" xmlns="http://www.w3.org/2000/svg" width="43" height="32" viewBox="0 0 43 32">
<title>ag</title>
<path fill="#fff" d="M-2.52 0h47.706v31.969h-47.706z"></path>
<path fill="#000" d="M-2.414 0.037h47.556v13.506h-47.563z"></path>
<path fill="#0061ff" d="M6.311 12.7h31.563v7.113h-31.563z"></path>
<path fill="#e20000" d="M45.155 0.113v31.887h-23.8l23.8-31.894zM-2.439 0.113v31.887h23.794l-23.794-31.894z"></path>
<path fill="#ffd600" d="M32.505 12.706l-4.775-1.206 4.056-3.063-4.981 0.713 2.563-4.344-4.419 2.563 0.8-5.056-2.994 3.987-1.206-4.625-1.356 4.769-2.988-4.063 0.856 5.2-4.425-2.706 2.563 4.344-4.838-0.781 3.987 2.988-4.994 1.281h22.144z"></path>
</svg>
