<!-- Generated by IcoMoon.io -->
<svg version="1.1" xmlns="http://www.w3.org/2000/svg" width="43" height="32" viewBox="0 0 43 32">
<title>ai</title>
<path fill="#012169" d="M0 0h42.667v32h-42.667z"></path>
<path fill="#cc3" d="M27.787 12.533c0 3.507-0.4 7.447 2.2 10.187 0.533 0.56 1.56 1.847 2.433 1.8 0.913-0.053 2.093-1.407 2.613-2.067 2.267-2.987 1.913-6.547 1.987-10.013-1.020 0.46-1.533 0.613-2.427 0.6-0.667 0.067-1.687-0.367-2.3-0.667-0.4 0.267-0.98 0.593-2.027 0.627-1.2 0.053-1.587-0.153-2.48-0.467z"></path>
<path fill="#fff" d="M28.060 12.92c-0.067 1.84-0.013 3.907 0.267 5.867 0.327 1.033 0.28 1.6 0.753 2.213l6.6-0.053c0.4-0.647 0.7-1.627 0.733-2.020 0.373-1.98 0.38-4.173 0.393-6.133-0.575 0.322-1.261 0.512-1.992 0.512-0.137 0-0.272-0.007-0.405-0.020l0.017 0.001c-0.755-0.047-1.449-0.268-2.055-0.625l0.022 0.012c-0.633 0.373-0.853 0.547-1.893 0.593-0.813 0.040-1.467 0.107-2.44-0.347z"></path>
<path fill="#a4a43d" d="M36.613 12.573v0zM28.493 12.707l0.133 0.133z"></path>
<path fill="#1b1b74" d="M29.033 12.707v0zM30.793 12.707l0.133 0.133z"></path>
<path fill="#a4a43d" d="M33.86 12.88l0.093 0.047-0.087-0.047z"></path>
<path fill="#fef8f1" d="M31.2 13.24l0.267 0.267v-0.267h-0.267z"></path>
<path fill="#e5e59d" d="M34.68 13.287l0.087 0.047-0.093-0.047z"></path>
<path fill="#fae3c9" d="M30.793 13.787v0zM31.34 13.787l0.133 0.133z"></path>
<path fill="#fea522" d="M31.467 14.060v0zM33.233 14.060l0.133 0.133z"></path>
<path fill="#fbc477" d="M32.693 14.6l0.133 0.133zM33.227 14.6v0z"></path>
<path fill="#fcb144" d="M31.88 15.133v0zM34.047 15.133l0.133 0.133z"></path>
<path fill="#faca88" d="M30.26 15.68l-0.14 0.4 0.133-0.4z"></path>
<path fill="#fae3c9" d="M33.86 15.86l0.093 0.047-0.087-0.047z"></path>
<path fill="#fbead6" d="M28.9 16.087l0.133 0.133zM30.12 16.087l0.133 0.133z"></path>
<path fill="#f9d099" d="M31.333 16.493v0zM33.233 16.493l0.133 0.133z"></path>
<path fill="#fdab33" d="M31.2 16.767v0zM33.5 16.767l0.133 0.133z"></path>
<path fill="#faca88" d="M29.033 17.040l0.133 0.133zM30.66 17.040l0.133 0.133z"></path>
<path fill="#fae3c9" d="M31.2 17.040v0zM33.5 17.040l0.133 0.133z"></path>
<path fill="#d9d868" d="M27.993 17.26l0.053 0.093-0.047-0.093z"></path>
<path fill="#fea522" d="M29.173 17.44v0zM29.573 17.44v0z"></path>
<path fill="#faca88" d="M33.5 17.707v0zM34.18 17.707l0.133 0.133z"></path>
<path fill="#fbbe66" d="M34.313 17.98v0zM35.4 17.98l0.133 0.133z"></path>
<path fill="#a4a43d" d="M27.86 18.2l0.047 0.1-0.040-0.093z"></path>
<path fill="#f9d6aa" d="M30.12 18.253v0zM31.34 18.253l0.133 0.133z"></path>
<path fill="#fe9f11" d="M29.847 19.88v0zM30.527 19.88l0.133 0.133z"></path>
<path fill="#1b1b74" d="M36.213 20.687v0zM28.493 20.82l0.133 0.133z"></path>
<path fill="#6e6c70" d="M36.067 20.827v0zM28.633 20.96l0.133 0.133z"></path>
<path fill="#0cf" d="M29.093 20.96c0.467 0.987 2.133 3.32 3.4 3.28 1.24-0.047 2.633-2.333 3.173-3.28z"></path>
<path fill="#1b1b74" d="M36.067 20.96v0zM28.633 21.093l0.133 0.133z"></path>
<path fill="#0e0e6e" d="M35.933 21.233v0zM28.767 21.367l0.133 0.133z"></path>
<path fill="#0dc9c1" d="M34.453 22.447l-0.547 0.68 0.553-0.687z"></path>
<path fill="#32327b" d="M32.96 24.347v0zM31.88 24.48l0.133 0.133z"></path>
<path fill="#0e0e6e" d="M32.827 24.48v0zM32.013 24.613l0.133 0.133z"></path>
<path fill="#32327b" d="M32.553 24.613l0.133 0.133z"></path>
<path fill="#262678" d="M32.287 24.747l0.133 0.133z"></path>
<path fill="#0e0e6e" d="M32.42 24.747l0.133 0.133z"></path>
<path fill="#f90" d="M32.553 15.68c0.213 0.493 0.88 1.033 1.067 1.3-0.233 0.267-0.28 0.24-0.253 0.733 0.4-0.427 0.413-0.467 0.68-0.407 0.573 0.573 0.1 1.8-0.373 2.067-0.473 0.287-0.387-0.007-1.1 0.347 0.327 0.28 0.707-0.040 1.013 0.047 0.167 0.2-0.080 0.56 0.047 0.907 0.267-0.027 0.24-0.58 0.307-0.78 0.2-0.733 1.4-1.24 1.46-1.913 0.253-0.113 0.5-0.033 0.8 0.133-0.147-0.627-0.647-0.62-0.787-0.813-0.32-0.493-0.607-1.053-1.293-1.2-0.533-0.113-0.487 0.033-0.82-0.2-0.213-0.16-0.847-0.467-0.747-0.22z"></path>
<path fill="#fff" d="M34.060 16.24c0 0.061-0.049 0.11-0.11 0.11s-0.11-0.049-0.11-0.11v0c0-0.061 0.049-0.11 0.11-0.11s0.11 0.049 0.11 0.11v0z"></path>
<path fill="#f90" d="M30.88 17.767c0.333-0.413 0.507-1.267 0.653-1.547 0.347 0.080 0.333 0.133 0.767-0.12-0.567-0.16-0.613-0.147-0.68-0.407 0.24-0.78 1.547-0.933 2-0.64 0.48 0.287 0.18 0.347 0.827 0.8 0.093-0.413-0.367-0.6-0.433-0.907 0.1-0.247 0.533-0.2 0.773-0.467-0.147-0.233-0.62 0.053-0.827 0.093-0.733 0.167-1.753-0.653-2.373-0.4-0.22-0.167-0.267-0.427-0.267-0.78-0.473 0.433-0.233 0.867-0.347 1.087-0.28 0.513-0.647 1.033-0.453 1.707 0.147 0.52 0.253 0.413 0.213 0.82-0.047 0.26-0.027 0.967 0.147 0.76z"></path>
<path fill="#fff" d="M30.667 16.173c0.060-0.027 0.127-0.007 0.153 0.047 0.007 0.014 0.011 0.030 0.011 0.047 0 0.059-0.048 0.107-0.107 0.107s-0.107-0.048-0.107-0.107c0-0.040 0.022-0.075 0.055-0.093l0.001-0z"></path>
<path fill="#f90" d="M33.62 18.053c-0.533-0.067-1.34 0.22-1.667 0.247-0.1-0.34-0.053-0.367-0.493-0.6 0.153 0.573 0.187 0.6 0 0.8-0.787 0.193-1.6-0.847-1.587-1.387 0-0.553 0.213-0.333 0.267-1.133-0.4 0.133-0.32 0.633-0.553 0.853-0.267 0.040-0.44-0.353-0.8-0.42-0.12 0.247 0.367 0.5 0.507 0.66 0.527 0.547 0.347 1.833 0.887 2.233-0.027 0.28-0.227 0.453-0.533 0.627 0.62 0.193 0.867-0.247 1.113-0.267 0.587-0.013 1.22 0.027 1.7-0.487 0.36-0.4 0.22-0.433 0.587-0.6 0.247-0.093 0.84-0.48 0.573-0.533z"></path>
<path fill="#fff" d="M32.367 19.060c-0.032-0.020-0.053-0.054-0.053-0.093 0-0.060 0.049-0.109 0.109-0.109 0.021 0 0.041 0.006 0.057 0.016l-0-0c0.032 0.020 0.053 0.054 0.053 0.093 0 0.060-0.049 0.109-0.109 0.109-0.021 0-0.041-0.006-0.057-0.016l0 0z"></path>
<path fill="#012169" d="M0 0h21.333v16h-21.333z"></path>
<path fill="#fff" d="M2.5 0l8.133 6.033 8.1-6.033h2.6v2.067l-8 5.967 8 5.933v2.033h-2.667l-8-5.967-7.967 5.967h-2.7v-2l7.967-5.933-7.967-5.933v-2.133z"></path>
<path fill="#c8102e" d="M14.133 9.367l7.2 5.3v1.333l-9.033-6.633zM8 10.033l0.2 1.167-6.4 4.8h-1.8zM21.333 0v0.1l-8.3 6.267 0.067-1.467 6.567-4.9zM0 0l7.967 5.867h-2l-5.967-4.467z"></path>
<path fill="#fff" d="M8.033 0v16h5.333v-16zM0 5.333v5.333h21.333v-5.333z"></path>
<path fill="#c8102e" d="M0 6.433v3.2h21.333v-3.2zM9.1 0v16h3.2v-16z"></path>
</svg>
