<!-- Generated by IcoMoon.io -->
<svg version="1.1" xmlns="http://www.w3.org/2000/svg" width="43" height="32" viewBox="0 0 43 32">
<title>al</title>
<path fill="#e41e20" d="M0 0h42.667v32h-42.667z"></path>
<path fill="#000" d="M18.133 6.22c-0.307 0-0.82 0.1-0.813 0.333-0.867-0.14-0.953 0.213-0.9 0.533 0.080-0.127 0.18-0.2 0.26-0.207 0.113-0.020 0.233 0.020 0.36 0.093 0.123 0.078 0.228 0.168 0.319 0.272l0.001 0.002c-0.307 0.073-0.547 0.027-0.787-0.013-0.144-0.031-0.271-0.087-0.384-0.162l0.004 0.003c-0.1-0.067-0.133-0.133-0.287-0.287-0.18-0.187-0.373-0.133-0.313 0.153 0.14 0.267 0.373 0.387 0.667 0.44 0.14 0.020 0.353 0.067 0.593 0.067s0.507-0.033 0.653 0c-0.087 0.053-0.187 0.153-0.387 0.187-0.2 0.040-0.5-0.12-0.687-0.16 0.020 0.153 0.22 0.3 0.607 0.38 0.64 0.133 1.167 0.24 1.52 0.433 0.286 0.161 0.527 0.366 0.723 0.609l0.004 0.005c0.313 0.367 0.333 0.653 0.347 0.72 0.067 0.587-0.14 0.92-0.527 1.027-0.187 0.047-0.533-0.047-0.653-0.193-0.133-0.147-0.247-0.4-0.213-0.8 0.033-0.147 0.207-0.553 0.060-0.633-0.589-0.333-1.298-0.671-2.030-0.963l-0.123-0.043c-0.167-0.067-0.3 0.16-0.353 0.253-1.022-0.146-1.883-0.736-2.392-1.565l-0.008-0.015c-0.28-0.507-0.753 0-0.673 0.487 0.127 0.533 0.533 0.92 1.027 1.2 0.5 0.273 1.133 0.547 1.767 0.533 0.347 0.067 0.34 0.507-0.067 0.593-0.807 0-1.453-0.013-2.060-0.6-0.46-0.42-0.713 0.080-0.587 0.36 0.227 0.873 1.473 1.12 2.733 0.84 0.493-0.080 0.2 0.44 0.067 0.447-0.533 0.38-1.473 0.747-2.307 0-0.38-0.293-0.64-0.053-0.493 0.367 0.367 1.1 1.78 0.867 2.747 0.333 0.247-0.14 0.473 0.18 0.173 0.427-1.207 0.84-1.807 0.853-2.353 0.533-0.68-0.273-0.733 0.48-0.333 0.733 0.447 0.267 1.587 0.067 2.427-0.467 0.36-0.267 0.373 0.153 0.147 0.32-0.993 0.86-1.387 1.087-2.42 0.947-0.513-0.040-0.507 0.593-0.107 0.84 0.553 0.34 1.633-0.22 2.467-0.92 0.353-0.187 0.413 0.12 0.24 0.487-0.369 0.518-0.86 0.927-1.431 1.191l-0.022 0.009c-0.467 0.18-0.907 0.153-1.22 0.047-0.387-0.133-0.433 0.267-0.22 0.627 0.127 0.22 0.653 0.287 1.227 0.087s1.187-0.68 1.607-1.233c0.367-0.327 0.327 0.107 0.153 0.413-0.84 1.333-1.613 1.827-2.633 1.747-0.447-0.080-0.553 0.267-0.267 0.6 0.507 0.413 1.133 0.4 1.693-0.013 0.487-0.467 1.427-1.493 1.92-2.040 0.347-0.273 0.46 0 0.353 0.56-0.093 0.32-0.32 0.667-0.953 0.907-0.433 0.247-0.107 0.587 0.213 0.6 0.18 0 0.54-0.213 0.82-0.52 0.36-0.413 0.387-0.687 0.587-1.327 0.187-0.307 0.527-0.16 0.527 0.16-0.167 0.64-0.3 0.753-0.633 1.013-0.313 0.3 0.22 0.4 0.4 0.273 0.52-0.347 0.707-0.8 0.88-1.213 0.133-0.293 0.493-0.153 0.32 0.333-0.4 1.16-1.067 1.613-2.22 1.853-0.113 0.020-0.187 0.087-0.147 0.22l0.467 0.467c-0.713 0.213-1.293 0.333-2.013 0.533l-0.987-0.653c-0.087-0.213-0.133-0.547-0.653-0.313-0.347-0.16-0.513-0.1-0.707 0.067 0.28 0 0.4 0.080 0.513 0.207 0.147 0.38 0.48 0.42 0.82 0.313 0.22 0.18 0.333 0.327 0.56 0.513l-1.113-0.033c-0.4-0.42-0.707-0.4-0.987-0.067-0.22 0.033-0.307 0.033-0.453 0.293 0.227-0.093 0.373-0.12 0.473-0.020 0.42 0.247 0.693 0.193 0.9 0l1.167 0.073c-0.147 0.133-0.347 0.2-0.5 0.32-0.6-0.173-0.92 0.067-1.027 0.553-0.059 0.132-0.093 0.287-0.093 0.449 0 0.060 0.005 0.119 0.014 0.177l-0.001-0.006c0.053-0.2 0.153-0.367 0.327-0.467 0.533 0.133 0.733-0.087 0.767-0.407 0.267-0.213 0.653-0.26 0.913-0.473 0.307 0.093 0.453 0.153 0.76 0.253 0.107 0.333 0.353 0.46 0.753 0.373 0.467 0.013 0.387 0.213 0.427 0.367 0.133-0.22 0.127-0.44-0.167-0.64-0.107-0.287-0.347-0.42-0.653-0.253-0.293-0.080-0.367-0.2-0.66-0.287 0.733-0.233 1.253-0.287 1.987-0.52l0.513 0.453c0.1 0.060 0.193 0.073 0.253 0 0.46-0.667 0.667-1.247 1.087-1.687 0.167-0.187 0.373-0.427 0.6-0.487 0.113-0.033 0.253-0.013 0.347 0.087 0.087 0.093 0.16 0.273 0.133 0.547-0.047 0.38-0.14 0.507-0.247 0.733-0.113 0.233-0.24 0.373-0.38 0.553-0.267 0.353-0.627 0.56-0.84 0.7-0.427 0.273-0.6 0.153-0.933 0.133-0.427 0.047-0.533 0.253-0.187 0.54 0.32 0.173 0.613 0.193 0.853 0.147 0.2-0.040 0.44-0.3 0.613-0.44 0.187-0.22 0.507 0.040 0.287 0.3-0.393 0.467-0.78 0.773-1.267 0.767-0.513 0.067-0.413 0.353-0.080 0.493 0.613 0.247 1.16-0.22 1.44-0.533 0.213-0.233 0.367-0.24 0.333 0.127-0.22 0.66-0.507 0.913-0.987 0.947-0.387-0.040-0.393 0.267-0.107 0.467 0.64 0.44 1.107-0.32 1.327-0.773 0.153-0.413 0.393-0.22 0.42 0.12 0 0.46-0.2 0.827-0.753 1.293 0.42 0.673 0.913 1.36 1.333 2.033l1.28-14.267-1.28-2.247c-0.133-0.12-0.587-0.653-0.7-0.733-0.047-0.040-0.067-0.067-0.007-0.093s0.2-0.053 0.3-0.067c-0.267-0.273-0.507-0.36-1.020-0.507 0.127-0.053 0.247-0.027 0.62-0.040-0.228-0.304-0.533-0.538-0.886-0.675l-0.014-0.005c0.28-0.2 0.333-0.213 0.613-0.447-0.477-0.038-0.92-0.128-1.341-0.265l0.041 0.011c-0.233-0.113-0.503-0.194-0.789-0.226l-0.011-0.001zM18.187 6.78c0.253 0 0.407 0.087 0.407 0.193s-0.153 0.193-0.407 0.193-0.413-0.1-0.413-0.2c0-0.107 0.16-0.187 0.413-0.187z"></path>
<path fill="#000" d="M24.533 6.22c0.307 0 0.82 0.1 0.813 0.333 0.867-0.14 0.953 0.213 0.9 0.533-0.080-0.127-0.18-0.2-0.26-0.207-0.113-0.020-0.233 0.020-0.36 0.093-0.123 0.078-0.228 0.168-0.319 0.272l-0.001 0.002c0.307 0.073 0.547 0.027 0.787-0.013 0.144-0.031 0.271-0.087 0.384-0.162l-0.004 0.003c0.1-0.067 0.133-0.133 0.287-0.287 0.18-0.187 0.373-0.133 0.313 0.153-0.14 0.267-0.373 0.387-0.667 0.44-0.14 0.020-0.353 0.067-0.593 0.067s-0.507-0.033-0.653 0c0.087 0.053 0.187 0.153 0.387 0.187 0.2 0.040 0.5-0.12 0.687-0.16-0.020 0.153-0.22 0.3-0.607 0.38-0.64 0.133-1.167 0.24-1.52 0.433-0.286 0.161-0.527 0.366-0.723 0.609l-0.004 0.005c-0.313 0.367-0.333 0.653-0.347 0.72-0.067 0.587 0.14 0.92 0.527 1.027 0.187 0.047 0.533-0.047 0.653-0.193 0.133-0.147 0.247-0.4 0.213-0.8-0.033-0.147-0.207-0.553-0.060-0.633 0.589-0.333 1.298-0.671 2.030-0.963l0.123-0.043c0.167-0.067 0.3 0.16 0.353 0.253 1.022-0.146 1.883-0.736 2.392-1.565l0.008-0.015c0.28-0.507 0.753 0 0.673 0.487-0.127 0.533-0.533 0.92-1.027 1.2-0.5 0.273-1.133 0.547-1.767 0.533-0.347 0.067-0.34 0.507 0.067 0.593 0.807 0 1.453-0.013 2.060-0.6 0.46-0.42 0.713 0.080 0.587 0.36-0.227 0.873-1.473 1.12-2.733 0.84-0.493-0.080-0.2 0.44-0.067 0.447 0.533 0.38 1.473 0.747 2.307 0 0.38-0.293 0.64-0.053 0.493 0.367-0.367 1.1-1.78 0.867-2.747 0.333-0.247-0.14-0.473 0.18-0.173 0.427 1.207 0.84 1.807 0.853 2.353 0.533 0.68-0.273 0.733 0.48 0.333 0.733-0.447 0.267-1.587 0.067-2.427-0.467-0.36-0.267-0.373 0.153-0.147 0.32 0.993 0.86 1.387 1.087 2.42 0.947 0.513-0.040 0.507 0.593 0.107 0.84-0.553 0.34-1.633-0.22-2.467-0.92-0.353-0.187-0.413 0.12-0.24 0.487 0.369 0.518 0.86 0.927 1.431 1.191l0.022 0.009c0.467 0.18 0.907 0.153 1.22 0.047 0.387-0.133 0.433 0.267 0.22 0.627-0.127 0.22-0.653 0.287-1.227 0.087s-1.187-0.68-1.607-1.233c-0.367-0.327-0.327 0.107-0.153 0.413 0.84 1.333 1.613 1.827 2.633 1.747 0.447-0.080 0.553 0.267 0.267 0.6-0.507 0.413-1.133 0.4-1.693-0.013-0.487-0.467-1.427-1.493-1.92-2.040-0.347-0.273-0.46 0-0.353 0.56 0.093 0.32 0.32 0.667 0.953 0.907 0.433 0.247 0.107 0.587-0.213 0.6-0.18 0-0.54-0.213-0.82-0.52-0.36-0.413-0.387-0.687-0.587-1.327-0.187-0.307-0.527-0.16-0.527 0.16 0.167 0.64 0.3 0.753 0.633 1.013 0.313 0.3-0.22 0.4-0.4 0.273-0.52-0.347-0.707-0.8-0.88-1.213-0.133-0.293-0.493-0.153-0.32 0.333 0.4 1.16 1.067 1.613 2.22 1.853 0.113 0.020 0.187 0.087 0.147 0.22l-0.467 0.467c0.713 0.213 1.293 0.333 2.013 0.533l0.987-0.653c0.087-0.213 0.133-0.547 0.653-0.313 0.347-0.16 0.513-0.1 0.707 0.067-0.28 0-0.4 0.080-0.513 0.207-0.147 0.38-0.48 0.42-0.82 0.313-0.22 0.18-0.333 0.327-0.56 0.513l1.113-0.033c0.4-0.42 0.707-0.4 0.987-0.067 0.22 0.033 0.307 0.033 0.453 0.293-0.227-0.093-0.373-0.12-0.473-0.020-0.42 0.247-0.693 0.193-0.9 0l-1.167 0.073c0.147 0.133 0.347 0.2 0.5 0.32 0.6-0.173 0.92 0.067 1.027 0.553 0.059 0.132 0.093 0.287 0.093 0.449 0 0.060-0.005 0.119-0.014 0.177l0.001-0.006c-0.053-0.2-0.153-0.367-0.327-0.467-0.533 0.133-0.733-0.087-0.767-0.407-0.267-0.213-0.653-0.26-0.913-0.473-0.307 0.093-0.453 0.153-0.76 0.253-0.107 0.333-0.353 0.46-0.753 0.373-0.467 0.013-0.387 0.213-0.427 0.367-0.133-0.22-0.127-0.44 0.167-0.64 0.107-0.287 0.347-0.42 0.653-0.253 0.293-0.080 0.367-0.2 0.66-0.287-0.733-0.233-1.253-0.287-1.987-0.52l-0.513 0.453c-0.1 0.060-0.193 0.073-0.253 0-0.46-0.667-0.667-1.247-1.087-1.687-0.167-0.187-0.373-0.427-0.6-0.487-0.113-0.033-0.253-0.013-0.347 0.087-0.087 0.093-0.16 0.273-0.133 0.547 0.047 0.38 0.14 0.507 0.247 0.733 0.113 0.233 0.24 0.373 0.38 0.553 0.267 0.353 0.627 0.56 0.84 0.7 0.427 0.273 0.6 0.153 0.933 0.133 0.427 0.047 0.533 0.253 0.187 0.54-0.32 0.173-0.613 0.193-0.853 0.147-0.2-0.040-0.44-0.3-0.613-0.44-0.187-0.22-0.507 0.040-0.287 0.3 0.393 0.467 0.78 0.773 1.267 0.767 0.513 0.067 0.413 0.353 0.080 0.493-0.613 0.247-1.16-0.22-1.44-0.533-0.213-0.233-0.367-0.24-0.333 0.127 0.22 0.66 0.507 0.913 0.987 0.947 0.387-0.040 0.393 0.267 0.107 0.467-0.64 0.44-1.107-0.32-1.327-0.773-0.153-0.413-0.393-0.22-0.42 0.12 0 0.46 0.2 0.827 0.753 1.293-0.42 0.673-0.913 1.36-1.333 2.033l-1.28-14.267 1.28-2.247c0.133-0.12 0.587-0.653 0.7-0.733 0.047-0.040 0.067-0.067 0.007-0.093s-0.2-0.053-0.3-0.067c0.267-0.273 0.507-0.36 1.020-0.507-0.127-0.053-0.247-0.027-0.62-0.040 0.228-0.304 0.533-0.538 0.886-0.675l0.014-0.005c-0.28-0.2-0.333-0.213-0.613-0.447 0.477-0.038 0.92-0.128 1.341-0.265l-0.041 0.011c0.233-0.113 0.503-0.194 0.789-0.226l0.011-0.001zM24.48 6.78c-0.253 0-0.407 0.087-0.407 0.193s0.153 0.193 0.407 0.193 0.413-0.1 0.413-0.2c0-0.107-0.16-0.187-0.413-0.187z"></path>
</svg>
