<!-- Generated by IcoMoon.io -->
<svg version="1.1" xmlns="http://www.w3.org/2000/svg" width="43" height="32" viewBox="0 0 43 32">
<title>ao</title>
<path fill="#f00" d="M0 0h42.667v16.24h-42.667z"></path>
<path fill="#000" d="M0 15.76h42.667v16.24h-42.667z"></path>
<path fill="#ffec00" d="M15.247 9.88c11.013 2.887 3.933 17.040-4.753 11.147l-0.587 0.907c5.113 3.64 10.173 0.707 11.6-3.093 1.48-3.92-0.507-9.433-6.173-10l-0.087 1.040z"></path>
<path fill="#ffec00" d="M11.333 22.053l1.447 0.673-0.68 1.453-1.447-0.68zM21.267 15.42h1.6v1.6h-1.6zM20.487 12.827l1.487-0.573 0.58 1.487-1.487 0.58zM18.753 10.887l1.14-1.127 1.127 1.133-1.133 1.127zM17.007 8.233l1.493 0.56-0.567 1.493-1.493-0.56zM21.067 18l1.487 0.593-0.6 1.48-1.48-0.593zM16.407 22.667l1.467-0.62 0.633 1.467-1.467 0.627zM13.773 22.853h1.6v1.6h-1.6zM16.527 15.12l-1.353-1-1.353 0.973 0.533-1.533-1.353-1h1.633l0.567-1.507 0.52 1.513 1.647-0.020-1.307 1.020 0.467 1.56z"></path>
<path fill="#fe0" d="M22.4 23.093c-0.080 0.027-0.413 0.827-0.647 1.213l0.247 0.067c0.907 0.32 1.36 0.613 1.747 1.167 0.095 0.092 0.224 0.149 0.367 0.149 0.118 0 0.226-0.039 0.314-0.104l-0.001 0.001s0.187-0.067 0.427-0.333c0.2-0.3 0.147-0.533-0.093-0.74-0.733-0.533-1.527-0.933-2.36-1.42z"></path>
<path fill="#000" d="M24.353 24.853c0 0.16-0.13 0.29-0.29 0.29s-0.29-0.13-0.29-0.29v0c0-0.158 0.128-0.287 0.287-0.287s0.287 0.128 0.287 0.287v0zM22.927 23.947c0 0.16-0.13 0.29-0.29 0.29s-0.29-0.13-0.29-0.29v0c0-0.16 0.13-0.29 0.29-0.29s0.29 0.13 0.29 0.29v0zM23.653 24.413c0 0.16-0.13 0.29-0.29 0.29s-0.29-0.13-0.29-0.29v0c0-0.16 0.13-0.29 0.29-0.29s0.29 0.13 0.29 0.29v0z"></path>
<path fill="#fe0" d="M21.633 24.247c-2.84-1.62-5.82-3.367-8.667-4.987-1.247-0.78-1.307-2.227-0.467-3.327 0.080-0.153 0.187-0.12 0.227-0.033 0.1 0.533 0.4 1.087 0.76 1.433 4.318 2.691 7.181 4.574 10.014 6.497l-1.234-0.79c-0.227 0.387-0.4 0.82-0.633 1.2z"></path>
<path fill="#ffec00" d="M19.813 20.367l1.187 1.067-1.067 1.187-1.187-1.067z"></path>
</svg>
