<!-- Generated by IcoMoon.io -->
<svg version="1.1" xmlns="http://www.w3.org/2000/svg" width="43" height="32" viewBox="0 0 43 32">
<title>aq</title>
<path fill="#3a7dce" d="M0 0h42.667v32h-42.667z"></path>
<path fill="#fff" d="M10.513 15.387c-0.233-0.52-0.233-0.52-0.233-1.040-0.12 0-0.133 0.020-0.2 0-0.073-0.020-0.1 0.48-0.32 0.387-0.033-0.053 0.16-0.413-0.047-0.567-0.067-0.047 0.013-0.347-0.013-0.48 0 0-0.267 0.16-0.467-0.387-0.1-0.147-0.233 0.133-0.233 0.133s0.060 0.16-0.047 0.2c-0.147-0.12-0.26-0.053-0.447-0.227-0.187-0.167 0.040-0.36-0.32-0.5 0.233-0.653 0.233-0.527 0.813-0.787-0.347-0.267-0.347-0.267-0.58-0.653-0.347-0.133-0.467-0.267-0.813-0.52-0.467-0.66-0.7-1.967-0.7-2.88 0.293-0.307 0.7 1.047 1.28 1.44l0.813 0.393c0.467 0.26 0.58 0.52 0.933 0.78l1.040 0.4c0.467 0.387 0.7 0.907 1.047 1.040 0.38 0 0.453-0.247 0.573-0.26 0.687-0.040 1.033-0.133 1.167-0.367 0.14-0.187 0.467 0.107 1.4-0.287l-0.113-0.527s0.247-0.227 0.58-0.133c-0.007-0.233-0.033-0.867 0.3-1.16-0.2-0.233 0.12-0.6 0.133-0.713-0.093-0.573 0.093-0.58 0.133-0.753 0.040-0.167-0.16-0.113-0.107-0.347 0.060-0.233 0.4-0.287 0.44-0.48 0.047-0.193-0.073-0.953-0.087-1.12 0.627-0.187 0.827-0.76 1.047-0.52 0.113-0.787 0.233-1.053 0.933-1.053 0.093-0.24-0.26-0.447-0.12-0.527 0.233-0.033 0.407-0.013 0.68 0.38 0.087 0.133 0.107-0.18 0.193-0.213s0.293-0.033 0.327-0.187c0.033-0.16 0.080-0.373 0.2-0.633 0.093-0.213 0.167 0.087 0.253 0.5 0.493 0.020 1.6 0.14 2.067 0.287 0.347 0.1 0.58-0.1 0.913-0.147 0.247 0.28 0.48 0.067 0.613 0.667 0.18 0.32 0.487 0.027 0.553 0.12 0.387 1.207 1.72 0.393 1.827 0.413 0.167 0 0.373 0.533 0.513 0.527 0.213-0.040 0.153-0.207 0.347-0.14-0.053 0.453 0.373 0.973 0.373 1.313 0 0 0.1 0.060 0.2-0.040 0.093-0.107 0.18-0.36 0.267-0.353 0.2 0.033 1.467 0.4 1.72 0.527 0.113 0.233 0.22 0.353 0.453 0.313 0.187 0.14 0.053 0.333 0.16 0.34 0.233-0.133 0.313-0.267 0.547-0.14 0.233 0.133 0.467 0.393 0.58 0.653 0 0.133-0.12 0.653 0 1.44 0.060 0.26 0.647 2.153 0.647 2.347 0 0.267-0.18 0.4-0.3 0.66 0.467 0.393 0 1.047-0.233 1.44 1.747 0.393 0.933 1.173 2.327 0.78-0.347 0.92-0.227 0.847 0.12 1.76-0.693 0.52-0.013 0.68-0.473 1.333-0.033 0.047 0.273 0.573 0.7 0.573-0.113 1.040-0.467 0.653-0.347 2.22-0.913-0.020-0.547 1.173-1.16 1.047 0.033 0.747 0.347 0.813 0.227 1.567-0.467 0.133-0.467 0.133-0.693 0.527l-0.347-0.133c-0.12 0.653-0.353 0.787 0 1.44 0 0-0.453 0.013-0.587 0-0.007 0.227 0.2 0.287 0.233 0.52-0.013 0.093-0.66 0.507-1.16 0.527-0.133 0.32 0.347 0.667 0.32 0.827-0.547 0.12-0.787 0.867-0.787 0.867s0.28 0.133 0.233 0.267c-0.147-0.12-0.233-0.133-0.467-0.133-0.113 0.033-0.4 0-0.667 0.513-0.3 0.107-0.44 0.067-0.667 0.4-0.1-0.313-0.247 0.007-0.42 0.133-0.18 0.12-0.413 0.433-0.447 0.42 0.007-0.093 0.107-0.42 0.107-0.42l-0.647 0.153c-0.047 0.007-0.033-0.38-0.147-0.367s-0.427 0.487-0.533 0.5c-0.107 0.013-0.14-0.147-0.233-0.133s-0.267 0.5-0.333 0.513c-0.067 0.007-0.333-0.3-0.553-0.253-1.14 0.453-1.327-0.893-1.5-0.133-0.24-0.147-0.2-0.067-0.447 0.007-0.153 0.047-0.167-0.227-0.307-0.227-0.273 0.013-0.267 0.307-0.413 0.22-0.12-0.613-0.867-0.507-0.933-0.767-0.067-0.267 0.32-0.267 0.44-0.453 0.093-0.267-0.1-0.373 0.287-0.627 0.5-0.38 0.453-1.32 0.327-1.687 0 0-0.393-1.18-0.467-1.18-0.233-0.067-0.233 0.433-0.573 0.573-0.7 0.267-1.933-0.66-2.147-0.66-0.193 0-1.1 0.24-1.067-0.267-0.133 0.493-0.633 0.113-0.667 0.113-0.467 0-0.287 0.407-0.6 0.393-0.14-0.053-1.573-0.153-1.573-0.153v0.267l-1.74-0.787c-0.7-0.267-0.353-0.913-1.513-0.52v-0.787h-0.58c0.233-1.573 0-0.787-0.12-2.227l-0.467 0.133c-0.467-0.707 0.653-0.573-0.347-1.047 0 0 0.020-0.78-0.233-0.52-0.047 0.033 0.12 0.387 0.12 0.387-0.933-0.133-1.16-0.387-1.16-1.433 0 0 0.76 0.12 0.693 0-0.107-0.2-0.247-1.467-0.227-1.56-0.007-0.173 0.713-0.6 0.573-1.013 0.093-0.040 0.353-0.047 0.353-0.047z"></path>
</svg>
