<!-- Generated by IcoMoon.io -->
<svg version="1.1" xmlns="http://www.w3.org/2000/svg" width="43" height="32" viewBox="0 0 43 32">
<title>ar</title>
<path fill="#74acdf" d="M0 0h42.667v32h-42.667z"></path>
<path fill="#fff" d="M0 10.667h42.667v10.667h-42.667z"></path>
<path fill="#f6b40e" d="M21.129 16.083l1.824 3.968s0.032 0.077 0.083 0.058c0.051-0.026 0.019-0.096 0.019-0.096l-1.517-4.096M21.493 17.459c-0.026 0.602 0.346 0.934 0.301 1.472-0.051 0.544 0.243 0.845 0.32 1.056 0.064 0.211-0.083 0.333-0.019 0.365s0.192-0.134 0.154-0.435c-0.045-0.294-0.269-0.384-0.218-1.043s-0.269-0.813-0.192-1.408"></path>
<path fill="#f6b40e" d="M21.112 15.998l0.167 4.364s0 0.083 0.055 0.085c0.057-0.004 0.054-0.081 0.054-0.081l0.166-4.365M20.923 17.409c-0.254 0.546-0.038 0.996-0.285 1.475-0.255 0.483-0.099 0.874-0.108 1.098-0.022 0.22-0.204 0.276-0.157 0.33s0.229-0.051 0.308-0.343c0.071-0.289-0.101-0.458 0.198-1.047s0.063-0.854 0.361-1.374"></path>
<path fill="#f6b40e" d="M21.13 15.914l-1.516 4.096s-0.032 0.077 0.018 0.1c0.054 0.018 0.081-0.054 0.081-0.054l1.824-3.969M20.415 17.145c-0.444 0.407-0.416 0.905-0.828 1.254-0.421 0.348-0.425 0.769-0.52 0.973-0.104 0.195-0.294 0.177-0.272 0.244s0.231 0.041 0.416-0.199c0.177-0.24 0.081-0.462 0.584-0.892s0.385-0.765 0.86-1.131"></path>
<path fill="#f6b40e" d="M21.178 15.843l-2.968 3.204s-0.059 0.059-0.021 0.099c0.043 0.038 0.096-0.019 0.096-0.019l3.204-2.969M20.046 16.706c-0.566 0.207-0.731 0.677-1.245 0.841-0.522 0.161-0.687 0.548-0.853 0.7-0.171 0.14-0.339 0.050-0.344 0.122s0.198 0.126 0.461-0.025c0.255-0.154 0.252-0.395 0.881-0.6s0.648-0.559 1.227-0.716"></path>
<path fill="#85340a" d="M21.609 17.562c0.032 0.576 0.358 0.832 0.294 1.363 0.141-0.416-0.198-0.742-0.179-1.357zM21.231 16.045l1.248 2.726-1.043-2.81z"></path>
<path fill="#85340a" d="M20.99 17.548c-0.191 0.544 0.013 0.906-0.25 1.372 0.289-0.33 0.101-0.762 0.354-1.322zM21.222 16.002l0.11 2.996 0.111-2.995z"></path>
<path fill="#85340a" d="M20.424 17.299c-0.385 0.43-0.335 0.842-0.756 1.172 0.394-0.195 0.385-0.665 0.833-1.086zM21.229 15.959l-1.045 2.81 1.249-2.724z"></path>
<path fill="#85340a" d="M19.996 16.852c-0.52 0.25-0.631 0.649-1.147 0.794 0.438-0.029 0.61-0.467 1.185-0.685zM21.253 15.923l-2.041 2.196 2.197-2.039z"></path>
<path fill="#f6b40e" d="M20.58 21.12l-4.133 1.9s-0.080 0.033-0.060 0.087c0.027 0.053 0.1 0.020 0.1 0.020l4.267-1.58M19.147 21.5c-0.627-0.027-0.973 0.36-1.533 0.313-0.567-0.053-0.88 0.253-1.1 0.333-0.22 0.067-0.347-0.087-0.38-0.020s0.14 0.2 0.453 0.16c0.307-0.047 0.4-0.28 1.087-0.227s0.847-0.28 1.467-0.2"></path>
<path fill="#f6b40e" d="M20.668 21.103l-4.546 0.174s-0.087 0-0.089 0.057c0.004 0.059 0.085 0.057 0.085 0.057l4.547 0.173M19.199 20.906c-0.569-0.264-1.037-0.040-1.537-0.297-0.503-0.266-0.91-0.103-1.144-0.113-0.229-0.023-0.287-0.213-0.343-0.164s0.053 0.238 0.358 0.321c0.301 0.074 0.477-0.106 1.091 0.206s0.889 0.065 1.432 0.377"></path>
<path fill="#f6b40e" d="M20.756 21.121l-4.266-1.579s-0.080-0.033-0.104 0.019c-0.019 0.057 0.057 0.085 0.057 0.085l4.134 1.9M19.474 20.376c-0.424-0.462-0.943-0.434-1.306-0.863-0.363-0.438-0.801-0.443-1.014-0.542-0.203-0.108-0.184-0.306-0.255-0.283s-0.042 0.24 0.207 0.434c0.25 0.184 0.481 0.085 0.929 0.608s0.797 0.401 1.178 0.896"></path>
<path fill="#f6b40e" d="M20.831 21.172l-3.337-3.092s-0.061-0.061-0.103-0.022c-0.039 0.045 0.020 0.1 0.020 0.1l3.093 3.337M19.931 19.993c-0.215-0.589-0.705-0.761-0.876-1.297-0.168-0.544-0.571-0.716-0.729-0.889-0.146-0.178-0.053-0.353-0.127-0.359s-0.131 0.206 0.026 0.48c0.16 0.265 0.412 0.262 0.625 0.917s0.583 0.675 0.746 1.279"></path>
<path fill="#85340a" d="M19.040 21.62c-0.6 0.033-0.867 0.373-1.42 0.307 0.433 0.147 0.773-0.207 1.413-0.187zM20.62 21.227l-2.84 1.3 2.927-1.087z"></path>
<path fill="#85340a" d="M19.054 20.976c-0.567-0.199-0.944 0.013-1.429-0.26 0.344 0.301 0.794 0.105 1.377 0.368zM20.664 21.217l-3.121 0.114 3.12 0.116z"></path>
<path fill="#85340a" d="M19.314 20.386c-0.448-0.401-0.877-0.349-1.221-0.787 0.203 0.41 0.693 0.401 1.131 0.867zM20.709 21.225l-2.927-1.089 2.838 1.301z"></path>
<path fill="#85340a" d="M19.779 19.94c-0.26-0.542-0.677-0.658-0.827-1.195 0.030 0.456 0.487 0.635 0.713 1.234zM20.747 21.249l-2.288-2.126 2.124 2.288z"></path>
<path fill="#f6b40e" d="M16.213 15.247l-1.9-4.133s-0.033-0.080-0.087-0.060c-0.053 0.027-0.020 0.1-0.020 0.1l1.58 4.267M15.833 13.813c0.027-0.627-0.36-0.973-0.313-1.533 0.053-0.567-0.253-0.88-0.333-1.1-0.067-0.22 0.087-0.347 0.020-0.38s-0.2 0.14-0.16 0.453c0.047 0.307 0.28 0.4 0.227 1.087s0.28 0.847 0.2 1.467"></path>
<path fill="#f6b40e" d="M16.23 15.335l-0.174-4.546s-0-0.087-0.057-0.089c-0.059 0.004-0.057 0.085-0.057 0.085l-0.173 4.547M16.428 13.865c0.264-0.569 0.040-1.037 0.297-1.537 0.266-0.503 0.103-0.91 0.113-1.144 0.023-0.229 0.213-0.287 0.164-0.343s-0.238 0.053-0.321 0.358c-0.074 0.301 0.106 0.477-0.206 1.091s-0.065 0.889-0.377 1.432"></path>
<path fill="#f6b40e" d="M16.212 15.423l1.579-4.266s0.033-0.080-0.019-0.104c-0.057-0.019-0.085 0.057-0.085 0.057l-1.9 4.134M16.957 14.141c0.462-0.424 0.434-0.943 0.863-1.306 0.438-0.363 0.443-0.801 0.542-1.014 0.108-0.203 0.306-0.184 0.283-0.255s-0.24-0.042-0.434 0.207c-0.184 0.25-0.085 0.481-0.608 0.929s-0.401 0.797-0.896 1.178"></path>
<path fill="#f6b40e" d="M16.162 15.497l3.092-3.337s0.061-0.061 0.022-0.103c-0.045-0.039-0.1 0.020-0.1 0.020l-3.337 3.092M17.341 14.598c0.589-0.215 0.761-0.705 1.297-0.876 0.544-0.168 0.716-0.571 0.889-0.729 0.178-0.146 0.353-0.053 0.359-0.127s-0.206-0.131-0.48 0.026c-0.265 0.16-0.262 0.412-0.917 0.625s-0.675 0.583-1.279 0.746"></path>
<path fill="#85340a" d="M15.713 13.707c-0.033-0.6-0.373-0.867-0.307-1.42-0.147 0.433 0.207 0.773 0.187 1.413zM16.107 15.287l-1.3-2.84 1.087 2.927z"></path>
<path fill="#85340a" d="M16.358 13.721c0.199-0.567-0.013-0.944 0.26-1.429-0.301 0.344-0.105 0.794-0.368 1.377zM16.116 15.331l-0.114-3.121-0.116 3.12z"></path>
<path fill="#85340a" d="M16.948 13.98c0.401-0.448 0.349-0.877 0.787-1.221-0.41 0.203-0.401 0.693-0.867 1.131zM16.108 15.376l1.089-2.927-1.301 2.838z"></path>
<path fill="#85340a" d="M17.393 14.446c0.542-0.26 0.658-0.677 1.195-0.827-0.456 0.030-0.635 0.487-1.234 0.713zM16.084 15.414l2.126-2.288-2.288 2.124z"></path>
<path fill="#f6b40e" d="M22.087 10.88l4.133-1.9s0.080-0.033 0.060-0.087c-0.027-0.053-0.1-0.020-0.1-0.020l-4.267 1.58M23.52 10.5c0.627 0.027 0.973-0.36 1.533-0.313 0.567 0.053 0.88-0.253 1.1-0.333 0.22-0.067 0.347 0.087 0.38 0.020s-0.14-0.2-0.453-0.16c-0.307 0.047-0.4 0.28-1.087 0.227s-0.847 0.28-1.467 0.2"></path>
<path fill="#f6b40e" d="M21.998 10.897l4.546-0.174s0.087-0 0.089-0.057c-0.004-0.059-0.085-0.057-0.085-0.057l-4.547-0.173M23.468 11.094c0.569 0.264 1.037 0.040 1.537 0.297 0.503 0.266 0.91 0.103 1.144 0.113 0.229 0.023 0.287 0.213 0.343 0.164s-0.053-0.238-0.358-0.321c-0.301-0.074-0.477 0.106-1.091-0.206s-0.889-0.065-1.432-0.377"></path>
<path fill="#f6b40e" d="M21.91 10.879l4.266 1.579s0.080 0.033 0.104-0.019c0.019-0.057-0.057-0.085-0.057-0.085l-4.134-1.9M23.193 11.624c0.424 0.462 0.943 0.434 1.306 0.863 0.363 0.438 0.801 0.443 1.014 0.542 0.203 0.108 0.184 0.306 0.255 0.283s0.042-0.24-0.207-0.434c-0.25-0.184-0.481-0.085-0.929-0.608s-0.797-0.401-1.178-0.896"></path>
<path fill="#f6b40e" d="M21.836 10.828l3.337 3.092s0.061 0.061 0.103 0.022c0.039-0.045-0.020-0.1-0.020-0.1l-3.093-3.337M22.736 12.007c0.215 0.589 0.705 0.761 0.876 1.297 0.168 0.544 0.571 0.716 0.729 0.889 0.146 0.178 0.053 0.353 0.127 0.359s0.131-0.206-0.026-0.48c-0.16-0.265-0.412-0.262-0.625-0.917s-0.583-0.675-0.746-1.278"></path>
<path fill="#85340a" d="M23.627 10.38c0.6-0.033 0.867-0.373 1.42-0.307-0.433-0.147-0.773 0.207-1.413 0.187zM22.047 10.773l2.84-1.3-2.927 1.087z"></path>
<path fill="#85340a" d="M23.613 11.024c0.567 0.199 0.944-0.013 1.429 0.26-0.344-0.301-0.794-0.105-1.377-0.368zM22.002 10.783l3.121-0.114-3.12-0.116z"></path>
<path fill="#85340a" d="M23.353 11.614c0.448 0.401 0.877 0.349 1.221 0.787-0.203-0.41-0.693-0.401-1.131-0.867zM21.958 10.775l2.927 1.089-2.838-1.301z"></path>
<path fill="#85340a" d="M22.887 12.060c0.26 0.542 0.677 0.658 0.827 1.195-0.030-0.456-0.487-0.635-0.713-1.234zM21.919 10.751l2.288 2.126-2.124-2.288z"></path>
<path fill="#f6b40e" d="M23.113 16c0 0.983-0.797 1.78-1.78 1.78s-1.78-0.797-1.78-1.78c0-0.983 0.797-1.78 1.78-1.78s1.78 0.797 1.78 1.78z"></path>
<path fill="#843511" d="M21.94 15.62c-0.12 0-0.24 0.053-0.307 0.16 0.133 0.127 0.44 0.133 0.647-0.013-0.085-0.090-0.206-0.147-0.34-0.147-0 0-0 0-0 0h0zM21.94 15.647c0.113 0 0.227 0.053 0.24 0.107-0.133 0.153-0.353 0.133-0.493 0.027 0.052-0.081 0.141-0.134 0.242-0.134 0.004 0 0.008 0 0.012 0l-0.001-0z"></path>
<path fill="#000" d="M21.96 15.533c-0.18 0-0.22 0.047-0.3 0.113s-0.127 0.053-0.133 0.067c-0.020 0.013 0 0.053 0.020 0.040 0.033-0.013 0.087-0.040 0.167-0.107s0.167-0.067 0.247-0.067c0.247 0 0.38 0.2 0.413 0.187 0.020-0.013-0.14-0.233-0.413-0.233z"></path>
<path fill="#000" d="M22.453 15.62c-0.313-0.273-0.713-0.32-0.933-0.113-0.050 0.065-0.085 0.144-0.1 0.23l-0 0.003c-0.027 0.153 0.020 0.32 0.14 0.493l-0.053 0.027c-0.075-0.135-0.12-0.296-0.12-0.468 0-0.056 0.005-0.111 0.014-0.165l-0.001 0.006c0.010-0.058 0.024-0.11 0.042-0.159l-0.002 0.006c0.3-0.247 0.713-0.267 1.013 0.133z"></path>
<path fill="#000" d="M22.060 15.753c0 0.070-0.057 0.127-0.127 0.127s-0.127-0.057-0.127-0.127c0-0.070 0.057-0.127 0.127-0.127s0.127 0.057 0.127 0.127z"></path>
<path fill="#000" d="M22.287 15.833c-0.233 0.18-0.467 0.167-0.6 0.087-0.133-0.087-0.133-0.113-0.107-0.113s0.053 0.027 0.16 0.087c0.113 0.053 0.273 0.053 0.547-0.060z"></path>
<path fill="#85340a" d="M21.067 16.247c-0.064 0.007-0.114 0.061-0.114 0.126 0 0.070 0.057 0.127 0.127 0.127 0.045 0 0.085-0.023 0.107-0.059l0-0c0.040 0.025 0.089 0.040 0.141 0.040 0.002 0 0.004-0 0.006-0h0.013c0.004 0 0.009 0 0.014 0 0.052 0 0.1-0.015 0.14-0.041l-0.001 0.001c0.023 0.032 0.060 0.052 0.102 0.052 0.070 0 0.127-0.057 0.127-0.127 0-0.064-0.047-0.116-0.108-0.125l-0.001-0c0.033 0.020 0.053 0.047 0.053 0.087s-0.033 0.080-0.080 0.080c-0.044 0-0.080-0.036-0.080-0.080v0c-0.032 0.066-0.097 0.111-0.173 0.113h-0c-0.074-0.005-0.136-0.050-0.166-0.112l-0.001-0.001c0 0 0 0 0 0 0 0.044-0.036 0.080-0.080 0.080-0.002 0-0.005-0-0.007-0l0 0c-0.040 0-0.080-0.040-0.080-0.080s0.020-0.067 0.053-0.080zM21.2 16.613c-0.14 0-0.2 0.12-0.32 0.2 0.067-0.027 0.127-0.080 0.22-0.133s0.18 0.013 0.233 0.013c0.053 0 0.133-0.067 0.233-0.013 0.093 0.053 0.153 0.107 0.22 0.133-0.127-0.080-0.18-0.2-0.32-0.2-0.049 0.005-0.095 0.019-0.135 0.041l0.002-0.001c-0.038-0.023-0.083-0.039-0.131-0.046l-0.002-0z"></path>
<path fill="#85340a" d="M21.147 16.773c-0.053 0-0.12 0.013-0.227 0.040 0.247-0.053 0.3 0.033 0.413 0.033 0.107 0 0.16-0.087 0.407-0.033-0.267-0.080-0.327-0.027-0.407-0.027-0.053 0-0.093-0.020-0.187-0.013z"></path>
<path fill="#85340a" d="M20.933 16.813h-0.053c0.287 0.033 0.153 0.2 0.453 0.2s0.167-0.167 0.453-0.2c-0.3-0.027-0.207 0.153-0.453 0.153-0.233 0-0.16-0.153-0.4-0.153zM21.58 17.26c0-0.136-0.11-0.247-0.247-0.247s-0.247 0.11-0.247 0.247v0c0.027-0.113 0.127-0.196 0.247-0.196s0.22 0.083 0.246 0.194l0 0.002z"></path>
<path fill="#85340a" d="M20.227 15.62c0.313-0.273 0.713-0.32 0.933-0.113 0.050 0.065 0.085 0.144 0.1 0.23l0 0.003c0.027 0.153-0.020 0.32-0.14 0.493l0.053 0.027c0.075-0.135 0.12-0.296 0.12-0.468 0-0.056-0.005-0.111-0.014-0.165l0.001 0.006c-0.010-0.058-0.024-0.11-0.042-0.159l0.002 0.006c-0.3-0.247-0.713-0.267-1.013 0.133z"></path>
<path fill="#85340a" d="M20.72 15.533c0.18 0 0.22 0.047 0.3 0.113s0.127 0.053 0.133 0.067c0.020 0.013 0 0.053-0.020 0.040-0.033-0.013-0.087-0.040-0.167-0.107s-0.167-0.067-0.247-0.067c-0.247 0-0.38 0.2-0.413 0.187-0.020-0.013 0.14-0.233 0.413-0.233z"></path>
<path fill="#843511" d="M20.713 15.62c-0.12 0-0.24 0.053-0.307 0.16 0.133 0.127 0.44 0.133 0.647-0.013-0.085-0.090-0.206-0.147-0.34-0.147-0 0-0 0-0 0h0zM20.713 15.647c0.113 0 0.227 0.053 0.24 0.107-0.133 0.153-0.353 0.133-0.493 0.027 0.052-0.081 0.141-0.134 0.242-0.134 0.004 0 0.008 0 0.012 0l-0.001-0z"></path>
<path fill="#85340a" d="M20.853 15.753c0 0.070-0.057 0.127-0.127 0.127s-0.127-0.057-0.127-0.127c0-0.070 0.057-0.127 0.127-0.127s0.127 0.057 0.127 0.127z"></path>
<path fill="#85340a" d="M20.393 15.833c0.233 0.18 0.467 0.167 0.6 0.087 0.133-0.087 0.133-0.113 0.107-0.113s-0.053 0.027-0.16 0.087c-0.113 0.053-0.273 0.053-0.547-0.060z"></path>
</svg>
