<!-- Generated by IcoMoon.io -->
<svg version="1.1" xmlns="http://www.w3.org/2000/svg" width="43" height="32" viewBox="0 0 43 32">
<title>as</title>
<path fill="#006" d="M-24.933-1.067h68.267v34.133h-68.267z"></path>
<path fill="#bd1021" d="M-24.933 16l68.267 17.067v-34.133l-68.267 17.067z"></path>
<path fill="#fff" d="M43.333 0.76v30.48l-60.953-15.24 60.953-15.24z"></path>
<path fill="#9c3900" d="M31.867 19.827s-0.427-0.347 0.080-0.913c-0.273-0.227-0.020-0.673-0.020-0.673s-0.467-0.173 0.020-0.893c-0.353-0.233-0.2-0.753-0.2-0.753s-1.133-0.427-0.053-0.833c-0.893 0.387-1.727-0.527-1.727-0.527l-1.293 0.040c-0.22-1.080-1.933-0.14-0.667-3.233-0.327-0.060-0.693-0.153-1.067 0.113-0.36 0.273-1.407 0.853-2.027 0.273s0.4-1.413 0.427-1.433c0.020-0.020 1.373-0.72 1.567-1.18-0.020-0.353-0.447-0.62-0.060-1.38 0.447-0.713 3.18-1.393 4.42-1.627 0.367-0.174 0.663-0.447 0.862-0.784l0.005-0.009 0.14 0.507s2.753-0.813 2.887-1.2 0.060 0.347 0.060 0.347c1.080-0.1 2.46-1.027 2.653-0.6 0.907-0.173 2.653-0.953 2.653-0.953s0.6-0.020 0.173 0.64c0.267 0.427-0.080 0.8-0.1 0.8-0.013 0 0.12 0.42-0.227 0.653 0.113 0.367-0.213 0.667-0.213 0.667s0.153 0.44-0.467 0.667c0.060 0.393-0.347 0.467-0.347 0.467s0.053 0.407-0.213 0.587c0 0.307-0.313 0.467-0.313 0.467s0.2 0.113-0.080 0.307c-0.587 0.397-1.592 1.025-2.608 1.637l-0.472 0.263c0-0.020 2.053 0.367 2.193 0.44s1.687 1.107 1.687 1.107l-1.573 1.933s-1.74-0.187-1.82-0.093 0.367 0.133 0.467 0.293c0.093 0.153 0.253 0.52 0.56 0.48 0.313-0.033-0.58 0.567-1.16 0.62 0 0.213 0.733 0.233 0.933 0.067 0.187-0.18-0.467 0.5-0.547 0.6s0.867-0.14 0.867-0.14-0.153 0.64-0.98 0.833c0.327 0.54 0.193 0.887 0.173 0.887s-0.547-0.533-1.047-0.44c0.133 0.52 0.54 1 0.66 1.080 0.113 0.080-0.913 0.067-1.047-0.233s-0.253 0.7 0.113 1.013c-0.427 0.020-0.793-0.233-0.793-0.233s-0.253 0.58-0.080 0.867c0.173 0.293-0.6-0.58-0.6-0.58l-1.467 0.62-0.333-0.56z"></path>
<path fill="#ffc221" d="M20.487 18.673c0.033 0 2.14-0.033 3.107-0.587 0.322 0.488 0.697 0.908 1.124 1.266l0.009 0.007 0.313-1.1s0.76 0.033 0.827 0.2c-0.1 0.213-0.133 0.487-0.133 0.487s0.513 0.040 0.553 0.107c0.033 0.067-0.14 0.653-0.14 0.653l2.207 0.52s0.173-0.867 0.347-0.76c0.173 0.107 0.933 1.173 2 1.24s1.133-0.893 1.133-0.893l0.247 0.133s0.447-0.96 0.52-0.96 0.167 0.133 0.753 0.133c0.173 0.207 0.247 0.693 0.247 0.693s-0.66 0.653-0.453 1.173 0.247 0.38 0.247 0.38l4.76 1.133s0.24 0.38-0.173 0.587c0 0.033-4.8-1.1-4.8-1.1s-0.447 0.513-0.793 0.413-0.1 0.2-0.1 0.2l5.173 0.42s0.38 0.48 0.107 0.62c-0.347 0.033-5.593-0.347-5.593-0.347s-0.307 0.66-0.653 0.107c-0.24 0.38-0.52-0.107-0.52-0.107s-0.447 0.347-0.513-0.033c-0.38 0.28-0.62-0.173-0.62-0.173l-2.213-0.133-0.133 0.2s0.38 0.107-0.207 0.347c-0.587 0.247 3.52 0.14 3.62 0.173 0.107 0.040-0.273 0.347-0.273 0.347s2.1 0.133 2.48-0.307c0.38-0.453-0.133 0.587-0.133 0.587s1.653-0.067 1.653-0.14-0.033 0.513-1.173 0.447c0.446 0.28 0.959 0.526 1.501 0.711l0.053 0.016s-0.867 0.2-1.867-0.033c0.173 0.447 0.933 0.86 0.933 0.86s-0.553 0.48-1.793-0.693c0.347 0.627 0.067 0.867 0.033 0.8-0.477-0.64-1.175-1.093-1.98-1.244l-0.020-0.003c0.867 0.553 0.487 0.8 0.487 0.8s-0.453-0.8-1.173 0c-0.28-0.733-1.347-1.147-2.66-1.213-0.413-0.48-0.653-0.347-1.62-0.62-0.553-0.62-1.347-1.313-1.347-1.313s0.033-0.933 0.967-0.827c0.107 0.313 0.107 0.207 0.107 0.207s1.033-0.38 1.34 0.133c0.453-0.787 1.067-0.113 1.173 0.16 0.3 0.047 1.8 0.087 1.8 0.087s-0.18-0.313-0.067-0.273c0.1 0.033 0.927-0.313 0.893-0.413-0.040-0.107-0.067-0.453 0.067-0.42 0.133 0.040-1.173-0.167-1.9 0.38-0.24-0.24-0.067-0.893-0.067-0.893l-2.133-0.447-0.107 0.547s-0.627 0.107-0.587-0.033l-0.14 0.487s-0.827-0.207-0.827-0.247 0.24-1.24 0.24-1.2c0 0.027-0.693 0.067-1.653 0.787-0.28-0.867-2.453-2-2.453-2.033z"></path>
<path fill="#ffc221" d="M23.18 15.847s-1.447 1.24 0 1.967c0.067-0.487 0.173-0.553 0.173-0.553s1.2 0.447 1.933-0.62c-0.313-0.453-0.867-0.28-0.867-0.28s-1.133 0-1.24-0.513z"></path>
<path fill="#fff" d="M23.227 15.853s0.193-0.193 0.253-0.427c0.053-0.227-0.080-0.48 0.153-0.693s3.293-1.513 3.547-1.767c0.274-0.275 0.528-0.571 0.758-0.885l0.015-0.021c0.060-0.12 0.233 0.58-0.293 0.887 0.567-0.153 0.933-0.327 1.167-0.247-0.233 0.327-0.853 0.867-1.147 0.867 0.68-0.247 1.3-0.467 1.473-0.327 0.173 0.133-0.833 0.813-1.24 0.853 0.68-0.173 1.587-0.447 1.707-0.153-0.367 0.113-0.253 0.213-1.007 0.64-0.173 0.058-0.372 0.092-0.58 0.093h-0c0.58-0.060 1.373-0.293 1.453 0.133-0.467 0.18-0.64 0.407-1.027 0.507-0.393 0.093-1.28 0.267-1.827 0.487-0.533 0.213-1.333 0.833-1.333 0.833s-1.727 0.053-1.727 0.033c0-0.020-0.333-0.793-0.347-0.813z"></path>
<path fill="#fff" d="M38.007 14.673l3.353 0.64s0.367-0.427 0.173-0.66c0.507-0.113 0.367-0.773 0.367-0.773s0.58-0.253 0.1-0.833c0.333-0.333-0.080-0.58-0.080-0.58s0.133-0.58-0.287-0.64c0.113-0.467-0.733-0.62-0.733-0.62s-1.767 0.487-3.007 0.52c0.4 0.407-0.153 0.667-0.153 0.667s0.327 0.227 0.227 0.42c-0.093 0.2 0.067 0.407-0.367 0.547 0.56 0.247-0.060 0.673-0.060 0.673s0.62 0.427 0.467 0.64z"></path>
</svg>
