<!-- Generated by IcoMoon.io -->
<svg version="1.1" xmlns="http://www.w3.org/2000/svg" width="43" height="32" viewBox="0 0 43 32">
<title>az</title>
<path fill="#3f9c35" d="M0.007 0h42.667v32h-42.667z"></path>
<path fill="#ed2939" d="M0.007 0h42.667v21.333h-42.667z"></path>
<path fill="#00b9e4" d="M0.007 0h42.667v10.667h-42.667z"></path>
<path fill="#fff" d="M25.067 16c0 2.651-2.149 4.8-4.8 4.8s-4.8-2.149-4.8-4.8c0-2.651 2.149-4.8 4.8-4.8s4.8 2.149 4.8 4.8z"></path>
<path fill="#ed2939" d="M25.333 16c0 2.209-1.791 4-4 4s-4-1.791-4-4c0-2.209 1.791-4 4-4s4 1.791 4 4z"></path>
<path fill="#fff" d="M25.6 13.333l0.513 1.433 1.373-0.653-0.653 1.38 1.433 0.507-1.433 0.513 0.653 1.373-1.373-0.653-0.513 1.433-0.513-1.433-1.373 0.653 0.653-1.373-1.433-0.513 1.433-0.513-0.653-1.373 1.373 0.653 0.513-1.433z"></path>
</svg>
