<!-- Generated by IcoMoon.io -->
<svg version="1.1" xmlns="http://www.w3.org/2000/svg" width="43" height="32" viewBox="0 0 43 32">
<title>bb</title>
<path fill="#00267f" d="M0 0h42.667v32h-42.667z"></path>
<path fill="#ffc726" d="M14.22 0h14.227v32h-14.227z"></path>
<path fill="#000" d="M21.32 9.033c-0.467 1.267-0.933 2.573-1.947 3.58 0.313-0.107 0.867-0.2 1.213-0.187v5.3l-1.493 0.22c-0.053 0-0.067-0.087-0.067-0.2-0.147-1.647-0.533-3.033-0.987-4.467-0.033-0.193-0.6-0.933-0.16-0.8 0.053 0 0.633 0.24 0.547 0.127-0.813-0.819-1.873-1.392-3.060-1.595l-0.034-0.005c-0.1-0.020-0.16 0.033-0.067 0.147 1.493 2.307 2.753 5.033 2.74 8.267 0.587 0 2-0.347 2.58-0.347v3.74h0.747l0.167-10.447z"></path>
<path fill="#000" d="M21.313 9.033c0.467 1.267 0.933 2.573 1.947 3.58-0.313-0.107-0.867-0.2-1.213-0.187v5.3l1.493 0.22c0.053 0 0.067-0.087 0.067-0.2 0.147-1.647 0.533-3.033 0.987-4.467 0.033-0.193 0.6-0.933 0.16-0.8-0.053 0-0.633 0.24-0.547 0.127 0.813-0.819 1.873-1.392 3.060-1.595l0.034-0.005c0.1-0.020 0.16 0.033 0.067 0.147-1.493 2.307-2.753 5.033-2.74 8.267-0.587 0-2-0.347-2.58-0.347v3.74h-0.747l-0.167-10.447z"></path>
</svg>
