<!-- Generated by IcoMoon.io -->
<svg version="1.1" xmlns="http://www.w3.org/2000/svg" width="43" height="32" viewBox="0 0 43 32">
<title>bi</title>
<path fill="#18b637" d="M-5.465 0l26.8 16-26.8 16zM48.135 0l-26.8 16 26.8 16z"></path>
<path fill="#cf0921" d="M-5.465 0l26.8 16 26.8-16zM-5.465 32l26.8-16 26.8 16z"></path>
<path fill="#fff" d="M48.135 0h-4.994l-48.606 29.019v2.981h4.994l48.606-29.019z"></path>
<path fill="#fff" d="M30.591 16c0 5.11-4.143 9.253-9.253 9.253s-9.253-4.143-9.253-9.253v0c0-5.109 4.141-9.25 9.25-9.25s9.25 4.141 9.25 9.25v0z"></path>
<path fill="#fff" d="M-5.465 0v2.981l48.606 29.019h4.994v-2.981l-48.606-29.019z"></path>
<path fill="#cf0921" d="M23.16 12.512l-1.206 0.019-0.625 1.025-0.619-1.025-1.2-0.025 0.581-1.056-0.575-1.050 1.2-0.025 0.625-1.025 0.619 1.031 1.2 0.025-0.581 1.050zM19.122 19.488l-1.2 0.019-0.625 1.025-0.619-1.025-1.2-0.025 0.581-1.056-0.575-1.050 1.2-0.025 0.625-1.025 0.619 1.031 1.2 0.025-0.581 1.050zM27.285 19.488l-1.2 0.019-0.625 1.025-0.625-1.025-1.194-0.025 0.581-1.056-0.581-1.050 1.2-0.025 0.625-1.025 0.625 1.031 1.2 0.025-0.587 1.050z"></path>
</svg>
