<!-- Generated by IcoMoon.io -->
<svg version="1.1" xmlns="http://www.w3.org/2000/svg" width="43" height="32" viewBox="0 0 43 32">
<title>bm</title>
<path fill="#cf142b" d="M0 0h42.667v32h-42.667z"></path>
<path fill="#fff" d="M37.313 8.707v10.773c0 2.873-5.747 3.813-5.747 3.813s-5.76-0.933-5.76-3.827v-10.76h11.5z"></path>
<path fill="#2f8f22" d="M37.313 19.48c0 2.873-5.747 3.813-5.747 3.813s-5.76-0.933-5.76-3.827c0 0 0-0.233 0.12-0.36 0 0-0.067 0.473 0.3 0.84 0 0-0.287-0.52 0-1.020 0 0-0.113 0.653 0.293 1.020 0 0-0.22-0.527 0.027-1.113 0 0-0.12 0.953 0.313 1.153 0 0 0.12-0.56-0.053-0.907 0 0 0.3 0.12 0.287 0.92 0 0 0.093-0.12 0.12-0.7 0 0 0.013 0.667 0.233 0.82 0 0 0.080-0.067-0.020-0.367-0.107-0.293 0.040-0.4 0.067-0.4 0 0-0.053 0.333 0.227 0.587 0 0-0.12-0.527 0.047-0.6 0 0-0.040 0.447 0.32 0.54 0 0 0.020-0.127-0.053-0.267 0 0-0.067-0.167-0.020-0.3 0 0 0.113 0.4 0.267 0.467 0 0-0.093-0.24 0-0.467 0 0 0.013 0.333 0.313 0.473 0 0-0.2-0.267-0.127-0.547l2.913 0.14 2.98-0.2 0.507-0.447s0.207 0.273-0.12 0.72c0 0 0.32-0.053 0.42-0.553 0 0 0.133 0.273-0.047 0.587 0 0 0.353-0.36 0.4-0.753 0 0 0.14 0.387-0.193 0.8 0 0 0.293-0.107 0.42-0.54 0 0 0.107 0.267-0.18 0.633 0 0 0.54-0.273 0.527-0.867 0 0 0.22 0.32-0.033 0.773 0 0 0.267-0.247 0.3-0.62 0 0 0.153 0.167-0.013 0.627 0 0 0.333-0.32 0.387-0.66 0 0 0.067 0.32-0.213 0.72 0 0 0.193-0.053 0.38-0.44 0 0 0.047 0.16-0.12 0.44 0 0 0.187-0.033 0.307-0.393 0 0 0.020 0.213-0.033 0.4 0 0 0.14-0.087 0.173-0.487 0.001 0.108 0.031 0.209 0.082 0.296l-0.002-0.003v0.053z"></path>
<path fill="#d40000" d="M34.36 13.247s-0.2 0.040-0.467-0.040c-0.253-0.080-0.353-0.047-0.433 0 0 0 0.1-0.207-0.153-0.373 0 0 0.080 0.213-0.033 0.307 0 0-0.047 0.047-0.107-0.020 0 0-0.087-0.1-0.187-0.16 0 0 0.22-0.080 0.18-0.3s-0.16-0.24-0.22-0.273c-0.005 0.024-0.008 0.052-0.008 0.080s0.003 0.056 0.009 0.083l-0-0.003s-0.233-0.133 0.080-0.313c0.32-0.18 0.267-0.293 0.207-0.387-0.063-0.095-0.14-0.175-0.231-0.238l-0.003-0.002s0.067 0.107 0.047 0.193c-0.007 0.080-0.16 0.133-0.133-0.007 0.033-0.16 0-0.133 0-0.287 0 0 0.28 0.093 0.4-0.187 0 0 0.107-0.287-0.253-0.427 0 0 0.087 0.12 0.047 0.2 0 0-0.080 0.147-0.167 0.040-0.087-0.113-0.147-0.147-0.14-0.28 0 0 0.327 0.047 0.24-0.313 0 0-0.060 0.24-0.48-0.080 0 0 0.28-0.28 0.167-0.507 0 0-0.033-0.1-0.327-0.047 0 0 0.253-0.16 0.153-0.3 0 0-0.060-0.087-0.307 0.027 0 0 0.1-0.153-0.14-0.333 0 0-0.16 0.080-0.24 0.16 0 0-0.16-0.2-0.267-0.287 0 0-0.187 0.073-0.233 0.287 0 0-0.087-0.1-0.287-0.16 0 0-0.093 0.187 0.033 0.333 0 0-0.093 0-0.267-0.073 0 0-0.187-0.080-0.153 0.073 0.020 0.16 0.040 0.2 0.080 0.28 0 0-0.433-0.1-0.413 0.133 0.008 0.165 0.084 0.311 0.199 0.413l0.001 0.001s-0.233 0.32-0.44 0.080c0 0-0.080 0.080 0.080 0.28 0 0 0.16 0.167 0.020 0.28 0 0-0.167 0.133-0.247-0.133 0 0-0.273 0.273 0.053 0.48 0 0 0.2 0.12 0.42-0.067 0 0-0.067 0.533-0.267 0.427 0 0-0.127-0.080 0.093-0.193 0 0-0.32-0.040-0.367 0.267 0 0-0.040 0.233 0.233 0.333 0 0 0.207 0.080 0 0.24 0 0-0.167 0.113-0.060 0.293 0 0 0.12 0.187-0.193 0.213 0 0-0.16 0-0.22-0.027 0 0-0.067 0.133-0.027 0.267 0 0-0.153-0.113-0.5 0.013-0.347 0.133-0.327 0.040-0.347 0.080l-0.107 0.16s0.187 0.24 0.193 0.22l-0.040 0.267 0.093 0.040 0.72-0.32 0.733-0.38 0.593 0.027 0.373 0.087 0.48 0.040 0.36-0.187h0.507l0.56 0.28 0.633 0.38 0.333 0.067 0.26-0.020v-0.52z"></path>
<path fill="#d40000" d="M28.547 13.847s0.28 0.147 0.4-0.020c0 0 0.147-0.293-0.187-0.4 0 0 0.187-0.213-0.013-0.413 0 0-0.107-0.107-0.28-0.033 0 0-0.080-0.153-0.247-0.147 0 0-0.16 0-0.2 0.167 0 0-0.213-0.080-0.327 0.040 0 0-0.2 0.213 0.073 0.387l0.193 0.020 0.187-0.093 0.22 0.060s-0.060 0.213 0.18 0.433z"></path>
<path fill="#64b4d1" d="M34.773 13.34c0.017-0.002 0.036-0.004 0.056-0.004 0.178 0 0.331 0.104 0.403 0.254l0.001 0.003c0.173 0.413-0.2 0.64-0.2 0.64 0.027 0.087 0.033 0.213 0.033 0.213 0.52 0.067 0.427 0.653 0.427 0.653l-0.173-0.147c-0.3-0.12-0.62 0.147-0.84 0.573-0.227 0.44-0.12 0.633-0.080 1.153 0.040 0.513 0.867 0.827 0.867 0.827l-0.647 1.667c-0.253 0.667-0.8 0.393-0.953 0.247-0.153-0.133-0.193-0.053-0.267 0-0.073 0.067 0.353 0.4-0.433 0.72-0.78 0.313-0.913 0.553-1.047 0.633s-0.667 0.033-0.72-0.040c-0.067-0.067-0.027-0.067-0.233-0.193-0.2-0.113-0.547-0.233-0.92-0.413s-0.36-0.413-0.353-0.46c0-0.047 0.127-0.433-0.313-0.127-0.433 0.313-0.807-0.147-0.807-0.147-0.080-0.113-0.453-1.093-0.453-1.093-0.090-0.317-0.188-0.583-0.302-0.839l0.016 0.039s-0.027 0.053 0.3-0.133c0.32-0.18 0.467-0.487 0.58-0.793s0-0.833-0.040-0.933c-0.040-0.107-0.28-0.593-0.58-0.693-0.293-0.107-0.5 0.16-0.5 0.16s-0.087-0.6 0.44-0.667c0 0 0-0.12 0.027-0.207 0 0-0.373-0.227-0.2-0.64 0 0 0.12-0.287 0.453-0.253l-0.073 0.16s-0.080 0.84 1.147 0.28c1.233-0.573 1.2-0.68 1.913-0.32l0.507-0.007s0.733-0.353 0.98-0.2c0.233 0.153 1.087 0.627 1.087 0.627s0.827 0.313 0.993-0.267z"></path>
<path fill="#fff" d="M31.053 17s-0.040-0.26-0.080-0.427c0 0-0.1-0.26 0.067-0.453l0.187-0.22s0.12-0.16 0.267-0.18c0 0 0.153 0 0.16-0.033 0.020-0.033 0.187-0.3 0.573 0 0 0 0.12-0.2 0.32-0.24 0 0 0.2-0.053 0.3 0.093 0 0 0.233-0.173 0.427 0.113 0 0 0.273-0.16 0.48 0.153 0 0 0.267-0.133 0.427 0.14 0.167 0.287 0.133 0.4 0.133 0.4l0.133 0.453 0.433 0.533-1.013 0.387h-0.467l-0.913 0.24-1.62 0.127-0.447-0.533 0.64-0.553z"></path>
<path fill="#d40000" d="M29.687 19.7s-0.24 0.007-0.367 0.080c-0.12 0.053-0.22 0.12-0.36 0.213 0 0-0.067 0.087-0.347 0.033 0 0-0.48-0.113-0.48 0.267 0 0-0.587 0.040-0.347 0.553 0 0 0.153 0.4 0.487 0.12 0 0-0.213 0.3 0.2 0.42 0 0 0.293 0.080 0.387-0.233 0 0 0.047-0.12-0.067-0.267 0 0 0.14-0.027 0.24-0.18 0 0-0.307 0.387 0.033 0.533 0 0 0.42 0.1 0.44-0.333 0 0-0.040-0.213 0.133-0.287 0 0 0.333-0.080 0.467-0.44 0 0-0.467-0.26-0.42-0.48zM28.707 15.867s-0.373-0.167-0.56 0c0 0-0.233-0.147-0.5 0 0 0-0.247 0.16-0.42 0.347 0 0-0.12 0.1-0.080 0.427 0 0 0.067 0.233 0.033 0.34 0 0-0.080-0.013-0.247 0.187 0 0-0.207 0.233-0.4 0.020 0 0 0.067 0.307 0.407 0.253 0 0-0.167 0.133-0.020 0.467 0 0 0.107 0.24-0.067 0.547 0 0 0.3-0.12 0.293-0.48 0 0-0.033-0.24 0.067-0.4 0 0-0.1 0.147 0.107 0.473 0 0 0.16 0.24 0.033 0.48 0 0 0.293-0.107 0.267-0.467s-0.2-0.213-0.093-0.547c0 0 0.033 0.173 0.12 0.267 0.105 0.089 0.171 0.22 0.171 0.367 0 0.035-0.004 0.070-0.011 0.103l0.001-0.003s0.173-0.227 0.133-0.453c-0.012-0.109-0.043-0.208-0.089-0.298l0.002 0.005 0.56-0.32 0.287-0.5z"></path>
<path fill="#000" d="M28.2 16.613s-0.12 0-0.2-0.053c0 0-0.060-0.047-0.1 0.027 0 0-0.067 0.107 0.053 0.153 0 0 0.147 0.080-0.080 0.227 0 0 0.267-0.107 0.16-0.24 0 0-0.12-0.080-0.080-0.113 0 0 0.013-0.027 0.067 0 0.040 0.040 0.133 0.027 0.18 0z"></path>
<path fill="#784421" d="M31.84 17.267l0.14-0.040-0.933-3.2h-0.027z"></path>
<path fill="#000" d="M28.747 20.82s-0.213-0.127-0.4 0.020c0 0 0.027-0.080 0.16-0.113 0 0 0.080-0.213 0.287-0.193 0 0-0.087 0.107-0.2 0.187 0 0 0.12 0.013 0.16 0.1z"></path>
<path fill="#64b4d1" d="M27.98 21.32s-0.347-0.213-0.153-0.58c0 0 0.053-0.1 0.153-0.080 0 0 0.22 0.067 0.053 0.367 0 0-0.093 0.193-0.053 0.3zM28.68 21.673s-0.493-0.227-0.34-0.613c0 0 0.047-0.133 0.16-0.12 0 0 0.187 0.013 0.153 0.267 0 0-0.060 0.24 0.027 0.467z"></path>
<path fill="#000" d="M28.58 20.24s-0.153 0.113-0.207 0.187c0 0-0.067-0.080-0.147-0.12 0 0 0.1-0.020 0.147 0.020 0 0 0.080-0.067 0.2-0.087z"></path>
<path fill="#64b4d1" d="M29.013 21.573s0.4-0.093 0.32-0.5c0 0-0.040-0.173-0.2-0.147 0 0-0.2 0.053-0.067 0.307 0 0 0.073 0.173-0.053 0.34z"></path>
<path fill="#f5ce00" d="M30.773 13.113l0.38 0.127s0.36 0.153 0.82 0l0.347-0.133-0.233 0.36v0.193l0.14 0.213s-0.087 0.040-0.36-0.133c0 0-0.293-0.227-0.64 0 0 0-0.2 0.133-0.36 0.133l0.233-0.253-0.087-0.233-0.24-0.287z"></path>
<path fill="#fff" d="M29.167 21.1s0.013-0.027 0-0.033l-0.033 0.013s-0.040 0.067 0 0.16c0 0 0.033 0.060 0.020 0.12v0.027s0.020-0.007 0.020-0.027c0 0 0.027-0.053-0.013-0.12 0 0-0.040-0.093 0.007-0.14z"></path>
<path fill="#d40000" d="M34.533 13.847s-0.28 0.147-0.4-0.020c0 0-0.14-0.293 0.193-0.4 0 0-0.187-0.213 0.007-0.413 0 0 0.107-0.107 0.28-0.033 0 0 0.080-0.153 0.247-0.147 0 0 0.16 0 0.2 0.167 0 0 0.22-0.080 0.333 0.040 0 0 0.187 0.213-0.080 0.387l-0.193 0.020-0.193-0.093-0.2 0.060s0.053 0.213-0.2 0.433z"></path>
<path fill="#f5ce00" d="M32.32 13.627s0 0.053-0.053 0.067c0 0-0.067 0.020-0.1-0.060v-0.020c0-0.033-0.020-0.133 0.093-0.22 0 0 0.173-0.14 0.507 0.033 0.252 0.147 0.576 0.314 0.907 0.467l0.079 0.033s0.207 0.107 0.527 0.12c0 0 0.433 0.033 0.62-0.273 0 0 0.14-0.233 0-0.387 0 0-0.060-0.067-0.153-0.053-0.050 0.011-0.092 0.040-0.12 0.079l-0 0.001s-0.067 0.093 0.007 0.167c0 0 0.107 0.067 0.147-0.067 0 0.013 0.033 0.113-0.027 0.193 0 0-0.267 0.4-0.993-0.007l-0.953-0.54s-0.473-0.247-0.773 0.14c0 0-0.227 0.32 0.073 0.527 0 0 0.227 0.133 0.36-0.080 0 0 0.12-0.207-0.067-0.293 0 0-0.16-0.080-0.22 0.080-0.067 0.16 0.12 0.2 0.133 0.087 0 0 0-0.027 0.020 0z"></path>
<path fill="#e4cb5e" d="M28.533 15.28v-0.6c0-0.053 0-0.080 0.080-0.147 0.067-0.053 0.14-0.153 0.247 0.113 0 0 0.213-0.233 0.28-0.267 0 0 0.133-0.1 0.22 0.047 0 0 0.107-0.173 0.2-0.213 0 0 0.213-0.133 0.22 0.28l0.167-0.16s0.133-0.1 0.28 0.047c0 0 0.233 0.24 0.267 0.307 0 0 0.053 0.067 0.067 0.18 0 0 0 0.133 0.067 0.2 0 0 0.073 0.067 0.147 0.080 0 0 0.167 0.007 0.24 0.173 0 0 0.020-0.033 0.107 0.747v1.433l-0.96 1.14-1.54-0.44-0.613-0.26-0.147-0.44 0.6-0.393 0.32-0.867-0.1-0.62-0.147-0.347z"></path>
<path fill="#784421" d="M32.773 16.027l0.080-0.1 0.167-0.133s0.267 0.693 0.28 0.847v0.213s0.4 0.107 0.48 0.713l-0.333 0.613-0.52-0.293-0.153-0.1v-1.753z"></path>
<path fill="#fff" d="M27.887 20.827s0.013-0.020 0-0.040l-0.033 0.027s-0.1 0.113-0.013 0.293c0 0 0 0.027 0.020 0.013 0 0 0.020 0 0-0.020 0 0-0.073-0.16 0.027-0.267z"></path>
<path fill="#d40000" d="M33.4 19.7s0.24 0.007 0.367 0.080c0.133 0.053 0.227 0.12 0.367 0.213 0 0 0.067 0.087 0.347 0.033 0 0 0.48-0.113 0.48 0.267 0 0 0.58 0.040 0.347 0.553 0 0-0.16 0.4-0.493 0.12 0 0 0.213 0.3-0.2 0.42 0 0-0.293 0.080-0.38-0.233 0 0-0.053-0.12 0.067-0.267 0 0-0.14-0.027-0.233-0.18 0 0 0.3 0.387-0.033 0.533 0 0-0.42 0.1-0.447-0.333 0 0 0.033-0.213-0.133-0.287 0 0-0.333-0.080-0.48-0.44 0 0 0.48-0.26 0.433-0.48z"></path>
<path fill="#784421" d="M30.573 17.833l0.147-0.047-0.933-3.2h-0.033z"></path>
<path fill="#fff" d="M28.507 21.44s-0.113-0.1-0.093-0.287c0 0 0-0.040-0.020-0.047 0 0-0.020-0.007-0.020 0.040 0 0-0.033 0.193 0.1 0.3 0 0 0.007 0.020 0.027 0.013 0 0 0.013 0 0-0.020z"></path>
<path fill="#f5ce00" d="M34.667 17.267c-0.42-0.24-0.513-0.76-0.513-0.76-0.018-0.091-0.028-0.195-0.028-0.302 0-0.235 0.050-0.459 0.139-0.662l-0.004 0.011c0.267-0.573 0.74-0.687 0.74-0.687s-0.46 0.32-0.587 0.747c0 0-0.093 0.367-0.040 0.713 0.053 0.367 0.033 0.273 0.12 0.553l0.173 0.4z"></path>
<path fill="#784421" d="M32.847 15.913l-1.773 0.567-0.093 0.8c-0.42 0.607-1.28 0.713-1.28 0.713l0.667 0.713 1.267 0.267 0.68-0.52 0.613-0.56c-0.067-0.3-0.033-0.747-0.033-0.747 0-0.080 0.033-0.253 0.033-0.253s-0.1-0.713-0.080-0.967z"></path>
<path fill="#d40000" d="M34.387 15.867s0.373-0.167 0.56 0c0 0 0.24-0.147 0.507 0 0 0 0.24 0.16 0.413 0.347 0 0 0.12 0.1 0.080 0.427 0 0-0.067 0.233-0.020 0.34 0 0 0.073-0.013 0.233 0.187 0 0 0.22 0.233 0.4 0.020 0 0-0.053 0.307-0.4 0.253 0 0 0.16 0.133 0.020 0.467 0 0-0.107 0.24 0.067 0.547 0 0-0.307-0.12-0.293-0.48 0 0 0.027-0.24-0.067-0.4 0 0 0.093 0.147-0.113 0.473 0 0-0.16 0.24-0.027 0.48 0 0-0.3-0.107-0.267-0.467 0.020-0.36 0.2-0.213 0.087-0.547 0 0-0.027 0.173-0.113 0.267-0.105 0.089-0.17 0.22-0.17 0.367 0 0.035 0.004 0.070 0.011 0.103l-0.001-0.003s-0.173-0.227-0.133-0.453c0.040-0.233 0.080-0.293 0.080-0.293l-0.553-0.32-0.28-0.5z"></path>
<path fill="#fff" d="M28.040 17.893s0.053-0.247 0.287-0.16c0 0 0.080-0.4 0.513-0.413s0.453 0.427 0.453 0.453c0 0 0.133-0.187 0.34-0.167 0 0 0.367-0.020 0.24 0.567l0.067 0.080s0.273-0.66 0.847-0.493c0 0 0.56 0.173 0.2 0.713 0 0 0.28 0.367 0.507 0.333 0.24-0.033 0.447-0.107 0.68-0.52 0.24-0.413 0.78-0.48 0.913-0.453 0.133 0.020 0.247 0.12 0.267 0.213 0 0 0.287-0.953 1.32-0.813l0.413 0.22 0.16 0.067-0.24 0.667-0.56 1.28-0.44 0.133-0.453-0.26-0.16 0.080v0.393l-0.6 0.427-0.413 0.167-0.453 0.32-0.113 0.28s-0.247-0.113-0.533 0l-0.093-0.24-0.267-0.247-1.040-0.493-0.18-0.6-0.193-0.087-0.213 0.24-0.3 0.040-0.467-0.32-0.493-1.4z"></path>
<path fill="#f5ce00" d="M35.133 17.553c-0.68-0.213-0.867-0.953-0.867-0.953-0.029-0.118-0.046-0.253-0.046-0.392 0-0.231 0.046-0.452 0.13-0.653l-0.004 0.011c0.32-0.733 0.847-0.733 0.847-0.733 0.011-0.002 0.025-0.003 0.038-0.003 0.129 0 0.237 0.092 0.262 0.214l0 0.002c0.027 0.16-0.087 0.22-0.087 0.22-0.18 0.1-0.3-0.033-0.3-0.033-0.080-0.107-0.020-0.193-0.020-0.193 0.047-0.067 0.133-0.027 0.133-0.027 0.087 0.013 0.067 0.107 0.067 0.107s0.027-0.107-0.080-0.12c0 0-0.213-0.047-0.453 0.253 0 0-0.313 0.407-0.313 0.94 0 0-0.040 0.987 0.98 1.24 0 0-0.107 0.16-0.307 0.74 0 0-0.22 0.747-0.427 1.153 0 0-0.287 0.573-0.927 0.34 0 0-0.373-0.167-0.373-0.433 0 0-0.020-0.253 0.2-0.267 0 0 0.22-0.020 0.22 0.167 0 0 0 0.2-0.233 0.16 0 0-0.080-0.020-0.073-0.1 0 0 0.013-0.080 0.12-0.040 0.1 0.040 0 0 0-0.007 0 0-0.040-0.020-0.080 0 0 0-0.040 0-0.040 0.067 0 0 0 0.040 0.047 0.073l0.113 0.013s0.067 0.133 0.2 0.18c0.047 0.015 0.101 0.024 0.157 0.024 0.119 0 0.229-0.039 0.317-0.105l-0.001 0.001c0.088-0.076 0.156-0.173 0.198-0.282l0.002-0.005c0.116-0.242 0.233-0.54 0.332-0.847l0.015-0.053s0.12-0.38 0.227-0.58z"></path>
<path fill="#f5ce00" d="M33.2 19.427s0.133-0.013 0.133 0.1c0 0-0.007 0.16-0.213 0.127 0 0-0.2-0.040-0.133-0.267 0 0 0.053-0.153 0.24-0.133 0 0 0.187 0 0.267 0.253 0 0 0.067 0.22-0.047 0.4-0.12 0.2-0.413 0.333-0.56 0.4 0 0-0.58 0.22-0.753 0.353 0 0-0.267 0.193-0.147 0.373 0 0 0.047 0.073 0.113 0.073 0 0 0.080 0 0.087-0.080 0 0 0 0.047-0.047 0.067 0 0-0.053 0.027-0.113-0.020 0 0-0.067-0.067-0.013-0.16 0 0 0.067-0.107 0.24-0.040 0 0 0.133 0.073 0.080 0.22 0 0-0.060 0.14-0.227 0.133 0 0-0.127 0-0.213-0.080-0.133-0.14-0.133-0.4-0.013-0.533 0 0 0.1-0.14 0.313-0.24l0.6-0.233c0.173-0.073 0.327-0.153 0.427-0.273 0 0 0.087-0.093 0.12-0.267 0 0 0.027-0.133-0.053-0.16l-0.080-0.020z"></path>
<path fill="#f5ce00" d="M30.773 13.627s0 0.053 0.067 0.067c0 0 0.053 0.013 0.087-0.060v-0.020c0-0.033 0.020-0.133-0.080-0.22 0 0-0.187-0.14-0.52 0.033 0 0-0.267 0.133-0.447 0.24 0 0-0.473 0.253-0.533 0.267 0 0-0.213 0.107-0.533 0.12 0 0-0.433 0.033-0.613-0.273 0 0-0.147-0.233 0-0.387 0 0 0.053-0.067 0.147-0.053 0.040 0.007 0.080 0.027 0.12 0.080 0 0 0.067 0.093-0.007 0.167 0 0-0.107 0.067-0.147-0.067 0 0.013-0.020 0.107 0.033 0.2 0 0 0.267 0.393 0.987-0.020l0.953-0.533s0.48-0.247 0.773 0.133c0 0 0.227 0.32-0.067 0.533 0 0-0.22 0.133-0.367-0.080 0 0-0.107-0.2 0.067-0.293 0 0 0.16-0.080 0.233 0.080 0.067 0.16-0.133 0.2-0.147 0.087 0 0 0-0.027-0.007 0zM28.427 17.273c0.42-0.233 0.52-0.767 0.52-0.767 0.093-0.533-0.113-0.953-0.113-0.953-0.267-0.573-0.733-0.687-0.733-0.687s0.453 0.32 0.58 0.747c0 0 0.107 0.367 0.040 0.713-0.053 0.367-0.033 0.273-0.12 0.553z"></path>
<path fill="#f5ce00" d="M27.953 17.553c0.687-0.213 0.867-0.953 0.867-0.953 0.031-0.121 0.048-0.259 0.048-0.402 0-0.227-0.045-0.444-0.126-0.643l0.004 0.011c-0.32-0.733-0.847-0.733-0.847-0.733-0.011-0.002-0.025-0.003-0.038-0.003-0.129 0-0.237 0.092-0.262 0.214l-0 0.002c-0.020 0.16 0.087 0.22 0.087 0.22 0.187 0.1 0.307-0.033 0.307-0.033 0.073-0.107 0.013-0.193 0.013-0.193-0.047-0.067-0.133-0.027-0.133-0.027-0.080 0.013-0.067 0.107-0.067 0.107s-0.020-0.107 0.080-0.12c0 0 0.213-0.047 0.453 0.253 0 0 0.32 0.407 0.32 0.94 0 0 0.040 0.987-0.987 1.24 0 0 0.113 0.16 0.307 0.74 0 0 0.227 0.747 0.44 1.153 0 0 0.28 0.573 0.913 0.34 0 0 0.373-0.167 0.373-0.433 0 0 0.027-0.253-0.2-0.267 0 0-0.22-0.020-0.22 0.167 0 0 0 0.2 0.24 0.16 0 0 0.080-0.020 0.067-0.1 0 0-0.013-0.080-0.113-0.040-0.107 0.040 0 0 0-0.007 0 0 0.033-0.020 0.073 0 0 0 0.040 0 0.040 0.067 0 0 0 0.040-0.047 0.073l-0.1 0.013s-0.067 0.133-0.213 0.18c-0.047 0.016-0.102 0.026-0.159 0.026-0.117 0-0.224-0.040-0.309-0.107l0.001 0.001c-0.088-0.076-0.156-0.173-0.198-0.282l-0.002-0.005c-0.118-0.242-0.237-0.54-0.338-0.847l-0.015-0.053s-0.12-0.38-0.213-0.58l-0.040-0.080z"></path>
<path fill="#f5ce00" d="M29.9 19.427s-0.133-0.013-0.133 0.1c0 0 0 0.16 0.213 0.127 0 0 0.2-0.040 0.127-0.267 0 0-0.047-0.153-0.24-0.133 0 0-0.18 0-0.267 0.253 0 0-0.060 0.22 0.053 0.4 0.12 0.2 0.413 0.333 0.553 0.4 0 0 0.58 0.22 0.76 0.353 0 0 0.26 0.193 0.14 0.373 0 0-0.040 0.073-0.113 0.073 0 0-0.080 0-0.087-0.080 0 0 0 0.047 0.047 0.067 0 0 0.060 0.027 0.113-0.020 0 0 0.067-0.067 0.013-0.16 0 0-0.067-0.107-0.227-0.040 0 0-0.147 0.073-0.080 0.22 0 0 0.047 0.14 0.213 0.133 0 0 0.133 0 0.213-0.080 0.133-0.14 0.133-0.4 0.027-0.533 0 0-0.113-0.14-0.32-0.24-0.127-0.040-0.367-0.14-0.6-0.233-0.18-0.073-0.333-0.153-0.433-0.273 0 0-0.087-0.093-0.12-0.267 0 0-0.020-0.133 0.060-0.16l0.080-0.020z"></path>
<path fill="#784421" d="M29.54 15.107l0.027 0.053s0.4 0.020 0.607-0.253l-0.020-0.053s-0.353-0.020-0.6 0.253z"></path>
<path fill="#784421" d="M30.833 14.7l-0.013-0.040 0.673-0.267 0.020 0.053z"></path>
<path fill="#64b4d1" d="M34.413 21.667s0.493-0.22 0.34-0.607c0 0-0.047-0.133-0.16-0.12 0 0-0.187 0.007-0.153 0.267 0 0 0.067 0.253-0.033 0.467z"></path>
<path fill="#fff" d="M34.587 21.44s0.113-0.1 0.1-0.287c0 0-0.013-0.040 0-0.047 0 0 0.027-0.007 0.027 0.040 0 0 0.033 0.193-0.093 0.3 0 0-0.007 0.020-0.027 0.013 0 0-0.013 0 0-0.020z"></path>
<path fill="#64b4d1" d="M35.113 21.32s0.347-0.213 0.16-0.58c0 0-0.060-0.1-0.16-0.080 0 0-0.213 0.067-0.047 0.367 0 0 0.080 0.193 0.047 0.3z"></path>
<path fill="#fff" d="M35.2 20.827s-0.013-0.020 0-0.040l0.027 0.027s0.1 0.113 0.020 0.293c0 0-0.007 0.027-0.033 0.013v-0.020s0.080-0.16-0.013-0.267z"></path>
<path fill="#64b4d1" d="M34.067 21.573s-0.387-0.093-0.313-0.5c0 0 0.040-0.173 0.207-0.147 0 0 0.2 0.053 0.067 0.307 0 0-0.073 0.173 0.047 0.34z"></path>
<path fill="#fff" d="M33.92 21.1v-0.033s0.027 0 0.033 0.013c0 0 0.040 0.067 0.007 0.16 0 0-0.033 0.060-0.013 0.12 0 0 0 0.020-0.020 0.027l-0.013-0.027s-0.020-0.053 0.013-0.12c0 0 0.040-0.093 0-0.14z"></path>
<path fill="#000" d="M34.347 20.82s0.227-0.127 0.4 0.020c0 0-0.013-0.080-0.16-0.113 0 0-0.067-0.213-0.28-0.193 0 0 0.080 0.107 0.2 0.187 0 0-0.12 0.013-0.16 0.1zM34.507 20.24s0.16 0.113 0.213 0.187c0 0 0.060-0.080 0.133-0.12 0 0-0.080-0.020-0.133 0.020 0 0-0.073-0.067-0.2-0.087z"></path>
<path fill="#000" d="M34.907 16.613s0.12 0 0.18-0.053c0 0 0.073-0.047 0.113 0.027 0 0 0.067 0.107-0.053 0.153 0 0-0.147 0.080 0.087 0.227 0 0-0.28-0.107-0.16-0.24 0 0 0.12-0.080 0.067-0.113 0 0-0.013-0.027-0.060 0-0.047 0.040-0.14 0.027-0.173 0z"></path>
<path fill="#64b4d1" d="M35.067 13.707s0.053-0.080 0.033-0.293c-0.027-0.213 0.173-0.247 0.24-0.187 0 0 0.080 0.067 0 0.207-0.056 0.121-0.152 0.217-0.27 0.272l-0.003 0.001z"></path>
<path fill="#fff" d="M35.133 13.533s0.080-0.073 0.040-0.24l0.013-0.013h0.020s0.040 0.187-0.040 0.28c0 0-0.013 0.020-0.033 0z"></path>
<path fill="#64b4d1" d="M35.007 13.627s0-0.093-0.153-0.24c-0.16-0.16-0.033-0.293 0.067-0.293 0 0 0.087 0 0.133 0.153 0.009 0.038 0.015 0.082 0.015 0.127 0 0.092-0.023 0.18-0.063 0.256l0.001-0.003z"></path>
<path fill="#fff" d="M34.987 13.427s0-0.107-0.147-0.22v-0.027h0.027s0.153 0.12 0.153 0.253c0 0 0 0.020-0.020 0.020 0 0-0.013 0-0.013-0.027z"></path>
<path fill="#64b4d1" d="M34.8 13.553s-0.047-0.067-0.233-0.14c-0.193-0.067-0.147-0.233-0.067-0.267 0 0 0.087-0.033 0.173 0.073 0.075 0.088 0.12 0.202 0.12 0.327 0 0.002 0 0.004-0 0.006v-0z"></path>
<path fill="#fff" d="M34.707 13.42s-0.040-0.093-0.213-0.14c0 0-0.013 0-0.013-0.020 0 0 0-0.013 0.020-0.007 0 0 0.193 0.040 0.247 0.16l-0.007 0.020s-0.020 0-0.027-0.013z"></path>
<path fill="#64b4d1" d="M34.913 13.627s-0.087 0.033-0.293-0.067c-0.207-0.1-0.293 0.073-0.253 0.153 0 0 0.033 0.107 0.187 0.080 0.141-0.008 0.267-0.068 0.36-0.16l-0 0z"></path>
<path fill="#fff" d="M34.44 13.693s0.093 0.067 0.26 0h0.020s0 0.013-0.013 0.020c0 0-0.173 0.080-0.293 0.007 0 0-0.013 0 0-0.020h0.027z"></path>
<path fill="#64b4d1" d="M28.013 13.707s-0.053-0.080-0.033-0.293c0.027-0.227-0.167-0.247-0.233-0.187 0 0-0.080 0.067-0.013 0.207 0.058 0.122 0.156 0.218 0.276 0.272l0.004 0.001z"></path>
<path fill="#fff" d="M27.94 13.533s-0.067-0.073-0.040-0.24v-0.013h-0.027s-0.033 0.187 0.047 0.28c0 0 0.013 0.020 0.020 0z"></path>
<path fill="#64b4d1" d="M28.080 13.627s0-0.093 0.16-0.24c0.153-0.16 0.027-0.293-0.067-0.293 0 0-0.107 0-0.133 0.153-0.011 0.041-0.017 0.087-0.017 0.136 0 0.089 0.021 0.173 0.058 0.248l-0.001-0.003z"></path>
<path fill="#fff" d="M28.1 13.427s0-0.107 0.133-0.22c0 0 0.020-0.020 0-0.027h-0.013s-0.16 0.12-0.16 0.253c0 0 0 0.020 0.027 0.020 0 0 0.013 0 0.013-0.027z"></path>
<path fill="#64b4d1" d="M28.287 13.553s0.040-0.067 0.233-0.14c0.187-0.067 0.133-0.233 0.060-0.267 0 0-0.080-0.033-0.173 0.073-0.075 0.088-0.12 0.202-0.12 0.327 0 0.002 0 0.004 0 0.006v-0z"></path>
<path fill="#fff" d="M28.373 13.42s0.040-0.093 0.213-0.14c0 0 0.013 0 0.013-0.020 0 0 0-0.013-0.013-0.007 0 0-0.193 0.040-0.247 0.16v0.020s0.027 0 0.033-0.013z"></path>
<path fill="#64b4d1" d="M28.167 13.627s0.093 0.033 0.293-0.067c0.2-0.1 0.293 0.073 0.267 0.153 0 0-0.047 0.107-0.2 0.080-0.141-0.008-0.267-0.068-0.36-0.16l0 0z"></path>
<path fill="#fff" d="M28.64 13.693s-0.087 0.067-0.26 0h-0.013v0.020s0.187 0.080 0.3 0.007c0 0 0.013 0 0-0.020h-0.027z"></path>
<path fill="#000" d="M32.447 11.84s0.067 0.18 0.040 0.347c-0.020 0.16 0.013 0.193 0.067 0.227 0.047 0.020 0.16-0.027 0.167-0.147 0 0 0.133 0.253-0.12 0.42 0 0-0.18 0.113-0.333-0.027-0.053-0.060-0.080-0.2-0.047-0.333 0 0 0.040-0.18-0.033-0.367 0 0 0.107 0.107 0.080 0.327 0 0-0.053 0.4 0.24 0.373 0 0 0.2 0 0.2-0.24 0 0-0.073 0.080-0.16 0.053-0.071-0.017-0.123-0.080-0.123-0.156 0-0.011 0.001-0.022 0.003-0.032l-0 0.001c0.007-0.107 0.040-0.287 0.020-0.447zM32.133 12.467s-0.027 0.32-0.307 0.393c0 0 0.040-0.060-0.020-0.22 0 0-0.067-0.080-0.067-0.22 0 0-0.080 0.067 0.020 0.253 0.067 0.113 0 0.24-0.007 0.247-0.027 0.007 0.46-0.067 0.373-0.447zM31.76 12.167s-0.073-0.080-0.080-0.253c0-0.18-0.033-0.227-0.060-0.24 0 0 0.033 0.153 0.027 0.24-0.001 0.012-0.002 0.026-0.002 0.040 0 0.057 0.010 0.113 0.029 0.163l-0.001-0.003s-0.16 0.020-0.26-0.2c-0.087-0.22-0.18-0.2-0.227-0.2 0 0 0.053 0.007 0.16 0.2 0.107 0.2 0.14 0.247 0.413 0.247zM31.040 11.7s0.080 0.213 0.093 0.32c0 0-0.207-0.067-0.267-0.233 0 0-0.213 0.067-0.133 0.313 0 0-0.193-0.067-0.28-0.213 0 0 0.107 0.080 0.207 0.113 0 0-0.013-0.207 0.24-0.28 0 0 0.040 0.18 0.173 0.22zM31.373 11.34s0.080 0.1 0.227 0.1c0.005 0 0.012 0.001 0.018 0.001 0.080 0 0.151-0.039 0.195-0.1l0-0.001s-0.007 0.173-0.213 0.18c0 0-0.22 0-0.22-0.18zM30.48 12.573l0.133 0.127s0.080 0.080 0.133-0.020c0 0 0.087-0.16 0.193-0.147 0 0-0.080 0.047-0.16 0.2 0 0-0.013 0.047-0.080 0.053-0.033 0-0.067 0.013-0.12-0.047 0 0-0.047-0.060-0.1-0.16zM31.593 10.613c-0.213 0-0.033 0.16-0.033 0.16 0 0.267-0.207 0.36-0.353 0.28s-0.027-0.267-0.027-0.267-0.16 0.1-0.067 0.26c0.107 0.16 0.38 0.080 0.48-0.060 0.1 0.147 0.38 0.22 0.473 0.060 0.113-0.16-0.053-0.267-0.053-0.267s0.12 0.193-0.033 0.267c-0.14 0.087-0.36 0-0.347-0.267 0 0 0.18-0.167-0.033-0.167zM31.727 10.32s0.080 0.133 0.067 0.333c0 0 0.060-0.2-0.067-0.327zM31.060 10.633s-0.020-0.147-0.16-0.16c0 0 0.127 0.087 0.16 0.16zM32.127 10.633s0.020-0.147 0.167-0.16c0 0-0.12 0.087-0.16 0.16zM30.847 10.847s0.107 0.033 0.173-0.047zM30.487 9.973s0.127-0.007 0.253 0.18c0 0-0.127 0.067-0.16 0.107 0 0 0-0.067 0.067-0.113 0 0-0.027-0.093-0.16-0.167zM32.62 9.973s-0.133-0.007-0.26 0.18c0 0 0.133 0.067 0.16 0.107 0 0 0-0.067-0.067-0.113 0 0 0.027-0.093 0.167-0.167zM31.64 10.12s0.113 0.033 0.253-0.047c0 0 0.173-0.093 0.287 0 0 0-0.093-0.047-0.287 0.047 0 0-0.18 0.107-0.253 0z"></path>
<path fill="#fff" d="M31.76 10.24s0.093-0.167 0.4-0.133c0 0-0.087 0.24-0.4 0.133z"></path>
<path fill="#784421" d="M32.013 10.187c0 0.040-0.024 0.073-0.053 0.073s-0.053-0.033-0.053-0.073c0-0.040 0.024-0.073 0.053-0.073s0.053 0.033 0.053 0.073z"></path>
<path fill="#000" d="M31.993 10.187c0 0.026-0.015 0.047-0.033 0.047s-0.033-0.021-0.033-0.047c0-0.026 0.015-0.047 0.033-0.047s0.033 0.021 0.033 0.047z"></path>
<path fill="#000" d="M31.12 9.873s0.187 0.020 0.307 0.080c0 0 0.12 0.080 0.253-0.020 0 0 0.147-0.093 0.247-0.207 0 0-0.233 0.153-0.32 0.18 0 0-0.080-0.067-0.1-0.153 0 0 0-0.067 0.133-0.18 0 0-0.167 0.053-0.2 0.193 0.023 0.059 0.054 0.11 0.094 0.154l-0-0s-0.027 0.020-0.107-0.040c0 0-0.187-0.053-0.307 0zM31.6 11.007c-0.16 0.14 0 0.127 0 0.127s0.16 0.013 0-0.133zM31.507 10.127s-0.12 0.033-0.267-0.047c0 0-0.173-0.093-0.287 0 0 0 0.1-0.047 0.287 0.047 0 0 0.193 0.107 0.267 0z"></path>
<path fill="#fff" d="M31.387 10.24s-0.1-0.167-0.4-0.133c0 0 0.080 0.24 0.4 0.133z"></path>
<path fill="#784421" d="M31.233 10.187c0 0.040-0.024 0.073-0.053 0.073s-0.053-0.033-0.053-0.073c0-0.040 0.024-0.073 0.053-0.073s0.053 0.033 0.053 0.073z"></path>
<path fill="#000" d="M31.213 10.187c0 0.026-0.015 0.047-0.033 0.047s-0.033-0.021-0.033-0.047c0-0.026 0.015-0.047 0.033-0.047s0.033 0.021 0.033 0.047z"></path>
<path fill="#006" d="M0 0h21.333v16h-21.333z"></path>
<path fill="#fff" d="M2.5 0l8.133 6.033 8.1-6.033h2.6v2.067l-8 5.967 8 5.933v2.033h-2.667l-8-5.967-7.967 5.967h-2.7v-2l7.967-5.933-7.967-5.933v-2.133z"></path>
<path fill="#c8102e" d="M14.133 9.367l7.2 5.3v1.333l-9.033-6.633zM8 10.033l0.2 1.167-6.4 4.8h-1.8zM21.333 0v0.1l-8.3 6.267 0.067-1.467 6.567-4.9zM0 0l7.967 5.867h-2l-5.967-4.467z"></path>
<path fill="#fff" d="M8.033 0v16h5.333v-16zM0 5.333v5.333h21.333v-5.333z"></path>
<path fill="#c8102e" d="M0 6.433v3.2h21.333v-3.2zM9.1 0v16h3.2v-16z"></path>
</svg>
