<!-- Generated by IcoMoon.io -->
<svg version="1.1" xmlns="http://www.w3.org/2000/svg" width="43" height="32" viewBox="0 0 43 32">
<title>bn</title>
<path fill="#f7e017" d="M0 0h42.667v32h-42.667z"></path>
<path fill="#fff" d="M0 2.22v14.227l42.667 6.667v-7.56z"></path>
<path fill="#000" d="M0 9.78v6.667l42.667 13.333v-6.667z"></path>
<path fill="#cf1126" d="M20.253 25.32c-0.824-0.093-1.569-0.366-2.217-0.777l0.021 0.013c-0.107-0.071-0.204-0.133-0.222-0.133s-0.027 0.084-0.027 0.182c0 0.284-0.116 0.427-0.4 0.502-0.276 0.071-0.693-0.071-1.031-0.356-0.308-0.264-0.674-0.47-1.076-0.594l-0.021-0.006c-0.123-0.031-0.265-0.048-0.411-0.048-0.305 0-0.592 0.077-0.843 0.213l0.009-0.005c-0.036 0.025-0.077 0.045-0.122 0.057l-0.003 0.001c-0.049 0-0.044-0.307 0.009-0.4 0.067-0.133 0.227-0.258 0.418-0.324 0.098-0.036 0.178-0.080 0.178-0.102 0-0.018-0.036-0.089-0.076-0.16-0.129-0.227-0.076-0.444 0.151-0.618 0.231-0.178 0.622-0.204 0.964-0.076 0.048 0.021 0.107 0.043 0.168 0.060l0.010 0.002c0.044 0 0.018-0.067-0.107-0.249-0.142-0.209-0.173-0.311-0.156-0.564 0.026-0.32 0.28-0.574 0.598-0.6l0.002-0c0.258-0.018 0.418 0.071 0.8 0.431 0.994 1.001 2.317 1.674 3.792 1.846l0.030 0.003c0.369 0.044 1.102 0.022 1.533-0.044 1.423-0.243 2.665-0.89 3.638-1.816l-0.003 0.003c0.284-0.267 0.418-0.338 0.653-0.338 0.2 0 0.342 0.062 0.489 0.222 0.133 0.147 0.178 0.284 0.16 0.511-0.009 0.142-0.031 0.209-0.116 0.351-0.124 0.2-0.102 0.222 0.142 0.124 0.338-0.133 0.751-0.071 0.973 0.142 0.196 0.187 0.213 0.373 0.062 0.622-0.058 0.093-0.102 0.178-0.102 0.196 0 0.027 0.044 0.036 0.244 0.071 0.267 0.044 0.422 0.24 0.422 0.542 0 0.089-0.013 0.164-0.027 0.164s-0.116-0.040-0.222-0.084c-0.311-0.129-0.489-0.16-0.853-0.156-0.276 0-0.369 0.013-0.56 0.076-0.335 0.119-0.624 0.292-0.869 0.513l0.002-0.002c-0.284 0.253-0.462 0.333-0.738 0.329-0.258 0-0.431-0.076-0.524-0.222-0.049-0.080-0.058-0.124-0.044-0.302 0.009-0.116 0.004-0.209 0-0.209-0.013 0-0.111 0.062-0.222 0.138-0.237 0.172-0.508 0.32-0.798 0.432l-0.024 0.008c-0.818 0.306-1.763 0.482-2.749 0.482-0.32 0-0.636-0.019-0.947-0.055l0.038 0.004z"></path>
<path fill="#cf1126" d="M20.725 23.342c-1.795-0.17-3.343-1.099-4.339-2.459l-0.012-0.017c-1.084-1.476-1.422-3.427-1.093-5.209 0.178-0.813 0.533-1.627 1.133-2.204-0.319 0.646-0.505 1.407-0.505 2.211 0 0.387 0.043 0.763 0.125 1.125l-0.006-0.034c0.4 2.213 2.267 4.084 4.502 4.409 0.889 0.253 1.8-0.018 2.644-0.289 1.867-0.658 3.289-2.427 3.458-4.404 0.147-1.067-0.013-2.182-0.498-3.156 0.276 0.147 0.622 0.72 0.827 1.102 0.711 1.378 0.742 3.027 0.324 4.498-0.569 1.871-2 3.511-3.889 4.107-0.657 0.213-1.412 0.335-2.196 0.335-0.166 0-0.33-0.005-0.493-0.016l0.022 0.001z"></path>
<path fill="#cf1126" d="M12.089 20.885c-0.111-0.018-0.236 0.093-0.191 0.209 0.080 0.116 0.222 0.178 0.347 0.231 0.26 0.104 0.561 0.165 0.876 0.165 0.055 0 0.109-0.002 0.162-0.005l-0.007 0c0 0 0 0 0.001 0 0.271 0 0.53-0.049 0.77-0.138l-0.015 0.005c0.133-0.044 0.302-0.089 0.356-0.24 0.058-0.093-0.044-0.191-0.138-0.173-0.133 0.031-0.267 0.089-0.4 0.129-0.209 0.062-0.45 0.097-0.699 0.097-0.072 0-0.143-0.003-0.213-0.009l0.009 0.001c-0.239-0.035-0.454-0.101-0.655-0.193l0.015 0.006c-0.071-0.031-0.138-0.076-0.218-0.084z"></path>
<path fill="#cf1126" d="M12.213 20.422c-0.111-0.018-0.209 0.116-0.164 0.222 0.089 0.124 0.236 0.191 0.373 0.249 0.204 0.082 0.44 0.13 0.688 0.13 0.024 0 0.047-0 0.071-0.001l-0.003 0h0.067c0.002 0 0.005 0 0.007 0 0.228 0 0.446-0.046 0.644-0.129l-0.011 0.004c0.12-0.049 0.271-0.098 0.324-0.231 0.040-0.076 0.009-0.182-0.089-0.191-0.080 0-0.156 0.053-0.236 0.076-0.222 0.094-0.48 0.149-0.752 0.149-0.058 0-0.115-0.003-0.171-0.007l0.007 0c-0.196-0.022-0.378-0.093-0.556-0.178-0.067-0.031-0.124-0.080-0.2-0.089z"></path>
<path fill="#cf1126" d="M12.369 19.982c-0.098-0.013-0.164 0.098-0.147 0.182 0.013 0.080 0.080 0.133 0.138 0.178 0.212 0.148 0.475 0.237 0.759 0.237 0.024 0 0.047-0.001 0.071-0.002l-0.003 0h0.071c0.194-0.001 0.378-0.047 0.541-0.128l-0.007 0.003c0.111-0.044 0.24-0.102 0.28-0.231 0.018-0.058 0.027-0.142-0.040-0.178-0.071-0.036-0.138 0.022-0.2 0.044-0.2 0.107-0.437 0.171-0.688 0.173h-0.001c-0.217-0.009-0.416-0.074-0.587-0.181l0.005 0.003c-0.067-0.031-0.12-0.089-0.191-0.102z"></path>
<path fill="#cf1126" d="M10.733 13.453c-0.142 0.147-0.031 0.413-0.044 0.6 0.080 0.587 0.173 1.178 0.391 1.733 0.267 0.533 0.836 0.822 1.178 1.298 0.124 0.227 0.080 0.502 0.107 0.756 0.018 0.68 0.013 1.364 0 2.044 0.311 0.16 0.644 0.311 1 0.253 0.209-0.049 0.6-0.080 0.644-0.289l-0.044-3.533c-0.12-0.36-0.489-0.547-0.76-0.778-0.222-0.219-0.429-0.453-0.619-0.7l-0.012-0.016c-0.116-0.2-0.573-0.267-0.409 0.071 0.098 0.298 0.342 0.516 0.404 0.827 0.013 0.173 0.222 0.489 0.044 0.587-0.111-0.193-0.274-0.346-0.469-0.442l-0.006-0.003c-0.196-0.147-0.52-0.209-0.591-0.467-0.068-0.382-0.242-0.716-0.49-0.979l0.001 0.001c0.067-0.329 0-0.742-0.284-0.956l-0.040-0.009z"></path>
<path fill="#cf1126" d="M11.173 13.52c-0.133 0.022-0.124 0.187-0.067 0.276 0.042 0.117 0.066 0.253 0.066 0.394 0 0.071-0.006 0.141-0.018 0.209l0.001-0.007c0.236 0.262 0.402 0.589 0.469 0.952l0.002 0.012c0 0.133 0.142 0.178 0.236 0.244 0.218 0.138 0.458 0.24 0.653 0.413 0.040 0.044 0.071 0.089 0.044 0-0.031-0.116-0.044-0.24-0.133-0.324-0.124-0.133-0.276-0.249-0.453-0.284-0.013-0.187-0.102-0.356-0.182-0.516-0.089-0.156-0.182-0.32-0.333-0.418 0-0.271 0-0.556-0.116-0.809-0.036-0.062-0.089-0.138-0.169-0.142z"></path>
<path fill="#cf1126" d="M11.542 13.627c-0.089 0.027-0.071 0.142-0.044 0.209 0.030 0.142 0.047 0.306 0.047 0.473 0 0.040-0.001 0.080-0.003 0.119l0-0.006c0.173 0.133 0.276 0.329 0.373 0.516 0.062 0.124 0.116 0.258 0.138 0.396 0.138 0.044 0.258 0.133 0.364 0.222-0.044-0.124-0.133-0.222-0.2-0.342s-0.133-0.249-0.164-0.387c-0.133-0.138-0.204-0.338-0.178-0.533 0.009-0.209-0.058-0.427-0.2-0.587-0.036-0.036-0.080-0.076-0.133-0.080z"></path>
<path fill="#cf1126" d="M11.965 13.689c-0.053 0.009-0.080 0.053-0.107 0.093-0.013 0.040 0.036 0.080 0.044 0.124 0.043 0.106 0.068 0.228 0.068 0.357 0 0.037-0.002 0.074-0.006 0.11l0-0.004c-0.004 0.111 0.036 0.222 0.089 0.311 0.021-0.069 0.082-0.12 0.155-0.124l0.001-0c0.022 0 0.062 0.009 0.044-0.031-0.018-0.213-0.049-0.427-0.124-0.622-0.023-0.080-0.066-0.147-0.124-0.2l-0-0c-0.009-0.009-0.027-0.018-0.044-0.013z"></path>
<path fill="#cf1126" d="M30.578 20.885c0.111-0.018 0.236 0.093 0.191 0.209-0.080 0.116-0.222 0.178-0.347 0.231-0.26 0.104-0.561 0.165-0.876 0.165-0.055 0-0.109-0.002-0.162-0.005l0.007 0c-0 0-0 0-0.001 0-0.271 0-0.53-0.049-0.77-0.138l0.015 0.005c-0.133-0.044-0.302-0.089-0.356-0.24-0.058-0.093 0.044-0.191 0.138-0.173 0.133 0.031 0.267 0.089 0.4 0.129 0.209 0.062 0.45 0.097 0.699 0.097 0.072 0 0.143-0.003 0.213-0.009l-0.009 0.001c0.239-0.035 0.454-0.101 0.655-0.193l-0.015 0.006c0.071-0.031 0.138-0.076 0.218-0.084z"></path>
<path fill="#cf1126" d="M30.454 20.422c0.111-0.018 0.209 0.116 0.164 0.222-0.089 0.124-0.236 0.191-0.373 0.249-0.204 0.082-0.44 0.13-0.688 0.13-0.024 0-0.047-0-0.071-0.001l0.003 0h-0.067c-0.002 0-0.005 0-0.007 0-0.228 0-0.446-0.046-0.644-0.129l0.011 0.004c-0.12-0.049-0.271-0.098-0.324-0.231-0.040-0.076-0.009-0.182 0.089-0.191 0.080 0 0.156 0.053 0.236 0.076 0.222 0.094 0.48 0.149 0.752 0.149 0.058 0 0.115-0.003 0.171-0.007l-0.007 0c0.196-0.022 0.378-0.093 0.556-0.178 0.067-0.031 0.124-0.080 0.2-0.089z"></path>
<path fill="#cf1126" d="M30.298 19.982c0.098-0.013 0.164 0.098 0.147 0.182-0.013 0.080-0.080 0.133-0.138 0.178-0.212 0.148-0.475 0.237-0.759 0.237-0.024 0-0.047-0.001-0.071-0.002l0.003 0h-0.071c-0.194-0.001-0.378-0.047-0.541-0.128l0.007 0.003c-0.111-0.044-0.24-0.102-0.28-0.231-0.018-0.058-0.027-0.142 0.040-0.178 0.071-0.036 0.138 0.022 0.2 0.044 0.2 0.107 0.437 0.171 0.688 0.173h0.001c0.217-0.009 0.416-0.074 0.587-0.181l-0.005 0.003c0.067-0.031 0.12-0.089 0.191-0.102z"></path>
<path fill="#cf1126" d="M31.934 13.453c0.142 0.147 0.031 0.413 0.044 0.6-0.080 0.587-0.173 1.178-0.391 1.733-0.267 0.533-0.836 0.822-1.178 1.298-0.124 0.227-0.080 0.502-0.107 0.756-0.018 0.68-0.013 1.364 0 2.044-0.311 0.16-0.644 0.311-1 0.253-0.209-0.049-0.6-0.080-0.644-0.289l0.044-3.533c0.12-0.36 0.489-0.547 0.76-0.778 0.222-0.219 0.429-0.453 0.619-0.7l0.012-0.016c0.116-0.2 0.573-0.267 0.409 0.071-0.098 0.298-0.342 0.516-0.404 0.827-0.013 0.173-0.222 0.489-0.044 0.587 0.111-0.193 0.274-0.346 0.469-0.442l0.006-0.003c0.196-0.147 0.52-0.209 0.591-0.467 0.068-0.382 0.242-0.716 0.49-0.979l-0.001 0.001c-0.067-0.329 0-0.742 0.284-0.956l0.040-0.009z"></path>
<path fill="#cf1126" d="M31.494 13.52c0.133 0.022 0.124 0.187 0.067 0.276-0.042 0.117-0.066 0.253-0.066 0.394 0 0.071 0.006 0.141 0.018 0.209l-0.001-0.007c-0.236 0.262-0.402 0.589-0.469 0.952l-0.002 0.012c0 0.133-0.142 0.178-0.236 0.244-0.218 0.138-0.458 0.24-0.653 0.413-0.040 0.044-0.071 0.089-0.044 0 0.031-0.116 0.044-0.24 0.133-0.324 0.124-0.133 0.276-0.249 0.453-0.284 0.013-0.187 0.102-0.356 0.182-0.516 0.089-0.156 0.182-0.32 0.333-0.418 0-0.271 0-0.556 0.116-0.809 0.036-0.062 0.089-0.138 0.169-0.142z"></path>
<path fill="#cf1126" d="M31.125 13.627c0.089 0.027 0.071 0.142 0.044 0.209-0.030 0.142-0.047 0.306-0.047 0.473 0 0.040 0.001 0.080 0.003 0.119l-0-0.006c-0.173 0.133-0.276 0.329-0.373 0.516-0.062 0.124-0.116 0.258-0.138 0.396-0.138 0.044-0.258 0.133-0.364 0.222 0.044-0.124 0.133-0.222 0.2-0.342s0.133-0.249 0.164-0.387c0.133-0.138 0.204-0.338 0.178-0.533-0.009-0.209 0.058-0.427 0.2-0.587 0.036-0.036 0.080-0.076 0.133-0.080z"></path>
<path fill="#cf1126" d="M30.702 13.689c0.053 0.009 0.080 0.053 0.107 0.093 0.013 0.040-0.036 0.080-0.044 0.124-0.043 0.106-0.068 0.228-0.068 0.357 0 0.037 0.002 0.074 0.006 0.11l-0-0.004c0.004 0.111-0.036 0.222-0.089 0.311-0.021-0.069-0.082-0.12-0.155-0.124l-0-0c-0.022 0-0.062 0.009-0.044-0.031 0.018-0.213 0.049-0.427 0.124-0.622 0.023-0.080 0.066-0.147 0.124-0.2l0-0c0.009-0.009 0.027-0.018 0.044-0.013z"></path>
<path fill="#cf1126" d="M21.142 21.156c-0.622-0.069-1.13-0.489-1.326-1.056l-0.003-0.011c0.013-0.098 0.133 0.053 0.191 0.067 0.102 0.062 0.223 0.103 0.352 0.115l0.003 0c0.156 0.067 0.253 0.222 0.404 0.307 0.071 0.053 0.32 0.16 0.271-0.013-0.058-0.089-0.098-0.204-0.044-0.311 0.080-0.182 0.209-0.342 0.342-0.498 0.093-0.031 0.16 0.16 0.227 0.222 0.093 0.147 0.209 0.324 0.151 0.502-0.053 0.067-0.089 0.267 0.058 0.204 0.178-0.080 0.324-0.213 0.471-0.338 0.133-0.089 0.298-0.093 0.431-0.178 0.067-0.013 0.196-0.138 0.222-0.071-0.085 0.21-0.196 0.39-0.331 0.55l0.002-0.003c-0.209 0.247-0.498 0.422-0.827 0.483l-0.009 0.001c-0.196 0.036-0.391 0.044-0.587 0.027z"></path>
<path fill="#cf1126" d="M21.845 20.453c0.013-0.12-0.013-0.24-0.076-0.356-0.093-0.187-0.222-0.356-0.356-0.529-0.124-0.071-0.191 0.164-0.271 0.231-0.129 0.191-0.289 0.387-0.298 0.622-0.071 0.111-0.204-0.089-0.262-0.156-0.111-0.142-0.178-0.322-0.178-0.518 0-0.005 0-0.010 0-0.016v0.001c-0.001-0.023-0.001-0.050-0.001-0.077 0-0.302 0.059-0.59 0.167-0.853l-0.005 0.015c0.089-0.249 0.227-0.489 0.213-0.756 0.009-0.209-0.031-0.431-0.196-0.569-0.16-0.124 0.102-0.151 0.182-0.089 0.142 0.013 0.218 0.244 0.347 0.187 0.049-0.12 0.062-0.267 0.169-0.36 0.102-0.142 0.209 0.058 0.244 0.156 0.076 0.080 0 0.289 0.116 0.293 0.142-0.102 0.244-0.267 0.427-0.307 0.076-0.044 0.2 0 0.102 0.080-0.133 0.129-0.249 0.284-0.276 0.476-0.040 0.236 0.018 0.476 0.12 0.684 0.2 0.418 0.356 0.889 0.253 1.356-0.044 0.204-0.187 0.382-0.356 0.502-0.022 0.013-0.058 0.013-0.067-0.018z"></path>
<path fill="#cf1126" d="M21.631 17.316c-0.062-0.123-0.146-0.227-0.247-0.31l-0.002-0.001c-0.107 0-0.173 0.133-0.244 0.204-0.049 0.093-0.111 0.249-0.236 0.129-0.2-0.116-0.231-0.369-0.231-0.578-0.013-0.338 0.124-0.653 0.244-0.96 0.076-0.191 0.058-0.409 0.009-0.604-0.058-0.222-0.24-0.382-0.378-0.56 0.009-0.067 0.187-0.031 0.253-0.018 0.151 0.040 0.24 0.169 0.351 0.267 0.080-0.027 0.044-0.187 0.084-0.262 0-0.107 0.142-0.244 0.2-0.093 0.089 0.098 0 0.289 0.111 0.347 0.107-0.040 0.16-0.156 0.258-0.209 0.055-0.036 0.121-0.057 0.193-0.057 0.056 0 0.109 0.013 0.156 0.036l-0.002-0.001c0.040 0.098-0.116 0.178-0.16 0.267-0.124 0.154-0.199 0.352-0.199 0.567 0 0.083 0.011 0.163 0.032 0.239l-0.001-0.006c0.062 0.222 0.169 0.422 0.209 0.644 0.020 0.1 0.031 0.214 0.031 0.332 0 0.154-0.019 0.303-0.056 0.445l0.003-0.012c-0.040 0.151-0.169 0.249-0.302 0.311-0.036-0.031-0.053-0.076-0.076-0.116z"></path>
<path fill="#cf1126" d="M20.96 14.529c-0.151-0.111-0.2-0.213-0.2-0.422 0-0.102 0.022-0.16 0.089-0.258 0.107-0.142 0.089-0.187-0.058-0.147-0.236 0.067-0.347 0.009-0.356-0.191 0-0.098 0.018-0.138 0.147-0.298 0.107-0.124 0.147-0.191 0.124-0.213-0.022-0.018-0.147 0.089-0.4 0.347-0.158 0.166-0.323 0.32-0.497 0.464l-0.009 0.008c-0.436 0.293-0.853 0.338-1.044 0.111-0.098-0.116-0.093-0.178 0.018-0.249 0.073-0.050 0.137-0.104 0.195-0.164l0-0c0.21-0.192 0.444-0.363 0.697-0.506l0.019-0.010c0.16-0.080 0.196-0.133 0.093-0.133-0.133 0-0.556 0.276-0.88 0.569-0.093 0.089-0.231 0.187-0.302 0.222-0.115 0.043-0.248 0.068-0.387 0.068-0.082 0-0.162-0.009-0.238-0.025l0.007 0.001c-0.098-0.031-0.28-0.2-0.28-0.262 0-0.013 0.044-0.049 0.089-0.080 0.078-0.044 0.144-0.091 0.206-0.144l-0.002 0.002c0.258-0.222 0.747-0.458 1.133-0.542 0.124-0.022 0.076-0.089-0.062-0.080-0.428 0.084-0.803 0.266-1.115 0.523l0.004-0.003c-0.369 0.307-0.924 0.276-1.102-0.058-0.031-0.058-0.053-0.111-0.044-0.12 0.345-0.088 0.647-0.207 0.929-0.357l-0.022 0.011c0.231-0.139 0.502-0.24 0.791-0.287l0.013-0.002c0.124-0.022 0.133-0.084 0.013-0.098-0.16-0.018-0.4 0.062-0.822 0.267-0.547 0.271-0.702 0.32-0.987 0.302-0.267-0.018-0.413-0.084-0.622-0.284-0.142-0.133-0.338-0.467-0.302-0.507 0.175 0.038 0.375 0.060 0.581 0.060 0.043 0 0.085-0.001 0.128-0.003l-0.006 0c0.369 0 0.471-0.009 0.667-0.067 0.407-0.131 0.761-0.314 1.077-0.545l-0.011 0.007c0.438-0.373 1.010-0.601 1.635-0.604h0.001c0.551 0 0.898 0.124 1.209 0.44 0.107 0.107 0.196 0.173 0.209 0.16s0.027-0.2 0.031-0.413c0 0 0.164-0.018 0.2 0.031 0 0.342 0 0.373 0.053 0.373 0.031 0 0.067-0.036 0.089-0.089 0.044-0.111 0.222-0.267 0.409-0.364 0.4-0.2 1.098-0.209 1.658-0.013 0.284 0.109 0.529 0.252 0.748 0.427l-0.006-0.004c0.306 0.218 0.66 0.399 1.038 0.525l0.028 0.008c0.302 0.089 0.844 0.111 1.116 0.044 0.061-0.015 0.143-0.031 0.225-0.043l0.015-0.002c0.102 0-0.071 0.338-0.276 0.538-0.373 0.364-0.858 0.36-1.538-0.004-0.427-0.231-0.933-0.356-0.933-0.231 0 0.027 0.027 0.044 0.067 0.044 0.147 0 0.431 0.098 0.831 0.289 0.234 0.138 0.508 0.239 0.799 0.287l0.014 0.002c0.102 0 0.107 0.067 0.009 0.209-0.102 0.151-0.276 0.222-0.52 0.222-0.236 0-0.369-0.049-0.578-0.222-0.356-0.293-1.227-0.622-1.196-0.444 0.009 0.031 0.049 0.053 0.142 0.067 0.395 0.088 0.74 0.258 1.031 0.493l-0.005-0.004 0.262 0.191c0.049 0.027 0.049 0.036 0.009 0.111-0.062 0.124-0.231 0.218-0.409 0.236-0.231 0.027-0.436-0.044-0.644-0.222-0.444-0.369-0.858-0.636-0.991-0.636-0.111 0-0.062 0.062 0.133 0.164 0.267 0.143 0.497 0.305 0.706 0.492l-0.003-0.003c0.089 0.084 0.191 0.164 0.222 0.182 0.084 0.044 0.080 0.107-0.009 0.222s-0.24 0.169-0.431 0.147c-0.382-0.040-0.684-0.222-1.156-0.711-0.112-0.125-0.231-0.238-0.359-0.342l-0.006-0.005c-0.062 0-0.022 0.084 0.098 0.222 0.151 0.164 0.178 0.258 0.12 0.4-0.049 0.116-0.133 0.147-0.302 0.098-0.178-0.044-0.204 0-0.089 0.138 0.169 0.218 0.147 0.476-0.067 0.658-0.043 0.041-0.093 0.076-0.148 0.101l-0.003 0.001c-0.018 0-0.062-0.044-0.102-0.107-0.133-0.204-0.253-0.204-0.387 0-0.034 0.054-0.063 0.098-0.094 0.14l0.005-0.007c-0.059-0.042-0.103-0.074-0.145-0.107l0.012 0.009z"></path>
<path fill="#cf1126" d="M21.631 10.356l-0.231 0.178-0.204-0.151v1.236h0.436z"></path>
<path fill="#cf1126" d="M20.218 9.080c-0.044 0.53-0.187 1.018-0.41 1.458l0.010-0.022 0.493-0.458 0.342 0.409 0.373-0.418 0.378 0.356 0.364-0.369 0.378 0.444 0.329-0.364 0.56 0.4c-0.204-0.444-0.476-0.827-0.444-1.458-0.538 0.4-1.822 0.471-2.373 0.018z"></path>
<path fill="#cf1126" d="M21.2 8.782c-0.2 0-0.409 0.004-0.596 0.044-0.131 0.021-0.248 0.068-0.35 0.135l0.003-0.002c0.013 0.382 1.822 0.538 2.307 0.009-0.103-0.072-0.226-0.124-0.359-0.146l-0.005-0.001c-0.178-0.036-0.382-0.036-0.573-0.044v0.316h-0.427v-0.311z"></path>
<path fill="#cf1126" d="M21.551 6.844h-0.28v2.196h0.284z"></path>
<path fill="#cf1126" d="M21.551 6.898l-0.107 1.053 1.080 0.529-0.547-0.733 0.747-0.244zM21.431 6.627c-0.164 0-0.284 0.062-0.284 0.133s0.12 0.133 0.284 0.133 0.284-0.062 0.284-0.133-0.12-0.133-0.284-0.133z"></path>
<path fill="#f7e017" d="M20.933 25.060c0.18-0.060 0.28-0.167 0.353-0.373 0.033-0.107 0.060-0.213 0.053-0.24-0.013-0.067-0.093-0.067-0.173 0.007-0.060 0.047-0.067 0.073-0.053 0.173 0.047 0.247-0.047 0.313-0.513 0.36-0.047 0-0.187 0-0.3-0.020-0.227-0.027-0.307 0-0.227 0.067 0.040 0.026 0.087 0.047 0.137 0.059l0.003 0.001c0.127 0.033 0.587 0.013 0.72-0.033zM21.913 25.020c0.027-0.027 0.113-0.067 0.2-0.1 0.113-0.033 0.173-0.067 0.22-0.147 0.14-0.2 0.113-0.38-0.087-0.62-0.113-0.133-0.16-0.127-0.247 0.020-0.080 0.12-0.073 0.133 0.033 0.16 0.060 0.013 0.113 0.053 0.14 0.107 0.12 0.207 0.087 0.333-0.093 0.333-0.16 0-0.2 0.027-0.247 0.133l-0.040 0.127c0 0.040 0.067 0.033 0.12-0.013zM21.593 24.787c0.027-0.087 0.040-0.233 0.033-0.533 0.002-0.033 0.003-0.072 0.003-0.111 0-0.111-0.008-0.221-0.024-0.328l0.001 0.012c-0.027-0.027-0.153 0.053-0.173 0.113-0.001 0.008-0.002 0.017-0.002 0.027 0 0.042 0.013 0.082 0.036 0.114l-0-0.001c0.040 0.080 0.047 0.16 0.033 0.467-0.020 0.4 0.007 0.467 0.093 0.24z"></path>
<path fill="#f7e017" d="M20.84 24.6l0.047-0.333c0.007-0.113 0.033-0.253 0.047-0.313 0.047-0.153 0-0.193-0.12-0.107l-0.087 0.067 0.013 0.22c0.020 0.2-0.013 0.567-0.060 0.713-0.013 0.040 0.007 0.027 0.060-0.033 0.040-0.047 0.087-0.147 0.1-0.22zM20.173 24.707c0.16-0.133 0.14-0.373 0.18-0.56 0-0.127 0.080-0.273 0.027-0.387-0.153 0.027-0.247 0.173-0.167 0.313 0 0.167 0 0.347-0.087 0.493-0.067 0.1-0.293 0.073-0.28-0.067 0.053-0.2-0.193-0.1-0.287-0.047-0.073 0.053-0.233 0.060-0.173-0.067-0.040-0.18-0.26-0.067-0.38-0.067-0.113 0-0.007-0.233-0.173-0.2-0.3-0.020-0.633 0.007-0.9-0.173-0.153-0.073-0.133-0.26-0.047-0.38 0.093-0.16 0.12-0.367 0.267-0.493 0.153-0.14-0.133-0.080-0.2-0.033-0.147 0.080-0.013 0.287-0.133 0.4-0.067 0.12-0.16 0.28-0.32 0.26-0.233-0.047-0.367-0.267-0.533-0.4-0.147-0.033-0.067 0.227 0.013 0.28 0.14 0.106 0.305 0.188 0.483 0.238l0.010 0.002c0.173-0.033 0.18 0.2 0.333 0.233 0.267 0.133 0.573 0.167 0.873 0.187 0.12 0.007 0.053 0.22 0.207 0.173 0.087 0.027 0.287-0.033 0.293 0.067-0.133 0.16 0.127 0.153 0.22 0.133 0.127-0.027 0.28-0.067 0.313 0.093 0.1 0.113 0.287 0.093 0.413 0.033l0.047-0.033z"></path>
<path fill="#f7e017" d="M17.52 23.36c0.058-0.081 0.112-0.173 0.156-0.27l0.004-0.010c0.037-0.092 0.082-0.171 0.135-0.243l-0.002 0.003c0.080-0.080 0.033-0.133-0.093-0.107-0.067 0.013-0.093 0.040-0.1 0.1-0.033 0.175-0.091 0.332-0.171 0.474l0.004-0.008c-0.113 0.167-0.113 0.173-0.067 0.173 0.020 0 0.080-0.053 0.133-0.113zM15.853 22.313c-0.127 0-0.133 0.080-0.013 0.12 0.067 0.020 0.113 0.067 0.153 0.153 0.113 0.233 0.187 0.28 0.5 0.307l0.2 0.013 0.013 0.127c0 0.067 0.020 0.12 0.033 0.12l0.173-0.067c0.147-0.080 0.287-0.253 0.287-0.367 0-0.067-0.12-0.147-0.227-0.147-0.047 0-0.133 0.040-0.207 0.093-0.227 0.16-0.467 0.133-0.6-0.080-0.1-0.173-0.213-0.267-0.313-0.267zM16.94 22.747c0.060 0 0.067 0.047 0.040 0.133-0.008 0.024-0.031 0.040-0.057 0.040s-0.048-0.017-0.057-0.040l-0-0c-0.027-0.067 0.007-0.133 0.067-0.133zM25.373 22.48c-0.087 0-0.107 0.013-0.16 0.093-0.087 0.127-0.093 0.4-0.013 0.493 0.047 0.060 0.053 0.060 0.153 0.013 0.147-0.060 0.173-0.053 0.167 0.020 0 0.2-0.28 0.58-0.573 0.78-0.062 0.037-0.115 0.081-0.159 0.133l-0.001 0.001c-0.020 0.053 0.087 0.047 0.22-0.027 0.222-0.129 0.4-0.31 0.523-0.526l0.004-0.007c0.073-0.153 0.087-0.2 0.1-0.467 0-0.253 0-0.333-0.040-0.413-0.053-0.093-0.067-0.1-0.187-0.1h-0.033zM25.38 22.647c0.067 0 0.067 0.013 0.080 0.107 0 0.067-0.007 0.113-0.047 0.153-0.053 0.047-0.067 0.047-0.107-0.027-0.067-0.107-0.027-0.233 0.073-0.233zM24.033 24.547c0.26-0.133 0.413-0.273 0.507-0.48 0.031-0.058 0.060-0.126 0.084-0.197l0.003-0.009c0-0.040-0.127-0.1-0.2-0.1s-0.093-0.053-0.067-0.2c0.033-0.14 0-0.32-0.067-0.32-0.020 0-0.067 0.033-0.087 0.073-0.040 0.067-0.047 0.093-0.013 0.18 0.047 0.133 0.007 0.24-0.113 0.327-0.060 0.040-0.087 0.087-0.087 0.133l0.007 0.067 0.14-0.067 0.133-0.080 0.073 0.067c0.047 0.027 0.080 0.080 0.080 0.113 0 0.16-0.453 0.427-0.76 0.453-0.167 0.013-0.2 0-0.253-0.053-0.047-0.047-0.060-0.087-0.047-0.133l0.033-0.173c0.027-0.14-0.027-0.12-0.133 0.040-0.080 0.133-0.107 0.273-0.060 0.347 0.040 0.067 0.293 0.12 0.48 0.107 0.113 0 0.227-0.033 0.347-0.093zM25.767 23.58c0.16-0.167 0.233-0.367 0.233-0.667v-0.233l0.133-0.067c0.18-0.080 0.347-0.247 0.347-0.34s-0.047-0.093-0.12 0.013c-0.060 0.073-0.133 0.12-0.4 0.247-0.067 0.027-0.073 0.047-0.093 0.333-0.013 0.333-0.067 0.453-0.247 0.68-0.113 0.133-0.12 0.16-0.040 0.16 0.033 0 0.12-0.060 0.187-0.133zM23.987 23.393c0.013-0.047-0.080-0.080-0.113-0.040-0.020 0.013-0.027 0.040-0.013 0.060 0.027 0.040 0.107 0.027 0.127-0.020zM26.44 22.76c0.020-0.053-0.073-0.087-0.113-0.047-0.013 0.020-0.020 0.047-0.007 0.067 0.027 0.040 0.107 0.027 0.12-0.020zM23.487 21.033c-0.067 0.033-0.1 0.1-0.14 0.153-0.033 0.020-0.007 0.040 0.007 0.067 0.113 0.113 0.16 0.28 0.213 0.433 0.053 0.18 0.12 0.373 0.067 0.56-0.020 0.067-0.080 0.14-0.16 0.12-0.133-0.007-0.267-0.047-0.4-0.047-0.127 0.007-0.22 0.12-0.34 0.107-0.080 0-0.080-0.16-0.147-0.113-0.040 0.087-0.020 0.18-0.027 0.267 0.013 0.020 0.053 0.007 0.073 0.013h0.247c0.013 0.080 0.013 0.18 0.067 0.247 0.087 0.027 0.187 0 0.267-0.033 0.080-0.040 0.093-0.14 0.12-0.22 0.027-0.087 0.133-0.067 0.2-0.1 0.156-0.050 0.267-0.193 0.267-0.363 0-0.006-0-0.012-0-0.018l0 0.001c-0.013-0.26-0.107-0.493-0.187-0.733-0.033-0.107-0.060-0.22-0.1-0.327l-0.027-0.013zM23.087 22.487c0.087 0 0.127 0.107 0.107 0.18-0.033 0.1-0.16 0.040-0.18-0.033-0.047-0.067-0.020-0.153 0.067-0.147z"></path>
<path fill="#f7e017" d="M19.733 21.653c-0.040 0-0.087 0.013-0.133 0.047-0.233 0.167-0.3 0.36-0.133 0.44 0.113 0.053 0.087 0.12-0.1 0.213-0.267 0.133-0.5 0.113-0.947-0.067-0.107-0.047-0.133-0.027-0.113 0.067 0.027 0.1 0.12 0.153 0.34 0.2 0.24 0.067 0.533 0.047 0.72-0.033 0.113-0.058 0.208-0.134 0.286-0.225l0.001-0.001 0.147-0.153 0.167 0.020c0.207 0.027 0.213 0.027 0.213 0.127 0 0.080 0 0.080 0.193 0.1l0.313 0.013c0.087 0 0.133 0.020 0.16 0.060 0.040 0.047 0.060 0.053 0.373 0.027 0.293-0.027 0.347-0.027 0.48 0.020 0.093 0.027 0.2 0.040 0.273 0.033 0.227-0.027 0.533-0.207 0.58-0.34 0-0.020 0.087-0.047 0.18-0.067 0.227-0.047 0.233-0.093 0.027-0.12-0.115-0.015-0.218-0.041-0.317-0.077l0.011 0.003c-0.068-0.030-0.147-0.051-0.23-0.060l-0.004-0c-0.113 0-0.22 0.067-0.22 0.147 0 0.047 0.013 0.053 0.153 0.040 0.12-0.013 0.16-0.007 0.227 0.047 0.047 0.033 0.073 0.073 0.067 0.087-0.033 0.053-0.3 0.173-0.413 0.193-0.015 0.003-0.033 0.004-0.051 0.004-0.055 0-0.106-0.014-0.15-0.038l0.002 0.001c-0.107-0.053-0.253-0.060-0.287-0.013-0.013 0.020-0.040 0.007-0.087-0.033l-0.067-0.067-0.16 0.067c-0.16 0.067-0.22 0.067-0.22-0.013 0-0.033-0.047-0.040-0.28-0.020-0.26 0.013-0.287 0.007-0.333-0.047-0.047-0.047-0.047-0.067-0.013-0.113 0.027-0.053 0.027-0.067 0-0.1-0.027-0.027-0.067-0.027-0.167 0-0.26 0.067-0.333 0.033-0.333-0.167 0-0.127-0.067-0.2-0.153-0.2zM19.667 21.84c0.013 0 0.027 0.007 0.047 0.027s0.033 0.067 0.020 0.087c-0.020 0.060-0.133 0.060-0.153 0-0.013-0.033 0-0.067 0.033-0.087l0.053-0.027z"></path>
<path fill="#f7e017" d="M19.2 22.027c0.16-0.1 0.16-0.093 0.18-0.367 0.013-0.2 0.013-0.213-0.040-0.213-0.080 0-0.12 0.087-0.12 0.247 0 0.107-0.013 0.153-0.067 0.2-0.133 0.133-0.453 0.073-0.5-0.087-0.013-0.053 0.007-0.107 0.073-0.2 0.14-0.2 0.113-0.253-0.067-0.1-0.113 0.107-0.133 0.107-0.113 0.020s-0.020-0.12-0.12-0.093c-0.047 0.013-0.080 0.040-0.087 0.107-0.013 0.053-0.040 0.087-0.087 0.1-0.080 0.020-0.213-0.053-0.213-0.12 0-0.047 0.2-0.293 0.46-0.56 0.093-0.1 0.173-0.2 0.173-0.207 0-0.013-0.053-0.027-0.113-0.027-0.093 0-0.12 0.013-0.12 0.053 0 0.027-0.127 0.2-0.287 0.38-0.333 0.373-0.36 0.447-0.2 0.547 0.060 0.037 0.132 0.059 0.21 0.059 0.086 0 0.166-0.027 0.231-0.074l-0.001 0.001 0.107-0.073v0.133c0 0.167 0.033 0.233 0.167 0.3 0.071 0.037 0.155 0.059 0.244 0.059 0.108 0 0.208-0.032 0.292-0.087l-0.002 0.001zM26.16 19.72c-0.12 0.073-0.027 0.227 0 0.333-0.053 0.133-0.233 0.173-0.367 0.2-0.187 0.033-0.32 0.187-0.387 0.353-0.040 0.107-0.133 0.267-0.233 0.107-0.087-0.087-0.247-0.16-0.347-0.053-0.080 0.073-0.1 0.18-0.133 0.28-0.047-0.073-0.067-0.187-0.16-0.213-0.16 0.020-0.1 0.22-0.027 0.3 0.067 0.1 0.133 0.22 0.067 0.333-0.067 0.133-0.267 0.227-0.38 0.113-0.107-0.060-0.033-0.267-0.147-0.28-0.053 0.040-0.053 0.26-0.14 0.14-0.067-0.1-0.027-0.24-0.107-0.327-0.087 0.013-0.16 0.167-0.133 0.247 0.12 0.16 0.173 0.36 0.22 0.553 0.027 0.080-0.007 0.233 0.067 0.267 0.047-0.127 0-0.267 0.040-0.393 0.12-0.013 0.247 0.040 0.367 0.013 0.18-0.020 0.313-0.173 0.373-0.327 0.020-0.12 0-0.24-0.007-0.36 0.133 0.027 0.28 0.027 0.413 0.067 0.067 0.1-0.020 0.247-0.040 0.353-0.067 0.227-0.247 0.387-0.413 0.533-0.073 0.047-0.080 0.16 0.020 0.1 0.228-0.11 0.404-0.297 0.498-0.527l0.002-0.007c0.073-0.173 0.013-0.367 0.067-0.54 0.067-0.133 0.233-0.107 0.36-0.107s0.233-0.153 0.193-0.28c-0.040-0.147 0.113-0.213 0.213-0.267 0.14-0.067 0.247-0.207 0.233-0.367 0-0.087 0-0.24-0.113-0.247zM25.673 20.553c0.147 0.040-0.027 0.32-0.107 0.14-0.027-0.067 0.033-0.14 0.107-0.14zM24.987 20.753c0.193-0.007 0.12 0.267-0.040 0.147-0.087-0.047-0.060-0.147 0.040-0.147zM18 21.84c0-0.027-0.013-0.047-0.040-0.047-0.047 0-0.080 0.047-0.060 0.087 0.027 0.047 0.087 0.020 0.1-0.040zM20.267 21.6c0-0.047-0.020-0.060-0.053-0.053-0.073 0.013-0.087 0.113-0.007 0.113 0.040 0 0.060-0.020 0.060-0.067zM17.467 20.24c-0.087-0.020-0.147 0.060-0.18 0.133-0.067 0.113-0.147 0.227-0.267 0.287-0.087 0.027-0.18-0.007-0.26-0.053-0.087-0.047-0.067-0.153-0.107-0.227-0.067-0.053-0.18 0.020-0.173 0.1-0.007 0.107 0.087 0.167 0.173 0.207 0.067 0.047 0.173 0.067 0.2 0.153 0 0.073 0.027 0.16 0.113 0.133 0.1 0 0.133 0.12 0.087 0.193-0.033 0.058-0.052 0.128-0.052 0.202 0 0.023 0.002 0.045 0.005 0.067l-0-0.002c0.047 0.047 0.093-0.067 0.133-0.093l0.067-0.093c0.18 0.007 0.353 0.033 0.533 0.027 0.133 0 0.233-0.080 0.313-0.173 0.12-0.12 0.213-0.26 0.34-0.36 0.093-0.027 0.047-0.2-0.053-0.147-0.087 0.033-0.113 0.133-0.173 0.193-0.099 0.13-0.209 0.244-0.33 0.344l-0.003 0.003c-0.1 0.040-0.207 0.020-0.307 0-0.040-0.033 0.080-0.067 0.1-0.107 0.053-0.053 0.12-0.107 0.153-0.18-0.033-0.067-0.127-0.067-0.193-0.067-0.16 0.013-0.287 0.153-0.453 0.167-0.127 0-0.060-0.133 0-0.18 0.107-0.133 0.227-0.253 0.34-0.38 0.033-0.040 0.153-0.080 0.080-0.133-0.027-0.013-0.060-0.013-0.087-0.013zM17.547 20.907c0.087 0.047-0.053 0.12-0.107 0.113-0.073 0.020-0.080-0.053-0.013-0.067 0.040-0.027 0.080-0.047 0.12-0.047zM17.293 21.080c0.047 0 0.147 0.047 0.053 0.073-0.067 0.053-0.133-0.053-0.053-0.073z"></path>
<path fill="#f7e017" d="M19.293 21.187c0-0.067-0.107-0.053-0.12 0.013-0.013 0.040 0 0.047 0.053 0.040 0.040 0 0.067-0.027 0.067-0.053zM24.273 20.747c0.013-0.060-0.067-0.1-0.113-0.053-0.047 0.040 0 0.127 0.053 0.113 0.027 0 0.053-0.033 0.067-0.060zM16.533 20.14c0.073-0.067 0.080-0.073 0.047-0.22-0.053-0.207-0.047-0.233 0.033-0.253 0.1-0.020 0.353 0.113 0.4 0.22 0.053 0.087 0.047 0.093-0.027 0.16-0.080 0.073-0.080 0.16 0 0.16 0.067 0 0.247-0.173 0.247-0.233 0-0.087-0.2-0.293-0.36-0.367-0.088-0.042-0.192-0.067-0.301-0.067-0.002 0-0.004 0-0.006 0h0c-0.207 0-0.233 0.047-0.18 0.28 0.067 0.28-0.020 0.32-0.247 0.107-0.145-0.128-0.235-0.314-0.235-0.521 0-0.019 0.001-0.037 0.002-0.055l-0 0.002c0-0.267 0.107-0.407 0.34-0.44 0.16-0.020 0.153-0.060 0-0.080-0.24-0.040-0.44 0.12-0.513 0.4-0.087 0.313 0.107 0.693 0.447 0.887 0.18 0.1 0.247 0.107 0.353 0.020zM25.813 19.793c0.020-0.013 0.033-0.060 0.033-0.093s0.033-0.107 0.073-0.16c0.040-0.053 0.067-0.107 0.067-0.12 0-0.053-0.087-0.053-0.153 0-0.073 0.060-0.133 0.067-0.133 0l0.080-0.060c0.107-0.047 0.113-0.1 0.027-0.14-0.113-0.053-0.233 0.040-0.24 0.2-0.007 0.107 0 0.12 0.080 0.167 0.073 0.047 0.087 0.067 0.073 0.133-0.020 0.107 0.027 0.147 0.093 0.073zM26.68 19.7c0.067-0.067 0.12-0.127 0.12-0.147s0.060-0.080 0.127-0.133c0.187-0.133 0.233-0.267 0.147-0.487-0.033-0.087-0.133-0.2-0.367-0.4-0.105-0.112-0.223-0.209-0.353-0.289l-0.007-0.004c-0.060 0-0.047 0.227 0.013 0.247 0.113 0.040 0.187 0.087 0.36 0.247 0.213 0.187 0.307 0.367 0.253 0.467-0.047 0.093-0.113 0.067-0.3-0.133-0.061-0.075-0.131-0.139-0.21-0.191l-0.003-0.002c-0.020 0-0.033 0.040-0.033 0.093 0 0.067 0.033 0.133 0.133 0.233 0.153 0.173 0.167 0.273 0.047 0.367-0.026 0.027-0.057 0.049-0.091 0.066l-0.002 0.001c-0.157-0.265-0.357-0.487-0.594-0.662l-0.006-0.004c-0.020 0-0.033 0.027-0.033 0.093 0 0.087 0.013 0.113 0.080 0.147 0.177 0.137 0.33 0.29 0.462 0.461l0.004 0.006 0.12 0.133c0.051-0.032 0.095-0.070 0.133-0.113l0.001-0.001zM27.080 18.58c-0.033-0.080-0.56-0.627-0.62-0.627-0.027 0-0.033 0.033-0.027 0.12 0 0.107 0.020 0.12 0.093 0.14 0.118 0.069 0.218 0.151 0.306 0.246l0.001 0.001c0.071 0.077 0.152 0.143 0.242 0.197l0.005 0.003v-0.080zM23.893 24.753c0.002 0.006 0.003 0.012 0.003 0.019 0 0.037-0.036 0.067-0.080 0.067s-0.080-0.030-0.080-0.067c0-0.007 0.001-0.013 0.003-0.020l-0 0c-0.002-0.006-0.003-0.012-0.003-0.019 0-0.037 0.036-0.067 0.080-0.067s0.080 0.030 0.080 0.067c0 0.007-0.001 0.013-0.003 0.020l0-0zM24.173 24.66c0 0.037-0.036 0.067-0.080 0.067s-0.080-0.030-0.080-0.067v0c0-0.037 0.036-0.067 0.080-0.067s0.080 0.030 0.080 0.067v0z"></path>
</svg>
