<!-- Generated by IcoMoon.io -->
<svg version="1.1" xmlns="http://www.w3.org/2000/svg" width="43" height="32" viewBox="0 0 43 32">
<title>bo</title>
<path fill="#a05a2c" d="M24.573 14.047l-6.533 6.527c-0.015-0.012-0.043-0.034-0.072-0.056l-0.015-0.011 6.533-6.52c0.033 0.019 0.061 0.041 0.087 0.067v0z"></path>
<path fill="#e7e7e7" d="M24.98 13.633c-0.027 0.047-0.093 0.167-0.067 0.253l-0.133-0.1c0.033 0.067 0.027 0.093-0.007 0.12-0.020 0.027-0.093 0.020-0.14 0.013 0.047 0.027 0.1 0.053 0.16 0.067h0.133c-0.047 0.020-0.147 0.053-0.22 0.067-0.033 0.007-0.107 0.013-0.133 0-0.040 0.033-0.127-0.027-0.087-0.067-0.020-0.020-0.020-0.053-0.027-0.093 0-0.047 0.007-0.127 0.047-0.2l0.033 0.113c0.013 0.033 0.047 0.067 0.073 0.093-0.013-0.033-0.027-0.080 0.007-0.12 0.033-0.033 0.087-0.033 0.133-0.013l-0.127-0.087c0.053 0 0.22-0.067 0.273-0.1 0.123-0.087 0.23-0.17 0.332-0.258l-0.005 0.005c-0.082 0.092-0.163 0.192-0.239 0.296l-0.008 0.011z"></path>
<path fill="#a05a2c" d="M25.8 14.853l-8.38 4.727c-0.030-0.041-0.050-0.067-0.070-0.093l0.010 0.013 8.38-4.733c0.026 0.025 0.048 0.053 0.066 0.085l0.001 0.002z"></path>
<path fill="#e7e7e7" d="M26.327 14.553c-0.040 0.040-0.147 0.133-0.147 0.227l-0.093-0.133c0.013 0.067-0.007 0.1-0.047 0.113-0.027 0.027-0.093 0-0.133-0.020 0.035 0.043 0.080 0.077 0.131 0.099l0.002 0.001 0.113 0.040c-0.040 0.007-0.153 0.020-0.227 0.013-0.033 0-0.1-0.013-0.127-0.040-0.047 0.027-0.107-0.053-0.067-0.080 0-0.027 0-0.053 0.013-0.093 0.013-0.047 0.047-0.12 0.107-0.187-0.002 0.018-0.003 0.039-0.003 0.060s0.001 0.042 0.004 0.062l-0-0.002c0 0.033 0.020 0.067 0.033 0.107 0-0.033 0-0.087 0.047-0.113s0.093-0.013 0.133 0.020l-0.093-0.113c0.053 0.007 0.233-0.013 0.293-0.033 0.067-0.013 0.273-0.107 0.4-0.167-0.113 0.067-0.307 0.2-0.34 0.24z"></path>
<path fill="#a05a2c" d="M25.087 14.5l-7.533 5.68-0.067-0.073 7.527-5.68c0.028 0.020 0.052 0.042 0.073 0.066l0 0.001z"></path>
<path fill="#e7e7e7" d="M25.56 14.14c-0.033 0.040-0.12 0.153-0.107 0.24l-0.12-0.113c0.020 0.067 0.007 0.1-0.027 0.113-0.027 0.027-0.1 0.013-0.14 0 0.040 0.033 0.087 0.067 0.147 0.080l0.127 0.020c-0.047 0.020-0.153 0.040-0.227 0.040-0.033 0-0.107 0-0.133-0.020-0.040 0.033-0.113-0.040-0.073-0.073-0.013-0.020-0.007-0.053-0.007-0.093 0.006-0.076 0.033-0.144 0.074-0.201l-0.001 0.001c0 0.001 0 0.002 0 0.003 0 0.041 0.005 0.082 0.014 0.121l-0.001-0.004c0.013 0.040 0.033 0.067 0.060 0.107-0.013-0.033-0.013-0.087 0.027-0.12 0.040-0.027 0.087-0.020 0.133 0l-0.107-0.1c0.047 0 0.22-0.040 0.28-0.067 0.067-0.027 0.253-0.133 0.367-0.207-0.093 0.080-0.267 0.233-0.293 0.267z"></path>
<path fill="#a05a2c" d="M18.093 14.047l6.533 6.527 0.087-0.067-6.533-6.52c-0.033 0.019-0.061 0.041-0.087 0.067v0z"></path>
<path fill="#e7e7e7" d="M17.687 13.633c0.027 0.047 0.093 0.167 0.067 0.253l0.133-0.1c-0.033 0.067-0.027 0.093 0.007 0.12 0.020 0.027 0.093 0.020 0.14 0.013-0.047 0.027-0.1 0.053-0.16 0.067h-0.133c0.047 0.020 0.147 0.053 0.22 0.067 0.033 0.007 0.107 0.013 0.133 0 0.040 0.033 0.127-0.027 0.087-0.067 0.020-0.020 0.020-0.053 0.027-0.093 0-0.047-0.007-0.127-0.047-0.2-0.008 0.043-0.019 0.081-0.035 0.117l0.001-0.003c-0.013 0.033-0.047 0.067-0.073 0.093 0.013-0.033 0.027-0.080-0.007-0.12-0.033-0.033-0.087-0.033-0.133-0.013l0.127-0.087c-0.053 0-0.22-0.067-0.273-0.1-0.123-0.087-0.23-0.17-0.332-0.258l0.005 0.005c0.082 0.092 0.163 0.192 0.239 0.296l0.008 0.011z"></path>
<path fill="#a05a2c" d="M16.867 14.853l8.38 4.727c0.013-0.020 0.040-0.067 0.060-0.080l-8.38-4.733c-0.026 0.025-0.048 0.053-0.066 0.085l-0.001 0.002z"></path>
<path fill="#e7e7e7" d="M16.34 14.553c0.040 0.040 0.147 0.133 0.147 0.227l0.093-0.133c-0.013 0.067 0.007 0.1 0.047 0.113 0.027 0.027 0.093 0 0.133-0.020-0.035 0.043-0.080 0.077-0.131 0.099l-0.002 0.001-0.12 0.040c0.047 0.007 0.153 0.020 0.227 0.013 0.040 0 0.107-0.013 0.133-0.040 0.047 0.027 0.107-0.053 0.067-0.080 0-0.027 0-0.053-0.013-0.093-0.020-0.073-0.057-0.136-0.107-0.187l0 0v0.12c0 0.033-0.020 0.067-0.033 0.107 0-0.033 0-0.087-0.047-0.113s-0.093-0.013-0.133 0.020l0.093-0.113c-0.006 0-0.013 0-0.020 0-0.097 0-0.191-0.012-0.281-0.035l0.008 0.002c-0.167-0.061-0.299-0.117-0.428-0.179l0.028 0.012c0.113 0.067 0.307 0.2 0.34 0.24z"></path>
<path fill="#a05a2c" d="M17.58 14.5l7.533 5.68 0.067-0.073-7.527-5.68c-0.028 0.020-0.052 0.042-0.073 0.066l-0 0.001z"></path>
<path fill="#e7e7e7" d="M17.107 14.14c0.033 0.040 0.12 0.153 0.107 0.24l0.113-0.113c-0.020 0.067-0.007 0.1 0.027 0.113 0.027 0.027 0.1 0.013 0.14 0-0.040 0.037-0.090 0.064-0.144 0.079l-0.003 0.001-0.127 0.020c0.047 0.020 0.153 0.040 0.227 0.040 0.033 0 0.107 0 0.133-0.020 0.040 0.033 0.113-0.040 0.073-0.073 0.013-0.020 0.007-0.053 0.007-0.093-0.006-0.076-0.033-0.144-0.074-0.201l0.001 0.001c0 0.001 0 0.002 0 0.003 0 0.041-0.005 0.082-0.014 0.121l0.001-0.004c-0.013 0.040-0.033 0.067-0.060 0.107 0.013-0.033 0.013-0.087-0.027-0.12-0.040-0.027-0.087-0.020-0.133 0l0.107-0.1c-0.103-0.009-0.198-0.033-0.287-0.069l0.007 0.002c-0.067-0.027-0.253-0.133-0.367-0.207 0.093 0.080 0.267 0.233 0.293 0.267z"></path>
<path fill="#a05a2c" d="M23.173 14.68l-1.707 3.487c-0.087 0.067-0.153-0.020-0.18-0.013-0.1 0.113-0.24 0.133-0.267 0.167-0.12 0.16-0.053 0.287-0.047 0.3 0.087 0.12-0.107 0.233-0.1 0.267-0.040 0.067-0.18 0.060-0.207 0.133l-0.32 0.62c-0.040 0.033-0.247 0.407-0.247 0.407-0.133 0-0.68-0.347-0.693-0.34 0.307-0.487 1.040-1.233 1.020-1.28 0.207-0.347 0.533-0.727 0.673-0.72 0.2-0.107 0.3-0.38 0.267-0.44 0.147 0 0.233-0.093 0.24-0.1l1.253-2.507c0.107-0.033 0.093 0.007 0.127 0.067 0 0 0.067-0.080 0.060-0.087 0.060-0.027 0.12 0.013 0.12 0.040z"></path>
<path fill="#cce5e5" d="M23.24 13.92c-0.040 0.067 0.013 0.067 0.033 0.073l0.067 0.020c0.087 0 0.133 0.047 0.133 0.067l-2 4.087c-0.087 0.067-0.167-0.020-0.193-0.007l1.373-2.787 0.667-1.253-0.187-0.080c-0.053-0.013-0.067-0.053-0.047-0.107l0.84-1.44-0.68 1.4-0.007 0.027"></path>
<path fill="#e7e7e7" d="M23.24 13.92c-0.040 0.067 0.013 0.067 0.033 0.073l0.067 0.020c0.087 0 0.133 0.047 0.133 0.067l-2 4.087c-0.087 0.067-0.167-0.020-0.193-0.007l1.373-2.787 0.667-1.253-0.187-0.080c-0.053-0.013-0.067-0.053-0.047-0.107l0.84-1.44-0.68 1.4-0.007 0.027"></path>
<path fill="#cce5e5" d="M21.467 18.18c-0.093-0.033-0.38-0.3-0.667-0.253-0.22 0.253-0.353 0.513-0.393 0.547 0.267 0.22 0.447 0.333 0.507 0.36 0.047-0.027 0.067-0.1 0.067-0.1 0.060-0.067-0.013-0.113-0.013-0.113 0.013-0.167 0.133-0.28 0.253-0.287 0.147-0.013 0.107-0.027 0.127-0.027 0.067-0.040 0.12-0.127 0.12-0.127z"></path>
<path fill="#a05a2c" d="M22.713 14.8l-1.627 3.52c-0.087 0.067-0.16-0.020-0.18-0.013-0.1 0.113-0.24 0.14-0.267 0.167-0.12 0.167-0.047 0.293-0.040 0.307 0.087 0.12-0.1 0.233-0.093 0.267-0.040 0.067-0.18 0.060-0.207 0.14-0.007-0.007-0.28 0.56-0.307 0.62-0.040 0.033-0.233 0.413-0.233 0.413-0.14 0-0.687-0.333-0.7-0.333 0.293-0.487 1.007-1.247 0.993-1.293 0.2-0.353 0.513-0.733 0.66-0.733 0.2-0.107 0.287-0.38 0.247-0.44 0.153-0.007 0.233-0.1 0.247-0.107l1.2-2.52c0.107-0.040 0.087 0 0.127 0.067 0 0 0.067-0.080 0.060-0.093 0.060-0.027 0.113 0.013 0.12 0.040z"></path>
<path fill="#cce5e5" d="M22.76 14.040c-0.033 0.067 0.020 0.067 0.040 0.080l0.067 0.020c0.087 0 0.133 0.040 0.133 0.067l-1.913 4.113c-0.087 0.067-0.167-0.020-0.193 0l1.313-2.813 0.64-1.267-0.187-0.067c-0.053-0.020-0.067-0.053-0.047-0.113l0.8-1.453-0.64 1.407-0.013 0.027"></path>
<path fill="#e7e7e7" d="M22.76 14.040c-0.033 0.067 0.020 0.067 0.040 0.080l0.067 0.020c0.087 0 0.133 0.040 0.133 0.067l-1.913 4.113c-0.087 0.067-0.167-0.020-0.193 0l1.313-2.813 0.64-1.267-0.187-0.067c-0.053-0.020-0.067-0.053-0.047-0.113l0.8-1.453-0.64 1.407-0.013 0.027"></path>
<path fill="#cce5e5" d="M21.073 18.333c-0.087-0.033-0.387-0.3-0.667-0.247-0.22 0.26-0.34 0.52-0.38 0.553 0.151 0.127 0.319 0.244 0.497 0.345l0.017 0.009c0.047-0.027 0.067-0.1 0.067-0.1 0.053-0.067-0.013-0.12-0.013-0.12 0-0.16 0.12-0.28 0.24-0.287 0.147-0.013 0.107-0.027 0.127-0.027 0.067-0.040 0.113-0.133 0.113-0.133z"></path>
<path fill="#a05a2c" d="M19.513 14.62l1.713 3.527c0.087 0.067 0.16-0.020 0.18-0.013 0.107 0.113 0.247 0.14 0.28 0.167 0.12 0.16 0.053 0.293 0.047 0.307-0.093 0.12 0.1 0.233 0.093 0.273 0.040 0.067 0.18 0.053 0.213 0.133l0.32 0.62c0.047 0.033 0.247 0.413 0.247 0.413 0.14 0 0.687-0.353 0.7-0.347-0.307-0.487-1.047-1.247-1.027-1.293-0.207-0.347-0.54-0.733-0.68-0.727-0.2-0.107-0.3-0.38-0.267-0.44-0.153 0-0.24-0.1-0.247-0.107l-1.267-2.527c-0.107-0.033-0.087 0.007-0.127 0.067 0 0-0.067-0.080-0.060-0.087-0.060-0.033-0.12 0.013-0.12 0.033z"></path>
<path fill="#cce5e5" d="M19.447 13.853c0.033 0.067-0.013 0.067-0.033 0.080l-0.073 0.020c-0.080 0-0.127 0.047-0.127 0.067l2.013 4.127c0.087 0.067 0.167-0.020 0.2-0.007l-1.387-2.82-0.667-1.267 0.18-0.073c0.053-0.013 0.067-0.053 0.047-0.107l-0.847-1.46 0.68 1.413 0.013 0.027"></path>
<path fill="#e7e7e7" d="M19.447 13.853c0.033 0.067-0.013 0.067-0.033 0.080l-0.073 0.020c-0.080 0-0.127 0.047-0.127 0.067l2.013 4.127c0.087 0.067 0.167-0.020 0.2-0.007l-1.387-2.82-0.667-1.267 0.18-0.073c0.053-0.013 0.067-0.053 0.047-0.107l-0.847-1.46 0.68 1.413 0.013 0.027"></path>
<path fill="#cce5e5" d="M21.24 18.16c0.087-0.027 0.38-0.307 0.667-0.253 0.227 0.253 0.36 0.513 0.4 0.547-0.267 0.227-0.447 0.333-0.513 0.367-0.047-0.027-0.067-0.1-0.067-0.1-0.060-0.067 0.013-0.12 0.013-0.12-0.007-0.16-0.133-0.28-0.253-0.287-0.153-0.013-0.107-0.027-0.133-0.027-0.067-0.040-0.113-0.127-0.113-0.127z"></path>
<path fill="#cce5e5" d="M19.667 15.027c-0.038-0.012-0.065-0.048-0.065-0.089 0-0.016 0.004-0.032 0.012-0.045l-0 0 0.32-0.12s0.033 0.007 0.067 0.047c0.033 0.047-0.013 0.080-0.013 0.080l-0.32 0.127"></path>
<path fill="#a05a2c" d="M19.967 14.8l1.627 3.52c0.087 0.067 0.153-0.020 0.18-0.013 0.1 0.113 0.24 0.14 0.267 0.167 0.113 0.167 0.047 0.293 0.040 0.307-0.093 0.113 0.1 0.233 0.093 0.267 0.033 0.067 0.173 0.060 0.2 0.14 0.013-0.007 0.28 0.56 0.313 0.62 0.040 0.033 0.233 0.413 0.233 0.413 0.133 0 0.687-0.333 0.7-0.333-0.293-0.493-1.013-1.247-1-1.293-0.193-0.353-0.513-0.733-0.653-0.733-0.2-0.107-0.287-0.38-0.247-0.44-0.153-0.007-0.24-0.1-0.247-0.107l-1.207-2.513c-0.107-0.040-0.093 0-0.133 0.067 0 0-0.060-0.080-0.053-0.093-0.060-0.027-0.12 0.013-0.12 0.040z"></path>
<path fill="#cce5e5" d="M19.92 14.040c0.027 0.067-0.020 0.067-0.040 0.080l-0.067 0.020c-0.087 0-0.133 0.040-0.133 0.067l1.913 4.113c0.087 0.067 0.167-0.020 0.193 0l-1.32-2.82-0.64-1.267 0.18-0.067c0.060-0.020 0.080-0.053 0.053-0.113l-0.807-1.453 0.647 1.407 0.013 0.027"></path>
<path fill="#e7e7e7" d="M19.92 14.040c0.027 0.067-0.020 0.067-0.040 0.080l-0.067 0.020c-0.087 0-0.133 0.040-0.133 0.067l1.913 4.113c0.087 0.067 0.167-0.020 0.193 0l-1.32-2.82-0.64-1.267 0.18-0.067c0.060-0.020 0.080-0.053 0.053-0.113l-0.807-1.453 0.647 1.407 0.013 0.027"></path>
<path fill="#cce5e5" d="M21.6 18.333c0.093-0.033 0.387-0.3 0.673-0.247 0.213 0.26 0.34 0.52 0.38 0.553-0.152 0.125-0.322 0.242-0.502 0.344l-0.018 0.009c-0.040-0.027-0.067-0.1-0.067-0.1-0.047-0.067 0.020-0.12 0.020-0.12 0-0.16-0.12-0.28-0.24-0.287-0.153-0.013-0.107-0.027-0.133-0.027-0.067-0.040-0.113-0.133-0.113-0.133z"></path>
<path fill="#a05a2c" d="M21.020 16.713l2.367-2.533c-0.057-0.035-0.087-0.055-0.117-0.075l0.024 0.015-2.373 2.533c0.029 0.023 0.062 0.043 0.097 0.059l0.003 0.001z"></path>
<path fill="#e7e7e7" d="M23.473 14.027c0.067 0.053 0.093 0.053 0.187 0.107 0.093 0.047 0.213-0.073 0.273-0.113 0 0 0.067 0.227-0.073 0.373-0.133 0.153-0.307 0.187-0.433 0.14 0 0 0.173-0.167 0.1-0.24-0.067-0.073-0.093-0.080-0.167-0.127"></path>
<path fill="#007934" d="M20.547 19.353l-0.067 0.6 0.12-0.147c0.020-0.040 0.1-0.14 0.12-0.493 0 0-0.067-0.193-0.093-0.193-0.047-0.027-0.080 0.233-0.080 0.233zM20.693 18.013l-0.18 1.053c0 0.033 0.087 0.107 0.14-0.080l0.1-0.7-0.067-0.273z"></path>
<path fill="#d52b1e" d="M21.060 18.973c-0.036-0.039-0.067-0.082-0.092-0.13l-0.002-0.003-0.027 0.207s0.133 0.1 0.113 0.287l0.027-0.040 0.013-0.067s0.033-0.133 0.033-0.207c0 0-0.033-0.013-0.067-0.047z"></path>
<path fill="#ffe000" d="M20.487 19.96s0.22-0.2 0.233-0.647l0.027-0.127s0 0.1 0.053 0.027c0.040-0.1 0.040-0.187 0.040-0.187s0.080-0.107 0.107 0.020l-0.080 0.64c-0.008 0.063-0.015 0.109-0.023 0.154l0.003-0.021s-0.047-0.067-0.093 0.007c-0.047 0.080-0.12 0.18-0.267 0.133zM20.753 18.287l-0.1 0.7s0.080 0.040 0.093 0.2c0.007 0.080 0.040 0.040 0.053 0.027 0.013-0.053 0-0.153 0-0.153l0.040-0.487s-0.080-0.227-0.087-0.287z"></path>
<path fill="#ffe000" d="M20.673 19.92l-0.013 0.173s0.067 0 0.113-0.080c0.053-0.073 0.067-0.187 0.067-0.187s-0.047-0.073-0.087 0c-0.033 0.067-0.080 0.093-0.080 0.093zM20.793 19.213c0.040-0.067 0.053-0.173 0.047-0.187l-0.047 0.033c0.013 0.080 0 0.153 0 0.153z"></path>
<path fill="#d52b1e" d="M21.020 19.14c-0.022-0.040-0.051-0.074-0.086-0.099l-0.001-0.001-0.1 0.8s-0.027 0.2-0.153 0.247c0 0 0.073 0.687 0.3 0.5 0.027-0.027 0.067-0.24 0.060-0.367l-0.060-0.4c0.002-0.112 0.014-0.22 0.035-0.325l-0.002 0.011 0.040-0.173c0.013-0.013 0-0.12-0.033-0.193z"></path>
<path fill="#d52b1e" d="M21.127 19.020l0.067 0.067c0.020 0-0.153 1.287-0.153 1.287s0-0.133-0.047-0.4c-0.040-0.213 0.013-0.5 0.060-0.64 0 0 0.053-0.033 0.067-0.313z"></path>
<path fill="#007934" d="M20.753 19.187s-0.040-0.407-0.24-0.12c-0.005 0.030-0.008 0.065-0.008 0.1s0.003 0.070 0.008 0.104l-0-0.004c0 0.053 0.060 0.12 0.080 0.153 0.047 0.067 0.087-0.013 0.087-0.013s0.047-0.067 0.067-0.22z"></path>
<path fill="#d52b1e" d="M17.84 18c-0.1-0.28 0.033-0.847 0.013-1.2-0.007-0.233 0.167-1.113 0.16-1.373l-0.94-0.587s-0.040 0.953-0.153 1.993c-0.093 0.533-0.093 1.020-0.027 1.433 0.1 0.58 0.2 0.813 0.433 1.060 0.42 0.433 1.313 0.18 1.313 0.18 0.753-0.153 1.187-0.627 1.187-0.627s-0.247 0.053-0.64 0.093c-0.867-0.060-1.213 0.16-1.24-0.733"></path>
<path fill="#f7e214" d="M20.36 18.587l0.013-0.007-0.393 0.127-0.533 0.040c-1.147 0.027-1-0.687-0.953-1.833 0.007-0.44 0.093-0.987 0.067-1.18l-0.767-0.44c-0.253 0.707-0.173 1.2-0.22 1.567-0.027 0.4-0.113 1.16 0.013 1.493 0.18 0.773 0.787 0.747 1.613 0.673 0.407-0.033 0.627-0.133 0.627-0.133l0.533-0.307"></path>
<path fill="#007a3d" d="M20.373 18.567c-0.113 0.055-0.246 0.105-0.384 0.143l-0.016 0.004-0.533 0.053c-0.833 0.067-1.32-0.513-1.213-1.84 0-0.467 0.013-0.68 0.173-1.3l0.467 0.267v0.047c-0.033 0.133-0.1 0.467-0.1 0.613 0 1.067 0.673 1.88 1.593 2.020h0.013"></path>
<path fill="#d52b1e" d="M18.52 17.653c-0.1-0.287 0.033-0.847 0.013-1.207-0.007-0.233 0.1-1.033 0.1-1.3l-0.88-0.66s-0.040 0.953-0.153 2c-0.075 0.344-0.118 0.739-0.118 1.144 0 0.158 0.007 0.315 0.019 0.47l-0.001-0.020c0.12 0.667 0.44 0.853 0.5 0.907 0.447 0.4 1.467 0.36 1.567 0.327 0.72-0.267 1.040-0.72 1.040-0.72s-0.347-0.007-0.74 0.033c-0.867-0.067-1.313-0.027-1.34-0.92"></path>
<path fill="#ffe000" d="M21.040 18.233h0.013l-0.393 0.12-0.533 0.040c-1.147 0.033-1-0.68-0.953-1.833 0.007-0.433 0.020-0.827 0-1.020l-0.687-0.507c-0.253 0.713-0.187 1.113-0.233 1.48-0.027 0.387-0.113 1.153 0.013 1.487 0.18 0.78 0.787 0.747 1.613 0.68 0.407-0.033 0.627-0.14 0.627-0.14l0.533-0.307"></path>
<path fill="#007934" d="M21.060 18.227c-0.16 0.080-0.4 0.14-0.4 0.14l-0.533 0.053c-0.833 0.067-1.32-0.513-1.213-1.84 0-0.467-0.020-0.5 0.147-1.127 0.253 0.167 0.74 0.587 0.74 0.587s-0.133 0.187-0.1 0.447c0 1.067 0.427 1.6 1.347 1.74l0.1-0.867"></path>
<path fill="#e8a30e" d="M17.080 14.933l-0.047 0.4c-0.013 0.293-0.007 0.513 0.007 0.653 0 0.013 0.060 0.367 0.040 0.387-0.067 0.073-0.073 0.080-0.147 0.027-0.007-0.013 0.033-0.373 0.033-0.42l0.027-0.66c0-0.067 0.067-0.427 0.067-0.427s0-0.080 0.020 0.033"></path>
<path fill="#f7e214" d="M17.067 14.813s-0.067 0.4-0.080 0.64l-0.020 0.527-0.033 0.3c-0.007 0.047 0.007 0.013 0 0.013-0.060 0.033-0.1 0.007-0.133-0.020-0.013-0.007 0.093-0.253 0.093-0.3 0.060-0.72 0.16-1.133 0.16-1.133s-0.040 0.247 0.020-0.027"></path>
<path fill="#e8a30e" d="M17.067 14.813s-0.067 0.4-0.080 0.64l-0.020 0.527-0.033 0.3c-0.007 0.047 0.007 0.013 0 0.013-0.060 0.033-0.1 0.007-0.133-0.020-0.007-0.007 0.093-0.253 0.1-0.3 0.053-0.72 0.153-1.14 0.153-1.14s-0.040 0.253 0.020-0.020zM17.040 15.967s-0.067 0.027-0.067 0.013M16.973 15.893s0.047 0 0.053-0.013M17.027 15.813s-0.040 0.020-0.053 0M17.027 15.707h-0.040M17.027 15.607h-0.040M17.020 15.467s-0.020 0.007-0.027-0.007M17.027 15.347h-0.033M16.96 15.98s-0.060 0.013-0.067-0.007M16.967 15.84s-0.060 0.007-0.067-0.007M16.967 15.747h-0.047M16.98 15.647h-0.047M16.98 15.533h-0.033M16.993 15.433h-0.040M16.993 15.32s-0.027 0.020-0.027 0M16.967 15.92s-0.060 0-0.060-0.020M17.76 14.58l-0.047 0.4c-0.008 0.098-0.013 0.212-0.013 0.327s0.005 0.229 0.014 0.342l-0.001-0.015c0 0.020 0.067 0.367 0.047 0.387-0.067 0.080-0.073 0.087-0.147 0.027-0.007-0.007 0.033-0.367 0.033-0.42l0.027-0.653c0-0.073 0.067-0.433 0.067-0.433s0-0.073 0.020 0.040"></path>
<path fill="#e8a30e" d="M17.753 14.467s-0.080 0.4-0.087 0.633l-0.020 0.533-0.033 0.293v0.020c-0.060 0.033-0.1 0-0.133-0.027-0.013 0 0.093-0.247 0.093-0.3 0.031-0.423 0.088-0.811 0.17-1.189l-0.010 0.056 0.020-0.027"></path>
<path fill="#e8a30e" d="M18.287 14.087s0.033 0.34 0.013 0.533c-0.020 0.233-0.020 0.3-0.040 0.44v0.26c0.053 0.033 0.1 0.013 0.133 0 0.020-0.007-0.067-0.22-0.067-0.267 0.033-0.593-0.027-0.953-0.027-0.953l-0.013-0.013"></path>
<path fill="#e8a30e" d="M18.287 14.087s0.033 0.34 0.013 0.533c-0.020 0.233-0.020 0.3-0.040 0.44v0.253c0 0.033-0.007 0 0 0.007 0.053 0.033 0.093 0.013 0.133 0 0.013-0.007-0.067-0.22-0.067-0.267 0.033-0.6-0.027-0.953-0.027-0.953l-0.013-0.013zM18.267 15.060s0.060 0.013 0.067 0M18.28 14.947s0.060 0.013 0.067 0M18.28 14.867h0.060M18.287 14.787h0.047M18.3 14.693h0.033M18.3 14.607h0.033M18.307 14.513s0.027 0.013 0.027 0M18.267 15.007s0.067 0.007 0.067-0.007"></path>
<path fill="#e8a30e" d="M19.48 18.947c-0.013 0.2-0.493 0.44-0.847 0.007-0.38-0.3-0.3-0.76 0-0.82l3.647-3.553c0.147-0.080 0.16-0.153 0.233-0.233 0.153 0.167 0.467 0.453 0.64 0.6-0.107 0.080-0.193 0.167-0.213 0.233l-3.467 3.767z"></path>
<path fill="#e8a30e" d="M18.427 19.013c0 0.067 0.053 0.107 0.113 0.107 0 0 0 0 0 0 0.060 0 0.11-0.047 0.113-0.106v-0c0-0.067-0.047-0.107-0.113-0.107s-0.113 0.067-0.113 0.127"></path>
<path fill="#007934" d="M22.12 19.353l0.067 0.6-0.12-0.147c-0.020-0.040-0.1-0.14-0.12-0.493 0 0 0.067-0.193 0.093-0.193 0.047-0.027 0.080 0.233 0.080 0.233zM21.973 18.013l0.18 1.053c0 0.033-0.087 0.107-0.14-0.080l-0.1-0.7 0.067-0.273z"></path>
<path fill="#d52b1e" d="M21.607 18.973l0.093-0.133 0.027 0.207s-0.133 0.1-0.113 0.287l-0.027-0.040-0.013-0.067s-0.033-0.133-0.033-0.207c0 0 0.033-0.013 0.067-0.047z"></path>
<path fill="#ffe000" d="M22.187 19.96s-0.227-0.2-0.24-0.647l-0.027-0.127s0 0.1-0.053 0.027c-0.040-0.1-0.040-0.187-0.040-0.187s-0.080-0.107-0.107 0.020l0.080 0.64 0.020 0.133s0.047-0.067 0.093 0.007c0.047 0.080 0.12 0.18 0.267 0.133zM21.913 18.287l0.1 0.7s-0.080 0.040-0.093 0.2c-0.007 0.080-0.040 0.040-0.053 0.027-0.013-0.053 0-0.153 0-0.153l-0.040-0.487s0.080-0.227 0.087-0.287z"></path>
<path fill="#ffe000" d="M21.993 19.92l0.013 0.173s-0.067 0-0.113-0.080c-0.053-0.073-0.067-0.187-0.067-0.187s0.047-0.073 0.087 0c0.033 0.067 0.080 0.093 0.080 0.093zM21.873 19.213c-0.029-0.054-0.047-0.118-0.047-0.187v-0l0.047 0.033c-0.013 0.080 0 0.153 0 0.153z"></path>
<path fill="#d52b1e" d="M21.653 19.14c0.020-0.040 0.047-0.073 0.079-0.1l0.001-0 0.1 0.8s0.027 0.2 0.153 0.247c0 0-0.073 0.687-0.3 0.5-0.027-0.027-0.067-0.24-0.060-0.367l0.060-0.4c-0.002-0.112-0.014-0.22-0.035-0.325l0.002 0.011c-0.013-0.072-0.027-0.131-0.044-0.188l0.004 0.015c-0.013-0.013 0-0.12 0.033-0.193z"></path>
<path fill="#d52b1e" d="M21.54 19.020l-0.067 0.067c-0.020 0 0.153 1.287 0.153 1.287s0-0.133 0.047-0.4c0.040-0.213-0.013-0.5-0.060-0.64 0 0-0.053-0.033-0.067-0.313z"></path>
<path fill="#007934" d="M21.913 19.187s0.040-0.407 0.24-0.12c0 0 0.013 0.16 0 0.2 0 0.053-0.060 0.12-0.080 0.153-0.047 0.067-0.087-0.013-0.087-0.013s-0.047-0.067-0.067-0.22z"></path>
<path fill="#d52b1e" d="M24.827 18c0.1-0.28-0.033-0.847-0.013-1.2 0.007-0.233-0.167-1.113-0.16-1.373l0.94-0.587s0.040 0.953 0.153 1.993c0.093 0.533 0.093 1.020 0.027 1.433-0.1 0.58-0.2 0.813-0.433 1.060-0.42 0.433-1.313 0.18-1.313 0.18-0.753-0.153-1.187-0.627-1.187-0.627s0.247 0.053 0.64 0.093c0.867-0.060 1.213 0.16 1.24-0.733"></path>
<path fill="#f7e214" d="M22.307 18.587l-0.013-0.007 0.393 0.127 0.533 0.040c1.147 0.027 1-0.687 0.953-1.833-0.007-0.44-0.093-0.987-0.067-1.18l0.767-0.44c0.253 0.707 0.173 1.2 0.22 1.567 0.027 0.4 0.113 1.16-0.013 1.493-0.18 0.773-0.787 0.747-1.613 0.673-0.407-0.033-0.627-0.133-0.627-0.133l-0.533-0.307"></path>
<path fill="#007a3d" d="M22.293 18.567c0.113 0.055 0.246 0.105 0.384 0.143l0.016 0.004 0.533 0.053c0.833 0.067 1.32-0.513 1.213-1.84 0-0.467-0.013-0.68-0.173-1.3l-0.467 0.267v0.047c0.033 0.133 0.1 0.467 0.1 0.613 0 1.067-0.673 1.88-1.593 2.020h-0.013"></path>
<path fill="#d52b1e" d="M24.153 17.653c0.093-0.287-0.040-0.847-0.027-1.207 0.013-0.233-0.093-1.033-0.093-1.3l0.88-0.66s0.040 0.953 0.153 2c0.075 0.344 0.118 0.739 0.118 1.144 0 0.158-0.007 0.315-0.019 0.47l0.001-0.020c-0.12 0.667-0.44 0.853-0.5 0.907-0.447 0.4-1.467 0.36-1.567 0.327-0.72-0.267-1.040-0.72-1.040-0.72s0.347-0.007 0.74 0.033c0.867-0.067 1.313-0.027 1.34-0.92"></path>
<path fill="#ffe000" d="M21.627 18.233h-0.013l0.393 0.12 0.533 0.040c1.147 0.033 1-0.68 0.953-1.833-0.007-0.433-0.020-0.827 0-1.020l0.687-0.507c0.253 0.713 0.187 1.113 0.233 1.48 0.027 0.387 0.113 1.153-0.013 1.487-0.18 0.78-0.787 0.747-1.613 0.68-0.407-0.033-0.627-0.14-0.627-0.14l-0.533-0.307"></path>
<path fill="#007934" d="M21.607 18.227c0.113 0.053 0.246 0.101 0.384 0.137l0.016 0.003 0.533 0.053c0.833 0.067 1.32-0.513 1.213-1.84 0-0.467 0.020-0.5-0.147-1.127-0.253 0.167-0.74 0.587-0.74 0.587s0.133 0.187 0.1 0.447c0 1.067-0.427 1.6-1.347 1.74l-0.1-0.867"></path>
<path fill="#f7e214" d="M25.587 14.933l0.047 0.4c0.013 0.293 0.007 0.513-0.007 0.653 0 0.013-0.053 0.367-0.040 0.387 0.067 0.073 0.073 0.080 0.147 0.027 0.007-0.013-0.033-0.373-0.033-0.42l-0.027-0.66c0-0.067-0.067-0.427-0.067-0.427s0-0.080-0.020 0.033"></path>
<path fill="#e8a30e" d="M25.587 14.933l0.047 0.4c0.013 0.293 0.007 0.513-0.007 0.653l-0.047 0.387c0.067 0.073 0.080 0.107 0.153 0.047 0.007-0.013-0.033-0.393-0.033-0.44l-0.027-0.66c0-0.067-0.067-0.427-0.067-0.427s0-0.080-0.020 0.033z"></path>
<path fill="#f7e214" d="M25.6 14.813s0.067 0.4 0.080 0.64l0.020 0.527 0.033 0.3c0.007 0.047 0 0.013 0 0.013 0.060 0.033 0.1 0.007 0.133-0.020 0.013-0.007-0.093-0.253-0.093-0.3-0.060-0.72-0.16-1.133-0.16-1.133s0.040 0.247-0.020-0.027"></path>
<path fill="#e8a30e" d="M25.6 14.813s0.067 0.4 0.080 0.64l0.020 0.527 0.033 0.3c0.007 0.047-0.007 0.013 0 0.013 0.060 0.033 0.1 0.007 0.133-0.020 0.013-0.007-0.093-0.253-0.093-0.3-0.060-0.72-0.16-1.14-0.16-1.14s0.040 0.253-0.020-0.020zM25.627 15.967s0.067 0.027 0.067 0.013M25.693 15.893s-0.047 0-0.053-0.013M25.64 15.813s0.040 0.020 0.053 0M25.647 15.707h0.033M25.64 15.607h0.040M25.647 15.467s0.027 0.007 0.027-0.007M25.64 15.347h0.033M25.707 15.98s0.060 0.013 0.067-0.007M25.7 15.84s0.060 0.007 0.067-0.007M25.7 15.747h0.047M25.687 15.647h0.047M25.687 15.533h0.033M25.673 15.433h0.040M25.673 15.32s0.027 0.020 0.027 0M25.7 15.92s0.060 0 0.060-0.020"></path>
<path fill="#f7e214" d="M24.907 14.58l0.047 0.4c0.005 0.083 0.008 0.18 0.008 0.277 0 0.132-0.005 0.264-0.016 0.393l0.001-0.017c0 0.020-0.053 0.367-0.040 0.387 0.067 0.080 0.073 0.087 0.147 0.027 0.007-0.007-0.033-0.367-0.033-0.42l-0.027-0.653c0-0.073-0.067-0.433-0.067-0.433s0-0.073-0.020 0.040"></path>
<path fill="#e8a30e" d="M24.907 14.58l0.047 0.4c0.005 0.083 0.008 0.18 0.008 0.277 0 0.132-0.005 0.264-0.016 0.393l0.001-0.017-0.047 0.387c0.067 0.080 0.080 0.107 0.153 0.047 0.007-0.007-0.033-0.387-0.033-0.44l-0.027-0.653c0-0.073-0.067-0.433-0.067-0.433s0-0.073-0.020 0.040z"></path>
<path fill="#f7e214" d="M24.913 14.467s0.080 0.4 0.087 0.633l0.020 0.533 0.033 0.293v0.020c0.060 0.033 0.1 0 0.133-0.027 0.013 0-0.093-0.247-0.093-0.3-0.031-0.423-0.088-0.811-0.17-1.189l0.010 0.056-0.020-0.027"></path>
<path fill="#e8a30e" d="M24.913 14.467s0.080 0.4 0.087 0.633l0.020 0.533 0.033 0.293v0.020c0.060 0.033 0.1 0 0.133-0.027 0.013 0-0.093-0.247-0.093-0.3-0.060-0.72-0.16-1.133-0.16-1.133l-0.020-0.027zM24.947 15.613s0.067 0.033 0.067 0.013M25.013 15.547s-0.047 0-0.053-0.020M24.96 15.46s0.040 0.027 0.053 0.007M24.967 15.353h0.033M24.96 15.253h0.040M24.967 15.12s0.027 0 0.027-0.013M24.96 14.993h0.033M25.027 15.633s0.060 0.007 0.067-0.013M25.020 15.493s0.060 0 0.067-0.013M25.020 15.393h0.047M25.007 15.3h0.047M25.007 15.187l0.033-0.007M24.993 15.087l0.040-0.007M24.993 14.973s0.027 0.013 0.027 0M25.020 15.573s0.060 0 0.060-0.027M24.38 14.080s-0.033 0.347-0.013 0.54c0.020 0.233 0.020 0.3 0.040 0.44v0.26c-0.053 0.033-0.093 0.013-0.133 0-0.013-0.007 0.067-0.22 0.067-0.267-0.033-0.593 0.027-0.953 0.027-0.953l0.013-0.013"></path>
<path fill="#e8a30e" d="M24.38 14.087s-0.033 0.34-0.013 0.533c0.020 0.233 0.020 0.3 0.040 0.44v0.253c0 0.033 0.007 0 0 0.007-0.053 0.033-0.093 0.013-0.133 0-0.013-0.007 0.067-0.22 0.067-0.267-0.033-0.6 0.027-0.953 0.027-0.953l0.013-0.013zM24.4 15.060s-0.060 0.013-0.067 0M24.387 14.947s-0.060 0.013-0.067 0M24.387 14.867h-0.060M24.38 14.787h-0.047M24.367 14.693h-0.033M24.367 14.607h-0.033M24.36 14.513s-0.027 0.013-0.027 0M24.4 15.007s-0.067 0.007-0.067-0.007"></path>
<path fill="#d52b1e" d="M19.447 14.367c0-0.14 0.133-0.22 0.147-0.24 0.067-0.040 0.113-0.080 0.247-0.1l0.013 0.060c0 0.020-0.033 0.107-0.133 0.18-0.079 0.048-0.171 0.083-0.269 0.099l-0.004 0.001z"></path>
<path fill="#d52b1e" d="M19.413 13.813s0.213-0.027 0.187-0.147c-0.033-0.12-0.173-0.12-0.233-0.127-0.067 0-0.267 0.047-0.32 0.1-0.060 0.067-0.18 0.167-0.14 0.333s0.087 0.293 0.153 0.4c0.060 0.107 0.047 0.213 0.027 0.26 0 0.020-0.027 0.087 0.027 0.107 0.080 0.033 0.1 0.033 0.167-0.040s0.167-0.2 0.167-0.333c0-0.14 0.133-0.22 0.147-0.24 0.067-0.040 0.113-0.080 0.247-0.1 0 0-0.047-0.080-0.12-0.067-0.073 0-0.227-0.067-0.307-0.147z"></path>
<path fill="#e8a30e" d="M23.187 18.947c0.013 0.2 0.493 0.44 0.847 0.007 0.38-0.3 0.3-0.76 0-0.82l-3.647-3.553c-0.147-0.080-0.16-0.153-0.233-0.233-0.201 0.208-0.41 0.404-0.628 0.59l-0.012 0.010c0.089 0.060 0.161 0.138 0.212 0.23l0.002 0.003 3.46 3.767z"></path>
<path fill="#e8a30e" d="M24.24 19.013c0 0.067-0.053 0.107-0.113 0.107-0 0-0 0-0 0-0.060 0-0.11-0.047-0.113-0.106v-0c0-0.067 0.047-0.107 0.113-0.107s0.113 0.067 0.113 0.127"></path>
<path fill="#007934" d="M22.64 11.7c0.12 0.193 0.293 0.533 0.347 0.8 0.016 0.083 0.026 0.178 0.026 0.276 0 0.44-0.189 0.836-0.491 1.11l-0.001 0.001c-0.347 0.313-0.887 0.4-1.113 0.453-0.22 0.047-0.38 0.12-0.42 0.167 0-0.033 0-0.067 0.033-0.107 0.107-0.047 0.273-0.067 0.52-0.12 0.48-0.1 0.987-0.28 1.267-0.813 0.36-0.687 0.147-1.227-0.167-1.76z"></path>
<path fill="#d52b1e" d="M22.773 13.747c-0.001 0.001-0.001 0.001-0.002 0.002-0.018 0.015-0.041 0.018-0.051 0.006s-0.004-0.032 0.012-0.047l0-0c0.001-0.001 0.001-0.001 0.002-0.002 0.018-0.015 0.041-0.018 0.051-0.006s0.004 0.032-0.012 0.047l-0 0z"></path>
<path fill="#007934" d="M23.107 13.667c-0.073 0.040-0.147 0.047-0.2 0.067-0.113 0.039-0.195 0.070-0.275 0.104l0.029-0.011c-0.053 0.020-0.107 0.087-0.107 0.087s0.080 0.087 0.173 0.073c0.080-0.007 0.113-0.027 0.153-0.047s0.040-0.040 0.093-0.080c0.067-0.047 0.107-0.133 0.133-0.2zM22.727 13.74c-0.020 0.040-0.073 0.033-0.107 0.033l-0.013 0.013c0.040 0 0.1 0 0.133-0.033l-0.013-0.013z"></path>
<path fill="#007934" d="M23.107 13.667c-0.067 0.067-0.187 0.133-0.313 0.187-0.099 0.041-0.213 0.065-0.333 0.067h-0.001l-0.013 0.020c0.093-0.007 0.227-0.027 0.333-0.073 0.126-0.048 0.235-0.116 0.327-0.201l-0.001 0.001zM22.947 13.973c-0.133-0.007-0.2 0.033-0.32 0.060-0.113 0.027-0.247-0.033-0.32 0.073 0.293 0.193 0.507 0.067 0.64-0.133z"></path>
<path fill="#007934" d="M22.567 14.367l-0.167-0.027c-0.067-0.007-0.087-0.020-0.127-0.027-0.067-0.007-0.153-0.107-0.4-0.033 0.093 0.227 0.427 0.267 0.693 0.087zM22.673 14.24c-0.253 0.053-0.553 0-0.673-0.067l-0.020 0.013c0.126 0.055 0.272 0.087 0.426 0.087 0.095 0 0.187-0.012 0.275-0.035l-0.008 0.002zM22.94 13.973c-0.147 0.1-0.347 0.173-0.76 0.12v0.013c0.567 0.047 0.62-0.053 0.76-0.133z"></path>
<path fill="#007934" d="M22.567 14.367c-0.2 0.007-0.313 0.093-0.687-0.087l-0.093-0.040-0.033 0.013 0.093 0.027c0.467 0.2 0.453 0.107 0.72 0.087z"></path>
<path fill="#d52b1e" d="M21.82 14.107c-0.019 0.009-0.029 0.027-0.023 0.040s0.027 0.017 0.048 0.008c0.001-0 0.002-0.001 0.003-0.001l-0 0c0.019-0.009 0.029-0.027 0.023-0.040s-0.027-0.017-0.048-0.008c-0.001 0-0.002 0.001-0.003 0.001l0-0z"></path>
<path fill="#d52b1e" d="M23.067 12.453c-0 0.001-0 0.002-0.001 0.003-0.008 0.027-0.028 0.045-0.047 0.040s-0.026-0.029-0.020-0.056l0-0c0-0.001 0-0.002 0.001-0.003 0.008-0.027 0.028-0.045 0.047-0.040s0.026 0.029 0.020 0.056l-0 0z"></path>
<path fill="#007934" d="M22.567 13.147c0.087 0.113 0.2 0.253 0.2 0.4h0.020c-0.020-0.187-0.133-0.273-0.2-0.373l-0.020-0.027zM23.287 13.327c-0.067 0.047-0.133 0.067-0.18 0.093l-0.093 0.060c-0.027 0.013-0.067 0.013-0.093 0.033-0.047 0.033-0.133 0.133-0.133 0.133s0.087 0.073 0.133 0.067c0.16-0.033 0.207-0.093 0.287-0.153 0.067-0.053 0.067-0.167 0.080-0.233z"></path>
<path fill="#007934" d="M22.713 13.653l-0.013 0.027c0.087-0.013 0.233-0.1 0.333-0.147 0.12-0.067 0.2-0.113 0.247-0.2-0.066 0.089-0.154 0.157-0.256 0.199l-0.004 0.001c-0.1 0.047-0.247 0.133-0.307 0.12zM23.34 13.020c-0.053 0.060-0.113 0.087-0.16 0.12l-0.087 0.073-0.080 0.053c-0.040 0.040-0.1 0.147-0.1 0.147s0.047 0.047 0.093 0.027c0.16-0.020 0.207-0.093 0.267-0.233 0.033-0.067 0.067-0.12 0.067-0.187z"></path>
<path fill="#d52b1e" d="M22.767 13.293c0 0.001 0.001 0.002 0.002 0.003 0.011 0.021 0.031 0.032 0.045 0.024s0.016-0.028 0.007-0.047l-0-0c-0-0.001-0.001-0.002-0.002-0.003-0.011-0.021-0.031-0.032-0.045-0.024s-0.016 0.028-0.007 0.047l0 0z"></path>
<path fill="#007934" d="M22.833 13.44l-0.013 0.020c0.193-0.087 0.44-0.26 0.52-0.433-0.125 0.182-0.297 0.325-0.499 0.411l-0.008 0.003zM23.387 12.727c-0.047 0.067-0.107 0.093-0.147 0.133l-0.067 0.073-0.080 0.060c-0.033 0.040-0.080 0.147-0.080 0.147s0.053 0.060 0.1 0.033c0.053-0.032 0.099-0.067 0.14-0.107l-0 0c0.033-0.027 0.040-0.093 0.080-0.147 0.047-0.067 0.053-0.127 0.053-0.193z"></path>
<path fill="#007934" d="M23.247 12.92c-0.093 0.107-0.2 0.207-0.307 0.253l-0.013 0.027c0.173-0.1 0.247-0.187 0.327-0.273zM23.313 12.547c-0.027 0.067-0.067 0.1-0.107 0.133l-0.053 0.080-0.067 0.060-0.047 0.14s0.040 0.040 0.080 0.013c0.045-0.033 0.084-0.068 0.119-0.106l0-0.001c0.027-0.033 0.040-0.093 0.067-0.147 0.014-0.031 0.022-0.068 0.022-0.106 0-0.024-0.003-0.047-0.009-0.069l0 0.002zM23.027 12.473l-0.033 0.107v-0.027c0-0.027 0.013-0.060 0.027-0.087l0.007 0.007z"></path>
<path fill="#007934" d="M23.227 12.733c-0.066 0.107-0.151 0.196-0.25 0.265l-0.003 0.002v0.020c0.147-0.107 0.2-0.2 0.253-0.28zM22.853 13.4c-0.013-0.040-0.020-0.067-0.040-0.093 0.013 0.033 0.027 0.067 0.027 0.107l0.007-0.020z"></path>
<path fill="#d52b1e" d="M22.793 12.087c0.012 0.011 0.015 0.027 0.008 0.037s-0.026 0.009-0.039-0.002c-0.001-0.001-0.001-0.001-0.002-0.002l0 0c-0.012-0.011-0.015-0.027-0.008-0.037s0.026-0.009 0.039 0.002c0.001 0.001 0.001 0.001 0.002 0.002l-0-0z"></path>
<path fill="#007934" d="M22.873 12.167l-0.080-0.053 0.087 0.067v-0.013zM23.247 12.193c-0.080 0.16-0.26 0.267-0.187 0.5 0.187 0.173 0.2-0.3 0.187-0.5z"></path>
<path fill="#007934" d="M22.64 11.733c-0.22 0.020-0.133-0.173-0.2-0.353 0.133 0.1 0.313 0.14 0.2 0.353zM22.787 12.027c-0.067-0.293-0.267-0.173-0.373-0.307 0.060 0.193 0.14 0.32 0.373 0.307zM22.88 12.3c-0.173-0.007-0.32-0.093-0.413-0.293 0.18 0.080 0.38 0.093 0.413 0.293z"></path>
<path fill="#007934" d="M22.873 13.253c-0.027-0.067 0-0.093-0.067-0.153-0.067-0.067-0.187-0.18-0.247-0.307-0.007 0.113-0.013 0.293 0.080 0.353 0.067 0.047 0.133 0.060 0.233 0.107zM22.587 13.74c-0.26-0.2-0.107-0.373-0.080-0.527 0.067 0.173 0.247 0.32 0.080 0.527z"></path>
<path fill="#007934" d="M22.593 13.787c0.007-0.2-0.047-0.38-0.087-0.567 0.033 0.2 0.087 0.4 0.067 0.587l0.020-0.020zM22.9 13.293c-0.027-0.12-0.273-0.2-0.333-0.5 0.047 0.293 0.3 0.367 0.32 0.533l0.013-0.033zM22.953 13.127l-0.007 0.033c-0.040-0.2-0.267-0.293-0.333-0.56 0.1 0.287 0.287 0.327 0.34 0.527zM23 12.833c-0.113-0.173-0.273-0.24-0.427-0.447 0.14 0.2 0.32 0.293 0.427 0.467v-0.020zM23 12.6c-0.133-0.053-0.26-0.2-0.4-0.473 0.093 0.2 0.2 0.387 0.4 0.507v-0.033zM22.933 12.333c-0.14-0.113-0.333-0.187-0.467-0.327 0.113 0.133 0.333 0.22 0.473 0.347v-0.020zM22.827 12.047c-0.147-0.1-0.293-0.133-0.413-0.32 0.1 0.187 0.253 0.233 0.42 0.333l-0.007-0.013zM23.247 12.193c-0.053 0.207-0.1 0.42-0.24 0.56v-0.027c0.067-0.033 0.167-0.247 0.24-0.533zM23.073 11.853c-0.007 0.213 0 0.433-0.113 0.553l-0.007-0.020c0.107-0.093 0.1-0.333 0.12-0.533zM22.927 11.613c0.033 0.187 0.040 0.353-0.013 0.633l-0.007-0.020c0.027-0.16 0.067-0.333 0.020-0.613zM22.7 11.46c0.073 0.16 0.133 0.32 0.080 0.493l-0.013-0.020c0.060-0.16-0.007-0.313-0.067-0.467zM22.407 13.54c0.093 0.213-0.027 0.373-0.167 0.467-0.107-0.313 0.12-0.28 0.167-0.467z"></path>
<path fill="#d52b1e" d="M22.913 12.080c-0.002 0.014-0.010 0.024-0.021 0.024s-0.020-0.013-0.019-0.028c0-0.001 0-0.002 0-0.003v0c0.002-0.014 0.010-0.024 0.021-0.024s0.020 0.013 0.019 0.028c-0 0.001-0 0.002-0 0.003v-0z"></path>
<path fill="#d52b1e" d="M22.853 12.060c-0.002 0.012-0.011 0.021-0.020 0.021-0.005-0-0.010-0.003-0.013-0.007l0 0c0.002-0.012 0.011-0.021 0.020-0.021 0.005 0 0.010 0.003 0.013 0.007l-0-0z"></path>
<path fill="#d52b1e" d="M22.98 12.46c0.001 0.015-0.007 0.029-0.018 0.030-0.013 0.002-0.025-0.010-0.028-0.027-0-0.001-0-0.003-0-0.004v0c-0.001-0.015 0.007-0.029 0.018-0.030 0.013-0.002 0.025 0.010 0.028 0.027 0 0.001 0 0.003 0 0.004v-0z"></path>
<path fill="#007934" d="M22.993 12.573c-0.007-0.036-0.017-0.067-0.028-0.098l0.001 0.004h-0.007l0.027 0.107v-0.013z"></path>
<path fill="#d52b1e" d="M22.907 12.48c0.001 0.001 0.002 0.002 0.003 0.004 0.009 0.014 0.008 0.032-0.003 0.039-0.010 0.006-0.024 0.002-0.034-0.009l-0-0c-0.001-0.001-0.002-0.002-0.003-0.004-0.009-0.014-0.008-0.032 0.003-0.039 0.010-0.006 0.024-0.002 0.034 0.009l0 0z"></path>
<path fill="#007934" d="M22.987 12.573c-0.024-0.024-0.050-0.046-0.078-0.065l-0.002-0.001v0.007l0.087 0.073-0.007-0.013z"></path>
<path fill="#d52b1e" d="M22.893 13.273c-0.004 0.017-0.018 0.028-0.030 0.025s-0.020-0.019-0.017-0.037c0-0 0-0.001 0-0.001l-0 0c0.004-0.017 0.018-0.028 0.030-0.025s0.020 0.019 0.017 0.037c-0 0-0 0.001-0 0.001l0-0z"></path>
<path fill="#d52b1e" d="M22.933 13.327c-0.009 0.010-0.012 0.023-0.005 0.031s0.023 0.008 0.035-0.002c0.001-0.001 0.002-0.002 0.003-0.003l-0 0c0.009-0.010 0.012-0.023 0.005-0.031s-0.023-0.008-0.035 0.002c-0.001 0.001-0.002 0.002-0.003 0.003l0-0z"></path>
<path fill="#007934" d="M22.847 13.4l0.087-0.053v0.007c-0.033 0.021-0.061 0.043-0.087 0.067l0-0v-0.013z"></path>
<path fill="#d52b1e" d="M22.713 13.667c-0.011 0.009-0.025 0.011-0.034 0.004-0.010-0.008-0.009-0.026 0.002-0.039 0.002-0.002 0.003-0.003 0.005-0.005l-0 0c0.010-0.009 0.024-0.012 0.032-0.005s0.008 0.023-0.002 0.035c-0.001 0.001-0.002 0.002-0.003 0.003l0-0z"></path>
<path fill="#d52b1e" d="M22.587 13.633c-0.003 0.021 0.009 0.040 0.026 0.043s0.036-0.012 0.040-0.034c0-0.001 0-0.002 0-0.003v0c0.003-0.021-0.009-0.040-0.026-0.043s-0.036 0.012-0.040 0.034c-0.001 0.003-0.001 0.007-0.001 0.010v-0z"></path>
<path fill="#007934" d="M22.627 13.667c-0.020 0.047 0 0.067 0 0.080l-0.007 0.020c-0.013-0.027-0.020-0.053-0.007-0.1h0.013zM21.82 14.3c-0.047 0-0.067-0.027-0.087-0.053h-0.020c0.027 0.033 0.053 0.067 0.1 0.067v-0.020z"></path>
<path fill="#d52b1e" d="M21.82 14.347c-0.024-0.005-0.041-0.021-0.039-0.038s0.025-0.027 0.050-0.023c0.001 0 0.001 0 0.002 0h-0c0.021 0.004 0.036 0.019 0.034 0.033s-0.023 0.024-0.045 0.020c-0.001-0-0.002-0-0.002-0l0 0z"></path>
<path fill="#d52b1e" d="M21.853 14.22c-0.007 0.006-0.018 0.008-0.029 0.007-0.018-0.003-0.031-0.017-0.028-0.032 0.002-0.013 0.015-0.021 0.030-0.021h0c0.002 0 0.005 0 0.007 0.001 0.018 0.003 0.031 0.017 0.028 0.032-0.001 0.006-0.004 0.011-0.009 0.014l0-0z"></path>
<path fill="#007934" d="M21.733 14.253c0.036-0.014 0.067-0.030 0.096-0.048l-0.002 0.001h-0.007l-0.113 0.040h0.020zM21.9 13.92c0 0.080-0.067 0.16-0.133 0.213-0.060 0.060-0.067 0.080-0.147 0.107-0.080-0.187 0.187-0.22 0.28-0.32z"></path>
<path fill="#007934" d="M20.027 11.7c-0.113 0.193-0.293 0.533-0.34 0.8-0.016 0.083-0.026 0.178-0.026 0.276 0 0.44 0.189 0.836 0.491 1.11l0.001 0.001c0.347 0.313 0.887 0.4 1.107 0.453 0.227 0.047 0.387 0.12 0.427 0.167 0-0.033 0-0.067-0.033-0.107-0.107-0.047-0.28-0.067-0.52-0.12-0.48-0.1-0.993-0.28-1.267-0.813-0.36-0.687-0.147-1.227 0.167-1.76z"></path>
<path fill="#007934" d="M20.747 13.913c0.125 0.055 0.229 0.139 0.305 0.245l0.001 0.002c0.060 0.1 0.047 0.127 0.047 0.127s-0.013 0.020-0.087-0.067c-0.067-0.080-0.227-0.22-0.267-0.307z"></path>
<path fill="#007934" d="M19.88 11.973c-0.040-0.083-0.063-0.18-0.063-0.283 0-0.022 0.001-0.045 0.003-0.066l-0 0.003c0.020-0.107 0.040-0.113 0.040-0.113s0.027 0 0.027 0.093c0 0.1 0.020 0.28-0.007 0.367z"></path>
<path fill="#007934" d="M19.747 12.273c-0.078-0.085-0.134-0.191-0.159-0.309l-0.001-0.004c-0.013-0.1 0-0.12 0-0.12s0.027-0.007 0.053 0.087c0.027 0.093 0.107 0.26 0.107 0.347z"></path>
<path fill="#007934" d="M19.787 12.2s-0.020-0.033-0.020-0.067c0-0.040 0.013-0.053 0.013-0.053l-0.013-0.013-0.007 0.060v0.020l-0.033-0.033c-0.001-0.004-0.004-0.013-0.006-0.022l-0.001-0.005h-0.013l0.020 0.047c0.033 0.027 0.053 0.073 0.053 0.073"></path>
<path fill="#000" d="M19.707 12.020c0.015-0.001 0.028 0.012 0.030 0.030s-0.008 0.035-0.023 0.036c-0 0-0 0-0 0h0c-0.015 0.001-0.028-0.012-0.030-0.030s0.008-0.035 0.023-0.036c0-0 0-0 0-0h-0z"></path>
<path fill="#000" d="M19.787 12.020c0 0 0.001 0 0.002 0 0.015 0.005 0.021 0.024 0.015 0.042s-0.022 0.028-0.036 0.024l-0-0c-0-0-0.001-0-0.002-0-0.015-0.005-0.021-0.024-0.015-0.042s0.022-0.028 0.036-0.024l0 0z"></path>
<path fill="#007934" d="M19.78 12.2l0.067-0.047c0.020-0.027 0.020-0.047 0.020-0.047h0.013l-0.027 0.053-0.013 0.013 0.040-0.007 0.027-0.013 0.007 0.007-0.040 0.027c-0.040 0-0.087 0.020-0.087 0.020"></path>
<path fill="#000" d="M19.96 12.107c-0.012-0.012-0.033-0.009-0.048 0.005s-0.017 0.036-0.006 0.048c0 0 0 0 0 0v0c0.012 0.012 0.033 0.009 0.048-0.005s0.017-0.036 0.006-0.048c-0-0-0-0-0-0v0z"></path>
<path fill="#000" d="M19.893 12.053c-0.014-0.004-0.030 0.007-0.036 0.024s-0 0.037 0.014 0.042c0.001 0 0.001 0 0.002 0.001l-0-0c0.014 0.004 0.030-0.007 0.036-0.024s0-0.037-0.014-0.042c-0.001-0-0.001-0-0.002-0.001l0 0z"></path>
<path fill="#007934" d="M19.68 12.867c0.125-0.053 0.228-0.135 0.305-0.238l0.001-0.002c0.060-0.1 0.047-0.12 0.047-0.12s-0.013-0.020-0.087 0.067c-0.067 0.080-0.227 0.207-0.267 0.3z"></path>
<path fill="#007934" d="M19.667 12.773s-0.027-0.033-0.033-0.067c-0.013-0.040 0-0.060 0-0.060h-0.020v0.053l0.013 0.027-0.040-0.027-0.020-0.033-0.013 0.013 0.033 0.040c0.040 0.013 0.073 0.067 0.073 0.067"></path>
<path fill="#000" d="M19.533 12.6c0.014-0.004 0.032 0.009 0.040 0.030s0.003 0.044-0.012 0.049c-0.001 0-0.001 0-0.002 0.001l0-0c-0.001 0.001-0.003 0.002-0.005 0.003-0.014 0.005-0.031-0.007-0.039-0.028s-0.003-0.042 0.011-0.047c0.002-0.001 0.004-0.001 0.006-0.001h-0z"></path>
<path fill="#000" d="M19.62 12.58c0.001-0 0.002-0 0.004-0 0.015 0.001 0.025 0.020 0.023 0.042-0.002 0.020-0.013 0.036-0.027 0.038h-0c-0.001 0-0.002 0-0.004 0-0.015-0.001-0.025-0.020-0.023-0.042 0.002-0.020 0.013-0.036 0.027-0.038h0z"></path>
<path fill="#007934" d="M19.667 12.773s0.040-0.033 0.053-0.067c0.020-0.033 0.013-0.053 0.013-0.053h0.020l-0.020 0.053-0.007 0.027 0.040-0.020 0.027-0.027 0.007 0.013-0.040 0.033c-0.040 0.007-0.080 0.047-0.080 0.047"></path>
<path fill="#000" d="M19.833 12.627c-0.001-0.001-0.003-0.003-0.005-0.004-0.013-0.008-0.032 0.001-0.044 0.020s-0.011 0.040 0.002 0.048c0.002 0.001 0.004 0.002 0.006 0.002l-0-0c0.001 0.001 0.003 0.003 0.005 0.004 0.013 0.008 0.032-0.001 0.044-0.020s0.011-0.040-0.002-0.048c-0.002-0.001-0.004-0.002-0.006-0.002l0 0z"></path>
<path fill="#000" d="M19.753 12.593c-0.003-0.002-0.006-0.004-0.010-0.004-0.015-0.001-0.028 0.015-0.030 0.037s0.008 0.041 0.023 0.042c0.004 0 0.008-0.001 0.011-0.002l-0 0c0.002 0.001 0.004 0.002 0.006 0.002 0.015 0.001 0.028-0.015 0.030-0.037s-0.008-0.041-0.023-0.042c-0.005-0.001-0.010 0.001-0.014 0.005l0-0z"></path>
<path fill="#007934" d="M19.693 13.080c-0.139-0.058-0.254-0.15-0.338-0.264l-0.002-0.002c-0.067-0.113-0.053-0.14-0.053-0.14s0.013-0.020 0.093 0.067c0.087 0.093 0.253 0.24 0.3 0.34z"></path>
<path fill="#007934" d="M19.827 13.433l-0.067-0.053c-0.027-0.033-0.033-0.060-0.033-0.060h-0.020c0.017 0.030 0.034 0.057 0.054 0.081l-0.001-0.001-0.053-0.007-0.033-0.020v0.013l0.047 0.027c0.047 0 0.107 0.033 0.107 0.033"></path>
<path fill="#000" d="M19.613 13.32c0-0 0-0 0.001-0.001 0.013-0.013 0.039-0.008 0.057 0.010s0.022 0.044 0.009 0.057l-0 0c-0 0-0 0-0.001 0.001-0.013 0.013-0.039 0.008-0.057-0.010s-0.022-0.044-0.009-0.057l0-0z"></path>
<path fill="#000" d="M19.693 13.253c0.002-0.001 0.004-0.002 0.006-0.003 0.017-0.006 0.038 0.009 0.046 0.034s0.001 0.049-0.017 0.055c-0.003 0.001-0.006 0.001-0.009 0.001h0c-0.002 0.001-0.004 0.002-0.006 0.003-0.017 0.006-0.038-0.009-0.046-0.034s-0.001-0.049 0.017-0.055c0.003-0.001 0.006-0.001 0.009-0.001h-0z"></path>
<path fill="#007934" d="M19.833 13.427s0.027-0.040 0.027-0.087l-0.007-0.067h0.013c0 0.001 0 0.002 0 0.004 0 0.029 0.002 0.058 0.007 0.086l-0-0.003 0.040-0.033 0.013-0.040 0.013 0.007-0.027 0.053c-0.040 0.033-0.067 0.093-0.067 0.093"></path>
<path fill="#000" d="M19.94 13.213c-0.003-0.002-0.007-0.004-0.011-0.005-0.018-0.003-0.036 0.016-0.040 0.042s0.008 0.048 0.026 0.051c0.004 0.001 0.008 0 0.011-0.001l-0 0c0.003 0.002 0.007 0.004 0.011 0.005 0.018 0.003 0.036-0.016 0.040-0.042s-0.008-0.048-0.026-0.051c-0.004-0.001-0.008-0-0.011 0.001l0-0z"></path>
<path fill="#000" d="M19.84 13.207c-0.003-0-0.006 0-0.009 0.001-0.018 0.006-0.025 0.030-0.017 0.055s0.028 0.040 0.046 0.034c0.002-0.001 0.005-0.002 0.007-0.003l-0 0c0.003 0 0.006-0 0.009-0.001 0.018-0.006 0.025-0.030 0.017-0.055s-0.028-0.040-0.046-0.034c-0.002 0.001-0.005 0.002-0.007 0.003l0-0z"></path>
<path fill="#007934" d="M20.22 13.913s-0.033 0.027-0.080 0c-0.040-0.020-0.053-0.047-0.053-0.047l-0.020 0.013 0.067 0.047 0.020 0.013-0.060 0.013-0.040-0.007v0.020h0.067c0.040-0.011 0.074-0.022 0.106-0.036l-0.006 0.002"></path>
<path fill="#000" d="M19.967 13.913c0-0.001 0.001-0.003 0.001-0.004 0.008-0.017 0.035-0.021 0.062-0.009s0.043 0.035 0.035 0.052c-0.001 0.003-0.003 0.005-0.006 0.008l0-0c-0 0.001-0.001 0.003-0.001 0.004-0.008 0.017-0.035 0.021-0.062 0.009s-0.043-0.035-0.035-0.052c0.001-0.003 0.003-0.005 0.006-0.008l-0 0z"></path>
<path fill="#000" d="M20.020 13.813c0.001-0.002 0.003-0.004 0.005-0.005 0.014-0.012 0.041-0.003 0.060 0.019s0.023 0.050 0.009 0.062c-0.002 0.002-0.004 0.003-0.007 0.004l0-0c-0.001 0.002-0.003 0.004-0.005 0.005-0.014 0.012-0.041 0.003-0.060-0.019s-0.023-0.050-0.009-0.062c0.002-0.002 0.004-0.003 0.007-0.004l-0 0z"></path>
<path fill="#007934" d="M20.227 13.933s0.040-0.033 0.013-0.080l-0.040-0.060 0.007-0.013 0.047 0.067 0.013 0.020 0.013-0.060v-0.040h0.013v0.067l-0.033 0.1"></path>
<path fill="#000" d="M20.247 13.673c-0.017 0.007-0.022 0.035-0.012 0.062s0.033 0.045 0.050 0.039c0-0 0.001-0 0.001-0.001l-0 0c0.017-0.007 0.022-0.035 0.012-0.062s-0.033-0.045-0.050-0.039c-0 0-0.001 0-0.001 0.001l0-0zM20.147 13.727c-0.007 0-0.012 0.003-0.017 0.007-0.013 0.013-0.006 0.041 0.016 0.061s0.049 0.026 0.062 0.013c0.004-0.004 0.006-0.009 0.006-0.014l-0 0c0.007-0 0.012-0.003 0.017-0.007 0.013-0.013 0.006-0.041-0.016-0.061s-0.049-0.026-0.062-0.013c-0.004 0.004-0.006 0.009-0.006 0.014l0-0z"></path>
<path fill="#007934" d="M20.72 14.173s-0.033 0.047-0.087 0.033c-0.030-0.006-0.057-0.017-0.081-0.034l0.001 0-0.020 0.020 0.087 0.027 0.033 0.007-0.060 0.040-0.047 0.007v0.020l0.080-0.020c0.013 0 0.093-0.067 0.093-0.067"></path>
<path fill="#000" d="M20.44 14.267c-0.001-0.003-0.002-0.007-0.001-0.011 0.002-0.022 0.030-0.037 0.064-0.034s0.058 0.023 0.056 0.045c-0 0.005-0.002 0.009-0.005 0.014l0-0c0.002 0.005 0.003 0.010 0.003 0.015-0.002 0.022-0.030 0.037-0.064 0.034s-0.058-0.023-0.056-0.045c0-0.004 0.002-0.007 0.003-0.011l-0 0zM20.467 14.133c0.013-0.017 0.044-0.017 0.071-0.001 0.028 0.017 0.042 0.047 0.031 0.065-0 0.001-0.001 0.002-0.002 0.002l0-0c-0.013 0.017-0.044 0.017-0.071 0.001-0.028-0.017-0.042-0.047-0.031-0.065 0-0.001 0.001-0.002 0.002-0.002l-0 0z"></path>
<path fill="#007934" d="M20.76 14.2s0.013-0.047-0.033-0.080c-0.040-0.033-0.073-0.040-0.073-0.040v-0.027l0.080 0.047 0.027 0.020c0.027 0.020 0-0.053-0.013-0.067l-0.027-0.047 0.020-0.013 0.033 0.067 0.013 0.133"></path>
<path fill="#000" d="M20.647 13.933c-0.003 0.001-0.006 0.004-0.009 0.006-0.015 0.016-0.007 0.048 0.017 0.070s0.056 0.028 0.071 0.011c0.004-0.004 0.006-0.009 0.007-0.015l-0 0c0.002-0.001 0.004-0.003 0.006-0.005 0.015-0.016 0.007-0.048-0.017-0.070s-0.056-0.028-0.071-0.011c-0.002 0.002-0.003 0.004-0.004 0.006l0-0zM20.567 14.033c-0 0.001-0.001 0.002-0.001 0.002-0.006 0.021 0.014 0.046 0.046 0.056 0.030 0.009 0.060 0.001 0.068-0.018l0-0c0-0.001 0.001-0.002 0.001-0.002 0.006-0.021-0.014-0.046-0.046-0.056-0.030-0.009-0.060-0.001-0.068 0.018l-0 0z"></path>
<path fill="#452c25" d="M21.273 13.933s-0.153 0.36-0.1 0.4c0 0 0.16-0.287 0.293-0.387 0.073-0.067 0.12 0 0.133-0.067 0-0.053-0.2-0.14-0.2-0.14l-0.12 0.18z"></path>
<path fill="#452c25" d="M21 14.053s-0.153 0.367-0.1 0.4c0 0 0.2-0.22 0.247-0.393 0.053-0.173 0-0.007 0-0.007l-0.013-0.193-0.133 0.18z"></path>
<path fill="#452c25" d="M20.987 13.993s-0.2 0.387-0.147 0.367c0.053-0.027 0.253-0.313 0.28-0.38 0.020-0.067 0.013-0.133 0.013-0.133l-0.153 0.1 0.013 0.073z"></path>
<path fill="#452c25" d="M21.167 13.827s0.187-0.307 0 0.060c-0.187 0.36-0.26 0.3-0.26 0.3-0.013-0.020 0.167-0.267 0.167-0.267s0.133-0.187 0.16-0.207z"></path>
<path fill="#452c25" d="M21.1 13.7s-0.233 0.3-0.2 0.347c0.033 0.053 0.247-0.133 0.313-0.267s-0.113-0.093-0.113-0.093"></path>
<path fill="#e8a30e" d="M23.52 16.733c0 1.362-0.979 2.467-2.187 2.467s-2.187-1.104-2.187-2.467v0c0-1.362 0.979-2.467 2.187-2.467s2.187 1.104 2.187 2.467v0z"></path>
<path fill="#007934" d="M19.147 16.867c0.067 1.3 1.020 2.333 2.187 2.333s2.127-1.033 2.187-2.333h-4.373z"></path>
<path fill="#d52b1e" d="M20.967 15.027c-0.020 0.093 0 0.167 0.047 0.24 0.040 0.060 0.067 0.12 0.060 0.18-0.018 0.011-0.033 0.022-0.048 0.034l0.001-0.001-0.367-0.247 0.247 0.367c-0.005 0.004-0.009 0.009-0.013 0.013l-0 0c-0.039-0.017-0.084-0.027-0.131-0.027-0.024 0-0.048 0.003-0.071 0.008l0.002-0c-0.017 0.003-0.038 0.005-0.058 0.005-0.070 0-0.136-0.022-0.19-0.059l0.001 0.001c0.045 0.073 0.119 0.125 0.205 0.14l0.002 0c0.068 0.012 0.127 0.043 0.173 0.087l-0-0c-0.004 0.014-0.009 0.032-0.013 0.050l-0.001 0.003-0.44 0.087 0.44 0.087v0.020c-0.067 0.025-0.122 0.069-0.159 0.125l-0.001 0.001c-0.047 0.066-0.117 0.114-0.198 0.133l-0.002 0c0.087 0.027 0.167 0 0.24-0.047 0.050-0.036 0.112-0.058 0.179-0.060h0.001l0.027 0.047-0.24 0.373 0.36-0.247 0.020 0.013c-0.020 0.041-0.032 0.090-0.032 0.141 0 0.021 0.002 0.041 0.006 0.061l-0-0.002c0.004 0.018 0.006 0.039 0.006 0.061 0 0.067-0.019 0.128-0.053 0.18l0.001-0.001c0.070-0.046 0.12-0.12 0.133-0.205l0-0.002c0.015-0.066 0.048-0.123 0.093-0.167l0-0 0.053 0.013 0.087 0.433 0.087-0.433h0.020c0.024 0.063 0.066 0.116 0.119 0.153l0.001 0.001c0.070 0.048 0.121 0.12 0.14 0.204l0 0.002c0.005-0.021 0.008-0.045 0.008-0.069 0-0.064-0.021-0.123-0.055-0.172l0.001 0.001c-0.037-0.052-0.060-0.117-0.060-0.187v-0l0.047-0.027 0.367 0.247-0.247-0.367 0.013-0.020c0.067 0.033 0.133 0.040 0.2 0.027 0.020-0.004 0.043-0.007 0.066-0.007 0.067 0 0.13 0.020 0.182 0.054l-0.001-0.001c-0.046-0.070-0.12-0.12-0.205-0.133l-0.002-0c-0.069-0.013-0.128-0.047-0.173-0.093l-0-0 0.013-0.053 0.44-0.087-0.44-0.080c0-0.004 0-0.009 0-0.013s-0-0.009-0-0.014v0.001c0.066-0.023 0.121-0.065 0.159-0.119l0.001-0.001c0.047-0.066 0.117-0.114 0.198-0.133l0.002-0c-0.020-0.005-0.044-0.008-0.068-0.008-0.065 0-0.124 0.020-0.173 0.055l0.001-0.001c-0.050 0.033-0.112 0.053-0.179 0.053-0 0-0.001 0-0.001 0h0c-0.009-0.019-0.018-0.034-0.028-0.049l0.001 0.002 0.247-0.367-0.367 0.247c-0.005-0.003-0.011-0.008-0.018-0.012l-0.002-0.001c0.033-0.067 0.040-0.133 0.027-0.2-0.004-0.018-0.006-0.039-0.006-0.061 0-0.067 0.019-0.128 0.053-0.181l-0.001 0.001c-0.069 0.045-0.118 0.116-0.133 0.198l-0 0.002c-0.014 0.068-0.047 0.128-0.093 0.173l-0 0c-0.014-0.004-0.032-0.009-0.050-0.013l-0.003-0.001-0.087-0.433-0.080 0.433h-0.027c-0.024-0.063-0.066-0.116-0.119-0.153l-0.001-0.001c-0.068-0.049-0.116-0.121-0.133-0.205l-0-0.002z"></path>
</svg>
