<!-- Generated by IcoMoon.io -->
<svg version="1.1" xmlns="http://www.w3.org/2000/svg" width="43" height="32" viewBox="0 0 43 32">
<title>br</title>
<path fill="#229e45" d="M0 0h42.667v32h-42.667z"></path>
<path fill="#f8e509" d="M21.427 29.067l20.1-13.047-20.22-13.087-20.167 13.113 20.287 13.020z"></path>
<path fill="#2b49a3" d="M30.187 16c0 4.687-3.807 8.487-8.507 8.487-4.685-0.008-8.48-3.807-8.48-8.493 0-4.691 3.803-8.493 8.493-8.493s8.493 3.803 8.493 8.493c0 0.002 0 0.005 0 0.007v-0z"></path>
<path fill="#ffffef" d="M18.887 21.087l-0.267-0.153-0.267 0.133 0.060-0.3-0.213-0.227 0.3-0.033 0.147-0.267 0.127 0.28 0.293 0.053-0.22 0.2zM24.58 22.527l-0.26-0.153-0.267 0.133 0.053-0.3-0.207-0.22 0.3-0.033 0.14-0.273 0.133 0.28 0.293 0.053-0.227 0.207zM22.127 20.22l-0.227-0.133-0.233 0.12 0.053-0.26-0.187-0.193 0.267-0.027 0.12-0.24 0.107 0.247 0.26 0.047-0.2 0.18zM27.887 19.393l-0.227-0.133-0.233 0.12 0.053-0.26-0.18-0.187 0.26-0.027 0.12-0.233 0.107 0.24 0.253 0.047-0.193 0.173zM22.027 17.667l-0.267-0.147-0.267 0.133 0.053-0.307-0.207-0.22 0.3-0.033 0.14-0.273 0.133 0.28 0.293 0.053-0.227 0.213zM15.007 15.033l-0.267-0.147-0.267 0.133 0.067-0.307-0.22-0.22 0.307-0.033 0.133-0.273 0.133 0.28 0.293 0.053-0.22 0.207zM15.853 18.54l-0.267-0.153-0.267 0.133 0.060-0.3-0.213-0.22 0.3-0.040 0.14-0.267 0.133 0.28 0.293 0.053-0.22 0.207zM24.613 13.747l-0.24-0.133-0.24 0.12 0.053-0.267-0.187-0.2 0.267-0.033 0.127-0.24 0.113 0.253 0.267 0.047-0.2 0.18zM24.127 16.027l-0.18-0.107-0.193 0.093 0.040-0.213-0.147-0.153 0.213-0.027 0.1-0.187 0.087 0.2 0.2 0.033-0.147 0.147zM14.62 19.173l-0.18-0.1-0.18 0.087 0.040-0.2-0.14-0.147 0.2-0.027 0.093-0.18 0.087 0.187 0.2 0.040-0.153 0.133zM27.933 19.987l-0.147-0.073-0.147 0.067 0.033-0.153-0.113-0.107 0.16-0.020 0.080-0.133 0.067 0.133 0.167 0.033-0.127 0.1z"></path>
<path fill="#ffffef" d="M14.62 19.173l-0.18-0.1-0.18 0.087 0.040-0.2-0.14-0.147 0.2-0.027 0.093-0.18 0.087 0.187 0.2 0.040-0.153 0.133z"></path>
<path fill="#ffffef" d="M14.62 19.173l-0.18-0.1-0.18 0.087 0.040-0.2-0.14-0.147 0.2-0.027 0.093-0.18 0.087 0.187 0.2 0.040-0.153 0.133zM17.407 19.167l-0.173-0.093-0.18 0.087 0.040-0.2-0.14-0.147 0.2-0.027 0.093-0.18 0.087 0.187 0.2 0.033-0.153 0.14zM17.060 20.1l-0.173-0.1-0.18 0.093 0.040-0.2-0.14-0.153 0.2-0.027 0.093-0.18 0.087 0.187 0.2 0.040-0.153 0.133zM22.86 18.413l-0.173-0.107-0.187 0.093 0.040-0.2-0.133-0.153 0.2-0.020 0.093-0.18 0.080 0.187 0.2 0.033-0.147 0.14zM21.16 18.407l-0.18-0.1-0.18 0.093 0.040-0.2-0.133-0.153 0.2-0.020 0.093-0.187 0.080 0.193 0.2 0.033-0.147 0.14zM16.547 17.82l-0.113-0.067-0.113 0.053 0.027-0.127-0.087-0.093 0.127-0.013 0.053-0.113 0.053 0.12 0.127 0.020-0.093 0.087zM27.713 20.713l-0.173-0.1-0.18 0.093 0.040-0.2-0.14-0.153 0.2-0.027 0.093-0.18 0.087 0.187 0.2 0.040-0.153 0.133zM26.3 20.907l-0.147-0.093-0.153 0.080 0.033-0.173-0.113-0.12 0.167-0.020 0.080-0.153 0.067 0.16 0.167 0.027-0.127 0.12zM26.967 20.887l-0.133-0.080-0.14 0.067 0.027-0.153-0.107-0.113 0.153-0.020 0.073-0.133 0.067 0.133 0.153 0.033-0.113 0.107zM28.887 19.207l-0.133-0.067-0.133 0.067 0.033-0.153-0.107-0.113 0.153-0.020 0.067-0.133 0.067 0.14 0.14 0.027-0.107 0.107zM26.28 21.847l-0.167-0.093-0.18 0.080 0.040-0.187-0.133-0.133 0.2-0.020 0.087-0.167 0.080 0.173 0.2 0.033-0.153 0.127zM26.293 22.607l-0.16-0.093-0.16 0.087 0.040-0.187-0.127-0.133 0.18-0.027 0.080-0.167 0.073 0.173 0.18 0.033-0.133 0.133zM25 20.887l-0.127-0.080-0.133 0.067 0.027-0.147-0.1-0.113 0.147-0.013 0.067-0.133 0.067 0.133 0.147 0.027-0.107 0.107zM23.8 20.887l-0.133-0.080-0.133 0.067 0.033-0.147-0.107-0.113 0.153-0.013 0.067-0.133 0.067 0.133 0.14 0.027-0.107 0.107zM21.753 19.093l-0.133-0.073-0.133 0.067 0.033-0.153-0.107-0.107 0.147-0.020 0.067-0.133 0.067 0.133 0.147 0.033-0.107 0.1zM21.98 22.74l-0.107-0.060-0.12 0.060 0.027-0.133-0.087-0.093 0.127-0.013 0.060-0.113 0.053 0.12 0.127 0.020-0.093 0.087zM18.887 16.84l-0.267-0.153-0.267 0.133 0.060-0.3-0.213-0.22 0.3-0.040 0.147-0.267 0.127 0.28 0.293 0.053-0.22 0.207z"></path>
<path fill="#fff" d="M29.627 19.053c0.148-0.368 0.281-0.81 0.377-1.266l0.010-0.054c-4.52-3.967-9.553-6-15.913-5.58-0.209 0.393-0.401 0.854-0.551 1.335l-0.016 0.059c7.533-0.72 13.067 2.613 16.093 5.507z"></path>
<path fill="#309e3a" d="M27.6 16.827l0.153 0.087c-0.015 0.030-0.024 0.065-0.024 0.102 0 0.016 0.002 0.031 0.005 0.046l-0-0.001c0.016 0.049 0.049 0.089 0.092 0.113l0.001 0.001c0.047 0.033 0.093 0.053 0.133 0.047 0.040 0 0.067-0.020 0.087-0.047 0.009-0.013 0.014-0.030 0.014-0.048 0-0.004-0-0.009-0.001-0.013l0 0c-0.006-0.026-0.017-0.048-0.034-0.067l0 0c-0.013-0.020-0.047-0.067-0.1-0.12-0.053-0.055-0.094-0.122-0.119-0.196l-0.001-0.004c-0.006-0.021-0.010-0.045-0.010-0.069 0-0.099 0.058-0.184 0.142-0.223l0.002-0.001c0.029-0.012 0.062-0.020 0.098-0.020 0.020 0 0.039 0.002 0.057 0.007l-0.002-0c0.066 0.016 0.124 0.043 0.175 0.081l-0.001-0.001c0.093 0.067 0.153 0.133 0.173 0.213 0.005 0.020 0.008 0.042 0.008 0.065 0 0.058-0.018 0.111-0.049 0.156l0.001-0.001-0.16-0.1c0.020-0.040 0.027-0.080 0.013-0.113-0.007-0.033-0.033-0.067-0.080-0.093-0.033-0.027-0.074-0.044-0.119-0.047l-0.001-0c-0.001-0-0.001-0-0.002-0-0.025 0-0.046 0.013-0.058 0.033l-0 0c-0.013 0.020-0.013 0.040-0.007 0.067s0.040 0.080 0.107 0.147c0.067 0.067 0.107 0.127 0.133 0.167 0.020 0.036 0.032 0.079 0.032 0.124 0 0.059-0.019 0.113-0.052 0.156l0-0.001c-0.031 0.045-0.074 0.079-0.125 0.099l-0.002 0.001c-0.033 0.015-0.071 0.024-0.112 0.024-0.017 0-0.034-0.002-0.050-0.005l0.002 0c-0.060-0.013-0.12-0.040-0.187-0.087-0.1-0.067-0.16-0.14-0.18-0.22-0.006-0.025-0.010-0.054-0.010-0.084 0-0.067 0.019-0.131 0.051-0.184l-0.001 0.002zM26.827 16.32l0.167 0.087c-0.013 0.027-0.020 0.059-0.020 0.093 0 0.019 0.002 0.038 0.007 0.055l-0-0.002c0.018 0.046 0.050 0.083 0.092 0.106l0.001 0.001c0.053 0.033 0.093 0.047 0.133 0.040 0.040 0 0.067-0.020 0.087-0.053 0.009-0.013 0.014-0.029 0.014-0.047 0-0.002-0-0.005-0-0.007l0 0c0-0.020-0.013-0.047-0.033-0.067-0.037-0.044-0.071-0.083-0.108-0.121l0.001 0.001c-0.073-0.073-0.12-0.133-0.133-0.187-0.007-0.022-0.012-0.048-0.012-0.075 0-0.049 0.014-0.095 0.039-0.133l-0.001 0.001c0.026-0.041 0.062-0.073 0.105-0.093l0.002-0.001c0.031-0.015 0.068-0.023 0.106-0.023 0.014 0 0.028 0.001 0.042 0.003l-0.001-0c0.065 0.011 0.124 0.035 0.175 0.068l-0.002-0.001c0.1 0.067 0.16 0.133 0.18 0.207 0.008 0.025 0.013 0.054 0.013 0.084 0 0.053-0.015 0.102-0.041 0.144l0.001-0.001-0.167-0.093c0.020-0.047 0.027-0.080 0.013-0.113s-0.040-0.067-0.087-0.093c-0.035-0.025-0.078-0.040-0.124-0.040-0.001 0-0.002 0-0.002 0h0c-0.023 0.002-0.042 0.014-0.053 0.033l-0 0c-0.013 0.020-0.013 0.040-0.007 0.067s0.047 0.080 0.113 0.147c0.067 0.067 0.113 0.12 0.133 0.16 0.026 0.040 0.041 0.088 0.041 0.14s-0.015 0.1-0.042 0.141l0.001-0.001c-0.029 0.046-0.070 0.083-0.118 0.106l-0.002 0.001c-0.033 0.015-0.071 0.024-0.112 0.024-0.017 0-0.034-0.002-0.050-0.005l0.002 0c-0.073-0.013-0.138-0.038-0.196-0.075l0.002 0.001c-0.086-0.046-0.151-0.121-0.186-0.211l-0.001-0.003c-0.009-0.030-0.014-0.064-0.014-0.1 0-0.061 0.015-0.118 0.042-0.169l-0.001 0.002zM25.88 16.067l0.487-0.8 0.587 0.367-0.080 0.133-0.427-0.267-0.107 0.18 0.4 0.247-0.087 0.133-0.4-0.247-0.133 0.22 0.447 0.267-0.080 0.133-0.6-0.367zM24.5 14.933l0.073-0.133 0.36 0.18-0.167 0.333c-0.053 0.013-0.12 0.020-0.2 0.013-0.082-0.009-0.156-0.033-0.223-0.068l0.003 0.002c-0.082-0.040-0.149-0.099-0.199-0.172l-0.001-0.002c-0.042-0.062-0.067-0.139-0.067-0.221 0-0.004 0-0.008 0-0.013v0.001c0.004-0.091 0.028-0.175 0.068-0.25l-0.002 0.003c0.041-0.081 0.1-0.149 0.172-0.199l0.002-0.001c0.066-0.046 0.147-0.073 0.235-0.073 0.002 0 0.003 0 0.005 0h-0c0.067 0 0.133 0.020 0.213 0.067 0.107 0.047 0.173 0.113 0.207 0.187 0.020 0.042 0.032 0.091 0.032 0.143 0 0.032-0.005 0.063-0.013 0.092l0.001-0.002-0.18-0.053c0.004-0.014 0.006-0.031 0.006-0.048 0-0.031-0.007-0.060-0.020-0.087l0.001 0.001c-0.020-0.040-0.053-0.067-0.107-0.093-0.036-0.021-0.079-0.033-0.126-0.033-0.029 0-0.057 0.005-0.083 0.014l0.002-0.001c-0.067 0.020-0.127 0.080-0.173 0.173s-0.067 0.18-0.047 0.253c0.019 0.071 0.068 0.129 0.132 0.159l0.001 0.001c0.033 0.020 0.073 0.033 0.113 0.033 0.018 0.003 0.039 0.005 0.060 0.005s0.042-0.002 0.062-0.005l-0.002 0 0.053-0.107-0.193-0.1zM18.487 13.447l0.133-0.933 0.28 0.047 0.073 0.653 0.26-0.6 0.28 0.040-0.133 0.92-0.18-0.027 0.113-0.727-0.293 0.7-0.18-0.027-0.073-0.753-0.107 0.733-0.173-0.027zM17.547 13.333l0.087-0.933 0.687 0.067-0.013 0.16-0.5-0.047-0.020 0.2 0.467 0.047-0.020 0.16-0.467-0.047-0.020 0.253 0.52 0.047-0.013 0.16-0.707-0.067z"></path>
<path fill="#309e3a" d="M14.433 12.753c0-0.1 0.020-0.173 0.047-0.24 0.025-0.049 0.056-0.091 0.093-0.126l0-0c0.033-0.034 0.073-0.061 0.118-0.079l0.002-0.001c0.067-0.020 0.133-0.033 0.2-0.033 0.14 0 0.247 0.053 0.333 0.133 0.068 0.084 0.11 0.192 0.11 0.31 0 0.020-0.001 0.039-0.003 0.059l0-0.002c0 0.147-0.047 0.267-0.133 0.353-0.077 0.071-0.18 0.115-0.294 0.115-0.014 0-0.027-0.001-0.041-0.002l0.002 0c-0.001 0-0.003 0-0.004 0-0.124 0-0.236-0.051-0.315-0.133l-0-0c-0.071-0.084-0.115-0.194-0.115-0.314 0-0.014 0.001-0.027 0.002-0.041l-0 0.002z"></path>
<path fill="#f7ffff" d="M14.627 12.753c0 0.1 0.020 0.18 0.067 0.24 0.047 0.053 0.107 0.087 0.187 0.087 0.005 0 0.011 0.001 0.016 0.001 0.067 0 0.128-0.028 0.17-0.074l0-0c0.047-0.053 0.067-0.133 0.073-0.247 0-0.107-0.013-0.187-0.067-0.24-0.043-0.053-0.107-0.086-0.18-0.087h-0c-0.002-0-0.005-0-0.008-0-0.071 0-0.135 0.031-0.179 0.080l-0 0c-0.053 0.053-0.073 0.133-0.080 0.24z"></path>
<path fill="#309e3a" d="M15.533 13.233l0.013-0.933h0.4c0.1 0 0.167 0.013 0.213 0.033 0.047 0.013 0.080 0.047 0.107 0.087s0.040 0.093 0.040 0.153c0 0.001 0 0.001 0 0.002 0 0.066-0.025 0.126-0.067 0.171l0-0c-0.048 0.045-0.11 0.074-0.179 0.080l-0.001 0 0.1 0.080c0.027 0.027 0.060 0.080 0.1 0.153l0.113 0.187h-0.227l-0.133-0.213-0.093-0.133c-0.016-0.018-0.036-0.032-0.059-0.040l-0.001-0c-0.028-0.008-0.060-0.013-0.093-0.013h-0.040v0.387h-0.193z"></path>
<path fill="#fff" d="M15.733 12.7h0.133c0.093 0 0.153 0 0.173-0.013 0.020 0 0.040-0.020 0.053-0.033s0.020-0.047 0.020-0.067c0-0.040-0.007-0.067-0.027-0.080-0.013-0.020-0.040-0.033-0.067-0.040h-0.133l-0.153-0.007v0.233z"></path>
<path fill="#309e3a" d="M16.6 12.347l0.347 0.020c0.073 0 0.133 0.007 0.173 0.020 0.053 0.020 0.098 0.052 0.133 0.093l0 0c0.037 0.045 0.065 0.098 0.079 0.157l0.001 0.003c0.020 0.060 0.027 0.133 0.020 0.22-0 0.072-0.012 0.14-0.035 0.204l0.001-0.004c-0.027 0.067-0.067 0.12-0.113 0.16-0.037 0.031-0.082 0.054-0.131 0.066l-0.002 0.001c-0.040 0.013-0.1 0.013-0.167 0.013l-0.353-0.020 0.047-0.933z"></path>
<path fill="#fff" d="M16.78 12.513l-0.033 0.62h0.253c0.033 0 0.060-0.013 0.080-0.033s0.040-0.047 0.053-0.087c0.013-0.040 0.027-0.1 0.027-0.173l-0.007-0.167c-0.010-0.037-0.029-0.068-0.053-0.093l0 0c-0.022-0.022-0.049-0.038-0.079-0.046l-0.001-0c-0.045-0.011-0.098-0.018-0.152-0.020l-0.002-0h-0.087z"></path>
<path fill="#309e3a" d="M21.173 14.013l0.22-0.907 0.293 0.067 0.213 0.067c0.047 0.027 0.087 0.067 0.107 0.127 0.027 0.053 0.027 0.113 0.013 0.187-0.013 0.053-0.033 0.1-0.067 0.133-0.048 0.057-0.12 0.093-0.2 0.093-0 0-0 0-0 0h0c-0.047 0-0.113-0.013-0.2-0.033l-0.113-0.033-0.080 0.347-0.187-0.047z"></path>
<path fill="#fff" d="M21.533 13.307l-0.053 0.253 0.1 0.027c0.067 0.013 0.12 0.027 0.147 0.020 0.053-0.008 0.096-0.048 0.107-0.099l0-0.001c0-0.033 0-0.060-0.013-0.087-0.015-0.027-0.038-0.048-0.066-0.060l-0.001-0-0.127-0.033-0.087-0.020z"></path>
<path fill="#309e3a" d="M22.040 14.273l0.313-0.88 0.367 0.133c0.1 0.033 0.16 0.067 0.2 0.093 0.033 0.033 0.060 0.067 0.067 0.12s0.013 0.1 0 0.153c-0.027 0.067-0.067 0.113-0.12 0.147-0.053 0.027-0.12 0.033-0.2 0.020 0.027 0.033 0.053 0.067 0.067 0.107l0.053 0.18 0.040 0.207-0.207-0.073-0.067-0.24c-0.014-0.064-0.030-0.117-0.050-0.169l0.003 0.009c-0.009-0.021-0.023-0.039-0.040-0.053l-0-0c-0.013-0.020-0.040-0.033-0.087-0.047l-0.033-0.013-0.133 0.373-0.173-0.067z"></path>
<path fill="#fff" d="M22.4 13.827l0.127 0.047c0.087 0.033 0.14 0.047 0.167 0.047 0.020 0 0.040 0 0.060-0.020 0.020-0.013 0.033-0.033 0.040-0.060 0.013-0.027 0.013-0.053 0-0.080-0.010-0.026-0.029-0.047-0.053-0.060l-0.001-0-0.267-0.093-0.080 0.22z"></path>
<path fill="#309e3a" d="M23.133 14.24c0.025-0.082 0.063-0.153 0.114-0.214l-0.001 0.001c0.034-0.040 0.073-0.073 0.118-0.099l0.002-0.001c0.038-0.022 0.083-0.038 0.131-0.046l0.002-0c0.067 0 0.133 0 0.207 0.027 0.123 0.031 0.222 0.111 0.279 0.218l0.001 0.002c0.053 0.107 0.053 0.233 0.013 0.38-0.034 0.128-0.116 0.234-0.224 0.299l-0.002 0.001c-0.1 0.060-0.22 0.067-0.347 0.027-0.122-0.032-0.222-0.112-0.279-0.218l-0.001-0.002c-0.028-0.059-0.044-0.129-0.044-0.203 0-0.061 0.011-0.12 0.032-0.174l-0.001 0.003z"></path>
<path fill="#fff" d="M23.32 14.293c-0.027 0.1-0.033 0.187 0 0.253s0.080 0.107 0.153 0.133c0.067 0.020 0.133 0.013 0.2-0.027 0.067-0.033 0.107-0.107 0.14-0.213 0.033-0.1 0.033-0.18 0-0.247-0.027-0.064-0.080-0.112-0.145-0.133l-0.002-0c-0.023-0.008-0.050-0.013-0.078-0.013-0.045 0-0.087 0.012-0.123 0.034l0.001-0.001c-0.067 0.040-0.113 0.107-0.147 0.213z"></path>
<path fill="#309e3a" d="M24.953 15.54l0.427-0.827 0.353 0.18c0.069 0.034 0.129 0.076 0.18 0.127l-0-0c0.033 0.033 0.053 0.073 0.053 0.127s0 0.1-0.027 0.147c-0.026 0.060-0.073 0.107-0.132 0.133l-0.002 0.001c-0.067 0.013-0.133 0.013-0.207-0.013 0.027 0.040 0.040 0.080 0.053 0.113 0.013 0.040 0.020 0.1 0.027 0.187l0.013 0.213-0.2-0.1-0.027-0.247c-0.004-0.062-0.011-0.119-0.021-0.175l0.001 0.008c-0.005-0.026-0.017-0.049-0.033-0.067l0 0-0.080-0.047-0.033-0.020-0.18 0.347-0.167-0.087z"></path>
<path fill="#fff" d="M25.367 15.147l0.127 0.067c0.080 0.040 0.133 0.067 0.153 0.067s0.047 0 0.067-0.013c0.020-0.007 0.033-0.027 0.047-0.053s0.020-0.053 0.013-0.080c-0.009-0.027-0.025-0.050-0.046-0.066l-0-0c-0.031-0.020-0.071-0.042-0.111-0.063l-0.009-0.004-0.133-0.067-0.107 0.213z"></path>
<path fill="#309e3a" d="M28.407 17.247c0.044-0.069 0.1-0.127 0.165-0.172l0.002-0.001c0.042-0.027 0.091-0.048 0.144-0.059l0.003-0.001c0.022-0.005 0.047-0.007 0.073-0.007s0.051 0.003 0.076 0.008l-0.002-0c0.067 0.013 0.127 0.040 0.187 0.080 0.103 0.065 0.176 0.169 0.2 0.291l0 0.003c0.020 0.113-0.013 0.24-0.093 0.367-0.067 0.109-0.172 0.188-0.297 0.219l-0.003 0.001c-0.027 0.006-0.059 0.010-0.091 0.010-0.096 0-0.185-0.031-0.256-0.084l0.001 0.001c-0.103-0.065-0.176-0.169-0.2-0.291l-0-0.003c-0.020-0.12 0.013-0.24 0.093-0.36z"></path>
<path fill="#fff" d="M28.573 17.353c-0.067 0.087-0.087 0.167-0.073 0.24 0.010 0.070 0.050 0.129 0.106 0.166l0.001 0.001c0.067 0.047 0.133 0.060 0.2 0.040s0.133-0.067 0.193-0.16c0.060-0.093 0.087-0.173 0.073-0.24-0.007-0.067-0.047-0.127-0.107-0.173s-0.133-0.053-0.2-0.033c-0.067 0.013-0.133 0.067-0.2 0.16z"></path>
<path fill="#309e3a" d="M20.12 13.633l0.153-0.653 0.48 0.113-0.020 0.107-0.353-0.080-0.033 0.147 0.327 0.073-0.027 0.113-0.327-0.080-0.040 0.18 0.367 0.087-0.027 0.107-0.5-0.113z"></path>
</svg>
