<!-- Generated by IcoMoon.io -->
<svg version="1.1" xmlns="http://www.w3.org/2000/svg" width="43" height="32" viewBox="0 0 43 32">
<title>bt</title>
<path fill="#ffd520" d="M0.007 0h42.673v32h-42.673z"></path>
<path fill="#ff4e12" d="M0.007 32h42.673v-32z"></path>
<path fill="#fff" d="M23.027 10c-0.267-0.087-0.44 0.047-0.427 0.393 0 0.34 0.187 0.533 0.453 0.407l-0.027-0.8z"></path>
<path fill="#fff" d="M23.26 9.36c-0.22-0.173-0.427-0.1-0.533 0.227-0.1 0.333 0.007 0.573 0.3 0.533l0.233-0.76z"></path>
<path fill="#fff" d="M23.627 8.733c-0.187-0.2-0.4-0.16-0.56 0.147-0.153 0.307-0.087 0.567 0.213 0.58l0.347-0.72zM23.387 11.767c-0.327 0.12-0.36 0.567-0.153 0.84 0.2 0.273 0.58 0.327 0.787 0l-0.633-0.84z"></path>
<path fill="#fff" d="M23.007 10.82c-0.307-0.1-0.587 0.313-0.633 0.687-0.060 0.467-0.733 0.627-0.36 1.34 0.080-0.453 0.38-0.707 0.62-0.72 0.24-0.020 0.6-0.067 0.753-0.36l-0.38-0.947zM23.987 12.66c-0.36 0.087-0.413 0.567-0.153 0.907 0.22 0.293 0.913 0.227 0.893-0.067l-0.733-0.84zM25.007 15.553c0.020-0.313-0.48-0.433-0.72-0.373-0.24 0.067-0.7-0.007-0.8-0.267-0.093 0.207 0.033 0.433 0.38 0.547 0.267 0.080 0.26 0.267 0.18 0.36 0.2 0.033 0.78 0.033 0.96-0.267z"></path>
<path fill="#fff" d="M24.727 13.58c-0.353-0.16-0.56 0.080-0.693 0.307-0.2 0.333-0.807-0.093-1.013 0.353 0.28-0.12 0.56 0.133 0.693 0.22 0.38 0.247 1.107 0.173 1.213-0.413l-0.2-0.467z"></path>
<path fill="#fff" d="M24.933 13.987c-0.353 0.267-0.493 0.587-0.48 0.8 0.007 0.213 0.307 0.687 0.633 0.713 0.187-0.387 0.287-1.2-0.153-1.513zM23.467 15.647c0-0.133 0.187-0.18 0.32-0.133 0.127 0.040 0.327 0.167 0.253 0.307l-0.573-0.173zM21.533 14.933c-0.033-0.153 0.213-0.42 0.547-0.273s0.38 0.427 0.24 0.54l-0.787-0.267z"></path>
<path fill="#fff" d="M22.347 15.227c-0.027-0.087 0.22-0.26 0.627-0.16 0.413 0.107 0.513 0.373 0.5 0.58l-1.127-0.42zM21.487 14.94c0.22-0.16 0.133-0.467-0.060-0.567-0.347-0.173-0.22-0.613-0.447-0.7-0.22-0.087-0.433-0.24-0.447-0.4-0.107 0.22-0.040 0.413 0.113 0.553 0.153 0.133-0.12 0.693 0.080 0.84l0.76 0.273zM16.887 14.82c-0.18-0.28-0.607-0.233-0.787-0.033s-0.153 0.487 0.013 0.62l0.773-0.587zM17.92 14.4c-0.067-0.38-0.527-0.42-0.773-0.327-0.253 0.093-0.42 0.473-0.26 0.747l1.033-0.42z"></path>
<path fill="#fff" d="M18.6 14.347c0.167-0.313-0.153-0.787-0.513-0.853-0.3-0.067-0.653-0.060-0.773-0.353-0.067 0.253 0.12 0.42 0.347 0.567 0.22 0.147-0.040 0.52 0.32 0.733l0.627-0.093z"></path>
<path fill="#fff" d="M18.573 14.36c-0.080-0.227 0.073-0.533 0.38-0.507 0.313 0.020 0.487 0.24 0.353 0.527l-0.733-0.020z"></path>
<path fill="#fff" d="M19.26 14.38c-0.047-0.24 0.147-0.52 0.453-0.453 0.3 0.067 0.44 0.313 0.267 0.567l-0.72-0.12z"></path>
<path fill="#fff" d="M19.933 14.487c-0.027-0.24 0.18-0.507 0.48-0.427s0.427 0.333 0.24 0.58l-0.713-0.153zM14.76 18.42c-0.58 0-0.72 0.133-0.8 0.733-0.107 0.733 0.9 0.82 0.8-0.733z"></path>
<path fill="#fff" d="M15.013 17.647c-0.88-0.333-1.36 1.067-2.24 0.813 0.313 0.5 1.073 0 1.36 0.053 0.48 0.087 1.52-0.093 0.88-0.867zM14.44 19.56c-0.44-0.2-0.907 0.467-0.827 0.767 0.113 0.367 1.113 0.067 0.827-0.767zM12.4 22.447c0.24 0.067 0.533 0.2 0.48 0.667s-0.933 1.407-1.72 1.467c-0.787 0.047-1.067 1-1.753 0.733 0.64-0.12 0.64-0.84 1.133-1.067-0.36-0.133-0.547 0.687-1.013 0.687s-0.687 0.74-1.253 0.687c-0.567-0.047-0.62 0.9-1.76 0.913-0.867 0.007-1.933 1.020-2.327 0.58 0.847-0.12 1.187-0.587 1.687-1.1 0.8-0.82 1.713-0.453 2.027-1.18-0.33 0.226-0.739 0.36-1.178 0.36-0.015 0-0.029-0-0.044-0l0.002 0c-0.533-0.013-1.107 0.84-1.7 0.467 0.34-0.047 0.567-0.193 0.927-0.573 0.367-0.387 0.913-0.133 1.34-0.533 0.667-0.613 1.247-0.1 1.887-0.867-0.18-0.093-0.567-0.033-0.927 0.16-0.36 0.187-0.82-0.133-1.233 0.093 0.047-0.507 1.013-0.22 1.613-0.567 0.68-0.4 1.24-0.28 1.773-0.233-0.747 0-1.033-0.713-2.067-0.507-0.447 0.093-0.807-0.62-1.253-0.26 0.013-0.267 0.48-0.48 0.96-0.22s0.673-0.227 1.633 0.38c0.4 0.247 1.073-0.16 1.5 0.107-0.053-0.16-0.3-0.267-0.587-0.24 0.18-0.373 1.347-0.327 1.853 0.047z"></path>
<path fill="#fff" d="M13.16 21.887c-0.373-0.293-0.9 0.060-1.267-0.080 0 0.24 0.127 0.6 0.52 0.74 0.12-0.087 0.667-0.56 0.747-0.66z"></path>
<path fill="#fff" d="M13.753 21.053c-0.593-0.3-0.693 0.447-1.16 0.293 0.020 0.213 0.193 0.48 0.567 0.54l0.6-0.833z"></path>
<path fill="#fff" d="M14.107 20.373c-0.873-0.34-0.987 0.5-1.5 0.333 0.12 0.293 0.853 0.453 1.233 0.347l0.267-0.68zM15.307 16.693c-0.233-0.333-0.72-0.067-0.8 0.327-0.073 0.387 0.113 0.927 0.44 0.8l0.36-1.133z"></path>
<path fill="#fff" d="M15.9 15.667c-0.4-0.1-0.867-0.053-0.813 0.333-0.16 0.073-0.2 0.58 0.22 0.693l0.593-1.033z"></path>
<path fill="#fff" d="M16.167 15.4c-0.4-0.467-0.833-0.46-1.080-0.267-0.46 0.367-0.9 0.16-0.913 0.52 0.273-0.213 0.52 0.040 0.733-0.033 0.227-0.080 0.393 0.353 1.013 0.173l0.247-0.4zM15.213 22.327c0.060 0.113 0.427 0.16 0.607-0.027 0.24-0.253-0.020-0.947-0.4-1-0.38-0.047-0.413 0.787-0.207 1.027z"></path>
<path fill="#fff" d="M14.787 22.34c0.533 0.2 0.767-0.247 0.48-0.533-0.154 0.195-0.311 0.369-0.479 0.532l-0.001 0.001z"></path>
<path fill="#fff" d="M12.76 23.080c-0.107 0.313-0.64 0.36-1.24 1.32-0.6 0.967-1.173 0.56-1.32 1.22 0.72-0.58 1.287-0.2 1.72-0.773 0.647-0.873 1.187-0.747 1.44-1.333 0.36-0.847 1.933-0.827 2.027-2.153-0.533-0.1-2.22 1.327-2.627 1.72zM26.307 10.1c0.687 0.227 0.7 1.113 1.493 1.407 0.787 0.293 0.867 1 1.513 0.827-0.6-0.167-0.56-0.86-1.187-1.033-0.733-0.2-1.013-1.32-1.6-1.493M29.46 14.76c0.12 0.28 0.1 0.767-0.333 0.893 0.233 0.147 0.58 0.013 0.767-0.307-0.28 0.627-0.093 1.193 0.353 1.307-0.213-0.44 0.267-0.647 0.113-0.933 0.28 0.127 0.533 0.513 0.52 0.753 0.373-0.413-0.267-0.967-0.153-1.353l-1.267-0.36zM25 19.173c-0.42-0.367-0.6 0.1-0.8-0.067-0.2-0.147-0.453-0.167-0.553-0.020 0.36 0.013 0.187 0.293 0.887 0.36-0.7 0.047-0.573 0.833-1.040 0.793 0.493 0.467 0.753-0.42 1.16-0.273-0.12 0.033 0.187 0.313-0.027 0.693 0.347-0.007 0.487-0.487 0.533-0.733l-0.16-0.753zM15.733 23.187c-0.147-0.133-0.6-0.193-0.767-0.087-0.173 0.1-0.113 0.133 0.093 0.147s0.467 0.347 0.027 0.367c-0.207 0.007-0.133 0.507-0.567 0.54 0.173 0.213 0.68 0.073 0.86-0.16-0.033 0.193 0.22 0.367 0.12 0.6 0.313 0.033 0.133-0.647 0.633-0.613-0.2 0.027-0.12 0.493 0.24 0.373-0.213 0.1-0.1 0.353 0.133 0.293-0.147 0.047-0.2 0.247 0.013 0.36 0.207-0.287-0.027-1.3-0.78-1.82zM34.44 13.713c0.027 0.002 0.058 0.003 0.089 0.003 0.659 0 1.193-0.534 1.193-1.193s-0.534-1.193-1.193-1.193c-0.031 0-0.062 0.001-0.093 0.004l0.004-0c-0.62 0.048-1.104 0.562-1.104 1.19s0.485 1.142 1.1 1.19l0.004 0z"></path>
<path fill="#fff" d="M28.227 15.147c0.367-0.34 0.913-0.513 1.293-0.253 0.373 0.253 1.627 0.56 2.247 0.133s0.913-0.653 1.187-0.6c0.2 0.307 0.453 0.453 0.76 0.48 0.093 0.107 0.433 0.187 0.62 0.167 0.273 0.067 0.607-0.020 0.873-0.313 0.413 0.067 0.8-0.247 0.947-0.713 0.44-0.047 0.467-0.533 0.187-0.867-0.253-0.047-0.060-0.92-0.993-0.747 0.4 0.24 0.093 0.72 0.42 0.947-0.22 0-0.513 0.093-0.58 0.427 0.087-0.227-0.013-0.387-0.067-0.433 0-0.2-0.433-0.687-0.847-0.507 0.293 0.067 0.133 0.533 0.347 0.72-0.17 0.007-0.318 0.091-0.412 0.219l-0.001 0.001c-0.113-0.2-0.507-0.4-0.747-0.42 0-0.067-0.013-0.2-0.047-0.273-0.107-0.207-0.2-0.453-0.153-0.767-0.187 0.219-0.348 0.47-0.472 0.74l-0.008 0.020c-0.327-0.227-1.133 0.1-1.513 0.187-0.373 0.087-1.647-0.12-1.933-0.427-0.39-0.314-0.862-0.543-1.379-0.65l-0.021-0.004c-0.733-0.213-0.733-1.013-1.54-1.567-0.020 1 1.493 4.16 1.833 4.5zM19.813 22.74c0.637 0 1.153-0.516 1.153-1.153s-0.516-1.153-1.153-1.153v0c-0.637 0-1.153 0.516-1.153 1.153s0.516 1.153 1.153 1.153v0z"></path>
<path fill="#fff" d="M17.067 21.853c0.233 0.3 0.627 0.28 0.793 0.26 0.133 0.36 0.573 0.347 0.76 0.547 0.193 0.2 0.833 0.18 1.020 0.067-0.167-0.013-0.393-0.12-0.6-0.3-0.267-0.213-0.147-0.653-0.347-0.8 0.098-0.123 0.157-0.281 0.157-0.453 0-0.043-0.004-0.084-0.011-0.125l0.001 0.004c0.16-0.093 0.28-0.247 0.293-0.327 0.249-0.012 0.473-0.114 0.64-0.274l-0 0c0.147 0.133 0.513-0.040 0.713 0.187 0.040-0.567-0.5-0.867-0.867-0.673-0.14-0.080-0.527-0.027-0.6 0.073-0.113-0.053-0.453 0.12-0.6 0.233 0.167-0.093 0.193-0.38 0.127-0.48 0.147-0.067 0.307-0.26 0.327-0.4 0.2 0.033 0.513-0.107 0.647-0.073-0.22-0.293-0.587-0.4-0.967-0.367-0.393 0.020-0.56 0.293-0.613 0.587-0.227 0.14-0.307 0.6-0.22 0.767-0.133 0-0.26 0.127-0.307 0.2-0.185-0.078-0.399-0.127-0.624-0.133l-0.003-0M16.873 19.907c-0.080-0.227 0.020-0.427 0.073-0.6 0.133-0.453 0.053-0.573-0.353-0.513 0.026 0.409 0.127 0.788 0.288 1.133l-0.008-0.019z"></path>
<path fill="#fff" d="M16.573 18.82c0.107 0.107 0.467 0.153 0.507-0.173 0.047-0.373-0.107-0.52-0.433-0.373-0.027 0.087-0.053 0.433-0.067 0.547z"></path>
<path fill="#fff" d="M16.653 18.26c0.133 0.053 0.433 0.167 0.6-0.153 0.133-0.267-0.047-0.467-0.333-0.453-0.067 0.080-0.2 0.353-0.267 0.607z"></path>
<path fill="#fff" d="M16.907 17.627c0.033 0.107 0.387 0.447 0.64 0.2 0.26-0.247 0.26-0.62-0.127-0.753-0.1 0.013-0.413 0.373-0.513 0.553z"></path>
<path fill="#fff" d="M17.42 17.067c0.073 0.22 0.32 0.587 0.767 0.42 0.447-0.173 0.253-0.733 0.047-0.847-0.314 0.091-0.586 0.24-0.817 0.436l0.003-0.003z"></path>
<path fill="#fff" d="M18.233 16.64c-0.033 0.193 0 0.707 0.613 0.7 0.607-0.013 0.44-0.727 0.28-0.827-0.247 0-0.667 0.007-0.893 0.133z"></path>
<path fill="#fff" d="M19.153 16.533c-0.067 0.153-0.22 1.113 0.973 0.847 0.153-0.033 0.553-0.92-0.973-0.84z"></path>
<path fill="#fff" d="M19.807 16.627c-0.12 0.12 0.187 1.087 1 0.927 0.8-0.167 0.127-1.087-1-0.933z"></path>
<path fill="#fff" d="M20.493 16.773c-0.133 0.267 0.067 1.053 1.060 1.053 0.9 0-0.047-1.040-1.060-1.053z"></path>
<path fill="#fff" d="M21.273 17c-0.067 0.153-0.14 0.987 1.033 1.060 0.847 0.053 0.64-1.153-1.033-1.060z"></path>
<path fill="#fff" d="M22.533 17.353c-0.14 0.26-0.293 0.9 0.993 0.953 0.82 0.033 0.313-0.933-0.987-0.953z"></path>
<path fill="#fff" d="M23.607 17.553c-0.187 0.253-0.047 0.76 0.433 0.853 0.6 0.12 0.687-0.447 0.273-0.72-0.413-0.267-0.707-0.133-0.707-0.133z"></path>
<path fill="#fff" d="M24.2 17.667c-0.14 0.247-0.060 0.827 0.853 0.827 0.187 0 0.907-0.733-0.86-0.82zM17.14 28.867c0.736 0 1.333-0.597 1.333-1.333s-0.597-1.333-1.333-1.333v0c-0.736 0-1.333 0.597-1.333 1.333s0.597 1.333 1.333 1.333v0z"></path>
<path fill="#fff" d="M26.94 9.447c-0.139 0.154-0.259 0.33-0.354 0.52l-0.006 0.014c-0.447 1.333 0.747 2.333 1.44 3.78 0.223 0.496 0.353 1.076 0.353 1.686 0 0.882-0.272 1.7-0.736 2.375l0.009-0.014c-0.293 0.387-0.207 0.5-0.587 0.893-0.147 0.153-0.307 0.347-0.253 0.893 0.24-0.087 0.58 0.133 0.647 0.333 0.173-0.093 0.413-0.060 0.5 0.047 0.293-0.133 0.533-0.067 0.793 0.2 0.22-0.027 0.467 0 0.687 0.247 0.12-0.24 0.36-0.333 0.533-0.273-0.020-0.313 0.287-0.533 0.56-0.413-0.009-0.036-0.014-0.077-0.014-0.12 0-0.28 0.227-0.507 0.507-0.507 0.058 0 0.113 0.010 0.165 0.027l-0.004-0.001c0.313-0.24 0.933-0.26 1.24 0.1-0.553-0.153-0.533 0.433-1 0.38 0.12 0.34-0.187 0.54-0.493 0.653 0.2-0.093 0.413-0.207 0.48-0.087 0.173-0.153 0.513-0.093 0.6-0.020 0.227-0.067 0.447-0.013 0.547 0.26 0.313 0.187 0.52 0.667 0.293 1.027-0.067-0.373-0.327-0.36-0.427-0.513-0.24 0.087-0.48 0.087-0.553-0.067-0.133 0.133-0.6 0.26-0.8 0.053-0.080 0.307-0.347 0.567-0.66 0.567 0.087 0.24-0.153 0.647-0.34 0.853 0.293 0.153 0.2 0.5 0.133 0.707 0.453 0.067 0.067 0.467 0.847 0.72-0.38 0.12-1.12 0-1.22-0.467-0.38-0.013-0.633-0.393-0.62-0.787-0.293-0.273-0.333-0.667 0.067-0.947-0.34 0.107-0.533-0.447-1.027-0.22-0.247 0.113-0.9-0.080-0.893-0.307-0.1 0.167-0.733 0.1-0.813-0.193-0.207 0.113-0.687-0.073-0.68-0.36-0.267 0.12-0.627-0.093-0.607-0.367-0.253-0.033-0.28-0.26-0.267-0.447-0.22-0.107-0.16-0.32-0.067-0.573-0.16-0.173-0.093-0.413 0.027-0.64-0.167-0.173-0.133-0.373-0.087-0.62-0.82-0.067-1.853-0.267-4.22-0.993-3.573-1.1-4.533 1.48-3.747 3.093 0.913 1.867-0.1 2.267 0.207 3.653 0.333 0.067 0.5 0.347 0.48 0.64 0.2 0.007 0.333 0.187 0.267 0.533 0.029-0.005 0.063-0.008 0.097-0.008 0.158 0 0.302 0.061 0.41 0.162l-0-0c0.12-0.227 0.52-0.28 0.72-0.020 0.447-0.033 0.673 0.333 0.653 0.773 0.089 0.164 0.141 0.358 0.141 0.565 0 0.272-0.091 0.523-0.243 0.725l0.002-0.003c0.027-0.18 0-0.433-0.007-0.593-0.020-0.28-0.413-0.34-0.373-0.573-0.2 0.020-0.4-0.093-0.467-0.247-0.079 0.068-0.183 0.11-0.296 0.11-0.051 0-0.101-0.009-0.147-0.024l0.003 0.001c0.227 0.1 0.413 0.513 0.34 0.787 0.12 0.207 0.093 0.587-0.047 0.747-0.067 0.333-0.333 0.453-0.667 0.307 0.193-0.12 0.26-0.333 0.253-0.513-0.109-0.109-0.18-0.255-0.193-0.418l-0-0.002c-0.333 0.053-0.8-0.233-0.88-0.347 0 0 0 0-0 0-0.736 0-1.333 0.597-1.333 1.333 0 0.002 0 0.005 0 0.007v-0c-0.040-0.273-0.387-0.547-0.34-0.78-0.207-0.633 0.087-1.227 0.927-1.347-0.107-0.24 0.253-0.487 0.12-0.76-0.283-0.51-0.608-0.95-0.982-1.343l0.002 0.003c0.293-0.5 0.2-1.167 0.033-1.58-0.247-0.593-0.48-0.447-1.353 0.513-1.427 1.567-3.333 1.133-5.013 2.167-0.447 0.267-0.893 0.373-0.413-0.107s1.747-0.96 2.573-1.373c1.547-0.773 2.853-2.060 3.367-4.567 1.207-5.893 5.667-3.947 8.48-2.853 2.647 1.033 2.167-1.3 0.827-2.713-1.613-1.687-1.287-3.020-0.533-4.087 1.353-0.187 3.96 0.287 3.433 0.74z"></path>
<path fill="#fff" d="M31.727 23.92c0.812 0 1.47-0.658 1.47-1.47s-0.658-1.47-1.47-1.47v0c-0.81 0-1.467 0.657-1.467 1.467s0.657 1.467 1.467 1.467v0z"></path>
<path fill="#fff" d="M26.453 6.867c-0.687-0.333-2.113-0.973-2.52-0.46 0.373-0.153 1.453 0.007 2.347 0.833l0.173-0.367z"></path>
<path fill="#fff" d="M26.867 6.833c-0.793-0.927-1.267-0.72-1.833-1.033-0.533-0.3-1.387-0.36-1.553 0.113 0.78-0.38 1.5 0.2 1.947 0.28 0.6 0.093 0.947 0.567 1.127 0.78l0.313-0.133zM29.86 6.713c-0.413-0.94-1.293-0.693-1.68-1.093-0.567-0.587-2-1.133-2.6-0.727 1.307-0.067 1.867 0.9 2.56 1.24 0.5 0.24 1.033 0.753 1.72 0.58z"></path>
<path fill="#fff" d="M28.313 6.613c-0.7-0.873-1.787-1.647-2.28-1.36 0.653 0.040 0.86 0.493 1.32 0.787 0.467 0.287 0.26 0.713 0.96 0.573zM24.967 8.16c-0.733-0.273-2.18-0.413-2.853 0.427 1.12 0.193 2.8 0.087 2.853-0.427z"></path>
<path fill="#fff" d="M24.827 8.487c-0.733-0.347-1.313 0.133-2.007 0.067-1.32-0.133-2.267-0.053-2.387 0.587 0.753-0.68 2.027-0.12 2.54-0.26 0.513-0.133 2.42-0.020 3.020 0.24-0.307-0.38-0.787-0.48-1.167-0.633zM27.147 6.52c-0.173-0.567-0.16-1.167 0.687-1.127-0.213-0.267-1-0.4-1.133 0.593-0.933-0.687-1.96-0.807-2.147-0.213 0.48-0.413 1.227-0.113 2.12 0.9 0.137-0.071 0.296-0.125 0.464-0.152l0.009-0.001z"></path>
<path fill="#fff" d="M25.86 7.3c-0.533-0.347-1.253-0.9 0.007-1.127-0.533-0.287-1.333-0.16-1.247 0.833-1.44-0.58-2.473-0.387-2.693 0.193-0.24 0.633 0.653 0.987 0.807 0.58-0.16 0.067-0.72-0.12-0.427-0.48s1.787-0.087 3.207 0.653c0.4 0.2 1.753 0.173 0.347-0.653z"></path>
<path fill="#fff" d="M25.48 8.247c-0.407-0.84-1.74-0.080-2.007-0.893-0.373 1.193 1.893 0.533 2.007 0.893zM33.953 9.153c0.28 0.14 0.52-0.080 0.093-0.247 0.28 0.133 0.527-0.073 0.1-0.247 0.28 0.133 0.52-0.073 0.093-0.247-0.113 0.113-0.273 0.533-0.287 0.74zM34.1 7.54c0.62-0.653-0.047-0.873 0.707-1.547 0.62-0.547 0.12-0.913 0.7-1.333 0.193-0.14 0.6-0.413 0.64-0.693 0.247 0.62-0.773 0.707-0.707 1.7 0.047 0.633-0.387 0.58-0.547 1.653-0.033 0.22-0.193 0.72-0.793 0.22z"></path>
<path fill="#fff" d="M34.373 7.833c0.347-0.733 0.74-0.727 0.933-1.013 0.36-0.553 1.12 0.093 1.767-0.4-0.113 0.7-0.98 0.453-1.36 0.9-0.373 0.447-0.687 0.647-1.333 0.513z"></path>
<path fill="#fff" d="M34.467 8.073c0.6-0.48 1.040-0.16 1.453-0.413 1.047-0.633 1.467 0.133 2.4-0.173-0.24 0.6-1.627 0.087-2.227 0.533s-2.713 0.88-1.633 0.053zM32.713 11.5c-0.013-0.273-0.267-0.627-0.627-0.667-0.36-0.047-0.52-0.427-0.793-0.44-0.273-0.020-0.453-0.567-0.833-0.56-0.373 0.007-0.533 0.5 0.353 0.947s1.867 0.96 1.9 0.72zM31.593 11.733c-0.373 0.013-0.427 0.567-0.787 0.58 0.493 0.267 0.86-0.12 1.113-0.467l-0.32-0.113z"></path>
<path fill="#fff" d="M31.907 11.8c-0.333 0.273-0.427 0.847 0.047 1.013-0.28-0.393 0.5-0.567 0.26-0.933l-0.307-0.080z"></path>
<path fill="#fff" d="M32.227 11.82c-0.253 0.493 0.407 0.553 0.233 0.933 0.38-0.087 0.44-0.8 0.093-0.987l-0.327 0.047z"></path>
<path fill="#fff" d="M29.707 10.753c0.62-0.033 1.18 0.3 1.56 0.84 0.24 0.34 1.047 0.48 1.327 0.2 0.267-0.267 0.12-0.853-0.567-0.667-0.173-0.287-0.667-0.187-0.913-0.427-0.24-0.24-1.167-0.927-1.407 0.053z"></path>
<path fill="#fff" d="M32.027 11.133c-0.167 0.033-0.22 0.313-0.113 0.46M32.38 11.3c0.047 0.087 0.013 0.207-0.013 0.267M30.687 10.78c0.313 0.013 0.373 0.247 0.72 0.333"></path>
<path fill="#fff" d="M30.473 10c0.946 0.188 1.785 0.472 2.571 0.848l-0.065-0.028c0.54 0.307 1.38 0.4 2.107 0.187 0.733-0.2 2.147-0.393 2.073 0.52 0.387-0.46-0.1-0.947-1.080-1.033 0.020-0.447-0.46-0.847-0.8-0.58 0.313-0.047 0.587 0.547-0.040 0.787 0.013-0.044 0.020-0.095 0.020-0.147 0-0.309-0.251-0.56-0.56-0.56-0.087 0-0.17 0.020-0.243 0.055l0.003-0.001c0.293 0.087 0.6 0.587-0.067 0.773-0.42 0.12-1.027-0.033-1.48-0.307s-3-1.267-2.44-0.52z"></path>
<path fill="#fff" d="M33.24 9.553c-0.34 0.153-0.12 0.513-0.647 0.72-0.533 0.2-0.907 0.673-0.787 1.080 0.36-0.793 1-0.753 1.22-1.067 0.227-0.307 0.553-0.76 0.213-0.733z"></path>
<path fill="#fff" d="M33.333 9.6c-0.013 0.627-0.507 0.4-0.313 1.28 0.060 0.273 0.173 0.72-0.020 1.167 0.553-0.4 0.2-1.247 0.447-1.567 0.12-0.16 0.28-0.4 0.333-0.6-0.127 0.353-0.113 1.027 0.233 1.2-0.28-0.667 0.767-1.22 0.047-2-0.107 0.2-0.433 0.533-0.72 0.52zM31.587 8.973c0.087 0.133 0.173 0.453 0.093 0.64 0.173-0.107 0.42-0.373 0.5-0.553 0.353 0.053 0.487 0.487 0.153 0.68 0.2 0 0.56 0 0.753-0.233-0.24-0.267-0.987-0.68-1.5-0.533z"></path>
<path fill="#fff" d="M26.247 7.74c-0.089-0.069-0.198-0.117-0.317-0.133l-0.003-0c-0.52-0.107-0.247-0.573 0.193-0.567 0.947-1.033 1.473-0.24 2.627-0.56 0.4-0.12 0.68-0.087 0.893 0.013 0.52-0.347 1.12-0.253 1.56 0.153 0.044-0.076 0.114-0.133 0.198-0.159l0.003-0.001c0.407-0.113 0.733 0.227 0.847 0.673 0.313-0.053 0.673 0.1 0.913 0.313 0.327-0.167 0.547-0.173 0.633 0 0.293-0.133 0.667-0.227 0.86 0.24s-0.447 0.327-0.553 1.307c-0.067 0.6-0.733 0.84-1.267 0.48-0.853-0.58-1.687-0.667-2.1 0.2-0.407 0.88-0.733 1.387-1.733 1.1-0.071-0.017-0.152-0.026-0.236-0.026-0.362 0-0.682 0.18-0.875 0.456l-0.002 0.003c-0.293 0.4-0.733 0.027-1.267 0.067 0.667-0.1 0.407-0.267 0.993-0.307 0.533-0.033 0.393-0.533 0.733-0.6-1.333 0.34-1.287-0.16-2.387 0.187 0.48-0.62 1.24-0.273 1.613-0.633-0.993-0.020-1.44-0.667-1.887-0.4-0.7 0.433-0.4 1.653-2.233 1.547-0.893-0.047-1.46 0.067-1.987 0.6 0.927-1.92 2.187-0.867 2.8-1.473 0.314-0.284 0.586-0.606 0.809-0.961l0.011-0.019c0.054-0.106 0.149-0.184 0.264-0.213l0.003-0.001c-1.527-0.48-0.6-1.233 0.893-1.287z"></path>
<path fill="#fff" d="M33.793 7.467c0.020 0.053 0.033 0.12 0.033 0.2 0 0.373-0.567 0.387-0.6 0.947-0.020 0.293-0.053 0.453-0.247 0.42-0.2-0.033-0.373-0.34-0.187-0.7"></path>
<path fill="#fff" d="M26.533 7.18c-0.114-0.085-0.258-0.137-0.413-0.14h-0.001M29.64 6.487c0.453 0.2 0.673 0.667 1.333 0.693 0.64 0.020 1.033 0.947 2.1 0.34 0.012-0.007 0.038-0.021 0.065-0.033l0.015-0.007M31.2 6.647c-0.066 0.118-0.105 0.258-0.105 0.408 0 0.049 0.004 0.097 0.012 0.144l-0.001-0.005M29.12 8.593c-0.8 0-1.013 0.407-1.013 0.8 0 0.4 0.38 0.913 1.047 0.913s1.033-0.413 1.033-0.86-0.413-0.86-1.067-0.86z"></path>
<path fill="#fff" d="M29.267 10.287c-0.013-0.22-0.42-0.187-0.4-0.36 0.013-0.173 0.22-0.24 0.22-0.48s0.36-0.26 0.48-0.067c0.12 0.187 0.48 0.553 0.56 0.367M29.567 9.38c-0.111 0.118-0.179 0.277-0.179 0.452 0 0.161 0.058 0.308 0.153 0.423l-0.001-0.001M29.827 9.667c-0.067 0.133-0.080 0.333-0.007 0.453"></path>
<path fill="#fff" d="M31.467 8.053c-0.213-0.533-0.767-0.607-1.053-0.34-0.247 0.22-0.253 0.8 0.267 0.92 0.187-0.22 0.533-0.5 0.787-0.58zM31.233 7.72c-0.313-0.273-0.767 0.247-0.353 0.72M25.347 9.020c0.213-0.047 0.513 0.053 0.98 0.267 0.287 0.14 1.167 0.433 1.713 0.14-0.567 0.207-1-0.647-1.427-0.547-0.427 0.107-1.213 0.267-1.54-0.053 0.8 0.053 1.233-0.587 2.16-0.033 0.24 0.151 0.531 0.24 0.843 0.24 0.011 0 0.021-0 0.032-0l-0.002 0c-0.753-0.907-1.747-0.327-1.853-1.067 0.453 0.493 1.567-0.107 2.133 0.807M26.42 8.107c-0.107-0.133-0.067-0.267-0.173-0.367"></path>
<path fill="#000" d="M32.253 7.167c-0.187-0.2-0.6-0.047-0.48 0.36 0.089-0.192 0.265-0.331 0.476-0.366l0.004-0.001zM31.087 8.267c0.109-0.086 0.235-0.158 0.37-0.21l0.010-0.003c-0.055-0.14-0.142-0.256-0.252-0.345l-0.002-0.001c-0.1-0.067-0.38 0.313-0.127 0.553z"></path>
<path fill="#fff" d="M32.24 7.167c-0.208 0.039-0.379 0.174-0.465 0.356l-0.002 0.004"></path>
</svg>
