<!-- Generated by IcoMoon.io -->
<svg version="1.1" xmlns="http://www.w3.org/2000/svg" width="43" height="32" viewBox="0 0 43 32">
<title>by</title>
<path fill="#b20000" d="M0 0h64.007v21.256h-64.007z"></path>
<path fill="#429f00" d="M0 21.256h64.007v10.744h-64.007z"></path>
<path fill="#fff" d="M0 0h7.088v32h-7.088z"></path>
<path fill="#b20000" d="M0.338 0.544h0.338v0.544h-0.338zM1.35 0.544h1.013v0.544h-1.013zM1.688 0h0.338v0.544h-0.338zM3.375 0h0.338v0.544h-0.338zM4.726 0.544h1.013v0.544h-1.013zM5.063 0h0.338v0.544h-0.338zM1.013 1.087h0.675v0.538h-0.675zM2.025 1.087h0.675v0.538h-0.675zM4.388 1.087h0.675v0.538h-0.675zM5.401 1.087h0.675v0.538h-0.675zM0.675 1.625h0.675v0.544h-0.675zM2.363 1.625h0.675v0.544h-0.675zM4.050 1.625h0.675v0.544h-0.675zM5.738 1.625h0.675v0.544h-0.675zM6.413 0.544h0.338v0.544h-0.338zM0.338 2.169h0.675v0.544h-0.675zM2.7 2.169h0.675v0.544h-0.675zM6.076 2.169h0.675v0.544h-0.675zM0.675 3.794h0.675v0.544h-0.675zM1.013 4.338h0.675v0.544h-0.675zM2.363 3.8h0.675v0.537h-0.675zM2.025 4.338h0.675v0.544h-0.675zM1.35 4.881h1.013v0.544h-1.013z"></path>
<path fill="#b20000" d="M1.688 5.425h0.338v0.544h-0.338zM4.050 3.8h0.675v0.537h-0.675zM4.388 4.338h0.675v0.544h-0.675zM5.738 3.8h0.675v0.537h-0.675zM5.401 4.338h0.675v0.544h-0.675zM4.726 4.881h1.013v0.544h-1.013zM5.063 5.425h0.338v0.544h-0.338zM3.375 4.875h0.338v0.544h-0.338zM0 4.875h0.338v0.544h-0.338zM6.751 4.875h0.338v0.544h-0.338zM1.688 7.588h0.338v0.544h-0.338zM1.35 8.137h1.013v0.537h-1.013zM1.013 8.675h1.688v0.544h-1.688zM5.063 7.594h0.338v0.544h-0.338zM4.726 8.137h1.013v0.537h-1.013zM4.388 8.675h1.688v0.544h-1.688zM4.726 11.387h1.688v0.544h-1.688zM4.050 9.219h2.363v0.544h-2.363zM0.675 9.219h2.363v0.544h-2.363zM1.013 11.931h1.013v0.544h-1.013zM0.675 11.387h1.688v0.544h-1.688zM5.401 10.313h1.688v0.544h-1.688zM5.063 11.938h1.013v0.544h-1.013z"></path>
<path fill="#b20000" d="M1.35 12.475h0.338v0.544h-0.338zM5.401 12.475h0.338v0.544h-0.338zM0 10.306h1.688v0.544h-1.688zM3.038 11.387h1.013v0.544h-1.013zM3.375 11.938h0.338v0.544h-0.338zM2.363 10.313h2.363v0.544h-2.363zM3.713 2.169h0.675v0.544h-0.675zM3.038 2.712h1.013v0.544h-1.013zM2.7 3.256h0.675v0.538h-0.675zM3.713 3.256h0.675v0.538h-0.675zM0 2.712h0.675v0.544h-0.675zM0.338 3.256h0.675v0.538h-0.675zM6.413 2.712h0.675v0.538h-0.675zM6.076 3.25h0.675v0.538h-0.675zM0 8.125h0.338v0.544h-0.338zM6.751 8.125h0.338v0.544h-0.338zM3.038 12.469h1.013v0.544h-1.013zM2.7 13.012h0.675v0.537h-0.675zM3.713 13.012h0.675v0.537h-0.675zM2.363 13.55h0.675v0.544h-0.675zM4.050 13.55h0.675v0.544h-0.675zM2.025 14.094h0.675v0.544h-0.675zM4.388 14.094h0.675v0.544h-0.675zM1.688 14.644h0.675v0.544h-0.675zM4.726 14.644h0.675v0.544h-0.675zM1.013 15.188h1.013v0.544h-1.013zM5.063 15.188h1.013v0.544h-1.013zM5.738 14.644h0.675v0.544h-0.675zM6.076 14.1h0.675v0.544h-0.675zM6.413 13.556h0.675v0.544h-0.675zM0.675 14.644h0.675v0.544h-0.675zM0.338 14.1h0.675v0.544h-0.675zM0 13.563h0.675v0.544h-0.675zM1.35 15.738h0.338v0.538h-0.338zM5.401 15.738h0.338v0.538h-0.338zM3.375 14.113h0.338v0.537h-0.338zM2.363 15.738h0.338v0.538h-0.338zM4.388 15.738h0.338v0.538h-0.338zM3.375 15.738h0.338v0.538h-0.338zM0 15.738h0.338v0.538h-0.338zM6.751 15.738h0.338v0.538h-0.338zM3.375 8.137h0.338v0.537h-0.338zM1.688 2.712h0.338v0.544h-0.338zM5.063 2.712h0.338v0.544h-0.338zM3.038 6.506h1.013v0.544h-1.013zM2.363 7.050h1.013v0.544h-1.013zM2.7 7.594h0.338v0.544h-0.338zM2.025 6.506h0.675v0.544h-0.675zM2.363 5.969h1.013v0.537h-1.013zM2.7 5.425h0.338v0.544h-0.338zM3.713 5.969h1.013v0.537h-1.013zM4.050 5.425h0.338v0.544h-0.338zM4.388 6.506h0.675v0.544h-0.675zM3.713 7.050h1.013v0.544h-1.013zM4.050 7.594h0.338v0.544h-0.338zM5.401 6.506h0.675v0.544h-0.675zM5.738 5.969h1.013v0.537h-1.013zM6.413 6.506h0.675v0.544h-0.675zM5.738 7.050h1.013v0.544h-1.013zM6.076 7.594h0.338v0.544h-0.338zM6.076 5.425h0.338v0.544h-0.338zM0 6.5h0.675v0.544h-0.675zM0.338 5.963h1.013v0.537h-1.013zM1.013 6.5h0.675v0.544h-0.675zM0.338 7.044h1.013v0.544h-1.013z"></path>
<path fill="#b20000" d="M0.675 7.594h0.338v0.544h-0.338zM0.675 5.425h0.338v0.544h-0.338zM0.338 9.762h1.35v0.544h-1.35zM2.025 9.762h1.35v0.544h-1.35zM3.713 9.762h1.35v0.544h-1.35zM5.401 9.762h1.35v0.544h-1.35zM2.7 10.85h1.688v0.537h-1.688zM0.338 10.85h1.688v0.537h-1.688zM5.063 10.85h1.688v0.537h-1.688zM6.751 13.019h0.338v0.537h-0.338zM0 13.019h0.338v0.537h-0.338zM0.338 31.456h0.338v-0.538h-0.338zM1.35 31.456h1.013v-0.538h-1.013zM1.688 32h0.338v-0.544h-0.338zM3.375 32h0.338v-0.544h-0.338zM4.726 31.456h1.013v-0.544h-1.013zM5.063 32h0.338v-0.544h-0.338zM1.013 30.913h0.675v-0.538h-0.675zM2.025 30.913h0.675v-0.538h-0.675zM4.388 30.913h0.675v-0.538h-0.675zM5.401 30.913h0.675v-0.538h-0.675zM2.363 30.375h0.675v-0.544h-0.675zM4.050 30.375h0.675v-0.544h-0.675zM5.738 30.375h0.675v-0.544h-0.675zM6.413 31.456h0.338v-0.544h-0.338zM0.338 29.831h0.675v-0.544h-0.675zM2.7 29.831h0.675v-0.544h-0.675zM6.076 29.831h0.675v-0.544h-0.675zM0.675 28.206h0.675v-0.544h-0.675zM1.013 27.663h0.675v-0.544h-0.675zM2.363 28.206h0.675v-0.544h-0.675zM2.025 27.663h0.675v-0.544h-0.675zM1.35 27.119h1.013v-0.544h-1.013zM1.688 26.575h0.338v-0.538h-0.338zM4.050 28.2h0.675v-0.538h-0.675zM4.388 27.663h0.675v-0.544h-0.675zM5.738 28.206h0.675v-0.544h-0.675zM5.401 27.663h0.675v-0.544h-0.675zM4.726 27.119h1.013v-0.544h-1.013zM5.063 26.575h0.338v-0.538h-0.338zM3.375 27.125h0.338v-0.544h-0.338zM0 27.125h0.338v-0.544h-0.338zM6.751 27.125h0.338v-0.544h-0.338zM1.688 24.413h0.338v-0.544h-0.338zM1.35 23.863h1.013v-0.538h-1.013zM1.013 23.325h1.688v-0.544h-1.688zM5.063 24.406h0.338v-0.544h-0.338z"></path>
<path fill="#b20000" d="M4.726 23.863h1.013v-0.538h-1.013zM4.388 23.325h1.688v-0.544h-1.688zM4.726 20.613h1.688v-0.55h-1.688zM4.050 22.781h2.363v-0.544h-2.363zM0.675 22.781h2.363v-0.544h-2.363zM1.013 20.069h1.013v-0.544h-1.013zM0.675 20.613h1.688v-0.55h-1.688zM5.401 21.688h1.688v-0.544h-1.688zM5.063 20.063h1.013v-0.544h-1.013zM0 21.688h1.688v-0.544h-1.688zM3.038 20.606h1.013v-0.544h-1.013zM3.375 20.063h0.338v-0.544h-0.338zM2.363 21.688h2.363v-0.544h-2.363zM3.713 29.825h0.675v-0.544h-0.675zM3.038 29.281h1.013v-0.531h-1.013zM2.7 28.738h0.675v-0.544h-0.675zM3.713 28.738h0.675v-0.544h-0.675zM0 29.288h0.675v-0.538h-0.675zM0.338 28.744h0.675v-0.538h-0.675zM6.413 29.288h0.675v-0.538h-0.675zM6.076 28.744h0.675v-0.538h-0.675zM0 23.875h0.338v-0.544h-0.338zM6.751 23.875h0.338v-0.544h-0.338zM2.7 18.988h0.675v-0.538h-0.675zM3.713 18.988h0.675v-0.538h-0.675zM2.363 18.45h0.675v-0.544h-0.675zM4.050 18.45h0.675v-0.544h-0.675zM2.025 17.906h0.675v-0.544h-0.675zM4.388 17.906h0.675v-0.544h-0.675zM1.688 17.356h0.675v-0.544h-0.675zM4.726 17.356h0.675v-0.544h-0.675zM1.013 16.813h1.013v-0.544h-1.013zM5.063 16.813h1.013v-0.544h-1.013zM5.738 17.356h0.675v-0.544h-0.675zM6.076 17.9h0.675v-0.544h-0.675zM6.413 18.444h0.675v-0.544h-0.675zM0.675 17.356h0.675v-0.544h-0.675zM0.338 17.9h0.675v-0.544h-0.675zM0 18.438h0.675v-0.544h-0.675zM1.35 16.262h0.338v-0.537h-0.338zM3.375 17.887h0.338v-0.538h-0.338zM3.375 23.856h0.338v-0.538h-0.338zM1.688 29.281h0.338v-0.531h-0.338zM5.063 29.281h0.338v-0.531h-0.338zM3.038 25.5h1.013v-0.544h-1.013zM2.363 24.956h1.013v-0.544h-1.013zM2.7 24.413h0.338v-0.544h-0.338zM2.025 25.5h0.675v-0.544h-0.675zM2.363 26.031h1.013v-0.531h-1.013zM2.7 26.575h0.338v-0.538h-0.338zM3.713 26.031h1.013v-0.531h-1.013zM4.050 26.575h0.338v-0.538h-0.338zM4.388 25.494h0.675v-0.544h-0.675zM3.713 24.95h1.013v-0.544h-1.013zM4.050 24.406h0.338v-0.544h-0.338zM5.401 25.5h0.675v-0.544h-0.675zM5.738 26.031h1.013v-0.531h-1.013zM6.413 25.494h0.675v-0.544h-0.675zM5.738 24.95h1.013v-0.544h-1.013zM6.076 24.406h0.338v-0.544h-0.338zM6.076 26.575h0.338v-0.538h-0.338zM0 25.5h0.675v-0.544h-0.675zM0.338 26.031h1.013v-0.531h-1.013z"></path>
<path fill="#b20000" d="M1.013 25.494h0.675v-0.544h-0.675zM0.338 24.95h1.013v-0.544h-1.013zM0.675 24.406h0.338v-0.544h-0.338zM0.675 26.575h0.338v-0.538h-0.338zM0.338 22.238h1.35v-0.544h-1.35zM2.025 22.238h1.35v-0.544h-1.35zM3.713 22.238h1.35v-0.544h-1.35zM5.401 22.238h1.35v-0.544h-1.35zM2.7 21.15h1.688v-0.538h-1.688zM0.338 21.15h1.688v-0.538h-1.688zM5.063 21.15h1.688v-0.538h-1.688zM6.751 18.988h0.338v-0.55h-0.338zM0 18.988h0.338v-0.55h-0.338zM3.038 16.269h0.338v0.544h-0.338zM3.713 16.269h0.338v0.544h-0.338zM3.713 15.188h0.338v0.544h-0.338zM3.038 15.188h0.338v0.544h-0.338zM0.675 29.831h0.675v0.544h-0.675zM5.401 19.525h0.338v-0.544h-0.338zM1.35 19.525h0.338v-0.544h-0.338zM3.038 18.981h1.013v0.544h-1.013z"></path>
</svg>
