<!-- Generated by IcoMoon.io -->
<svg version="1.1" xmlns="http://www.w3.org/2000/svg" width="43" height="32" viewBox="0 0 43 32">
<title>bz</title>
<path fill="#ce1126" d="M0 0h42.667v32h-42.667z"></path>
<path fill="#003f87" d="M0 2.287h42.667v27.427h-42.667z"></path>
<path fill="#fff" d="M33.907 16c0 6.944-5.629 12.573-12.573 12.573s-12.573-5.629-12.573-12.573c0-6.944 5.629-12.573 12.573-12.573s12.573 5.629 12.573 12.573z"></path>
<path fill="#007f00" d="M20.133 4.88c0.933-1.013 1.793 0.153 1.767 0.707-0.020 0.547-0.967 1.747-1.833 0.78 0.893 0.227 1.16-0.767 1.607-0.78-0.447 0.013-0.633-0.973-1.547-0.707zM10.32 12.813c-0.493-1.293 0.933-1.533 1.42-1.267 0.487 0.26 1.153 1.64-0.107 1.973 0.6-0.693-0.18-1.367 0.013-1.773-0.193 0.4-1.167 0.133-1.327 1.067zM31.46 11.533c1.293 0.507 0.507 1.72-0.013 1.893-0.527 0.18-2-0.267-1.4-1.413 0.107 0.907 1.133 0.8 1.313 1.207-0.173-0.413 0.687-0.933 0.1-1.687zM14.587 25.16c-1.38-0.133-0.953-1.513-0.5-1.827s2-0.287 1.733 0.98c-0.353-0.84-1.313-0.453-1.6-0.8 0.287 0.347-0.4 1.087 0.367 1.647zM28.54 24.16c0.020 1.38-1.407 1.12-1.773 0.707-0.36-0.413-0.513-1.933 0.787-1.82-0.8 0.44-0.307 1.347-0.627 1.667 0.32-0.32 1.14 0.267 1.613-0.547zM11.333 10.2c-0.127-1.373 1.32-1.22 1.713-0.84 0.4 0.387 0.667 1.893-0.64 1.88 0.767-0.507 0.2-1.367 0.493-1.707-0.293 0.333-1.153-0.187-1.567 0.667zM12.813 23.067c-1.367-0.233-0.847-1.58-0.373-1.86 0.467-0.28 2.007-0.153 1.667 1.093-0.3-0.867-1.287-0.533-1.54-0.907 0.253 0.367-0.48 1.067 0.247 1.667zM23.62 4.933c1.24-0.613 1.62 0.78 1.4 1.287-0.213 0.5-1.533 1.293-1.987 0.087 0.747 0.527 1.353-0.313 1.78-0.16-0.427-0.153-0.247-1.133-1.193-1.213zM26.267 25.887c-0.62 1.233-1.767 0.353-1.9-0.18s0.433-1.953 1.533-1.267c-0.92 0.033-0.893 1.067-1.32 1.2 0.427-0.133 0.887 0.76 1.687 0.247zM32.3 13.973c1.040 0.913-0.113 1.787-0.667 1.78-0.547-0.007-1.787-0.92-0.833-1.8-0.2 0.893 0.8 1.133 0.827 1.573-0.020-0.447 0.967-0.653 0.667-1.553zM14.767 6.72c0.313-1.333 1.633-0.747 1.893-0.26 0.253 0.487 0.033 2-1.2 1.587 0.887-0.247 0.62-1.24 1-1.467-0.38 0.227-1.033-0.533-1.693 0.14zM10.66 18.22c-1.213-0.667-0.28-1.767 0.267-1.873 0.533-0.113 1.947 0.513 1.2 1.58 0.013-0.913-1.027-0.933-1.147-1.367 0.12 0.433-0.8 0.847-0.32 1.667zM28.233 7.58c1.373-0.2 1.293 1.247 0.933 1.653-0.367 0.413-1.867 0.76-1.927-0.533 0.547 0.733 1.387 0.127 1.747 0.4-0.36-0.273 0.127-1.153-0.753-1.52zM20.42 27.207c-1.267 0.56-1.587-0.847-1.353-1.333 0.24-0.5 1.593-1.24 2-0.007-0.733-0.56-1.367 0.253-1.787 0.087 0.42 0.167 0.2 1.147 1.14 1.253zM31.787 19.533c0.573 1.253-0.84 1.58-1.34 1.347s-1.253-1.573-0.013-1.98c-0.56 0.727 0.267 1.353 0.093 1.773 0.167-0.42 1.153-0.2 1.267-1.14zM10.113 15.493c-0.8-1.133 0.533-1.713 1.067-1.573 0.533 0.133 1.52 1.32 0.38 1.947 0.413-0.82-0.507-1.287-0.42-1.727-0.087 0.44-1.1 0.407-1.027 1.347zM17.6 26.373c-1.307 0.473-1.533-0.947-1.26-1.427 0.267-0.48 1.667-1.127 1.993 0.133-0.687-0.607-1.38 0.16-1.787-0.033 0.4 0.193 0.12 1.153 1.053 1.327zM17.22 5.44c0.773-1.147 1.8-0.133 1.867 0.42 0.060 0.54-0.687 1.88-1.693 1.053 0.92 0.087 1.027-0.933 1.467-1.013-0.44 0.080-0.78-0.867-1.64-0.467zM30.567 22.247c0.087 1.373-1.353 1.18-1.733 0.78-0.387-0.393-0.607-1.907 0.693-1.853-0.78 0.48-0.24 1.36-0.547 1.693 0.307-0.333 1.153 0.22 1.587-0.62zM30.213 9.287c1.36 0.267 0.8 1.6 0.313 1.867-0.48 0.267-2.013 0.087-1.627-1.147 0.267 0.873 1.267 0.58 1.507 0.96-0.24-0.38 0.513-1.047-0.2-1.68zM12.987 8.313c0.013-1.373 1.433-1.080 1.787-0.66s0.467 1.953-0.827 1.8c0.813-0.42 0.333-1.333 0.667-1.647-0.333 0.313-1.133-0.3-1.627 0.507zM11.267 20.733c-1.24-0.627-0.34-1.76 0.193-1.887 0.533-0.133 1.967 0.447 1.267 1.533-0.027-0.913-1.067-0.893-1.2-1.32 0.133 0.427-0.773 0.873-0.267 1.667zM26.133 6.067c1.3-0.487 1.533 0.933 1.267 1.413s-1.66 1.14-1.993-0.113c0.693 0.6 1.38-0.173 1.793 0.020-0.413-0.193-0.133-1.153-1.067-1.32zM23.38 27.053c-1.013 0.947-1.78-0.273-1.72-0.82s1.087-1.687 1.88-0.66c-0.867-0.287-1.2 0.693-1.66 0.667 0.453 0.027 0.567 1.020 1.5 0.813zM32.227 16.52c0.947 1.007-0.293 1.767-0.84 1.7-0.547-0.060-1.693-1.087-0.653-1.867-0.293 0.867 0.687 1.2 0.667 1.647 0.020-0.447 1.027-0.56 0.827-1.48z"></path>
<path fill="#005800" d="M20.067 6.367c0.893 0.227 1.113-0.753 1.567-0.767-0.267 0.313-0.947 1.113-1.567 0.767zM20.133 4.88c0.933-1.013 1.793 0.153 1.767 0.707-0.767-1.333-1-1.133-1.773-0.707zM11.627 13.52c0.6-0.693-0.187-1.327 0-1.733 0.173 0.373 0.593 1.34 0 1.733zM10.313 12.807c-0.493-1.287 0.933-1.527 1.42-1.267-1.54 0.093-1.467 0.4-1.42 1.267zM30.040 12.020c0.107 0.9 1.113 0.753 1.287 1.167-0.393-0.133-1.4-0.473-1.287-1.173zM31.453 11.533c1.293 0.507 0.507 1.72-0.020 1.893 0.98-1.187 0.7-1.333 0.020-1.893zM15.82 24.313c-0.353-0.84-1.28-0.427-1.56-0.78 0.413 0.020 1.467 0.080 1.56 0.78zM14.587 25.16c-1.38-0.133-0.953-1.513-0.5-1.827-0.613 1.407-0.307 1.473 0.5 1.827zM27.553 23.047c-0.8 0.44-0.28 1.307-0.6 1.62-0.027-0.4-0.087-1.453 0.6-1.62zM28.54 24.16c0.020 1.38-1.407 1.12-1.773 0.707 1.487 0.44 1.513 0.133 1.773-0.707zM12.4 11.227c0.767-0.5 0.18-1.32 0.467-1.667 0.067 0.407 0.2 1.453-0.467 1.667zM11.327 10.2c-0.127-1.373 1.32-1.22 1.713-0.84-1.513-0.327-1.52-0.013-1.713 0.84zM14.093 22.3c-0.293-0.867-1.247-0.507-1.5-0.88 0.407 0.047 1.46 0.18 1.5 0.88zM12.807 23.067c-1.367-0.233-0.847-1.58-0.373-1.86-0.707 1.367-0.4 1.453 0.373 1.86zM23.027 6.307c0.753 0.527 1.313-0.313 1.74-0.167-0.36 0.2-1.287 0.707-1.733 0.167zM23.62 4.933c1.24-0.613 1.62 0.78 1.4 1.287-0.233-1.52-0.533-1.407-1.4-1.287zM25.9 24.44c-0.92 0.033-0.853 1.040-1.287 1.173 0.167-0.373 0.6-1.333 1.287-1.167zM26.267 25.887c-0.62 1.233-1.767 0.353-1.9-0.18 1.113 1.067 1.28 0.8 1.9 0.18zM30.8 13.953c-0.207 0.893 0.793 1.087 0.813 1.533-0.327-0.253-1.147-0.913-0.813-1.533zM32.3 13.973c1.040 0.913-0.113 1.787-0.667 1.78 1.327-0.8 1.113-1.027 0.667-1.78zM15.46 8.040c0.887-0.24 0.587-1.2 0.973-1.433-0.067 0.4-0.267 1.433-0.973 1.44zM14.767 6.72c0.313-1.333 1.633-0.747 1.893-0.26-1.333-0.78-1.44-0.48-1.893 0.267zM12.133 17.92c0.007-0.907-1.013-0.887-1.133-1.32 0.373 0.18 1.327 0.647 1.133 1.327zM10.667 18.22c-1.22-0.667-0.287-1.767 0.26-1.873-1.12 1.060-0.867 1.24-0.267 1.873zM27.24 8.7c0.547 0.733 1.347 0.107 1.707 0.38-0.407 0.080-1.447 0.273-1.707-0.38zM28.233 7.58c1.373-0.2 1.293 1.247 0.933 1.653 0.247-1.513-0.067-1.5-0.933-1.653zM21.067 25.867c-0.733-0.56-1.327 0.26-1.74 0.093 0.367-0.187 1.313-0.653 1.733-0.093zM20.42 27.207c-1.267 0.56-1.587-0.847-1.353-1.333 0.18 1.52 0.48 1.427 1.353 1.333zM30.433 18.893c-0.56 0.727 0.267 1.313 0.1 1.727-0.187-0.36-0.667-1.3-0.1-1.733zM31.787 19.527c0.573 1.253-0.84 1.58-1.34 1.347 1.533-0.187 1.44-0.48 1.34-1.347zM11.567 15.86c0.413-0.82-0.513-1.24-0.427-1.68 0.253 0.32 0.9 1.153 0.427 1.68zM10.113 15.48c-0.8-1.127 0.533-1.7 1.067-1.567-1.473 0.467-1.32 0.733-1.067 1.573zM18.333 25.080c-0.687-0.607-1.333 0.167-1.747-0.027 0.38-0.16 1.36-0.567 1.747 0.020zM17.6 26.373c-1.307 0.473-1.533-0.947-1.26-1.427 0.073 1.533 0.38 1.46 1.26 1.427zM17.4 6.913c0.913 0.087 0.98-0.92 1.42-1-0.207 0.353-0.76 1.253-1.427 1zM17.22 5.433c0.773-1.14 1.8-0.12 1.867 0.42-0.967-1.2-1.173-0.953-1.867-0.42zM29.533 21.173c-0.78 0.48-0.22 1.32-0.527 1.653-0.047-0.407-0.153-1.453 0.533-1.653zM30.573 22.247c0.087 1.373-1.353 1.18-1.733 0.78 1.493 0.38 1.513 0.067 1.733-0.78zM28.907 10.007c0.267 0.873 1.233 0.553 1.473 0.933-0.4-0.067-1.453-0.233-1.467-0.933zM30.22 9.287c1.36 0.267 0.8 1.6 0.313 1.867 0.753-1.34 0.453-1.44-0.313-1.867zM13.953 9.46c0.813-0.427 0.313-1.307 0.64-1.613 0.020 0.407 0.053 1.46-0.64 1.613zM12.993 8.313c0.013-1.373 1.433-1.080 1.787-0.66-1.467-0.473-1.507-0.16-1.787 0.667zM12.727 20.38c-0.020-0.913-1.040-0.853-1.173-1.28 0.38 0.16 1.347 0.6 1.173 1.28zM11.267 20.733c-1.233-0.627-0.333-1.76 0.2-1.887-1.080 1.093-0.82 1.267-0.2 1.887zM25.413 7.373c0.693 0.6 1.333-0.187 1.747 0-0.38 0.173-1.353 0.58-1.747 0zM26.133 6.067c1.3-0.487 1.533 0.933 1.267 1.42-0.080-1.533-0.387-1.46-1.267-1.42zM23.54 25.573c-0.867-0.287-1.16 0.68-1.613 0.667 0.287-0.3 1.027-1.053 1.613-0.667zM23.38 27.053c-1.013 0.947-1.78-0.273-1.72-0.82 0.667 1.38 0.92 1.193 1.72 0.82zM30.733 16.353c-0.293 0.867 0.68 1.153 0.66 1.6-0.3-0.28-1.053-1.020-0.66-1.6zM32.227 16.52c0.947 1.007-0.293 1.767-0.84 1.7 1.4-0.66 1.207-0.907 0.84-1.7z"></path>
<path fill="#730000" d="M23.267 8.020s0.040-0.087 0.113-0.040c0.067 0.053 0.087 0.28 0.087 0.28l-0.107 0.053s0.060-0.087-0.087-0.293zM22.68 10.067s0.053-0.067-0.020-0.227l0.1-0.033s0.040 0.12-0.013 0.26h-0.067M24.48 9.707l-0.247 0.153 0.127 0.053 0.3-0.173-0.18-0.033M21.167 10.68c-0.067 0.053-0.067 0.14-0.113 0.2-0.027 0.047-0.133 0.12-0.133 0.2-0.013 0.073-0.020 0.127 0.013 0.233 0.040 0.1 0.2 0.567 0.133 0.913-0.067 0.353-0.040 0.5-0.020 0.553 0.027 0.053 0.107 0.2 0.153 0.2 0.107-0.013 0.060-0.047 0.1-0.113 0.093-0.167 0-1.48-0.047-1.84-0.033-0.28-0.167-0.533-0.18-0.56l-0.053-0.173c-0.1-0.233-0.22-0.433-0.22-0.927 0 0-0.313 0.073-0.587-0.547-0.147-0.313-0.353-0.28-0.6-0.38l0.107-0.073s0.213 0.107 0.313 0.107c0.107 0 0.067-0.213 0.067-0.213l0.113-0.1v0.453c0 0.207 0.287 0.493 0.453 0.58 0.107 0.053 0.24-0.16 0.207-0.373-0.033-0.2 0-0.487 0-0.487l0.147 0.087s-0.053 0.087-0.040 0.14c0.020 0.053 0.087-0.047 0.14-0.1 0 0 0.013 0.013 0.067 0.013l-0.153 0.267c-0.053 0.080-0.053 0.413-0.053 0.533 0 0.133 0.047 0.413 0.047 0.507 0 0.067 0.12 0.333 0.22 0.493l0.107 0.233c0.080 0.127 0.087 0.213 0.133 0.313 0.027 0.053 0.067 0.2 0.107 0.467l0.047 0.467c0.013 0.16 0.147 0.040 0.3-0.067 0.16-0.12 0.16-0.4 0.16-0.4s0.12-0.107 0.1-0.047c-0.013 0.067 0.067 0.133 0.067 0.133-0.093 0.22-0.040 0.193 0.060 0.187 0.1-0.013 0.433-0.267 0.433-0.267 0.047-0.013 0.253-0.013 0.22 0-0.040 0.020-0.093 0.113-0.093 0.113l0.22-0.027c-0.073 0.060-0.367 0.227-0.433 0.267-0.152 0.085-0.34 0.177-0.534 0.258l-0.040 0.015c-0.153 0.067-0.447 0.213-0.46 0.36 0 0.153 0.020 0.553 0 0.687l-0.067 0.707h-0.693s0.133-0.507 0-0.647c-0.14-0.14-0.467-0.56-0.667-0.7-0.213-0.133 0.133-0.033 0.133-0.033v-0.14l0.32 0.38s0.553-0.487 0-1.153c-0.173-0.207-0.353-0.527-0.487-0.56-0.147-0.040-0.22-0.067-0.46 0-0.247 0.073-0.84 0.073-1.087-0.32l0.207-0.033 0.18-0.067s-0.073 0.247 0.42 0.247 0.56 0 0.52-0.453l0.147-0.073 0.107 0.1s-0.073 0.253-0.033 0.353c0.033 0.107 0.2 0.18 0.34 0.28 0.067 0.047 0.107 0.053 0.147 0.053 0.060-0.007 0.067-0.007 0.147-0.087 0.12-0.133 0.093-0.12 0.213-0.227l0.067-0.107 0.073 0.193z"></path>
<path fill="#730000" d="M21.267 10.333c0.033-0.027 0.080-0.127 0.133-0.207 0.073-0.133 0.167-0.213 0.267-0.373 0.1-0.147 0.133-0.373 0.1-0.527l0.093 0.053v0.247l0.18-0.133 0.053 0.027s-0.393 0.4-0.753 1.060l-0.067-0.147zM17.847 8.98c0.053 0.093 0.107 0.267 0.26 0.4l0.107-0.027s-0.24-0.28-0.24-0.4l-0.127 0.027M18.46 8.82s0.033 0.333-0.053 0.46l0.107-0.053s0.067-0.227 0.047-0.353l-0.1-0.047zM21.887 7.773s-0.020 0.467 0.073 0.753l0.127-0.033s-0.020-0.087 0.080-0.127c0.107-0.033 0.353-0.133 0.48-0.24l-0.040-0.107s-0.187 0.153-0.28 0.193c-0.087 0.033-0.133 0.067-0.207 0.047s-0.16-0.133-0.107-0.4l-0.127-0.087M23.267 9.96s-0.027 0.333-0.013 0.48l0.113 0.027s-0.027-0.4 0.047-0.433l-0.147-0.067M23.767 10.213s-0.127 0.213-0.267 0.233l0.227-0.047s0.067-0.033 0.16-0.133l-0.12-0.053"></path>
<path fill="#289400" d="M21.773 9.227l0.087 0.053 0.087 0.013 0.213 0.173c0.080 0.067 0.080-0.013 0.080-0.013l0.053 0.207h0.067l-0.013 0.213 0.12-0.107 0.147 0.127s0.1-0.093 0.153-0.093c0.053 0 0.073-0.053 0.073-0.053h0.007c-0.347-0.16-0.493-0.333-0.393-0.507 0.173-0.293 0.453-0.107 0.54-0.067l1.267 0.68s0.087-0.053 0.027-0.107c-0.067-0.053-0.093-0.18-0.067-0.233 0.013-0.053 0.16 0.16 0.227 0.18l0.233 0.047v-0.067s0.2 0.147 0.2 0.22c0 0 0.153-0.080 0.1-0.127-0.047-0.047 0.233 0.113 0.247 0.2l0.067-0.067c-0.013 0 0.013-0.213 0.087-0.307 0.032-0.054 0.077-0.098 0.132-0.126l0.002-0.001s0.067-0.113 0.133-0.113c0 0-0.067-0.040-0.093-0.093-0.033-0.053-0.107-0.080-0.107-0.080s0.093-0.067 0.12-0.1c0.027-0.040 0.053-0.047 0.053-0.047s-0.147-0.127-0.253-0.147c0 0-0.007-0.167-0.133-0.18h0.053s-0.093-0.187-0.187-0.187c0 0 0.060-0.067 0.107-0.073 0 0-0.107-0.147-0.26-0.093l0.1-0.040s-0.067-0.073-0.293-0.040c0 0 0.020-0.087-0.080-0.16 0 0-0.080 0-0.080 0.067 0 0-0.080-0.067-0.18-0.067-0.093 0 0.033 0.107 0.033 0.107s-0.133-0.087-0.207-0.067c0 0 0.033-0.147-0.053-0.22 0 0-0.093 0.047-0.12 0.113l-0.027-0.067s-0.133 0.16-0.16 0.113c-0.020-0.027-0.040-0.133-0.040-0.133l-0.073 0.113 0.013-0.16s-0.093 0.053-0.167 0.22c0 0-0.087 0.087-0.087 0.16 0 0-0.073-0.080-0.133 0-0.067 0.093 0 0.073 0 0.073s-0.033 0.033-0.1 0.047l0.013 0.053s-0.080-0.047-0.147-0.027l0.033 0.080s-0.173 0.013-0.18-0.133c0 0-0.14-0.067-0.16 0.013l-0.107 0.067s-0.033-0.067-0.087-0.080c-0.067-0.020-0.013 0.087-0.013 0.087s-0.020-0.080-0.1-0.12c-0.080-0.033-0.013 0.067-0.013 0.067s-0.1-0.080-0.053-0.147c0 0-0.093 0.093-0.047 0.18l-0.067 0.047s-0.033-0.033-0.027-0.067c0-0.020-0.113 0.087-0.113 0.087s-0.067-0.173 0-0.173c0.007 0-0.12 0-0.14 0.147 0 0-0.087 0-0.167 0.027s0.067 0.087 0.067 0.087-0.133-0.027-0.2 0.013l0.047 0.060s-0.047-0.047-0.16-0.007c-0.113 0.033 0.027 0.053 0.027 0.053s-0.113-0.027-0.173 0c-0.060 0.027 0.020 0.067 0.020 0.067s-0.213-0.067-0.247-0.040c-0.033 0.020 0.067 0.12 0.067 0.12s-0.133 0.033-0.153 0.133l0.12 0.047s-0.053 0.027-0.080 0.073c-0.027 0.053 0.080 0.027 0.080 0.027s-0.147 0.107-0.147 0.187c0 0 0.107 0.033 0.18-0.047 0.080-0.080 0.027-0.053 0.027-0.053l0.007 0.053s0.153-0.067 0.153-0.107c0-0.033-0.027 0.053-0.027 0.053l0.147-0.080 0.1 0.067z"></path>
<path fill="#289400" d="M21.647 7.2l-0.033-0.147 0.333 0.040 0.060-0.133s0.16 0.067 0.207 0.12c0 0 0.307-0.080 0.4-0.047l-0.040 0.14s0.28 0.020 0.373 0.053c0.080 0.033-0.040 0.107-0.040 0.107s0.32 0.040 0.453 0.12c0.147 0.087 0.147 0.16 0.073 0.18l0.173 0.28s-0.28 0.033-0.333 0.1c-0.047 0.073-0.1-0.067-0.1-0.067l-0.053 0.193s-0.173-0.093-0.247-0.16c0 0-0.087 0.107-0.033 0.16l-0.32-0.207s-0.133-0.020-0.133 0.1l-0.2-0.227-0.173 0.053s-0.053-0.067-0.113-0.093c-0.073-0.013-0.020 0.093-0.020 0.093l-0.107-0.127-0.107-0.12s-0.087 0.12-0.16 0.12c-0.067 0-0.067-0.080-0.053-0.14 0.020-0.053-0.207-0.067-0.227 0 0 0-0.067-0.267 0.173-0.333l0.247-0.067zM20.38 8.087l-0.107 0.107-0.067-0.033-0.127 0.14-0.027-0.073-0.067 0.113-0.113-0.040-0.053 0.087-0.1-0.020s-0.080 0.080-0.133 0.1c-0.053 0.013 0-0.12 0-0.12s-0.080 0.133-0.133 0.133c-0.060 0-0.040-0.067-0.040-0.067s-0.033 0.093-0.093 0.107c-0.060 0-0.033-0.067-0.033-0.067l-0.107 0.080v-0.067l-0.047-0.020s0.027-0.12 0.073-0.147c0.047-0.027-0.047-0.1-0.047-0.1l0.047-0.053s-0.133-0.033-0.133-0.007c0 0 0.067-0.173 0.16-0.207l0.007-0.2s0.093-0.073 0.173-0.080c0.093-0.013-0.027-0.153-0.027-0.153l0.213-0.12 0.027-0.153 0.313 0.027 0.067-0.133 0.253 0.067 0.22-0.113 0.153 0.18 0.233 0.020v0.207s0.273 0.087 0.307 0.113c0 0-0.053 0.167-0.053 0.2 0 0 0.2-0.053 0.253-0.040l0.027 0.227s0.333 0.107 0.353 0.167c0 0-0.067 0.047-0.113 0.107 0 0 0.040 0.2 0.040 0.267l-0.027 0.033s-0.093-0.087-0.173-0.1l-0.067 0.14-0.113-0.073h-0.073s-0.060-0.067-0.107-0.067v-0.067l-0.093 0.060s-0.147-0.073-0.147-0.12l0.007-0.1-0.147 0.1s-0.033-0.073-0.027-0.107c0-0.033-0.060 0.073-0.060 0.073s-0.080-0.133-0.067-0.16l-0.027 0.113s-0.153-0.053-0.173-0.16z"></path>
<path fill="#289400" d="M18.3 8.727s0.273 0.133 0.273 0.2c0 0 0.073-0.14 0.033-0.2l0.107 0.073s0.033-0.127-0.007-0.167c-0.033-0.033 0.233-0.14 0.293 0.033 0 0 0.16-0.167-0.153-0.313 0 0-0.027-0.107 0.167-0.080 0 0-0.013-0.067-0.060-0.087h0.18s-0.107-0.093-0.267-0.12c-0.16-0.027-0.067-0.047-0.067-0.080-0.013-0.033 0-0.147 0-0.147s-0.093-0.033-0.167 0l0.027-0.027s-0.167-0.047-0.233-0.007c0 0-0.1-0.040-0.087-0.14 0 0-0.1-0.007-0.14 0.093 0 0-0.093 0.107-0.22 0.107-0.020 0-0.113-0.053-0.113-0.053l-0.080 0.18h-0.12l0.033 0.067s-0.187-0.053-0.247 0c0 0 0.073 0.113 0.053 0.187 0 0-0.147 0.027-0.18 0.053-0.040 0.027 0.053 0.047 0.053 0.047s-0.173 0.053-0.213 0.107l0.067 0.047-0.080 0.107 0.067 0.013-0.167 0.053c-0.060 0.020 0.1 0.033 0.1 0.033l-0.073 0.067 0.12 0.020s-0.093 0.267-0.1 0.387c0 0 0.147-0.18 0.187-0.2l-0.12 0.2s0.227-0.067 0.247-0.107l0.033-0.067 0.007 0.107s0.087-0.113 0.1-0.16c0.007-0.047 0.133 0.047 0.133 0.047v-0.067l0.16 0.047c0.047 0 0.053-0.020 0.053-0.020l0.107-0.013-0.020 0.093s0.080-0.053 0.1-0.107c0.013-0.053 0.053 0 0.053 0l0.053-0.207h0.107zM17.407 9.647l0.107 0.22c-0.087 0-0.207 0.1-0.207 0.1 0.020 0.36-0.067 0.34-0.067 0.34 0.020 0.067-0.020 0.187-0.020 0.187l0.513-0.307 0.007-0.033 0.613-0.287 0.020 0.033 0.173-0.1 0.127 0.327-0.127 0.067c0.007 0.113 0.14 0.307 0.14 0.307l0.16-0.040 0.18-0.067v0.067c0-0.020 0.193-0.087 0.193-0.087l0.087 0.087c0.067-0.007 0.18-0.167 0.18-0.167l0.133 0.053s0.047-0.080 0.047-0.133 0.173-0.053 0.173-0.053l0.113 0.080 0.153-0.12s0.047 0.087 0.107 0.1c0.067 0.007 0.227 0.133 0.227 0.107s0.067-0.167 0.067-0.167l0.273 0.107c-0.033-0.12-0.133-0.267-0.133-0.267s0.133-0.107 0.113-0.133c-0.027-0.027-0.107 0-0.107 0l0.080-0.16h-0.107l0.033-0.040-0.167-0.067 0.087-0.187c-0.040-0.047-0.487-0.133-0.487-0.133l0.107-0.1s-0.053-0.080-0.107-0.080-0.327 0.007-0.333-0.020l-0.12-0.12-0.173 0.127-0.087-0.027-0.147 0.053s0 0.087-0.020 0.027c-0.020-0.053-0.153-0.187-0.153-0.187-0.027 0.047-0.2 0.253-0.2 0.253s-0.033 0.113-0.087 0.033c-0.067-0.080-0.2-0.16-0.227-0.1-0.013 0.073-0.14 0.133-0.167 0.12-0.027-0.020-0.167-0.007-0.18 0.033-0.007 0.047-0.167 0.16-0.167 0.16-0.093-0.047-0.253-0.020-0.253-0.020s-0.047 0.073-0.053 0.133l-0.313 0.080zM20.353 12.287v-0.133l0.153 0.1 0.093-0.1 0.12 0.113 0.067-0.113v0.187l0.18-0.153 0.1 0.040v-0.147s0.127-0.207 0.073-0.247l0.107-0.033s-0.18-0.173-0.227-0.207c-0.053-0.040-0.127-0.040-0.127-0.040s-0.133-0.133-0.227-0.18c-0.087-0.033-0.133 0.040-0.133 0.040s-0.053-0.1-0.147-0.12c-0.087-0.020-0.087 0.067-0.087 0.067s-0.067-0.067-0.147-0.093c-0.087-0.040-0.027 0.080-0.027 0.080l-0.3-0.093 0.040 0.093-0.28-0.073 0.033 0.1-0.2-0.033-0.013 0.087-0.28 0.053 0.053 0.093-0.173-0.073v0.127l-0.2 0.067 0.073 0.067-0.313 0.16c-0.047 0.033 0.107 0.107 0.107 0.107l-0.28-0.040 0.107 0.093-0.247 0.227 0.173 0.127-0.107 0.153 0.267 0.053 0.1 0.173 0.213-0.040v0.2l0.313-0.247s0.227 0.2 0.247 0.14c0.013-0.053 0.013-0.227 0.013-0.227h0.113v-0.173l0.080 0.067 0.147-0.207 0.187 0.26 0.147-0.333 0.207 0.033zM21.627 11.5l-0.027-0.3-0.093 0.093 0.040-0.28-0.147-0.027 0.053-0.273-0.107-0.053 0.027-0.133 0.107-0.073 0.187-0.187 0.44 0.007 0.047-0.14 0.313 0.053c0.053 0.053 0.22-0.12 0.22-0.12h0.067l0.067 0.133s0.227-0.027 0.333 0.040l-0.127 0.173 0.233 0.020 0.153 0.033 0.16-0.053 0.213-0.013 0.047 0.087h0.2l-0.067 0.073 0.253 0.12-0.053 0.053s0.147 0.053 0.247 0.053h0.053s0.053 0.12-0.020 0.173c0 0 0.073 0.173 0.227 0.207 0.16 0.033 0.16 0.033 0.18 0.067 0.020 0.040 0 0.213-0.18 0.213v0.18s-0.133 0.12-0.153 0.173l-0.107-0.067s-0.087 0.1-0.087 0.167c0 0-0.233-0.3-0.313-0.313-0.093-0.013-0.067 0.173-0.067 0.173l-0.253-0.207-0.033 0.14-0.207-0.173-0.127 0.087-0.22-0.233-0.213 0.027 0.080-0.107h-0.26l-0.047-0.227-0.040 0.187-0.16-0.107-0.2 0.22s-0.027-0.027-0.060-0.133c-0.033-0.1-0.12 0.133-0.12 0.133l-0.073-0.167-0.087 0.16s-0.067-0.12-0.14-0.16c-0.067-0.033-0.133 0.2-0.16 0.3zM21.667 12.187l0.013-0.107 0.373-0.147 0.313-0.113 0.153-0.073 0.073 0.127 0.093-0.18 0.14 0.187 0.080-0.1 0.12 0.093h0.107l0.020 0.133s0.26 0.020 0.28-0.033c0.020-0.053 0.053 0.18 0.053 0.18l0.247 0.033 0.053 0.28s0.12 0.26 0.080 0.36c-0.033 0.113-0.133-0.133-0.133-0.133s-0.020 0.193-0.040 0.247c-0.013 0.053-0.333-0.053-0.333-0.053l-0.133 0.26s-0.147-0.207-0.213-0.207-0.067 0.207-0.067 0.207l-0.3-0.353c-0.087-0.1-0.107 0.107-0.107 0.107s-0.133-0.227-0.133-0.293c0-0.067-0.127-0.147-0.127-0.147s-0.213 0.247-0.373 0.313c0 0 0.020-0.153-0.033-0.2-0.047-0.060-0.2 0.1-0.2 0.1s-0.113-0.24 0-0.493z"></path>
<path fill="#9dd7ff" d="M18.873 19.873c-0.15-0.248-0.285-0.534-0.39-0.834l-0.010-0.033 2.827-2.48 2.82 2.473c-0.115 0.339-0.255 0.632-0.424 0.905l0.011-0.018-0.020 0.033-0.213-0.080s-0.093 0.087-0.167 0.093c-0.093 0.013-0.18-0.087-0.18-0.087s-0.12 0.107-0.247 0.087c-0.127-0.013-0.173-0.093-0.173-0.093s-0.133 0.107-0.227 0.087c-0.080-0.020-0.14-0.080-0.14-0.080s-0.080 0.1-0.187 0.080c-0.107-0.020-0.2-0.080-0.2-0.080s-0.167 0.067-0.267 0.087c-0.107 0.020-0.2-0.093-0.2-0.093s-0.133 0.093-0.187 0.093c-0.053 0-0.247-0.093-0.247-0.093s-0.2 0.067-0.273 0.067c-0.067 0-0.267-0.087-0.267-0.087s-0.193 0.053-0.273 0.053c-0.093 0-0.227-0.053-0.227-0.053s-0.153 0.073-0.24 0.053c-0.093-0.020-0.16-0.053-0.16-0.053s-0.173 0.073-0.28 0.053c-0.107-0.020-0.227-0.093-0.227-0.093s-0.020 0.053-0.227 0.093z"></path>
<path fill="#fff" d="M21.3 13.673v2.86l-2.82 2.493c-0.186-0.534-0.293-1.15-0.293-1.791 0-0.006 0-0.011 0-0.017v0.001-3.553h3.113"></path>
<path fill="#ffd83c" d="M21.3 13.673v2.86l2.813 2.493c0.182-0.529 0.287-1.138 0.287-1.771 0-0.012-0-0.025-0-0.037v0.002-3.553h-3.1"></path>
<path fill="#730000" d="M19.48 19.28c0.213 0.113 0.133 0.080 0.58 0.233 0.369 0.12 0.794 0.189 1.234 0.189 0.051 0 0.102-0.001 0.153-0.003l-0.007 0c0.533 0 0.827-0.047 1-0.093 0.167-0.047 0.207-0.12 0.207-0.12l-0.433 0.447s-1.753 0.093-2.067-0.113c-0.133-0.067-0.4-0.28-0.667-0.533z"></path>
<path fill="#ff0018" d="M20.667 18.040l-0.36 0.113 0.36 0.040v-0.153M21.353 17.773l-0.387 0.14 0.387 0.013v-0.16M22.053 17.873l-0.387 0.147 0.387 0.020v-0.173zM22.28 18.7c-0.020-0.073 0.227-0.067 0.227-0.067s0.067 0.26 0 0.42l-0.207-0.040s0.020-0.173-0.020-0.313z"></path>
<path fill="#fff" d="M19.653 19.207l0.687-0.667-0.033 0.4s-0.353 0.233-0.353 0.393l-0.3-0.127M20.020 19.347s0.067-0.207 0.267-0.313l-0.020 0.42-0.247-0.107zM21 18.193s0.28-0.040 0.493 0c0 0-0.033 0.28 0 0.333 0 0-0.387-0.093-0.54 0.053 0 0-0.053-0.267 0.047-0.387zM20.407 18.26s0.28-0.033 0.493 0c0 0-0.053 0.32-0.020 0.367 0 0-0.313-0.173-0.467-0.027 0 0-0.107-0.22 0-0.333z"></path>
<path fill="#fff" d="M20.393 18.627s0.28-0.027 0.487 0c0 0-0.033 0.287 0 0.333 0 0-0.367-0.080-0.52 0.053 0 0-0.073-0.26 0.033-0.387zM20.953 18.58s0.4-0.053 0.607-0.020c0 0-0.080 0.227 0.020 0.38 0 0-0.433-0.113-0.6 0.020 0 0-0.133-0.26-0.027-0.38zM20.353 19.013l0.547 0.040s-0.053 0.4-0.020 0.447c0 0-0.44-0.1-0.52 0.040 0 0-0.147-0.36 0-0.527zM20.967 19.013s0.467-0.033 0.687 0c0 0-0.127 0.3 0.013 0.56 0 0-0.613-0.173-0.7-0.033 0 0-0.14-0.36 0-0.527zM21.687 18.193s0.28-0.040 0.487 0c0 0-0.033 0.28 0 0.333 0 0-0.387-0.093-0.533 0.053 0 0-0.060-0.267 0.047-0.387zM21.687 18.58s0.28-0.033 0.487 0c0 0-0.033 0.28 0 0.333 0 0-0.387-0.087-0.533 0.047 0 0-0.060-0.26 0.047-0.38zM21.72 18.98s0.28-0.040 0.493 0c0 0-0.067 0.44-0.040 0.493 0 0-0.32-0.153-0.467-0.020 0 0-0.093-0.347 0.013-0.467z"></path>
<path fill="#fff" d="M22.3 19.013s0.087 0.333 0.2 0.373l-0.147 0.187s-0.193-0.133-0.213-0.293c0 0 0.127-0.14 0.16-0.267z"></path>
<path fill="#006ac8" d="M23.693 19.913c-0.551 0.885-1.383 1.551-2.369 1.878l-0.031 0.009c-1.027-0.346-1.865-1.023-2.409-1.901l-0.011-0.019h0.007c0.2-0.047 0.227-0.1 0.227-0.1s0.12 0.073 0.227 0.093c0.107 0.020 0.28-0.053 0.28-0.053s0.067 0.033 0.16 0.053c0.087 0.020 0.24-0.053 0.24-0.053s0.133 0.053 0.22 0.053c0.087 0 0.273-0.053 0.273-0.053s0.2 0.087 0.267 0.087c0.073 0 0.28-0.067 0.28-0.067s0.193 0.093 0.247 0.093c0.047 0 0.187-0.093 0.187-0.093s0.093 0.113 0.2 0.093c0.1-0.013 0.267-0.087 0.267-0.087s0.093 0.060 0.2 0.080c0.107 0.020 0.187-0.080 0.187-0.080s0.060 0.060 0.14 0.080c0.093 0.020 0.22-0.087 0.22-0.087s0.053 0.080 0.18 0.093c0.12 0.020 0.247-0.087 0.247-0.087s0.087 0.1 0.18 0.087c0.073-0.007 0.167-0.093 0.167-0.093l0.22 0.067z"></path>
<path fill="#5ac800" d="M19.54 20.347s-0.020 0.047-0.187 0.080l-0.047 0.013 0.040-0.013-0.047 0.020c0.215 0.291 0.473 0.534 0.769 0.726l0.011 0.007c0.3 0.2 0.64 0.44 1.227 0.613 0.453-0.156 0.845-0.359 1.202-0.61l-0.015 0.010c0.4-0.3 0.613-0.48 0.84-0.78-0.18 0.1-0.153 0.1-0.247 0.087-0.087-0.020-0.153-0.087-0.153-0.087s-0.087 0.1-0.2 0.087c-0.107-0.020-0.2-0.087-0.2-0.087s-0.147 0.1-0.293 0.093c-0.107-0.007-0.2-0.107-0.2-0.107s-0.253 0.087-0.307 0.087c-0.060 0-0.24-0.087-0.24-0.087s-0.127 0.080-0.2 0.080-0.28-0.093-0.28-0.093-0.2 0.053-0.287 0.053-0.227-0.053-0.227-0.053-0.167 0.067-0.267 0.053c-0.087-0.020-0.16-0.053-0.16-0.053s-0.18 0.067-0.293 0.053c-0.107-0.020-0.24-0.093-0.24-0.093z"></path>
<path fill="#ffd800" d="M21.307 21.793c0.437-0.165 0.813-0.358 1.163-0.587l-0.023 0.014c-0.067 0-0.267-0.067-0.193-0.080 0 0-0.080 0.067-0.153 0.067s-0.28-0.087-0.28-0.087-0.2 0.047-0.287 0.047c-0.093 0-0.227-0.047-0.227-0.047s-0.173 0.067-0.267 0.047l-0.16-0.047s-0.187 0.067-0.293 0.047c-0.107-0.020-0.24-0.087-0.24-0.087s-0.16 0.087-0.267 0.093c0.348 0.27 0.757 0.483 1.201 0.613l0.026 0.007z"></path>
<path fill="#b34b00" d="M20.88 16.6c0.127-0.107 0.2-0.2 0.153-0.28-0.047-0.067-0.12 0.040-0.2 0.013 0 0-0.133-0.073-0.167-0.133-0.067-0.080-0.167-0.153-0.22-0.227-0.060-0.067-0.28-0.353-0.607-0.687-0.1-0.060-0.073-0.293-0.147-0.367 0-0.053-0.667-0.707-0.893-0.933-0.1-0.073-0.147-0.12-0.313 0.033-0.133 0.113-0.18 0.24-0.007 0.387l0.853 0.78c0.127 0.12 0.3 0.14 0.373 0.2l0.867 0.893c0.113 0.093 0.167 0.16 0.1 0.24-0.067 0.133 0.007 0.153 0.020 0.153 0.013 0.007 0.073 0.007 0.113-0.027l0.067-0.047z"></path>
<path fill="#fff" d="M19.92 14.667l0.073-0.167c0.013-0.027 0.253-0.413 0.373-0.42l0.753 0.547c0 0.033-0.333 0.52-0.353 0.48 0 0-0.88-0.367-0.847-0.44z"></path>
<path fill="#ccb8c8" d="M20.4 14.8c-0.107-0.080-0.273-0.16-0.413-0.253l-0.060 0.133c0.047 0.053 0.667 0.34 0.773 0.4 0 0-0.12-0.133-0.307-0.28z"></path>
<path fill="#782121" d="M18.473 16.867l1.7-2.113c0.033-0.027 0.193-0.027 0.213 0.133l-1.613 2.2s-0.18-0.020-0.3-0.227z"></path>
<path fill="#730000" d="M24.18 16.887c-0.067 0.047-0.16 0.053-0.16 0.053-0.113-0.127-0.2-0.267-0.36-0.433l-1.7-2.087 0.18-0.173 1.533 1.793c0.040 0.047 0.307 0.327 0.56 0.653 0 0 0.020 0.133-0.053 0.193z"></path>
<path fill="#fff" d="M22.54 14.687l-0.267-0.333s-0.213 0.033-0.253 0.14c0 0-0.147 0.247-0.547 0.273 0 0 0.113 0.467 0.573 0.713 0 0 0.167-0.48 0.333-0.56 0 0 0.167-0.127 0.16-0.24z"></path>
<path fill="#730000" d="M21.86 16.133c-0.040-0.020-0.080 0-0.133 0.027-0.060 0.033-0.12 0.020-0.113-0.047 0-0.053 0-0.047 0.067-0.093 0.059-0.034 0.13-0.053 0.205-0.053 0.046 0 0.090 0.007 0.131 0.021l-0.003-0.001-0.153 0.14M23.713 14.28c-0.013-0.047-0.027-0.093 0.020-0.147s0.047-0.147-0.067-0.1c-0.113 0.047-0.147 0.167-0.060 0.36l0.107-0.113z"></path>
<path fill="#fff" d="M21.82 16.167l1.927-1.913 0.473 0.507s-0.1-0.040-0.133-0.013c-0.033 0.027 0.033 0.127 0.033 0.127s-0.087-0.033-0.127-0.007c-0.047 0.027 0 0.133 0 0.133s-0.080-0.053-0.12-0.033c-0.033 0.027 0 0.153 0 0.153s-0.1-0.033-0.133-0.007c-0.020 0.027 0 0.133 0 0.133s-0.1-0.047-0.153 0 0.027 0.127 0.027 0.127-0.133-0.053-0.18 0.027c-0.053 0.080 0.007 0.147 0.007 0.147s-0.107-0.047-0.133-0.027c-0.027 0.027 0 0.153 0 0.153s-0.087-0.053-0.147 0.013c-0.060 0.067 0.007 0.133 0.007 0.133s-0.087-0.053-0.133-0.027c-0.040 0.027 0.013 0.147 0.013 0.147s-0.080-0.060-0.14 0c-0.060 0.067 0 0.133 0 0.133s-0.067-0.067-0.147 0c-0.067 0.067 0 0.14 0 0.14s-0.1-0.053-0.14 0c-0.047 0.053 0.013 0.127 0.013 0.127s-0.080-0.047-0.133-0.020c-0.047 0.027 0 0.14 0 0.14s-0.073-0.087-0.107-0.040c-0.040 0.047 0 0.16 0 0.16s-0.067-0.087-0.107-0.040c-0.047 0.040 0.027 0.133 0.027 0.133s-0.133-0.053-0.1-0.053z"></path>
<path fill="#7e4b7e" d="M23.633 14.413l-0.147 0.147 0.033 0.513s0.033-0.147 0.073-0.047c0 0 0.013-0.12 0.047-0.1-0.027-0.013 0-0.52 0-0.52zM23.353 14.693l-0.107 0.1 0.040 0.513s0.027-0.193 0.073-0.040v-0.573zM22.187 15.84l-0.1 0.113 0.027 0.313s0.033-0.2 0.073-0.047l-0.013-0.173 0.013-0.2z"></path>
<path fill="#289400" d="M14.467 20.227c0.1 0.047 0-0.32 0.033-0.453 0.040-0.147 0.32 0.347 0.453 0.413 0.147 0.067 1.020-0.347 1.020-0.347l0.207-0.387 0.113 0.32s0.24-0.28 0.307-0.387c0.073-0.107 0 0.207-0.067 0.313-0.073 0.1 0.207 0.14 0.173 0.353-0.033 0.2 0.28-0.147 0.28-0.147l0.807 0.067s0.133-0.487 0.353-0.767l0.067 0.32 0.333-0.34c0.484 1.242 1.48 2.193 2.722 2.604l0.031 0.009c1.21-0.407 2.167-1.285 2.669-2.412l0.011-0.028 0.447 0.467s0.353-0.107 0.42-0.147c0.393 0.093 0.737 0.221 1.060 0.386l-0.027-0.012c0.067 0.047 0.020-0.233 0.020-0.233s0.387 0.073 0.353 0.28c0 0 0.080-0.193 0.153-0.227s0.24 0.18 0.28 0.247c0.033 0.067 0.867 0.173 0.98 0.24 0 0 0.087 0.107 0.087 0.18 0 0 0.18-0.020 0.313-0.020 0 0-0.1 0.053-0.1 0.16s-0.053 0.193-0.16 0.24c-0.1 0.053 0 0.093 0.133 0.107 0.147 0.020 0 0.2-0.273 0.3 0 0-0.067 0.153 0.053 0.207 0 0-0.247 0.020-0.28-0.053 0 0-0.087 0.167-0.087 0.253 0 0-0.267-0.087-0.333-0.127 0 0-0.107 0.107-0.033 0.153 0 0-0.473-0.047-0.567-0.227 0 0-0.167 0.053-0.133 0.113 0 0-0.333-0.227-0.44-0.227l-0.067 0.113s-0.233-0.133-0.3-0.133-0.013 0.1-0.013 0.1l-0.32-0.193-0.127 0.2-0.333-0.18c-0.067-0.053-0.080 0.107-0.133 0.127 0 0-0.107-0.147-0.247-0.127 0 0-0.053 0.173-0.033 0.227l-0.473-0.1c-0.073-0.020-0.033 0.080 0 0.153 0 0-0.3-0.087-0.367-0.133l-0.020 0.133s-0.247-0.020-0.3-0.067l-0.153 0.207h-0.233l-0.047 0.193s-0.44-0.127-0.48-0.053c-0.033 0.067 0.020 0.173 0.020 0.173l-0.38-0.047-0.033 0.153s-0.447-0.133-0.547-0.067c0 0-0.133 0.133-0.227 0.173-0.087 0.033 0-0.053 0-0.053l-0.133-0.193s-0.16 0.087-0.253 0.053c-0.087-0.040-0.367 0.133-0.453 0.087 0 0 0-0.127-0.073-0.16-0.067-0.027-0.187-0.027-0.24 0.053l-0.147-0.2c-0.080-0.147-0.207 0.007-0.207 0.007l-0.020-0.167-0.24-0.020c-0.147-0.020-0.173-0.147-0.173-0.147s-0.373 0.040-0.427 0.020l0.093-0.087s-0.507 0.107-0.613 0.067c-0.113-0.033 0.12-0.173 0.12-0.173l-0.56-0.133c-0.087-0.027-0.6 0.080-0.667 0.080s-0.107-0.12-0.107-0.12-0.12 0.107-0.227 0.14c0 0-0.087-0.207-0.033-0.227 0 0-0.333 0.087-0.353 0.173 0 0-0.080-0.133-0.067-0.2 0 0-0.16 0.253-0.233 0.307-0.067 0.053-0.013-0.127-0.013-0.127s-0.193 0.247-0.267 0.267v-0.173s-0.56 0.3-0.713 0.26c0 0 0-0.127 0.053-0.16l-0.353-0.013c-0.087-0.013-0.187-0.053-0.28-0.073-0.087-0.013 0.127-0.107 0.267-0.067 0 0-0.387-0.14-0.507-0.067 0 0-0.053-0.147 0.153-0.2 0 0-0.267-0.26-0.42-0.24 0 0 0.173-0.107 0.32-0.053 0 0-0.167-0.44-0.267-0.493 0 0 0.367-0.067 0.473-0.013z"></path>
<path fill="#730000" d="M13.927 12.587l4.74-2.453c0.020-0.133-0.047-0.227-0.127-0.333-1.353 0.667-2.587 1.48-4.093 1.967-0.087 0.033-0.833 0.347-1.22 0.807-0.073 0.080-0.122 0.183-0.133 0.298l-0 0.002s0.013 0.207 0.060 0.267c0 0 0.007 0.053 0.080 0.1 0 0 0.047 0.020 0.073 0.013 0.033 0 0.093 0 0.173-0.133 0.137-0.2 0.284-0.374 0.446-0.533l0.001-0.001z"></path>
<path fill="#fff" d="M17.74 10.16l0.613-0.293s0.207 0.153 0.187 0.333c0 0 0.047 0.4 0.547 0.68 0 0-0.42 0.533-1.16 0.573 0 0 0.080-0.693-0.073-0.9 0 0-0.027 0.027-0.013-0.007 0.020-0.067-0.013-0.3-0.113-0.353l0.013-0.033z"></path>
<path fill="#b34b00" d="M22.82 9.887l1.74 0.853c0.347 0.167 0.473 0.013 0.667 0.1l3.44 1.747c0.3 0.133 0.467 0.167 0.42 0.32-0.007 0.247 0.113 0.247 0.147 0.253 0.027 0 0.14-0.013 0.187-0.080l0.040-0.040c0.040-0.040 0.033-0.047 0.047-0.067 0.14-0.2 0.22-0.387 0.067-0.5-0.167-0.087-0.187 0.1-0.373 0.080 0 0-0.32-0.12-0.44-0.207-0.213-0.12-0.52-0.26-0.587-0.333-0.22-0.040-1.867-0.973-2.807-1.44-0.1-0.080-0.153-0.393-0.353-0.493-0.053-0.087-1.32-0.667-1.987-1-0.24-0.087-0.38-0.147-0.553 0.153-0.153 0.293-0.12 0.453 0.347 0.653z"></path>
<path fill="#000" d="M17.154 10.566c-0.013 0.038-0.045 0.013-0.045 0.026-0.026 0.141-0.019 0.211-0.051 0.288-0.049 0.073-0.116 0.13-0.195 0.165l-0.003 0.001c-0.128 0.045-0.288 0.198-0.544 0.058l-0.038-0.032s0.070 0.262-0.192 0.397l-1.005 0.525s-0.096 0.179-0.032 0.416c0 0.038 0.019 0.070-0.019 0.096-0.064 0.045-0.173 0.179-0.237 0.384 0 0-0.192-0.083-0.192-0.205 0-0.128 0.077-0.192 0.096-0.282 0.019-0.083 0.064-0.301 0.045-0.365-0.026-0.070-0.147-0.096-0.192-0.128-0.038-0.019-0.090 0.032-0.083 0.090 0.006 0.064 0.051 0.051 0.102 0.064 0 0-0.058 0.128-0.051 0.218l-0.589 0.307 0.102 0.147c0.026 0.045 0.083 0.653 0.256 0.941s0.237 0.205 0.275 0.243l0.128 0.128c0.051 0.032 0.256 0.051 0.288-0.064 0.043-0.108 0.113-0.197 0.203-0.261l0.002-0.001c0.128-0.102 0.384-0.346 0.384-0.461 0 0 0.147 0.435 0.128 0.794 0 0 0.544 0.109 1.030 0.122 0.486 0 0.736-0.096 0.736-0.096s0.064-0.41 0.038-0.493c0 0 0.077 0.269 0.141 0.358 0.064 0.115 0.134 0.339 0.275 0.352 0.141 0.006 0.256-0.134 0.269-0.192v-0.435h0.557s0.243 0.096 0.32 0.083c0.083-0.006 0.128-0.083 0.051-0.109l-0.026-0.019c0.077 0 0.166 0.045 0.166 0.045h0.275l-0.006-0.032c-0.019-0.077-0.166-0.141-0.269-0.192-0.102-0.032-0.224-0.077-0.301-0.083-0.035-0.003-0.076-0.005-0.117-0.005-0.099 0-0.196 0.011-0.288 0.033l0.009-0.002c-0.051 0-0.25 0.026-0.371 0.083-0.032 0.019-0.064 0.026-0.051-0.064 0.019-0.083 0.013-0.499-0.083-0.672-0.077-0.128-0.064-0.23-0.058-0.333 0.005-0.084 0.007-0.183 0.007-0.282s-0.003-0.197-0.008-0.295l0.001 0.014c-0.019-0.109-0.16-0.256-0.422-0.282-0.243-0.032-0.448-0.237-0.467-0.397-0.019-0.166 0.026-0.461 0.051-0.595"></path>
<path fill="#000" d="M16.047 9.83c-0.045 0.211-0.045 0.39-0.038 0.595 0.006 0.134 0.070 0.294 0.128 0.429 0.040 0.099 0.101 0.183 0.178 0.249l0.001 0.001c0.23 0.147 0.448-0.013 0.57-0.064 0.073-0.036 0.132-0.091 0.172-0.158l0.001-0.002c0.032-0.077 0.019-0.134 0.051-0.288l0.045-0.026c0.064-0.096 0.045-0.128 0.077-0.192 0.038-0.064-0.032-0.141-0.115-0.128 0.038-0.122 0.064-0.256 0.026-0.378-0.013-0.038 0.032-0.141-0.038-0.115-0.294 0.115-0.64 0.090-0.947 0.090-0.026 0-0.051-0.051-0.090-0.045l-0.019 0.032"></path>
<path fill="#000" d="M16.021 9.939c-0.032-0.026-0.038-0.083 0-0.205 0.045-0.128 0-0.128 0.070-0.205s0.058-0.102 0.102-0.122c0.045-0.013 0.179-0.013 0.224-0.032 0.090-0.045 0.197-0.072 0.309-0.072 0.096 0 0.188 0.019 0.271 0.054l-0.005-0.002c0.096 0.051 0.16 0.179 0.218 0.23 0.064 0.045 0.109 0.23 0.096 0.506-0.019 0.275-0.077 0.224-0.077 0.224s-0.077-0.128-0.141-0.019c0 0 0-0.109 0.013-0.192 0.006-0.070-0.038-0.218 0.006-0.314 0 0-0.371 0.115-0.557 0.109-0.192-0.013-0.474-0.058-0.486-0.102l-0.045 0.141"></path>
<path fill="#fff" d="M16.213 9.715c-0.019-0.038-0.115-0.186-0.038-0.23 0.064-0.038 0.026 0.179 0.128 0.224 0 0-0.038 0.096-0.090 0.006z"></path>
<path fill="#fff" d="M16.041 10.246c0.045 0 0.102-0.058 0.205 0.019 0.070 0.051-0.115 0.096-0.083 0.090-0.090 0.013-0.115-0.032-0.122-0.077 0-0.006-0.013-0.032 0-0.032zM16.578 10.298c0.045-0.090 0.115-0.064 0.179-0.051 0.064 0.019 0.045 0.006 0.109 0.045-0.077 0.006-0.058 0.013-0.109 0.038-0.058 0.032-0.109 0.045-0.147 0.019-0.013-0.013-0.045-0.032-0.045-0.064 0 0.013 0 0.019 0.013 0.019z"></path>
<path fill="#000" d="M16.137 10.33c0.026 0 0.045-0.026 0.045-0.051 0-0.038-0.019-0.064-0.045-0.064-0.032 0-0.058 0.026-0.058 0.064 0 0.026 0.026 0.051 0.058 0.051zM16.687 10.342c0.026 0 0.045-0.026 0.045-0.064 0-0.028-0.023-0.051-0.051-0.051v0c-0.026 0-0.045 0.019-0.045 0.051 0 0.038 0.026 0.064 0.051 0.064z"></path>
<path fill="#000" d="M15.881 12.672c0.038 0 0.070-0.026 0.070-0.064 0-0.019-0.032-0.045-0.070-0.045-0.032 0-0.064 0.026-0.064 0.051 0 0.032 0.032 0.058 0.064 0.058zM17.353 12.691c0.038 0 0.070-0.026 0.070-0.064 0-0.026-0.032-0.045-0.064-0.045-0.038 0-0.070 0.019-0.070 0.051s0.032 0.058 0.064 0.058z"></path>
<path fill="#fff" d="M15.285 15.347c0.083-0.512 0.32-0.928 0.326-0.973 0 0 0.25 0.058 0.678 0.096 0.422 0.045 0.538 0.026 0.736 0.013l0.435-0.051s0.077 0.154 0.083 0.307c0.019 0.333 0.147 1.773 0.16 2.157 0 0 0.051 0.23 0.051 0.787 0 0.614 0.166 1.856 0.166 2.522l-0.166 0.032s-0.928 0.070-0.928-0.051c0-0.134-0.051-1.728 0.090-2.694 0 0-0.032-0.192-0.090-0.352-0.051-0.16-0.275-0.64-0.275-0.749 0 0-0.365 1.024-0.384 1.203-0.019 0.166-0.077 2.458-0.109 2.643 0 0-0.525 0.403-0.595 0.448-0.070 0.026-0.576-0.218-0.595-0.282 0.046-0.781 0.151-1.509 0.312-2.215l-0.017 0.090c0.090-0.454 0.038-0.538 0.038-0.666s0.006-1.76 0.083-2.266z"></path>
<path fill="#9b5f00" d="M15.573 14.362s0-0.205 0.070-0.307c0 0 0.224 0.045 0.538 0.077 0.32 0.032 0.576 0.058 0.806 0.032 0.237-0.026 0.474-0.083 0.474-0.083s0.064 0.307 0.032 0.352c0 0-0.256 0.051-0.531 0.064-0.048 0.002-0.105 0.002-0.162 0.002-0.27 0-0.536-0.019-0.796-0.057l0.030 0.004c-0.179-0.020-0.338-0.049-0.492-0.089l0.025 0.005z"></path>
<path fill="#fff" d="M15.765 14.387l0.045-0.307h0.064l-0.013 0.326-0.090-0.013M17.18 14.131l0.006 0.352 0.083-0.013-0.006-0.358-0.083 0.019M16.181 14.131l-0.026 0.339h0.045l0.045-0.339h-0.064"></path>
<path fill="#ffa54b" d="M15.049 20.531c-0.019 0.083-0.051 0.205-0.064 0.352 0 0.032-0.038 0.211 0.064 0.218 0.064 0 0.090-0.186 0.090-0.186s-0.064 0.211 0.019 0.237c0.115 0.026 0.128-0.23 0.128-0.23-0.013 0.070-0.090 0.256 0.019 0.275 0.122 0.019 0.154-0.25 0.154-0.25s-0.102 0.269 0.019 0.275c0.109 0 0.109-0.256 0.109-0.256s-0.058 0.32 0.096 0.288c0.090-0.013 0.109-0.128 0.128-0.192 0.026-0.096 0.083-0.218 0.013-0.422-0.051-0.147-0.032-0.192-0.032-0.192s-0.186 0.141-0.326 0.23c-0.064 0.038-0.416-0.147-0.416-0.147zM16.949 20.25c-0.032-0.019-0.026 0.122-0.038 0.186-0.006 0.064 0.013 0.205 0.23 0.192 0.218-0.019 0.429-0.064 0.57-0.032 0.134 0.038 0.339 0.045 0.448 0.045s0.179-0.013 0.237-0.032c0.045-0.019 0.141 0.026 0.192 0.026s0.109-0.064 0.102-0.115c0-0.083-0.083-0.083-0.192-0.090-0.118-0.010-0.227-0.032-0.33-0.067l0.010 0.003c-0.070-0.019-0.198-0.096-0.365-0.128l-0.378 0.013c-0.064 0-0.448 0.019-0.486 0z"></path>
<path fill="#ffb366" d="M13.698 12.147c-0.032 0.019-0.070-0.128 0.026-0.186 0 0 0.026-0.128 0.128-0.134 0 0 0.090-0.122 0.211-0.109 0 0 0.141-0.096 0.192-0.083 0.058 0.006 0.192 0.134 0.192 0.186 0.013 0.045 0 0.122-0.032 0.154-0.038 0.038-0.064-0.006-0.070-0.064 0 0 0.026 0.102-0.051 0.141-0.077 0.045-0.070 0.013-0.077-0.038 0 0-0.026 0.102-0.077 0.122s-0.083-0.032-0.128-0.032c0 0 0.070 0.058 0.026 0.096-0.045 0.032-0.096 0.019-0.128-0.006-0.032-0.032-0.077-0.122-0.211-0.038z"></path>
<path fill="#000" d="M25.436 10.566c0.045-0.019 0.032 0.038 0.038 0.064 0.026 0.083 0.026 0.173 0.058 0.25 0.038 0.070 0.051 0.096 0.115 0.128 0.102 0.064 0.41 0.23 0.627 0.096 0.017-0.009 0.032-0.020 0.045-0.032l-0 0s-0.083 0.262 0.192 0.397l0.998 0.525s0.096 0.173 0.038 0.416c-0.013 0.038-0.026 0.070 0.013 0.096 0.064 0.045 0.166 0.179 0.243 0.384 0 0 0.192-0.083 0.192-0.205 0-0.128-0.083-0.192-0.102-0.282-0.013-0.083-0.064-0.301-0.038-0.365 0.026-0.070 0.134-0.096 0.179-0.128 0.045-0.019 0.102 0.032 0.083 0.090 0 0.064-0.051 0.051-0.102 0.064 0 0 0.064 0.128 0.051 0.218l0.602 0.307-0.102 0.147c-0.032 0.045-0.096 0.653-0.269 0.934-0.179 0.288-0.237 0.211-0.269 0.256l-0.134 0.115c-0.038 0.032-0.243 0.058-0.288-0.058-0.041-0.107-0.109-0.196-0.197-0.261l-0.002-0.001c-0.128-0.102-0.384-0.346-0.384-0.461 0 0-0.147 0.435-0.128 0.794 0 0-0.538 0.109-1.037 0.122-0.486 0-0.736-0.096-0.736-0.096s-0.064-0.41-0.038-0.493c0 0-0.077 0.269-0.128 0.358-0.070 0.115-0.141 0.339-0.282 0.352-0.141 0.006-0.256-0.134-0.269-0.192v-0.435h-0.557s-0.243 0.096-0.32 0.083c-0.083-0.006-0.122-0.083-0.058-0.109l0.026-0.019c-0.059 0.005-0.113 0.021-0.163 0.046l0.003-0.001h-0.275l0.006-0.032c0.019-0.077 0.166-0.141 0.275-0.192 0.102-0.032 0.211-0.077 0.294-0.083 0.122-0.013 0.205-0.006 0.397 0.026 0.051 0 0.256 0.026 0.371 0.083 0.032 0.019 0.064 0.026 0.051-0.064-0.019-0.083-0.077-0.352 0.019-0.531 0.064-0.122 0.058-0.224 0.051-0.333-0.013-0.109-0.070-0.358-0.070-0.467 0-0.365 0.282-0.512 0.525-0.589 0.275-0.090 0.454-0.179 0.448-0.339-0.013-0.173 0.032-0.448 0.006-0.576"></path>
<path fill="#000" d="M26.537 9.83c0.038 0.099 0.066 0.214 0.076 0.334l0 0.005c0 0.077-0.032 0.090-0.006 0.179 0.045 0.154-0.051 0.32-0.16 0.512-0.051 0.077-0.090 0.192-0.173 0.243-0.218 0.134-0.48-0.026-0.614-0.083-0.060-0.027-0.106-0.078-0.128-0.139l-0-0.002c-0.026-0.077-0.032-0.147-0.051-0.256 0-0.019 0-0.077-0.038-0.058-0.083-0.090-0.064-0.128-0.102-0.192-0.032-0.064 0.064-0.141 0.128-0.128-0.022-0.062-0.035-0.134-0.035-0.21 0-0.060 0.008-0.118 0.024-0.173l-0.001 0.005c0.013-0.038-0.038-0.141 0.032-0.115 0.288 0.115 0.64 0.090 0.947 0.090 0.026 0 0.045-0.051 0.083-0.045l0.019 0.032"></path>
<path fill="#000" d="M26.569 9.939c0.026-0.026 0.006-0.147-0.026-0.275-0.006-0.064-0.064-0.096-0.128-0.166s-0.102-0.064-0.147-0.090c-0.038-0.013-0.128-0.013-0.179-0.032-0.038-0.019-0.141-0.006-0.237 0.006-0.128 0.019-0.205 0.013-0.301 0.064s-0.179 0.115-0.211 0.211c-0.026 0.064-0.064 0.16-0.051 0.435s0.064 0.224 0.064 0.224 0.070-0.109 0.122-0.038l-0.019-0.23c-0.006-0.077 0-0.179 0.032-0.294 0 0 0.294 0.109 0.576 0.109 0.192 0 0.448-0.019 0.454-0.064l0.045 0.141z"></path>
<path fill="#fff" d="M26.543 10.246c-0.045 0-0.064-0.058-0.198 0.019-0.070 0.045 0.115 0.096 0.090 0.090 0.077 0.013 0.102-0.032 0.109-0.077 0-0.006 0.013-0.032 0-0.032zM26.012 10.298c0-0.051-0.115-0.064-0.186-0.051-0.064 0.019-0.032 0.006-0.096 0.045 0.064 0.006 0.045 0.013 0.102 0.038 0.058 0.032 0.064 0.058 0.147 0.019 0.019-0.006 0.045-0.032 0.051-0.064 0 0.013-0.013 0.019-0.019 0.019z"></path>
<path fill="#000" d="M26.46 10.33c-0.028 0-0.051-0.023-0.051-0.051v0c0-0.038 0.019-0.064 0.051-0.064 0.026 0 0.045 0.026 0.045 0.064 0 0.026-0.019 0.051-0.045 0.051zM25.903 10.342c-0.026 0-0.045-0.026-0.045-0.064 0-0.032 0.026-0.051 0.051-0.051s0.045 0.019 0.045 0.051c0 0.038-0.019 0.064-0.051 0.064z"></path>
<path fill="#000" d="M26.709 12.672c-0.038 0-0.070-0.026-0.070-0.064 0-0.019 0.032-0.045 0.070-0.045 0.032 0 0.064 0.026 0.064 0.051 0 0.032-0.032 0.058-0.064 0.058zM25.237 12.691c-0.038 0-0.070-0.026-0.070-0.064 0-0.026 0.032-0.045 0.064-0.045 0.038 0 0.070 0.019 0.070 0.051s-0.032 0.058-0.064 0.058z"></path>
<path fill="#fff" d="M27.305 15.347c-0.083-0.512-0.32-0.928-0.326-0.973 0 0-0.25 0.058-0.678 0.096-0.422 0.045-0.538 0.026-0.736 0.013l-0.435-0.051s-0.077 0.154-0.083 0.307c-0.019 0.333-0.147 1.773-0.16 2.157 0 0-0.051 0.23-0.051 0.787 0 0.614-0.166 1.856-0.166 2.522l0.166 0.032s0.928 0.070 0.928-0.051c0-0.134 0.051-1.728-0.090-2.694 0 0 0.032-0.192 0.090-0.352 0.051-0.16 0.275-0.64 0.275-0.749 0 0 0.365 1.024 0.384 1.203 0.019 0.166 0.077 2.458 0.109 2.643 0 0 0.525 0.403 0.595 0.448 0.070 0.026 0.576-0.218 0.595-0.282-0.047-0.781-0.151-1.509-0.312-2.215l0.017 0.090c-0.090-0.454-0.038-0.538-0.038-0.666s-0.006-1.76-0.083-2.266z"></path>
<path fill="#9b5f00" d="M27.017 14.362s0-0.205-0.070-0.307c0 0-0.224 0.045-0.538 0.077-0.32 0.032-0.576 0.058-0.806 0.032-0.237-0.026-0.474-0.083-0.474-0.083s-0.064 0.307-0.032 0.352c0 0 0.256 0.051 0.531 0.064 0.048 0.002 0.105 0.002 0.162 0.002 0.27 0 0.536-0.019 0.796-0.057l-0.030 0.004c0.179-0.020 0.338-0.049 0.492-0.089l-0.025 0.005z"></path>
<path fill="#fff" d="M26.825 14.387l-0.045-0.307h-0.064l0.013 0.326 0.090-0.013M25.41 14.131l-0.006 0.352-0.083-0.013 0.006-0.358 0.083 0.019M26.409 14.131l0.026 0.339h-0.045l-0.045-0.339h0.064"></path>
<path fill="#ffa54b" d="M27.541 20.531c0.019 0.083 0.051 0.205 0.064 0.352 0 0.032 0.038 0.211-0.064 0.218-0.064 0-0.090-0.186-0.090-0.186s0.064 0.211-0.019 0.237c-0.115 0.026-0.128-0.23-0.128-0.23 0.013 0.070 0.090 0.256-0.019 0.275-0.122 0.019-0.154-0.25-0.154-0.25s0.102 0.269-0.019 0.275c-0.109 0-0.109-0.256-0.109-0.256s0.058 0.32-0.096 0.288c-0.090-0.013-0.109-0.128-0.128-0.192-0.026-0.096-0.083-0.218-0.013-0.422 0.051-0.147 0.032-0.192 0.032-0.192s0.186 0.141 0.326 0.23c0.064 0.038 0.416-0.147 0.416-0.147zM25.641 20.25c0.032-0.019 0.026 0.122 0.038 0.186 0.006 0.064-0.013 0.205-0.23 0.192-0.218-0.019-0.429-0.064-0.57-0.032-0.134 0.038-0.339 0.045-0.448 0.045s-0.179-0.013-0.237-0.032c-0.045-0.019-0.141 0.026-0.192 0.026s-0.109-0.064-0.102-0.115c0-0.083 0.083-0.083 0.192-0.090 0.118-0.010 0.227-0.032 0.33-0.067l-0.010 0.003c0.070-0.019 0.198-0.096 0.365-0.128l0.378 0.013c0.064 0 0.448 0.019 0.486 0z"></path>
<path fill="#730000" d="M28.796 12.384c0.032 0.013 0.128-0.128 0.032-0.192 0 0-0.032-0.128-0.128-0.128 0 0-0.090-0.128-0.218-0.109 0 0-0.128-0.096-0.186-0.090-0.064 0.013-0.192 0.141-0.192 0.192-0.013 0.032 0 0.115 0.032 0.154 0.038 0.032 0.064-0.006 0.064-0.064 0 0-0.019 0.096 0.058 0.141s0.070 0 0.077-0.045c0 0 0.019 0.102 0.070 0.128 0.058 0.013 0.090-0.032 0.128-0.032 0 0-0.064 0.051-0.019 0.083 0.045 0.038 0.096 0.019 0.128 0 0.038-0.032 0.019-0.115 0.154-0.038z"></path>
<path fill="#730000" d="M28.201 11.955c-0.058 0.045-0.115 0.115-0.122 0.141 0 0.045 0 0.122 0.032 0.16 0.038 0.032 0.064 0 0.070-0.051 0 0.032 0 0.096 0.051 0.128 0.083 0.045 0.077 0.006 0.083-0.045 0 0 0.019 0.102 0.064 0.128 0.058 0.013 0.090-0.032 0.128-0.032 0 0-0.064 0.051-0.019 0.083 0.045 0.038 0.096 0.019 0.128 0 0.038-0.032 0.019-0.115 0.16-0.038 0.013 0.013 0.051-0.026 0.064-0.070l-0.493-0.352-0.147-0.051z"></path>
<path fill="#5ac800" d="M15.9 20.713l-0.013-0.3 0.127 0.107 0.027-0.227c0.053-0.013 0.14 0.087 0.14 0.087l-0.013-0.227 0.187 0.207s-0.013-0.173 0.053-0.28c0 0 0.147 0.127 0.147 0.267 0 0.127 0.12-0.173 0.12-0.173 0.452 1.58 0.488 1.691 0.525 1.802l-0.418-1.468 0.087-0.127 0.067 0.267 0.16-0.233 0.12 0.267 0.28-0.020 0.033 0.16 0.127-0.133 0.16 0.1s0.133-0.040 0.207-0.040 0.16 0.093 0.16 0.093 0.053-0.093 0.1-0.127 0.127 0.053 0.147 0.107l0.107-0.193s0.133 0.133 0.153 0.193c0 0 0.020-0.16 0.053-0.213 0.033-0.047 0.080 0.020 0.12 0.087l0.087-0.28s0.093 0.020 0.153 0.127c0.073 0.1 0.073-0.16 0.073-0.16s0.16 0.213 0.2 0.353c0 0-1.080 0.373-1.84 0.267-0.668-0.090-1.223-0.19-1.769-0.312l0.136 0.026zM23.293 20.68s0.047-0.14 0.12-0.213c0 0 0.133 0.16 0.133 0.213l0.113-0.067 0.107 0.1 0.12-0.087 0.12 0.107 0.213-0.093 0.087 0.093 0.333-0.040 0.12 0.053 0.12-0.153 0.107 0.12 0.18-0.173s0.087 0.067 0.1 0.12c0 0 0.147-0.067 0.18-0.12 0 0 0.133-0.053 0.153 0.033 0 0 0.087-0.067 0.080-0.133-0.007-0.080 0.1-0.027 0.133 0.067 0 0 0.033-0.147 0.133-0.16 0 0 0.080 0.087 0.060 0.247 0 0 0.153-0.127 0.227-0.14 0 0 0.033 0.173-0.020 0.333 0 0 0.16-0.267 0.2-0.18 0.007 0.053 0.047 0.233 0.007 0.353l0.147-0.087 0.053 0.173 0.153-0.033s-0.927 0.14-1.8 0.060c-0.867-0.087-1.687-0.393-1.687-0.393zM22.647 21.327c0.040-0.027-0.293 0.687-1.1 0.727-1.127 0.053-2.087-0.513-2.087-0.513s0.12-0.193 0.193-0.247c0 0 0.153 0.127 0.2 0.28 0 0 0.027-0.1 0.080-0.193 0 0 0.193 0.093 0.227 0.213 0 0 0.067-0.12 0.12-0.153 0.053-0.040 0.107 0.133 0.107 0.24 0 0 0.127-0.133 0.2-0.133 0 0 0.133 0.067 0.173 0.287 0 0 0.133-0.12 0.173-0.1 0 0 0.153 0.1 0.12 0.247-0.020 0.080 0.153-0.093 0.367-0.147l0.193 0.147 0.227-0.313s0.14 0.053 0.14 0.133c0 0 0.067-0.247 0.12-0.267 0.053-0.033 0.12 0.073 0.12 0.147 0 0 0.020-0.187 0.127-0.227 0 0 0.107 0.067 0.107 0.14 0 0 0.107-0.213 0.193-0.267z"></path>
<path fill="#fff" d="M21.3 24.127c1.467 0.013 2.333-0.52 2.8-0.84 1.12-0.747 1.353-0.773 1.533-0.76 0.207 0.020 0.513 0.087 0.533 0.267 0.013 0.287-0.44 0.407-0.7 0.407-0.267 0-0.967-0.173-0.967-0.173l-0.18 0.127c0.12 0.053 1.547 0.533 1.82 0.080 0.28-0.453 0.56-1.193 0.56-1.193s-0.313-0.56-1.007-0.56c-0.707 0-1.387 0.447-1.84 0.78-0.46 0.333-1.033 0.787-2.553 0.787-1.527 0-2.107-0.453-2.56-0.787-0.46-0.333-1.14-0.78-1.84-0.78-0.425 0.001-0.798 0.222-1.010 0.555l-0.003 0.005s0.28 0.733 0.56 1.2c0.273 0.447 1.7-0.033 1.82-0.093l-0.173-0.12s-0.693 0.173-0.96 0.173-0.727-0.12-0.707-0.4c0.013-0.187 0.32-0.253 0.533-0.273 0.18-0.013 0.413 0.013 1.527 0.76 0.759 0.526 1.7 0.841 2.714 0.841 0.035 0 0.070-0 0.104-0.001l-0.005 0z"></path>
<path fill="#fff" d="M18.94 22.4s0-0.127-0.020-0.307c-0.027-0.233-0.16-0.293-0.267-0.26-0.080 0.027-0.22 0.2-0.22 0.2v0.007c-0.056-0.039-0.121-0.078-0.189-0.115l-0.011-0.005c0.118-0.104 0.258-0.186 0.412-0.238l0.008-0.002c0.067 0 0.967 0.36 1.253 0.607 0.067 0.067 0.12 0.467 0.080 0.6-0.399-0.101-0.748-0.266-1.056-0.486l0.009 0.006zM18.507 23.313s-0.193 0.2-0.2 0.553c0 0.42 0.3 0.44 0.5 0.433 0.247 0 0.44-0.14 0.433-0.593 0 0-0.4-0.167-0.733-0.4zM23.647 22.4l0.027-0.307c0.027-0.233 0.16-0.293 0.267-0.26 0.067 0.027 0.213 0.2 0.213 0.2v0.007l0.2-0.12c-0.047-0.067-0.347-0.24-0.413-0.24s-0.967 0.36-1.253 0.607c-0.067 0.067-0.12 0.467-0.087 0.6 0.399-0.099 0.749-0.265 1.056-0.486l-0.009 0.006v-0.007zM24.080 23.313s0.193 0.2 0.2 0.553c0.013 0.42-0.3 0.44-0.5 0.433-0.24 0-0.433-0.14-0.433-0.593 0 0 0.4-0.167 0.733-0.4z"></path>
<path fill="#69f" d="M18.087 23.027s-0.693 0.173-0.953 0.173c-0.267 0-0.727-0.12-0.707-0.4 0.013-0.187 0.32-0.253 0.533-0.273 0.153-0.013 0.353 0 1.133 0.5zM24.5 23.027s0.7 0.173 0.967 0.173c0.26 0 0.713-0.12 0.693-0.4-0.013-0.187-0.32-0.253-0.527-0.273-0.153-0.013-0.36 0-1.133 0.5zM18.94 22.407c-0.087-0.062-0.154-0.112-0.221-0.164l0.014 0.010c-0.1-0.073-0.2-0.133-0.3-0.213 0 0 0.14-0.18 0.213-0.2 0.113-0.040 0.247 0.020 0.273 0.253 0.020 0.18 0.020 0.313 0.020 0.313zM18.467 24.247c0.12 0.067 0.26 0.067 0.34 0.053 0.247 0 0.44-0.14 0.433-0.593 0 0 0.3 0.153 0.787 0.267 0 0 0.080 0.1 0.093 0.293 0.020 0.167-0.093 0.34-0.22 0.333 0 0-0.687-0.133-1.1-0.2-0.247-0.047-0.333-0.153-0.333-0.153zM23.647 22.407l0.213-0.153 0.293-0.213s-0.14-0.18-0.213-0.2c-0.107-0.040-0.24 0.020-0.267 0.253l-0.027 0.313zM24.12 24.247c-0.12 0.067-0.26 0.067-0.34 0.053-0.24 0-0.433-0.14-0.433-0.593 0 0-0.3 0.153-0.78 0.267 0 0-0.087 0.1-0.1 0.293-0.013 0.167 0.1 0.34 0.227 0.333 0 0 0.687-0.133 1.1-0.2 0.24-0.047 0.333-0.153 0.333-0.153z"></path>
<path fill="#000" d="M17.4 22.093c0.013 0.013 0.013 0.027 0.020 0.047 0.001 0.008 0.002 0.017 0.002 0.027s-0.001 0.019-0.002 0.028l0-0.001c-0.010 0.046-0.040 0.084-0.079 0.106l-0.001 0c-0.030 0.019-0.067 0.031-0.107 0.031-0.014 0-0.028-0.001-0.041-0.004l0.001 0c-0.025-0.006-0.047-0.015-0.068-0.027l0.001 0.001c-0.025-0.011-0.047-0.024-0.067-0.040l0.001 0-0.020 0.027-0.027-0.007 0.027-0.193 0.033 0.007c0 0.027 0 0.047 0.013 0.067l0.020 0.067 0.047 0.040c0.013 0.013 0.033 0.020 0.060 0.027h0.047c0.026-0.003 0.048-0.018 0.060-0.040l0-0c0.006-0.012 0.011-0.025 0.013-0.039l0-0.001c0.001-0.007 0.002-0.015 0.002-0.023 0-0.016-0.003-0.031-0.009-0.045l0 0.001c-0.011-0.020-0.027-0.036-0.046-0.046l-0.001-0c-0.005-0.004-0.022-0.015-0.040-0.025l-0.014-0.008-0.053-0.040c-0.033-0.020-0.053-0.040-0.067-0.067s-0.013-0.053-0.007-0.093c0-0.020 0.013-0.040 0.027-0.053 0.024-0.033 0.058-0.057 0.099-0.066l0.001-0c0.010-0.002 0.022-0.003 0.033-0.003s0.023 0.001 0.035 0.003l-0.001-0 0.067 0.027 0.053 0.040 0.020-0.027 0.033 0.007-0.033 0.187-0.033-0.007c0-0.010 0.001-0.022 0.001-0.033s-0-0.023-0.001-0.035l0 0.002c-0.007-0.020-0.016-0.038-0.027-0.054l0.001 0.001c-0.008-0.018-0.019-0.034-0.033-0.047l-0-0c-0.015-0.012-0.033-0.022-0.052-0.026l-0.001-0c-0.005-0.001-0.011-0.001-0.016-0.001-0.019 0-0.036 0.006-0.051 0.015l0-0c-0.027 0.013-0.040 0.033-0.040 0.053v0.067l0.047 0.047 0.053 0.033c0.033 0.022 0.061 0.044 0.088 0.068l-0.001-0.001c0.013 0 0.027 0.020 0.033 0.033M18.2 22.2l-0.033-0.007c-0.010-0.004-0.021-0.006-0.033-0.007h-0c-0.013 0-0.027 0.007-0.033 0.020-0.015 0.019-0.028 0.041-0.039 0.064l-0.001 0.002-0.12 0.207c-0.025 0.048-0.071 0.081-0.126 0.087l-0.001 0h-0.073c-0.025-0.009-0.047-0.020-0.068-0.034l0.001 0.001c-0.026-0.015-0.047-0.033-0.067-0.053l-0-0c-0.020-0.018-0.035-0.041-0.046-0.065l-0-0.001c-0.005-0.014-0.008-0.031-0.008-0.048 0-0.007 0-0.013 0.001-0.020l-0 0.001c0.001-0.020 0.006-0.038 0.014-0.054l-0 0.001 0.16-0.287c0.004-0.008 0.007-0.017 0.007-0.027v-0.020c-0.006-0.008-0.012-0.014-0.020-0.020l-0.027-0.020 0.013-0.020 0.207 0.113-0.013 0.020-0.020-0.007c-0.008-0.003-0.017-0.005-0.026-0.007l-0.001-0h-0.027c-0.006 0.006-0.010 0.012-0.013 0.020l-0 0-0.147 0.267c-0.008 0.013-0.015 0.029-0.020 0.045l-0 0.002c-0.002 0.008-0.003 0.017-0.003 0.027s0.001 0.019 0.003 0.027l-0-0.001c0 0.013 0 0.033 0.013 0.047l0.060 0.053 0.067 0.020c0.004 0 0.009 0.001 0.014 0.001 0.033 0 0.064-0.013 0.087-0.034l-0 0 0.033-0.040 0.107-0.2 0.033-0.067v-0.040c0-0.013-0.013-0.020-0.027-0.033-0.008-0.007-0.017-0.013-0.026-0.019l-0.001-0.001 0.013-0.027 0.2 0.113c-0.007 0.011-0.012 0.018-0.016 0.024l0.003-0.004M18.487 22.7c0.009 0.017 0.015 0.038 0.015 0.060s-0.006 0.043-0.015 0.061l0-0.001c-0.012 0.023-0.031 0.041-0.053 0.053l-0.001 0c-0.019 0.011-0.042 0.019-0.066 0.020l-0 0-0.067-0.007c-0.023-0.007-0.043-0.016-0.061-0.027l0.001 0.001-0.233-0.133 0.013-0.027c0.015 0.007 0.033 0.014 0.051 0.019l0.002 0.001c0.003 0.001 0.006 0.002 0.010 0.002s0.007-0.001 0.010-0.002l-0 0c0.009-0.005 0.015-0.011 0.020-0.020l0-0 0.2-0.353c0.003-0.006 0.005-0.012 0.007-0.020l0-0c0-0.001 0-0.003 0-0.004 0-0.008-0.003-0.016-0.007-0.023l0 0c-0.006-0.008-0.012-0.014-0.020-0.020l-0-0-0.020-0.013 0.013-0.027 0.227 0.133 0.047 0.033 0.040 0.047c0.009 0.015 0.014 0.034 0.014 0.053s-0.005 0.038-0.015 0.054l0-0c-0.010 0.016-0.024 0.030-0.039 0.040l-0.001 0-0.047 0.020c-0.007 0.001-0.015 0.002-0.023 0.002s-0.016-0.001-0.024-0.002l0.001 0c-0.020-0.002-0.038-0.007-0.055-0.014l0.002 0.001v0.007c0.015 0.012 0.028 0.025 0.040 0.040l0 0 0.033 0.047zM18.447 22.58c0.013 0 0.027-0.013 0.033-0.020 0.013-0.012 0.024-0.025 0.033-0.039l0-0.001c0.013-0.027 0.020-0.053 0.013-0.080-0.007-0.020-0.027-0.040-0.060-0.060l-0.027-0.013-0.027-0.020-0.107 0.187 0.040 0.027 0.053 0.020h0.047zM18.407 22.76c0.013-0.027 0.020-0.053 0.007-0.087 0-0.027-0.027-0.053-0.067-0.073-0.007-0.006-0.018-0.015-0.029-0.024l-0.004-0.003-0.027-0.007-0.1 0.167c-0.005 0.006-0.008 0.015-0.008 0.023s0.003 0.017 0.008 0.023l-0-0c0.007 0.013 0.027 0.027 0.047 0.033 0.033 0.020 0.067 0.027 0.093 0.020 0.033-0.013 0.053-0.033 0.080-0.067zM19.667 23.047c-0.005-0-0.011-0.001-0.017-0.001s-0.012 0-0.017 0.001l0.001-0c-0.010-0.004-0.022-0.007-0.035-0.007-0.002 0-0.004 0-0.005 0h0c-0.007 0-0.020 0.007-0.027 0.027-0.012 0.019-0.023 0.041-0.032 0.064l-0.001 0.003-0.1 0.22c-0.007 0.027-0.027 0.047-0.047 0.067-0.019 0.013-0.041 0.022-0.066 0.026l-0.001 0c-0.011 0.002-0.024 0.003-0.037 0.003s-0.026-0.001-0.038-0.003l0.001 0c-0.057-0.008-0.107-0.032-0.147-0.067l0 0c-0.018-0.015-0.034-0.033-0.046-0.052l-0-0.001c-0.011-0.019-0.019-0.042-0.020-0.066l-0-0c0-0.001 0-0.001 0-0.002 0-0.021 0.005-0.041 0.014-0.059l-0 0.001 0.133-0.3c0.001-0.004 0.002-0.009 0.002-0.013s-0.001-0.009-0.002-0.014l0 0c-0.001-0.007-0.003-0.014-0.007-0.020l0 0c-0.006-0.008-0.012-0.014-0.020-0.020l-0-0-0.027-0.013 0.013-0.027 0.22 0.093-0.013 0.027c-0.007-0.002-0.016-0.005-0.025-0.006l-0.001-0c-0.004-0-0.009-0.001-0.013-0.001s-0.009 0-0.014 0.001l0.001-0h-0.020c-0.005 0.006-0.010 0.012-0.013 0.020l-0 0-0.127 0.287-0.013 0.047c-0.001 0.006-0.002 0.012-0.002 0.019 0 0.029 0.011 0.055 0.028 0.075l-0-0c0.013 0.020 0.033 0.033 0.067 0.047l0.067 0.013c0.001 0 0.001 0 0.002 0 0.040 0 0.075-0.018 0.098-0.046l0-0c0.010-0.012 0.019-0.025 0.026-0.039l0-0.001 0.087-0.207 0.020-0.067v-0.047l-0.027-0.027c-0.010-0.007-0.020-0.014-0.032-0.019l-0.001-0.001 0.013-0.027 0.207 0.093-0.007 0.020M20.28 23.767l-0.24-0.067v-0.027c0.006 0 0.013 0 0.020 0s0.014-0 0.021-0l-0.001 0 0.027 0.007c0.010-0.002 0.019-0.007 0.027-0.013l-0 0c0.006-0.005 0.011-0.012 0.013-0.020l0-0 0.113-0.387c-0.001-0-0.002-0-0.003-0s-0.002 0-0.003 0h0l-0.32 0.4h-0.020l-0.040-0.527-0.1 0.32-0.013 0.073 0.007 0.040 0.033 0.027c0.010 0.007 0.021 0.014 0.032 0.019l0.001 0.001-0.013 0.027-0.213-0.067v-0.027h0.040c0.005 0.001 0.011 0.002 0.017 0.002s0.012-0.001 0.017-0.002l-0 0c0.013 0 0.020-0.013 0.033-0.027l0.020-0.067 0.080-0.28c0.004-0.011 0.007-0.025 0.007-0.038 0-0.001 0-0.001 0-0.002v0c-0-0.010-0.003-0.019-0.007-0.027l0 0c-0.007-0.011-0.016-0.020-0.026-0.026l-0-0c-0.010-0.006-0.021-0.010-0.032-0.013l-0.001-0 0.007-0.027 0.187 0.053 0.040 0.447 0.233-0.3 0.020-0.033c0.005-0.008 0.009-0.016 0.013-0.025l0-0.001 0.18 0.053-0.007 0.027c-0.005-0-0.011-0.001-0.017-0.001s-0.012 0-0.017 0.001l0.001-0c-0.008-0.003-0.017-0.005-0.026-0.007l-0.001-0c-0.001-0-0.001-0-0.002-0-0.007 0-0.013 0.003-0.018 0.007l0-0c-0.004 0.008-0.006 0.017-0.007 0.027v0l-0.113 0.387c-0.001 0.003-0.001 0.006-0.001 0.010s0 0.007 0.001 0.010l-0-0 0.007 0.020c0.015 0.011 0.033 0.020 0.052 0.026l0.002 0-0.007 0.027M20.86 23.593c0.029 0.023 0.047 0.059 0.047 0.099 0 0.005-0 0.010-0.001 0.015l0-0.001-0.027 0.067c-0.013 0.020-0.033 0.027-0.053 0.040s-0.040 0.013-0.067 0.020h-0.067l-0.267-0.033v-0.027h0.033c0.004 0 0.009 0.001 0.013 0.001s0.009-0 0.014-0.001l-0.001 0c0.008-0.002 0.015-0.007 0.020-0.013l0-0c0.004-0.007 0.007-0.015 0.007-0.024 0-0.001-0-0.002-0-0.003v0l0.053-0.4c0-0.003 0.001-0.006 0.001-0.010s-0-0.007-0.001-0.010l0 0c-0.004-0.009-0.011-0.016-0.020-0.020l-0-0c-0.008-0.005-0.017-0.010-0.026-0.013l-0.001-0h-0.020v-0.033l0.26 0.033c0.020 0 0.040 0 0.060 0.013l0.047 0.027c0.025 0.020 0.041 0.050 0.041 0.084 0 0.006-0 0.011-0.001 0.016l0-0.001-0.013 0.053c-0.011 0.014-0.024 0.025-0.039 0.033l-0.001 0c-0.012 0.008-0.025 0.015-0.039 0.020l-0.001 0c-0.015 0.006-0.033 0.011-0.052 0.013l-0.001 0 0.053 0.020 0.047 0.033zM20.773 23.493l0.027-0.033 0.013-0.047c0-0.004 0.001-0.008 0.001-0.012 0-0.023-0.008-0.044-0.021-0.061l0 0c-0.013-0.020-0.040-0.033-0.073-0.033-0.014-0.002-0.037-0.004-0.060-0.006l-0.007-0-0.027 0.213h0.053c0.020 0.007 0.040 0 0.053 0 0.016-0.003 0.029-0.010 0.040-0.020l-0 0zM20.807 23.68c0-0.033 0-0.067-0.020-0.087s-0.053-0.033-0.093-0.040l-0.047-0.007h-0.027l-0.020 0.193c-0.001 0.003-0.001 0.006-0.001 0.009 0 0.012 0.006 0.023 0.014 0.031l0 0 0.053 0.020c0.040 0 0.067 0 0.1-0.027 0.020-0.020 0.033-0.047 0.040-0.093zM21.567 23.853h-0.147c-0.036-0.055-0.067-0.098-0.099-0.141l0.005 0.008-0.087-0.12h-0.067v0.18l0.007 0.027 0.020 0.013h0.027l0.033 0.007v0.027h-0.24v-0.027h0.027l0.027-0.007c0.006-0.003 0.010-0.008 0.013-0.013l0-0c0.004-0.007 0.007-0.015 0.007-0.024 0-0.001-0-0.002-0-0.003v0-0.427l-0.020-0.020c-0.004-0-0.009-0.001-0.013-0.001s-0.009 0-0.014 0.001l0.001-0-0.027-0.007v-0.027h0.327c0.023 0.006 0.043 0.015 0.061 0.027l-0.001-0 0.040 0.040c0.008 0.018 0.012 0.038 0.012 0.060s-0.005 0.042-0.013 0.061l0-0.001c-0.006 0.018-0.015 0.034-0.027 0.047l0-0c-0.013 0.011-0.029 0.020-0.046 0.026l-0.001 0c-0.015 0.007-0.033 0.014-0.051 0.019l-0.003 0.001 0.067 0.093c0.020 0.027 0.047 0.053 0.067 0.093 0.017 0.023 0.040 0.041 0.066 0.053l0.001 0c0.015 0.004 0.033 0.007 0.051 0.007 0.001 0 0.001 0 0.002 0h-0v0.027zM21.36 23.44c0-0.033-0.013-0.067-0.027-0.080-0.020-0.020-0.053-0.033-0.087-0.033h-0.067v0.24h0.053c0.033 0 0.067-0.007 0.087-0.033 0.027-0.020 0.040-0.053 0.040-0.093zM22.227 23.813l-0.24 0.020v-0.027l0.047-0.013c0.013 0 0.020-0.013 0.020-0.013v-0.013c0-0.001 0-0.002 0-0.003s-0-0.002-0-0.003v0l-0.060-0.12-0.2 0.013c-0.004 0.011-0.008 0.026-0.012 0.042l-0.001 0.004-0.007 0.040c-0.002 0.007-0.005 0.016-0.006 0.025l-0 0.001v0.020c0 0.013 0.007 0.020 0.027 0.020l0.060 0.007v0.027l-0.213 0.020v-0.027c0.010-0.001 0.019-0.004 0.028-0.007l-0.001 0c0.020-0.007 0.036-0.021 0.046-0.040l0-0 0.013-0.033 0.147-0.48h0.033l0.227 0.467 0.013 0.020c0.012 0.014 0.028 0.023 0.046 0.027l0 0h0.027v0.027zM21.98 23.607l-0.107-0.213-0.067 0.227 0.173-0.013zM23.027 23.16c-0.020 0.009-0.028 0.014-0.037 0.018l0.010-0.005c-0.014-0.024-0.032-0.044-0.053-0.060l-0-0c-0.027-0.013-0.047-0.027-0.067-0.020-0.003-0-0.006-0-0.010-0s-0.007 0-0.011 0h0.001l-0.040 0.013-0.093 0.027 0.060 0.213 0.067-0.013 0.040-0.020 0.020-0.027 0.007-0.027v-0.040l0.027-0.013 0.060 0.213-0.027 0.007c-0.006-0.013-0.013-0.024-0.020-0.034l0 0-0.027-0.027c-0.009-0.007-0.021-0.012-0.033-0.013h-0c-0.014 0-0.028 0.003-0.041 0.007l0.001-0-0.067 0.020 0.053 0.187s0 0.013 0.013 0.020c0.005 0.006 0.012 0.011 0.020 0.013l0 0h0.027l0.027-0.007 0.007 0.027-0.233 0.067-0.007-0.027c0.013-0.006 0.021-0.010 0.030-0.015l-0.003 0.002 0.027-0.013c0.007-0.005 0.011-0.012 0.013-0.020l0-0c0.001-0.003 0.001-0.006 0.001-0.010s-0-0.007-0.001-0.010l0 0-0.107-0.393c-0.003-0.008-0.008-0.014-0.013-0.020l0 0-0.020-0.013c-0.004-0-0.009-0.001-0.013-0.001s-0.009 0-0.014 0.001l0.001-0c-0.005-0.001-0.011-0.001-0.017-0.001s-0.012 0-0.017 0.001l0.001-0-0.007-0.020 0.427-0.12 0.040 0.133M23.653 23.113l0.067 0.16-0.4 0.187-0.013-0.020 0.027-0.020c0.008-0.004 0.014-0.008 0.020-0.013l-0 0c0.004-0.006 0.007-0.012 0.007-0.020v0c0.001-0.004 0.002-0.009 0.002-0.013s-0.001-0.009-0.002-0.014l0 0-0.18-0.36c-0.003-0.008-0.008-0.014-0.013-0.020l0 0c-0.004-0.002-0.009-0.003-0.013-0.003s-0.009 0.001-0.014 0.003l0-0h-0.027c-0.004-0-0.009-0.001-0.013-0.001s-0.009 0-0.014 0.001l0.001-0-0.013-0.020 0.22-0.107 0.013 0.027c-0.010 0.004-0.019 0.009-0.027 0.014l0.001-0c-0.007 0.006-0.014 0.013-0.020 0.020l-0 0c-0.007 0.004-0.012 0.011-0.013 0.020v0c0 0 0 0.001 0 0.001 0 0.009 0.002 0.018 0.007 0.026l-0-0 0.167 0.333c0 0.020 0.013 0.033 0.020 0.040l0.020 0.013h0.027l0.047-0.020 0.027-0.013 0.027-0.020 0.020-0.013c0.006-0.005 0.011-0.012 0.013-0.020l0-0c0.009-0.032 0.014-0.070 0.014-0.108 0-0.009-0-0.018-0.001-0.027l0 0.001 0.020-0.013M23.953 22.56c0.038 0.012 0.072 0.030 0.1 0.054l-0-0 0.080 0.093c0.019 0.033 0.033 0.071 0.040 0.111l0 0.002c0.003 0.016 0.005 0.034 0.005 0.053s-0.002 0.037-0.006 0.055l0-0.002c-0.009 0.038-0.025 0.072-0.047 0.101l0-0.001c-0.022 0.027-0.049 0.049-0.079 0.066l-0.001 0.001c-0.039 0.024-0.086 0.038-0.137 0.038-0.027 0-0.054-0.004-0.078-0.012l0.002 0c-0.036-0.010-0.067-0.026-0.094-0.047l0.001 0c-0.032-0.026-0.059-0.057-0.079-0.092l-0.001-0.002c-0.019-0.033-0.033-0.071-0.040-0.111l-0-0.002c-0.004-0.017-0.006-0.037-0.006-0.057s0.002-0.040 0.006-0.059l-0 0.002c0.022-0.070 0.070-0.127 0.132-0.159l0.001-0.001c0.029-0.019 0.062-0.033 0.098-0.040l0.002-0c0.010-0.001 0.021-0.002 0.033-0.002 0.024 0 0.047 0.003 0.069 0.009l-0.002-0zM24.107 22.933c0-0.001 0-0.002 0-0.003 0-0.030-0.005-0.058-0.014-0.085l0.001 0.002c-0.013-0.036-0.029-0.067-0.048-0.095l0.001 0.002c-0.020-0.033-0.042-0.061-0.067-0.087l0 0c-0.019-0.021-0.041-0.039-0.065-0.053l-0.001-0.001c-0.019-0.008-0.041-0.013-0.064-0.013-0.001 0-0.002 0-0.003 0h0c-0.033 0-0.053 0.007-0.080 0.020-0.027 0.020-0.047 0.040-0.060 0.067-0.011 0.019-0.018 0.042-0.020 0.066l-0 0.001c0 0.033 0.007 0.060 0.020 0.087 0.022 0.067 0.056 0.125 0.1 0.174l-0-0c0.020 0.027 0.047 0.040 0.067 0.053 0.022 0.013 0.049 0.020 0.078 0.020 0.001 0 0.002 0 0.003-0h-0c0.020 0 0.047 0 0.073-0.020 0.048-0.026 0.079-0.076 0.080-0.133v-0zM24.807 22.553l-0.127 0.087-0.153-0.060-0.133-0.040-0.053 0.033 0.107 0.14 0.013 0.020h0.027c0.008-0.002 0.014-0.004 0.021-0.007l-0.001 0 0.027-0.020 0.020 0.027-0.2 0.133-0.013-0.020c0.015-0.011 0.028-0.022 0.040-0.034l-0 0c0.002-0.004 0.003-0.009 0.003-0.013s-0.001-0.009-0.003-0.014l0 0c0.001-0.003 0.001-0.006 0.001-0.010s-0-0.007-0.001-0.010l0 0-0.24-0.333c-0.004-0.005-0.008-0.009-0.013-0.013l-0-0c-0.004-0.003-0.008-0.005-0.013-0.005s-0.010 0.002-0.013 0.005l0-0c-0.018 0.005-0.033 0.012-0.048 0.020l0.001-0-0.020-0.027 0.213-0.147c0.017-0.012 0.037-0.024 0.058-0.033l0.002-0.001c0.018-0.007 0.038-0.012 0.060-0.013l0-0 0.053 0.007c0.036 0.019 0.063 0.053 0.073 0.092l0 0.001v0.053c-0.002 0.017-0.007 0.033-0.014 0.048l0-0.001c-0.010 0.020-0.021 0.038-0.034 0.054l0.001-0.001 0.213 0.067c0.016 0.006 0.034 0.009 0.053 0.009 0.009 0 0.019-0.001 0.028-0.002l-0.001 0h0.027c0.010-0.006 0.019-0.013 0.027-0.020l-0 0 0.013 0.027zM24.393 22.333c-0.020-0.027-0.040-0.040-0.067-0.047s-0.060 0-0.087 0.020l-0.053 0.040 0.133 0.2 0.047-0.033c0.027-0.020 0.047-0.047 0.053-0.080 0-0.033 0-0.067-0.027-0.1zM25.273 22.2l0.047 0.16-0.44 0.16-0.013-0.027c0.020-0.008 0.038-0.017 0.054-0.027l-0.001 0.001c0.006-0.005 0.011-0.012 0.013-0.020l0-0c0.001-0.004 0.002-0.009 0.002-0.013s-0.001-0.009-0.002-0.014l0 0-0.147-0.373c-0.001-0.008-0.004-0.014-0.007-0.020l0 0-0.027-0.007h-0.027c-0.005-0.001-0.011-0.001-0.017-0.001s-0.012 0-0.017 0.001l0.001-0-0.007-0.020 0.407-0.153 0.047 0.127-0.027 0.007c-0.015-0.019-0.032-0.034-0.052-0.046l-0.001-0-0.060-0.020c-0.011 0.005-0.020 0.009-0.028 0.014l0.001-0.001-0.12 0.040 0.073 0.207 0.067-0.020c0.013 0 0.027-0.013 0.033-0.020 0.009-0.007 0.016-0.016 0.020-0.026l0-0v-0.073l0.027-0.007 0.073 0.2-0.027 0.013c-0.006-0.013-0.013-0.024-0.020-0.034l0 0.001c-0.008-0.008-0.016-0.015-0.026-0.020l-0.001-0c-0.009-0.007-0.021-0.012-0.033-0.013h-0c-0.013 0-0.027 0-0.040 0.013l-0.060 0.020 0.060 0.16 0.013 0.033c0.003 0.009 0.011 0.017 0.020 0.020l0 0h0.033l0.047-0.020 0.033-0.013c0.025-0.006 0.047-0.015 0.068-0.027l-0.001 0.001 0.013-0.020 0.013-0.067v-0.067l0.033-0.007M25.747 21.813c0.027 0.020 0.053 0.047 0.067 0.087 0.020 0.033 0.033 0.067 0.040 0.113 0.004 0.018 0.006 0.039 0.006 0.060s-0.002 0.042-0.006 0.062l0-0.002c-0.011 0.039-0.030 0.072-0.054 0.1l0-0c-0.042 0.058-0.105 0.097-0.179 0.107l-0.001 0c-0.009 0.001-0.020 0.002-0.032 0.002-0.064 0-0.123-0.023-0.169-0.062l0 0c-0.027-0.022-0.049-0.049-0.066-0.079l-0.001-0.001c-0.019-0.033-0.033-0.071-0.040-0.111l-0-0.002c-0.004-0.019-0.006-0.041-0.006-0.063s0.002-0.044 0.006-0.065l-0 0.002 0.053-0.1c0.043-0.055 0.107-0.092 0.179-0.1l0.001-0c0.016-0.003 0.034-0.005 0.053-0.005s0.037 0.002 0.055 0.006l-0.002-0 0.093 0.053zM25.74 22.213c0.013-0.027 0.020-0.053 0.020-0.087v-0.1c-0.006-0.038-0.015-0.071-0.028-0.103l0.001 0.003c-0.011-0.031-0.027-0.057-0.047-0.080l0 0c-0.016-0.020-0.036-0.036-0.059-0.046l-0.001-0c-0.015-0.005-0.032-0.008-0.050-0.008-0.008 0-0.016 0.001-0.024 0.002l0.001-0c-0.033 0-0.067 0.013-0.080 0.033-0.020 0.013-0.040 0.040-0.047 0.067-0.010 0.023-0.017 0.051-0.020 0.079l-0 0.001c-0.001 0.012-0.002 0.026-0.002 0.040 0 0.058 0.010 0.113 0.029 0.163l-0.001-0.003 0.047 0.073c0.013 0.027 0.033 0.040 0.060 0.047 0.020 0.013 0.047 0.013 0.080 0.013 0.026-0.006 0.048-0.017 0.067-0.034l-0 0c0.023-0.017 0.041-0.039 0.053-0.066l0-0.001z"></path>
</svg>
