<!-- Generated by IcoMoon.io -->
<svg version="1.1" xmlns="http://www.w3.org/2000/svg" width="43" height="32" viewBox="0 0 43 32">
<title>ca</title>
<path fill="#fff" d="M10.009 0h22.644v32h-22.644z"></path>
<path fill="#d52b1e" d="M-1.31 0h11.319v32h-11.319zM32.653 0h11.319v32h-11.313zM13.402 15.463l-0.887 0.3 4.094 3.594c0.313 0.919-0.106 1.188-0.375 1.675l4.438-0.563-0.106 4.469 0.925-0.025-0.206-4.438 4.45 0.531c-0.275-0.581-0.519-0.887-0.269-1.813l4.088-3.406-0.712-0.262c-0.587-0.45 0.25-2.169 0.375-3.256 0 0-2.381 0.819-2.538 0.387l-0.613-1.169-2.169 2.388c-0.238 0.056-0.337-0.037-0.394-0.238l1-4.988-1.587 0.894c-0.131 0.063-0.262 0.012-0.35-0.144l-1.531-3.063-1.575 3.181c-0.119 0.113-0.238 0.125-0.337 0.050l-1.512-0.85 0.913 4.944c-0.075 0.2-0.25 0.25-0.45 0.144l-2.081-2.356c-0.269 0.438-0.45 1.144-0.813 1.306-0.356 0.15-1.563-0.3-2.369-0.475 0.275 0.994 1.137 2.644 0.594 3.188z"></path>
</svg>
