<!-- Generated by IcoMoon.io -->
<svg version="1.1" xmlns="http://www.w3.org/2000/svg" width="43" height="32" viewBox="0 0 43 32">
<title>cc</title>
<path fill="#008000" d="M0 0h42.667v32h-42.667z"></path>
<path fill="#ffe000" d="M25.78 16c0 2.456-1.991 4.447-4.447 4.447s-4.447-1.991-4.447-4.447c0-2.456 1.991-4.447 4.447-4.447s4.447 1.991 4.447 4.447z"></path>
<path fill="#008000" d="M26.38 16c0 2.021-1.639 3.66-3.66 3.66s-3.66-1.639-3.66-3.66c0-2.021 1.639-3.66 3.66-3.66s3.66 1.639 3.66 3.66z"></path>
<path fill="#ffe000" d="M11.973 11.553c0 2.57-2.083 4.653-4.653 4.653s-4.653-2.083-4.653-4.653c0-2.57 2.083-4.653 4.653-4.653s4.653 2.083 4.653 4.653z"></path>
<path fill="#802000" d="M7 15.067h1.167s0.047-0.107-0.013-0.16c-0.067-0.053-0.313-0.067-0.247-0.253 0.133-0.387 0.16-0.267 0.247-1.187 0.056-0.638 0.104-1.459 0.131-2.286l0.002-0.081h-0.173s0.033 0.447-0.067 1.033c-0.093 0.587-0.127 0.633-0.233 1.087-0.057 0.286-0.133 0.536-0.23 0.775l0.010-0.028c-0.093 0.267-0.107 0.273-0.253 0.52-0.153 0.24-0.1 0.147-0.18 0.293-0.047 0.073-0.093 0.053-0.127 0.107-0.027 0.053-0.033 0.18-0.033 0.18z"></path>
<path fill="#008000" d="M7.887 8.167c0.003 0.034 0.004 0.073 0.004 0.112 0 0.179-0.031 0.352-0.087 0.512l0.003-0.011c-0.088 0.192-0.144 0.415-0.153 0.65l-0 0.003c-0.12 0.040-0.247-0.26-0.367-0.080 0.087 0.247 0.293 0.44 0.427 0.66 0.027 0.067 0.227 0.247 0.107 0.287-0.287-0.1-0.36-0.467-0.533-0.687-0.205-0.377-0.586-0.636-1.029-0.666l-0.004-0c-0.167 0.007-0.693-0.033-0.56 0.247 0.2 0.133 0.453 0.227 0.653 0.38 0.153 0.013 0.42 0.267 0.407 0.36-0.267-0.107-0.387-0.233-0.667-0.347-0.387-0.147-0.913-0.060-1.133 0.32-0.033 0.1-0.093 0.387 0.033 0.42 0.147-0.227 0.353-0.487 0.66-0.413 0.24 0.020-0.267 0.447-0.073 0.36 0.067-0.027 0.2-0.12 0.307-0.133 0.1 0 0.153 0.067 0.227 0.080 0.153 0.020 0.2 0.080 0.18 0.12-0.013 0.040-0.067 0-0.22 0.053-0.073 0.027-0.113 0.093-0.2 0.127-0.093 0.027-0.28 0.033-0.347 0-0.247-0.1-0.647-0.087-0.72 0.22 0 0.133-0.12-0.013-0.173 0.047-0.047 0.147-0.053 0.293-0.267 0.28-0.133 0.133-0.267 0.28-0.44 0.38 0.1 0.227 0.487-0.227 0.467-0.033-0.167 0.233 0.093 0.28 0.2 0.1 0.193-0.2 0.433-0.447 0.713-0.24 0.133 0.127 0.213-0.067 0.313-0.067 0.067 0.167 0.14 0.013 0.213-0.033 0.113-0.013 0.080 0.147 0.213 0.047 0.273-0.18 0.607-0.027 0.873-0.2 0.287-0.133 0.040 0.1-0.033 0.193-0.127 0.24-0.020 0.56-0.287 0.707-0.113 0.287 0.127 0.667-0.113 0.88-0.033 0.133 0.307 0.12 0.4 0.173 0.173 0 0-0.387 0.167-0.44 0.227 0.133 0.213-0.253 0.167-0.373 0.027-0.267 0.040-0.573 0.173-0.82 0.147-0.3 0.28 0.127 0.12 0.247-0.093 0.273-0.227 0.627-0.020 0.887 0.067 0.013 0.113 0.16 0.187 0.2 0.080 0.047 0.187-0.007 0.2-0.14 0.107-0.4 0.053-0.827 0.2-1.22 0.1-0.12 0.24-0.020 0.3 0.093 0.2 0.233 0.34 0.52 0.58 0.713 0.229 0.095 0.411 0.266 0.517 0.481l0.003 0.006c0 0.173 0.493 0.2 0.347 0-0.14-0.18-0.047-0.373 0.093-0.5 0.080 0.020 0.060-0.12 0-0.067-0.1-0.020-0.107-0.2 0.027-0.113 0.233 0.073-0.013-0.167-0.1-0.173-0.193-0.12-0.413-0.253-0.507-0.467 0.253 0 0.513 0.14 0.767 0.060 0.207-0.107 0.413 0 0.487 0.187 0.16-0.027 0.093-0.187 0-0.24 0.113-0.047 0.2-0.147 0.053-0.233-0.067-0.093 0.1-0.267-0.113-0.253 0.007-0.167-0.053-0.313-0.233-0.373-0.18-0.147-0.707 0.227-0.687-0.113-0.053-0.187 0.213-0.027 0.287-0.12 0.073-0.2-0.367-0.173-0.22-0.333 0.093-0.053 0.54-0.14 0.193-0.207-0.047 0.014-0.1 0.022-0.156 0.022-0.116 0-0.224-0.036-0.313-0.097l0.002 0.001c-0.127 0.207-0.48-0.12-0.42 0.253-0.047 0.14-0.367 0.507-0.453 0.227 0.067-0.22 0.453-0.287 0.333-0.587-0.020-0.18-0.173 0.033-0.24 0.020-0.040-0.113 0.107-0.253 0.213-0.28 0.2 0.16 0.2-0.2 0.4-0.167 0.14-0.033-0.047-0.093-0.087-0.12 0.040-0.1 0.26-0.153 0.047-0.247-0.193-0.133-0.333 0.14-0.487 0.153-0.147-0.167 0.133-0.247 0.213-0.333 0.007-0.067-0.16-0.020-0.113-0.080 0.047-0.073 0.347-0.080 0.2-0.2-0.086-0.027-0.184-0.043-0.286-0.043-0.143 0-0.278 0.030-0.4 0.085l0.006-0.002c-0.133 0.040-0.167 0.333-0.28 0.32-0.047-0.133 0.020-0.387-0.16-0.42zM8.887 10.987c0.16-0.027 0 0.247-0.067 0.24 0-0.093-0.24-0.087-0.087-0.173 0.044-0.029 0.095-0.052 0.15-0.066l0.003-0.001z"></path>
<path fill="#ffe000" d="M32.004 21.589l0.294 0.914 0.897-0.34-0.531 0.8 0.825 0.49-0.957 0.083 0.132 0.951-0.661-0.696-0.661 0.696 0.132-0.95-0.956-0.084 0.826-0.49-0.531-0.8 0.897 0.34z"></path>
<path fill="#ffe000" d="M26.67 13.144l0.294 0.914 0.897-0.34-0.531 0.8 0.826 0.49-0.957 0.083 0.132 0.951-0.661-0.696-0.661 0.696 0.132-0.95-0.956-0.084 0.826-0.49-0.531-0.8 0.897 0.34z"></path>
<path fill="#ffe000" d="M32.004 7.365l0.294 0.914 0.897-0.34-0.531 0.8 0.825 0.49-0.957 0.083 0.132 0.951-0.661-0.696-0.661 0.696 0.132-0.95-0.956-0.084 0.826-0.49-0.531-0.8 0.897 0.34z"></path>
<path fill="#ffe000" d="M36.745 11.721l0.294 0.914 0.897-0.34-0.531 0.8 0.825 0.49-0.957 0.083 0.132 0.951-0.661-0.696-0.661 0.696 0.132-0.95-0.956-0.084 0.825-0.49-0.531-0.8 0.897 0.34z"></path>
<path fill="#ffe000" d="M34.138 16.001l0.232 0.569 0.613 0.045-0.47 0.397 0.147 0.597-0.522-0.324-0.522 0.325 0.146-0.597-0.47-0.397 0.614-0.045z"></path>
</svg>
