<!-- Generated by IcoMoon.io -->
<svg version="1.1" xmlns="http://www.w3.org/2000/svg" width="43" height="32" viewBox="0 0 43 32">
<title>ck</title>
<path fill="#006" d="M0 0h42.667v32h-42.667z"></path>
<path fill="#fff" d="M31.44 14.2l0.347-1.113-0.933-0.707 1.173-0.013 0.4-1.1 0.373 1.1 1.18 0.033-0.94 0.7 0.333 1.113-0.967-0.667zM34.213 14.413l0.693-0.927-0.647-0.987 1.113 0.387 0.733-0.9v1.173l1.093 0.427-1.12 0.333-0.053 1.167-0.68-0.96zM28.787 15.127l-0.047-1.167-1.12-0.347 1.113-0.413v-1.16l0.727 0.9 1.12-0.373-0.653 0.98 0.687 0.933-1.133-0.3zM26.84 16.907l-0.493-1.053-1.16 0.12 0.853-0.82-0.44-1.087 1.013 0.547 0.887-0.787-0.227 1.16 0.993 0.593-1.153 0.167zM25.933 19.453l-0.887-0.74-1 0.613 0.427-1.113-0.86-0.773 1.153 0.047 0.467-1.093 0.287 1.147 1.147 0.1-0.973 0.653zM25.907 22.32l-1.1-0.32-0.673 0.967-0.047-1.193-1.093-0.367 1.073-0.413v-1.2l0.713 0.94 1.093-0.373-0.64 1zM27.2 24.747l-1.133 0.16-0.233 1.16-0.52-1.067-1.14 0.107 0.813-0.82-0.473-1.093 1.020 0.567 0.853-0.787-0.187 1.16zM29.2 26.667l-1.007 0.547 0.173 1.173-0.847-0.827-1.040 0.507 0.487-1.060-0.82-0.86 1.153 0.173 0.533-1.033 0.227 1.16zM31.647 27.047l-0.553 1.020 0.78 0.88-1.16-0.22-0.593 1-0.16-1.153-1.147-0.267 1.053-0.493-0.113-1.167 0.813 0.853zM34.393 26.627l-0.033 1.16 1.087 0.427-1.133 0.333-0.080 1.167-0.667-0.953-1.133 0.293 0.72-0.927-0.627-0.98 1.107 0.38zM37.267 13.987l0.8 0.84 1.060-0.493-0.553 1.053 0.767 0.873-1.133-0.187-0.6 1.033-0.14-1.173-1.133-0.233 1.047-0.533zM39.66 16.567l0.367 1.107 1.167 0.020-0.947 0.713 0.313 1.12-0.94-0.667-0.973 0.673 0.36-1.12-0.92-0.707 1.173-0.027zM40.56 19.893l-0.133 1.16 1.047 0.513-1.153 0.24-0.18 1.153-0.58-1.007-1.16 0.193 0.8-0.867-0.54-1.033 1.067 0.48zM39.927 23.38l-0.52 1.040 0.793 0.847-1.16-0.18-0.56 1.020-0.2-1.153-1.16-0.22 1.040-0.533-0.153-1.16 0.84 0.82zM38.193 26.467l-0.98 0.613 0.253 1.153-0.9-0.767-1 0.573 0.42-1.087-0.873-0.807 1.16 0.1 0.467-1.067 0.293 1.147z"></path>
<path fill="#006" d="M0 0h21.333v16h-21.333z"></path>
<path fill="#fff" d="M2.5 0l8.133 6.033 8.1-6.033h2.6v2.067l-8 5.967 8 5.933v2.033h-2.667l-8-5.967-7.967 5.967h-2.7v-2l7.967-5.933-7.967-5.933v-2.133z"></path>
<path fill="#c8102e" d="M14.133 9.367l7.2 5.3v1.333l-9.033-6.633zM8 10.033l0.2 1.167-6.4 4.8h-1.8zM21.333 0v0.1l-8.3 6.267 0.067-1.467 6.567-4.9zM0 0l7.967 5.867h-2l-5.967-4.467z"></path>
<path fill="#fff" d="M8.033 0v16h5.333v-16zM0 5.333v5.333h21.333v-5.333z"></path>
<path fill="#c8102e" d="M0 6.433v3.2h21.333v-3.2zM9.1 0v16h3.2v-16z"></path>
</svg>
