<!-- Generated by IcoMoon.io -->
<svg version="1.1" xmlns="http://www.w3.org/2000/svg" width="43" height="32" viewBox="0 0 43 32">
<title>cm</title>
<path fill="#007a5e" d="M0 0h14.22v32h-14.22z"></path>
<path fill="#ce1126" d="M14.22 0h14.227v32h-14.227z"></path>
<path fill="#fcd116" d="M28.447 0h14.22v32h-14.22z"></path>
<path fill="#fcd116" d="M21.333 12.207l-1.185 3.603 1.801 0.616z"></path>
<path fill="#fcd116" d="M21.333 12.207l1.185 3.603-1.801 0.616z"></path>
<path fill="#fcd116" d="M24.94 14.828l-3.793-0.014-0.029 1.904z"></path>
<path fill="#fcd116" d="M24.94 14.828l-3.060 2.241-1.143-1.523z"></path>
<path fill="#fcd116" d="M23.563 19.068l-1.159-3.611-1.82 0.56z"></path>
<path fill="#fcd116" d="M23.563 19.068l-3.077-2.218 1.095-1.557z"></path>
<path fill="#fcd116" d="M19.104 19.068l3.077-2.218-1.095-1.557z"></path>
<path fill="#fcd116" d="M19.104 19.068l1.159-3.611 1.82 0.56z"></path>
<path fill="#fcd116" d="M17.726 14.828l3.060 2.241 1.143-1.523z"></path>
<path fill="#fcd116" d="M17.726 14.828l3.793-0.014 0.029 1.904z"></path>
</svg>
