<!-- Generated by IcoMoon.io -->
<svg version="1.1" xmlns="http://www.w3.org/2000/svg" width="43" height="32" viewBox="0 0 43 32">
<title>cv</title>
<path fill="#fff" d="M-0.020 14.601h53.041v12.909h-53.047z"></path>
<path fill="#081873" d="M0.018 0h53.016v16.080h-53.016zM0.037 24.183h53.398v7.902h-53.398z"></path>
<path fill="#de3929" d="M0.037 18.963h53.016v2.482h-53.016z"></path>
<path fill="#ffce08" d="M15.923 25.017l0.414 1.278h1.341l-1.090 0.796 0.414 1.285-1.078-0.802-1.090 0.796 0.42-1.285-1.090-0.796h1.347zM27.579 15.692l0.42 1.285h1.335l-1.090 0.79 0.414 1.285-1.090-0.796-1.090 0.796 0.414-1.285-1.090-0.79h1.354zM13.241 21.012l0.414 1.285h1.347l-1.084 0.802 0.42 1.278-1.090-0.79-1.090 0.79 0.414-1.278-1.090-0.796h1.347zM27.579 20.649l0.42 1.278h1.335l-1.090 0.796 0.414 1.278-1.090-0.79-1.090 0.796 0.414-1.285-1.090-0.796h1.354zM24.615 11.794l0.42 1.278h1.354l-1.090 0.796 0.414 1.285-1.090-0.796-1.090 0.796 0.42-1.285-1.097-0.796h1.354zM20.165 10.24l0.42 1.285h1.347l-1.090 0.79 0.414 1.285-1.090-0.79-1.090 0.79 0.42-1.285-1.090-0.79h1.341zM15.703 11.706l0.42 1.285h1.347l-1.090 0.79 0.42 1.285-1.097-0.796-1.090 0.796 0.42-1.285-1.090-0.79h1.354zM13.115 15.698l0.414 1.285h1.354l-1.097 0.79 0.42 1.285-1.090-0.796-1.090 0.796 0.414-1.285-1.090-0.79h1.347zM20.165 26.345l0.42 1.285h1.347l-1.090 0.79 0.42 1.285-1.097-0.796-1.090 0.796 0.42-1.285-1.090-0.79h1.341zM24.897 25.017l0.414 1.278h1.347l-1.084 0.796 0.42 1.285-1.090-0.796-1.097 0.796 0.42-1.285-1.090-0.796h1.347z"></path>
</svg>
