<!-- Generated by IcoMoon.io -->
<svg version="1.1" xmlns="http://www.w3.org/2000/svg" width="43" height="32" viewBox="0 0 43 32">
<title>cx</title>
<path fill="#0021ad" d="M0 0h42.667v32h-42.667z"></path>
<path fill="#1c8a42" d="M0 0h42.667v32z"></path>
<path fill="#ffc639" d="M25.187 16c0 2.128-1.725 3.853-3.853 3.853s-3.853-1.725-3.853-3.853c0-2.128 1.725-3.853 3.853-3.853s3.853 1.725 3.853 3.853z"></path>
<path fill="#1c8a42" d="M18.98 14.267c0.267 0.367 0.667 0.973 0.987 0.813 0.247 0 0.38 0.020 0.413 0.187 0.073 0.008 0.157 0.012 0.243 0.012 0.795 0 1.502-0.376 1.953-0.96l0.004-0.006s0.053 0 0.033-0.3c0-0.133 0.187-0.107 0.187-0.067 0.027 0.067 0.027 0.113 0.060 0.12 0.067-0.027 0.18-0.2 0.267-0.307 0.020-0.047 0.007-0.1 0.013-0.16 0.047-0.113 0.16-0.087 0.187-0.027l0.040 0.107c0.12 0.080 0.333 0 0.347 0 0.020-0.093 0.080-0.080 0.080-0.080 0.080-0.020 0.047-0.013 0.1 0.013-0.047 0.513 0.1 0.533 0.087 0.8 0.007 0.293-0.087 0.373-0.087 0.487 0.027 0.133 0.467 0.14 0.307 0.26-0.133 0.067 0 0.2-0.2 0.253-0.587 0.3-0.693 0.553-0.693 0.553s-0.147 0.28-0.167 0.28c-0.1 0.187-0.22 0.080-0.293 0.173-0.033 0.113-0.067 0.367 0 0.493 0.033 0.18 0 0.28-0.047 0.46-0.040 0.373-0.187 0.433-0.207 0.56-0.067 0.147 0.013 0.8-0.053 0.8-0.433 0.013-0.767-0.080-0.94-0.113 0.167-0.727 0.1-1.36 0.1-1.427-0.040-0.52-0.773-0.393-0.887-0.467-0.093-0.013-0.153-0.087-0.18-0.12-0.107-0.013-0.147-0.040-0.247-0.047-0.053 0.027-0.020 0.053-0.133 0.087-0.3 0.033-0.427-0.253-0.427-0.253 0.013-0.1-0.66 0.020-1.020-0.067-0.153 0.087-0.22 0.333-0.34 0.36 0 0.073-0.2-0.067-0.24-0.133-0.013-0.227 0.187-0.32 0.187-0.32 0.16-0.113 0.253-0.133 0.333-0.207 0.033-0.193 0.013-0.333 0.1-0.473 0.067-0.113 0.167-0.067 0.233-0.107 0.073-0.053 0.107-0.373 0.040-0.467l-0.313-0.28c-0.093-0.273 0.113-0.453 0.173-0.433z"></path>
<path fill="#ffc639" d="M37.46 9.493c-0.173-0.687-1.733-2.18-2.913-3.127-0.28-0.187-0.467-0.073-0.427 0.2 0.147 0.24 0.253 0.507 0.4 0.753 0.040 0.167 0.12 0.28 0.16 0.44 0 0 0.013 0.28 0.040 0.307 0.36 0.4 0.413 0.74 0.413 0.74 0.192 0.407 0.45 0.752 0.764 1.038l0.003 0.002c0.413 0.26 0.107 1.067 0.12 1.5 0 0.267-0.193 0.24-0.367 0.2-1.34-1.233-2.673-1.233-3.853-1.593-0.453-0.047-0.467 0.173-0.313 0.293 0.724 0.804 1.589 1.466 2.557 1.951l0.050 0.023 0.513 0.32 0.587 0.487c0.453 0.293 0.487 0.56 0.487 0.587 0.013 0.547-0.28 0.973-0.367 1.147-0.153 0.58-0.467 0.68-0.467 0.68-2.507 1.693-3.827 2.133-7.893 1.607-0.067-0.027-0.453 0.033 0 0.2 1.033 0.347 3.58 0.9 6.040-0.267 0.6-0.413 0.987-0.28 1.42-0.533 0.516-0.327 1.134-0.669 1.772-0.977l0.115-0.050c0.553-0.3 2.087-0.627 2.44-0.92 0.407-0.033 0.827-0.087 0.853-0.433 0.133-0.087 0.333-0.020 0.48-0.307 0.32-0.060 0.267-0.173 0.267-0.173-0.080-0.227-0.387-0.32-0.6-0.487-0.32-0.107-0.533-0.133-0.767-0.027l-0.22 0.1s-0.34-0.047-0.34-0.073c-0.76-0.040-0.687-2.553-0.953-3.6z"></path>
<path fill="#1c8a42" d="M39.24 13.613c-0.022 0.061-0.116 0.088-0.213 0.060-0.1-0.029-0.166-0.104-0.148-0.169 0-0.002 0.001-0.003 0.002-0.005l-0 0c0.022-0.061 0.116-0.088 0.213-0.060 0.1 0.029 0.166 0.104 0.148 0.169-0 0.002-0.001 0.003-0.002 0.005l0-0z"></path>
<path fill="#fff" d="M8.030 13.483l-0.546-0.512-0.55 0.503 0.060-0.742-0.738-0.119 0.619-0.418-0.367-0.649 0.713 0.226 0.277-0.691 0.269 0.695 0.713-0.213-0.375 0.64 0.614 0.427-0.738 0.107 0.051 0.742z"></path>
<path fill="#fff" d="M9.958 19.648l-0.589-0.388-0.572 0.41 0.205-0.661-0.58-0.405 0.708-0.017 0.213-0.661 0.239 0.653 0.713-0.004-0.567 0.414 0.226 0.657z"></path>
<path fill="#fff" d="M8.137 24.964l-0.546-0.512-0.55 0.503 0.060-0.742-0.738-0.119 0.619-0.418-0.367-0.649 0.713 0.226 0.277-0.691 0.269 0.695 0.713-0.213-0.375 0.64 0.614 0.427-0.738 0.107 0.051 0.742z"></path>
<path fill="#fff" d="M3.247 18.739l-0.546-0.512-0.55 0.503 0.060-0.742-0.738-0.119 0.619-0.418-0.367-0.649 0.713 0.226 0.277-0.691 0.269 0.695 0.713-0.213-0.375 0.64 0.614 0.427-0.738 0.107 0.051 0.742z"></path>
<path fill="#fff" d="M12.655 17.109l-0.546-0.512-0.55 0.503 0.060-0.742-0.738-0.119 0.619-0.418-0.367-0.649 0.713 0.226 0.277-0.691 0.269 0.695 0.713-0.213-0.375 0.64 0.614 0.427-0.738 0.107 0.051 0.742z"></path>
</svg>
