<!-- Generated by IcoMoon.io -->
<svg version="1.1" xmlns="http://www.w3.org/2000/svg" width="43" height="32" viewBox="0 0 43 32">
<title>cy</title>
<path fill="#fff" d="M0 0h42.667v32h-42.667z"></path>
<path fill="#435125" d="M20.52 26.573c-0.005-0.004-0.010-0.008-0.013-0.013l-0-0h-0.007l-0.087-0.093-0.253-0.3-0.327-0.42-0.040-0.060-0.413-0.127-0.307-0.14 0.16-0.18 0.56 0.233 0.413 0.087 0.767 0.567-0.22 0.193c-0.078 0.073-0.15 0.149-0.217 0.229l-0.003 0.004 0.047-0.033 0.053 0.040-0.107 0.013zM17.68 25.72c-0.394-0.004-0.762-0.115-1.076-0.305l0.009 0.005s0.047-0.087 0.153-0.16c0.107-0.080 0.293-0.167 0.6-0.173 0.36 0 0.8 0.127 1.3 0.36-0.279 0.168-0.616 0.267-0.976 0.267-0.004 0-0.007 0-0.011-0h0.001zM16.113 25.373c-0.067 0-0.133-0.027-0.173-0.067-0.036-0.044-0.062-0.098-0.073-0.158l-0-0.002c-0.014-0.054-0.021-0.117-0.021-0.181 0-0.016 0-0.032 0.001-0.048l-0 0.002c0.023-0.009 0.050-0.014 0.078-0.014 0.003 0 0.006 0 0.009 0h-0c0.133 0 0.24 0.113 0.287 0.227 0.027 0.067 0.033 0.12 0.013 0.167-0.013 0.040-0.067 0.067-0.12 0.067zM18.867 25.053c-0.927-0.133-1.32-0.467-1.487-0.727-0.173-0.273-0.133-0.533-0.133-0.533s0.053-0.013 0.133-0.013c0.253 0 0.88 0.127 1.487 1.267zM16.967 24.867c-0.393 0-0.693-0.067-0.893-0.2-0.085-0.054-0.153-0.129-0.199-0.217l-0.001-0.003c-0.014-0.031-0.023-0.067-0.027-0.105l-0-0.001c0.138-0.059 0.298-0.093 0.467-0.093 0.005 0 0.009 0 0.014 0h-0.001c0.499 0.018 0.944 0.238 1.259 0.579l0.001 0.001c-0.227 0.027-0.433 0.040-0.62 0.040zM15.053 24.8c-0.413 0-0.987-0.133-1.347-0.487 0 0 0.393-0.1 0.827-0.113h0.080c0.393 0 0.693 0.073 0.893 0.227 0.067 0.053 0.107 0.1 0.113 0.147 0.007 0.040-0.013 0.080-0.053 0.113-0.093 0.067-0.253 0.107-0.48 0.107h-0.033zM13.7 24.1c-0.054-0.001-0.102-0.027-0.133-0.066l-0-0c-0.027-0.038-0.046-0.083-0.053-0.132l-0-0.002c-0.020-0.093-0.013-0.187-0.013-0.193 0.019-0.008 0.041-0.013 0.064-0.013 0.001 0 0.002 0 0.003 0h-0c0.060 0 0.107 0.033 0.133 0.067 0.040 0.036 0.071 0.081 0.092 0.131l0.001 0.002c0.013 0.060 0.020 0.107 0 0.147 0 0.027-0.040 0.067-0.087 0.067zM16.827 24.033c-0.067 0-0.133-0.027-0.173-0.067-0.036-0.044-0.062-0.098-0.073-0.158l-0-0.002c-0.014-0.054-0.021-0.117-0.021-0.181 0-0.016 0-0.032 0.001-0.048l-0 0.002c0.023-0.009 0.050-0.014 0.078-0.014 0.003 0 0.006 0 0.009 0h-0c0.133 0 0.247 0.113 0.287 0.227 0.027 0.067 0.033 0.12 0.020 0.167-0.020 0.040-0.067 0.067-0.133 0.067zM15.307 23.967c-0.84-0.027-1.28-0.267-1.493-0.467-0.092-0.080-0.168-0.175-0.224-0.281l-0.003-0.005c-0.033-0.067-0.047-0.12-0.047-0.133s0.080-0.027 0.2-0.027h0.027c0.28 0 0.86 0.12 1.533 0.913zM16.213 23.887c-0.499-0.056-0.936-0.282-1.259-0.619l-0.001-0.001c-0.119-0.13-0.212-0.286-0.271-0.458l-0.003-0.009s0.080-0.020 0.2-0.027c0.010-0 0.022-0.001 0.033-0.001s0.023 0 0.035 0.001l-0.002-0c0.333 0.007 0.953 0.16 1.267 1.113zM12.747 23.553c-0.008 0-0.017 0-0.025 0-0.215 0-0.425-0.024-0.627-0.070l0.019 0.004c-0.353-0.093-0.507-0.227-0.573-0.327-0.026-0.038-0.045-0.083-0.053-0.131l-0-0.002c-0.001-0.008-0.002-0.017-0.002-0.027s0.001-0.019 0.002-0.028l-0 0.001s0.233-0.067 0.56-0.073c0.018-0 0.038-0.001 0.059-0.001 0.154 0 0.304 0.015 0.449 0.043l-0.015-0.002c0.35 0.076 0.646 0.269 0.851 0.537l0.003 0.003s-0.267 0.080-0.647 0.080zM14.313 22.993c-0.002 0-0.004 0-0.006 0-0.063 0-0.12-0.026-0.161-0.067v0c-0.036-0.044-0.062-0.098-0.073-0.158l-0-0.002c-0.027-0.107-0.020-0.213-0.020-0.227 0.023-0.011 0.051-0.018 0.079-0.020l0.001-0h0.007c0.133 0 0.24 0.12 0.287 0.233 0.027 0.067 0.027 0.12 0.013 0.16-0.020 0.047-0.067 0.073-0.127 0.073zM13.14 22.827c-0.243-0.070-0.456-0.166-0.651-0.286l0.011 0.006c-0.293-0.18-0.66-0.5-0.7-1l0.067-0.007h0.020c0.087 0 0.267 0.020 0.487 0.187 0.28 0.213 0.533 0.587 0.767 1.1zM13.907 22.8c-0.194-0.089-0.361-0.199-0.509-0.329l0.002 0.002c-0.383-0.332-0.685-0.747-0.879-1.218l-0.008-0.022s0.060-0.033 0.153-0.040c0.002-0 0.004-0 0.007-0s0.005 0 0.007 0h0.026c0.133 0 0.327 0.060 0.54 0.293 0.253 0.267 0.473 0.707 0.667 1.313zM11.913 22.74c-0.26 0-0.347-0.133-0.373-0.2-0.019-0.045-0.030-0.097-0.030-0.151 0-0.017 0.001-0.034 0.003-0.051l-0 0.002c0.037-0.009 0.079-0.013 0.123-0.013 0.004 0 0.008 0 0.011 0h-0.001c0.005-0 0.011-0 0.017-0 0.168 0 0.318 0.078 0.416 0.199l0.001 0.001c0.013 0.027 0.053 0.093 0.020 0.153-0.027 0.040-0.087 0.067-0.187 0.067zM11.347 22.020c-0.011 0-0.024 0-0.037 0-0.199 0-0.394-0.017-0.583-0.050l0.020 0.003c-0.227-0.040-0.353-0.233-0.427-0.393-0.067-0.167-0.093-0.333-0.093-0.333 0.707 0.020 1.047 0.227 1.2 0.4 0.094 0.096 0.157 0.223 0.173 0.364l0 0.003s-0.107 0.013-0.253 0.013zM12.080 21.287c-0.051-0.065-0.104-0.139-0.153-0.215l-0.007-0.011c-0.087-0.133-0.16-0.267-0.16-0.373 0-0.113-0.027-0.333-0.040-0.467l-0.040-0.3c0.020 0 0.44 0.16 0.44 0.56s-0.040 0.8-0.040 0.8v0.007zM11.533 21.247h-0.013c-0.476-0.145-0.884-0.394-1.214-0.72l0 0c-0.113-0.133-0.187-0.347-0.207-0.627-0.013-0.2 0-0.367 0-0.387 0.017-0.005 0.036-0.007 0.056-0.007 0.006 0 0.012 0 0.018 0.001l-0.001-0c0.093 0 0.2 0.040 0.333 0.133 0.129 0.092 0.242 0.188 0.347 0.293l0 0c0.213 0.213 0.38 0.427 0.38 0.427 0.020 0.027 0.133 0.247 0.233 0.46 0.043 0.088 0.080 0.19 0.105 0.297l0.002 0.010c0.007 0.040 0.013 0.067 0 0.093-0.003 0.011-0.010 0.021-0.020 0.027l-0 0c-0.004 0.001-0.009 0.002-0.013 0.002s-0.009-0.001-0.014-0.002l0 0z"></path>
<path fill="#435125" d="M19.060 26.573c0.005-0.004 0.010-0.008 0.013-0.013l0-0h0.007l0.087-0.093 0.253-0.3 0.327-0.42 0.040-0.060 0.413-0.127 0.307-0.14-0.16-0.18-0.56 0.233-0.413 0.087-0.767 0.567 0.22 0.193c0.078 0.073 0.15 0.149 0.217 0.229l0.003 0.004-0.047-0.033-0.053 0.040 0.107 0.013zM21.9 25.72c0.394-0.004 0.762-0.115 1.076-0.305l-0.009 0.005s-0.047-0.087-0.153-0.16c-0.107-0.080-0.293-0.167-0.6-0.173-0.36 0-0.8 0.127-1.3 0.36 0.279 0.168 0.616 0.267 0.976 0.267 0.004 0 0.007 0 0.011-0h-0.001zM23.467 25.373c0.067 0 0.133-0.027 0.173-0.067 0.036-0.044 0.062-0.098 0.073-0.158l0-0.002c0.014-0.054 0.021-0.117 0.021-0.181 0-0.016-0-0.032-0.001-0.048l0 0.002c-0.023-0.009-0.050-0.014-0.078-0.014-0.003 0-0.006 0-0.009 0h0c-0.133 0-0.24 0.113-0.287 0.227-0.027 0.067-0.033 0.12-0.013 0.167 0.013 0.040 0.067 0.067 0.12 0.067zM20.713 25.053c0.927-0.133 1.32-0.467 1.487-0.727 0.173-0.273 0.133-0.533 0.133-0.533s-0.053-0.013-0.133-0.013c-0.253 0-0.88 0.127-1.487 1.267zM22.613 24.867c0.393 0 0.693-0.067 0.893-0.2 0.085-0.054 0.153-0.129 0.199-0.217l0.001-0.003c0.014-0.031 0.023-0.067 0.027-0.105l0-0.001c-0.138-0.059-0.298-0.093-0.467-0.093-0.005 0-0.009 0-0.014 0h0.001c-0.499 0.018-0.944 0.238-1.259 0.579l-0.001 0.001c0.227 0.027 0.433 0.040 0.62 0.040zM24.527 24.8c0.413 0 0.987-0.133 1.347-0.487 0 0-0.393-0.1-0.827-0.113h-0.080c-0.393 0-0.693 0.073-0.893 0.227-0.067 0.053-0.107 0.1-0.113 0.147-0.007 0.040 0.013 0.080 0.053 0.113 0.093 0.067 0.253 0.107 0.48 0.107h0.033zM25.88 24.1c0.054-0.001 0.102-0.027 0.133-0.066l0-0c0.027-0.038 0.046-0.083 0.053-0.132l0-0.002c0.020-0.093 0.013-0.187 0.013-0.193-0.019-0.008-0.041-0.013-0.064-0.013-0.001 0-0.002 0-0.003 0h0c-0.060 0-0.107 0.033-0.133 0.067-0.040 0.036-0.071 0.081-0.092 0.131l-0.001 0.002c-0.013 0.060-0.020 0.107 0 0.147 0 0.027 0.040 0.067 0.087 0.067zM22.753 24.033c0.067 0 0.133-0.027 0.173-0.067 0.036-0.044 0.062-0.098 0.073-0.158l0-0.002c0.014-0.054 0.021-0.117 0.021-0.181 0-0.016-0-0.032-0.001-0.048l0 0.002c-0.023-0.009-0.050-0.014-0.078-0.014-0.003 0-0.006 0-0.009 0h0c-0.133 0-0.247 0.113-0.287 0.227-0.027 0.067-0.033 0.12-0.020 0.167 0.020 0.040 0.067 0.067 0.133 0.067zM24.273 23.967c0.84-0.027 1.28-0.267 1.493-0.467 0.092-0.080 0.168-0.175 0.224-0.281l0.003-0.005c0.033-0.067 0.047-0.12 0.047-0.133s-0.080-0.027-0.2-0.027h-0.027c-0.28 0-0.86 0.12-1.533 0.913zM23.367 23.887c0.499-0.056 0.936-0.282 1.259-0.619l0.001-0.001c0.119-0.13 0.212-0.286 0.271-0.458l0.003-0.009s-0.080-0.020-0.2-0.027c-0.010-0-0.022-0.001-0.033-0.001s-0.023 0-0.035 0.001l0.002-0c-0.333 0.007-0.953 0.16-1.267 1.113zM26.833 23.553c0.008 0 0.017 0 0.025 0 0.215 0 0.425-0.024 0.627-0.070l-0.019 0.004c0.353-0.093 0.507-0.227 0.573-0.327 0.026-0.038 0.045-0.083 0.053-0.131l0-0.002c0.001-0.008 0.002-0.017 0.002-0.027s-0.001-0.019-0.002-0.028l0 0.001s-0.233-0.067-0.56-0.073c-0.018-0-0.038-0.001-0.059-0.001-0.154 0-0.304 0.015-0.449 0.043l0.015-0.002c-0.35 0.076-0.646 0.269-0.851 0.537l-0.003 0.003s0.267 0.080 0.647 0.080zM25.267 22.993c0.002 0 0.004 0 0.006 0 0.063 0 0.12-0.026 0.161-0.067v0c0.036-0.044 0.062-0.098 0.073-0.158l0-0.002c0.027-0.107 0.020-0.213 0.020-0.227-0.023-0.011-0.051-0.018-0.079-0.020l-0.001-0h-0.007c-0.133 0-0.24 0.12-0.287 0.233-0.027 0.067-0.027 0.12-0.013 0.16 0.020 0.047 0.067 0.073 0.127 0.073zM26.44 22.827c0.243-0.070 0.456-0.166 0.651-0.286l-0.011 0.006c0.293-0.18 0.66-0.5 0.7-1l-0.067-0.007h-0.020c-0.087 0-0.267 0.020-0.487 0.187-0.28 0.213-0.533 0.587-0.767 1.1zM25.673 22.8c0.194-0.089 0.361-0.199 0.509-0.329l-0.002 0.002c0.383-0.332 0.685-0.747 0.879-1.218l0.008-0.022s-0.060-0.033-0.153-0.040c-0.002-0-0.004-0-0.007-0s-0.005 0-0.007 0h-0.026c-0.133 0-0.327 0.060-0.54 0.293-0.253 0.267-0.473 0.707-0.667 1.313zM27.667 22.74c0.26 0 0.347-0.133 0.373-0.2 0.019-0.045 0.030-0.097 0.030-0.151 0-0.017-0.001-0.034-0.003-0.051l0 0.002c-0.037-0.009-0.079-0.013-0.123-0.013-0.004 0-0.008 0-0.011 0h0.001c-0.005-0-0.011-0-0.017-0-0.168 0-0.318 0.078-0.416 0.199l-0.001 0.001c-0.013 0.027-0.053 0.093-0.020 0.153 0.027 0.040 0.087 0.067 0.187 0.067zM28.233 22.020c0.011 0 0.024 0 0.037 0 0.199 0 0.394-0.017 0.583-0.050l-0.020 0.003c0.227-0.040 0.353-0.233 0.427-0.393 0.067-0.167 0.093-0.333 0.093-0.333-0.707 0.020-1.047 0.227-1.2 0.4-0.094 0.096-0.157 0.223-0.173 0.364l-0 0.003s0.107 0.013 0.253 0.013zM27.5 21.287c0.051-0.065 0.104-0.139 0.153-0.215l0.007-0.011c0.087-0.133 0.16-0.267 0.16-0.373 0-0.113 0.027-0.333 0.040-0.467l0.040-0.3c-0.020 0-0.44 0.16-0.44 0.56s0.040 0.8 0.040 0.8v0.007zM28.047 21.247h0.013c0.476-0.145 0.884-0.394 1.214-0.72l-0 0c0.113-0.133 0.187-0.347 0.207-0.627 0.013-0.2 0-0.367 0-0.387-0.017-0.005-0.036-0.007-0.056-0.007-0.006 0-0.012 0-0.018 0.001l0.001-0c-0.093 0-0.2 0.040-0.333 0.133-0.129 0.092-0.242 0.188-0.347 0.293l-0 0c-0.213 0.213-0.38 0.427-0.38 0.427-0.020 0.027-0.133 0.247-0.233 0.46-0.043 0.088-0.080 0.19-0.105 0.297l-0.002 0.010c-0.007 0.040-0.013 0.067 0 0.093 0.003 0.011 0.010 0.021 0.020 0.027l0 0c0.004 0.001 0.009 0.002 0.013 0.002s0.009-0.001 0.014-0.002l-0 0z"></path>
<path fill="#d47600" d="M34.6 5.093l-0.12 0.047-0.053 0.020-0.147-0.007-0.147 0.067-0.253 0.173-0.007 0.007-0.1 0.027-0.087-0.040-0.047 0.027-0.020 0.1-0.047 0.073-0.060 0.040-0.2 0.020-0.167 0.093-0.227-0.067-0.1 0.047-0.22 0.2-0.113 0.047h-0.033l-0.153-0.007-0.060 0.020-0.093 0.087-0.173 0.013-0.060 0.040-0.087 0.173-0.093 0.107-0.053 0.007-0.053-0.020-0.047 0.007-0.020 0.113-0.040 0.047-0.12 0.040-0.093 0.080-0.087 0.040h-0.133l-0.113 0.067-0.207 0.013-0.087 0.080-0.020 0.020-0.040 0.020-0.067 0.040-0.013 0.013-0.080-0.013-0.093 0.033-0.040-0.053-0.067 0.033-0.080 0.007-0.107-0.047-0.087-0.040-0.060 0.013-0.020 0.1v0.013l-0.067 0.080-0.113 0.073-0.013 0.020-0.133 0.173-0.253 0.267-0.213 0.107-0.22 0.067-0.153 0.127-0.4 0.2-0.647 0.32-0.133 0.040-0.187 0.027-0.333 0.127-0.293 0.087-0.020 0.007-0.053 0.020-0.42 0.127-0.193-0.027-0.113 0.047-0.3-0.033h-0.207l-0.133 0.027-0.247 0.12-0.42 0.2-0.133 0.133-0.213 0.107-0.253 0.080v-0.107l-0.087 0.027-0.067 0.020-0.2 0.027h-0.113l-0.073-0.020h-0.013l-0.413 0.14-0.467 0.047-0.233 0.073h-0.173l-0.107 0.033-0.213 0.027-0.080-0.020-0.013-0.007-0.627 0.027-0.287-0.033-0.133 0.033-0.233-0.080-0.333-0.040-0.080-0.020-0.173-0.053-0.080 0.047-0.067 0.007-0.133-0.053h-0.053l-0.12 0.040-0.067-0.013-0.067-0.053-0.14-0.020-0.093-0.073-0.5 0.067-0.133-0.040-0.46-0.133h-0.067l-0.093 0.067-0.133 0.053-0.127 0.027-0.16 0.007-0.187-0.047-0.187-0.093-0.073-0.020-0.16 0.020h-0.047l-0.293-0.153-0.373-0.233-0.253-0.127-0.1-0.013-0.013 0.047 0.047 0.147 0.020 0.153v0.133l-0.007 0.087 0.020 0.073 0.093 0.107 0.040 0.1 0.027 0.28v0.287l-0.047 0.453-0.013 0.067-0.053 0.24-0.047 0.22-0.193 0.58-0.047 0.067-0.133 0.087-0.287 0.2-0.213 0.12-0.067 0.027-0.173 0.013h-0.107l-0.133-0.073-0.133-0.033-0.173-0.127-0.187-0.040-0.213-0.12-0.053-0.067-0.113-0.013-0.16-0.047-0.060-0.020-0.040-0.007-0.2-0.007-0.193-0.087-0.1-0.027h-0.133l-0.14 0.067-0.073 0.027-0.093-0.033h-0.067l-0.067 0.113-0.013 0.020-0.053 0.027h-0.113l-0.053 0.020-0.073 0.033-0.1 0.040h-0.020l-0.033 0.013h-0.040l-0.12-0.060-0.067-0.013-0.033 0.020-0.007 0.127-0.033 0.073-0.213 0.187-0.067 0.107-0.2 0.447-0.127 0.18-0.033 0.047-0.133 0.14-0.113 0.087-0.26 0.2-0.247 0.1-0.213 0.040h-0.107l-0.2-0.027-0.173-0.053-0.2-0.12-0.207-0.173-0.313-0.3-0.040-0.027-0.013-0.007-0.093-0.067h-0.073l-0.027 0.053-0.020 0.067-0.013 0.060-0.033 0.333v0.020l0.020 0.14 0.24 0.333 0.067 0.173 0.013 0.020 0.047 0.080 0.040 0.067 0.087 0.24-0.060 0.133 0.027 0.093-0.067 0.053-0.013 0.080 0.207 0.267 0.047 0.113-0.047 0.16-0.087 0.093-0.020 0.020 0.013 0.067 0.093 0.093 0.167 0.147 0.087 0.213 0.067 0.067 0.080-0.020 0.040 0.033h0.067l0.067 0.067 0.040 0.013 0.067 0.033 0.053 0.067 0.007 0.213 0.1 0.253v0.167l0.067 0.1 0.013 0.080-0.033 0.22 0.080 0.067 0.080-0.013 0.053 0.007 0.087 0.073 0.107 0.16 0.107-0.013 0.067 0.027 0.313 0.287 0.067 0.040 0.060 0.027 0.067 0.067 0.093-0.067h0.013l0.107-0.013 0.047 0.033 0.093 0.060h0.113l0.267 0.080 0.107 0.027 0.227 0.14 0.1 0.060 0.053 0.047 0.080 0.067 0.147 0.067 0.2 0.040 0.060 0.020 0.28 0.113 0.153 0.033 0.133 0.053 0.107 0.033h0.080l0.107-0.087h0.1l0.087 0.013 0.087-0.013 0.133-0.080 0.020-0.040 0.093-0.040 0.32-0.040 0.093 0.027 0.24-0.1 0.16 0.040 0.133-0.047 0.313 0.067 0.080 0.060 0.093 0.1h0.113l-0.047 0.073 0.133 0.147 0.127 0.18 0.007 0.027 0.087 0.26 0.067 0.093 0.047 0.127v0.080l-0.067 0.060-0.013 0.027v0.013l0.013 0.033 0.027-0.013 0.047-0.027 0.067-0.013 0.107 0.013 0.073 0.007 0.113-0.053 0.080-0.040 0.12 0.053h0.133l0.060 0.020 0.16 0.073 0.080 0.007 0.027-0.020 0.020-0.040-0.007-0.053-0.067-0.073-0.133-0.16-0.053-0.080-0.040-0.113-0.013-0.147-0.013-0.1 0.020-0.133 0.033-0.047 0.033-0.133 0.080-0.1 0.2-0.133 0.213-0.187 0.167-0.113 0.173-0.073v-0.020l0.027 0.007 0.44-0.153 0.2-0.033 1.333 0.093 0.047-0.013 0.047-0.127 0.020-0.020 0.020-0.013 0.147-0.067 0.067-0.013 0.267 0.067 0.127-0.067h0.087l0.18-0.1h0.113l0.047-0.013 0.22-0.16 0.207-0.060 0.053-0.027 0.020-0.013 0.22-0.113 0.133-0.107 0.12-0.067 0.133-0.027 0.333-0.027 0.073-0.113 0.147-0.020 0.087-0.1 0.1-0.040 0.073-0.107 0.067-0.087 0.080-0.047 0.273-0.020 0.32 0.040 0.047-0.027 0.067-0.26 0.080-0.047 0.2-0.3v-0.107l0.007-0.093 0.033-0.133-0.020-0.227 0.027-0.24 0.127-0.3 0.113-0.12 0.18-0.127 0.093-0.040 0.133-0.020h0.013l0.033-0.013h0.613l0.153-0.007 0.38 0.067h0.027l0.127 0.047 0.147 0.113 0.16 0.153 0.027 0.027 0.1 0.047 0.033 0.013 0.080-0.013 0.12-0.067 0.093-0.067 0.12-0.067v-0.013l0.073-0.1 0.027-0.047 0.24-0.093 0.28-0.013 0.033-0.020h0.013l0.073-0.093h0.067l0.173 0.067 0.113-0.027 0.093 0.033 0.073-0.007 0.133-0.020 0.153 0.107 0.087 0.013 0.3 0.173h0.027l0.013 0.007 0.033-0.013 0.053-0.013h0.007l0.007 0.007 0.040 0.047 0.047 0.007 0.053-0.067-0.027-0.053-0.113-0.020-0.093-0.167 0.093-0.1-0.147-0.173-0.027-0.033v-0.007l-0.053-0.080-0.253-0.387-0.333-0.267-0.113-0.087-0.040-0.033-0.18-0.18-0.127-0.167-0.013-0.033-0.027-0.060-0.073-0.16-0.133-0.1-0.107-0.12-0.227-0.307-0.033-0.047-0.053-0.033h-0.113l-0.007-0.013h-0.007v-0.007l0.053-0.053 0.067-0.013 0.020-0.060-0.113-0.327v-0.013l-0.007-0.1 0.087-0.473 0.013-0.060 0.16-0.313 0.093-0.080 0.107-0.207 0.093-0.133 0.087-0.087 0.013-0.007 0.153-0.093 0.133-0.020 0.127-0.020 0.22 0.067h0.2l0.14-0.020 0.153-0.047 0.073-0.047 0.040-0.053 0.080-0.267 0.027-0.087 0.047-0.093 0.287-0.327 0.213-0.2 0.48-0.347 0.233-0.14 0.12-0.073 1.073-0.48 0.427-0.427 0.253-0.173 0.3-0.127 0.267-0.2 0.053-0.073 0.067-0.233 0.067-0.013 0.047-0.113 0.020-0.033 0.207-0.147 0.027-0.013 0.82-0.413 0.12 0.020 0.067-0.1 0.233-0.040h0.047l0.060-0.033 0.047-0.087v-0.020l0.007-0.227 0.053-0.060 0.027-0.147 0.027-0.040 0.027-0.033 0.067-0.047-0.013-0.027z"></path>
</svg>
