<!-- Generated by IcoMoon.io -->
<svg version="1.1" xmlns="http://www.w3.org/2000/svg" width="43" height="32" viewBox="0 0 43 32">
<title>dm</title>
<path fill="#108c00" d="M-10.873 0h64.39v32.085h-64.39z"></path>
<path fill="#ffd600" d="M-10.98 11.167h64.71v3.14h-64.71z"></path>
<path fill="#ffd600" d="M16.656 0h3.039v32.085h-3.033z"></path>
<path fill="#000" d="M19.589 0h3.033v32.085h-3.033z"></path>
<path fill="#000" d="M-10.98 14.2h64.71v3.146h-64.71z"></path>
<path fill="#fff" d="M-10.98 17.346h64.71v3.14h-64.71z"></path>
<path fill="#fff" d="M22.622 0h3.039v32.085h-3.039z"></path>
<path fill="#e72910" d="M21.425 24.684h0.075c-4.759 0-8.617-3.858-8.617-8.617s3.858-8.617 8.617-8.617h-0.075c4.759 0 8.617 3.858 8.617 8.617s-3.858 8.617-8.617 8.617z"></path>
<path fill="#000" d="M21.011 8.585l0.351-1.003 0.32 0.984s1.072 0.031 1.072 0.013-0.846 0.645-0.846 0.645l0.382 1.103c-0.013-0.031-0.927-0.683-0.927-0.683s-0.927 0.652-0.909 0.652 0.351-1.065 0.351-1.065l-0.833-0.633 1.040-0.019z"></path>
<path fill="#ffe700" d="M21.061 8.629l0.295-0.859 0.276 0.852s0.934 0.025 0.934 0.013-0.733 0.564-0.733 0.564l0.326 0.953c-0.013-0.031-0.802-0.589-0.802-0.589s-0.802 0.564-0.79 0.564 0.313-0.927 0.313-0.927l-0.727-0.551 0.902-0.013z"></path>
<path fill="#108c00" d="M21.187 8.773l0.175-0.501 0.163 0.495s0.533 0.013 0.533 0-0.42 0.326-0.42 0.326l0.188 0.551c-0.006-0.019-0.464-0.338-0.464-0.338l-0.451 0.326c0.013 0 0.175-0.533 0.175-0.533l-0.414-0.313 0.514-0.013z"></path>
<path fill="#000" d="M27.679 13.273l0.351-1.003 0.313 0.984s1.078 0.038 1.078 0.019-0.846 0.645-0.846 0.645l0.376 1.103c-0.013-0.031-0.921-0.683-0.921-0.683s-0.927 0.652-0.909 0.652 0.351-1.065 0.351-1.065l-0.833-0.639 1.040-0.019z"></path>
<path fill="#ffe700" d="M27.723 13.323l0.307-0.871 0.276 0.859s0.927 0.025 0.927 0.013-0.733 0.564-0.733 0.564l0.332 0.946c-0.013-0.025-0.802-0.589-0.802-0.589s-0.802 0.564-0.79 0.564 0.307-0.927 0.307-0.927l-0.721-0.545 0.896-0.013z"></path>
<path fill="#108c00" d="M27.855 13.467l0.175-0.501 0.157 0.489 0.539 0.013-0.426 0.32s0.201 0.564 0.188 0.551c0-0.019-0.457-0.338-0.457-0.338l-0.457 0.32 0.175-0.533-0.414-0.313 0.52-0.006z"></path>
<path fill="#000" d="M25.736 20.718l0.351-1.003 0.313 0.99s1.078 0.031 1.078 0.019-0.846 0.645-0.846 0.645l0.376 1.097c-0.013-0.031-0.921-0.677-0.921-0.677s-0.927 0.645-0.915 0.645 0.357-1.065 0.357-1.065l-0.833-0.627 1.040-0.019z"></path>
<path fill="#ffe700" d="M25.78 20.768l0.307-0.865 0.276 0.852s0.927 0.031 0.927 0.013-0.733 0.564-0.733 0.564l0.332 0.953c-0.013-0.031-0.802-0.589-0.802-0.589s-0.802 0.564-0.79 0.564 0.307-0.927 0.307-0.927l-0.721-0.545 0.896-0.019z"></path>
<path fill="#108c00" d="M25.912 20.912l0.175-0.501 0.157 0.495s0.539 0.019 0.539 0.006-0.426 0.326-0.426 0.326l0.188 0.545c0-0.013-0.457-0.338-0.457-0.338l-0.457 0.326 0.175-0.533-0.414-0.313 0.52-0.013z"></path>
<path fill="#000" d="M16.418 20.718l0.351-1.003 0.313 0.99s1.072 0.031 1.072 0.019-0.846 0.645-0.846 0.645l0.389 1.097c-0.019-0.031-0.927-0.677-0.927-0.677s-0.927 0.645-0.915 0.645 0.357-1.065 0.357-1.065l-0.833-0.627 1.040-0.019z"></path>
<path fill="#ffe700" d="M16.468 20.768l0.301-0.865 0.276 0.852s0.927 0.031 0.927 0.013-0.733 0.564-0.733 0.564l0.332 0.953c-0.013-0.031-0.802-0.589-0.802-0.589s-0.802 0.564-0.79 0.564 0.307-0.927 0.307-0.927l-0.721-0.545 0.896-0.019z"></path>
<path fill="#108c00" d="M16.593 20.912l0.175-0.501 0.157 0.495s0.539 0.019 0.539 0.006-0.426 0.326-0.426 0.326l0.188 0.545c0-0.013-0.457-0.338-0.457-0.338l-0.457 0.326 0.175-0.533-0.414-0.313 0.52-0.013z"></path>
<path fill="#000" d="M14.713 13.079l0.351-1.003 0.32 0.99s1.072 0.031 1.072 0.013-0.846 0.652-0.846 0.652l0.382 1.097c-0.019-0.031-0.927-0.677-0.927-0.677s-0.927 0.639-0.909 0.639 0.351-1.065 0.351-1.065l-0.833-0.627 1.040-0.019z"></path>
<path fill="#ffe700" d="M14.763 13.129l0.301-0.865 0.282 0.852s0.921 0.031 0.921 0.013-0.733 0.564-0.733 0.564l0.332 0.953c-0.013-0.031-0.802-0.589-0.802-0.589s-0.802 0.564-0.783 0.564 0.301-0.927 0.301-0.927l-0.721-0.545 0.902-0.019z"></path>
<path fill="#108c00" d="M14.889 13.273l0.175-0.501 0.163 0.495 0.533 0.006-0.42 0.326 0.188 0.545c-0.006-0.013-0.464-0.338-0.464-0.338l-0.451 0.326c0.013 0 0.175-0.533 0.175-0.533l-0.414-0.313 0.514-0.013z"></path>
<path fill="#000" d="M25.655 10.91l-0.351 1.003-0.313-0.984s-1.078-0.031-1.078-0.019 0.846-0.645 0.846-0.645l-0.376-1.097c0.013 0.031 0.921 0.677 0.921 0.677s0.927-0.645 0.909-0.645-0.351 1.065-0.351 1.065l0.833 0.627-1.040 0.019z"></path>
<path fill="#ffe700" d="M25.611 10.86c0 0.019-0.313 0.871-0.313 0.871l-0.269-0.852s-0.927-0.031-0.927-0.019 0.733-0.558 0.733-0.558l-0.332-0.953c0.013 0.031 0.802 0.589 0.802 0.589s0.802-0.564 0.79-0.564-0.307 0.927-0.307 0.927l0.721 0.545-0.902 0.013z"></path>
<path fill="#108c00" d="M25.479 10.716l-0.175 0.501-0.157-0.489s-0.539-0.019-0.539-0.006 0.426-0.326 0.426-0.326l-0.188-0.545c0 0.013 0.457 0.338 0.457 0.338l0.457-0.326c-0.013 0-0.182 0.533-0.182 0.533l0.42 0.313-0.52 0.013z"></path>
<path fill="#000" d="M28.331 18.192l-0.351 1.003-0.313-0.99s-1.078-0.031-1.078-0.013 0.846-0.645 0.846-0.645l-0.376-1.103c0.013 0.031 0.921 0.677 0.921 0.677s0.927-0.645 0.909-0.645-0.351 1.065-0.351 1.065l0.84 0.633-1.040 0.019z"></path>
<path fill="#ffe700" d="M28.287 18.142l-0.307 0.865-0.276-0.852s-0.927-0.025-0.927-0.013 0.733-0.564 0.733-0.564l-0.332-0.953c0.013 0.031 0.802 0.589 0.802 0.589s0.802-0.564 0.79-0.564-0.307 0.927-0.307 0.927l0.721 0.551-0.902 0.013z"></path>
<path fill="#108c00" d="M28.155 17.998l-0.175 0.501-0.157-0.495s-0.539-0.013-0.539 0 0.426-0.326 0.426-0.326l-0.188-0.551c0 0.019 0.457 0.338 0.457 0.338l0.457-0.326c-0.013 0-0.182 0.539-0.182 0.539l0.42 0.313-0.52 0.006z"></path>
<path fill="#000" d="M21.694 23.519l-0.351 1.003-0.313-0.99s-1.078-0.031-1.078-0.019 0.846-0.645 0.846-0.645l-0.376-1.097c0.013 0.031 0.921 0.677 0.921 0.677s0.927-0.645 0.909-0.645-0.351 1.065-0.351 1.065l0.833 0.633-1.040 0.019z"></path>
<path fill="#ffe700" d="M21.651 23.462l-0.307 0.877-0.276-0.859s-0.927-0.031-0.927-0.013 0.733-0.564 0.733-0.564l-0.332-0.953c0.013 0.031 0.802 0.589 0.802 0.589s0.802-0.564 0.79-0.564-0.307 0.927-0.307 0.927l0.721 0.545-0.896 0.019z"></path>
<path fill="#108c00" d="M21.519 23.325l-0.175 0.501-0.157-0.495s-0.539-0.019-0.539-0.006 0.426-0.326 0.426-0.326l-0.188-0.545c0 0.013 0.457 0.338 0.457 0.338l0.457-0.326-0.175 0.533 0.414 0.313-0.52 0.013z"></path>
<path fill="#000" d="M15.465 18.192l-0.357 1.003-0.313-0.99s-1.078-0.031-1.078-0.013 0.846-0.645 0.846-0.645l-0.376-1.103c0.013 0.031 0.921 0.677 0.921 0.677l0.921-0.639-0.357 1.065 0.833 0.633-1.040 0.019z"></path>
<path fill="#ffe700" d="M15.415 18.142l-0.307 0.865-0.276-0.852s-0.927-0.025-0.927-0.013 0.733-0.564 0.733-0.564l-0.332-0.953c0.013 0.031 0.802 0.589 0.802 0.589s0.802-0.564 0.79-0.564-0.307 0.927-0.307 0.927l0.721 0.551-0.896 0.013z"></path>
<path fill="#108c00" d="M15.284 17.998l-0.175 0.501-0.157-0.495s-0.539-0.013-0.539 0 0.426-0.326 0.426-0.326l-0.188-0.551c0 0.019 0.457 0.338 0.457 0.338l0.457-0.326-0.175 0.539 0.414 0.313-0.52 0.006z"></path>
<path fill="#000" d="M17.765 11.017l-0.351 1.003-0.326-0.984s-1.065-0.031-1.065-0.019 0.846-0.645 0.846-0.645l-0.382-1.097c0.013 0.031 0.921 0.677 0.921 0.677s0.927-0.645 0.915-0.645-0.351 1.065-0.351 1.065l0.827 0.627-1.034 0.025z"></path>
<path fill="#ffe700" d="M17.715 10.967l-0.307 0.877-0.276-0.859s-0.927-0.031-0.927-0.013 0.733-0.564 0.733-0.564l-0.332-0.953c0.013 0.031 0.802 0.589 0.802 0.589s0.802-0.564 0.79-0.564-0.301 0.927-0.301 0.927l0.714 0.545-0.896 0.019z"></path>
<path fill="#108c00" d="M17.583 10.829l-0.175 0.501-0.157-0.495s-0.533-0.019-0.533-0.006 0.42-0.326 0.42-0.326l-0.188-0.545c0 0.013 0.457 0.338 0.457 0.338l0.457-0.326-0.175 0.533 0.414 0.313-0.52 0.013z"></path>
<path fill="#009200" d="M22.429 17.839c0 1.23-0.201 2.252-0.45 2.283s-0.45-0.941-0.45-2.17c0-1.23 0.201-2.252 0.45-2.283s0.45 0.941 0.45 2.17z"></path>
<path fill="#009200" d="M23.036 17.802c0 1.23-0.216 2.254-0.482 2.287s-0.482-0.937-0.482-2.166c0-1.23 0.216-2.254 0.482-2.287s0.482 0.937 0.482 2.166z"></path>
<path fill="#009200" d="M22.711 17.91c0 1.353-0.173 2.471-0.385 2.497s-0.385-1.048-0.385-2.401c0-1.353 0.173-2.471 0.385-2.497s0.385 1.048 0.385 2.401z"></path>
<path fill="#a95600" stroke="#000" stroke-linejoin="miter" stroke-linecap="butt" stroke-miterlimit="4" stroke-width="0.0667" d="M19.68 18.43c0.391-0.020 0.222-0.215 0.417-0.326 0.196-0.104 0.476-0.039 0.561 0.091s0.020 0.261 0.13 0.261 3.063-0.163 3.167-0.059c0.104 0.111 0.13 0.326 0.020 0.411-0.104 0.091-3.839 0.196-3.969 0.104s-0.326-0.456-0.326-0.482z"></path>
<path fill="#ff0" stroke="#000" stroke-linejoin="miter" stroke-linecap="butt" stroke-miterlimit="4" stroke-width="0.26" d="M21.723 19.202c0 0.261 0.446 0.181 0.458 0.399-0.007 0.231-0.75 0.023-0.768-0.399 0.019-0.422 0.733-0.639 0.75-0.398 0.012 0.199-0.44 0.137-0.44 0.398z"></path>
<path fill="#ff0" stroke="#000" stroke-linejoin="miter" stroke-linecap="butt" stroke-miterlimit="4" stroke-width="0.26" d="M21.983 19.208c0 0.261 0.446 0.181 0.458 0.399-0.007 0.231-0.75 0.023-0.768-0.399 0.019-0.422 0.733-0.639 0.75-0.398 0.012 0.199-0.44 0.137-0.44 0.398z"></path>
<path fill="#ff0" stroke="#000" stroke-linejoin="miter" stroke-linecap="butt" stroke-miterlimit="4" stroke-width="0.26" d="M22.264 19.195c0 0.261 0.446 0.181 0.458 0.399-0.007 0.231-0.75 0.023-0.768-0.399 0.019-0.422 0.733-0.639 0.75-0.398 0.012 0.199-0.44 0.137-0.44 0.398z"></path>
<path fill="#ff0" stroke="#000" stroke-linejoin="miter" stroke-linecap="butt" stroke-miterlimit="4" stroke-width="0.26" d="M22.524 19.195c0 0.261 0.446 0.181 0.458 0.399-0.007 0.231-0.75 0.023-0.768-0.399 0.019-0.422 0.733-0.639 0.75-0.398 0.012 0.199-0.44 0.137-0.44 0.398z"></path>
<path fill="#a95600" stroke="#000" stroke-linejoin="miter" stroke-linecap="butt" stroke-miterlimit="4" stroke-width="0.0667" d="M24.034 19.738c-0.002 0.141-0.117 0.253-0.255 0.25s-0.249-0.119-0.247-0.259c0.002-0.141 0.117-0.253 0.255-0.25s0.249 0.119 0.247 0.259z"></path>
<path fill="#009200" stroke="#000" stroke-linejoin="miter" stroke-linecap="butt" stroke-miterlimit="4" stroke-width="0.1667" d="M22.397 19.242c0.028 0.276-0.052 0.51-0.178 0.523s-0.252-0.201-0.28-0.477c-0.028-0.276 0.052-0.51 0.178-0.523s0.252 0.201 0.28 0.477z"></path>
<path fill="#009200" stroke="#000" stroke-linejoin="miter" stroke-linecap="butt" stroke-miterlimit="4" stroke-width="0.1667" d="M22.014 19.209c0.028 0.276-0.052 0.51-0.178 0.523s-0.252-0.201-0.28-0.477c-0.028-0.276 0.052-0.51 0.178-0.523s0.252 0.201 0.28 0.477z"></path>
<path fill="#009200" stroke="#000" stroke-linejoin="miter" stroke-linecap="butt" stroke-miterlimit="4" stroke-width="0.1667" d="M21.741 18.719c0.028 0.276-0.052 0.51-0.178 0.523s-0.252-0.201-0.28-0.477c-0.028-0.276 0.052-0.51 0.178-0.523s0.252 0.201 0.28 0.477z"></path>
<path fill="#009200" stroke="#000" stroke-linejoin="miter" stroke-linecap="butt" stroke-miterlimit="4" stroke-width="0.1667" d="M22.004 18.584c0.031 0.302-0.041 0.557-0.16 0.569s-0.241-0.223-0.271-0.525c-0.031-0.302 0.041-0.557 0.16-0.569s0.241 0.223 0.271 0.525z"></path>
<path fill="#009200" stroke="#000" stroke-linejoin="miter" stroke-linecap="butt" stroke-miterlimit="4" stroke-width="0.1667" d="M22.544 18.68c0.029 0.285-0.044 0.525-0.163 0.538s-0.239-0.209-0.268-0.494c-0.029-0.285 0.044-0.525 0.163-0.538s0.239 0.209 0.268 0.494z"></path>
<path fill="#009200" stroke="#000" stroke-linejoin="miter" stroke-linecap="butt" stroke-miterlimit="4" stroke-width="0.1667" d="M22.251 18.5c0.029 0.285-0.044 0.525-0.163 0.538s-0.239-0.209-0.268-0.494c-0.029-0.285 0.044-0.525 0.163-0.538s0.239 0.209 0.268 0.494z"></path>
<path fill="#009200" stroke="#000" stroke-linejoin="miter" stroke-linecap="butt" stroke-miterlimit="4" stroke-width="0.1667" d="M21.884 18.243c0.029 0.285-0.044 0.525-0.163 0.538s-0.239-0.209-0.268-0.494c-0.029-0.285 0.044-0.525 0.163-0.538s0.239 0.209 0.268 0.494z"></path>
<path fill="#009200" stroke="#000" stroke-linejoin="miter" stroke-linecap="butt" stroke-miterlimit="4" stroke-width="0.1667" d="M21.542 18.094c0.029 0.285-0.044 0.525-0.163 0.538s-0.239-0.209-0.268-0.494c-0.029-0.285 0.044-0.525 0.163-0.538s0.239 0.209 0.268 0.494z"></path>
<path fill="#804bff" d="M21.062 13.333s-0.763 0.652-0.658 2.405c0.117 1.76 1.727 2.574 1.727 2.574s0.404-0.502 0.339-1.923c-0.13-2.072-0.899-2.978-0.899-2.978l-0.508-0.085z"></path>
<path fill="#009200" stroke="#000" stroke-linejoin="miter" stroke-linecap="butt" stroke-miterlimit="4" stroke-width="0.1667" d="M22.924 19.354c-0.022 0.277-0.142 0.493-0.269 0.483s-0.212-0.242-0.19-0.519c0.022-0.277 0.142-0.493 0.269-0.483s0.212 0.242 0.19 0.519z"></path>
<path fill="#009200" stroke="#000" stroke-linejoin="miter" stroke-linecap="butt" stroke-miterlimit="4" stroke-width="0.1667" d="M22.553 19.253c-0.022 0.277-0.142 0.493-0.269 0.483s-0.212-0.242-0.19-0.519c0.022-0.277 0.142-0.493 0.269-0.483s0.212 0.242 0.19 0.519z"></path>
<path fill="#009200" stroke="#000" stroke-linejoin="miter" stroke-linecap="butt" stroke-miterlimit="4" stroke-width="0.1667" d="M22.373 18.722c-0.022 0.277-0.142 0.493-0.269 0.483s-0.212-0.242-0.19-0.519c0.022-0.277 0.142-0.493 0.269-0.483s0.212 0.242 0.19 0.519z"></path>
<path fill="#009200" stroke="#000" stroke-linejoin="miter" stroke-linecap="butt" stroke-miterlimit="4" stroke-width="0.1667" d="M22.655 18.636c-0.024 0.303-0.14 0.54-0.259 0.531s-0.197-0.262-0.173-0.565c0.024-0.303 0.14-0.54 0.259-0.531s0.197 0.262 0.173 0.565z"></path>
<path fill="#009200" stroke="#000" stroke-linejoin="miter" stroke-linecap="butt" stroke-miterlimit="4" stroke-width="0.1667" d="M23.17 18.827c-0.022 0.285-0.137 0.509-0.257 0.5s-0.198-0.248-0.176-0.534c0.022-0.285 0.137-0.509 0.257-0.5s0.198 0.248 0.176 0.534z"></path>
<path fill="#009200" stroke="#000" stroke-linejoin="miter" stroke-linecap="butt" stroke-miterlimit="4" stroke-width="0.1667" d="M22.913 18.598c-0.022 0.285-0.137 0.509-0.257 0.5s-0.198-0.248-0.176-0.534c0.022-0.285 0.137-0.509 0.257-0.5s0.198 0.248 0.176 0.534z"></path>
<path fill="#009200" stroke="#000" stroke-linejoin="miter" stroke-linecap="butt" stroke-miterlimit="4" stroke-width="0.1667" d="M22.599 18.279c-0.022 0.285-0.137 0.509-0.257 0.5s-0.198-0.248-0.176-0.534c0.022-0.285 0.137-0.509 0.257-0.5s0.198 0.248 0.176 0.534z"></path>
<path fill="#009200" stroke="#000" stroke-linejoin="miter" stroke-linecap="butt" stroke-miterlimit="4" stroke-width="0.1667" d="M22.288 18.071c-0.022 0.285-0.137 0.509-0.257 0.5s-0.198-0.248-0.176-0.534c0.022-0.285 0.137-0.509 0.257-0.5s0.198 0.248 0.176 0.534z"></path>
<path fill="#c90000" stroke="#000" stroke-linejoin="miter" stroke-linecap="butt" stroke-miterlimit="4" stroke-width="0.0889" d="M23.186 16.328c0.403 1.007 0.457 1.925 0.121 2.051s-0.934-0.588-1.337-1.595c-0.403-1.007-0.457-1.925-0.121-2.051s0.934 0.588 1.337 1.595z"></path>
<path fill="#009200" stroke="#000" stroke-linejoin="miter" stroke-linecap="butt" stroke-miterlimit="4" stroke-width="0.1" d="M22.489 14.792c-0.002 0.139-0.13 0.25-0.286 0.247s-0.28-0.118-0.277-0.257c0.002-0.139 0.13-0.25 0.286-0.247s0.28 0.118 0.277 0.257z"></path>
<path fill="#009200" stroke="#000" stroke-linejoin="miter" stroke-linecap="butt" stroke-miterlimit="4" stroke-width="0.1067" d="M22.545 14.435c-0.002 0.139-0.115 0.25-0.251 0.248s-0.244-0.117-0.242-0.256c0.002-0.139 0.115-0.25 0.251-0.248s0.244 0.117 0.242 0.256z"></path>
<path fill="#009200" stroke="#000" stroke-linejoin="miter" stroke-linecap="butt" stroke-miterlimit="4" stroke-width="0.1067" d="M22.206 14.429c-0.002 0.139-0.115 0.25-0.251 0.248s-0.244-0.117-0.242-0.256c0.002-0.139 0.115-0.25 0.251-0.248s0.244 0.117 0.242 0.256z"></path>
<path fill="#009200" stroke="#000" stroke-linejoin="miter" stroke-linecap="butt" stroke-miterlimit="4" stroke-width="0.1067" d="M22.35 13.897c-0.002 0.125-0.121 0.225-0.264 0.222s-0.259-0.106-0.256-0.232c0.002-0.125 0.121-0.225 0.264-0.222s0.259 0.106 0.256 0.232z"></path>
<path fill="#009200" stroke="#000" stroke-linejoin="miter" stroke-linecap="butt" stroke-miterlimit="4" stroke-width="0.1067" d="M22.323 13.603c-0.002 0.125-0.121 0.225-0.264 0.222s-0.259-0.106-0.256-0.232c0.002-0.125 0.121-0.225 0.264-0.222s0.259 0.106 0.256 0.232z"></path>
<path fill="#009200" stroke="#000" stroke-linejoin="miter" stroke-linecap="butt" stroke-miterlimit="4" stroke-width="0.1067" d="M21.883 14.241c-0.002 0.139-0.115 0.25-0.251 0.248s-0.244-0.117-0.242-0.256c0.002-0.139 0.115-0.25 0.251-0.248s0.244 0.117 0.242 0.256z"></path>
<path fill="#009200" stroke="#000" stroke-linejoin="miter" stroke-linecap="butt" stroke-miterlimit="4" stroke-width="0.1067" d="M21.951 14.060c-0.002 0.139-0.115 0.25-0.251 0.248s-0.244-0.117-0.242-0.256c0.002-0.139 0.115-0.25 0.251-0.248s0.244 0.117 0.242 0.256z"></path>
<path fill="#009200" stroke="#000" stroke-linejoin="miter" stroke-linecap="butt" stroke-miterlimit="4" stroke-width="0.1" d="M21.709 13.931c-0.002 0.139-0.13 0.25-0.286 0.247s-0.28-0.118-0.277-0.257c0.002-0.139 0.13-0.25 0.286-0.247s0.28 0.118 0.277 0.257z"></path>
<path fill="#009200" stroke="#000" stroke-linejoin="miter" stroke-linecap="butt" stroke-miterlimit="4" stroke-width="0.1067" d="M22.134 13.241c-0.002 0.125-0.121 0.225-0.264 0.222s-0.259-0.106-0.256-0.232c0.002-0.125 0.121-0.225 0.264-0.222s0.259 0.106 0.256 0.232z"></path>
<path fill="#009200" stroke="#000" stroke-linejoin="miter" stroke-linecap="butt" stroke-miterlimit="4" stroke-width="0.1067" d="M21.71 13.703c-0.002 0.139-0.115 0.25-0.251 0.248s-0.244-0.117-0.242-0.256c0.002-0.139 0.115-0.25 0.251-0.248s0.244 0.117 0.242 0.256z"></path>
<path fill="#009200" stroke="#000" stroke-linejoin="miter" stroke-linecap="butt" stroke-miterlimit="4" stroke-width="0.1067" d="M21.178 13.942c-0.002 0.139-0.115 0.25-0.251 0.248s-0.244-0.117-0.242-0.256c0.002-0.139 0.115-0.25 0.251-0.248s0.244 0.117 0.242 0.256z"></path>
<path fill="#009200" stroke="#000" stroke-linejoin="miter" stroke-linecap="butt" stroke-miterlimit="4" stroke-width="0.1067" d="M21.263 13.898c-0.002 0.139-0.115 0.25-0.251 0.248s-0.244-0.117-0.242-0.256c0.002-0.139 0.115-0.25 0.251-0.248s0.244 0.117 0.242 0.256z"></path>
<path fill="#009200" stroke="#000" stroke-linejoin="miter" stroke-linecap="butt" stroke-miterlimit="4" stroke-width="0.1067" d="M21.371 13.697c-0.002 0.139-0.115 0.25-0.251 0.248s-0.244-0.117-0.242-0.256c0.002-0.139 0.115-0.25 0.251-0.248s0.244 0.117 0.242 0.256z"></path>
<path fill="#009200" stroke="#000" stroke-linejoin="miter" stroke-linecap="butt" stroke-miterlimit="4" stroke-width="0.1667" d="M23.401 16.692c0.48 1.288 0.521 2.45 0.093 2.595s-1.164-0.78-1.643-2.068c-0.48-1.288-0.521-2.45-0.093-2.595s1.164 0.78 1.643 2.068z"></path>
<path fill="#009200" stroke="#000" stroke-linejoin="miter" stroke-linecap="butt" stroke-miterlimit="4" stroke-width="0.1667" d="M23.422 17.289c0.105 0.27 0.126 0.519 0.047 0.557s-0.228-0.15-0.333-0.419c-0.105-0.27-0.126-0.519-0.047-0.557s0.228 0.15 0.333 0.419z"></path>
<path fill="#009200" stroke="#000" stroke-linejoin="miter" stroke-linecap="butt" stroke-miterlimit="4" stroke-width="0.1" d="M23.177 17.329c0.643 0.887 0.546 1.439 0.466 1.904-0.197-0.545-0.299-0.887-0.943-1.774s-0.3-1.489-0.248-1.81c0.093 0.282 0.081 0.793 0.724 1.681z"></path>
<path fill="#009200" stroke="#000" stroke-linejoin="miter" stroke-linecap="butt" stroke-miterlimit="4" stroke-width="0.1" d="M23.223 18.033c0.643 0.887 0.546 1.439 0.466 1.904-0.197-0.545-0.299-0.887-0.943-1.774s-0.3-1.489-0.248-1.811c0.093 0.282 0.081 0.794 0.724 1.681z"></path>
<path fill="#009200" stroke="#000" stroke-linejoin="miter" stroke-linecap="butt" stroke-miterlimit="4" stroke-width="0.1" d="M23.273 18.598c0.663 0.872 0.579 1.426 0.509 1.893-0.209-0.54-0.32-0.88-0.983-1.753s-0.334-1.482-0.289-1.805c0.1 0.28 0.099 0.792 0.762 1.664z"></path>
<path fill="#009200" stroke="#000" stroke-linejoin="miter" stroke-linecap="butt" stroke-miterlimit="4" stroke-width="0.0933" d="M23.057 16.498c0.185 0.482 0.209 0.903 0.054 0.942s-0.431-0.321-0.616-0.803c-0.185-0.482-0.209-0.903-0.054-0.942s0.431 0.321 0.616 0.803z"></path>
<path fill="#009200" stroke="#000" stroke-linejoin="miter" stroke-linecap="butt" stroke-miterlimit="4" stroke-width="0.1067" d="M22.829 16.941c0.143 0.396 0.145 0.736 0.004 0.758s-0.37-0.282-0.513-0.678c-0.143-0.396-0.145-0.736-0.004-0.758s0.37 0.282 0.513 0.678z"></path>
<path fill="#009200" stroke="#000" stroke-linejoin="miter" stroke-linecap="butt" stroke-miterlimit="4" stroke-width="0.1067" d="M22.395 17.237c0.132 0.399 0.125 0.739-0.015 0.758s-0.361-0.289-0.494-0.689c-0.132-0.399-0.125-0.739 0.015-0.758s0.361 0.289 0.494 0.689z"></path>
<path fill="#009200" stroke="#000" stroke-linejoin="miter" stroke-linecap="butt" stroke-miterlimit="4" stroke-width="0.14" d="M22.646 16.022c0.124 0.294 0.134 0.547 0.022 0.567s-0.304-0.203-0.428-0.497c-0.124-0.294-0.134-0.547-0.022-0.566s0.304 0.203 0.428 0.497z"></path>
<path fill="#009200" stroke="#000" stroke-linejoin="miter" stroke-linecap="butt" stroke-miterlimit="4" stroke-width="0.14" d="M22.46 16.308c0.106 0.303 0.099 0.558-0.016 0.57s-0.293-0.223-0.399-0.525c-0.106-0.303-0.099-0.558 0.016-0.57s0.293 0.223 0.399 0.525z"></path>
<path fill="#009200" stroke="#000" stroke-linejoin="miter" stroke-linecap="butt" stroke-miterlimit="4" stroke-width="0.14" d="M22.031 16.014c0.183 0.523 0.251 0.991 0.151 1.045s-0.33-0.327-0.514-0.85"></path>
<path fill="#009200" stroke="#000" stroke-linejoin="miter" stroke-linecap="butt" stroke-miterlimit="4" stroke-width="0.14" d="M22.441 15.7c0.106 0.303 0.099 0.558-0.016 0.57s-0.293-0.223-0.399-0.525c-0.106-0.303-0.099-0.558 0.016-0.57s0.293 0.223 0.399 0.525z"></path>
<path fill="#009200" stroke="#000" stroke-linejoin="miter" stroke-linecap="butt" stroke-miterlimit="4" stroke-width="0.14" d="M22.119 15.922c0.1 0.305 0.089 0.561-0.026 0.57s-0.289-0.23-0.389-0.536c-0.1-0.305-0.089-0.561 0.026-0.57s0.289 0.23 0.389 0.536z"></path>
<path fill="#009200" stroke="#000" stroke-linejoin="miter" stroke-linecap="butt" stroke-miterlimit="4" stroke-width="0.1933" d="M21.729 15.307c0.183 0.355 0.28 0.683 0.215 0.734s-0.267-0.196-0.45-0.55"></path>
<path fill="#009200" stroke="#000" stroke-linejoin="miter" stroke-linecap="butt" stroke-miterlimit="4" stroke-width="0.1933" d="M21.865 15.079c0.183 0.355 0.28 0.683 0.215 0.734s-0.267-0.196-0.45-0.55"></path>
<path fill="#009200" stroke="#000" stroke-linejoin="miter" stroke-linecap="butt" stroke-miterlimit="4" stroke-width="0.14" d="M22.458 15.203c0.255 0.488 0.389 0.939 0.297 1.008s-0.373-0.271-0.628-0.758"></path>
<path fill="#009200" stroke="#000" stroke-linejoin="miter" stroke-linecap="butt" stroke-miterlimit="4" stroke-width="0.18" d="M22.070 14.866c0.183 0.39 0.28 0.752 0.215 0.808s-0.267-0.215-0.45-0.605"></path>
<path fill="#804bff" stroke="#000" stroke-linejoin="miter" stroke-linecap="butt" stroke-miterlimit="4" stroke-width="0.1667" d="M22.34 13.508c-0.128 0.132 0.004 0.361 0.125 0.44 0.136 0.11 0.903 0.834 1.421 0.172-0.425 0.011-1.238-0.906-1.546-0.612z"></path>
<path fill="#804bff" stroke="#000" stroke-linejoin="miter" stroke-linecap="butt" stroke-miterlimit="4" stroke-width="0.1667" d="M22.248 13.124c-0.128 0.132 0.004 0.361 0.125 0.44 0.136 0.11 0.903 0.834 1.421 0.172-0.425 0.011-1.238-0.906-1.546-0.612z"></path>
<path fill="#804bff" stroke="#000" stroke-linejoin="miter" stroke-linecap="butt" stroke-miterlimit="4" stroke-width="0.1667" d="M22.131 12.759c-0.128 0.132 0.004 0.361 0.125 0.44 0.136 0.11 0.903 0.834 1.421 0.172-0.425 0.011-1.238-0.906-1.546-0.612z"></path>
<path fill="#804bff" stroke="#000" stroke-linejoin="miter" stroke-linecap="butt" stroke-miterlimit="4" stroke-width="0.1667" d="M21.877 12.342c-0.128 0.132 0.004 0.361 0.125 0.44 0.136 0.11 0.903 0.834 1.421 0.172-0.425 0.011-1.238-0.906-1.546-0.612z"></path>
<path fill="#804bff" stroke="#000" stroke-linejoin="miter" stroke-linecap="butt" stroke-miterlimit="4" stroke-width="0.1667" d="M20.712 12.157c0.247-0.193 0.71-0.25 1.077-0.058 0.306 0.154 0.822 0.779 1.203 0.927-0.012 0.003-0.026 0.006-0.040 0.008-0.198 0.036-0.395 0-0.559-0.087l0.001 0c-0.329 0.251-0.447 0.287-0.789 0.337-0.472 0.069-0.87-0.060-1.013-0.317-0.149-0.242-0.098-0.63 0.121-0.811z"></path>
<path fill="#f00" stroke="#000" stroke-linejoin="miter" stroke-linecap="butt" stroke-miterlimit="4" stroke-width="0.1667" d="M21.668 12.456c-0.001 0.070-0.106 0.125-0.234 0.123s-0.23-0.061-0.229-0.131c0.001-0.070 0.106-0.125 0.234-0.123s0.23 0.061 0.229 0.131z"></path>
<path fill="#ff0" stroke="#000" stroke-linejoin="miter" stroke-linecap="butt" stroke-miterlimit="4" stroke-width="0.1667" d="M21.108 12.849c0.038 0.098-0.067 0.229-0.236 0.294s-0.337 0.037-0.375-0.061c-0.038-0.098 0.067-0.229 0.236-0.294s0.337-0.037 0.375 0.061z"></path>
<path fill="#000" d="M21.146 12.856c-0.001 0.042-0.035 0.075-0.077 0.074s-0.075-0.035-0.074-0.077c0.001-0.042 0.035-0.075 0.077-0.074s0.075 0.035 0.074 0.077z"></path>
<path fill="#ff0" stroke="#000" stroke-linejoin="miter" stroke-linecap="butt" stroke-miterlimit="4" stroke-width="0.44" d="M21.172 12.612c0.027 0.094-0.048 0.223-0.22 0.27-0.176 0.066-0.304 0.213-0.371 0.452-0.298-0.543-0.136-0.776 0.149-0.833 0.245-0.071 0.395-0.063 0.443 0.11z"></path>
<path fill="#000" d="M20.502 13.132c-0.001 0.034-0.029 0.061-0.062 0.060s-0.061-0.028-0.060-0.062c0.001-0.034 0.029-0.061 0.062-0.060s0.061 0.028 0.060 0.062z"></path>
</svg>
