<!-- Generated by IcoMoon.io -->
<svg version="1.1" xmlns="http://www.w3.org/2000/svg" width="43" height="32" viewBox="0 0 43 32">
<title>do</title>
<path fill="#003994" d="M20.441 14.134c-0.040-0.002-0.086-0.003-0.133-0.003-0.383 0-0.747 0.082-1.076 0.229l0.017-0.007c-0.214 0.125-0.192 0.478 0.094 0.469v0.027h-0.063v0.031l0.473-0.121v-0.027h-0.192v-0.031h0.223l-0.063-0.121 1.13-0.121-0.063-0.21c0.105-0.013 0.226-0.020 0.349-0.020 0.289 0 0.569 0.040 0.834 0.114l-0.022-0.005v0.031l-0.25-0.058c0.027 0.13 0.179 0.098 0.281 0.058l-0.313 0.063v0.027l0.724 0.067 0.75 0.174v0.031l-0.406-0.063v0.031l0.5 0.147-0.089-0.089v-0.027l0.121 0.147c0.201 0.009 0.353 0.054 0.473 0.21l-0.438-0.179 0.25 0.567h0.031v-0.089h0.031v0.089l0.281-0.058c-0.071-0.304-0.201-0.661-0.5-0.808 0.027-0.116 0-0.165-0.098-0.241 0.116 0.232-0.076 0.326-0.25 0.152l-0.063 0.058 0.063-0.21-0.188 0.179 0.031-0.205h-0.031l-0.031 0.179-0.094-0.089-0.031 0.089-0.505-0.063v-0.268l0.063 0.089h0.031v-0.089l0.156 0.089h0.031l0.63 0.031 0.031 0.237h0.031l0.094-0.205c-0.345-0.133-0.745-0.21-1.162-0.21-0.011 0-0.021 0-0.032 0h0.002c0.022-0.205-0.201-0.241-0.375-0.268-0.304-0.045-1.224-0.147-1.26 0.268z"></path>
<path fill="#002984" d="M20.732 13.87v0zM21.772 13.87l0.027 0.031-0.031-0.031z"></path>
<path fill="#295284" d="M20.986 13.901v0zM21.049 13.901v0zM21.236 13.901v0z"></path>
<path fill="#7b7b52" d="M21.339 14.102l0.013 0.018-0.013-0.022zM21.393 14.080v0z"></path>
<path fill="#00216b" d="M20.419 14.259v0zM20.799 14.259l0.031 0.031-0.036-0.031z"></path>
<path fill="#bd9c29" d="M19.499 14.361l0.018 0.009-0.018-0.013zM19.57 14.348v0z"></path>
<path fill="#6b735a" d="M22.523 14.411v0zM22.648 14.411v0zM22.71 14.411l0.036 0.027-0.031-0.027z"></path>
<path fill="#cecece" d="M20.857 14.469l0.036 0.031-0.031-0.031zM21.612 14.469v0z"></path>
<path fill="#395273" d="M22.867 14.469l0.036 0.031-0.031-0.031zM22.934 14.469v0z"></path>
<path fill="#003994" d="M19.039 14.647c-0.089 0.094-0.223 0.201-0.161 0.331-0.165 0.089-0.197 0.286-0.25 0.447l0.344 0.063 0.255-0.567-0.348 0.027v-0.027l0.313-0.031-0.156-0.241z"></path>
<path fill="#00216b" d="M22.867 14.799l0.036 0.027-0.031-0.027zM23.027 14.799v0z"></path>
<path fill="#00216b" d="M23.153 14.826v0zM23.278 14.826v0zM23.657 14.826v0z"></path>
<path fill="#00216b" d="M19.258 14.857v0zM19.347 14.857l0.036 0.031-0.031-0.031z"></path>
<path fill="#dedede" d="M19.508 14.857v0zM22.992 14.857l0.036 0.031-0.031-0.031z"></path>
<path fill="#bdbdbd" d="M19.476 15.005v0.031h3.614l-1.099-0.027h-2.519zM23.336 15.009v0z"></path>
<path fill="#003994" d="M19.508 15.036l0.264 0.331 0.018 1.161h0.286c0-0.366 0.080-0.75-0.192-1.041l0.38 0.237-0.156-0.447 0.88 0.835-0.661-1.014 0.625 0.804h0.036v-0.867h-1.478z"></path>
<path fill="#de2110" d="M21.549 15.036v0.84l0.661-0.777-0.661 1.014 0.911-0.835-0.188 0.415 0.375-0.237c-0.201 0.371-0.188 0.648-0.188 1.072h0.286l0.018-1.161 0.264-0.331h-1.474z"></path>
<path fill="#9c9494" d="M23.814 15.094l0.031 0.031-0.031-0.027zM18.668 15.139l0.013 0.022-0.013-0.018z"></path>
<path fill="#8c8c8c" d="M23.907 15.362l0.031 0.036-0.031-0.031zM18.597 15.398v0z"></path>
<path fill="#bdbdbd" d="M18.69 15.451l0.031 0.036-0.031-0.031zM18.753 15.456v0z"></path>
<path fill="#ce2110" d="M22.304 15.451l0.031 0.036-0.031-0.031zM22.617 15.456l0.036 0.031-0.031-0.031z"></path>
<path fill="#9c9494" d="M18.659 15.514v0zM18.882 15.514l0.027 0.031-0.031-0.031z"></path>
<path fill="#efefef" d="M23.371 15.514v0zM23.519 15.527l0.022 0.009-0.022-0.013z"></path>
<path fill="#428c00" d="M19.070 15.545l-0.063 0.241h-0.031l0.058-0.21h-0.027l-0.031 0.237 0.125-0.058-0.156 0.237 0.125-0.089-0.161 0.121-0.031 0.152h0.031l0.313-0.357-0.089 0.027v-0.031l0.089-0.027v-0.031h-0.121l-0.031-0.21z"></path>
<path fill="#319400" d="M23.595 15.545l0.031 0.625h0.031l0.089-0.536h-0.027l-0.063 0.357h-0.031l-0.031-0.447z"></path>
<path fill="#7b5a00" d="M22.465 15.576l0.027 0.027-0.031-0.027zM22.523 15.576v0z"></path>
<path fill="#001039" d="M20.455 15.603l0.027 0.031-0.031-0.031zM20.674 15.603l0.027 0.031-0.031-0.031z"></path>
<path fill="#ffce08" d="M21.236 15.634v0.152h-0.125v0.089h0.125v0.357h0.031l0.031-0.357h0.156v-0.089h-0.152v-0.156h-0.063z"></path>
<path fill="#428c00" d="M18.784 15.666c-0.085 0.179-0.071 0.295 0 0.478h0.063l0.063-0.447h-0.031l-0.031 0.357h-0.063v-0.389z"></path>
<path fill="#002984" d="M20.075 15.693v0.84h-0.29v0.031l0.313-0.031v0.147h0.036c0-0.255 0.103-0.777-0.063-0.983z"></path>
<path fill="#319400" d="M23.403 15.693l0.13 0.75h0.031c0.013-0.058 0.020-0.125 0.020-0.194 0-0.209-0.068-0.403-0.183-0.559l0.002 0.003z"></path>
<path fill="#319400" d="M23.246 15.724l0.25 0.956h-0.031c-0.045-0.165-0.246-0.804-0.5-0.567 0.335 0.013 0.447 0.585 0.5 0.84h0.031l0.411-1.197h-0.031l-0.313 0.777h-0.036c-0.085-0.255-0.076-0.612-0.281-0.804z"></path>
<path fill="#00216b" d="M20.294 15.755v0zM20.517 15.755l0.027 0.031-0.031-0.031z"></path>
<path fill="#294200" d="M18.815 15.786v0.089h0.031l-0.031-0.089zM19.039 15.786l0.027 0.027-0.031-0.027zM19.182 15.795v0z"></path>
<path fill="#294200" d="M18.69 15.813v0zM18.94 15.813v0zM19.003 15.813v0z"></path>
<path fill="#001039" d="M20.825 15.813v0zM20.888 15.813l0.036 0.031-0.031-0.031z"></path>
<path fill="#311000" d="M21.679 15.813l0.031 0.031-0.036-0.031zM21.866 15.813v0z"></path>
<path fill="#103900" d="M18.972 15.844l-0.031 0.089h0.036v-0.089zM19.101 15.844v0z"></path>
<path fill="#397b00" d="M18.923 15.898l0.009 0.018-0.009-0.022zM18.972 15.876v0z"></path>
<path fill="#294200" d="M18.923 15.956l0.009 0.018-0.009-0.022zM19.003 15.934v0z"></path>
<path fill="#428c00" d="M19.476 16.38h-0.031v-0.326h-0.031l-0.031 0.147h-0.031v-0.147h-0.031l-0.188 0.688h0.031l0.063-0.121h0.031l-0.063 0.152h0.031l0.156-0.21-0.125 0.268h0.031l0.313-0.447 0.063-0.447c-0.205 0.089-0.188 0.25-0.188 0.447z"></path>
<path fill="#297b00" d="M23.876 15.992v0zM23.939 15.992l-0.188 0.121v0.031l0.063 0.031 0.125-0.179z"></path>
<path fill="#294200" d="M19.579 16.045v0zM19.633 16.023v0.21h0.031l-0.031-0.21z"></path>
<path fill="#8c8c8c" d="M22.018 16.023v0.804h0.036l-0.031-0.804zM22.96 16.023l0.036 0.031-0.031-0.031z"></path>
<path fill="#185200" d="M23.313 16.054l0.027 0.027-0.031-0.027zM23.403 16.054v0z"></path>
<path fill="#313931" d="M21.835 16.086l0.031 0.027-0.031-0.031zM21.897 16.081v0z"></path>
<path fill="#296300" d="M23.595 16.175v0.089h0.031l-0.031-0.089zM23.657 16.175v0z"></path>
<path fill="#428c00" d="M18.69 16.233l0.063 0.121-0.089-0.063c0.027 0.121 0.058 0.197 0.183 0.241v0.031l-0.125-0.031 0.063 0.089-0.089-0.031 0.277 0.268 0.031-0.116 0.098 0.058-0.192-0.179v-0.031l0.094 0.031c-0.037-0.175-0.154-0.316-0.309-0.387l-0.003-0.001z"></path>
<path fill="#294200" d="M19.195 16.233v0.268h0.031l-0.031-0.268zM19.329 16.255l0.013 0.018-0.013-0.022z"></path>
<path fill="#734a42" d="M21.772 16.233l-0.031 0.688h0.031c0.032-0.103 0.051-0.221 0.051-0.344s-0.019-0.241-0.053-0.352l0.002 0.008z"></path>
<path fill="#de2110" d="M21.741 16.264l-0.13 0.089 0.13 0.389-0.223 0.058 0.031 0.121 0.223-0.031-0.036-0.625z"></path>
<path fill="#319400" d="M23.090 16.322l0.25 0.956h-0.031v-0.058h-0.031l0.031 0.268h-0.031v-0.058h-0.031v0.237h-0.031c0-0.304-0.121-0.576-0.281-0.835l-0.063 0.058v0.031c0.228 0.219 0.299 0.688 0.313 0.983h-0.063l-0.125-0.625h-0.031l0.089 0.84h-0.027l-0.125-0.625h-0.031l0.089 0.951h-0.027l-0.063-0.777h-0.031l0.063 0.777h-0.031l-0.031-0.415h-0.031l0.031 0.509h-0.031l-0.031-0.42h-0.031l-0.094 0.567 0.344-0.031v-0.027l-0.223-0.031v-0.031l0.822 0.21v-0.031l-0.38-0.121v-0.027l0.567 0.121c-0.179-0.219-0.402-0.179-0.661-0.152v-0.031l0.724 0.031v-0.031l-0.505-0.116v-0.031l0.505 0.031v-0.031c-0.357-0.080-0.536-0.036-0.817 0.21l0.063-0.299h-0.031l-0.031 0.089h-0.031l0.156-0.447h0.031l-0.031 0.326 0.724-0.268v-0.031l-0.661 0.179c0.26-0.206 0.582-0.345 0.933-0.388l0.009-0.001v-0.027c-0.375 0-0.581 0.085-0.88 0.299 0.237-0.295 0.603-0.326 0.942-0.447v-0.036c-0.424 0.036-0.625 0.134-0.974 0.357 0.214-0.201 0.581-0.554 0.911-0.473l-0.063-0.152c-0.29 0.067-0.54 0.223-0.755 0.42 0.147-0.197 0.661-0.737 0.911-0.715-0.255-0.223-0.741 0.451-0.911 0.594l0.692-0.746-0.599 0.509 0.661-0.84v-0.031c-0.313 0.112-0.402 0.482-0.625 0.688l0.469-0.746c-0.214 0.161-0.37 0.387-0.44 0.648l-0.002 0.008c-0.143 0.018-0.089 0.246-0.089 0.357h-0.036c0-0.357-0.045-0.804-0.281-1.103z"></path>
<path fill="#103900" d="M23.371 16.322v0zM23.684 16.322l0.036 0.031-0.031-0.031z"></path>
<path fill="#397b00" d="M19.039 16.38l0.027 0.031-0.031-0.031zM19.133 16.38v0z"></path>
<path fill="#efefef" d="M21.393 16.38l0.063 0.179h0.031l-0.089-0.179zM21.486 16.38v0z"></path>
<path fill="#ada5a5" d="M21.169 16.412l0.036 0.031-0.031-0.031zM21.268 16.412v0z"></path>
<path fill="#103900" d="M23.496 16.412v0zM23.559 16.412l0.036 0.031-0.031-0.031zM23.653 16.412l0.036 0.031-0.031-0.031zM23.782 16.412v0z"></path>
<path fill="#184a00" d="M23.626 16.501v0zM23.715 16.501l0.036 0.031-0.031-0.031z"></path>
<path fill="#295200" d="M18.659 16.532l0.094 0.058-0.089-0.058zM18.753 16.532v0z"></path>
<path fill="#103900" d="M19.289 16.532v0zM19.378 16.532l0.036 0.031-0.031-0.031z"></path>
<path fill="#103900" d="M23.595 16.532v0zM23.684 16.532l0.067 0.058-0.063-0.058z"></path>
<path fill="#8c8c8c" d="M21.111 16.59v0.031l0.156-0.031h-0.156zM21.424 16.564v0z"></path>
<path fill="#294200" d="M18.757 16.59l0.027 0.031-0.031-0.031zM18.932 16.599l0.022 0.013-0.022-0.009z"></path>
<path fill="#8c8c8c" d="M22.429 16.59v0.389h0.031l-0.031-0.389zM22.742 16.59v0.447h0.036l-0.031-0.447z"></path>
<path fill="#8c8c8c" d="M21.236 16.622v0.031h0.094l-0.094-0.031zM21.361 16.622l-0.089 0.058v0.031l0.089-0.089zM21.455 16.622v0z"></path>
<path fill="#397b00" d="M18.815 16.742v0zM19.007 16.742l0.031 0.031-0.036-0.031zM19.070 16.742v0z"></path>
<path fill="#dedede" d="M21.169 16.742l0.036 0.031-0.031-0.031zM21.268 16.742v0z"></path>
<path fill="#428c00" d="M19.28 17.077h-0.031c-0.004-0.17-0.071-0.281-0.25-0.331 0 0.089 0.071 0.447 0.223 0.331h0.027l-0.063 0.268c0.094-0.098 0.482-0.447 0.313-0.603-0.143-0.13-0.214 0.268-0.219 0.335z"></path>
<path fill="#de2110" d="M21.268 16.863v0.027h0.094c-0.241 0.375-0.067 0.88-0.031 1.286h0.031c0.089-0.366 0.098-0.893 0-1.255l0.125 0.058 0.031-0.116-0.031-0.031-0.219 0.031z"></path>
<path fill="#297b00" d="M23.434 16.863v0zM23.496 16.863l0.063 0.058-0.058-0.058z"></path>
<path fill="#428c00" d="M19.508 17.131l0.063-0.031v0.031l-0.223 0.179c0.201-0.076 0.299-0.179 0.38-0.357l-0.089 0.058 0.058-0.121-0.188 0.241z"></path>
<path fill="#428c00" d="M18.784 16.921v0.147h-0.031l-0.031-0.089h-0.031l0.031 0.299h-0.031l-0.031-0.326h-0.031l-0.031 0.237h-0.031l-0.156-0.121 0.089 0.179h-0.027l-0.125-0.147c0.103 0.357 0.255 0.304 0.505 0.505 0.094 0.071 0.156 0.232 0.219 0.331l-0.13-0.089 0.063 0.089-0.156-0.089 0.192 0.179 0.031-0.089h0.031c-0.080 0.143-0.223 0.161-0.38 0.179v-0.027l0.063-0.058 0.156 0.027c-0.112-0.112-0.25-0.134-0.406-0.089l0.188 0.152v0.027l-0.188 0.21 0.375-0.058-0.031 0.058h0.031l0.192-0.089-0.38 0.179v0.031c0.317-0.040 0.357-0.143 0.536-0.357-0.027 0.094-0.027 0.147 0.063 0.21l-0.049-0.357 0.424-0.482-0.156 0.121 0.125-0.179c-0.179 0.036-0.255 0.161-0.25 0.326l-0.188 0.179h-0.031c0.067-0.183 0.25-0.29 0.188-0.505-0.165 0.116-0.21 0.259-0.223 0.447l-0.121-0.599 0.031 0.121h-0.031v-0.058h-0.031l0.031 0.415h-0.031c-0.098-0.223-0.013-0.688-0.223-0.835z"></path>
<path fill="#003994" d="M21.080 17.966h0.031c-0.018-0.090-0.028-0.193-0.028-0.299 0-0.273 0.068-0.53 0.189-0.755l-0.004 0.009c-0.371 0.179-0.348 0.75-0.188 1.045z"></path>
<path fill="#294200" d="M18.565 17.010v0zM18.659 17.010v0.089h0.031l-0.031-0.089z"></path>
<path fill="#294200" d="M19.007 17.010l0.031 0.031-0.036-0.031zM19.133 17.010v0z"></path>
<path fill="#de2110" d="M20.138 17.010v0.478h-0.031l-0.031-0.42h-0.29v0.867l0.13-0.058 0.063 0.21 0.156-0.089 0.031 0.331 0.281-0.089c0.134 0.089 0.219 0.089 0.281-0.063h0.063l0.192 0.179-0.031-0.567-0.567-0.031v-0.027l0.536 0.027v-0.089c-0.402-0.009-0.442-0.246-0.442-0.567l-0.344-0.089z"></path>
<path fill="#294200" d="M19.258 17.041v0.089h0.031l-0.031-0.089zM19.392 17.059v0zM19.508 17.041v0z"></path>
<path fill="#103900" d="M23.532 17.041l0.031 0.027-0.036-0.027zM23.689 17.041v0z"></path>
<path fill="#295200" d="M18.565 17.068v0zM18.798 17.091v0zM18.878 17.068v0z"></path>
<path fill="#294200" d="M19.039 17.068l0.027 0.031-0.031-0.031zM19.164 17.068v0z"></path>
<path fill="#003994" d="M22.465 17.068c0 0.558-0.326 0.759-0.884 0.719l-0.031 0.567c0.121 0 0.286 0.009 0.313-0.121l0.13 0.089 0.125-0.116-0.031 0.116 0.063-0.058h0.031l0.188-0.031-0.031 0.089 0.094-0.116 0.063 0.058h0.094v-0.089l0.067 0.031 0.031-0.268c0.156-0.134 0.063-0.67 0.063-0.871h-0.286z"></path>
<path fill="#397b00" d="M18.565 17.104l0.031 0.027-0.031-0.031zM18.659 17.1v0.063h0.063v-0.063h-0.063z"></path>
<path fill="#103900" d="M23.496 17.104l0.031 0.027-0.031-0.031zM23.626 17.1v0zM23.751 17.1v0z"></path>
<path fill="#397b00" d="M18.346 17.131v0zM18.436 17.131l0.036 0.027-0.031-0.027z"></path>
<path fill="#294200" d="M18.579 17.149l0.009 0.022-0.013-0.022zM18.798 17.149v0z"></path>
<path fill="#397b00" d="M19.258 17.131v0zM19.445 17.158v0.031h0.094l-0.089-0.027zM19.539 17.131v0zM19.602 17.131v0z"></path>
<path fill="#103900" d="M22.996 17.162v0zM23.121 17.162v0zM23.563 17.162v0z"></path>
<path fill="#295200" d="M18.471 17.193l0.031 0.027-0.031-0.031zM18.597 17.189v0zM18.784 17.189v0z"></path>
<path fill="#184a00" d="M23.161 17.269v0zM23.255 17.269l0.013 0.022-0.009-0.022z"></path>
<path fill="#296300" d="M23.313 17.251l0.027 0.027-0.031-0.027zM23.371 17.251v0z"></path>
<path fill="#397b00" d="M18.628 17.283l0.031 0.027-0.031-0.031zM18.784 17.278l-0.031 0.063h0.063l-0.031-0.063z"></path>
<path fill="#294200" d="M19.195 17.283l0.031 0.027-0.031-0.031zM19.298 17.301v0z"></path>
<path fill="#185200" d="M23.456 17.287l0.022 0.013-0.022-0.009zM23.563 17.278l-0.067 0.089 0.063-0.089z"></path>
<path fill="#bdbdbd" d="M19.414 17.372l0.031 0.027-0.031-0.031zM19.664 17.368v0z"></path>
<path fill="#184a00" d="M23.184 17.372l0.031 0.027-0.031-0.031zM23.496 17.372l0.036 0.027-0.031-0.031z"></path>
<path fill="#297b00" d="M23.782 17.372l0.031 0.027-0.031-0.031zM24.050 17.381l0.027 0.009-0.022-0.009zM24.126 17.368v0z"></path>
<path fill="#397b00" d="M18.471 17.43v0zM18.565 17.43l0.094 0.058v-0.031l-0.094-0.027z"></path>
<path fill="#397b00" d="M19.606 17.519l0.027 0.027-0.031-0.027zM19.664 17.519v0z"></path>
<path fill="#295200" d="M18.722 17.551l0.031 0.027-0.031-0.031zM18.815 17.546v0z"></path>
<path fill="#294200" d="M19.32 17.551l0.031 0.027-0.031-0.031zM19.409 17.546l0.036 0.031-0.031-0.031z"></path>
<path fill="#294200" d="M19.57 17.551l0.031 0.027-0.031-0.031zM19.664 17.546v0z"></path>
<path fill="#185200" d="M23.34 17.551l0.031 0.027-0.031-0.031zM23.434 17.546v0z"></path>
<path fill="#dedede" d="M24.314 17.551l0.031 0.027-0.031-0.031zM18.722 17.577v0z"></path>
<path fill="#185200" d="M23.135 17.595l0.009 0.022-0.013-0.018zM23.22 17.577l0.027 0.031-0.031-0.031z"></path>
<path fill="#295200" d="M19.159 17.667l0.036 0.031-0.031-0.031zM19.253 17.667l0.036 0.031-0.031-0.031zM19.347 17.667l-0.058 0.121h0.031l0.031-0.121z"></path>
<path fill="#b51010" d="M20.607 17.787v0zM20.83 17.787l0.027 0.031-0.031-0.031z"></path>
<path fill="#00215a" d="M20.986 17.819v0zM21.076 17.819l0.036 0.031-0.031-0.031z"></path>
<path fill="#296300" d="M23.532 17.819l0.031 0.031-0.036-0.031zM23.782 17.819v0z"></path>
<path fill="#397b00" d="M19.213 17.859v0zM19.32 17.85l0.031 0.027-0.031-0.031z"></path>
<path fill="#9c9494" d="M24.162 17.935l0.027 0.031-0.031-0.031zM18.471 17.966v0z"></path>
<path fill="#397b00" d="M19.070 17.966l-0.031 0.089h0.031v-0.089zM19.226 17.966v0z"></path>
<path fill="#428c00" d="M19.383 17.966c-0.076 0.192-0.054 0.308 0.063 0.478h0.031v-0.478h-0.031v0.357h-0.063v-0.357z"></path>
<path fill="#428c00" d="M19.82 17.997l-0.031 0.478 0.094-0.089h0.036l-0.031 0.121c0.246-0.071 0.29-0.232 0.219-0.447l-0.156 0.326h-0.031v-0.389h-0.031l-0.063 0.331v-0.331z"></path>
<path fill="#103900" d="M19.007 18.029l0.031 0.027-0.036-0.027zM19.133 18.029v0z"></path>
<path fill="#941808" d="M19.95 18.029l0.031 0.027-0.036-0.027zM20.044 18.029v0z"></path>
<path fill="#185200" d="M23.581 18.096v0zM23.715 18.087l0.036 0.031-0.031-0.031z"></path>
<path fill="#295200" d="M19.039 18.145l0.027 0.031-0.031-0.031zM19.195 18.145v0z"></path>
<path fill="#397b00" d="M19.686 18.158v0zM19.852 18.145v0.089h0.031l-0.031-0.089z"></path>
<path fill="#185200" d="M22.867 18.176l0.036 0.031-0.031-0.031zM22.96 18.176l0.036 0.031-0.031-0.031zM23.121 18.176v0z"></path>
<path fill="#295200" d="M19.852 18.265v0zM19.914 18.265l0.031 0.031-0.027-0.031z"></path>
<path fill="#428c00" d="M20.732 18.265l-0.063 0.179-0.089-0.058 0.089 0.237h0.031v-0.116h0.031v0.21c0.152-0.098 0.134-0.268 0.098-0.42h-0.031v0.299h-0.031l-0.036-0.331z"></path>
<path fill="#397b00" d="M18.628 18.297v0zM18.851 18.297v0.089h0.027l-0.031-0.089z"></path>
<path fill="#294200" d="M19.928 18.314v0zM20.012 18.297v0zM20.138 18.297v0z"></path>
<path fill="#428c00" d="M20.231 18.386l0.031 0.21 0.156 0.121 0.223 0.027 0.027-0.027c-0.022-0.085-0.277-0.433-0.313-0.241l-0.063-0.089h-0.063z"></path>
<path fill="#319400" d="M22.273 18.386l-0.223 0.357c0.25 0 0.357-0.13 0.38-0.357h-0.031l-0.219 0.331 0.094-0.331z"></path>
<path fill="#296300" d="M22.867 18.417l0.036 0.027-0.031-0.027zM22.934 18.417v0z"></path>
<path fill="#428c00" d="M19.101 18.475v0.031h0.281v0.027h-0.281v0.031h0.063v0.031c-0.174 0.009-0.259 0.067-0.348 0.21l0.536-0.031v0.031c-0.147 0.045-0.357 0.027-0.411 0.179 0.201-0.080 0.491-0.107 0.599-0.299l-0.188 0.089 0.089-0.121-0.277-0.027v-0.031l0.5 0.031v0.027h-0.089v0.031l0.402-0.031v-0.027h-0.089v-0.031h0.188v-0.031l-0.255 0.058-0.719-0.147z"></path>
<path fill="#397b00" d="M19.874 18.457v0zM20.008 18.444l0.036 0.031-0.031-0.031z"></path>
<path fill="#cecece" d="M21.143 18.444v0zM21.366 18.444l-0.067 0.089 0.063-0.089z"></path>
<path fill="#294200" d="M18.605 18.493v0zM18.695 18.475l0.027 0.031-0.031-0.031z"></path>
<path fill="#397b00" d="M20.419 18.507l0.094 0.089-0.089-0.089zM20.607 18.507v0z"></path>
<path fill="#294200" d="M20.419 18.533v0zM20.607 18.533l0.031 0.089h0.031l-0.063-0.089z"></path>
<path fill="#8c8c8c" d="M20.857 18.565l0.036 0.031-0.031-0.031zM21.268 18.565v0z"></path>
<path fill="#297b00" d="M22.902 18.565v0zM23.027 18.565v0zM23.626 18.565v0z"></path>
<path fill="#295200" d="M20.513 18.596v0.058h0.063l-0.063-0.058zM20.825 18.596v0z"></path>
<path fill="#bd2110" d="M20.294 18.623l0.031 0.031-0.031-0.027zM20.356 18.623l0.031 0.031-0.031-0.027z"></path>
<path fill="#185200" d="M22.617 18.623l0.036 0.031-0.036-0.027zM23.005 18.645v0z"></path>
<path fill="#297b00" d="M23.496 18.623l0.031 0.031-0.031-0.027zM23.72 18.627v0z"></path>
<path fill="#397b00" d="M18.847 18.712l0.031 0.031-0.031-0.027zM18.972 18.716v0.058h0.094v-0.058h-0.089z"></path>
<path fill="#397b00" d="M19.82 18.712l0.031 0.031-0.031-0.027zM20.388 18.716v0z"></path>
<path fill="#9c9494" d="M23.845 18.712l0.031 0.031-0.031-0.027zM18.784 18.743v0z"></path>
<path fill="#294200" d="M18.936 18.757l0.018 0.009-0.022-0.009zM19.351 18.743v0z"></path>
<path fill="#de2110" d="M19.981 19.284v-0.031l-0.192 0.031v-0.031c0.849-0.255 2.104-0.255 2.957 0v0.031l-0.161-0.031c0.156 0.223 0.581 0.089 0.442-0.179-0.121-0.223-0.558-0.246-0.786-0.277-0.639-0.089-1.34-0.094-1.979 0.004-0.223 0.036-0.505 0.054-0.683 0.205-0.134 0.107-0.085 0.326 0.089 0.375 0.107 0.031 0.223-0.049 0.313-0.098z"></path>
<path fill="#103900" d="M22.273 18.743v0zM22.429 18.743v0zM22.554 18.743v0z"></path>
<path fill="#397b00" d="M18.972 18.801v0.063h0.063v-0.058h-0.054zM19.208 18.824v0z"></path>
<path fill="#296300" d="M23.34 18.801l0.031 0.031-0.031-0.027zM23.434 18.806v0z"></path>
<path fill="#e75a10" d="M20.799 18.833l0.031 0.031-0.036-0.031zM20.924 18.833v0z"></path>
<path fill="#f7b508" d="M20.481 18.864v0zM20.575 18.864v0zM20.816 18.873v0z"></path>
<path fill="#ef7b08" d="M20.169 18.891l0.031 0.031-0.031-0.027zM20.334 18.913v0z"></path>
<path fill="#ef7b08" d="M20.924 18.891l0.031 0.031-0.031-0.027zM20.986 18.895v0zM21.076 18.895l0.036 0.027-0.031-0.027z"></path>
<path fill="#297b00" d="M22.867 18.891l0.036 0.031-0.031-0.027zM23.068 18.913v0z"></path>
<path fill="#dedede" d="M19.039 18.953l0.027 0.031-0.031-0.031zM19.539 18.953v0z"></path>
<path fill="#ef9408" d="M21.679 18.953l0.031 0.031-0.036-0.031zM22.054 18.953v0z"></path>
<path fill="#ef9408" d="M19.664 18.98l0.031 0.031-0.031-0.027zM19.758 18.98l0.031 0.031-0.031-0.027z"></path>
<path fill="#ef9408" d="M21.991 18.98l0.031 0.031-0.031-0.027zM22.398 18.98l0.031 0.031-0.031-0.027z"></path>
<path fill="#e75a10" d="M22.523 18.98l0.031 0.031-0.031-0.027zM22.617 18.984v0z"></path>
<path fill="#ef9408" d="M20.231 19.016l-0.031 0.058 0.031-0.063zM20.669 19.016v0z"></path>
<path fill="#f7b508" d="M20.986 19.016v0zM21.076 19.016l0.036 0.027-0.031-0.027z"></path>
<path fill="#ef7b08" d="M22.617 19.016l-0.027 0.058 0.027-0.063zM22.684 19.016v0z"></path>
<path fill="#de3110" d="M20.892 19.043v0zM20.973 19.051v0zM21.098 19.051v0zM21.486 19.043v0z"></path>
<path fill="#de3110" d="M21.741 19.043v0.031h0.089l-0.089-0.031zM21.897 19.043v0z"></path>
<path fill="#e75a10" d="M20.294 19.069l0.031 0.036-0.031-0.031zM22.21 19.074v0z"></path>
<path fill="#e75a10" d="M22.366 19.069l0.031 0.036-0.031-0.031zM22.429 19.074v0z"></path>
<path fill="#e75a10" d="M22.777 19.069l0.031 0.036-0.031-0.031zM22.849 19.092v0z"></path>
<path fill="#ef9408" d="M22.643 19.141l0.018 0.013-0.022-0.009zM22.715 19.132v0z"></path>
<path fill="#9c9494" d="M23.465 19.163v0zM19.007 19.194l0.027 0.027-0.031-0.027z"></path>
<path fill="#297b00" d="M21.299 19.194v0zM21.522 19.194l-0.036 0.058 0.031-0.058z"></path>
<path fill="#631808" d="M20.857 19.342v0.121h0.036l-0.031-0.121zM21.143 19.342v0.121h0.031l-0.031-0.121z"></path>
<path fill="#ad1810" d="M21.643 19.342l-0.089 0.152h0.089v-0.067l0.063 0.031v-0.121h-0.063z"></path>
<path fill="#ad1810" d="M22.465 19.342l0.027 0.031-0.031-0.031zM22.621 19.342l0.027 0.031-0.031-0.031z"></path>
<path fill="#bd2110" d="M23.331 19.351v0zM23.501 19.342l0.027 0.031-0.031-0.031z"></path>
<path fill="#ad1810" d="M20.669 19.373v0zM21.361 19.373v0.058h0.063v-0.058h-0.063z"></path>
<path fill="#ce2110" d="M22.965 19.373v0zM23.188 19.373l0.027 0.027-0.031-0.027z"></path>
<path fill="#bd2110" d="M23.059 19.462v0zM23.403 19.462v0z"></path>
<path fill="#b51010" d="M19.633 19.494v0zM19.887 19.494l0.027 0.027-0.031-0.027z"></path>
<path fill="#efefef" d="M20.767 19.52l0.027 0.031-0.031-0.031zM20.857 19.52v0z"></path>
<path fill="#213918" d="M21.424 19.583v0zM21.71 19.583v0z"></path>
<path fill="#cecece" d="M18.503 19.61v0zM18.597 19.61v0z"></path>
<path fill="#efefef" d="M21.111 19.61v0zM21.424 19.61v0z"></path>
<path fill="#295200" d="M21.518 19.641v0zM21.804 19.641v0z"></path>
<path fill="#9c9494" d="M19.476 19.672v0zM20.638 19.672v0z"></path>
<path fill="#8c4a4a" d="M23.246 19.672v0zM23.434 19.672v0z"></path>
<path fill="#efefef" d="M20.986 19.699v0zM21.549 19.699v0z"></path>
<path fill="#b51010" d="M23.595 19.699v0zM23.751 19.699v0z"></path>
<path fill="#cecece" d="M23.907 19.699v0zM23.97 19.699l-0.094 0.121 0.089-0.121z"></path>
<path fill="#ad1810" d="M18.784 19.73v0zM18.878 19.73v0z"></path>
<path fill="#8c8c8c" d="M18.878 19.762v0zM20.732 19.762v0z"></path>
<path fill="#bdbdbd" d="M20.857 19.762l0.036 0.031-0.031-0.031zM21.679 19.762l0.031 0.031-0.036-0.031z"></path>
<path fill="#9c9494" d="M21.804 19.762v0zM23.626 19.762v0z"></path>
<path fill="#9c9494" d="M20.799 19.793l0.031 0.027-0.036-0.027zM21.741 19.793v0z"></path>
<path fill="#bdbdbd" d="M23.715 19.793l0.036 0.027-0.031-0.027zM23.809 19.793l0.036 0.027-0.031-0.027z"></path>
<path fill="#7b7373" d="M23.876 19.82v0zM18.659 19.851v0z"></path>
<path fill="#dedede" d="M23.782 19.882v0zM18.69 19.909v0z"></path>
<path fill="#ecca5e" d="M20.227 14.402l0.049-0.013c0.003 0.010 0.009 0.018 0.018 0.022l0 0h0.027c0.013 0 0.027 0 0.031-0.009 0.003-0.002 0.005-0.006 0.005-0.010 0-0.001-0-0.002-0-0.003l0 0c-0-0.004-0.002-0.007-0.004-0.009v0c-0.003-0.001-0.006-0.001-0.009-0.001s-0.006 0-0.009 0.001l0-0c-0.029-0.002-0.057-0.009-0.082-0.019l0.002 0.001c-0.018-0.006-0.030-0.021-0.031-0.040v-0c0-0.018 0-0.031 0.013-0.045 0.013-0.009 0.036-0.018 0.063-0.022 0.027 0 0.045 0 0.063 0.009 0.013 0.004 0.022 0.013 0.031 0.031l-0.049 0.013c-0.003-0.006-0.007-0.011-0.013-0.013l-0-0c-0.004-0.001-0.009-0.002-0.013-0.002s-0.009 0.001-0.014 0.002l0-0-0.027 0.004-0.004 0.009 0.004 0.009c0.004 0.004 0.022 0.009 0.049 0.009 0.031 0 0.049 0.009 0.063 0.018 0.010 0.007 0.016 0.018 0.018 0.031l0 0c0 0.018 0 0.031-0.013 0.045-0.013 0.018-0.036 0.027-0.067 0.027-0.027 0.004-0.045 0-0.063-0.004-0.017-0.008-0.029-0.022-0.036-0.040l-0-0.001zM19.999 14.384c-0.001-0.004-0.001-0.009-0.001-0.013 0-0.011 0.002-0.022 0.006-0.032l-0 0.001 0.031-0.045c0.018-0.004 0.031-0.013 0.054-0.013 0.006-0.001 0.013-0.002 0.020-0.002 0.021 0 0.041 0.008 0.057 0.020l-0-0c0.018 0.018 0.031 0.036 0.036 0.067 0 0.003 0.001 0.007 0.001 0.012 0 0.023-0.009 0.044-0.023 0.060l0-0c-0.013 0.022-0.036 0.031-0.067 0.036l-0.054-0.004c-0.017-0.006-0.030-0.017-0.040-0.031l-0-0-0.018-0.054zM20.053 14.384c0 0.018 0.009 0.031 0.018 0.040s0.022 0.009 0.036 0.009c0.013-0.001 0.024-0.008 0.031-0.018l0-0c0.009-0.013 0.009-0.027 0.009-0.045s-0.009-0.031-0.018-0.040c-0.008-0.006-0.017-0.010-0.028-0.010-0.003 0-0.006 0-0.008 0.001l0-0c-0.013 0.001-0.024 0.008-0.031 0.018l-0 0c-0.009 0.009-0.013 0.022-0.009 0.045zM19.892 14.281l-0.004-0.045 0.049-0.004 0.004 0.045-0.049 0.004zM19.919 14.491l-0.022-0.183 0.049-0.009 0.022 0.188-0.049 0.004zM19.615 14.268l0.098-0.013h0.054c0.013 0 0.031 0.009 0.045 0.018l0.031 0.040c0.004 0.013 0.013 0.036 0.013 0.058v0.058c-0.004 0.017-0.012 0.032-0.022 0.045l0-0c-0.009 0.012-0.021 0.021-0.035 0.027l-0.001 0-0.045 0.013-0.107 0.009-0.031-0.255zM19.673 14.303l0.022 0.17h0.045l0.031-0.009 0.018-0.013 0.013-0.027v-0.045c-0.002-0.017-0.007-0.032-0.014-0.046l0 0.001c-0.003-0.011-0.010-0.020-0.018-0.027l-0-0c-0.008-0.005-0.017-0.008-0.027-0.009h-0.045l-0.022 0.004z"></path>
<path fill="#ecca5e" d="M20.339 15.112l0.759 0.956-0.031 0.045-0.764-0.956zM22.304 15.040l-0.853 1.126-0.067-0.022 0.853-1.126zM20.142 15.299l0.902 0.84-0.031 0.045-0.902-0.835zM19.932 15.496l0.992 0.741-0.022 0.045-0.996-0.737zM22.433 15.349l-0.893 0.849-0.054-0.031 0.893-0.849zM22.63 15.505l-1.001 0.733-0.045-0.036 1.001-0.733z"></path>
<path fill="#428c00" d="M19.454 18.024h-0.031c-0.004-0.17-0.071-0.281-0.25-0.326 0.004 0.089 0.071 0.447 0.223 0.326h0.027l-0.063 0.268c0.094-0.098 0.482-0.447 0.313-0.599-0.143-0.134-0.214 0.268-0.219 0.331zM19.217 15.885h-0.036c0-0.17-0.071-0.281-0.25-0.326 0.004 0.089 0.071 0.447 0.223 0.326h0.027l-0.063 0.268c0.094-0.098 0.482-0.447 0.313-0.599-0.143-0.134-0.214 0.268-0.219 0.331z"></path>
<path fill="#ecca5e" d="M23.291 14.549h-0.045v-0.031l-0.031 0.022c-0.005 0.001-0.010 0.002-0.016 0.002s-0.011-0.001-0.016-0.002l0 0c-0.022 0-0.045-0.009-0.054-0.031-0.013-0.018-0.022-0.045-0.018-0.071 0.004-0.031 0.013-0.054 0.031-0.071 0.018-0.013 0.040-0.018 0.063-0.018 0.022 0.004 0.040 0.013 0.054 0.036l0.013-0.094 0.049 0.004-0.031 0.255zM23.166 14.437v0.045c0.007 0.013 0.020 0.022 0.036 0.022v0c0.002 0 0.004 0 0.006 0 0.010 0 0.019-0.004 0.026-0.009l-0 0c0.009-0.009 0.018-0.022 0.018-0.045l-0.004-0.045c-0.007-0.010-0.018-0.017-0.031-0.018h-0c-0.002-0-0.004-0-0.006-0-0.010 0-0.019 0.004-0.026 0.009l0-0c-0.009 0.009-0.018 0.022-0.018 0.045zM22.96 14.384l-0.045-0.013c0.004-0.018 0.013-0.031 0.031-0.036l0.058-0.009 0.049 0.013 0.022 0.022v0.045l-0.009 0.058v0.036l0.004 0.027-0.049-0.004c-0-0.003-0-0.006-0-0.009s0-0.006 0-0.009v0c-0.014 0.009-0.031 0.015-0.050 0.015-0.006 0-0.012-0.001-0.018-0.002l0.001 0c-0.022 0-0.036-0.009-0.045-0.022-0.009-0.009-0.014-0.021-0.014-0.034 0-0.002 0-0.004 0-0.006l-0 0c0.001-0.021 0.016-0.039 0.035-0.045l0-0 0.089-0.009 0.004-0.009-0.004-0.018-0.027-0.009c-0.003-0.001-0.007-0.002-0.011-0.002s-0.008 0.001-0.011 0.002l0-0c-0.006 0.004-0.011 0.010-0.013 0.018l-0 0zM23.023 14.428c-0.008 0.003-0.018 0.006-0.029 0.008l-0.002 0.001h-0.031l-0.009 0.018c-0.002 0.003-0.003 0.007-0.003 0.011s0.001 0.008 0.003 0.011l-0-0c0.005 0.006 0.012 0.009 0.020 0.009 0.001 0 0.002-0 0.002-0h-0c0.009 0 0.018 0 0.031-0.009 0.006-0.003 0.010-0.008 0.013-0.013l0-0v-0.022l0.004-0.009zM22.889 14.321v0.036h-0.036l-0.009 0.071v0.031l0.009 0.004h0.022v0.036l-0.045 0.004c-0.008-0.002-0.016-0.005-0.023-0.009l0 0c-0.007-0.003-0.014-0.007-0.018-0.013l-0-0c-0.001-0.003-0.001-0.006-0.001-0.009s0-0.006 0.001-0.009l-0 0v-0.036l0.009-0.080h-0.022v-0.045l0.027 0.004 0.004-0.036 0.058-0.022-0.009 0.067h0.036zM22.684 14.482l-0.049-0.004 0.022-0.183h0.045v0.031l0.022-0.022 0.022-0.004c0.013 0 0.022 0.004 0.036 0.013l-0.022 0.040c-0.006-0.005-0.014-0.008-0.022-0.009l-0-0c-0.003-0.001-0.007-0.002-0.011-0.002s-0.008 0.001-0.011 0.002l0-0-0.013 0.022-0.009 0.063-0.009 0.054zM22.55 14.411l0.045 0.013c-0.008 0.015-0.020 0.028-0.035 0.036l-0 0c-0.012 0.006-0.026 0.010-0.041 0.010-0.005 0-0.009-0-0.013-0.001l0 0c-0.036-0.004-0.058-0.018-0.071-0.045-0.009-0.013-0.013-0.036-0.013-0.063 0.004-0.031 0.018-0.054 0.036-0.067 0.018-0.018 0.045-0.022 0.067-0.018 0.027 0 0.051 0.012 0.067 0.031l0 0c0.013 0.022 0.018 0.049 0.013 0.089l-0.13-0.018c0 0.018 0 0.027 0.009 0.036 0.004 0.009 0.018 0.013 0.027 0.018l0.022-0.004c0.006-0.005 0.011-0.011 0.013-0.018l0-0zM22.554 14.361c0-0.018 0-0.027-0.009-0.036-0.005-0.007-0.013-0.012-0.022-0.013l-0-0c-0.002-0-0.004-0.001-0.007-0.001-0.009 0-0.018 0.004-0.024 0.010l0-0c-0.008 0.008-0.013 0.019-0.013 0.031v0l0.076 0.009zM22.197 14.428l0.031-0.255 0.049 0.004-0.009 0.089c0.018-0.009 0.036-0.018 0.058-0.013 0.022 0 0.045 0.013 0.054 0.031 0.013 0.018 0.018 0.040 0.018 0.071-0.004 0.031-0.018 0.054-0.036 0.067-0.013 0.012-0.031 0.019-0.051 0.019-0.014 0-0.028-0.004-0.039-0.011l0 0c-0.011-0.007-0.020-0.016-0.027-0.026l-0-0v0.027h-0.049zM22.259 14.339v0.045c0.009 0.013 0.022 0.022 0.036 0.022 0.002 0 0.004 0.001 0.007 0.001 0.009 0 0.018-0.004 0.024-0.010l-0 0c0.009-0.009 0.013-0.027 0.018-0.045 0-0.022 0-0.036-0.009-0.045-0.006-0.009-0.015-0.016-0.027-0.018l-0-0c-0.002-0-0.004-0-0.006-0-0.010 0-0.019 0.004-0.026 0.009l0-0c-0.009 0.009-0.018 0.022-0.018 0.040zM22.121 14.205v-0.045l0.054 0.009v0.045l-0.054-0.004zM22.094 14.42l0.022-0.188 0.049 0.009-0.022 0.179h-0.049zM21.871 14.393l0.027-0.255 0.054 0.009-0.027 0.21 0.134 0.013v0.045l-0.192-0.022z"></path>
<path fill="#428c00" d="M18.891 16.479h-0.027c-0.004-0.17-0.071-0.277-0.25-0.326 0 0.089 0.067 0.447 0.219 0.331h0.031l-0.063 0.268c0.089-0.098 0.478-0.447 0.313-0.603-0.143-0.134-0.219 0.268-0.223 0.335z"></path>
<path fill="#fac349" d="M20.008 15.532c0 0.022-0.027 0.045-0.063 0.045s-0.058-0.022-0.058-0.045 0.027-0.045 0.058-0.045 0.058 0.022 0.058 0.045zM20.2 15.322c0 0.027-0.022 0.045-0.058 0.045s-0.058-0.018-0.058-0.045c0-0.022 0.027-0.040 0.058-0.040s0.058 0.018 0.058 0.045zM20.383 15.13c0 0.022-0.027 0.045-0.058 0.045s-0.058-0.022-0.058-0.045 0.027-0.045 0.058-0.045 0.058 0.022 0.058 0.045zM22.317 15.054c0 0.022-0.022 0.045-0.054 0.045s-0.063-0.022-0.063-0.045 0.027-0.045 0.058-0.045 0.063 0.022 0.063 0.045zM22.456 15.322c0 0.027-0.022 0.045-0.058 0.045s-0.058-0.018-0.058-0.045c0-0.022 0.027-0.040 0.058-0.040s0.058 0.018 0.058 0.045zM22.661 15.5c0 0.018-0.027 0.036-0.058 0.036s-0.058-0.018-0.058-0.040 0.027-0.045 0.058-0.045 0.058 0.022 0.058 0.045z"></path>
<path fill="#ecca5e" d="M21.643 14.035l-0.045-0.009c0-0.018 0.013-0.031 0.027-0.040s0.031-0.013 0.058-0.013l0.049 0.009 0.022 0.022 0.009 0.045v0.094l0.009 0.022h-0.049c-0.001-0.003-0.003-0.008-0.004-0.012l-0-0.001c0-0.001 0-0.001 0-0.002s0-0.002-0-0.002v0c-0.015 0.014-0.035 0.023-0.058 0.023-0.003 0-0.006-0-0.009-0.001l0 0c-0.018 0-0.036-0.004-0.045-0.018-0.011-0.009-0.018-0.023-0.018-0.038 0-0.001 0-0.002 0-0.002v0c0-0.020 0.013-0.037 0.031-0.045l0-0c0.013-0.006 0.028-0.011 0.044-0.013l0.001-0 0.045-0.009v-0.004l-0.004-0.022-0.027-0.004-0.022 0.004c-0.006 0.004-0.011 0.010-0.013 0.018l-0 0zM21.71 14.076l-0.031 0.009-0.027 0.009-0.009 0.013c0 0.009 0 0.013 0.009 0.018 0.005 0.005 0.011 0.008 0.018 0.009l0 0c0.009 0 0.018 0 0.027-0.009 0.009 0 0.009-0.009 0.013-0.013v-0.036zM21.5 13.951v-0.045h0.054v0.045h-0.054zM21.5 14.165v-0.188h0.054v0.188h-0.054zM21.402 14.165h-0.054v-0.188h0.049v0.027l0.022-0.027c0.006-0.003 0.012-0.005 0.020-0.005 0.001 0 0.002 0 0.003 0h-0c0.013 0 0.027 0 0.036 0.009l-0.018 0.045c-0.006-0.005-0.014-0.008-0.022-0.009l-0-0-0.018 0.004-0.013 0.022-0.004 0.063v0.054zM21.317 13.977v0.036h-0.036v0.103l0.004 0.004 0.009 0.004 0.022-0.004v0.040l-0.040 0.004h-0.022c-0.007-0.003-0.013-0.007-0.018-0.013l-0-0c-0.003-0.006-0.005-0.012-0.005-0.020 0-0.001 0-0.002 0-0.003v0c-0-0.005-0.001-0.012-0.001-0.018s0-0.013 0.001-0.019l-0 0.001v-0.080h-0.027v-0.040h0.027v-0.036l0.049-0.027v0.067h0.036zM21.058 14.031l-0.045-0.009c0-0.018 0.009-0.031 0.022-0.040s0.036-0.013 0.058-0.013 0.045 0 0.054 0.009l0.022 0.022 0.004 0.045v0.089l0.013 0.027h-0.054c-0-0.002-0-0.004-0-0.007s0-0.005 0-0.007v0l-0.004-0.009c-0.016 0.017-0.038 0.027-0.062 0.027-0 0-0 0-0.001 0h0c-0.018 0-0.036-0.009-0.045-0.018-0.011-0.009-0.018-0.023-0.018-0.038 0-0.001 0-0.002 0-0.002v0c0-0 0-0.001 0-0.001 0-0.019 0.011-0.035 0.027-0.044l0-0c0.013-0.006 0.028-0.011 0.044-0.013l0.001-0 0.049-0.009v-0.004l-0.004-0.022-0.031-0.004h-0.018c-0.007 0.005-0.012 0.013-0.013 0.022l-0 0zM21.125 14.071c-0.007 0.003-0.018 0.006-0.029 0.008l-0.003 0.001-0.027 0.004c-0.009 0.004-0.013 0.013-0.013 0.018 0 0.007 0.003 0.014 0.009 0.018l0 0 0.022 0.009c0.009 0 0.018 0 0.027-0.009l0.013-0.013v-0.036zM20.767 14.16v-0.259h0.152l0.040 0.031c0.009 0.013 0.013 0.027 0.013 0.045s0 0.031-0.009 0.045l-0.022 0.022c-0.008 0.008-0.019 0.013-0.031 0.013h-0.089v0.098h-0.058zM20.821 13.946v0.071h0.076l0.013-0.018c0.005-0.005 0.008-0.011 0.009-0.018l0-0c0-0 0-0 0-0 0-0.009-0.003-0.016-0.009-0.022v0c-0.005-0.007-0.013-0.012-0.022-0.013l-0-0c-0.006-0-0.013-0.001-0.020-0.001s-0.014 0-0.021 0.001l0.001-0h-0.027zM20.928 18.886h-0.036c0-0.013 0.009-0.027 0.018-0.031 0.009-0.009 0.022-0.013 0.040-0.018h0.040c0.009 0 0.013 0.009 0.018 0.013s0.009 0.013 0.009 0.031l0.013 0.067 0.009 0.018-0.036 0.009c-0.001-0.003-0.003-0.008-0.004-0.012l-0-0.001c-0.011 0.013-0.027 0.021-0.044 0.022l-0 0c-0.018 0-0.027 0-0.040-0.009-0.008-0.007-0.012-0.016-0.013-0.027v-0c-0.001-0.003-0.002-0.007-0.002-0.011s0.001-0.008 0.002-0.011l-0 0c0.003-0.006 0.008-0.010 0.013-0.013l0-0 0.031-0.013 0.036-0.013v-0.004c0-0.009-0.004-0.013-0.009-0.013h-0.022c-0.002-0.001-0.004-0.001-0.007-0.001s-0.005 0-0.007 0.001l0-0c-0.005 0.004-0.008 0.011-0.009 0.018v0zM20.986 18.909l-0.022 0.009c-0.013 0-0.018 0.009-0.022 0.009v0.027h0.022c0 0 0 0 0.001 0 0.006 0 0.012-0.002 0.017-0.005l-0 0c0.003-0.004 0.004-0.008 0.004-0.013v-0.027zM20.87 18.895l-0.036 0.009c-0.003-0.006-0.007-0.011-0.013-0.013l-0-0c-0.003-0.001-0.006-0.002-0.009-0.002s-0.006 0.001-0.009 0.002l0-0c-0 0-0 0-0 0-0.009 0-0.016 0.003-0.022 0.009v0 0.036c0 0.013 0.004 0.027 0.013 0.031l0.027 0.009c0.005-0.002 0.010-0.005 0.013-0.009l0-0 0.009-0.022h0.036c0 0 0 0.001 0 0.002 0 0.015-0.005 0.028-0.014 0.039l0-0c-0.009 0.009-0.027 0.018-0.045 0.018-0.022 0-0.040 0-0.054-0.009-0.016-0.013-0.026-0.032-0.027-0.053v-0c0-0.022 0-0.040 0.009-0.054 0.013-0.014 0.030-0.023 0.049-0.027l0.001-0 0.045 0.004c0.013 0.004 0.022 0.013 0.027 0.031zM20.656 18.864v-0.036h0.036l0.004 0.031-0.040 0.004zM20.682 19.020l-0.022-0.134 0.040-0.009 0.022 0.134-0.040 0.009zM20.607 19.034l-0.031-0.192 0.036-0.004 0.031 0.188-0.036 0.009zM20.432 19.056l-0.031-0.192h0.040l0.009 0.067c0.009-0.018 0.022-0.027 0.040-0.027s0.031 0 0.045 0.013c0.013 0.009 0.022 0.027 0.027 0.045 0.004 0.027 0 0.045-0.009 0.058-0.010 0.017-0.029 0.028-0.050 0.028-0.005 0-0.009-0-0.013-0.002l0 0c-0.011-0.004-0.020-0.010-0.027-0.018l-0-0 0.004 0.022-0.036 0.004zM20.459 18.98c0 0.013 0.004 0.022 0.013 0.031 0.006 0.006 0.014 0.009 0.022 0.009 0.002 0 0.003-0 0.005-0l-0 0c0.010-0 0.018-0.006 0.022-0.013l0-0c0-0.009 0.004-0.018 0-0.036 0-0.013-0.004-0.027-0.013-0.031-0.006-0.006-0.013-0.009-0.022-0.009-0 0-0 0-0 0h0c-0.009 0.001-0.017 0.006-0.022 0.013l-0 0c-0.004 0.007-0.006 0.014-0.006 0.023 0 0.005 0.001 0.009 0.002 0.013l-0-0zM20.356 19.069v-0.022c-0.004 0.009-0.010 0.017-0.018 0.022l-0 0-0.027 0.009h-0.027c-0.010-0.003-0.018-0.009-0.022-0.018l-0-0-0.009-0.031-0.013-0.089h0.040l0.009 0.063 0.009 0.036c0.002 0.004 0.005 0.007 0.009 0.009l0 0c0.002 0.001 0.004 0.001 0.007 0.001s0.005-0 0.007-0.001l-0 0c0.007-0.001 0.013-0.004 0.018-0.009v0c0.004-0.003 0.007-0.008 0.009-0.013l0-0v-0.036l-0.013-0.058 0.040-0.004 0.022 0.134-0.036 0.004zM20.071 18.967h0.036v0.018c0.008-0.017 0.025-0.030 0.044-0.031h0c0.018 0 0.031 0 0.045 0.013 0.013 0.009 0.022 0.027 0.027 0.049 0 0.022 0 0.045-0.009 0.058s-0.022 0.022-0.045 0.022c-0.003 0-0.006 0.001-0.009 0.001s-0.006-0-0.009-0.001l0 0c-0.009-0.003-0.016-0.008-0.022-0.014l0 0 0.009 0.071h-0.036l-0.031-0.188zM20.115 19.029c0.004 0.013 0.009 0.027 0.018 0.031 0.006 0.006 0.014 0.009 0.022 0.009 0.002 0 0.003-0 0.005-0l-0 0c0.008-0.002 0.014-0.007 0.018-0.013l0-0c0.004-0.009 0.009-0.018 0.004-0.036 0-0.013-0.009-0.022-0.013-0.031-0.005-0.003-0.011-0.005-0.017-0.005-0.002 0-0.004 0-0.006 0l0-0c-0.009 0.001-0.017 0.006-0.022 0.013l-0 0c-0.004 0.009-0.009 0.018-0.004 0.031zM20.012 19.074h0.045l-0.022 0.031c-0.009 0.009-0.022 0.013-0.040 0.018-0.022 0-0.045 0-0.058-0.018-0.012-0.012-0.020-0.027-0.022-0.044l-0-0c0-0.022 0-0.040 0.009-0.054 0.010-0.015 0.026-0.025 0.044-0.027l0-0c0.022 0 0.045 0 0.058 0.013 0.013 0.009 0.022 0.031 0.027 0.058l-0.098 0.013c0 0.013 0.009 0.018 0.013 0.022 0.009 0.009 0.018 0.009 0.027 0.009 0.006-0.001 0.010-0.004 0.013-0.009l0-0c0.002-0.004 0.004-0.008 0.004-0.013v-0zM20.012 19.034c0-0.009-0.009-0.018-0.013-0.022-0.004-0.003-0.010-0.005-0.016-0.005-0.002 0-0.005 0-0.007 0.001l0-0c-0.008 0.002-0.014 0.007-0.018 0.013l-0 0c-0.003 0.005-0.005 0.011-0.005 0.017 0 0.002 0 0.004 0 0.006l-0-0 0.058-0.009zM19.736 19.159l-0.031-0.192 0.089-0.013h0.045l0.027 0.013 0.013 0.031c0 0.013 0 0.027-0.009 0.036s-0.018 0.018-0.036 0.022l0.022 0.013 0.027 0.027 0.031 0.036-0.045 0.004-0.040-0.036-0.022-0.027c-0.002-0-0.004-0.001-0.007-0.001s-0.005 0-0.007 0.001l0-0c-0.003-0.001-0.007-0.001-0.011-0.001s-0.008 0-0.012 0.001l0-0h-0.009l0.013 0.076-0.040 0.009zM19.758 19.043l0.031-0.004 0.036-0.009c0.004-0.002 0.007-0.005 0.009-0.009l0-0c0.001-0.002 0.001-0.004 0.001-0.007s-0-0.005-0.001-0.007l0 0c0-0.001 0-0.003 0-0.004 0-0.005-0.002-0.010-0.005-0.014l0 0c-0.003-0.001-0.006-0.002-0.009-0.002s-0.006 0.001-0.009 0.002l0-0h-0.063l0.009 0.054zM22.751 19.060l-0.031-0.009c0.004-0.013 0.013-0.022 0.022-0.027 0.013-0.004 0.027-0.009 0.045-0.004l0.040 0.009 0.013 0.018v0.036l-0.004 0.045c-0 0.003-0 0.007-0 0.011s0 0.008 0 0.012l-0-0v0.022l-0.036-0.004v-0.013c-0.007 0.003-0.016 0.005-0.025 0.005-0.001 0-0.001 0-0.002-0h0c-0.004 0.001-0.009 0.001-0.013 0.001s-0.009-0.001-0.014-0.002l0 0c-0.012-0.001-0.023-0.006-0.031-0.013l0 0c-0.006-0.006-0.010-0.015-0.010-0.024 0-0.002 0-0.005 0.001-0.007l-0 0c0.001-0.015 0.012-0.027 0.027-0.031l0-0c0.005-0.001 0.010-0.001 0.016-0.001s0.011 0 0.016 0.001l-0.001-0 0.040-0.009v-0.018l-0.022-0.009c-0.003-0.001-0.006-0.002-0.009-0.002s-0.006 0.001-0.009 0.002l0-0c-0.004 0.003-0.007 0.008-0.009 0.013l-0 0zM22.8 19.096l-0.022 0.004h-0.022l-0.009 0.013c-0.002 0.003-0.002 0.006-0.002 0.009s0.001 0.006 0.002 0.009l-0-0c0.004 0.003 0.009 0.005 0.014 0.005 0.001 0 0.003-0 0.004-0l-0 0c0.003 0.001 0.006 0.001 0.009 0.001s0.006-0 0.009-0.001l-0 0c0.006-0.002 0.011-0.007 0.013-0.013l0-0c0.002-0.005 0.004-0.011 0.004-0.018l0-0v-0.009zM22.67 19.15l-0.036-0.004 0.009-0.071v-0.031c-0.001-0.003-0.002-0.007-0.004-0.009v0c-0.003-0.004-0.008-0.008-0.013-0.009l-0-0c-0-0-0.001-0-0.002-0-0.006 0-0.012 0.002-0.016 0.005l0-0c-0.006 0.003-0.011 0.007-0.013 0.013l-0 0-0.009 0.031-0.009 0.063-0.036-0.004 0.018-0.138h0.036v0.022c0.013-0.013 0.031-0.018 0.049-0.013l0.022 0.004c0.006 0.003 0.010 0.008 0.013 0.013l0 0c0.003 0.005 0.004 0.011 0.004 0.018v0.022l-0.013 0.089zM22.424 19.016l-0.031-0.009c0.004-0.013 0.013-0.022 0.022-0.027h0.045c0.018 0 0.031 0 0.040 0.009l0.013 0.013v0.036l-0.004 0.045c-0 0.004-0.001 0.009-0.001 0.013s0 0.009 0.001 0.014l-0-0.001v0.018l-0.036-0.004c-0-0.002-0-0.004-0-0.007s0-0.005 0-0.007v0c-0.001-0-0.001-0-0.002-0s-0.002 0-0.002 0h0l-0.022 0.009c-0.004 0.001-0.009 0.001-0.013 0.001s-0.009-0.001-0.014-0.002l0 0c-0.013-0.002-0.024-0.008-0.031-0.018l-0-0c-0.006-0.006-0.010-0.015-0.010-0.024 0-0.002 0-0.005 0.001-0.007l-0 0c0.003-0.015 0.013-0.026 0.027-0.031l0-0h0.031l0.040-0.009v-0.018l-0.022-0.009c-0.003-0.001-0.006-0.001-0.009-0.001s-0.006 0-0.009 0.001l0-0c-0.006 0.003-0.011 0.007-0.013 0.013l-0 0zM22.474 19.056h-0.027l-0.018 0.004c-0.009 0-0.009 0.009-0.009 0.013-0.001 0.002-0.001 0.004-0.001 0.007s0 0.005 0.001 0.007l-0-0c0.004 0.005 0.011 0.009 0.018 0.009v0c0 0 0 0 0.001 0 0.006 0 0.012-0.002 0.017-0.005l-0 0c0.006-0.002 0.011-0.007 0.013-0.013l0-0v-0.022zM22.366 19.011h-0.036c-0.001-0.007-0.004-0.013-0.009-0.018l-0-0c-0.003-0.004-0.008-0.007-0.013-0.009l-0-0c-0.001-0-0.003-0-0.005-0-0.009 0-0.017 0.004-0.022 0.009v0l-0.013 0.027 0.004 0.036c0.004 0.009 0.013 0.013 0.022 0.013 0.003 0.001 0.006 0.002 0.009 0.002s0.006-0.001 0.009-0.002l-0 0 0.013-0.022 0.036 0.013c-0.004 0.013-0.013 0.027-0.027 0.036-0.013 0.004-0.027 0.009-0.045 0.004-0.020-0.001-0.038-0.012-0.049-0.027l-0-0c-0.009-0.012-0.014-0.027-0.014-0.043 0-0.004 0-0.008 0.001-0.011l-0 0c0.004-0.022 0.013-0.045 0.027-0.054 0.018-0.009 0.036-0.013 0.054-0.009 0.018 0 0.031 0.004 0.045 0.013 0.009 0.009 0.013 0.022 0.013 0.036zM22.174 18.922v-0.036l0.045 0.009-0.009 0.031h-0.036zM22.148 19.078l0.022-0.134h0.040l-0.022 0.138h-0.040zM22.112 19.074l-0.040-0.004 0.009-0.071v-0.027c0.001-0.002 0.001-0.004 0.001-0.007s-0-0.005-0.001-0.007l0 0c-0.004-0.003-0.008-0.004-0.013-0.004h-0.022c-0.009 0-0.009 0.009-0.013 0.013l-0.013 0.094h-0.040l0.022-0.143 0.036 0.004v0.022c0.011-0.010 0.026-0.016 0.042-0.016 0.011 0 0.021 0.003 0.030 0.008l-0-0c0.006 0.003 0.010 0.008 0.013 0.013l0 0c0.002 0.004 0.004 0.008 0.004 0.013l0 0c0.001 0.004 0.001 0.009 0.001 0.013s-0 0.009-0.001 0.014l0-0.001-0.013 0.085zM21.924 18.891l0.004-0.036 0.040 0.004-0.004 0.036-0.040-0.004zM21.902 19.047l0.018-0.138 0.040 0.004-0.022 0.138-0.036-0.004zM21.67 18.873l0.036 0.004v0.022c0.013-0.013 0.027-0.018 0.045-0.018l0.022 0.009 0.018 0.018 0.022-0.013h0.022c0.013 0 0.022 0 0.027 0.009 0.006 0.004 0.011 0.010 0.013 0.018l0 0v0.031l-0.013 0.089-0.036-0.009 0.009-0.076v-0.027c0-0.009-0.009-0.009-0.013-0.013-0.002-0-0.004-0.001-0.006-0.001-0.012 0-0.022 0.008-0.025 0.018l-0 0-0.004 0.027-0.009 0.067-0.040-0.004 0.013-0.076v-0.027c-0.001-0.003-0.002-0.007-0.004-0.009v0c-0.003-0.003-0.007-0.005-0.012-0.005-0.001 0-0.001 0-0.002 0h0c-0.002-0-0.004-0.001-0.007-0.001s-0.005 0-0.007 0.001l0-0c-0.006 0.003-0.011 0.007-0.013 0.013l-0 0c-0.004 0.008-0.007 0.017-0.009 0.026l-0 0.001-0.009 0.067h-0.040l0.022-0.143zM21.482 18.917c0.003-0.027 0.021-0.048 0.044-0.058l0-0h0.045c0.018 0 0.036 0.009 0.045 0.027 0.013 0.013 0.018 0.031 0.018 0.054-0.004 0.019-0.016 0.035-0.031 0.044l-0 0c-0.018 0.018-0.036 0.022-0.058 0.018-0.013-0.002-0.026-0.007-0.036-0.014l0 0c-0.010-0.008-0.018-0.018-0.022-0.031l-0-0v-0.040zM21.522 18.926l0.004 0.031c0.004 0.009 0.013 0.013 0.022 0.013 0.002 0.001 0.005 0.001 0.008 0.001 0.007 0 0.013-0.002 0.019-0.005l-0 0 0.018-0.031c0-0.013 0-0.027-0.009-0.036-0.005-0.007-0.013-0.012-0.022-0.013h-0c-0.001-0-0.002-0-0.003-0-0.009 0-0.017 0.003-0.024 0.009l0-0c-0.009 0.004-0.013 0.018-0.013 0.031zM21.308 18.77l0.071 0.013c0.018 0 0.031 0 0.040 0.009 0.009 0 0.018 0.009 0.027 0.018 0.009 0.013 0.013 0.022 0.013 0.036 0.001 0.007 0.002 0.016 0.002 0.025 0 0.024-0.006 0.046-0.016 0.066l0-0.001c-0.006 0.011-0.013 0.020-0.022 0.027l-0 0-0.031 0.013h-0.036l-0.076-0.013 0.027-0.192zM21.344 18.81l-0.018 0.125 0.027 0.004h0.027c0.003 0.001 0.006 0.001 0.009 0.001s0.006-0 0.009-0.001l-0 0c0-0.009 0.009-0.013 0.013-0.022l0.009-0.031v-0.036c-0.001-0.009-0.004-0.016-0.009-0.022l0 0c-0.005-0.004-0.011-0.007-0.018-0.009l-0-0c-0.009-0.003-0.019-0.007-0.030-0.009l-0.001-0h-0.018z"></path>
</svg>
