<!-- Generated by IcoMoon.io -->
<svg version="1.1" xmlns="http://www.w3.org/2000/svg" width="43" height="32" viewBox="0 0 43 32">
<title>dz</title>
<path fill="#fff" d="M21.333 0h21.333v32h-21.333z"></path>
<path fill="#006233" d="M0 0h21.333v32h-21.333z"></path>
<path fill="#d21034" d="M28.267 12c-1.409-2.408-3.983-4-6.928-4-4.418 0-8 3.582-8 8s3.582 8 8 8c2.946 0 5.519-1.592 6.908-3.962l0.020-0.038c-1.183 1.468-2.981 2.4-4.996 2.4-3.535 0-6.4-2.865-6.4-6.4s2.865-6.4 6.4-6.4c2.015 0 3.813 0.932 4.986 2.388l0.010 0.012zM28.533 16l-7.2-2.347 4.48 6.133v-7.573l-4.48 6.133z"></path>
</svg>
