<!-- Generated by IcoMoon.io -->
<svg version="1.1" xmlns="http://www.w3.org/2000/svg" width="43" height="32" viewBox="0 0 43 32">
<title>ec</title>
<path fill="#ffe800" d="M0 0h42.667v32h-42.667z"></path>
<path fill="#00148e" d="M0 16h42.667v16h-42.667z"></path>
<path fill="#da0010" d="M0 24h42.667v8h-42.667z"></path>
<path fill="#000" d="M17.973 19.387l-4.84 5.1-0.080-0.107 4.827-5.1 0.080 0.107zM21.333 20.22l-6.32 6.667-0.107-0.107 6.313-6.667 0.113 0.107z"></path>
<path fill="#808080" d="M15.033 26.809l-0.591 0.591-0.673 0.508 0.508-0.673 0.591-0.591 0.165 0.165z"></path>
<path fill="#808080" d="M13.406 24.202l-0.591 0.591-0.673 0.508 0.508-0.673 0.591-0.591 0.165 0.165z"></path>
<path fill="#ffdf00" d="M13.863 7.653s-0.531 14.362 1.593 14.362 3.189-1.51 3.189-1.51l-0.024-7.893-4.758-4.958z"></path>
<path fill="#0000c4" d="M15.162 8.993c0 0.755-0.237 11.511 0.825 11.511s2.658-0.755 2.658-0.755l-0.024-7.138-3.459-3.618z"></path>
<path fill="#e10000" d="M15.852 9.718c0 0.755 0.135 9.276 1.2 9.276h1.593l-0.024-6.383-2.769-2.893z"></path>
<path fill="#000" d="M13.747 7.733l4.827 5.1 0.087-0.107-4.827-5.1-0.087 0.107z"></path>
<path fill="#ffdf00" d="M12.286 10.596s-1.369 13.913 2.738 13.913c3.422 0 3.422-2.195 4.106-2.195l-0.684-5.125-6.163-6.593z"></path>
<path fill="#005b00" d="M15.254 10.79c0.362 0.169 0.591 0.363 0.8 0.59-0.414-0.087-0.628-0.122-0.99-0.291s-0.639-0.427-0.858-0.636c0.269 0.082 0.685 0.167 1.049 0.337z"></path>
<path fill="#f00" d="M16.162 12.167c0.027 0.045 0.004 0.109-0.053 0.141s-0.124 0.019-0.151-0.027-0.003-0.108 0.053-0.139 0.124-0.019 0.151 0.026z"></path>
<path fill="#005b00" d="M17.299 9.351c-0.157 0.398-0.33 0.661-0.529 0.905 0.090-0.443 0.128-0.67 0.285-1.069s0.386-0.718 0.571-0.972c-0.080 0.291-0.168 0.735-0.326 1.135z"></path>
<path fill="#005b00" d="M16.77 9.331c-0.036 0.398-0.116 0.707-0.22 1.019-0.027-0.387-0.048-0.58-0.011-0.979s0.147-0.786 0.238-1.096c0.001 0.268 0.030 0.655-0.007 1.055z"></path>
<path fill="#005b00" d="M17.116 9.786c-0.205 0.241-0.378 0.346-0.559 0.414 0.183-0.335 0.272-0.513 0.477-0.754s0.425-0.355 0.602-0.443c-0.131 0.204-0.314 0.54-0.52 0.783z"></path>
<path fill="#005b00" d="M15.368 10.123c0.241 0.29 0.361 0.569 0.452 0.877-0.316-0.215-0.483-0.315-0.724-0.605s-0.377-0.652-0.484-0.945c0.196 0.168 0.513 0.381 0.756 0.673z"></path>
<path fill="#005b00" d="M14.882 12.355c0.302 0.241 0.461 0.49 0.588 0.771-0.384-0.159-0.585-0.231-0.887-0.472s-0.485-0.568-0.63-0.831c0.24 0.132 0.626 0.289 0.929 0.532z"></path>
<path fill="#005b00" d="M16.295 12.223c-0.241 0.386-0.502 0.646-0.802 0.89 0.144-0.423 0.207-0.64 0.448-1.026s0.586-0.703 0.864-0.956c-0.125 0.28-0.268 0.704-0.511 1.092z"></path>
<path fill="#005b00" d="M16.547 12.208c-0.386 0.265-0.722 0.404-1.080 0.512 0.33-0.34 0.49-0.519 0.876-0.784s0.817-0.424 1.163-0.549c-0.242 0.213-0.571 0.554-0.959 0.821z"></path>
<path fill="#005b00" d="M19.15 9.433c-0.169 0.193-0.32 0.307-0.484 0.407 0.139-0.23 0.206-0.35 0.375-0.543s0.364-0.329 0.521-0.437c-0.103 0.148-0.242 0.379-0.412 0.573z"></path>
<path fill="#005b00" d="M18.784 8.863c-0.097 0.205-0.2 0.359-0.318 0.513 0.059-0.205 0.085-0.308 0.182-0.513s0.233-0.398 0.342-0.552c-0.051 0.141-0.109 0.346-0.206 0.552z"></path>
<path fill="#005b00" d="M19.349 9.231c-0.169 0.097-0.296 0.126-0.423 0.135 0.169-0.149 0.254-0.229 0.423-0.326s0.328-0.124 0.455-0.144c-0.116 0.088-0.285 0.237-0.455 0.334z"></path>
<path fill="#005b00" d="M17.018 10.313c-0.302 0.181-0.55 0.286-0.808 0.377 0.276-0.218 0.411-0.332 0.713-0.513s0.617-0.306 0.87-0.404c-0.196 0.139-0.471 0.358-0.774 0.54z"></path>
<path fill="#005b00" d="M17.899 10.583c-0.398 0.241-0.737 0.355-1.095 0.437 0.35-0.323 0.52-0.495 0.919-0.736s0.831-0.368 1.179-0.467c-0.253 0.199-0.602 0.524-1.002 0.767z"></path>
<path fill="#f00" d="M17.675 10.027c0.027 0.045 0.004 0.109-0.053 0.141s-0.124 0.019-0.151-0.027-0.003-0.108 0.053-0.139 0.124-0.019 0.151 0.026z"></path>
<path fill="#f00" d="M18.395 9.607c0.027 0.045 0.004 0.109-0.053 0.141s-0.124 0.019-0.151-0.027-0.003-0.108 0.053-0.139 0.124-0.019 0.151 0.026z"></path>
<path fill="#f00" d="M16.386 11.018c0.019 0.035-0.016 0.089-0.079 0.121s-0.129 0.028-0.148-0.007 0.017-0.089 0.079-0.12 0.129-0.028 0.147 0.007z"></path>
<path fill="#f00" d="M16.599 10.925c0.019 0.035-0.016 0.089-0.079 0.121s-0.129 0.028-0.148-0.007 0.017-0.089 0.079-0.12 0.129-0.028 0.147 0.007z"></path>
<path fill="#f00" d="M16.473 11.125c0.019 0.035-0.016 0.089-0.079 0.121s-0.129 0.028-0.148-0.007 0.017-0.089 0.079-0.12 0.129-0.028 0.147 0.007z"></path>
<path fill="#f00" d="M16.847 11.153c0.027 0.053 0 0.12-0.067 0.153s-0.133 0.013-0.16-0.047 0-0.12 0.067-0.153 0.133-0.013 0.153 0.047z"></path>
<path fill="#f00" d="M17 10.993c0.020 0.053 0 0.12-0.067 0.153s-0.133 0.013-0.167-0.040 0-0.127 0.067-0.16 0.133-0.007 0.16 0.047z"></path>
<path fill="#f00" d="M17.033 11.067c0.027 0.053 0 0.127-0.067 0.153s-0.133 0.013-0.16-0.040 0-0.12 0.067-0.153 0.133-0.013 0.16 0.040z"></path>
<path fill="#0000c4" d="M13.655 12.063c0 0.732-1.369 8.787 2.057 10.982 1.369 0.732 3.422-0.732 3.422 0l-0.684-5.857-4.795-5.125z"></path>
<path fill="#e10000" d="M15.024 13.526c0 0.732-0.684 6.589 1.373 8.056 1.369 1.463 4.795 1.066 4.795 1.066l-2.741-5.46-3.426-3.662z"></path>
<path fill="#000" d="M12.253 10.533l6.32 6.667 0.113-0.107-6.32-6.66-0.107 0.107z"></path>
<path fill="#cececc" d="M11.281 9.743l0.401 0.071 0.118 0.118c-0.016-0.001 0.118 0.118-0.047 0.283s-0.4-0.072-0.4-0.072 0.071 0.401 0.307 0.638 0.519 0.189 0.519 0.189-0.269-0.22-0.071-0.401c0.198-0.182 0.283-0.047 0.283-0.047l0.236 0.236 0.166-0.166-0.945-0.945-0.071-0.401-0.609-0.101 0.111 0.597z"></path>
<path fill="#cececc" d="M12.212 6.941l0.485 0.753 0.615 0.166-0.401 0.26 0.732-0.024 0.331 0.237 0.119-0.19-0.332-0.237-0.259-0.733-0.071 0.497-0.378-0.545-0.84-0.185z"></path>
<path fill="#e10000" d="M14.187 7.393c0 0.040-0.053 0.074-0.115 0.074s-0.117-0.034-0.117-0.074 0.053-0.076 0.117-0.076 0.115 0.034 0.115 0.076zM14.021 7.551c0 0.716 0.557 3.756 0.603 3.83 0.003 0.090-0.128 0.128-0.189 0.018-0.176-0.348-0.555-3.2-0.568-3.866-0.008-0.274 0.099-0.296 0.221-0.29 0.099 0.004 0.221 0.074 0.221 0.158 0 0.1-0.155 0.174-0.288 0.15z"></path>
<path fill="#0000c4" d="M14.4 8.103c-0.020 0.040-0.088 0.061-0.146 0.045s-0.094-0.063-0.074-0.103 0.089-0.063 0.149-0.047 0.092 0.063 0.071 0.105zM14.164 8.22c0.184 1.438-0.433 3.659-0.428 3.746-0.041 0.089-0.186 0.096-0.188-0.031-0.030-0.083 0.68-2.089 0.478-3.771 0.129-0.276 0.242-0.271 0.355-0.235 0.092 0.029 0.173 0.129 0.131 0.213-0.050 0.1-0.234 0.135-0.349 0.078z"></path>
<path fill="#e10000" d="M12.447 10.1c0 0.067-0.067 0.133-0.147 0.133s-0.147-0.067-0.147-0.133 0.067-0.12 0.147-0.12c0.080 0 0.14 0.053 0.14 0.12zM12.233 10.367c0 1.193 0.7 6.26 0.753 6.387 0 0.147-0.153 0.213-0.233 0.027-0.22-0.58-0.693-5.333-0.713-6.44-0.007-0.46 0.127-0.493 0.28-0.487 0.127 0.007 0.273 0.127 0.273 0.267 0 0.16-0.193 0.287-0.36 0.247z"></path>
<path fill="#0000c4" d="M12.807 10.716c-0.027 0.064-0.113 0.098-0.187 0.075s-0.118-0.098-0.091-0.162 0.115-0.102 0.191-0.078 0.115 0.097 0.087 0.165zM12.503 10.906c0.189 2.28-0.664 5.821-0.661 5.96-0.055 0.142-0.239 0.157-0.238-0.045-0.036-0.131 0.93-3.333 0.725-6.001 0.173-0.441 0.316-0.437 0.459-0.381 0.116 0.043 0.216 0.201 0.16 0.336-0.067 0.16-0.302 0.22-0.446 0.132z"></path>
<path fill="#000" d="M24.693 19.387l4.833 5.1 0.087-0.107-4.833-5.1-0.087 0.107zM21.333 20.22l6.32 6.667 0.107-0.107-6.313-6.667-0.113 0.107z"></path>
<path fill="#808080" d="M27.634 26.809l0.591 0.591 0.673 0.508-0.508-0.673-0.591-0.591-0.165 0.165z"></path>
<path fill="#808080" d="M29.261 24.202l0.591 0.591 0.673 0.508-0.508-0.673-0.591-0.591-0.165 0.165z"></path>
<path fill="#ffdf00" d="M28.804 7.653s0.531 14.362-1.593 14.362-3.189-1.51-3.189-1.51l0.024-7.893 4.758-4.958z"></path>
<path fill="#0000c4" d="M27.505 8.993c0 0.755 0.237 11.511-0.825 11.511s-2.658-0.755-2.658-0.755l0.024-7.138 3.459-3.618z"></path>
<path fill="#e10000" d="M26.815 9.718c0 0.755-0.135 9.276-1.2 9.276h-1.593l0.024-6.383 2.769-2.893z"></path>
<path fill="#000" d="M28.92 7.733l-4.827 5.1-0.087-0.107 4.827-5.1 0.087 0.107z"></path>
<path fill="#005b00" d="M25.11 11.672s1.353 1.736 2.006 3.078c0.652 1.344 1.414 3.393 1.414 3.393s-0.435-2.017-1.257-3.634c-1.076-2.034-2.164-2.721-2.163-2.837z"></path>
<path fill="#005b00" d="M25.063 10.293s1.51 2.147 2.199 3.739c0.688 1.595 1.455 3.987 1.455 3.987s-0.372-2.301-1.245-4.226c-1.15-2.429-2.419-3.373-2.409-3.5z"></path>
<path fill="#005b00" d="M26.366 8.17s1.068 3.179 1.394 5.145c0.324 1.968 0.522 4.676 0.522 4.676s0.206-2.273-0.231-4.685c-0.604-3.089-1.729-5.037-1.685-5.136z"></path>
<path fill="#005b00" d="M25.407 8.024s1.479 2.824 2.055 4.742c0.575 1.921 1.115 4.694 1.115 4.694s-0.078-2.518-0.822-4.854c-0.998-2.967-2.381-4.455-2.348-4.582z"></path>
<path fill="#005b00" d="M27.184 8.923s0.736 3.040 0.921 4.854c0.183 1.815 0.236 4.264 0.236 4.264s0.256-1.982-0.001-4.215c-0.365-2.868-1.196-4.824-1.156-4.902z"></path>
<path fill="#005b00" d="M25.238 9.007s1.431 2.419 2.010 4.109c0.578 1.693 1.147 4.168 1.147 4.168s-0.138-2.293-0.883-4.347c-0.994-2.603-2.301-3.811-2.274-3.931z"></path>
<path fill="#005b00" d="M24.97 10.691s1.51 1.917 2.199 3.386c0.688 1.471 1.455 3.706 1.455 3.706s-0.372-2.189-1.245-3.96c-1.15-2.229-2.419-3.007-2.409-3.132z"></path>
<path fill="#005b00" d="M25.166 9.81s1.389 2.256 1.994 3.887c0.604 1.635 1.246 4.059 1.246 4.059s-0.257-2.298-1.027-4.274c-1.020-2.498-2.228-3.548-2.213-3.672z"></path>
<path fill="#005b00" d="M26.67 8.218s0.893 3.113 1.114 5.014c0.22 1.903 0.277 4.504 0.277 4.504s0.319-2.157 0.011-4.492c-0.439-2.994-1.451-4.934-1.402-5.025z"></path>
<path fill="#005b00" d="M25.445 7.442s1.304 2.932 1.776 4.89c0.47 1.961 0.87 4.766 0.87 4.766s0.035-2.515-0.581-4.902c-0.834-3.037-2.102-4.63-2.066-4.754z"></path>
<path fill="#005b00" d="M27.521 9.146s0.561 2.919 0.642 4.648c0.079 1.73-0.009 4.055-0.009 4.055s0.369-1.867 0.241-3.997c-0.2-2.738-0.918-4.633-0.874-4.706z"></path>
<path fill="#005b00" d="M25.278 8.651s1.304 2.527 1.776 4.257c0.47 1.733 0.87 4.241 0.87 4.241s0.035-2.29-0.581-4.395c-0.834-2.672-2.102-3.986-2.066-4.103z"></path>
<path fill="#ffdf00" d="M30.38 10.596s1.369 13.913-2.738 13.913c-3.422 0-3.422-2.195-4.106-2.195l0.684-5.125 6.163-6.593z"></path>
<path fill="#0000c4" d="M29.011 12.063c0 0.732 1.369 8.787-2.057 10.982-1.369 0.732-3.422-0.732-3.422 0l0.684-5.857 4.795-5.125z"></path>
<path fill="#e10000" d="M27.643 13.526c0 0.732 0.684 6.589-1.373 8.056-1.369 1.463-4.795 1.066-4.795 1.066l2.741-5.46 3.426-3.662z"></path>
<path fill="#000" d="M30.413 10.533l-6.32 6.667-0.113-0.107 6.32-6.66 0.113 0.107z"></path>
<path fill="#cececc" d="M31.386 9.743l-0.401 0.071-0.118 0.118c0.016-0.001-0.118 0.118 0.047 0.283s0.4-0.072 0.4-0.072-0.071 0.401-0.307 0.638-0.519 0.189-0.519 0.189 0.269-0.22 0.071-0.401c-0.198-0.182-0.283-0.047-0.283-0.047l-0.236 0.236-0.166-0.166 0.945-0.945 0.071-0.401 0.609-0.101-0.111 0.597z"></path>
<path fill="#cececc" d="M30.455 6.941l-0.485 0.753-0.615 0.166 0.401 0.26-0.732-0.024-0.331 0.237-0.119-0.19 0.332-0.237 0.259-0.733 0.071 0.497 0.378-0.545 0.84-0.185z"></path>
<path fill="#e10000" d="M28.487 7.393c0 0.040 0.053 0.074 0.115 0.074s0.117-0.034 0.117-0.074-0.053-0.076-0.117-0.076-0.115 0.034-0.115 0.076zM28.652 7.551c0 0.716-0.557 3.756-0.603 3.83-0.003 0.090 0.128 0.128 0.189 0.018 0.176-0.348 0.555-3.2 0.568-3.866 0.008-0.274-0.099-0.296-0.221-0.29-0.099 0.004-0.221 0.074-0.221 0.158 0 0.1 0.155 0.174 0.288 0.15z"></path>
<path fill="#0000c4" d="M28.267 8.103c0.020 0.040 0.088 0.061 0.146 0.045s0.094-0.063 0.074-0.103-0.089-0.063-0.149-0.047-0.092 0.063-0.071 0.105zM28.503 8.22c-0.184 1.438 0.433 3.659 0.428 3.746 0.041 0.089 0.186 0.096 0.188-0.031 0.030-0.083-0.68-2.089-0.478-3.771-0.129-0.276-0.242-0.271-0.355-0.235-0.092 0.029-0.173 0.129-0.131 0.213 0.050 0.1 0.234 0.135 0.349 0.078z"></path>
<path fill="#e10000" d="M30.227 10.1c0 0.067 0.067 0.133 0.14 0.133 0.080 0 0.147-0.067 0.147-0.133s-0.067-0.12-0.147-0.12c-0.080 0-0.14 0.053-0.14 0.12zM30.427 10.367c-0.187 2.479-0.452 4.671-0.807 6.832l0.060-0.445c0 0.147 0.153 0.213 0.233 0.027 0.22-0.58 0.693-5.333 0.713-6.44 0.007-0.46-0.127-0.493-0.28-0.487-0.127 0.007-0.273 0.127-0.273 0.267 0 0.16 0.193 0.287 0.36 0.247z"></path>
<path fill="#0000c4" d="M29.86 10.716c0.027 0.064 0.113 0.098 0.187 0.075s0.118-0.098 0.091-0.162-0.115-0.102-0.191-0.078-0.115 0.097-0.087 0.165zM30.164 10.906c-0.189 2.28 0.664 5.821 0.661 5.96 0.055 0.142 0.239 0.157 0.238-0.045 0.036-0.131-0.93-3.333-0.725-6.001-0.173-0.441-0.316-0.437-0.459-0.381-0.116 0.043-0.216 0.201-0.16 0.336 0.067 0.16 0.302 0.22 0.446 0.132z"></path>
<path fill="#e10000" d="M19.138 28.171c0.295 0.184 0.649 0.293 1.027 0.293s0.732-0.109 1.036-0.298l-0.010 0.006v-5.857h-1.369c0.684 2.195 0.684 4.394-0.688 5.857z"></path>
<path fill="#0000c4" d="M20.222 22.443c0 4.13-0.992 5.049-0.992 5.88 0.413 0 0.688-0.387 0.992-0.919 0.413-0.831 0.453-5.026 0.413-4.961h-0.413z"></path>
<path fill="#0000c4" d="M19.396 22.443c-0.021 2.413-1.045 4.648-0.852 5.143 0.219 0.443 0.852-1.013 1.678-0.187 0.413-0.826 0.453-5.021 0.413-4.961h-1.239z"></path>
<path fill="#ffdf00" d="M19.489 22.091c0 2.714-0.95 2.895-0.95 3.619 0.413 0 0.947-0.396 0.95-0.359 0.413-0.546 0.453-3.303 0.413-3.26h-0.413z"></path>
<path fill="#ffdf00" d="M18.663 22.091c-0.021 1.585-1.022 2.935-0.828 3.26 0.222 0.288 0.828-0.546 1.654 0 0.413-0.546 0.453-3.303 0.413-3.26h-1.239z"></path>
<path fill="#e10000" d="M23.529 28.171c-0.295 0.184-0.649 0.293-1.027 0.293s-0.732-0.109-1.036-0.298l0.010 0.006v-5.857h1.369c-0.684 2.195-0.684 4.394 0.688 5.857z"></path>
<path fill="#0000c4" d="M22.445 22.443c0 4.13 0.992 5.049 0.992 5.88-0.413 0-0.688-0.387-0.992-0.919-0.413-0.831-0.453-5.026-0.413-4.961h0.413z"></path>
<path fill="#0000c4" d="M23.271 22.443c0.021 2.413 1.045 4.648 0.852 5.143-0.219 0.443-0.852-1.013-1.678-0.187-0.413-0.826-0.453-5.021-0.413-4.961h1.239z"></path>
<path fill="#ffdf00" d="M23.178 22.091c0 2.714 0.95 2.895 0.95 3.619-0.413 0-0.947-0.396-0.95-0.359-0.413-0.546-0.453-3.303-0.413-3.26h0.413z"></path>
<path fill="#ffdf00" d="M24.004 22.091c0.021 1.585 1.022 2.935 0.828 3.26-0.222 0.288-0.828-0.546-1.654 0-0.413-0.546-0.453-3.303-0.413-3.26h1.239z"></path>
<path fill="#908f8a" d="M16.109 22.771l-0.718 0.519 0.718 0.519 0.358-0.26 0.179 0.26 0.179 0.519 0.18-0.519 0.179-0.26h9.615v-0.519h-9.616l-0.179-0.261c0-0.26 0.038-0.519 0.18-0.519h0.717c0-0.26-0.358-0.779-1.076-0.779s-1.076 0.519-1.076 0.779h0.718c0.142 0 0.179 0.26 0.179 0.521l-0.179 0.26-0.359-0.261z"></path>
<path fill="#b74d00" d="M18.214 24.029h6.285v0.319h-6.283zM18.214 23.709h6.285v0.32h-6.283zM18.214 23.39h6.285v0.32h-6.283zM18.214 23.072h6.285v0.319h-6.283zM18.214 22.753h6.285v0.319h-6.283zM18.214 22.433h6.285v0.32h-6.283zM18.214 22.116h6.285v0.317h-6.283z"></path>
<path fill="#908f8a" d="M18.513 22.097l2.297 2.232h0.328l-2.295-2.23h-0.328z"></path>
<path fill="#908f8a" d="M18.513 24.396l2.297-2.232h0.328l-2.295 2.23h-0.328z"></path>
<path fill="#908f8a" d="M18.577 22.097v2.232h0.33v-2.232h-0.33z"></path>
<path fill="#908f8a" d="M21.467 22.097l2.297 2.232h0.328l-2.295-2.23h-0.328z"></path>
<path fill="#908f8a" d="M21.467 24.396l2.297-2.232h0.328l-2.295 2.23h-0.328z"></path>
<path fill="#908f8a" d="M23.83 22.097v2.232h0.33v-2.232h-0.33z"></path>
<path fill="#908f8a" d="M21.537 22.097v2.232h0.33v-2.232h-0.33z"></path>
<path fill="#908f8a" d="M20.87 22.097v2.232h0.33v-2.232h-0.33z"></path>
<path fill="#ffdf00" d="M25.986 15.721c0-3.637-2.146-6.589-4.795-6.589s-4.795 2.955-4.795 6.593c0 3.637 2.15 6.589 4.795 6.589s4.795-2.951 4.795-6.589zM25.302 15.725c0 3.232-1.841 5.857-4.11 5.857s-4.11-2.625-4.11-5.857c0-3.236 1.841-5.861 4.11-5.861s4.11 2.625 4.11 5.861z"></path>
<path fill="#ffdf00" d="M23.059 9.653c-0.576-0.335-1.206-0.521-1.868-0.521s-1.291 0.186-1.868 0.517l0.271 0.678c0.459-0.288 1.010-0.457 1.599-0.457s1.14 0.17 1.614 0.466l-0.015-0.009 0.267-0.678z"></path>
<path fill="#ffdf00" d="M23.072 21.62c-0.576 0.335-1.206 0.521-1.868 0.521s-1.291-0.186-1.868-0.517l0.271-0.678c0.459 0.288 1.010 0.457 1.599 0.457s1.14-0.17 1.614-0.466l-0.015 0.009 0.267 0.678z"></path>
<path fill="#a7cfff" d="M25.307 15.727c0 3.233-1.847 5.853-4.113 5.853s-4.107-2.62-4.107-5.853 1.84-5.867 4.107-5.867 4.113 2.627 4.113 5.867z"></path>
<path fill="#afff7b" d="M25.302 15.725c0.043 1.099-0.178 1.637-0.46 2.782-0.073 0.124-0.425-0.269-0.634-0.463s-0.302 0.174-0.565-0.124c-0.259-0.306-0.425 0.083-0.619-0.174s-1.984-0.289-1.984-0.314c0.178-0.091 1.090 0.008 0.943-0.459-0.166-0.488-1.199-0.017-1.338-0.637-0.097-0.62-2.073-0.645-2.216-0.794 0.058 0.231 1.539 0.331 1.504 0.93-0.035 0.248-1.458 0.318-1.597 0.525-0.116 0.26 1.121-0.070 1.164 0.248 0 0.132-0.182 0-0.824 0.207-0.325 0.103 0.595 0.426 0.247 0.603s-1.094 0.256-1.063 0.331c0.116 0.372 1.728 0.81 1.57 0.872-0.572 0.273-0.874 0.451-1.148 0.608-0.753-1.118-1.203-2.515-1.203-4.025 0-0.041 0-0.082 0.001-0.123l-0 0.006c1.226-0.471 0.967-0.57 3.233-0.57s3.016 0.095 4.988 0.57z"></path>
<path fill="#fff" d="M25.302 15.725c-0.309 0-0.634 0.141-0.967 0.141-0.336 0-0.677-0.145-1.025-0.145s-0.746 0.19-1.102 0.19c-0.36 0-0.673-0.186-1.032-0.186s-0.719 0.141-1.075 0.141-0.708-0.145-1.052-0.145-0.684 0.145-1.013 0.145-0.65-0.145-0.955-0.145c0-0.806 0.116-1.575 0.325-2.277 1.044 0.083 0.425-0.649 1.044-0.649 0.021-0.001 0.045-0.002 0.069-0.002 0.356 0 0.678 0.156 0.909 0.407l0 0c0.093 0 0.557-0.471 1.079-0.405 0.518 0.066 0.329 1.128 1.021 1.182 0.348 0.281 0.553 0.459 1.032 0.575 0.684 0.066 2.645-0.103 2.656-0.008 0.054 0.355 0.085 0.765 0.085 1.182v0z"></path>
<path fill="#000" d="M21.812 19.135c0-0.182 0.18-0.304 0.18-0.595s-0.16-0.298-0.165-0.57c-0.003-0.112 0.137-0.224 0.199-0.237s0.113 0.237 0.113 0.291-0.063-0.134-0.115-0.138-0.164 0.019-0.164 0.074c0 0.109 0.197 0.243 0.183 0.608-0.015 0.358-0.169 0.467-0.169 0.576s0.067 0.41 0.067 0.41-0.129-0.24-0.129-0.422z"></path>
<path fill="#000" d="M22.388 19.108c0-0.182-0.18-0.304-0.18-0.595s0.16-0.298 0.165-0.57c0.013-0.128-0.157-0.211-0.219-0.221s-0.133 0.256-0.133 0.307 0.072-0.166 0.124-0.17 0.195 0.019 0.195 0.074c0 0.109-0.197 0.243-0.183 0.608 0.015 0.358 0.169 0.467 0.169 0.576s-0.067 0.41-0.067 0.41 0.129-0.24 0.129-0.422z"></path>
<path fill="#000" d="M22.2 17.66c0 0.087-0.047 0.16-0.1 0.16s-0.093-0.073-0.093-0.167 0.040-0.16 0.093-0.16c0.053 0 0.1 0.073 0.1 0.167zM23.333 18.26h0.027v1.3h-0.033zM23.607 18.153h0.033v1.313h-0.033z"></path>
<path fill="#000" d="M23.507 18.747v-0.033l0.267 0.047v0.033z"></path>
<path fill="#b74d00" d="M19.696 19.124s1.005 0.471 1.226 0.752c0.217 0.281 0.131 0.281 0.131 0.281l2.231 0.095c0-0.141 0.394-0.141 0.483-0.471 0.089-0.327 0.089-0.422 0.089-0.422l-0.7 0.236 0.039-0.422h-0.611l-0.089 0.422-1.315-0.045 0.089-1.128-0.263 0.045-0.039 1.075c-0.046 0-1.23-0.327-1.276-0.417z"></path>
<path fill="#fede00" d="M17.673 12.394s1.458-0.463 3.561-0.43 3.561 0.529 3.53 0.529-0.402-0.761-0.402-0.761-1.485-0.434-3.159-0.467c-1.67-0.033-3.128 0.331-3.093 0.364l-0.437 0.765z"></path>
<path fill="#38a9f9" d="M20.4 11.32l0.907-0.013 0.013 0.527-0.907 0.020zM18.32 11.607l-0.32 0.527 1.080-0.133-0.087-0.513-0.673 0.133zM19.233 11.407l0.907-0.073 0.040 0.52-0.9 0.080zM22.493 11.36l-0.9-0.067-0.033 0.533 0.9 0.053zM24.44 11.693l0.327 0.64-0.973-0.24 0.107-0.513 0.533 0.107zM23.653 11.493l-0.893-0.113-0.067 0.52 0.9 0.12z"></path>
<path fill="#ffdf00" d="M21.234 12.691l-0.097-0.558-0.294 0.475 0.108-0.558-0.437 0.318 0.294-0.467-0.518 0.116 0.445-0.314-0.522-0.103 0.522-0.107-0.445-0.314 0.518 0.116-0.298-0.467 0.441 0.318-0.108-0.558 0.294 0.475 0.097-0.558 0.101 0.558 0.29-0.475-0.104 0.558 0.437-0.318-0.298 0.467 0.522-0.116-0.445 0.314 0.522 0.107-0.522 0.103 0.445 0.314-0.522-0.116 0.298 0.467-0.437-0.318 0.108 0.558-0.294-0.475z"></path>
<path fill="#ffdf00" d="M22.006 11.25c0 0.31-0.251 0.56-0.562 0.56s-0.562-0.25-0.562-0.56 0.251-0.563 0.562-0.563 0.562 0.253 0.562 0.567z"></path>
<path fill="#000" d="M21.38 11.373c0 0.033-0.087 0.067-0.187 0.067s-0.187-0.033-0.187-0.067 0.080-0.067 0.187-0.067 0.187 0.027 0.187 0.067zM21.78 11.373c0 0.033-0.060 0.067-0.133 0.067s-0.147-0.033-0.147-0.067c0-0.040 0.067-0.067 0.14-0.067s0.14 0.027 0.14 0.067z"></path>
<path fill="#b7e1ff" d="M18.76 12.987s0.067 0.533-0.34 1.2c-0.4 0.66-0.34 0.427-0.34 0.427s0.187 0.367 0.153 0.367-0.313-0.333-0.313-0.333l-0.333 0.367s0.307-0.567 0.273-0.567-0.093-0.2-0.093-0.2l0.247-0.1s0.373-0.693 0.373-0.66-1.113 0.76-1.113 0.76l1.487-1.253zM19.007 13.187c-0.033 0 0.153 0.533 0.313 0.8 0.153 0.267 0.153 0.593 0.153 0.593l0.527 0.267-0.68-1.027 0.433 0.16-0.747-0.793zM19.007 14.58s0.373 0.4 0.4 0.533 0.033 0.427 0.033 0.427l-0.153-0.333-0.22 0.3s0.16-0.467 0.127-0.5-0.247 0.167-0.247 0.167 0.093-0.267 0.093-0.293 0-0.2-0.033-0.3zM17.147 15.507c0.127-0.1 0.373-0.167 0.373-0.167s-0.153 0.267-0.187 0.267-0.12 0-0.187-0.1zM21.42 14.053s0.807 0.493 0.807 0.527-0.527-0.233-0.527-0.233l-0.28-0.293zM19.967 13.020c0.067 0.033 1.18 0.96 1.147 0.96s-0.493-0.267-0.493-0.227v0.227l-0.253-0.527-0.060 0.2-0.333-0.633zM20.247 14.513l0.307 0.627 0.313-0.067s-0.587-0.56-0.62-0.56zM21.207 14.113l0.033 0.6s0.18 0.167 0.18 0.133-0.18-0.7-0.213-0.733z"></path>
<path fill="#984000" d="M12.173 5.967s1.4-0.773 2.993-1.347c1.024-0.391 2.238-0.725 3.492-0.943l0.121-0.017c0.467 0 1.28 1.187 1.413 1.187s0.673-0.333 1.353-0.333 1.073 0.533 1.213 0.533h1.213c0.133 0-0.407-1.32 0-1.253 0.2 0.033 1.92 0.3 3.52 0.813 1.6 0.52 3.867 1.44 3.867 1.44s-3.7 0.487-4.693 0.347c-0.133 0.067 0 0.867-0.2 0.513-0.307-0.067-1.447-0.247-1.647-0.247s-0.58 0.227-1.12 0.36c-0.533 0.133-1.213 0.333-1.213 0.333l0.88 1.38-1.080 0.533s-0.673-1.587-0.947-1.587-0.4 1.12-0.74 1.053c-0.333-0.067-0.467-1.053-0.74-1.32-0.267-0.26-1.693-0.36-2.233-0.487-0.533-0.133-1.407-0.233-1.88-0.367-0.467-0.133-0.947 0.333-1.147 0.333s0.267-0.4 0.067-0.467-0.333 0.2-0.467 0.2-1.553-0.267-1.687-0.333 0.333-0.327 0.2-0.327h-0.54z"></path>
<path fill="#808080" d="M22.231 5.307c0 0.367-0.302 0.666-0.673 0.666s-0.672-0.298-0.672-0.666 0.301-0.664 0.672-0.664 0.673 0.298 0.673 0.664z"></path>
<path fill="#984000" d="M18.818 5.433c0.121-0.141 0.27-0.354 0.661-0.354 0.090-0.036 0.090-0.25 0.299-0.25 0.211 0 0.149 0.213 0.301 0.286 0.149 0.070 1.379-0.073 1.379-0.073s0.119 0.107 0.119 0.25-0.090 0.247-0.119 0.247-1.229-0.107-1.319-0.070c-0.090 0.036-0.149 0.070-0.36 0.070-0.209 0-0.27-0.247-0.419-0.247s-0.299-0.036-0.54 0.143z"></path>
<path fill="#812e00" d="M20.507 8.367s-0.027 0.333-0.24 0.553-0.653 0.473-0.653 0.473 0.593-0.28 0.653-0.22c0.067 0.067-0.38 0.553-0.38 0.553s0.58-0.513 0.653-0.513 0.24 0.5 0.307 0.487c0.060-0.013-0.133-0.633-0.107-0.733 0.027-0.093 0-0.62 0-0.62l-0.227 0.020zM21.873 8.327s-0.027 0.353-0.24 0.587-0.653 0.507-0.653 0.507 0.593-0.3 0.653-0.233c0.067 0.067-0.38 0.587-0.38 0.587s0.58-0.547 0.653-0.547 0.24 0.533 0.307 0.52c0.060-0.013-0.133-0.68-0.107-0.78 0.027-0.107 0-0.667 0-0.667l-0.233 0.027zM19.96 5.127c0 0.060-0.067 0.113-0.14 0.113s-0.147-0.053-0.147-0.12 0.067-0.12 0.147-0.12 0.14 0.053 0.14 0.12z"></path>
</svg>
