<!-- Generated by IcoMoon.io -->
<svg version="1.1" xmlns="http://www.w3.org/2000/svg" width="43" height="32" viewBox="0 0 43 32">
<title>eg</title>
<path fill="#000" d="M0 21.333h42.667v10.667h-42.667z"></path>
<path fill="#fff" d="M0 10.667h42.667v10.667h-42.667z"></path>
<path fill="#ce1126" d="M0 0h42.667v10.667h-42.667z"></path>
<path fill="#fff" d="M21.376 16.128l3.653 3.392-0.261-6.16c-0.037-0.933-0.848-0.72-1.44-0.384-0.592 0.384-1.28 0.384-1.995 0.133-0.72 0.251-1.403 0.251-1.995-0.133-0.587-0.336-1.403-0.549-1.44 0.384l-0.261 6.16 3.739-3.392z"></path>
<path fill="#c09300" d="M18.32 13.147l-0.256 5.989-0.427 0.384 0.261-6.16c0.12-0.093 0.26-0.166 0.412-0.211l0.009-0.002zM18.832 13.573l-0.213 5.013-0.427 0.437 0.256-5.787c0.085 0.085 0.336 0.293 0.384 0.336zM19.296 13.957l-0.165 4.181-0.347 0.336 0.213-4.768c0.085 0.080 0.256 0.203 0.299 0.251zM19.803 14.171l-0.165 3.563-0.336 0.272 0.165-3.963c0.085 0.037 0.251 0.128 0.336 0.128zM20.272 14.171l-0.123 2.971-0.347 0.336 0.133-3.269c0.080 0 0.299 0 0.336-0.037z"></path>
<path fill="#c09300" d="M24.347 13.147l0.256 5.989 0.427 0.384-0.261-6.16c-0.12-0.093-0.26-0.166-0.412-0.211l-0.009-0.002zM23.835 13.573l0.213 5.013 0.427 0.437-0.256-5.787c-0.085 0.085-0.336 0.293-0.384 0.336zM23.371 13.957l0.165 4.181 0.347 0.336-0.213-4.768c-0.085 0.080-0.256 0.203-0.299 0.251zM22.864 14.171l0.165 3.563 0.336 0.272-0.165-3.963c-0.085 0.037-0.251 0.128-0.336 0.128zM22.395 14.171l0.123 2.971 0.347 0.336-0.133-3.269c-0.080 0-0.299 0-0.336-0.037z"></path>
<path fill="#c09300" d="M21.504 16.8l0.512 2.336-0.171 0.171-0.176-0.133-0.288-2.080 0.123 2.080-0.171 0.213-0.165-0.213 0.123-2.080-0.293 2.080-0.176 0.133-0.171-0.171 0.512-2.331h0.341z"></path>
<path fill="#fff" d="M20.187 15.776l-1.019 3.611 1.403 0.213 0.592-2.715-0.976-1.109z"></path>
<path fill="#fff" d="M22.48 15.776l1.019 3.611-1.403 0.213-0.592-2.715 0.976-1.109z"></path>
<path fill="#fff" d="M21.333 21.003c1.067 0 2.080-0.085 2.677-0.251 0.251-0.048 0.251-0.176 0.251-0.347 0.256-0.085 0.128-0.384 0.304-0.384-0.181 0.053-0.213-0.293-0.427-0.251 0-0.299-0.304-0.336-0.555-0.251-0.507 0.165-1.403 0.208-2.251 0.208-0.853-0.043-1.739-0.043-2.251-0.213-0.251-0.080-0.549-0.043-0.549 0.256-0.213-0.043-0.251 0.299-0.427 0.251 0.176 0 0.043 0.304 0.299 0.384 0 0.171 0 0.299 0.256 0.347 0.587 0.165 1.611 0.251 2.672 0.251z"></path>
<path fill="#fff" d="M19.888 19.387c0.341 0.048 0.725 0.085 1.024 0.048 0.171 0 0.293 0.293-0.048 0.336-0.293 0.037-0.763 0-1.013-0.043-0.411-0.072-0.742-0.146-1.067-0.233l0.086 0.020c-0.299-0.128-0.085-0.373 0.085-0.341 0.264 0.088 0.579 0.163 0.903 0.21l0.030 0.004zM22.779 19.387c-0.341 0.048-0.725 0.085-1.013 0.048-0.181 0-0.304 0.293 0.037 0.336 0.299 0.037 0.763 0 1.013-0.043 0.213-0.043 0.683-0.123 0.981-0.213 0.299-0.128 0.085-0.373-0.085-0.341-0.264 0.088-0.579 0.163-0.903 0.21l-0.030 0.004z"></path>
<path fill="#fff" d="M18.827 19.221c-0.256-0.048-0.373 0.251-0.293 0.421 0.037-0.085 0.213-0.085 0.251-0.171 0.048-0.128-0.037-0.128 0.048-0.251zM19.851 20.005c0-0.171 0.165-0.149 0.165-0.32 0-0.080-0.043-0.213-0.128-0.213-0.092 0.005-0.165 0.079-0.171 0.17l-0 0c-0.037 0.165 0.133 0.192 0.133 0.363zM21.061 19.52c0.251 0 0.224 0.336 0.107 0.507 0-0.123-0.213-0.171-0.213-0.256 0-0.128 0.192-0.128 0.107-0.251zM23.835 19.221c0.261-0.048 0.384 0.251 0.299 0.421-0.037-0.085-0.213-0.085-0.251-0.171-0.048-0.128 0.037-0.128-0.048-0.251zM22.827 20c0-0.171-0.171-0.149-0.171-0.32 0-0.080 0.043-0.213 0.128-0.213 0.092 0.005 0.165 0.079 0.171 0.17l0 0c0.037 0.165-0.133 0.192-0.133 0.363zM21.6 19.52c-0.251 0-0.224 0.336-0.107 0.507 0-0.123 0.213-0.171 0.213-0.256 0-0.128-0.192-0.128-0.107-0.251z"></path>
<path fill="#fff" d="M18.917 19.307c0.085 0 0.213 0.037 0.251 0.085l-0.251-0.085zM19.339 19.435c0.043 0 0.213 0.037 0.293 0.085l-0.293-0.085zM20.864 19.605c-0.080 0-0.251 0-0.293 0.037l0.293-0.043zM20.4 19.605c-0.048-0.048-0.213-0.048-0.299 0h0.299zM23.749 19.307c-0.095 0.001-0.182 0.033-0.252 0.086l0.001-0.001 0.251-0.085zM23.333 19.435c-0.053 0-0.213 0.037-0.299 0.085l0.299-0.085zM21.803 19.605c0.080 0 0.251 0 0.299 0.037l-0.299-0.043zM22.267 19.605c0.048-0.048 0.213-0.048 0.299 0h-0.299z"></path>
<path fill="#c09300" d="M18.843 19.979c-0.027-0.005-0.043-0.032-0.032-0.053 0.005-0.037 0.032-0.053 0.053-0.043 0.021 0 0.048 0.032 0.048 0.043l-0.021 0.037-0.011 0.005c0 0.011-0.021 0.011-0.037 0.011zM21.776 20.187c-0.011 0-0.032-0.027-0.032-0.037 0-0.021 0.032-0.053 0.053-0.053l0.043 0.021c0.016 0.016 0.016 0.048-0.005 0.064-0.011 0.011-0.043 0.011-0.059 0zM21.792 20.32c-0.021-0.011-0.027-0.021-0.032-0.043 0-0.027 0-0.032 0.027-0.048l0.021-0.011 0.021 0.011c0.021 0.011 0.037 0.021 0.037 0.043 0 0.016-0.016 0.032-0.037 0.043-0.016 0.011-0.021 0.011-0.037 0z"></path>
<path fill="#c09300" d="M19.083 19.733c-0.021 0-0.048 0.021-0.064 0.032-0.032 0.005-0.075 0.027-0.107 0-0.032-0.005-0.075 0-0.080 0.043 0.005 0.037 0.053 0.053 0.085 0.032 0.021-0.027 0.080-0.048 0.091 0-0.027 0.043-0.021 0.091-0.043 0.128 0 0.027-0.016 0.048-0.027 0.069-0.027 0-0.053 0-0.075 0.016-0.035 0-0.066 0.017-0.085 0.042l-0 0c-0.021 0.032-0.043 0.064-0.048 0.107 0.005 0.032 0.053 0.043 0.085 0.048l0.107 0.032 0.171 0.048c0.085 0.027 0.171 0.037 0.256 0.059l0.027 0.005c0.037 0.011 0.053-0.027 0.053-0.053l0.053-0.192c0.011-0.027 0.027-0.080-0.021-0.069-0.027 0.016-0.053 0.043-0.085 0.043-0.048 0-0.021 0.053 0 0.069 0 0.032-0.011 0.069-0.027 0.096-0.032 0.016-0.064 0-0.096-0.011-0.027 0-0.091-0.016-0.064-0.053l0.027-0.096c0.016-0.032 0.016-0.069 0.027-0.107-0.021-0.037-0.053 0.016-0.080 0.021-0.021 0.011-0.085 0.016-0.053 0.053 0.032 0.021 0.011 0.059 0 0.091 0 0.037-0.043 0.053-0.075 0.037-0.032 0-0.080-0.027-0.053-0.059l0.027-0.096 0.037-0.107c0-0.037 0.016-0.064 0.032-0.096 0-0.037 0.027-0.069 0.027-0.107 0-0.016-0.011-0.021-0.021-0.021zM18.885 20.123c0.002-0.001 0.005-0.002 0.008-0.002s0.006 0.001 0.008 0.002l-0-0c0.011 0.011 0.011 0.021 0 0.032l-0.016 0.011c-0.027 0-0.032-0.005-0.032-0.016 0-0.005 0-0.011 0.016-0.016 0.006-0.004 0.013-0.008 0.021-0.011l0.001-0zM18.832 20.389c-0.027-0.021-0.021-0.037 0.016-0.069 0.021-0.011 0.027-0.011 0.048 0.005 0.032 0.027 0.032 0.043 0 0.069-0.011 0.011-0.016 0.011-0.027 0.011-0.016 0-0.021 0-0.037-0.011zM18.992 20.443c-0.020-0.006-0.034-0.024-0.034-0.046 0-0.005 0.001-0.009 0.002-0.013l-0 0c0.011-0.021 0.016-0.027 0.048-0.027 0.037 0 0.043 0.005 0.048 0.037 0 0.021 0 0.027-0.016 0.037-0.009 0.007-0.021 0.012-0.033 0.012-0.003 0-0.007-0-0.010-0.001l0 0zM23.749 20.443c-0.011-0.005-0.016-0.011-0.016-0.027 0-0.021 0.011-0.037 0.043-0.048 0.032-0.016 0.053-0.016 0.064 0.011 0.016 0.032 0.016 0.043-0.005 0.064-0.011 0.016-0.016 0.016-0.043 0.016s-0.032 0-0.043-0.011zM19.216 20.507c-0.021 0-0.032-0.021-0.032-0.043 0-0.016 0-0.021 0.011-0.032l0.032-0.011 0.032 0.005c0.027 0.021 0.032 0.043 0.016 0.064s-0.032 0.021-0.064 0.016zM20.379 20.56l-0.011-0.016c0-0.032 0-0.059 0.011-0.091 0.005-0.027 0-0.053 0.011-0.080l0.021-0.149c0-0.027 0-0.053 0.011-0.075 0.005-0.043 0-0.080 0.011-0.117 0-0.016 0.016-0.053 0.032-0.032 0.021 0.032 0.048 0.053 0.075 0.080 0.021 0.016 0 0.037-0.016 0.043-0.021 0.005-0.027 0.032-0.027 0.053l-0.011 0.064c0 0.037 0 0.069-0.011 0.107l-0.005 0.096-0.011 0.064c0 0.021 0 0.048-0.021 0.059-0.016 0.011-0.043 0.011-0.053-0.005zM21.963 20.037l-0.069 0.064c-0.032 0.027 0.027 0.037 0.032 0.059 0.011 0.032 0.011 0.064 0.011 0.096 0.011 0.032 0.016 0.059 0.011 0.091 0 0.037-0.043 0.027-0.064 0.048-0.027 0.011-0.037 0.037-0.053 0.053-0.012 0.025-0.020 0.054-0.021 0.085l-0 0.001c0 0.027-0.016 0.053 0 0.075l0.005 0.011h0.027l0.080-0.005c0.064-0.011 0.133-0.011 0.197-0.016l0.117-0.011c0.032 0.005 0.048-0.027 0.048-0.053-0.021-0.037-0.005-0.075-0.021-0.107-0.011-0.043-0.005-0.080-0.011-0.117 0-0.032-0.037-0.043-0.053-0.021-0.021 0.021-0.053 0.027-0.064 0.048-0.016 0.032 0.032 0.032 0.043 0.053l0.005 0.080c0.005 0.032-0.027 0.032-0.053 0.037-0.027 0.011-0.064 0.016-0.080-0.016-0.011-0.027-0.011-0.053-0.011-0.080 0-0.053-0.016-0.096-0.016-0.144 0-0.053-0.016-0.112-0.016-0.171 0-0.027-0.005-0.064-0.043-0.059zM21.931 20.475h0.016v0.043l-0.016 0.005c-0.006 0.002-0.013 0.004-0.020 0.005l-0.001 0c-0.002 0-0.003 0-0.005 0s-0.004-0-0.006-0h0c-0.011-0.011-0.011-0.027 0.005-0.043l0.027-0.011zM20.331 19.984c-0.016 0-0.043 0.037-0.064 0.032-0.048 0.005-0.043 0.053-0.005 0.069v0.043c0.005 0.043-0.021 0.080-0.016 0.123 0 0.043-0.016 0.091-0.016 0.139-0.016 0.048-0.016 0.096-0.021 0.144-0.005 0.043-0.037 0.027-0.064 0.016v-0.053c0.005-0.048-0.027-0.059-0.064-0.064-0.037 0-0.053-0.027-0.043-0.059 0.016-0.021 0.053-0.016 0.080-0.016 0.053 0.011 0.048-0.059 0.021-0.085-0.021-0.032-0.064-0.053-0.075-0.085 0-0.043-0.027-0.091-0.064-0.112-0.059-0.005-0.107 0.043-0.123 0.096-0.027 0-0.053 0.011-0.075 0.021-0.037 0.011-0.091 0.075-0.037 0.101 0.027 0.005 0.117 0.027 0.075 0.064-0.021 0.043-0.064 0.043-0.101 0.032-0.037 0-0.080-0.021-0.080-0.064-0.005-0.043-0.005-0.085-0.021-0.123-0.011-0.043-0.059-0.032-0.064 0.011-0.037 0.027-0.032 0.075-0.005 0.107 0.016 0.037 0 0.085-0.016 0.117-0.011 0.053-0.064 0.053-0.101 0.064-0.016 0.011-0.085 0-0.059 0.037 0.026 0.012 0.057 0.020 0.089 0.020 0.014 0 0.027-0.001 0.040-0.004l-0.001 0c0.043 0 0.080-0.037 0.107-0.075 0.027-0.027 0.075-0.011 0.117-0.011 0.037 0 0.080 0.027 0.123 0.005 0.011-0.027 0.064-0.080 0.080-0.027 0 0.048 0.037 0.069 0.080 0.064 0.048 0 0.027 0.032 0.027 0.064 0 0.048 0.037 0.075 0.080 0.096h0.043c0.037-0.016 0.080-0.032 0.096-0.075 0.016-0.037 0.016-0.080 0.027-0.117 0.011-0.059 0.021-0.123 0.021-0.181 0.016-0.053 0.011-0.112 0.021-0.171l0.016-0.123c0-0.027-0.011-0.027-0.027-0.021zM19.973 20.203c0.005 0 0.011 0.011 0.011 0.027 0 0.021 0.011 0.037 0.027 0.043v0.016l-0.043 0.011c-0.027 0-0.048-0.011-0.064-0.027l-0.011-0.011 0.016-0.011 0.027-0.027c0.016-0.016 0.027-0.021 0.037-0.021zM23.493 19.781c-0.033 0.002-0.064 0.008-0.094 0.017l0.003-0.001c-0.053 0-0.080 0.053-0.027 0.085 0.032 0.080 0.080-0.021 0.133-0.011 0.075 0.011 0.080 0.096 0.096 0.16 0 0.059 0.021 0.117 0.037 0.176 0.053 0.059-0.037 0.096-0.075 0.053-0.032-0.037-0.107-0.080-0.144-0.032-0.048 0.021-0.053 0.085-0.091 0.107-0.064 0.016-0.069-0.064-0.107-0.096-0.032-0.048-0.091-0.053-0.139-0.064-0.021-0.048-0.011-0.128-0.053-0.16-0.043 0.016-0.117 0.091-0.053 0.128 0.053 0.053-0.027 0.075-0.053 0.107-0.043 0.048-0.053 0.107-0.053 0.16-0.069 0.037-0.080-0.043-0.091-0.091 0-0.059-0.053-0.043-0.091-0.021-0.053 0.021-0.075 0.069-0.107 0.107v0.107c0.011 0.048 0.064 0.027 0.096 0.021 0.053-0.021 0.075 0.037 0.032 0.069-0.032 0.032-0.117 0.016-0.107 0.075h0.085c0.053-0.016 0.117-0.059 0.123-0.123 0.011-0.053 0.091-0.048 0.133-0.059 0.053-0.016 0.123-0.021 0.139 0.053 0.037 0.037 0.117 0.080 0.16 0.027 0.036-0.023 0.059-0.063 0.059-0.108 0-0.005-0-0.010-0.001-0.015l0 0.001c-0.005-0.043 0.069-0.043 0.091-0.016 0.027 0.043 0.112 0.032 0.155 0 0.043-0.027 0.053-0.085 0.117-0.085l0.288-0.080c0.075-0.016-0.011-0.064-0.032-0.096-0.053-0.027-0.107 0.091-0.171 0.032-0.053-0.037-0.048-0.107-0.064-0.165-0.016-0.075-0.011-0.16-0.064-0.213-0.032-0.037-0.085-0.048-0.133-0.048zM23.131 20.288c0.005 0 0.016 0 0.027 0.011 0.021 0.011 0.037 0.032 0.037 0.053 0 0.011 0 0.011-0.016 0.016l-0.027 0.011c-0.011 0-0.037-0.016-0.037-0.027v-0.021c-0.011-0.021-0.011-0.021 0-0.032l0.016-0.011zM23.477 20.309c0.021 0 0.032 0 0.043 0.016 0.005 0.021 0 0.032-0.021 0.043l-0.027 0.011-0.021-0.016c-0.011-0.005-0.016-0.011-0.016-0.021 0-0.016 0.021-0.032 0.043-0.037zM22.997 20.309c0.011 0 0.016 0 0.021 0.011 0.011 0.011 0.016 0.016 0.016 0.032v0.032c0 0.016 0 0.011-0.032 0.011s-0.037 0-0.037-0.032c0-0.021 0-0.027 0.016-0.037 0.005-0.011 0.016-0.011 0.021-0.011zM22.709 20.389c0.010 0.003 0.018 0.011 0.021 0.021l0 0c0 0.016 0 0.027-0.011 0.032-0.016 0.005-0.043 0.011-0.053 0-0-0.001-0-0.002-0-0.003s0-0.002 0-0.003v0c-0.011-0.005-0.011-0.011 0-0.016v-0.005l0.011-0.016c0.005-0.008 0.013-0.012 0.023-0.012 0.003 0 0.007 0.001 0.010 0.002l-0-0zM23.2 20.453l0.027 0.005v0.032h-0.064l-0.005-0.011c0-0.011 0-0.016 0.011-0.021l0.032-0.005zM22.288 20.709c-0.005 0-0.016-0.005-0.005-0.011 0.005-0.016 0.027-0.021 0.043-0.032 0.030-0.012 0.055-0.030 0.074-0.053l0-0c0-0.021 0.021-0.032 0.021-0.053l-0.005-0.075c-0.007-0.023-0.023-0.041-0.042-0.053l-0-0c-0.016-0.005-0.037-0.011-0.043-0.032 0-0.016 0.016-0.032 0.021-0.048l0.032-0.064c0.016-0.016 0.037 0 0.043 0.011l0.027 0.053c0.016 0.016 0.027 0.032 0.032 0.053 0.011 0.021 0.021 0.037 0.021 0.053l0.011 0.069c0 0.027 0 0.059-0.011 0.085l-0.032 0.043c-0.016 0.016-0.032 0.032-0.053 0.037-0.016 0.005-0.027 0.021-0.048 0.021h-0.080l-0.005-0.005zM21.92 20.731c-0.011-0.011-0.016-0.016-0.016-0.032s0-0.016 0.016-0.032c0.021-0.021 0.032-0.021 0.075 0 0.037 0.021 0.053 0.021 0.053 0.005 0.005-0.011 0.027-0.027 0.053-0.027 0.010 0 0.020 0.004 0.027 0.011l-0-0c0.011 0.011 0.016 0.016 0.016 0.037 0 0.027 0 0.027-0.016 0.043-0.016 0.011-0.016 0.011-0.037 0.011-0.020-0.001-0.036-0.014-0.043-0.032l-0-0c0-0.011 0-0.016-0.011-0.005l-0.011 0.005c-0.011 0-0.032 0.016-0.043 0.027l-0.027 0.005c-0.021 0-0.021 0-0.037-0.016zM20.864 20.256c-0.037 0-0.075 0.032-0.080 0.069 0.011 0.037 0.043 0.080 0.021 0.117 0.016 0.053-0.043 0.075-0.080 0.048-0.021-0.053-0.032-0.107-0.069-0.16-0.043-0.011-0.059 0.059-0.091 0.085 0.016 0.037 0.059 0.075 0.064 0.123 0.011 0.053-0.021 0.107-0.059 0.128-0.037 0.037-0.091 0.027-0.133 0.032-0.053 0.032 0.037 0.043 0.064 0.043 0.053 0.005 0.112 0 0.16-0.043 0.037-0.016 0.032-0.091 0.080-0.096l0.256 0.016c0.043 0.011 0.112-0.005 0.144 0.027 0 0.053 0.053 0.096 0.101 0.117 0.027 0.011 0.053-0.027 0.080-0.032 0.053-0.016 0.037-0.080 0.069-0.107h0.267c0.011 0 0.016-0.027 0.032-0.037l-0.011-0.101c-0.016-0.043 0-0.096-0.027-0.133-0.048-0.011-0.085 0.027-0.128 0.032-0.053 0.021-0.091 0.069-0.096 0.123-0.027 0.048-0.075-0.011-0.053-0.053l-0.005-0.053c-0.027-0.027-0.075-0.016-0.112-0.021l-0.16-0.011c-0.053 0-0.101 0.005-0.144-0.005-0.053 0-0.053-0.053-0.053-0.096-0.009-0.007-0.020-0.011-0.032-0.011-0.002 0-0.003 0-0.005 0l0-0zM20.971 20.453l0.053 0.005h0.069c0.053 0.011 0.107 0.011 0.16 0.011 0.011 0 0.021 0.011 0.032 0.021v0.107c0 0.016 0 0.037-0.011 0.043-0.003 0.004-0.006 0.008-0.011 0.011l-0 0c-0.016-0.003-0.030-0.013-0.037-0.026l-0-0v-0.075c-0.010-0.009-0.023-0.014-0.037-0.016l-0-0-0.139-0.005-0.107-0.005c-0.016-0.005-0.037 0-0.048-0.021-0.011-0.011 0.005-0.032 0.021-0.037 0.015-0.007 0.032-0.011 0.050-0.011 0.001 0 0.002 0 0.003 0h-0zM21.573 20.469c0.005 0 0.011 0 0.011 0.016l0.011 0.027c0 0.005 0 0.011-0.011 0.011-0.027 0.011-0.053 0.011-0.064 0 0-0.005 0-0.027 0.011-0.032l0.043-0.021z"></path>
<path fill="#fff" d="M21.333 17.451c1.739-1.333 1.589-3.296 1.589-3.296l-0.133 0.011c-0.368 0-1.237-0.213-1.44-0.475-0.213 0.24-1.109 0.48-1.472 0.48l-0.133-0.016s-0.155 1.957 1.589 3.296z"></path>
<path fill="#fff" d="M22.784 14.293h-0.043c-0.331 0-1.099-0.165-1.397-0.421-0.309 0.235-1.093 0.427-1.419 0.427-0.015-0.001-0.030-0.003-0.044-0.006l0.002 0c0.003 0.356 0.054 0.699 0.145 1.025l-0.007-0.027c0.225 0.806 0.686 1.484 1.304 1.973l0.008 0.006c0.626-0.497 1.087-1.176 1.306-1.957l0.006-0.027c0.085-0.297 0.135-0.638 0.139-0.99l0-0.002z"></path>
<path fill="#c09300" d="M20.768 14.133c-0.262 0.088-0.564 0.146-0.878 0.16l-0.007 0 0.005 0.219c0.020 0.284 0.068 0.548 0.14 0.801l-0.007-0.027c0.154 0.551 0.411 1.029 0.751 1.435l-0.005-0.006v-2.581zM21.867 14.133v2.624c0.353-0.41 0.621-0.903 0.772-1.445l0.006-0.027c0.066-0.226 0.113-0.489 0.133-0.761l0.001-0.013 0.005-0.213h-0.043c-0.203 0-0.555-0.064-0.875-0.171z"></path>
<path fill="#fff" d="M21.989 13.493c0.037 0.005-0.048-0.187-0.048-0.187 0.096 0.096 0.448 0.123 0.448 0.123-0.213-0.096-0.427-0.805-0.4-1.376 0.021-0.565-0.080-0.789-0.16-0.875-0.107-0.107-0.453-0.203-0.677-0.213-0.133-0.005-0.107 0.096-0.107 0.096-0.24-0.059-0.48-0.085-0.587-0.011-0.096 0.064-0.117 0.4-0.043 0.341 0.176-0.144 0.331-0.011 0.437 0.144 0.096 0.133 0.091 0.517-0.048 0.971-0.132 0.362-0.312 0.675-0.538 0.95l0.004-0.006c0.213 0 0.512-0.187 0.512-0.187l-0.069 0.293c0.224-0.107 0.4-0.272 0.4-0.272l0.213 0.224c0.069-0.096 0.213-0.224 0.213-0.224s0.176 0.187 0.448 0.213z"></path>
<path fill="#c09300" d="M20.907 11.712c-0.005-0.065-0.024-0.125-0.054-0.178l0.001 0.002c-0.107-0.16-0.261-0.288-0.437-0.144 0 0 0.059-0.187 0.192-0.192 0.096-0.005 0.325 0.075 0.528 0.416 0 0-0.149-0.032-0.187 0-0.064 0.053-0.037 0.096-0.037 0.096z"></path>
<path fill="#c09300" d="M20.395 11.163c0.016-0.053 0.037-0.096 0.069-0.112 0.107-0.075 0.341-0.053 0.581 0.011 0 0-0.021-0.101 0.107-0.096 0.224 0.011 0.565 0.107 0.672 0.213 0.033 0.036 0.060 0.079 0.079 0.125l0.001 0.003c-0.053-0.075-0.203-0.069-0.24-0.064-0.053 0.005-0.091 0-0.165 0.021-0.037 0.011-0.091 0.021-0.123 0.043-0.021 0.021-0.043 0.085-0.075 0.085-0.053 0-0.053-0.011-0.069-0.027-0.016-0.027-0.027-0.059-0.048-0.053-0.053 0.005-0.149-0.037-0.267-0.133-0.123-0.096-0.171-0.117-0.32-0.107-0.16 0.011-0.203 0.101-0.203 0.101v-0.011z"></path>
<path fill="#fff" d="M21.333 11.237c0 0.035-0.029 0.064-0.064 0.064s-0.064-0.029-0.064-0.064c0-0.035 0.029-0.064 0.064-0.064s0.064 0.029 0.064 0.064z"></path>
</svg>
