<!-- Generated by IcoMoon.io -->
<svg version="1.1" xmlns="http://www.w3.org/2000/svg" width="43" height="32" viewBox="0 0 43 32">
<title>eh</title>
<path fill="#000" d="M-0 0h42.67v15.999h-42.67z"></path>
<path fill="#007a3d" d="M-0 15.999h42.67v15.999h-42.67z"></path>
<path fill="#fff" d="M-0 9.331h42.67v13.335h-42.67z"></path>
<path fill="#c4111b" d="M-0 0l21.332 15.999-21.332 15.999z"></path>
<path fill="#c4111b" d="M36.265 15.999c0 2.357-1.911 4.268-4.268 4.268s-4.268-1.911-4.268-4.268c0-2.357 1.911-4.268 4.268-4.268s4.268 1.911 4.268 4.268z"></path>
<path fill="#fff" d="M37.869 15.999c0 2.357-1.911 4.268-4.268 4.268s-4.268-1.911-4.268-4.268c0-2.357 1.911-4.268 4.268-4.268s4.268 1.911 4.268 4.268z"></path>
<path fill="#c4111b" d="M30.851 18.581l1.824-1.297 1.805 1.316-0.677-2.131 1.817-1.31-2.237-0.013-0.689-2.131-0.702 2.124-2.237-0.013 1.799 1.329-0.696 2.131z"></path>
</svg>
