<!-- Generated by IcoMoon.io -->
<svg version="1.1" xmlns="http://www.w3.org/2000/svg" width="43" height="32" viewBox="0 0 43 32">
<title>er</title>
<path fill="#be0027" d="M0 0h42.667v32h-42.667z"></path>
<path fill="#b4d7f4" d="M0 32l42.667-0.020v-15.98l-42.667 16z"></path>
<path fill="#239e46" d="M0 0l42.667 0.020v15.98l-42.667-16z"></path>
<path fill="#f3e295" d="M12.413 24.027c-0.713 0.2-1.12 0.753-1.113 1.273l3.52-0.013c0.027-0.56-0.433-1.080-1.133-1.287 3.44-0.067 6.427-1.36 6.973-2.187-0.533-0.233-1.16 0.14-1.6 0.053 1.047-0.487 4.2-2.527 3.687-4.713-0.4 1.213-1.6 2.22-2.12 2.493 1.18-1.787 2.787-3.653 1.393-5.093 0.067 0.833-0.533 1.753-0.8 1.827 0.687-1.893 1.333-4.267-0.14-5.827 0.193 0.567 0.113 2.16-0.153 2.233-0.080-1.287-0.3-3.987-1.653-3.953 0.427 0.387 0.613 1.427 0.627 2.48-0.286-0.744-0.773-1.358-1.394-1.792l-0.012-0.008c-0.682-1.165-1.616-2.114-2.732-2.794l-0.035-0.020c0.12 0.847 0.22 1.513 1.4 2.393-0.613-0.040-1.227-1.207-1.887-1.24-0.527-0.027-0.933 0.473-1.793 0.187 0.093 0.28 0.493 0.407 0.58 0.613-0.187 0.133-0.62-0.020-0.98-0.2 0.5 0.667 1.267 1.067 1.92 0.933 0.78-0.147 1.613-0.067 2.413 0.387-0.259 0.057-0.556 0.089-0.86 0.089-0.226 0-0.448-0.018-0.664-0.052l0.024 0.003c0.46 0.467 0.767 0.78 1.573 0.773 0.713 0 1.093-0.387 1.273-0.147 0.453 0.533 0.753 1.067 1.133 1.693-0.833 0.087-0.58-0.94-1.507-1.467-0.527 1.067 0.6 2.347 1.353 2.88-0.001 0.038-0.002 0.082-0.002 0.127 0 0.72 0.176 1.399 0.487 1.997l-0.011-0.024c0.233 0.433 0.533 0.88 0.42 1.86-0.46-0.333-0.9-1.453-0.733-2.34-0.573 0.153-0.8 1.16-0.533 1.667 0.2 0.38 0.333 1.12 0.107 1.447-0.227 0.307-0.247 0.267-0.247 0.933 0.007 0.387-0.213 0.853-0.567 1.18 0.065-0.206 0.102-0.442 0.102-0.687 0-0.129-0.010-0.256-0.030-0.38l0.002 0.014c-0.28 0.48-0.993 0.973-1.213 1.493-0.22 0.513-0.273 1.413-1.333 1.62-1.373 0.267-1.847 0.507-2.72 0.867-0.1-0.667 0.193-2.067 0.753-1.98 0.54 0.093 2.2-0.573 1.6-1.967-0.113 0.44-0.5 0.867-0.927 0.887 0.46-0.587 1.267-1.2 0.873-2.187-0.245 0.503-0.616 0.911-1.074 1.193l-0.012 0.007c0.56-1.067 0.067-1.4-0.6-0.507-0.253 0.34-0.407 1.027-0.567 1.9-0.267-0.707-0.247-1.64-0.56-2.4-0.32-0.82 0.433-1.033 0.787-0.967 0.867 0.233 2.327 0.233 2.22-1.207-0.38 0.487-1.033 0.633-1.747 0.467 0.8-0.587 1.427-1.687 0.533-2.267-0.085 0.706-0.516 1.296-1.115 1.601l-0.012 0.005c-0.072-0.26-0.113-0.558-0.113-0.866 0-0.279 0.034-0.551 0.098-0.81l-0.005 0.023c-0.347 0.373-0.6 1.133-0.807 2.013-0.020-0.867 0.147-1.487 0.267-1.953 0.187-0.673 0.64-0.233 1.333-0.187 0.68 0.040 1.6-0.333 1.427-1.247-0.227 0.367-0.7 0.507-1.18 0.467 0.58-0.353 1.587-0.973 1.033-1.933-0.233 0.36-0.307 0.667-0.98 0.78 0.173-0.4 0.2-0.98 0.733-1.2-0.933-0.193-1.467 0.42-1.747 1.38-0.107-0.667-0.24-0.907-0.267-1.4 0.507-0.553 0.56-1.653-0.533-1.893-0.025 0.128-0.039 0.274-0.039 0.425 0 0.263 0.044 0.516 0.124 0.752l-0.005-0.016c-0.513-0.307-1.233-0.473-1.72-0.047 0.333 0.353 0.833 0.667 1.613 0.28-0.187 0.6-0.667 0.5-1.32 0.267 0.4 0.753 0.907 0.887 1.467 0.8 0.293 0.773 0.307 1.36-0.553 2.48 0.040-0.693-0.007-1.213-0.56-1.78-0.48-0.467-0.867 0.020-0.12 1.053-0.453-0.333-0.96-1-1.113-1.673-0.147 0.827-0.013 1.807 0.447 2.36-0.22 0.233-0.467-0.027-0.833-0.6 0.133 1.827 0.913 2.18 1.96 1.773 0.027 1 0.027 1.927 0.087 3.133-0.607-0.88-1.38-1.533-1.807-1.693-0.133 0.487 0.367 1.133 0.653 1.487-0.433-0.093-1.367-0.8-1.367-0.8-0.093 0.807 0.953 1.56 1.633 1.893-0.8-0.033-1.153-0.333-1.667-0.827 0.013 2.253 2.44 1.86 2.9 1.513l0.2 3.5c-0.687-0.12-0.633-0.333-1.22-0.38-1.633-0.067-2.927-1.96-3.353-3.353-0.127 0.227-0.027 0.467-0.14 0.753-0.267-0.687-0.6-1.573-1.060-1.987 0.12 0.4 0.133 0.807 0.093 1.553-0.16-0.48-0.3-0.633-0.313-1.2 0.007-0.433 0.42-0.753 0.4-1.367-0.020-0.447-0.427-1.42-0.487-2.167-0.2 0.773-0.32 1.587-0.627 2.067 0.153-0.827 0.107-1.4 0.36-1.953 0.293-0.58 0.54-1.107 0.347-1.693-0.187 0.227-0.127 0.433-0.6 0.987-0.1-0.6 0.613-1.567 1.307-1.953 0.487-0.253 1.1-1.173 0.7-1.8-0.46 0.333-0.667 0.773-1.313 1.533 0.467-1.8 1.667-2.28 3.1-2.287 0.313 0 0.953-0.113 1.133-0.533-0.4 0.153-0.88 0.173-1.307 0.093 0.313-0.46 0.96-0.4 1.573-0.4 0.473 0 1.22-0.067 1.52-0.747-0.365 0.146-0.788 0.232-1.231 0.232-0.297 0-0.585-0.038-0.86-0.11l0.024 0.005c0.913-0.467 2.333-0.52 3.067-1.14-0.833-0.62-2.913 0.147-4.227 1.047 0.367-0.333 0.947-0.933 1.267-1.413-0.72-0.347-2.533 1.667-3.16 2.867-0.6 0.333-0.833 0.867-1.067 1.233 0.313-1.073 0.347-1.853 0.613-2.733-2.033 0.693-1.193 4.467-1.633 5.373 0.053-1 0.007-2.273-0.4-2.933-0.627 0.48-0.68 3.3-0.093 5.647-0.213-0.627-0.613-1.213-0.74-1.98-0.933 1.693 0.547 3.7 1.78 5.28-0.933-0.487-1.847-1.527-2.453-2.4 0.167 3.040 3.333 3.667 3.827 4.413-0.667-0.313-1.94-0.927-2.487-0.28 0.811 0.153 1.534 0.434 2.183 0.823l-0.030-0.017c0.827 1.027 2.38 1.48 5.093 1.593z"></path>
</svg>
