<!-- Generated by IcoMoon.io -->
<svg version="1.1" xmlns="http://www.w3.org/2000/svg" width="43" height="32" viewBox="0 0 43 32">
<title>et</title>
<path fill="#ffc621" d="M-11.081 0.219h65.048v31.208h-65.048z"></path>
<path fill="#ef2118" d="M-11.207 21.463h65.129v10.622h-65.129z"></path>
<path fill="#298c08" d="M-11.081 0h65.048v11.28h-65.048z"></path>
<path fill="#006bc6" d="M27.052 16.583c0 3.732-3.026 6.758-6.758 6.758s-6.758-3.026-6.758-6.758c0-3.732 3.026-6.758 6.758-6.758s6.758 3.026 6.758 6.758z"></path>
<path fill="#ffc621" d="M17.263 11.794l-0.407 0.282 1.473 2.068 0.395-0.251-1.466-2.099zM19.105 16.682l-0.608-0.426 0.251-0.796-3.014 0.044-0.877-0.671 4.117-0.044 0.765-2.312 0.414 0.94-1.047 3.259zM23.899 12.251l-0.395-0.301-1.523 2.030 0.351 0.295 1.567-2.024zM19.801 15.479l0.219-0.702h0.833l-0.953-2.87 0.376-1.034 1.285 3.91 2.431 0.031-0.765 0.671-3.428-0.013zM25.478 18.687l0.169-0.464-2.4-0.833-0.175 0.439 2.406 0.859zM21.148 15.779l0.733-0.006 0.257 0.79 2.431-1.786 1.103 0.038-3.328 2.425 0.721 2.331-0.877-0.526-1.040-3.265zM19.907 22.171l0.495 0.013 0.019-2.538-0.464-0.031-0.050 2.563zM21.286 17.139l0.238 0.696-0.671 0.501 2.469 1.736 0.313 1.053-3.359-2.381-1.974 1.423 0.219-1.003 2.757-2.024zM14.813 17.954l0.144 0.47 2.425-0.765-0.125-0.451-2.444 0.746zM20.026 17.703l-0.589 0.445-0.677-0.483-0.89 2.883-0.902 0.627 1.222-3.929-1.968-1.441 1.021-0.1 2.782 1.999z"></path>
</svg>
