<!-- Generated by IcoMoon.io -->
<svg version="1.1" xmlns="http://www.w3.org/2000/svg" width="43" height="32" viewBox="0 0 43 32">
<title>eu</title>
<path fill="#039" d="M0 0h42.667v32h-42.667z"></path>
<path fill="#fc0" d="M21.333 5.092l-0.474 1.58 0.79 0.158z"></path>
<path fill="#fc0" d="M21.333 5.092l0.474 1.58-0.79 0.158z"></path>
<path fill="#fc0" d="M22.836 6.184l-1.649 0.037 0.094 0.8z"></path>
<path fill="#fc0" d="M22.836 6.184l-1.356 0.939-0.394-0.703z"></path>
<path fill="#fc0" d="M22.262 7.95l-0.545-1.557-0.732 0.337z"></path>
<path fill="#fc0" d="M22.262 7.95l-1.312-1 0.546-0.592z"></path>
<path fill="#fc0" d="M19.83 6.184l1.649 0.037-0.094 0.8z"></path>
<path fill="#fc0" d="M19.83 6.184l1.356 0.939 0.394-0.703z"></path>
<path fill="#fc0" d="M20.404 7.95l0.545-1.557 0.732 0.337z"></path>
<path fill="#fc0" d="M20.404 7.95l1.312-1-0.546-0.592z"></path>
<path fill="#fc0" d="M21.333 24.055l-0.474 1.58 0.79 0.158z"></path>
<path fill="#fc0" d="M21.333 24.055l0.474 1.58-0.79 0.158z"></path>
<path fill="#fc0" d="M22.836 25.146l-1.649 0.037 0.094 0.8z"></path>
<path fill="#fc0" d="M22.836 25.146l-1.356 0.939-0.394-0.703z"></path>
<path fill="#fc0" d="M22.262 26.913l-0.545-1.557-0.732 0.337z"></path>
<path fill="#fc0" d="M22.262 26.913l-1.312-1 0.546-0.592z"></path>
<path fill="#fc0" d="M19.83 25.146l1.649 0.037-0.094 0.8z"></path>
<path fill="#fc0" d="M19.83 25.146l1.356 0.939 0.394-0.703z"></path>
<path fill="#fc0" d="M20.404 26.913l0.545-1.557 0.732 0.337z"></path>
<path fill="#fc0" d="M20.404 26.913l1.312-1-0.546-0.592z"></path>
<path fill="#fc0" d="M11.852 14.573l-0.474 1.58 0.79 0.158z"></path>
<path fill="#fc0" d="M11.852 14.573l0.474 1.58-0.79 0.158z"></path>
<path fill="#fc0" d="M13.355 15.665l-1.649 0.037 0.094 0.8z"></path>
<path fill="#fc0" d="M13.355 15.665l-1.356 0.939-0.394-0.703z"></path>
<path fill="#fc0" d="M12.781 17.432l-0.545-1.557-0.732 0.337z"></path>
<path fill="#fc0" d="M12.781 17.432l-1.312-1 0.546-0.592z"></path>
<path fill="#fc0" d="M10.349 15.665l1.649 0.037-0.094 0.8z"></path>
<path fill="#fc0" d="M10.349 15.665l1.356 0.939 0.394-0.703z"></path>
<path fill="#fc0" d="M10.923 17.432l0.545-1.557 0.732 0.337z"></path>
<path fill="#fc0" d="M10.923 17.432l1.312-1-0.546-0.592z"></path>
<path fill="#fc0" d="M15.78 9.292l1.312-1-0.546-0.592z"></path>
<path fill="#fc0" d="M15.78 9.292l0.545-1.557 0.732 0.337z"></path>
<path fill="#fc0" d="M15.206 7.525l1.356 0.939 0.394-0.703z"></path>
<path fill="#fc0" d="M15.206 7.525l1.649 0.037-0.094 0.8z"></path>
<path fill="#fc0" d="M16.709 6.434l-0.474 1.58 0.79 0.158z"></path>
<path fill="#fc0" d="M16.709 6.434l0.474 1.58-0.79 0.158z"></path>
<path fill="#fc0" d="M17.638 9.292l-1.312-1 0.546-0.592z"></path>
<path fill="#fc0" d="M17.638 9.292l-0.545-1.557-0.732 0.337z"></path>
<path fill="#fc0" d="M18.212 7.525l-1.356 0.939-0.394-0.703z"></path>
<path fill="#fc0" d="M18.212 7.525l-1.649 0.037 0.094 0.8z"></path>
<path fill="#fc0" d="M14.123 12.807l-0.545-1.557-0.732 0.337z"></path>
<path fill="#fc0" d="M14.123 12.807l-1.312-1 0.546-0.592z"></path>
<path fill="#fc0" d="M12.265 12.807l1.312-1-0.546-0.592z"></path>
<path fill="#fc0" d="M12.265 12.807l0.545-1.557 0.732 0.337z"></path>
<path fill="#fc0" d="M11.691 11.041l1.356 0.939 0.394-0.703z"></path>
<path fill="#fc0" d="M11.691 11.041l1.649 0.037-0.094 0.8z"></path>
<path fill="#fc0" d="M14.697 11.041l-1.356 0.939-0.394-0.703z"></path>
<path fill="#fc0" d="M14.697 11.041l-1.649 0.037 0.094 0.8z"></path>
<path fill="#fc0" d="M13.194 9.949l0.474 1.58-0.79 0.158z"></path>
<path fill="#fc0" d="M13.194 9.949l-0.474 1.58 0.79 0.158z"></path>
<path fill="#fc0" d="M14.698 20.545l-1.649 0.037 0.094 0.8z"></path>
<path fill="#fc0" d="M14.698 20.545l-1.356 0.939-0.394-0.703z"></path>
<path fill="#fc0" d="M14.124 22.312l-0.545-1.557-0.732 0.337z"></path>
<path fill="#fc0" d="M14.124 22.312l-1.312-1 0.546-0.592z"></path>
<path fill="#fc0" d="M12.267 22.312l1.312-1-0.546-0.592z"></path>
<path fill="#fc0" d="M12.267 22.312l0.545-1.557 0.732 0.337z"></path>
<path fill="#fc0" d="M13.195 19.453l0.474 1.58-0.79 0.158z"></path>
<path fill="#fc0" d="M13.195 19.453l-0.474 1.58 0.79 0.158z"></path>
<path fill="#fc0" d="M11.693 20.545l1.649 0.037-0.094 0.8z"></path>
<path fill="#fc0" d="M11.693 20.545l1.356 0.939 0.394-0.703z"></path>
<path fill="#fc0" d="M18.128 23.726l-1.649 0.037 0.094 0.8z"></path>
<path fill="#fc0" d="M18.128 23.726l-1.356 0.939-0.394-0.703z"></path>
<path fill="#fc0" d="M17.554 25.492l-0.545-1.557-0.732 0.337z"></path>
<path fill="#fc0" d="M17.554 25.492l-1.312-1 0.546-0.592z"></path>
<path fill="#fc0" d="M15.696 25.492l1.312-1-0.546-0.592z"></path>
<path fill="#fc0" d="M15.696 25.492l0.545-1.557 0.732 0.337z"></path>
<path fill="#fc0" d="M16.625 22.634l0.474 1.58-0.79 0.158z"></path>
<path fill="#fc0" d="M16.625 22.634l-0.474 1.58 0.79 0.158z"></path>
<path fill="#fc0" d="M15.122 23.726l1.649 0.037-0.094 0.8z"></path>
<path fill="#fc0" d="M15.122 23.726l1.356 0.939 0.394-0.703z"></path>
<path fill="#fc0" d="M40.296 14.573l-0.474 1.58 0.79 0.158z"></path>
<path fill="#fc0" d="M39.367 17.432l1.312-1-0.546-0.592z"></path>
<path fill="#fc0" d="M40.296 14.573l0.474 1.58-0.79 0.158z"></path>
<path fill="#fc0" d="M38.793 15.665l1.649 0.037-0.094 0.8z"></path>
<path fill="#fc0" d="M39.367 17.432l0.545-1.557 0.732 0.337z"></path>
<path fill="#fc0" d="M41.799 15.665l-1.649 0.037 0.094 0.8z"></path>
<path fill="#fc0" d="M41.799 15.665l-1.356 0.939-0.394-0.703z"></path>
<path fill="#fc0" d="M41.225 17.432l-0.545-1.557-0.732 0.337z"></path>
<path fill="#fc0" d="M41.225 17.432l-1.312-1 0.546-0.592z"></path>
<path fill="#fc0" d="M26.887 9.292l-0.545-1.557-0.732 0.337z"></path>
<path fill="#fc0" d="M25.958 6.434l-0.474 1.58 0.79 0.158z"></path>
<path fill="#fc0" d="M26.887 9.292l-1.312-1 0.546-0.592z"></path>
<path fill="#fc0" d="M27.461 7.525l-1.356 0.939-0.394-0.703z"></path>
<path fill="#fc0" d="M25.958 6.434l0.474 1.58-0.79 0.158z"></path>
<path fill="#fc0" d="M25.029 9.292l1.312-1-0.546-0.592z"></path>
<path fill="#fc0" d="M25.029 9.292l0.545-1.557 0.732 0.337z"></path>
<path fill="#fc0" d="M24.455 7.525l1.356 0.939 0.394-0.703z"></path>
<path fill="#fc0" d="M24.455 7.525l1.649 0.037-0.094 0.8z"></path>
<path fill="#fc0" d="M28.544 12.807l1.312-1-0.546-0.592z"></path>
<path fill="#fc0" d="M30.976 11.041l-1.649 0.037 0.094 0.8z"></path>
<path fill="#fc0" d="M28.544 12.807l0.545-1.557 0.732 0.337z"></path>
<path fill="#fc0" d="M30.402 12.807l-1.312-1 0.546-0.592z"></path>
<path fill="#fc0" d="M30.976 11.041l-1.356 0.939-0.394-0.703z"></path>
<path fill="#fc0" d="M27.97 11.041l1.356 0.939 0.394-0.703z"></path>
<path fill="#fc0" d="M27.97 11.041l1.649 0.037-0.094 0.8z"></path>
<path fill="#fc0" d="M29.473 9.949l-0.474 1.58 0.79 0.158z"></path>
<path fill="#fc0" d="M29.473 9.949l0.474 1.58-0.79 0.158z"></path>
<path fill="#fc0" d="M27.968 20.545l1.356 0.939 0.394-0.703z"></path>
<path fill="#fc0" d="M30.4 22.312l-0.545-1.557-0.732 0.337z"></path>
<path fill="#fc0" d="M27.968 20.545l1.649 0.037-0.094 0.8z"></path>
<path fill="#fc0" d="M28.542 22.312l0.545-1.557 0.732 0.337z"></path>
<path fill="#fc0" d="M30.4 22.312l-1.312-1 0.546-0.592z"></path>
<path fill="#fc0" d="M29.471 19.453l-0.474 1.58 0.79 0.158z"></path>
<path fill="#fc0" d="M29.471 19.453l0.474 1.58-0.79 0.158z"></path>
<path fill="#fc0" d="M30.974 20.545l-1.649 0.037 0.094 0.8z"></path>
<path fill="#fc0" d="M30.974 20.545l-1.356 0.939-0.394-0.703z"></path>
<path fill="#fc0" d="M24.539 23.726l1.356 0.939 0.394-0.703z"></path>
<path fill="#fc0" d="M26.97 25.492l-0.545-1.557-0.732 0.337z"></path>
<path fill="#fc0" d="M24.539 23.726l1.649 0.037-0.094 0.8z"></path>
<path fill="#fc0" d="M25.113 25.492l0.545-1.557 0.732 0.337z"></path>
<path fill="#fc0" d="M26.97 25.492l-1.312-1 0.546-0.592z"></path>
<path fill="#fc0" d="M26.041 22.634l-0.474 1.58 0.79 0.158z"></path>
<path fill="#fc0" d="M26.041 22.634l0.474 1.58-0.79 0.158z"></path>
<path fill="#fc0" d="M27.544 23.726l-1.649 0.037 0.094 0.8z"></path>
<path fill="#fc0" d="M27.544 23.726l-1.356 0.939-0.394-0.703z"></path>
</svg>
