<!-- Generated by IcoMoon.io -->
<svg version="1.1" xmlns="http://www.w3.org/2000/svg" width="43" height="32" viewBox="0 0 43 32">
<title>fj</title>
<path fill="#68bfe5" d="M0 0v32h42.667v-32h-42.667z"></path>
<path fill="#fff" d="M28.060 12.88v9.093c0 2.973 5.373 4.733 5.373 4.733s5.367-1.76 5.367-4.733v-9.093z"></path>
<path fill="#d21034" d="M32.687 16.080v4.093h-4.627v1.487h4.627v4.767l0.747 0.287 0.74-0.287v-4.76h4.627v-1.493h-4.627v-4.093z"></path>
<path fill="#d21034" d="M28.060 12.88h10.74v3.52h-10.747z"></path>
<path fill="#fff" d="M29.522 15.019c0 0.269-0.27 0.488-0.603 0.488s-0.603-0.218-0.603-0.488c0-0.269 0.27-0.488 0.603-0.488s0.603 0.218 0.603 0.488z"></path>
<path fill="#fff" d="M29.456 14.766c0 0.149-0.24 0.27-0.536 0.27s-0.536-0.121-0.536-0.27c0-0.149 0.24-0.27 0.536-0.27s0.536 0.121 0.536 0.27z"></path>
<path fill="#fff" d="M29.456 15.312c0 0.149-0.24 0.27-0.536 0.27s-0.536-0.121-0.536-0.27c0-0.149 0.24-0.27 0.536-0.27s0.536 0.121 0.536 0.27z"></path>
<path fill="#fff" d="M29.456 15.019c0 0.149-0.24 0.27-0.536 0.27s-0.536-0.121-0.536-0.27c0-0.149 0.24-0.27 0.536-0.27s0.536 0.121 0.536 0.27z"></path>
<path fill="#ffd100" d="M38.533 15.693l-0.087-0.24s-0.24-0.1-0.26-0.227c-0.040-0.34-0.16-0.467-0.347-0.52-0.033-0.010-0.070-0.015-0.109-0.015-0.070 0-0.136 0.018-0.193 0.050l0.002-0.001c-0.053 0.080-0.333 0.080-0.48 0.087-0.153 0-0.16-0.067-0.16-0.067-0.113 0-0.167-0.087-0.167-0.087-0.073-0.153-0.133-0.213-0.173-0.233 0.2 0 0.347-0.087 0.573-0.32 0.24-0.253 0.413-0.16 0.413-0.16-0.12 0.24 0.040 0.22 0.040 0.22 0.32-0.167 0.040-0.58-0.053-0.56-0.1 0.020-0.127-0.047-0.127-0.047 0 0.073-0.107 0.107-0.107 0.107 0.080-0.473-0.2-0.6-0.2-0.6-0.040 0.040-0.067 0.127-0.067 0.127-0.080 0.287-0.34 0.24-0.633 0.1-0.293-0.133-1.067 0.147-1.313 0.247s-0.693 0.247-1.093 0.027c-0.4-0.227-0.5-0.187-0.66-0.14-0.153 0.040-0.433 0.107-0.533 0.053-0.066-0.034-0.143-0.056-0.225-0.060l-0.001-0c0.027-0.013-0.013-0.080-0.013-0.080-0.127-0.167 0.013-0.267 0.013-0.267s-0.227 0.067-0.133 0.453l0.040 0.053s0.027 0.127 0.093 0.16v0.027s0.060-0.027 0.073 0.053c0.020 0.080 0.107 0 0.14-0.067 0 0-0.060 0.36 0.38 0.447 0 0-0.047-0.060-0.033-0.093 0.020-0.040-0.053-0.067-0.047-0.12 0.007-0.060-0.107-0.080-0.020-0.127 0.093-0.040 0.133-0.127 0.333-0.007 0.193 0.113 0.347 0.087 0.347 0.087s-0.12-0.24-0.053-0.24 0.36 0.36 0.5 0.347c0.147-0.020 0.427-0.187 0.567-0.127 0 0 0.013-0.067 0.547-0.16s1.2-0.36 1.447-0.127c0 0 0.027 0.187 0.133 0.233 0 0-0.020 0.387-0.68 0.173l-0.24-0.067s-0.040-0.113-1.3 0.213c0 0-0.073 0.027-0.127 0.060-0.047 0.033-0.113-0.020-0.367 0.067-0.247 0.1-1.18 0.4-1.753 0.293-0.127-0.040-0.24-0.020-0.247-0.040 0-0.020 0.067 0.007 0.067 0.007-0.040-0.047-0.060-0.053-0.060-0.053-0.48-0.053-0.4-0.267-0.4-0.267l0.027 0.067c0.080-0.107-0.027-0.347-0.027-0.347h-0.007c0-0.003 0-0.006 0-0.010s-0-0.007-0-0.011l0 0.001 0.033-0.027c0.233-0.2 0.5-0.233 0.5-0.233-0.16-0.2-0.493-0.093-0.493-0.093 0.007-0.233-0.093-0.513-0.093-0.513-0.212 0.036-0.391 0.15-0.512 0.311l-0.002 0.002c-0.013-0.247-0.327-0.387-0.327-0.387 0.12 0.14 0.047 0.48 0.047 0.48h-0.020l-0.007 0.073h-0.013s-0.113 0.040-0.247 0.347c0 0-0.013 0.067-0.067 0.133v-0.027s-0.153 0.2-0.493 0c0 0-0.467-0.273-0.64-0.267-0.16 0.013-0.267 0.087-0.26 0.133 0 0-0.38-0.027-0.507 0.187 0 0-0.287 0.107-0.040 0.333 0 0 0.033 0.107 0.1 0.16 0 0-0.007-0.213 0.047-0.153l0.033 0.040c0.007 0.027 0.033 0.107 0.080 0.153l0.040-0.013c0-0.053 0.013-0.12 0.027-0.147h0.013l0.067 0.107 0.067-0.040c0.040 0 0.087 0.033 0.087 0.033l0.087-0.073c0.087 0.013 0.113-0.16 0.113-0.16 0.019 0.005 0.041 0.008 0.064 0.008 0.053 0 0.102-0.015 0.143-0.042l-0.001 0.001c0.040 0.133 0.347 0.287 0.347 0.287h0.013l-0.040 0.027c0.14 0.1 0.4 0.073 0.4 0.073-0.107 0.040-0.093 0.247-0.093 0.247-0.067 0.027-0.067 0.087-0.067 0.087 0.213 0.087 0.353 0.013 0.353 0.013 0.013 0.067 0 0.080 0 0.080-0.087 0.18-0.127 0.36-0.127 0.36h0.007v0.013s-0.38 0.133-0.54 0.313c0 0-0.020-0.053-0.067-0.053s-0.187-0.12-0.253-0.14c-0.067-0.020-0.167 0.020-0.2-0.013-0.020-0.027-0.007-0.24-0.053-0.267l-0.047-0.133c-0.027 0.067-0.16 0.053-0.16 0.053l-0.053 0.040-0.053-0.007c-0.013 0-0.027 0.033-0.033 0.067l-0.020 0.020v-0.040c-0.020 0.020-0.073-0.007-0.093-0.007-0.013 0-0.027 0.027-0.033 0.060l-0.127 0.007c-0.020 0.013 0 0.173 0 0.173-0.153 0.080-0.080 0.207-0.080 0.207 0.080 0.4 0.767 0.22 0.82 0.273s0.173 0.067 0.233 0.067c0.067 0 0.14 0.147 0.227 0.16s0-0.12 0.407-0.213c0.407-0.1 0.547-0.267 0.547-0.267 0.127-0.027 0.16-0.18 0.167-0.24l0.013 0.093c0.020 0.14-0.080 0.2-0.080 0.2l0.353-0.113c0.14-0.033 0.12-0.16 0.12-0.16 0.133 0.387 0.38 0.413 0.38 0.413 0.047-0.147 0.040-0.193 0.040-0.193h0.113c0-0.087-0.067-0.147-0.113-0.173l0.173 0.1 0.067-0.007c0 0.060 0.087 0.113 0.087 0.113l0.013-0.080c0.080 0.107 0.227 0.067 0.227 0.067-0.004-0.021-0.009-0.039-0.014-0.057l0.001 0.003c0.313 0.193 0.813-0.053 0.813-0.053 0.133 0.027 0.153-0.053 0.153-0.053 0.147 0.020 0.187-0.087 0.187-0.087 0.353-0.027 0.607-0.28 0.607-0.28 0.18-0.013 0.187-0.14 0.187-0.14s0.173 0.033 0.347-0.18c0.4-0.567 0.987-0.267 0.987-0.267l-0.34 0.020c-0.9-0.007-0.527 0.6-0.527 0.6h0.053c0.087 0.013 0.38 0.247 0.267 0.413v0.013c-0.187 0.247-0.52 0.013-0.62-0.2-0.093-0.213-0.293-0.167-0.293-0.167s-0.5 0.087-0.293 0.487c0.007 0.1 0.067 0.213 0.253 0.32 0.1 0.147 0.433 0.16 0.673 0.107 0.12-0.013 0.72-0.28 0.72-0.28 0.047-0.133 0.2-0.1 0.333-0.293 0.133-0.187-0.193-0.253-0.267-0.36-0.067-0.1 0.020-0.080 0.020-0.080 0.293 0.153 0.32-0.347 0.32-0.347 0.019 0.169 0.131 0.309 0.284 0.366l0.003 0.001c0.153-0.153 0.040-0.48 0.040-0.48 0.38 0.68 0.607 0.567 0.607 0.567-0.2-0.12-0.1-0.293-0.1-0.293 0.18 0.72 0.933 0.093 0.933 0.093-0.040 0.107 0 0.167 0.067 0.233s0.147 0.093 0.107 0.22c-0.033 0.12-0.387 0.093-0.387 0.093s-0.333-0.013-0.307 0.267c0.020 0.067 0.24 0.093 0.333 0.073 0 0-0.040 0.013 0.087 0.027h0.147c0.14 0 0.3-0.027 0.3-0.027 0.193-0.040 0.16-0.107 0.16-0.107 0.3-0.053 0.333-0.253 0.333-0.253z"></path>
<path fill="#000" d="M28.64 14.447s0.020-0.033 0.047-0.040c0.027 0 0.053 0.013 0.080 0.053l0.020-0.013s-0.080-0.12-0.053-0.2c0.020-0.040 0.053-0.067 0.107-0.073v-0.020c-0.067 0.013-0.107 0.040-0.12 0.087-0.007 0.014-0.012 0.029-0.013 0.046l-0 0.001c0 0.040 0.013 0.080 0.033 0.113-0.012-0.009-0.027-0.014-0.043-0.014-0.004 0-0.007 0-0.011 0.001l0-0c-0.024 0.003-0.044 0.018-0.053 0.040l-0 0zM38.040 16.047c-0.2 0.033-0.5 0.047-0.527-0.013 0-0.013 0-0.053 0.16-0.16l-0.013-0.033c-0.14 0.093-0.2 0.153-0.18 0.2 0.047 0.12 0.48 0.053 0.567 0.040zM34.147 16.16c-0.047-0.067-0.020-0.167 0.067-0.287l-0.033-0.020c-0.093 0.133-0.113 0.24-0.067 0.333z"></path>
<path fill="#000" d="M33.873 15.853c0 0.127 0.093 0.24 0.26 0.34l0.020-0.033c-0.16-0.093-0.24-0.2-0.24-0.307-0.013-0.167 0.167-0.3 0.173-0.3l-0.020-0.027c-0.013 0-0.2 0.14-0.193 0.333zM37.34 15.9c-0.053 0.087-0.033 0.187-0.033 0.187h0.033c0-0.007-0.013-0.093 0.033-0.167 0.031-0.043 0.078-0.072 0.132-0.080l0.001-0v-0.033c-0.073 0.013-0.133 0.047-0.16 0.093zM29.4 14.34h-0.013v0.013s-0.013 0.107-0.067 0.133c-0.006 0.002-0.013 0.004-0.020 0.004s-0.014-0.001-0.020-0.004l0 0-0.087-0.047c-0.013-0.013-0.027-0.020-0.053-0.013-0.017-0.021-0.028-0.047-0.028-0.077 0-0.006 0-0.012 0.001-0.017l-0 0.001c0.007-0.047 0.040-0.093 0.107-0.133l-0.013-0.020c-0.067 0.047-0.107 0.1-0.113 0.153 0 0.067 0.033 0.107 0.033 0.107v0.007h0.013c0.020-0.007 0.020 0 0.040 0.013l0.093 0.053h0.067c0.047-0.033 0.067-0.127 0.067-0.147 0.213 0.047 0.387-0.22 0.4-0.227l-0.020-0.013s-0.18 0.267-0.387 0.213z"></path>
<path fill="#000" d="M28.873 14.3c-0.001 0.009-0.002 0.019-0.002 0.030 0 0.038 0.011 0.074 0.029 0.104l-0-0.001c0.020 0.033 0.047 0.053 0.067 0.060 0.033 0 0.053-0.020 0.080-0.040 0.013-0.013 0.027-0.027 0.040-0.027l0.020 0.013 0.013-0.013-0.033-0.020c-0.020 0-0.040 0.013-0.053 0.033s-0.040 0.033-0.067 0.033c-0.013 0-0.033-0.020-0.053-0.053-0.015-0.023-0.024-0.050-0.024-0.080 0-0.012 0.001-0.023 0.004-0.034l-0 0.001c0.027-0.093 0.14-0.167 0.14-0.167l-0.007-0.020c-0.007 0-0.127 0.080-0.153 0.18zM28.58 15.68c0.007-0.040 0.040-0.067 0.087-0.093-0.013 0 0.040 0.040 0.087 0.040l0.033-0.020c0.013 0.013 0.093 0.087 0.093 0.18 0 0.020 0 0.040-0.013 0.060l0.020 0.007c0.060-0.14-0.093-0.267-0.093-0.267h-0.013l-0.027 0.020c-0.040 0-0.087-0.040-0.087-0.040-0.067 0.027-0.093 0.067-0.107 0.107zM29.267 15.32c-0.047 0.007-0.167 0.027-0.207 0.093-0.013 0.027-0.020 0.053-0.007 0.080l0.013 0.040c0.040 0.107 0.080 0.213 0.127 0.24l0.007-0.020c-0.040-0.020-0.080-0.133-0.113-0.227l-0.013-0.040c-0.006-0.010-0.009-0.021-0.009-0.033s0.003-0.024 0.009-0.034l-0 0c0.033-0.047 0.147-0.067 0.2-0.073 0.027 0 0.033 0.1 0.040 0.16h0.020c-0.007-0.093-0.020-0.187-0.067-0.187z"></path>
<path fill="#000" d="M28.927 15.427c-0.027 0.020-0.020 0.053-0.020 0.060s0.013 0.267 0.133 0.32l0.007-0.020c-0.107-0.047-0.12-0.3-0.12-0.307 0 0 0-0.027 0.013-0.040 0.020-0.013 0.053-0.020 0.107 0l0.007-0.020c-0.060-0.020-0.1-0.013-0.127 0z"></path>
<path fill="#000" d="M28.827 15.447c-0.053 0.040-0.047 0.147-0.047 0.153h0.020s0-0.107 0.040-0.133c0.020-0.013 0.040-0.013 0.067 0l0.007-0.027c-0.033-0.013-0.067-0.013-0.087 0z"></path>
<path fill="#000" d="M31.761 14.013s0.058 0.133 0.058 0.235c0 0.018-0.009 0.031-0.013 0.044l-0.022-0.058-0.013 0.044s-0.027 0.062 0.013 0.129c0.053 0.089 0.186 0.142 0.399 0.164v0.004c-0 0-0 0-0.001 0-0.006 0-0.012 0.002-0.017 0.005l0-0-0.009 0.009v0.018c0.009 0.022 0.031 0.022 0.080 0.022l0.031 0.004 0.027 0.009-0.004-0.004c0.044 0 0.102 0.013 0.16 0.035l-0.044 0.009 0.049 0.022c0.004 0 0.386 0.155 0.541 0.279-0.044 0.040-0.235 0.177-0.563 0.098l-0.053-0.013 0.035 0.044s0.217 0.248 0.261 0.399c-0.075 0-0.363 0-0.465-0.089l-0.022 0.022s0.133 0.204 0.168 0.359c-0.044 0.009-0.133 0.013-0.191-0.062l-0.027-0.031-0.013 0.089c-0.027-0.022-0.062-0.049-0.062-0.084v-0.018l-0.080 0.013-0.168-0.102c-0.007-0.006-0.016-0.011-0.025-0.017l-0.002-0.001-0.018 0.031 0.027 0.013c0.035 0.027 0.098 0.075 0.102 0.146h-0.106v0.022c0 0.013 0 0.062-0.040 0.164-0.049-0.009-0.235-0.075-0.346-0.39l-0.035 0.009v0.009c0 0.031-0.009 0.102-0.106 0.129l-0.288 0.089c0.022-0.032 0.036-0.071 0.036-0.114 0-0.004-0-0.007-0-0.011l0 0.001v-0.035c-0.005-0.034-0.008-0.074-0.009-0.115v-0.001c0-0.066 0.013-0.106 0.062-0.133l-0.018-0.035c-0.004 0-0.425 0.173-0.634 0.102 0.009-0.044 0.044-0.186 0.115-0.337l-0.009 0.009c0.013-0.009 0.027-0.027 0.013-0.098v-0.022l-0.022 0.009s-0.133 0.062-0.328-0.009c0-0.018 0.013-0.044 0.053-0.062l0.013-0.004v-0.035c0-0.053 0.004-0.177 0.080-0.204l-0.009-0.035s-0.226 0.018-0.363-0.058c0.056-0.041 0.124-0.070 0.196-0.084l0.003-0h0.013v-0.018c-0.001-0.037-0.009-0.072-0.023-0.104l0.001 0.002c0.053 0.018 0.115 0.031 0.137 0.013l0.009-0.004-0.009-0.137h-0.035l0.004 0.115-0.133-0.031-0.053-0.018 0.035 0.044c0.020 0.028 0.031 0.063 0.031 0.1 0 0.002-0 0.004-0 0.006v-0c-0.085 0.019-0.159 0.054-0.223 0.103l0.001-0.001-0.022 0.018 0.022 0.013c0.106 0.071 0.27 0.080 0.355 0.075-0.036 0.056-0.058 0.125-0.058 0.199 0 0 0 0 0 0.001v-0 0.018c-0.035 0.021-0.060 0.056-0.066 0.097l-0 0.001v0.013l0.009 0.004c0.060 0.028 0.13 0.045 0.204 0.045 0.052 0 0.103-0.008 0.15-0.023l-0.003 0.001v0.040c-0.089 0.186-0.133 0.368-0.133 0.368v0.018h0.013c0.173 0.071 0.474-0.022 0.612-0.071-0.018 0.031-0.031 0.066-0.031 0.111 0.001 0.054 0.005 0.106 0.014 0.156l-0.001-0.006c0 0.102-0.067 0.142-0.071 0.142l0.013 0.035 0.355-0.106c0.080-0.022 0.111-0.071 0.124-0.111 0.137 0.328 0.355 0.355 0.368 0.359h0.013l0.004-0.013c0.022-0.052 0.038-0.112 0.044-0.175l0-0.003c0.075-0.003 0.112-0.004 0.149-0.006l-0.043 0.002v-0.022c0-0.031-0.004-0.058-0.018-0.080l0.062 0.035 0.058-0.009c0.013 0.058 0.084 0.106 0.093 0.111l0.022 0.013 0.013-0.075c0.089 0.075 0.208 0.053 0.217 0.053l0.013-0.004v-0.018c-0.018-0.12-0.097-0.261-0.146-0.337 0.155 0.071 0.439 0.066 0.452 0.066h0.018v-0.022c-0.062-0.154-0.146-0.286-0.249-0.4l0.001 0.001c0.363 0.066 0.558-0.124 0.567-0.133l0.013-0.013-0.018-0.009c-0.148-0.107-0.318-0.201-0.498-0.274l-0.016-0.006 0.040-0.009-0.044-0.022c-0.075-0.039-0.163-0.062-0.257-0.062h-0c-0.044-0.053-0.066-0.058-0.071-0.062-0.248-0.027-0.337-0.093-0.372-0.146v-0.013l0.009-0.013c0.022-0.031 0.031-0.071 0.031-0.115 0-0.115-0.058-0.244-0.058-0.248l-0.035 0.013z"></path>
<path fill="#000" d="M30.63 13.942s-0.027 0.133-0.142 0.199c-0.089 0.044-0.199 0.044-0.337-0.013l-0.018-0.004v0.018c0.010 0.059 0.043 0.108 0.088 0.141l0.001 0c0.058 0.044 0.146 0.062 0.262 0.053-0.040 0.044-0.16 0.195-0.16 0.346v0.022c0.018 0.009 0.204 0.062 0.293-0.049 0 0.044 0.018 0.199 0.075 0.257 0.035 0.035 0.044 0.080 0.044 0.12 0 0.035-0.009 0.062-0.009 0.062l-0.009 0.027 0.022-0.018c0.009-0.004 0.182-0.133 0.235-0.297 0 0 0.031-0.044 0.084-0.058v0.022c0 0.066 0.027 0.182 0.213 0.253l0.013 0.004v-0.013c-0-0.005-0-0.010-0-0.015s0-0.011 0-0.016l-0 0.001c0-0.049 0-0.133 0.049-0.177 0.024-0.023 0.040-0.055 0.040-0.091 0-0.020-0.005-0.039-0.013-0.056l0 0.001c0.040 0.009 0.129 0.040 0.164 0.106 0.053 0.098 0.235 0.018 0.244 0.018l-0.004-0.022s-0.080 0.018-0.129-0.013c-0.020-0.016-0.033-0.039-0.035-0.066l-0-0-0.009-0.106c0-0.044-0.009-0.075-0.031-0.098 0.022 0 0.071 0 0.089 0.044 0.035 0.071 0.146 0.075 0.151 0.075l0.040 0.004-0.031-0.022s-0.098-0.062-0.080-0.146l0.013-0.062c0.027-0.111 0.071-0.293 0.031-0.408l-0.018 0.009c0.009 0.027 0.013 0.062 0.013 0.098 0 0.098-0.031 0.222-0.044 0.297l-0.018 0.062c-0 0.003-0.001 0.007-0.001 0.011s0 0.008 0.001 0.012l-0-0c0 0.058 0.031 0.098 0.058 0.12-0.031-0.004-0.075-0.022-0.089-0.058-0.031-0.062-0.102-0.062-0.133-0.058l-0.027 0.004 0.018 0.018c0.031 0.018 0.035 0.044 0.035 0.102l0.009 0.102c0.004 0.035 0.022 0.062 0.044 0.080 0.027 0.018 0.053 0.018 0.075 0.022-0.053 0.013-0.129 0.022-0.155-0.027-0.049-0.098-0.191-0.12-0.195-0.124h-0.022l0.009 0.018s0.018 0.027 0.018 0.062c0 0.022-0.009 0.053-0.031 0.075-0.049 0.049-0.058 0.142-0.058 0.191v0.018c-0.16-0.066-0.186-0.164-0.186-0.222v-0.044l0.009-0.013h-0.018c-0.048 0.008-0.088 0.038-0.11 0.079l-0 0.001c-0.046 0.111-0.117 0.204-0.207 0.274l-0.001 0.001c0.002-0.013 0.004-0.028 0.004-0.044v-0c0-0.040-0.009-0.089-0.044-0.129-0.067-0.062-0.075-0.266-0.075-0.266v-0.035l-0.018 0.031c-0.071 0.124-0.275 0.062-0.279 0.062-0.009-0.155 0.177-0.359 0.177-0.363l0.018-0.018h-0.027c-0.12 0.018-0.213 0-0.275-0.044-0.035-0.028-0.060-0.066-0.071-0.109l-0-0.001c0.133 0.049 0.248 0.053 0.337 0.004 0.076-0.047 0.131-0.122 0.15-0.211l0-0.002c0.133-0.293 0.244-0.341 0.244-0.341l-0.004-0.018c-0.009 0-0.124 0.044-0.257 0.355z"></path>
<path fill="#000" d="M30.927 13.503h-0.009l-0.106 0.146h0.031c0.344 0.028 0.648 0.179 0.873 0.408l0.014 0.014 0.102-0.111-0.009-0.013c-0.288-0.452-0.891-0.443-0.9-0.443zM30.936 13.543c0.071 0 0.585 0.013 0.851 0.412l-0.058 0.062c-0.226-0.215-0.521-0.359-0.849-0.394l-0.006-0.001c0.067-0.088 0.087-0.114 0.108-0.14l-0.046 0.060z"></path>
<path fill="#000" d="M30.843 13.805c-0.046 0.059-0.079 0.131-0.093 0.21l-0 0.003 0.004 0.018c-0.055 0.058-0.089 0.137-0.089 0.223 0 0.007 0 0.014 0.001 0.022l-0-0.001c0 0.058 0.009 0.115 0.027 0.168l0.013 0.031c0.053 0.151 0.102 0.284 0.346 0.204 0.23-0.071 0.239-0.089 0.297-0.186l0.018-0.022c0.031-0.053 0.067-0.062 0.102-0.075 0.044-0.013 0.089-0.027 0.133-0.106l0.035-0.058c0.044-0.058 0.098-0.133 0.102-0.222h-0.018c-0.014 0.081-0.049 0.151-0.098 0.209l0-0.001-0.044 0.062c-0.020 0.049-0.062 0.086-0.114 0.097l-0.001 0c-0.049 0.010-0.090 0.039-0.115 0.079l-0 0.001-0.018 0.027c-0.053 0.093-0.062 0.106-0.288 0.177-0.222 0.071-0.266-0.040-0.319-0.195l-0.013-0.031c-0.062-0.168-0.013-0.337 0.071-0.399l0.027-0.022-0.040 0.004v-0.004c0-0.031 0.031-0.115 0.089-0.199 0.053-0.071 0.177-0.137 0.177-0.142l-0.009-0.018c-0.009 0.004-0.129 0.075-0.182 0.146z"></path>
<path fill="#000" d="M30.737 14.421c0.040 0.027 0.093 0.022 0.164 0 0 0.022 0 0.075 0.044 0.111 0.053 0.044 0.133 0.053 0.244 0.027v-0.022c-0.106 0.027-0.186 0.018-0.23-0.022-0.025-0.024-0.040-0.058-0.040-0.095 0-0.004 0-0.008 0-0.011l-0 0.001v-0.018l-0.013 0.009c-0.067 0.027-0.12 0.031-0.16 0-0.067-0.044-0.062-0.164-0.062-0.164h-0.018s-0.009 0.133 0.071 0.186z"></path>
<path fill="#000" d="M30.861 14.257c-0.027 0.009-0.035 0.031-0.035 0.049v0.013c0.009 0.053 0.067 0.089 0.115 0.102 0.053 0.013 0.115 0.018 0.137-0.013 0.009-0.013 0.018-0.035 0-0.075-0.028-0.054-0.083-0.089-0.146-0.089-0.024 0-0.047 0.005-0.068 0.015l0.001-0zM30.949 14.403c-0.044-0.013-0.098-0.044-0.102-0.089 0 0-0.004-0.031 0.022-0.040 0.016-0.007 0.035-0.011 0.055-0.011 0.057 0 0.107 0.033 0.131 0.081l0 0.001c0.013 0.018 0.013 0.035 0.004 0.044-0.013 0.022-0.062 0.027-0.111 0.013zM30.932 14.523c-0.013 0.111 0 0.115 0.004 0.115h0.009l0.009-0.004 0.062-0.089-0.080-0.035v0.013zM30.954 14.54l0.031 0.013-0.035 0.049v-0.062zM30.768 14.434l-0.004 0.102 0.089-0.106-0.089-0.009v0.013zM30.785 14.443h0.027l-0.027 0.035v-0.035z"></path>
<path fill="#000" d="M30.706 14.399s0.067 0.129 0.080 0.177c0.004 0.027 0.044 0.062 0.089 0.075 0.044 0.018 0.089 0.018 0.12-0.004l0.058-0.049c0.018-0.022 0.027-0.027 0.044-0.022v-0.022c-0.027 0-0.040 0.009-0.058 0.027l-0.058 0.044c-0.035 0.027-0.075 0.018-0.098 0.009-0.044-0.013-0.075-0.044-0.080-0.066-0.013-0.044-0.075-0.173-0.080-0.177l-0.018 0.009zM30.794 14.017c-0.050 0.027-0.087 0.070-0.106 0.123l-0 0.002 0.018 0.004s0.031-0.080 0.093-0.111c0.016-0.007 0.034-0.012 0.053-0.012s0.038 0.004 0.054 0.012l-0.001-0 0.004-0.018c-0.044-0.018-0.080-0.018-0.12 0zM31.273 14.248c0.009 0 0.142 0.106 0.067 0.23l0.013 0.013c0.089-0.146-0.067-0.261-0.067-0.266l-0.013 0.022zM30.865 14.266s-0.022 0.075 0.089 0.102c0 0-0.102 0-0.111-0.027-0.004-0.027 0-0.084 0.022-0.075zM31.198 14.354c0 0.009-0.009 0.013-0.013 0.013-0 0-0 0-0.001 0-0.006 0-0.011-0.004-0.012-0.009l-0-0c0-0.009 0.004-0.013 0.013-0.013 0.004 0 0.013 0.004 0.013 0.013zM31.207 14.407c0 0.004 0 0.009-0.009 0.009-0 0-0 0-0.001 0-0.006 0-0.011-0.004-0.012-0.009l-0-0c0-0.007 0.006-0.013 0.013-0.013v0c0.004 0 0.009 0.004 0.009 0.013z"></path>
<path fill="#000" d="M31.14 14.381c0 0.007-0.006 0.013-0.013 0.013s-0.013-0.006-0.013-0.013c0-0.007 0.006-0.013 0.013-0.013s0.013 0.006 0.013 0.013z"></path>
<path fill="#000" d="M31.162 14.452c0 0.007-0.006 0.013-0.013 0.013s-0.013-0.006-0.013-0.013v0c0-0.004 0.004-0.009 0.013-0.009l0.013 0.009zM30.848 14.128c0 0.007-0.006 0.013-0.013 0.013s-0.013-0.006-0.013-0.013v0c0.002-0.004 0.006-0.006 0.011-0.006s0.009 0.002 0.011 0.006l0 0z"></path>
<path fill="#000" d="M30.856 14.177c0 0.007-0.006 0.013-0.013 0.013s-0.013-0.006-0.013-0.013c0-0.007 0.006-0.013 0.013-0.013s0.013 0.006 0.013 0.013z"></path>
<path fill="#000" d="M30.79 14.155c0 0.007-0.006 0.013-0.013 0.013s-0.013-0.006-0.013-0.013c0-0.007 0.006-0.013 0.013-0.013s0.013 0.006 0.013 0.013z"></path>
<path fill="#000" d="M30.808 14.226c0 0 0 0.001 0 0.001 0 0.006-0.004 0.011-0.009 0.012l-0 0c-0.007 0-0.013-0.006-0.013-0.013s0.006-0.013 0.013-0.013v0c0.005 0.002 0.009 0.007 0.009 0.013 0 0 0 0.001-0 0.001v-0zM31.020 13.8s0.155 0.098 0.004 0.279c0 0 0.075-0.058 0.080-0.151 0.009-0.093-0.053-0.168-0.089-0.129zM31.619 14.062c-0.053 0.027-0.124-0.022-0.16-0.066s-0.111-0.058-0.16 0.027c-0.044 0.080-0.111 0.111-0.111 0.111s0.067-0.035 0.133-0.111c0.067-0.071 0.106-0.013 0.173 0.022 0.062 0.035 0.075 0.044 0.12 0.022v-0.004z"></path>
<path fill="#000" d="M31.605 14.075c-0.013 0.010-0.029 0.016-0.046 0.016-0.020 0-0.038-0.008-0.051-0.020l0 0c-0.044-0.035-0.075-0.080-0.124-0.053-0.053 0.027-0.146 0.098-0.146 0.098s0.155-0.106 0.186-0.080c0.027 0.022 0.098 0.080 0.137 0.062l0.044-0.022z"></path>
<path fill="#000" d="M31.486 14.137c-0.049-0.035-0.098 0.044-0.137 0.035-0.044-0.009-0.075-0.080-0.075-0.080s0.035 0.071 0.089 0.058c0.058-0.018 0.093-0.053 0.129-0.027 0.031 0.027-0.004 0.013-0.004 0.013z"></path>
<path fill="#000" d="M31.41 14.15c-0.005 0.001-0.011 0.002-0.018 0.002-0.048 0-0.087-0.038-0.089-0.086v-0s0.031 0.080 0.115 0.066l-0.009 0.018z"></path>
<path fill="#000" d="M31.406 14.088c0.004 0.022 0.004 0.035-0.022 0.035s-0.044-0.009-0.044-0.035c0-0.022 0.062-0.018 0.067 0zM31.060 13.955c-0.002 0.015-0.015 0.027-0.031 0.027-0 0-0 0-0 0h0c-0.018 0-0.022-0.009-0.022-0.027s0-0.031 0.022-0.031 0.031 0.013 0.031 0.031z"></path>
<path fill="#000" d="M30.949 13.845s0.168 0 0.089 0.208c0 0 0.062-0.102 0.022-0.177-0.044-0.071-0.102-0.053-0.102-0.053s-0.018 0.013-0.009 0.022z"></path>
<path fill="#000" d="M30.949 13.929c0 0.044 0.027 0.084 0.080 0.129l0.013-0.018c-0.049-0.040-0.075-0.075-0.075-0.111s0.027-0.058 0.027-0.058l-0.013-0.013s-0.031 0.027-0.035 0.071z"></path>
<path fill="#000" d="M30.985 13.964c0.004 0.022 0.027 0.044 0.053 0.053l0.009-0.018c-0.022-0.009-0.040-0.027-0.044-0.044-0.009-0.035 0.018-0.075 0.018-0.075l-0.018-0.013s-0.031 0.053-0.018 0.098zM31.211 14.079s0.031 0.066-0.013 0.137l-0.044 0.071s0.053-0.102 0.031-0.142c-0.018-0.044 0.027-0.066 0.027-0.066zM31.858 14.78c0.168 0.031 0.554 0.332 0.554 0.332l0.022-0.027c-0.013-0.013-0.394-0.31-0.572-0.341l-0.009 0.035zM32.009 15.201c0.009 0.155 0.177 0.248 0.177 0.253l0.022-0.031s-0.155-0.089-0.164-0.222h-0.035zM31.597 15.236c0 0.168 0.16 0.372 0.168 0.381l0.027-0.022s-0.16-0.204-0.16-0.359h-0.035zM31.060 15.254c0.027 0.058 0.027 0.084 0.018 0.098-0.009 0.018-0.027 0.018-0.027 0.018l0.004 0.035c0.013 0 0.040-0.009 0.053-0.035 0.018-0.031 0.013-0.075-0.018-0.133l-0.031 0.018z"></path>
<path fill="#fff" d="M28.64 14.42s0.007 0.113 0.093 0.18c0 0-0.007-0.12 0.020-0.173 0 0-0.047-0.053-0.113-0.007zM28.813 14.487s0.020 0.107 0.080 0.153l0.040-0.007s0.013-0.133 0.033-0.147c0.020-0.013-0.087 0.047-0.153 0z"></path>
<path fill="#fff" d="M28.967 14.487l0.067 0.107 0.080-0.047-0.013-0.12s-0.047-0.013-0.133 0.060zM29.28 14.507l-0.087 0.073s-0.047-0.033-0.080-0.033l0.013-0.113s0.067-0.047 0.153 0.073zM28.66 15.573s-0.013-0.16 0-0.167c0 0 0.067 0.020 0.093 0 0 0 0.033 0.12 0.027 0.173-0.013 0.053-0.073 0.033-0.12 0zM29.060 15.413s-0.007-0.133 0.013-0.153c0 0 0.133 0.020 0.16-0.053l0.047 0.133s-0.14-0.020-0.227 0.067z"></path>
<path fill="#fff" d="M28.92 15.44s0.020-0.14 0.047-0.147c0 0 0.067 0.020 0.087-0.007v0.173s0-0.073-0.133-0.020zM28.767 15.46s0.033-0.127 0.053-0.127 0.067 0.033 0.093 0.013v0.093s-0.107-0.027-0.127 0.127l-0.020-0.107z"></path>
<path fill="#00a651" d="M30.78 18.027s0.347 0.327 0.26 0.613c0 0 0.22-0.487-0.020-0.633-0.24-0.133-0.247-0.033-0.24 0.020z"></path>
<path fill="#964b36" d="M30.333 18.34s-0.087 0.133 0.013 0.22c0 0-0.113 0.16-0.027 0.293 0 0-0.067 0.14-0.053 0.293 0 0-0.053 0.233 0.067 0.34 0 0 0.133 0.067 0.2 0.007 0 0 0.113-0.173 0.040-0.353 0 0 0.080-0.153-0.013-0.347 0 0 0.027-0.107-0.047-0.233 0 0 0.047-0.080 0.007-0.147 0 0-0.167-0.18-0.187-0.067z"></path>
<path fill="#00a651" d="M30.433 17.933s-0.413-0.8-0.707-0.833c-0.293-0.033-0.307-0.32-0.307-0.32s0.033 0.133 0.267 0.133 0.68 0.333 0.733 0.58c0.047 0.247 0.1 0.213 0.1 0.213l-0.087 0.227z"></path>
<path fill="#00a651" d="M30.433 17.873s0.153-1.007 0.813-1.027c0.66-0.013 0.44 0.053 0.6-0.053 0 0-0.44 0.227-0.713 0.267-0.28 0.027-0.507 0.567-0.493 0.667 0 0.1-0.153 0.293-0.227 0.227-0.080-0.067 0.020-0.080 0.020-0.080z"></path>
<path fill="#00a651" d="M30.587 18.253s0.153-0.4 0.407-0.267c0 0-0.2-0.387-0.56-0.053 0 0 0.16 0.22 0.153 0.32zM30.087 17.853s0.213 0.893-0.12 1.167c0 0 0.013-0.46-0.193-0.733-0.2-0.28 0.2-0.58 0.313-0.433z"></path>
<path fill="#00a651" d="M30.113 18.007s0.393 0.38 0.413 0.507c0.027 0.12 0.12-0.38-0.067-0.52s-0.38-0.167-0.38-0.167l0.033 0.187z"></path>
<path fill="#964b36" d="M29.387 19s0.033 0.153 0.133 0.187c0 0 0 0.113 0.093 0.147 0 0-0.047 0.1 0.027 0.16 0 0-0.013 0.2 0.053 0.233 0 0 0.18-0.007 0.24-0.060 0 0 0.033-0.127-0.067-0.253 0 0 0.020-0.12-0.080-0.187 0 0 0.033-0.167-0.093-0.227 0 0-0.020-0.133-0.093-0.2 0 0-0.147 0.207-0.213 0.2z"></path>
<path fill="#00a651" d="M29.58 18.8s-0.513-0.187-0.8 0.080c0 0 0.44 0.067 0.493 0.153s0.327-0.147 0.307-0.233z"></path>
<path fill="#00a651" d="M29.42 19.12l-0.093-0.067c-0.047-0.040-0.48-0.153-0.54 0.267 0 0-0.16-0.42 0.067-0.467 0.233-0.067 0.413 0.067 0.567 0.267M29.087 18.267s0.153 0.347 0.213 0.36c0.060 0.020 0.1-0.040 0.1-0.040s-0.207-0.307-0.32-0.32zM28.967 17.74s-0.133-0.44-0.293-0.32c-0.16 0.113-0.12 0.433-0.12 0.433s-0.313-0.333-0.133-0.587c0.187-0.26 0.547 0.027 0.547 0.473z"></path>
<path fill="#964b36" d="M29.327 18.653s0 0.087 0.060 0.107c0.053 0.027 0.167 0.067 0.167 0.020s-0.087-0.247-0.12-0.22c-0.033 0.027-0.093 0.027-0.107 0.093z"></path>
<path fill="#00a651" d="M29.227 18.133s-0.020-0.38 0.233-0.527c0 0 0.047 0.013 0.073-0.067 0 0-0.2 0.487-0.14 0.733l-0.007 0.027"></path>
<path fill="#00a651" d="M29.273 17.667s0.453-0.933 1-0.607c0 0-0.573 0.113-0.78 0.527l-0.207 0.307-0.013-0.227z"></path>
<path fill="#00a651" d="M29.033 18.007s-0.133-0.627-0.22-0.707c-0.080-0.087-0.22-0.173-0.393-0.033 0 0 0.293-0.26 0.6-0.040 0.313 0.213 0.247 0.56 0.247 0.56l-0.033 0.433-0.207-0.193"></path>
<path fill="#00a651" d="M29.52 18.753s-0.553-1.047-0.913-0.3c0 0-0.067 0.193 0.007 0.267 0 0-0.2-0.153-0.107-0.52s0.7-0.2 0.88 0.1c0.173 0.3 0.22 0.453 0.2 0.467-0.027 0.020-0.067-0.013-0.067-0.013zM31.073 19.053s0.4-0.827 0.633-0.453c0 0 0.067 0.187-0.033 0.267 0 0-0.16-0.2-0.3 0.040-0.147 0.233-0.087 0.213-0.087 0.213s-0.147 0.040-0.213-0.067z"></path>
<path fill="#00a651" d="M31.667 18.867s0.22 0.113 0.147 0.347c0 0 0.293-0.56-0.107-0.613 0 0 0.073 0.18-0.033 0.267zM31.7 18.293s0.527 0.153 0.54 0.38c0 0 0.093-0.44-0.207-0.573 0 0-0.36 0.067-0.333 0.2z"></path>
<path fill="#00a651" d="M31.933 17.6c0.227-0.44 0.507 0.14 0.507 0.14s0.1-0.46-0.18-0.54c-0.287-0.087-0.467 0.98-0.467 0.98l-0.333 0.067s0.087-0.92 0.587-1h0.067"></path>
<path fill="#00a651" d="M31.533 17.867s-0.32-0.653-0.533-0.72 0.113-0.167 0.247-0.040 0.387 0.287 0.36 0.62l-0.073 0.14zM31.2 18.76s0.093-0.44 0.347-0.573c0.253-0.133 0.487-0.087 0.487-0.087s-0.3 0.067-0.353 0.22c-0.047 0.147-0.133 0.16-0.133 0.16l-0.34 0.28z"></path>
<path fill="#964b36" d="M31.067 19.053s-0.133 0.267-0.107 0.307c0 0-0.147 0.22-0.087 0.333 0 0 0.147 0.113 0.213 0.067 0 0 0.173-0.247 0.127-0.38 0 0 0.12-0.16 0.073-0.26 0 0-0.173 0.007-0.213-0.067z"></path>
<path fill="#000" d="M30.333 18.573c0.013 0.007 0.1 0.047 0.153 0.027l0.040-0.033-0.033-0.013c-0.020 0.040-0.113 0.007-0.14-0.007l-0.013 0.027zM30.327 18.84l-0.013 0.033c0.007 0 0.18 0.033 0.26-0.040l-0.027-0.027c-0.067 0.060-0.22 0.027-0.227 0.027zM30.28 19.133l-0.020 0.027s0.2 0.14 0.327-0.013l-0.033-0.020c-0.1 0.127-0.267 0.013-0.273 0zM29.513 19.173l0.007 0.020c0.007 0 0.173-0.067 0.187-0.193h-0.020c-0.007 0.107-0.167 0.173-0.173 0.173zM29.607 19.327v0.020c0.013 0 0.167-0.013 0.193-0.12h-0.020c-0.027 0.087-0.167 0.1-0.173 0.1zM29.64 19.487v0.020c0.007 0 0.18 0.007 0.24-0.087l-0.020-0.013c-0.053 0.087-0.22 0.080-0.22 0.080zM30.953 19.373s0.073 0.080 0.16 0.073c0.045-0.001 0.086-0.021 0.113-0.053l0-0-0.027-0.027c-0.027 0.033-0.053 0.047-0.087 0.047-0.067 0-0.133-0.067-0.133-0.067l-0.027 0.027z"></path>
<path fill="#964b36" d="M36.133 19.987c-0.008 0.005-0.015 0.012-0.020 0.020l-0 0 0.027-0.020zM36.753 19.833c-0.007-0.013-0.013-0.007-0.020-0.013l-0.027-0.053h-0.020l-0.047-0.093c0.001-0.003 0.002-0.006 0.002-0.010s-0.001-0.007-0.002-0.010l0 0c0-0.004 0-0.009 0-0.013s-0-0.009-0-0.014v0.001s-0.013 0-0.020-0.013v-0.107l-0.007-0.033c-0.013-0.020-0.020-0.044-0.020-0.070 0-0.001 0-0.002 0-0.003v0-0.067c0.007-0.027-0.007-0.040-0.007-0.067l0.007-0.060v-0.36l-0.007-0.067-0.007-0.027v-0.107 0.173l-0.013-0.287-0.227-0.107s-0.020 0.413-0.013 0.467c0 0.060 0.027 0.447 0.013 0.493l-0.033 0.287s-0.107 0.080-0.147 0.16c-0.047 0.087-0.033 0.113-0.047 0.113l0.1-0.013-0.073 0.053c0.005-0.002 0.011-0.003 0.018-0.003 0.011 0 0.021 0.004 0.029 0.010l-0-0 0.013 0.013 0.013-0.013c0.020 0 0.033 0.027 0.047 0.020l0.027-0.013 0.013-0.027c0.007-0.007 0.020 0 0.027 0h0.047c0.020 0 0.040-0.033 0.060-0.047 0.013-0.013 0.027-0.020 0.047-0.020s0.040 0.020 0.067 0.020c0.013 0 0.020 0 0.033-0.013l0.027-0.040 0.053-0.007 0.027 0.007h0.040l0.020 0.013 0.013-0.027-0.007-0.027z"></path>
<path fill="#964b36" d="M36.3 19.98h0.040v0.013c0.002 0.001 0.004 0.002 0.007 0.002s0.005-0.001 0.007-0.002l-0 0 0.020 0.013h0.020l0.027 0.007c0.013 0.007 0.027 0 0.040-0.007 0.013-0.013 0.020 0 0.040 0.013 0.007 0.007 0.007 0.007 0.013 0l0.007-0.007 0.040-0.013 0.027-0.013 0.027 0.013c0.002-0 0.004-0 0.007-0s0.005 0 0.007 0l-0-0 0.047-0.033c0.020-0.013 0.033 0 0.047 0h0.020c0.007-0.007 0.013 0 0.027 0 0-0.007 0-0.013 0.013-0.020l0.047 0.027c0.007 0.007 0.047 0.013 0.040-0.013 0-0.027-0.027-0.007-0.033-0.027v-0.040c-0.003-0.011-0.010-0.021-0.020-0.027l-0-0c-0.013 0-0.013 0.007-0.027 0l-0.013-0.040-0.020 0.013c-0.013 0-0.013-0.007-0.020-0.020-0.020-0.020-0.027 0.013-0.047 0.007-0.013 0-0.027-0.033-0.033-0.047-0.007-0.007-0.020-0.033-0.033-0.027s0 0.033 0 0.047h-0.033c-0.013 0-0.013 0-0.020 0.013-0.013 0.027-0.020 0.047-0.047 0.040-0.007 0-0.020-0.007-0.027 0l-0.033 0.013c-0.004 0.001-0.009 0.001-0.013 0.001s-0.009-0-0.014-0.001l0 0-0.027-0.027c0-0.004-0.003-0.007-0.007-0.007s-0.007 0.003-0.007 0.007v0c-0.004-0.008-0.006-0.012-0.008-0.017l0.002 0.003c-0.013 0-0.013 0-0.020 0.020l-0.007 0.033-0.020 0.027-0.027 0.007c-0.013 0-0.027 0.020-0.027 0-0.013-0.027 0.020-0.073-0.013-0.067-0.007 0-0.013 0-0.020 0.013v0.047c-0.007 0.020-0.047 0.053-0.040 0.067 0 0.020 0.027 0 0.027 0l0.013 0.027c0.013 0.020 0.047-0.027 0.047 0M36.16 19.82v-0.013l-0.027-0.007c-0.013 0-0.027 0.020-0.033 0.027-0.013 0.027-0.013 0.067-0.040 0.067h-0.033v0.067s-0.013 0-0.013 0.013c-0.007 0.027 0.013 0.013 0.027 0.013h0.067l0.033-0.007c0.013 0 0.027 0 0.033-0.013 0.005-0.008 0.009-0.016 0.013-0.026l0-0.001v-0.027c0-0.013 0.020-0.007 0.020-0.027 0.007-0.047-0.040-0.013-0.033-0.060"></path>
<path fill="#000" d="M36.72 18.527c0 0.060-0.040 0.107-0.093 0.107-0.047 0-0.093-0.047-0.093-0.107s0.047-0.107 0.093-0.107c0.053 0 0.093 0.047 0.093 0.107zM36.42 18.393c0 0.060-0.040 0.107-0.093 0.107s-0.093-0.047-0.093-0.107c0-0.067 0.047-0.107 0.093-0.107s0.093 0.047 0.093 0.107z"></path>
<path fill="#000" d="M36.58 18.433c0 0.067-0.040 0.107-0.093 0.107s-0.093-0.047-0.093-0.107c0-0.060 0.040-0.107 0.093-0.107s0.093 0.047 0.093 0.107z"></path>
<path fill="#000" d="M36.427 18.533c0 0.060-0.040 0.107-0.093 0.107s-0.093-0.047-0.093-0.107c0-0.060 0.040-0.107 0.093-0.107s0.093 0.047 0.093 0.107z"></path>
<path fill="#000" d="M36.567 18.62c0 0.053-0.040 0.107-0.093 0.107-0.047 0-0.093-0.047-0.093-0.107 0-0.067 0.047-0.113 0.093-0.113 0.053 0 0.093 0.047 0.093 0.107z"></path>
<path fill="#00a651" d="M36.613 17.433s0.927-1.293 1.92 0.047c0 0 0.007 0.133-0.087 0.28l-0.020-0.113-0.067 0.020-0.013-0.067-0.107-0.007 0.033-0.147-0.113 0.093 0.013-0.1-0.133 0.133 0.020-0.287-0.147 0.247 0.020-0.167-0.053 0.073-0.027-0.1-0.047 0.1-0.067-0.047v0.067l-0.12-0.1-0.040 0.133-0.060-0.147-0.013 0.1-0.060-0.113-0.007 0.127-0.193-0.087 0.040 0.12-0.087-0.067 0.013 0.067-0.127-0.027 0.013 0.073-0.133-0.027 0.020 0.067-0.18-0.020 0.067 0.067-0.020 0.040s1-0.333 1.067 0.92l-0.18 0.087 0.053-0.1-0.053-0.033-0.153-0.113 0.047-0.16-0.053 0.020-0.007-0.093-0.027 0.013-0.060-0.087-0.013 0.033-0.040-0.113-0.047 0.080-0.020-0.187-0.067 0.12-0.013-0.067-0.020 0.040-0.087-0.1-0.027 0.067-0.033-0.053-0.020 0.067-0.093-0.093v0.067l-0.067-0.047-0.020 0.033-0.14-0.073-0.007 0.067-0.080-0.067-0.020 0.067s0.907 0.52 0.627 1.36l-0.053 0.107-0.013-0.28-0.087 0.147 0.060-0.327-0.060 0.067-0.007-0.133-0.073 0.133-0.027-0.147-0.033 0.040-0.053-0.213-0.040 0.087-0.067-0.24-0.053 0.1-0.033-0.207-0.033 0.127-0.1-0.187-0.013 0.073-0.060-0.147-0.033 0.047s-0.167-0.007-0.22-0.047c-0.047-0.047-0.187 0.247-0.187 0.247l0.013-0.173-0.060 0.12v-0.12l-0.107 0.353-0.027-0.253-0.053 0.22-0.027-0.067-0.020 0.087-0.033-0.033-0.027 0.1-0.053-0.040v0.133l-0.053-0.067-0.040 0.2-0.027-0.080v0.087l-0.040-0.047-0.040 0.2-0.067-0.087v0.147l0.020 0.107-0.067-0.033 0.027 0.173s-0.26-0.48 0.053-0.947c0.307-0.467 0.727-0.6 0.727-0.6l-0.047-0.040v-0.040l-0.253 0.127v-0.073l-0.067 0.053-0.013-0.080-0.040 0.073-0.007-0.033-0.067 0.093-0.027-0.133-0.040 0.16-0.040-0.113-0.087 0.233v-0.173l-0.067 0.187-0.027-0.2-0.047 0.227v-0.2l-0.080 0.2-0.047-0.2-0.033 0.2-0.053-0.153-0.047 0.227-0.080-0.2-0.040 0.3-0.047-0.12-0.013 0.22-0.053-0.133 0.053 0.28-0.067-0.107 0.020 0.173-0.107-0.193v0.227l-0.053-0.073-0.027 0.087s-0.020-0.867 0.573-1.040c0.593-0.167 0.973 0.053 0.973 0.053l-0.227-0.187 0.027-0.060h-0.080l0.033-0.067-0.18 0.007 0.053-0.067-0.133 0.020v-0.040l-0.087 0.067 0.033-0.080-0.113 0.080-0.007-0.113-0.067 0.093-0.027-0.1-0.267 0.267 0.067-0.273-0.047 0.060-0.007-0.067-0.073 0.12-0.020-0.080-0.033 0.1-0.027-0.12-0.053 0.12-0.067-0.107-0.020 0.14-0.040-0.073-0.053 0.107-0.067-0.067v0.067l-0.133-0.060 0.027 0.1-0.1-0.080-0.027 0.133-0.053-0.067-0.047 0.167-0.040-0.16-0.040 0.127s0.52-1.347 1.84-0.467c0 0 0.147 0.14 0.18 0.24s0.007 0.013 0.007 0.013l-0.027-0.927 0.053 0.4 0.033-0.133-0.007 0.2 0.133-0.287s-0.16 0.48-0.1 0.66c0 0 0.060-0.56 0.26-0.627l-0.187 0.4 0.060-0.007-0.040 0.080h0.047l-0.060 0.133-0.033 0.067 0.033 0.067 0.053-0.047z"></path>
<path fill="#000" d="M36.473 17.973l0.027 0.027s0.087-0.093 0.227 0.027l0.020-0.027c-0.167-0.14-0.267-0.027-0.267-0.027zM36.433 17.52v0.033l0.060-0.027-0.047 0.080 0.1-0.033-0.12 0.153 0.027 0.020 0.193-0.247-0.12 0.040 0.053-0.087-0.107 0.040 0.020-0.127h-0.033l-0.027 0.153z"></path>
<path fill="#000" d="M36.26 17.533l0.040 0.087-0.067-0.027 0.193 0.347 0.027-0.033-0.040 0.1 0.033 0.013 0.080-0.213-0.027-0.020-0.067 0.087-0.12-0.207 0.053 0.020-0.053-0.113 0.073 0.040v-0.127h-0.033v0.067l-0.12-0.073 0.027 0.053zM36.133 17.96l0.013 0.033c0.053-0.020 0.1-0.027 0.133-0.013 0.033 0.020 0.047 0.060 0.047 0.067l0.033-0.013s-0.013-0.060-0.067-0.080c-0.040-0.020-0.093-0.020-0.16 0.007zM36.287 18.32l-0.033-0.187h0.040l0.027 0.18zM36.54 18.293l-0.047-0.147 0.033-0.007 0.047 0.133zM36.633 18.393l-0.033-0.14 0.033-0.007 0.040 0.14z"></path>
<path fill="#00a651" d="M29.507 22.68s-0.16-0.067-0.233-0.013c-0.067 0.047-0.060 0.127-0.12 0.12 0 0 0.24 0.053 0.287-0.007l0.067-0.080M29.533 22.747s-0.107 0.133-0.067 0.22c0.033 0.080 0.113 0.087 0.093 0.147 0 0 0.1-0.22 0.053-0.287s-0.067-0.073-0.067-0.073M29.36 22.367s-0.167 0.053-0.187 0.133c-0.013 0.093 0.040 0.14-0.007 0.18 0 0 0.213-0.12 0.207-0.2v-0.1M29.453 22.427s0.080-0.153 0.033-0.227c-0.053-0.080-0.133-0.067-0.12-0.133 0 0-0.067 0.233 0 0.293l0.073 0.067M29.293 22.367s0-0.173-0.067-0.213c-0.080-0.047-0.147-0.007-0.167-0.067 0 0 0.047 0.24 0.12 0.267l0.1 0.020M29.573 22.653s0.18-0.067 0.2 0.133c0.013 0.2-0.013 0.133-0.013 0.133s-0.093-0.213-0.2-0.247l0.013-0.020z"></path>
<path fill="#000" d="M29.533 22.753l0.013 0.147h0.027l-0.020-0.147 0.067-0.327h-0.027l-0.067 0.327z"></path>
<path fill="#000" d="M29.367 22.707l-0.007 0.020c0.087 0.033 0.2-0.067 0.207-0.067l-0.013-0.020s-0.113 0.087-0.187 0.067zM29.593 22.513l-0.4-0.2 0.013-0.033 0.4 0.2z"></path>
<path fill="#000" d="M29.3 22.467l-0.027-0.027 0.080-0.080 0.027 0.027zM29.44 22.427l-0.087-0.187 0.033-0.013 0.087 0.187zM29.56 22.653v0.040c0.113-0.007 0.133 0.067 0.133 0.067l0.040-0.013c0-0.020-0.047-0.1-0.173-0.093z"></path>
<path fill="#fff" d="M31.413 22.733c0.133-0.067 0.16-0.333 0.16-0.333-0.033 0.093-0.28 0.193-0.28 0.193 0.18-0.113 0.4-0.627 0.4-0.627-0.053 0.18-0.533 0.333-0.84 0.507s-0.147 0.667-0.147 0.667c-0.087-0.060-0.253-0.32-0.287-0.553s-0.12-0.327-0.333-0.353c-0.207-0.027-0.333 0.213-0.333 0.213l-0.313 0.16 0.32 0.013s0.227 0.073 0.227 0.253c0 0.173-0.2 0.887 0.133 1.287 0.22 0.273 1.067 0.433 1.067 0.433"></path>
<path fill="#fff" d="M30.793 23.287s0.067-0.32 0.273-0.307c0.207 0.013 0.267-0.24 0.393-0.273 0.127-0.040 0.767-0.213 0.833-0.52 0 0-0.060 0.507-0.647 0.76 0 0 0.473-0.153 0.533-0.26 0 0-0.213 0.453-0.727 0.527 0 0 0.48-0.040 0.547-0.167 0 0-0.213 0.28-0.567 0.32 0 0 0.333 0.133 0.413 0.020 0 0-0.18 0.213-0.4 0.227l0.067 0.013s-0.213 0.253-0.447 0.087-0.24 0.040-0.24 0.040"></path>
<path fill="#fff" d="M31.267 23.767s0.273 0.453 0.3 0.693c0 0 0.52 0.567 0.713 0.6 0 0-0.093 0.040-0.267-0.1 0 0 0.147 0.147 0.173 0.153 0.027 0-0.113-0.013-0.133-0.053 0.026 0.039 0.057 0.072 0.092 0.099l0.001 0.001-0.033-0.013s-0.067-0.007-0.107-0.033c-0.033-0.027-0.007 0.067-0.007 0.067s-0.080-0.020-0.107-0.047c-0.027-0.027 0.007 0.060 0.007 0.060l-0.067-0.020-0.053 0.033s0 0.033-0.033 0c-0.033-0.020-0.093 0-0.093 0s-0.040 0.040-0.067 0.013c-0.020-0.027-0.1 0.107-0.1 0.107l-0.333-0.82"></path>
<path fill="#000" d="M31.593 25.247l-0.427-0.813 0.040-0.027 0.427 0.82zM31.967 25.193l-0.733-0.82 0.040-0.033 0.733 0.82zM32.133 25.127l-0.833-0.793 0.033-0.033 0.833 0.78z"></path>
<path fill="#000" d="M30.036 22.492s-0.053-0.098-0.102-0.058c-0.044 0.035-0.071 0.044-0.080 0.040 0 0 0.044 0 0.075-0.022 0.027-0.027 0.071-0.013 0.106 0.044zM29.744 22.448l0.031 0.062-0.035 0.102 0.027 0.009 0.031-0.111-0.031-0.071-0.022 0.009z"></path>
<path fill="#000" d="M30.028 22.479s-0.044 0.044-0.098 0.035l-0.058-0.013h0.080c0.031 0 0.071-0.013 0.075-0.022z"></path>
<path fill="#000" d="M30.014 22.488s-0.053-0.053-0.089-0.035c0 0 0.062-0.022 0.098 0.031l-0.009 0.004z"></path>
<path fill="#000" d="M30.005 22.479s-0.058 0.040-0.12 0l-0.004-0.009h0.009s0.075 0.031 0.115 0.009z"></path>
<path fill="#000" d="M29.974 22.47c0 0.010-0.008 0.018-0.018 0.018s-0.018-0.008-0.018-0.018c0-0.010 0.008-0.018 0.018-0.018s0.018 0.008 0.018 0.018z"></path>
<path fill="#000" d="M30 23.973s-0.047 0.080-0.020 0.133c0.020 0.047 0.133 0.067 0.14 0.133 0.013 0.067 0.053 0.067 0.1 0.067l0.060-0.020s-0.207-0.107-0.267-0.287l-0.013-0.027z"></path>
<path fill="#964b36" d="M36.627 22.32s0.373-0.493 0.707-0.367c0.333 0.133 0.54 0.2 0.54 0.2s0.007 0.327-0.167 0.327-0.347-0.333-0.507-0.233c-0.122 0.070-0.223 0.164-0.298 0.277l-0.002 0.003c-0.007 0.047-0.42 0.053-0.273-0.207z"></path>
<path fill="#964b36" d="M35.213 24.693s-0.107 0.107-0.060 0.133c0.047 0.027 0.14 0 0.14-0.040s-0.067-0.107-0.080-0.093z"></path>
<path fill="#964b36" d="M35.133 24.8s-0.2-0.113-0.347 0.147c-0.153 0.253-0.273 0.673-0.36 0.733-0.087 0.053 0.853-0.413 0.867-0.613 0 0 0.060-0.253-0.040-0.247-0.1 0-0.107 0.013-0.127-0.027z"></path>
<path fill="#964b36" d="M35.153 24.827s-0.2 0.047-0.24 0.327c-0.040 0.28-0.313 0.42-0.333 0.433M37.873 22.147s-0.293 0.107-0.247 0.313"></path>
<path fill="#fff200" d="M35.58 22.753s0.013-0.707 0.593-0.68c0.107 0.013 0.053 0.14 0.053 0.14s0.133-0.087 0.187 0.053c0 0 0.18-0.080 0.2 0.1 0 0 0.2-0.027 0.173 0.133 0 0 0.133-0.033 0.133 0.080 0 0 0.153-0.060 0.133 0.1 0 0 0.173-0.113 0.153 0.093 0 0 0.173-0.127 0.233 0.080 0.067 0.213-0.173 0.653-0.407 0.767"></path>
<path fill="#000" d="M37.193 22.8s0.073 0.547-0.233 0.753l0.007 0.013c0.327-0.2 0.247-0.767 0.247-0.773h-0.020zM36.813 23.4l0.013 0.013c0.2-0.193 0.247-0.707 0.247-0.733h-0.020s-0.047 0.533-0.24 0.72zM36.633 23.273h0.020c0.044-0.26 0.14-0.491 0.277-0.693l-0.004 0.006-0.013-0.007s-0.253 0.367-0.28 0.693zM36.487 23.18h0.020c0.033-0.38 0.293-0.667 0.293-0.673l-0.013-0.013s-0.267 0.3-0.3 0.687zM36.287 23.047h0.020c0.020-0.447 0.32-0.667 0.32-0.667l-0.013-0.020s-0.307 0.227-0.333 0.693zM36.1 22.94h0.020c-0.013-0.413 0.3-0.667 0.307-0.667l-0.013-0.013s-0.333 0.253-0.313 0.68zM35.767 22.787h0.020c0.033-0.261 0.21-0.474 0.449-0.559l0.005-0.001v-0.020c-0.254 0.087-0.44 0.308-0.473 0.577l-0 0.003z"></path>
<path fill="#00a651" d="M35.24 23.613s-0.1-0.66 0.293-0.867c0 0 0.073-0.013 0.113 0.080 0 0 0.207-0.087 0.213 0.087 0 0 0.107-0.080 0.133 0.033 0 0 0.22-0.047 0.18 0.12 0 0 0.187-0.053 0.167 0.107 0 0 0.187-0.067 0.16 0.067 0 0 0.2-0.040 0.147 0.12 0 0 0.247-0.027 0.173 0.14 0 0 0.18-0.047 0.133 0.093 0 0 0.24 0.047 0.133 0.2-0.173 0.205-0.392 0.364-0.642 0.463l-0.011 0.004"></path>
<path fill="#00a651" d="M35.027 24.273s-0.16-0.547 0.147-0.687c0 0 0.060-0.013 0.067 0.040 0 0 0.067-0.087 0.12-0.007 0 0 0.153-0.073 0.193 0.040 0 0 0.1-0.087 0.153 0.040 0 0 0.1-0.040 0.1 0.067 0 0 0.133-0.067 0.133 0.067 0 0 0.133-0.053 0.1 0.080 0 0 0.2 0.033 0.14 0.127 0 0 0.18 0.047 0.113 0.12 0 0 0.187-0.020 0.087 0.107 0 0 0.147-0.047 0.067 0.113-0.087 0.16-0.347 0.333-0.533 0.36"></path>
<path fill="#00a651" d="M35.22 24.707s-0.34-0.333-0.18-0.427c0 0 0.067 0.020 0.1 0.093 0 0 0.080-0.12 0.133 0 0 0 0.12-0.040 0.12 0.047l0.093 0.067s0.113-0.007 0.093 0.067c0 0 0.127-0.020 0.12 0.047 0 0 0.107 0.007 0.1 0.080 0 0 0.187 0.033 0.1 0.127 0 0-0.32 0.067-0.553-0.027 0 0-0.113-0.040-0.127-0.073z"></path>
<path fill="#000" d="M36.393 24.16v0.020c0.224-0.161 0.414-0.353 0.568-0.572l0.005-0.008-0.020-0.013c0 0.007-0.36 0.5-0.553 0.573zM36.273 24.073l0.013 0.020c0.173-0.1 0.527-0.567 0.533-0.587l-0.007-0.013c-0.007 0.007-0.367 0.48-0.533 0.58zM36.173 24.033l0.013 0.013c0.178-0.199 0.333-0.425 0.458-0.669l0.008-0.018-0.013-0.007s-0.28 0.527-0.467 0.68zM36.087 23.913h0.020c0.033-0.253 0.4-0.66 0.4-0.667l-0.020-0.007c-0.013 0.013-0.367 0.413-0.4 0.673zM35.36 23.6h0.020c-0.027-0.367 0.273-0.767 0.28-0.767l-0.020-0.013s-0.313 0.413-0.28 0.78zM35.553 23.633h0.020c-0.053-0.293 0.293-0.707 0.293-0.713l-0.013-0.013c-0.013 0.020-0.353 0.427-0.3 0.727zM35.847 23.74h0.020c-0.013-0.333 0.307-0.667 0.313-0.667l-0.013-0.020c0 0.007-0.333 0.347-0.32 0.687zM35.147 24.34h0.020c-0.12-0.313 0.080-0.707 0.087-0.707l-0.020-0.013s-0.207 0.407-0.087 0.727zM35.28 24.367l0.020-0.007c-0.107-0.313 0.067-0.733 0.067-0.733l-0.013-0.013s-0.18 0.433-0.073 0.753zM35.833 24.68v0.013c0.333-0.113 0.553-0.42 0.553-0.42l-0.020-0.013s-0.213 0.3-0.533 0.42zM35.767 24.607v0.020c0.267-0.12 0.513-0.453 0.513-0.453l-0.013-0.013s-0.247 0.333-0.5 0.447zM35.7 24.58l0.013 0.020c0.2-0.153 0.467-0.533 0.467-0.533l-0.013-0.013s-0.267 0.38-0.467 0.527zM35.367 24.387h0.027c-0.001-0.018-0.001-0.040-0.001-0.062 0-0.244 0.062-0.473 0.172-0.672l-0.004 0.007-0.020-0.007s-0.213 0.4-0.167 0.733zM35.513 24.48l0.013 0.013c0.213-0.193 0.287-0.707 0.287-0.733h-0.020s-0.067 0.533-0.28 0.72zM35.66 24.533l0.013 0.020c0.189-0.16 0.325-0.378 0.379-0.626l0.001-0.007h-0.020s-0.080 0.4-0.373 0.62zM35.693 23.64v0.060l-0.227 0.733 0.020 0.007 0.227-0.733c-0.033-0.36 0.28-0.753 0.287-0.753l-0.020-0.013s-0.287 0.353-0.287 0.7z"></path>
<path fill="#000" d="M35.933 23.82c0 0.013-0.073 0.513-0.347 0.7l0.013 0.020c0.28-0.193 0.347-0.687 0.347-0.713 0.12-0.14 0.4-0.647 0.4-0.647l-0.013-0.013s-0.28 0.507-0.4 0.653zM35.133 24.373c0 0.007 0.040 0.267 0.093 0.347l0.020-0.007c-0.053-0.087-0.1-0.34-0.1-0.347l-0.020 0.007zM35.26 24.373l-0.007 0.353h0.020v-0.353h-0.013z"></path>
<path fill="#000" d="M35.267 24.733l0.020 0.007c0.087-0.187 0.113-0.32 0.113-0.32h-0.020s-0.027 0.127-0.113 0.313zM35.287 24.74l0.013 0.020c0.098-0.059 0.17-0.153 0.199-0.264l0.001-0.003h-0.020s-0.040 0.16-0.193 0.247zM35.32 24.753v0.020c0.16-0.013 0.267-0.207 0.267-0.22h-0.013s-0.107 0.187-0.253 0.2z"></path>
<path fill="#000" d="M35.333 24.767v0.020c0.26-0.020 0.373-0.173 0.373-0.18l-0.013-0.007s-0.113 0.147-0.36 0.167z"></path>
<path fill="#000" d="M35.353 24.767v0.020c0.007 0 0.333 0.073 0.447-0.093l-0.020-0.013c-0.1 0.16-0.427 0.093-0.427 0.087z"></path>
<path fill="none" stroke="#000" stroke-linejoin="miter" stroke-linecap="butt" stroke-miterlimit="4.8" stroke-width="0.1867" d="M28.060 12.88v9.093c0 2.973 5.373 4.733 5.373 4.733s5.367-1.76 5.367-4.733v-9.093z"></path>
<path fill="#012169" d="M0 0h21.333v16h-21.333z"></path>
<path fill="#fff" d="M2.5 0l8.133 6.033 8.1-6.033h2.6v2.067l-8 5.967 8 5.933v2.033h-2.667l-8-5.967-7.967 5.967h-2.7v-2l7.967-5.933-7.967-5.933v-2.133z"></path>
<path fill="#c8102e" d="M14.133 9.367l7.2 5.3v1.333l-9.033-6.633zM8 10.033l0.2 1.167-6.4 4.8h-1.8zM21.333 0v0.1l-8.3 6.267 0.067-1.467 6.567-4.9zM0 0l7.967 5.867h-2l-5.967-4.467z"></path>
<path fill="#fff" d="M8.033 0v16h5.333v-16zM0 5.333v5.333h21.333v-5.333z"></path>
<path fill="#c8102e" d="M0 6.433v3.2h21.333v-3.2zM9.1 0v16h3.2v-16z"></path>
</svg>
