<!-- Generated by IcoMoon.io -->
<svg version="1.1" xmlns="http://www.w3.org/2000/svg" width="43" height="32" viewBox="0 0 43 32">
<title>fk</title>
<path fill="#012169" d="M0 0h42.667v32h-42.667z"></path>
<path fill="#012169" d="M0 0h26.667v13.333h-26.667z"></path>
<path fill="#000" stroke="#fff" stroke-linejoin="miter" stroke-linecap="butt" stroke-miterlimit="4" stroke-width="0.6667" d="M27.527 20.593c-0.017-0.002-0.037-0.002-0.057-0.002s-0.040 0.001-0.059 0.003l0.003-0c-0.2 0.040-0.507 0.753-0.667 1.173-0.273 0.36-0.413 0.64-0.52 0.847-0.047 0.080-0.113 0.173-0.093 0.28-0.4 0.107-0.42 0.493-0.42 0.64 0 0.167 0.047 0.247 0.047 0.247l0.24 0.5v0.007c0.253 0.6 0.627 1.393 0.847 1.453 0.293 0.1 1.067-0.22 1.653-0.78 1.047 0.502 2.265 0.798 3.544 0.807h0.003c1.36 0 2.58-0.367 3.533-0.807 0.587 0.56 1.36 0.88 1.667 0.78 0.2-0.067 0.58-0.867 0.84-1.453l0.233-0.507s0.047-0.080 0.047-0.24c0-0.147-0.020-0.533-0.42-0.64 0.020-0.107-0.040-0.2-0.087-0.287-0.113-0.213-0.253-0.493-0.513-0.867-0.173-0.413-0.48-1.113-0.667-1.147-0.28-0.053-0.867 0.1-0.867 0.16v0.027l-1.18 1.24c0 0.033 0.060 0.933 0.287 1.733-0.839 0.347-1.808 0.547-2.819 0.547-0.024 0-0.048-0-0.072-0l0.004 0c-1.133 0-2.1-0.227-2.88-0.553 0.137-0.504 0.239-1.094 0.285-1.701l0.002-0.032-1.173-1.233v-0.027c0-0.047-0.453-0.167-0.74-0.167zM27.82 22.127c0.153 0 0.307 0.147 0.433 0.293l-0.007 0.087c-0.056 0.268-0.12 0.495-0.197 0.714l0.011-0.034c-0.308-0.201-0.574-0.419-0.818-0.665l0.005 0.005c0.127-0.153 0.333-0.36 0.547-0.387h0.027zM36.26 22.127h0.027c0.22 0.040 0.42 0.247 0.553 0.4-0.241 0.244-0.51 0.464-0.797 0.653l-0.023 0.014c-0.067-0.188-0.131-0.417-0.181-0.653l-0.006-0.034c-0.005-0.022-0.009-0.051-0.013-0.081l-0.001-0.006c0.133-0.153 0.287-0.287 0.44-0.287zM26.767 23.887c0.16 0.133 0.36 0.293 0.607 0.453-0.061 0.046-0.132 0.083-0.208 0.105l-0.005 0.001c-0.107 0.027-0.207 0.020-0.313 0-0.039-0.11-0.063-0.238-0.067-0.372l-0-0.002c-0.005-0.045-0.009-0.109-0.013-0.174l-0.001-0.013zM37.313 23.887l-0.007 0.187c-0.005 0.133-0.029 0.258-0.069 0.374l0.002-0.008c-0.049 0.014-0.105 0.022-0.162 0.022-0.138 0-0.266-0.045-0.374-0.123l0.003 0.002c0.247-0.16 0.453-0.32 0.607-0.453z"></path>
<path fill="#000" d="M28.413 22.64s-0.407-0.74-0.74-0.68c-0.34 0.047-0.667 0.52-0.68 0.547-0.188-0.186-0.353-0.394-0.494-0.623l-0.006-0.010c0.020-0.027 0.52-1.393 0.8-1.453 0.267-0.060 0.847 0.1 0.847 0.153z"></path>
<path fill="#000" d="M29.32 21.847c0 0.053-0.147 2.013-0.727 2.693-0.573 0.687-1.533 1.107-1.88 1.007-0.333-0.107-1.1-2.087-1.1-2.087s0.813 0.947 1.42 0.787c0.607-0.153 0.973-1.34 1.087-1.927 0.113-0.573 0.020-1.713 0.020-1.713l1.187 1.24z"></path>
<path fill="#000" d="M35.527 22.64s0.413-0.74 0.747-0.68c0.333 0.047 0.653 0.52 0.68 0.547 0.188-0.186 0.353-0.394 0.494-0.623l0.006-0.010c-0.027-0.027-0.527-1.393-0.8-1.453s-0.853 0.1-0.853 0.153z"></path>
<path fill="#000" d="M34.62 21.847c0 0.053 0.147 2.013 0.727 2.693 0.58 0.687 1.533 1.107 1.88 1.007 0.333-0.107 1.107-2.087 1.107-2.087s-0.82 0.947-1.427 0.787c-0.6-0.153-0.967-1.34-1.080-1.927-0.12-0.573-0.027-1.713-0.027-1.713l-1.187 1.24z"></path>
<path fill="#000" d="M26.747 21.747c-0.267 0.367-0.407 0.653-0.527 0.867-0.113 0.213-0.040 0.513 0.213 0.933 0.287 0.447 2.6 2.227 5.607 2.227 3.013 0 5.32-1.773 5.6-2.227 0.267-0.427 0.333-0.72 0.22-0.933s-0.26-0.5-0.527-0.867c0 0.553-1.913 2.567-5.293 2.567s-5.293-2.013-5.293-2.567z"></path>
<path fill="#000" d="M37.18 25.253l0.52-1.007-0.26-0.213c-0.067 0.253-0.367 0.34-0.42 0.667-0.047 0.313 0.2 0.627 0.16 0.553z"></path>
<path fill="#000" d="M37.653 24.967s0.093-0.453-0.2-0.507c-0.293-0.053-0.453 0.253-0.407 0.133 0.040-0.133 0.213-0.267 0.247-0.713 0.020-0.447-0.027-0.687-0.027-0.687s0.12-0.58 0.587-0.5c0.48 0.087 0.5 0.507 0.5 0.66 0 0.005 0 0.011 0 0.017 0 0.078-0.015 0.152-0.042 0.22l0.001-0.004z"></path>
<path fill="#000" d="M35.947 23.447l0.1 0.187 0.067-0.040-0.047-0.133 0.007-0.020 0.113-0.080 0.293 0.58v0.033l-0.067 0.047 0.033 0.053 0.28-0.2-0.027-0.053-0.067 0.040h-0.020l-0.293-0.587 0.107-0.080h0.027l0.067 0.107 0.067-0.047-0.1-0.187-0.533 0.38zM35.247 23.893l0.027 0.053 0.060-0.027 0.020 0.007 0.26 0.593-0.007 0.027-0.053 0.040 0.020 0.053 0.273-0.167-0.020-0.053-0.060 0.027h-0.027l-0.12-0.287 0.287-0.16 0.12 0.267v0.033l-0.067 0.040 0.027 0.060 0.28-0.167-0.027-0.053-0.060 0.027-0.020-0.013-0.253-0.587v-0.027l0.053-0.040-0.020-0.053-0.273 0.167 0.020 0.053 0.067-0.033 0.020 0.013 0.1 0.24-0.28 0.167-0.107-0.247 0.013-0.027 0.053-0.033-0.027-0.060zM35.087 24.4l0.013 0.053 0.080-0.020 0.027 0.007 0.060 0.247-0.053 0.027c-0.167 0.053-0.293-0.033-0.353-0.247-0.053-0.213 0.013-0.373 0.167-0.427 0.018-0.006 0.039-0.009 0.061-0.009 0.011 0 0.023 0.001 0.034 0.003l-0.001-0 0.020 0.013 0.053 0.113 0.080-0.027-0.047-0.2c-0.087 0-0.167 0.013-0.233 0.040-0.24 0.087-0.347 0.3-0.287 0.547 0.067 0.247 0.26 0.36 0.48 0.287 0.087-0.032 0.162-0.077 0.228-0.135l-0.002 0.001-0.080-0.273 0.013-0.027 0.060-0.027-0.020-0.060zM34.44 25.087l0.313-0.113-0.020-0.060-0.067 0.013-0.020-0.007-0.173-0.64 0.007-0.020 0.067-0.033-0.013-0.053-0.313 0.107 0.020 0.060 0.067-0.020 0.027 0.013 0.167 0.633-0.013 0.027-0.067 0.027 0.020 0.060zM32.74 25.393l0.553-0.053-0.020-0.227-0.067 0.007-0.013 0.133-0.013 0.020-0.233 0.027-0.027-0.327 0.133-0.013 0.020 0.020 0.013 0.087h0.067l-0.027-0.293h-0.067v0.093l-0.013 0.027-0.133 0.007-0.027-0.293 0.207-0.020 0.013 0.013 0.027 0.113 0.073-0.007-0.013-0.2-0.52 0.053v0.060h0.067l0.020 0.020 0.047 0.66-0.007 0.020-0.067 0.013v0.067zM31.913 24.573v0.067h0.067l0.013 0.020 0.007 0.66-0.013 0.020-0.060 0.013v0.053h0.293v-0.060h-0.067l-0.013-0.027v-0.32h0.293v0.307l-0.013 0.020-0.060 0.007v0.067h0.293v-0.067h-0.067l-0.007-0.027-0.013-0.667 0.013-0.020h0.067v-0.067h-0.3v0.067l0.067 0.007 0.013 0.020v0.267l-0.287 0.007-0.013-0.267 0.020-0.020h0.060v-0.067zM31.287 24.553v0.22h0.067l0.020-0.133 0.013-0.020h0.127v0.68l-0.020 0.027h-0.067v0.067h0.307v-0.060l-0.067-0.007-0.020-0.027 0.007-0.667h0.12l0.020 0.013 0.020 0.133h0.067v-0.22zM30.333 25.26l0.533 0.027 0.013-0.22h-0.067l-0.020 0.127-0.013 0.013-0.233-0.007 0.013-0.333 0.127 0.013 0.013 0.020 0.013 0.093h0.053l0.013-0.287h-0.060l-0.013 0.080-0.013 0.020h-0.133l0.013-0.307 0.2 0.013 0.013 0.013 0.007 0.113h0.073v-0.193l-0.5-0.027v0.060l0.067 0.013 0.007 0.020-0.027 0.66-0.013 0.020h-0.067v0.060zM29.093 24.9l0.293 0.107 0.013-0.053-0.067-0.033v-0.027l0.167-0.633 0.020-0.013 0.067 0.020 0.013-0.053-0.287-0.113-0.013 0.060 0.060 0.027 0.013 0.027-0.18 0.627-0.013 0.020-0.067-0.020zM28.587 24.68c0.049 0.045 0.107 0.081 0.169 0.105l0.004 0.001c0.16 0.053 0.287-0.013 0.32-0.147 0.006-0.021 0.009-0.045 0.009-0.070 0-0.054-0.016-0.105-0.043-0.144l0 0-0.12-0.133c-0.040-0.060-0.053-0.107-0.040-0.167 0.020-0.060 0.073-0.093 0.147-0.067 0.027 0.013 0.053 0.027 0.067 0.047v0.020l-0.013 0.133 0.067 0.020 0.053-0.187c-0.047-0.047-0.102-0.086-0.163-0.112l-0.004-0.001c-0.133-0.053-0.253 0.020-0.293 0.147-0.005 0.018-0.007 0.039-0.007 0.060 0 0.047 0.013 0.091 0.034 0.127l-0-0.001c0.027 0.067 0.067 0.1 0.1 0.133 0.060 0.067 0.080 0.133 0.067 0.193-0.020 0.067-0.080 0.1-0.16 0.067-0.031-0.013-0.057-0.031-0.080-0.054l0 0-0.007-0.020 0.027-0.147-0.073-0.027zM27.933 24.373l0.493 0.267 0.080-0.2-0.067-0.033-0.060 0.113-0.020 0.007-0.207-0.12 0.12-0.287 0.12 0.067v0.020l-0.020 0.087 0.053 0.033 0.107-0.267-0.053-0.027-0.047 0.073-0.020 0.013-0.113-0.067 0.107-0.267 0.18 0.1 0.007 0.020-0.027 0.107 0.067 0.033 0.067-0.173-0.453-0.26-0.027 0.053 0.053 0.040 0.007 0.027-0.24 0.6h-0.020l-0.060-0.020zM27.86 23.373l-0.247-0.193-0.033 0.053 0.047 0.047 0.007 0.027-0.307 0.547-0.027 0.007-0.047-0.033-0.033 0.053 0.24 0.187c0.093 0.067 0.167 0.1 0.24 0.093 0.107-0.013 0.2-0.080 0.267-0.2 0.12-0.227 0.087-0.44-0.107-0.587zM27.753 23.373l0.053 0.040c0.133 0.1 0.147 0.247 0.033 0.44-0.113 0.2-0.233 0.24-0.36 0.133l-0.053-0.027 0.333-0.58zM29.707 24.24l-0.007 0.053 0.060 0.020 0.007 0.027-0.113 0.647-0.020 0.013h-0.067v0.053l0.273 0.067 0.013-0.053-0.067-0.027-0.007-0.020 0.047-0.273h0.020c0.1 0.027 0.12 0.087 0.12 0.213 0.007 0.060 0.007 0.113 0.053 0.18 0.020 0.027 0.047 0.053 0.093 0.060 0.029 0.007 0.064 0.012 0.099 0.013l0.001 0 0.007-0.053h-0.007c-0.067-0.020-0.1-0.047-0.1-0.12-0.013-0.067 0-0.133-0.027-0.2-0.018-0.042-0.048-0.074-0.086-0.093l-0.001-0c0.113 0 0.18-0.060 0.2-0.167 0.027-0.133-0.033-0.233-0.193-0.267l-0.293-0.073zM29.907 24.353l0.040 0.013c0.093 0.027 0.133 0.093 0.113 0.193-0.020 0.113-0.080 0.153-0.187 0.12l-0.033-0.007 0.060-0.32zM33.52 24.42l0.007 0.067h0.067l0.020 0.013 0.093 0.653-0.013 0.020-0.067 0.020 0.013 0.053 0.3-0.053v-0.067l-0.073 0.013-0.020-0.020-0.040-0.267h0.020c0.107-0.033 0.147 0.013 0.2 0.127 0.020 0.053 0.033 0.107 0.1 0.147 0.027 0.020 0.067 0.027 0.12 0.020 0.042-0.010 0.078-0.021 0.112-0.035l-0.006 0.002-0.007-0.060h-0.013c-0.073 0.020-0.113 0-0.147-0.060-0.027-0.053-0.047-0.12-0.087-0.167-0.027-0.033-0.067-0.053-0.12-0.053 0.113-0.053 0.167-0.133 0.153-0.247-0.020-0.133-0.113-0.2-0.28-0.167zM33.753 24.453h0.047c0.107-0.027 0.167 0.013 0.187 0.12 0.013 0.107-0.033 0.173-0.147 0.2h-0.040l-0.053-0.32z"></path>
<path fill="#000" d="M26.767 25.253l-0.52-1.007 0.26-0.213c0.067 0.253 0.367 0.34 0.42 0.667 0.047 0.313-0.2 0.627-0.16 0.553z"></path>
<path fill="#000" d="M26.287 24.967s-0.093-0.453 0.2-0.507c0.293-0.053 0.453 0.253 0.413 0.133-0.047-0.133-0.22-0.267-0.247-0.713s0.020-0.687 0.020-0.687-0.113-0.58-0.587-0.5c-0.473 0.087-0.5 0.507-0.5 0.66 0 0.147 0.047 0.233 0.047 0.233z"></path>
<path fill="#0072c4" d="M32.033 23.74s-5.467-1.8-5.427-8.627l0.040-9.040h10.753l0.040 8.987c0.033 6.827-5.427 8.673-5.427 8.673z"></path>
<path fill="#bcbcbc" d="M27.351 8.241c0.010 0 0.073-0.071 0.137-0.132 0.083-0.055 0.161-0.115 0.244-0.165 0.068-0.038 0.195-0.071 0.249-0.104 0.082-0.046 0.15-0.109 0.204-0.185l0.001-0.001c0.010-0.115 0.024-0.203 0.024-0.34 0.088-0.055 0.166-0.099 0.244-0.132 0.112-0.038 0.137-0.088 0.249-0.11 0.073-0.027 0.191-0.027 0.293-0.027 0.112 0 0.181 0.093 0.283 0.11 0.122 0.055 0.176 0.093 0.274 0.186 0.049 0.077 0.083 0.143 0.176 0.197 0.073 0.044 0.142 0.11 0.225 0.132 0.098 0.060 0.176 0.099 0.249 0.186 0.068 0.055 0.098 0.132 0.156 0.186 0.068 0.065 0.143 0.127 0.222 0.182l0.008 0.005c0.098 0.071 0.195 0.126 0.347 0.11 0.083 0 0.171-0.016 0.269 0 0.112 0 0.22 0 0.318 0.033 0.117 0 0.21 0.016 0.318 0.027 0.098 0.016 0.2 0.022 0.313 0.022 0.098 0.033 0.205 0.027 0.318 0.027h0.635c0.112 0 0.23 0.005 0.313 0.027 0.113-0.002 0.223-0.012 0.331-0.029l-0.013 0.002c0.122 0 0.215-0.022 0.337-0.027h0.381c0.098 0.033 0.225 0.055 0.293 0.11 0.093 0.027 0.137 0.077 0.225 0.104 0.073 0.038 0.176 0.104 0.23 0.186 0.069 0.084 0.129 0.18 0.178 0.283l0.003 0.007c0.059 0.099 0.083 0.219 0.132 0.345 0.029 0.121 0.049 0.236 0.049 0.367 0.024 0.115 0.020 0.241 0.020 0.373-0.024 0.121-0.029 0.252-0.068 0.367 0 0.132-0.024 0.247-0.044 0.345-0.020 0.11-0.044 0.181-0.049 0.318v0.373c0 0.121-0.029 0.208-0.039 0.34-0.051 0.107-0.105 0.238-0.153 0.374l-0.008 0.026c-0.071 0.057-0.131 0.126-0.179 0.206l-0.002 0.003c-0.049 0.033-0.073 0.088-0.063 0.11 0.088 0.033 0.063 0.104 0.063 0.236 0.015 0.104 0.024 0.23 0.049 0.345 0.005 0.126 0.029 0.203 0.063 0.291 0.039 0.055 0.049 0.027-0.044 0.027-0.063 0.055-0.132 0.027-0.156-0.082-0.049-0.082-0.082-0.181-0.093-0.288l-0-0.003c-0.010-0.121-0.029-0.241-0.063-0.318-0.015-0.148-0.049-0.148-0.181-0.159-0.063-0.060-0.147-0.077-0.274-0.077-0.122 0-0.132-0.016-0.132 0.132v0.373c-0.024 0.11-0.068 0.192-0.093 0.291-0.068 0.055-0.098 0.148-0.181 0.208-0.039 0.121-0.093 0.143-0.2 0.165l-0.137-0.186c0.063-0.121 0.117-0.137 0.156-0.269 0.049-0.104 0.078-0.17 0.112-0.263-0.049-0.082-0.088-0.121-0.132-0.236-0.043-0.083-0.081-0.179-0.11-0.28l-0.002-0.010c-0.078-0.033-0.195-0.038-0.249-0.082-0.112-0.027-0.142 0.11-0.274 0.11h-0.313c-0.142 0-0.176 0.082-0.293 0.077-0.034 0.011-0.122-0.005-0.249 0-0.098 0.038-0.21 0.027-0.318 0.027-0.112 0-0.205-0.033-0.293-0.055-0.103-0.033-0.205-0.066-0.313-0.077-0.132 0-0.186 0.011-0.274 0.077-0.068 0.049-0.171 0.154-0.244 0.214-0.034 0.088-0.049 0.236-0.098 0.34-0.020 0.11-0.059 0.17-0.083 0.269-0.036 0.093-0.060 0.201-0.068 0.315l-0 0.003c-0.010 0.175-0.044 0.154-0.137 0.104-0.039-0.077-0.098-0.154-0.137-0.241 0.020-0.132 0.049-0.197 0.049-0.34-0.024-0.11-0.073-0.099-0.137-0.027 0 0.137 0 0.247-0.049 0.318-0.018 0.089-0.066 0.162-0.131 0.208l-0.001 0.001c-0.034 0.099-0.107 0.148-0.181 0.186-0.010 0 0-0.033 0-0.11-0.054-0.115 0-0.219 0-0.367 0-0.132-0.010-0.219 0.024-0.34 0-0.132-0.049-0.252-0.068-0.345-0.044-0.099-0.068-0.148-0.181-0.186-0.083-0.038-0.195-0.082-0.249-0.165-0.052-0.080-0.121-0.142-0.202-0.18l-0.003-0.001c-0.098-0.038-0.151-0.082-0.225-0.132-0.068-0.088-0.127-0.121-0.156-0.236-0.049-0.082-0.054-0.236-0.088-0.345-0.011-0.117-0.035-0.225-0.071-0.326l0.003 0.008c-0.012-0.118-0.036-0.226-0.071-0.327l0.003 0.009c-0.015-0.11-0.039-0.219-0.068-0.345 0-0.126 0-0.252-0.024-0.367v-0.373c-0.015-0.11-0.020-0.263-0.044-0.345 0-0.143-0.015-0.219-0.049-0.318-0.049-0.093-0.049-0.132-0.132-0.159-0.059 0.082-0.151 0.121-0.269 0.137-0.083-0.022-0.2-0.038-0.293-0.082-0.093-0.022-0.151-0.066-0.225-0.11-0.047-0.079-0.092-0.147-0.14-0.212l0.003 0.004c-0.015-0.137-0.039-0.208-0.049-0.345 0-0.099 0.005-0.044 0.098-0.181z"></path>
<path fill="#fefefe" d="M28.831 9.195c0.049 0.016 0.132 0.016 0.21 0.016-0.015 0.093-0.024 0.126-0.098 0.148l0.006-0.002c-0.068 0.023-0.14 0.037-0.216 0.040-0.064 0-0.078-0.016-0.064 0.038 0.059 0.033 0.093 0.055 0.176 0.055h0.225c0.073 0 0.156-0.005 0.22 0.022 0.029 0.044 0.005 0.104-0.029 0.126-0.024 0.044-0.103 0.066-0.015 0.077 0.073 0.005 0.142 0.022 0.22 0.022l0.001-0c0.078-0.005 0.15-0.035 0.209-0.082l0.003-0.001c0.046-0.028 0.088-0.065 0.124-0.108 0.064-0.055 0.107-0.099 0.21-0.11 0.020 0.038-0.010 0.066-0.049 0.093-0.034 0.060-0.078 0.099-0.147 0.17-0.029 0.055-0.078 0.088-0.127 0.148-0.064 0.038-0.098 0.077-0.161 0.132-0.073 0.071-0.107 0.11-0.205 0.11-0.049-0.033-0.132-0.033-0.205-0.033-0.049 0.033-0.137 0.049-0.049 0.093h0.225c0.015 0.033-0.024 0.060-0.083 0.071l-0.171 0.099c-0.098 0-0.147-0.011-0.195 0.055 0 0.11 0 0.126 0.064 0.165 0.088 0 0.132 0.022 0.21 0.022h0.22c0.093-0.005 0.176-0.016 0.254-0.038 0.078-0.011 0.107-0.044 0.195-0.055-0.010 0.088-0.024 0.099-0.098 0.132-0.015 0.049-0.049 0.077-0.029 0.11h0.001c0.073-0.001 0.143-0.015 0.205-0.038 0.054-0.027 0.127-0.077 0.191-0.093 0.068-0.038 0.156-0.071 0.132 0.038-0.020 0.093-0.059 0.093-0.098 0.148-0.088 0.005-0.112 0.027-0.176 0.077-0.068 0.022-0.151 0.077-0.225 0.132 0.044-0.027 0.137-0.022 0.21-0.022s0.156 0.011 0.22-0.016c0.078-0.022 0.112-0.055 0.176-0.077 0.078-0.055 0.093-0.082 0.156-0.148 0.054-0.055 0.107-0.060 0.195-0.033 0.020 0.082-0.029 0.143-0.049 0.219-0.059 0.055-0.088 0.104-0.156 0.154l-0.161 0.11c-0.083 0.016-0.147 0.077-0.22 0.11-0.049 0.077-0.103 0.060-0.195 0.022-0.093-0.016-0.107-0.055-0.205-0.055-0.054 0.038-0.088 0.055-0.112 0.148-0.039 0.044-0.088 0.115-0.127 0.148l-0.001 0.001c-0.038 0.049-0.079 0.094-0.126 0.136-0.029 0.082-0.064 0.11-0.098 0.165 0.024 0.022 0.103 0.022 0.142 0.038 0.078 0 0.151-0.005 0.21-0.022 0.078 0 0.117-0.016 0.205-0.016 0.093 0 0.127-0.027 0.21-0.055 0.029-0.049 0.073-0.11 0.122-0.11 0.098 0.033 0.181 0.060 0.293 0.11-0.024 0-0.010-0.011 0 0.016 0.029-0.044 0.059-0.121 0.078-0.208-0.010-0.071-0.029-0.148 0-0.203 0.029 0.033 0.039 0.044 0.078 0.033v-0.165c0.024-0.027 0.068-0.016 0.112-0.016 0.068 0 0.088-0.022 0.093 0.055 0.064 0.093 0.122 0.203 0.147 0.313 0.068-0.022 0.064-0.055 0.064-0.165v-0.263l-0.127-0.219c0-0.132 0.005-0.132 0.112-0.132 0.103-0.038 0.127 0.038 0.156 0.148 0.020 0.077 0.034 0.186 0.064 0.241 0.010-0.049 0.015-0.159 0.034-0.203 0.005-0.11 0.024-0.186 0.044-0.285l0.001 0.001c0.041 0.033 0.074 0.077 0.097 0.131 0.024 0.099 0.029 0.159 0.064 0.247l0.001 0.009c0.014 0.105 0.036 0.207 0.063 0.292 0.039 0.093 0.039 0.11 0.147 0.11 0.088 0 0.147 0.016 0.205 0.038l-0.001-0.001c0.051 0.052 0.109 0.096 0.177 0.132 0.059-0.016 0.010-0.060 0.063-0.082 0.044-0.044 0.063-0.121 0.063-0.219-0.005-0.082-0.015-0.143-0.015-0.241-0.010-0.066-0.020-0.154-0.020-0.247-0.010-0.049-0.020-0.137 0-0.186 0.107 0 0.112 0.016 0.147 0.093 0 0.093-0.015 0.143-0.015 0.241v0.603c0.029 0.099 0.005 0.093 0.063 0.033 0.024-0.055 0.034-0.143 0.063-0.219 0.015-0.082 0.044-0.088 0.063-0.154v-0.258c-0.015-0.082-0.024-0.192 0-0.247 0.054-0.055 0.103-0.055 0.191-0.055 0.020 0.060 0.020 0.132 0.020 0.203 0.024 0.082-0.005 0.143 0.078 0.154 0.049 0.049 0.093 0.044 0.127 0.132 0.044 0.11 0.034 0.088 0.098 0.016-0.005-0.11-0.044-0.148-0.049-0.241 0.029-0.033 0.093-0.016 0.127 0 0.039 0.093 0.059 0.154 0.107 0.241 0.029 0.099 0.063 0.148 0.098 0.225v-0.148c0-0.099 0.015-0.17 0.020-0.263 0-0.099 0-0.17-0.034-0.225-0.029-0.071-0.029-0.148-0.029-0.263 0-0.071-0.020-0.093 0.029-0.071 0.044 0.033 0.083 0.093 0.127 0.132 0.029 0.060 0.063 0.115 0.078 0.225 0.024 0.055 0.049 0.219 0.063 0.093-0.015-0.077-0.049-0.154-0.063-0.247-0.015-0.077-0.049-0.143-0.063-0.241l0 0.001c0.029 0.040 0.067 0.072 0.112 0.093 0.049 0.044 0.098 0.049 0.147 0.11 0.029 0.071 0.078 0.17 0.127 0.247 0.049 0.121 0.088 0.263 0.127 0.395 0.010-0.038 0-0.154-0.034-0.23-0.015-0.077-0.049-0.115-0.049-0.219 0.020 0.038 0.044 0.038 0.049 0.093 0.034 0.049 0.054 0.11 0.083 0.186 0.039 0.038 0.073 0.148 0.112 0.203 0.029 0.104 0.073 0.192 0.112 0.302v-0.208c-0.005-0.11-0.034-0.17-0.049-0.28-0.020-0.077-0.020-0.17-0.020-0.258 0.034-0.033 0.054 0.016 0.063 0.055 0.054 0.038 0.068 0.088 0.132 0.17 0.029 0.055 0.083 0.165 0.127 0.219 0.039 0.044 0.088 0.143 0.127 0.208 0.015 0.077 0.049 0.17 0.078 0.263 0.029 0.082 0.078 0.17 0.098 0.241 0.005-0.077 0.020-0.099 0.078-0.132 0.015-0.071 0.029-0.088 0.063-0.154 0.068-0.11 0.039-0.121 0-0.219-0.024-0.082-0.024-0.159-0.049-0.247-0.044-0.132-0.068-0.214-0.049-0.351 0.049-0.044 0.073 0.027 0.098 0.093 0.015 0.066 0.020 0.159 0.034 0.241l0.001 0.004c0.024 0.071 0.061 0.135 0.106 0.188 0.020 0.099 0.054 0.181 0.083 0.274v-0.016c0-0.093 0-0.175 0.015-0.241l-0.015 0.241 0 0.002c-0-0.012-0-0.024-0-0.036 0-0.073 0.005-0.145 0.015-0.207v-0.526c0-0.099 0.015-0.143 0.015-0.241 0.020-0.082 0.020-0.17 0.020-0.263l-0 0.001c0-0.008 0-0.017 0-0.025 0-0.080-0.013-0.156-0.035-0.223-0.005-0.11-0.044-0.181-0.083-0.258v-0.077c0.068 0.060 0.098 0.077 0.098 0.186 0.034 0.038 0.044 0.121 0.083 0.093l-0.001 0.002c0.031-0.055 0.052-0.118 0.060-0.188-0.034-0.082-0.049-0.115-0.049-0.225 0.059-0.022 0.088-0.027 0.098 0.055 0.005 0.060 0.039 0.143 0.049 0.038-0.010-0.060-0.015-0.17-0.049-0.225 0-0.115-0.010-0.165-0.063-0.241l-0.156-0.132c-0.034-0.055-0.083-0.104-0.112-0.148l-0.001-0.001c-0.036-0.057-0.086-0.102-0.146-0.13-0.073-0.044-0.107-0.077-0.205-0.077h0.015c0.029 0.066 0.063 0.093 0.098 0.148l-0.098-0.148c0.029 0.066 0.063 0.099 0.093 0.154 0.049 0.055 0.112 0.11 0.147 0.165 0.083 0.038 0.112 0.126 0.147 0.247 0 0.027 0 0.027-0.020 0.055-0.039 0.027-0.083 0-0.107-0.038-0.063-0.038-0.117-0.093-0.161-0.132-0.063-0.071-0.098-0.071-0.063 0.038 0.024 0.082 0.063 0.121-0.034 0.093-0.059-0.060-0.103-0.104-0.171-0.148l0.001 0.001c-0.058-0.072-0.107-0.153-0.147-0.248-0.039-0.049-0.098-0.148-0.161-0.225-0.073-0.038-0.151-0.126-0.225-0.071 0.039 0.033 0.103 0.132 0.147 0.186l0.002 0.001c0.062 0.040 0.114 0.095 0.154 0.163l0.001 0.001c0.063 0.052 0.114 0.122 0.145 0.207l-0.001-0.003c0.052 0.088 0.087 0.191 0.099 0.304v-0.022l-0.002-0c-0.064-0.014-0.12-0.054-0.159-0.109l0.161 0.11-0.002-0c-0.064-0.016-0.12-0.057-0.159-0.115-0.068-0.016-0.161-0.066-0.191-0.11l-0.002-0.001c-0.050-0.031-0.093-0.075-0.125-0.131l-0.002-0.003c-0.064-0.094-0.138-0.178-0.222-0.254 0.005 0.049 0.010 0.066 0.029 0.093 0.034 0.082 0.083 0.126 0.147 0.186l-0.001-0.003c0.032 0.068 0.050 0.145 0.050 0.228 0.029 0.093 0.044 0.186 0.049 0.296-0.015 0.016-0.083-0.005-0.112-0.038-0.059-0.049-0.088-0.11-0.147-0.165l-0.002-0.005c-0.035-0.065-0.075-0.126-0.12-0.181-0.029-0.093-0.063-0.154-0.098-0.247l-0.001-0.004c-0.033-0.085-0.082-0.161-0.145-0.221-0.010 0.027 0.005 0.126 0.034 0.186 0.010 0.099 0.029 0.137 0.029 0.247 0.020 0.121 0.020 0.247 0.020 0.373-0.068-0.016-0.073-0.055-0.098-0.11l0.001 0.001c-0.036-0.046-0.069-0.096-0.098-0.154-0.039-0.038-0.078-0.143-0.107-0.186-0.020-0.093-0.039-0.181-0.049-0.28-0.015-0.093-0.029-0.077-0.063-0.038-0.020 0.066-0.029 0.11-0.078 0.132 0-0.104 0-0.132-0.049-0.208-0.024 0.071-0.044 0.121-0.049 0.208v0.263c0 0.11-0.005 0.208-0.015 0.296-0.044-0.027-0.049-0.082-0.083-0.11-0.029-0.093-0.049-0.126-0.078-0.208-0.034-0.077-0.034-0.137-0.034-0.241-0.034 0.022-0.063 0.060-0.078 0.132-0.015 0.060-0.029 0.17-0.049 0.225-0.034 0.044-0.054 0.005-0.078-0.022-0.020-0.093-0.049-0.132-0.078-0.186-0.034-0.066-0.034-0.143-0.034-0.241-0.005-0.11-0.020-0.137-0.063-0.186-0.083-0.011-0.142-0.033-0.191 0.016-0.049 0.077-0.034 0.104 0.015 0.132 0.015 0.060 0.034 0.143 0.034 0.225 0.020 0.077 0.020 0.181 0.029 0.263-0.005 0.121-0.015 0.236-0.078 0.318 0-0.082 0-0.186-0.015-0.247l0.001 0.001c-0.044-0.055-0.081-0.116-0.113-0.187-0.034-0.077-0.064-0.143-0.083-0.225 0-0.093 0.005-0.181-0.029-0.241-0.020-0.044-0.049-0.093-0.078-0.077l-0.003 0.015c-0.018 0.084-0.039 0.167-0.061 0.232-0.024 0.077-0.020 0.17-0.020 0.263 0 0.11 0.005 0.148-0.078 0.165-0.029 0.060-0.064 0.099-0.098 0.186-0.039 0.044-0.064 0.121-0.127 0.154-0.020-0.027-0.015-0.077-0.015-0.132l-0-0.001c-0.003-0.088-0.021-0.173-0.049-0.245-0.015-0.055-0.029-0.214-0.029-0.071-0.005 0.115-0.034 0.197-0.034 0.318-0.010 0.104-0.010 0.148-0.078 0.132-0.024-0.027-0.015-0.082-0.015-0.137-0.005-0.104-0.029-0.121-0.049-0.219-0.015-0.060-0.015-0.159-0.015-0.247v-0.001c0-0.091 0.006-0.18 0.015-0.257v0.016l0.001-0.001c-0.049 0.060-0.091 0.127-0.128 0.204l0.127-0.203 0.001-0.001c-0.049 0.062-0.091 0.13-0.128 0.209-0.029 0.071-0.064 0.137-0.112 0.165-0.020-0.077-0.015-0.159-0.015-0.241l-0-0.006c-0.005-0.105-0.018-0.209-0.034-0.296v0.022c-0.024 0.055-0.029 0.154-0.034 0.219l0.034-0.219c-0.024 0.049-0.029 0.154-0.034 0.225-0.024 0.137-0.024 0.28-0.064 0.411-0.015 0.060-0.024-0.016-0.064-0.038-0.029-0.071-0.059-0.137-0.064-0.225-0.015-0.082-0.010-0.186-0.029-0.258-0.005 0.099-0.034 0.165-0.034 0.274-0.029-0.022-0.054-0.049-0.078-0.093-0.024-0.082-0.049-0.132-0.049-0.241 0.020-0.055 0.020-0.165 0.020-0.241v0.016c-0.010 0.077-0.024 0.197-0.049 0.263-0.029-0.071-0.020-0.099-0.064-0.137-0.029-0.066-0.034-0.115-0.020-0.219l-0.001 0.001c0.032-0.053 0.050-0.116 0.050-0.184 0-0.009-0-0.018-0.001-0.025-0.068 0.016-0.093 0.044-0.142 0.077-0.044 0.044-0.098 0.088-0.161 0.132-0.020 0.071-0.054 0.104-0.112 0.148-0.029 0.066-0.059 0.104-0.112 0.192l-0.002 0.005c-0.031 0.079-0.074 0.152-0.125 0.214-0.064 0.027-0.112 0.044-0.156 0-0.049-0.005-0.029-0.027-0.049-0.071 0.015-0.099 0.083-0.132 0.127-0.192 0.049-0.038 0.059-0.082 0.107-0.165 0.029-0.066 0.098-0.137 0.147-0.208 0.073-0.038 0.098-0.082 0.098-0.203v0.115c-0.024 0.071-0.098 0.121-0.161 0.165-0.064 0.077-0.098 0.077-0.176 0.055-0.083-0.033-0.117 0.011-0.205 0.022-0.073 0.049-0.132 0.071-0.191 0.132-0.059 0.049-0.103 0.093-0.142 0.148-0.039 0.038-0.107 0.071-0.147 0.093-0.034 0.038-0.127 0.099-0.176 0.132-0.088 0.038-0.103 0.060-0.064 0.016l-0.020 0.022zM27.307 8.767c0.044 0.066 0.254 0.225 0.132 0.214 0.093-0.011 0.161 0 0.21-0.011l-0 0c0.016-0.011 0.036-0.018 0.057-0.018s0.040 0.007 0.056 0.018c0.073 0 0.088-0.071 0.039-0.126-0.010-0.066-0.195-0.044-0.23-0.082-0.083-0.011-0.010-0.022 0.015-0.055 0.059-0.022 0.117-0.005 0.191 0l-0.005-0.002c0.061 0.027 0.125 0.046 0.196 0.057 0.083 0 0.161 0.005 0.21-0.038 0-0.088 0.015-0.11-0.064-0.11s-0.156-0.005-0.225 0.016c-0.088 0-0.127-0.011-0.176-0.055-0.049-0.005-0.015-0.033-0.049-0.055-0.020-0.066-0.029-0.093 0.049-0.093 0.064 0.038 0.107 0.060 0.176 0.033 0.044-0.038 0.107-0.055 0.142-0.11 0.078 0.005 0.112 0.022 0.147 0.093 0.049 0.038 0.010 0.071 0.078 0.071 0.078 0.011 0.161 0.027 0.225 0-0.020-0.060 0-0.077 0.049-0.11h-0.001c0.006 0 0.011 0 0.017 0 0.067 0 0.132-0.006 0.189-0.017-0.024 0.077-0.029 0.148-0.049 0.241 0.068-0.033 0.103-0.049 0.112-0.154s0.034-0.104 0.127-0.11c0.029 0.033 0 0.055-0.015 0.099l-0.002 0.005c-0.030 0.080-0.073 0.153-0.125 0.215 0.020 0.027 0.064 0.022 0.112 0.022h-0c0.001 0 0.002 0 0.004 0 0.079 0 0.153-0.020 0.216-0.055 0.078-0.033 0.103-0.055 0.112-0.154 0.073-0.044 0.112-0.071 0.21-0.071l0.005-0.001c0.078-0.021 0.151-0.055 0.214-0.098 0.049-0.016 0.083-0.082 0.112-0.11 0.020-0.033 0.020-0.093 0.020-0.154-0.024-0.027-0.073-0.027-0.112-0.055-0.078-0.011-0.147-0.027-0.225 0-0.073 0.022-0.151 0.044-0.22 0.055-0.068-0.038-0.122-0.082-0.195-0.11-0.039-0.071-0.068-0.071 0.015-0.132 0.068-0.033 0.137-0.055 0.195-0.038 0.059 0.011 0.122 0.022 0.205 0.022-0.029-0.077-0.039-0.11-0.015-0.208 0.020-0.049 0.049-0.132 0.064-0.016 0 0.11 0.020 0.17 0.049 0.263 0.044 0.038 0.068 0 0.107-0.038 0.015-0.033 0.034-0.208 0-0.115l0.001 0.002c0.036 0.063 0.085 0.115 0.146 0.152 0.083-0.005 0.103 0.005 0.112-0.093 0.059 0 0.039 0.016 0.039-0.082-0.083-0.022-0.151-0.088-0.225-0.132-0.093-0.055-0.127-0.121-0.181-0.197-0.093-0.093-0.147-0.132-0.269-0.186-0.103-0.016-0.171-0.11-0.283-0.11-0.103 0-0.22 0-0.293 0.027-0.112 0.022-0.137 0.071-0.249 0.11-0.078 0.033-0.156 0.077-0.249 0.132 0 0.137-0.015 0.225-0.020 0.34l-0.001 0.001c-0.054 0.076-0.123 0.139-0.204 0.185-0.054 0.033-0.186 0.066-0.249 0.104-0.083 0.049-0.161 0.11-0.244 0.164-0.064 0.060-0.127 0.132-0.137 0.132-0.088 0.137-0.093 0.082-0.093 0.181 0.005 0.137 0.034 0.208 0.049 0.345z"></path>
<path fill="#bcbcbc" d="M27.81 8.147l-0.098 0.071c-0.068 0.044-0.147 0.11-0.191 0.148-0.034 0.033-0.034 0.055-0.078 0.055 0.073-0.011 0.107-0.033 0.176-0.071 0.083-0.011 0.161-0.033 0.205-0.077 0.044-0.016 0-0.088-0.015-0.132zM28.543 7.265c0.010 0 0.029 0.055 0.064 0.093 0.024 0.071 0.049 0.121 0.049 0.208 0.020-0.093 0.049-0.165 0.064-0.263-0.024-0.055-0.024-0.071-0.098-0.077 0 0.055 0.010 0.016-0.078 0.038z"></path>
<path fill="#c4c4c2" d="M28.099 7.926c-0.036 0 0.058-0.042 0.094-0.051 0.029-0.068 0.043-0.11 0.094-0.152 0.080 0 0.123 0.034 0.159 0.093 0.072 0.025 0.094 0.059 0.174 0.076 0.036 0.034 0.072 0.034 0 0.059-0.043 0.025-0.108 0.034-0.188 0.034-0.069 0.006-0.133 0.027-0.191 0.061l0.003-0.002c-0.108 0-0.094 0-0.145-0.118z"></path>
<path fill="#bcbcbc" d="M28.831 7.281v0.022c0-0.055 0-0.027 0.015 0.077 0.022 0.057 0.035 0.123 0.035 0.193 0 0.009-0 0.019-0.001 0.028l0-0.001c0.044-0.043 0.078-0.099 0.097-0.162l0.001-0.003c0-0.148-0.024-0.143-0.147-0.154zM29.417 9.436h0.020c-0.049 0-0.020 0 0.064-0.055 0.054-0.044 0.098-0.11 0.176-0.132 0.058-0.056 0.126-0.101 0.201-0.13l0.004-0.002c0.039-0.022 0.073-0.055 0.112-0.016-0.010 0.088-0.024 0.126-0.098 0.165-0.034 0.055-0.088 0.088-0.142 0.11-0.049 0.033-0.107 0.033-0.127 0.099-0.088 0.044-0.098 0.033-0.205-0.038zM29.725 9.979c0.024-0.027 0.127-0.143 0.176-0.186 0.044-0.072 0.096-0.133 0.155-0.185l0.002-0.001c0.049-0.082 0.107-0.137 0.147-0.208l0.127-0.186c0 0.082-0.010 0.192 0.015 0.241 0 0.008 0.001 0.017 0.001 0.026 0 0.074-0.018 0.142-0.050 0.201l0.001-0.002c-0.034 0.066-0.064 0.11-0.147 0.154-0.068 0.044-0.112 0.055-0.171 0.11-0.041 0.031-0.089 0.062-0.139 0.089l-0.007 0.004c-0.044 0.022-0.024 0.016-0.107-0.055zM29.227 10.407h0.020c-0.049 0-0.024 0.005 0.064-0.055 0.068-0.077 0.122-0.11 0.205-0.148 0.072-0.004 0.138-0.023 0.198-0.056l-0.003 0.001c0.034-0.011 0.064-0.038 0.093 0 0.049 0.077 0.064 0.099-0.015 0.148-0.046 0.041-0.099 0.073-0.158 0.092l-0.003 0.001c-0.039 0.038-0.117 0.038-0.195 0.055-0.059 0-0.098 0.011-0.122-0.038l0.127 0.038c-0.064 0-0.098 0.011-0.21-0.038zM29.911 10.407v-0.016c0 0.055 0 0.027 0.034-0.077 0.064-0.104 0.083-0.165 0.161-0.186 0.034-0.055 0.098-0.066 0.176-0.093 0.029 0.055 0.005 0.121 0 0.186-0.020 0.071-0.078 0.121-0.112 0.17-0.049 0.038-0.068 0.077-0.147 0.093-0.059 0-0.024 0-0.107-0.077z"></path>
<path fill="#000" d="M28.352 7.977c0 0.049-0.034 0.093-0.078 0.093-0.049 0-0.083-0.044-0.083-0.093s0.039-0.093 0.083-0.093c0.044 0 0.078 0.038 0.078 0.093z"></path>
<path fill="#005120" d="M28.59 13.076h0.065c-0.202 0-0.080-0.017 0.253 0.296 0.145-0.135 0.145-0.152 0.253 0.084 0.072 0.127 0.087-0.017 0.195-0.152 0.051 0.27 0.080 0.549 0.253 0.296 0.202 0 0.405-0.017 0.513 0.076 0.13 0.279 0.087-0.051 0.188 0.076 0.289 0.034 0.282-0.287 0.586-0.372 0.188 0.279 0.275 0.068 0.506-0.068 0.181 0.051 0.347 0.363 0.383 0.059 0.145-0.27 0.152-0.253 0.253 0 0.145 0.152 0.202-0.068 0.318-0.144 0.217 0.144 0.455 0.169 0.766 0.076 0.058 0.245 0.188 0.135 0.325 0.068 0.282 0.144 0.376 0.186 0.701 0 0.159-0.22 0.072 0.008 0.188 0.152 0.239-0.084 0.174-0.101 0.448-0.076 0.282 0 0.304 0 0.383-0.22 0.145 0.16 0.188 0.279 0.383 0.076 0.304 0 0.21 0.042 0.383-0.084 0.137 0.338 0.166 0.101 0.325 0.228-0.092 0.252-0.248 0.456-0.443 0.588l-0.005 0.003c-0.123 0.253-0.202 0.507-0.448 0.608-0.181 0.211-0.376 0.338-0.578 0.524-0.275 0.084-0.578 0.068-0.889 0.068h-2.69c-0.188 0.118-0.506 0.169-0.766 0.228-0.289 0-0.629 0-0.831-0.076-0.137-0.16-0.376-0.338-0.506-0.524-0.145-0.127-0.145-0.372-0.26-0.524-0.101-0.211-0.145-0.549-0.253-0.743z"></path>
<path fill="#005120" d="M34.786 13.752v0.068c0-0.203 0.007-0.093-0.13 0.304-0.022 0.093-0.087 0.118-0.188 0.152M34.215 14.048h0.065c-0.239 0.253-0.398 0.38-0.448 0.676l0.448-0.676c-0.239 0.253-0.398 0.38-0.448 0.676M33.318 13.676s-0.007 0.262-0.065 0.372M33.065 14.2v0.068zM32.552 13.752h-0.007c0.029 0 0.051 0 0 0z"></path>
<path fill="#fff" d="M28.393 14.287c-0.767 0-1.027 0.9-1.793 0.9h-0.040v0.053c0 0.627 0.040 1.207 0.12 1.747 0.707-0.053 0.967-0.893 1.713-0.893 0.767 0 1.020 0.893 1.787 0.893 0.773 0 1.027-0.893 1.793-0.893s1.027 0.893 1.793 0.893c0.767 0 1.020-0.893 1.787-0.893 0.733 0 1 0.833 1.707 0.893 0.081-0.516 0.127-1.11 0.127-1.717 0-0.029-0-0.059-0-0.088l0 0.004h-0.047c-0.767 0-1.020-0.893-1.787-0.893s-1.027 0.9-1.787 0.9c-0.767 0-1.027-0.9-1.8-0.9-0.76 0-1.020 0.9-1.787 0.9-0.76 0-1.020-0.9-1.787-0.9zM28.393 17.8c-0.6 0-0.88 0.547-1.347 0.787 0.173 0.528 0.366 0.979 0.592 1.405l-0.019-0.038c0.22-0.187 0.447-0.347 0.773-0.347 0.767 0 1.020 0.9 1.787 0.9 0.773 0 1.027-0.9 1.793-0.9s1.027 0.9 1.787 0.9 1.027-0.9 1.793-0.9c0.29 0.012 0.552 0.136 0.755 0.335l-0.002-0.001c0.207-0.386 0.4-0.834 0.556-1.302l0.017-0.058c-0.447-0.247-0.733-0.78-1.333-0.78-0.76 0-1.020 0.9-1.787 0.9s-1.027-0.9-1.787-0.9-1.027 0.9-1.793 0.9c-0.76 0-1.020-0.9-1.787-0.9zM31.973 21.313c-0.767 0-1.027 0.9-1.793 0.9-0.727 0-0.993-0.8-1.667-0.893 0.719 0.89 1.589 1.626 2.575 2.177l0.045 0.023c0.24-0.213 0.487 0.24 0.833 0.24 0.353 0 0.6-0.46 0.833-0.253 1.014-0.56 1.876-1.291 2.594-2.173l0.006-0.007c-0.653 0.113-0.933 0.887-1.64 0.887-0.767 0-1.020-0.9-1.787-0.9z"></path>
<path fill="#dd8b59" d="M31.742 20.476l0.065-6.141s0.187-0.025 0.187 0-0.022 6.116-0.043 6.141c-0.022 0.025-0.231 0.042-0.209 0zM33.796 14.604l-0.043 5.157-0.144 0.202 0.043-5.358z"></path>
<path fill="#dd8b59" d="M29.415 19.466s0.216 2.524 2.623 2.448c2.407-0.076 3.077-2.54 3.077-2.54l-1.045-0.050c-0.022 0-0.836 1.178-1.888 1.152s-1.383-0.32-1.614-0.564c-0.231-0.252-0.432-0.614-0.432-0.614l-1.225-0.564 0.072 0.538zM35.922 19.214l-0.072-0.336v-0.286l0.115-0.303s-1.823 0.311-1.823 0.336l-0.007 0.572 1.787 0.008z"></path>
<path fill="#dd8b59" d="M30.15 19.298c0.022-0.143 0.022-4.576 0.022-4.576l-0.122-0.017-0.022 4.517 0.122 0.084zM27.16 17.86l1.585 0.9-0.036 0.126s-1.528-0.841-1.528-0.866c0-0.025 0.014-0.126-0.022-0.168z"></path>
<path fill="#dd8b59" d="M27.887 17.591c0 0.067 0.231 1.565 0.231 1.565s0.144 0.025 0.144 0l-0.245-1.539zM29.357 17.633c0.079 0 1.513-0.269 1.513-0.269l-0.029 0.269-1.405 0.168z"></path>
<path fill="#fecf3e" d="M29.559 15.605c0.050 0 0.504 0.269 0.699 0.202s0.065-0.252 0.101-0.252c0.043 0 0.187 0.126 0.274 0.025 0.086-0.093 0.144-0.387 0.108-0.362-0.043 0.025-1.153 0.488-1.174 0.387z"></path>
<path fill="#dd8b59" d="M29.379 16.219c0.079 0.025 1.715-0.513 1.715-0.513s0 0.168-0.022 0.168l-1.693 0.513z"></path>
<path fill="#fecf3e" d="M33.162 15.462s0.108 0.294 0.216 0.244c0.108-0.050 0.209-0.151 0.209-0.151s0.086 0.252 0.231 0.202c0.144-0.050 0.231-0.32 0.231-0.32s0.144 0.050 0.209 0.025c0.065-0.025 0.144-0.421 0.144-0.421l-1.232 0.421zM33.039 17.835c-0.022 0.050 0.108 0.168 0.216 0.168s0.144-0.168 0.166-0.118c0.022 0.042 0.022 0.269 0.288 0.193s0.274-0.294 0.274-0.294-0.079 0.076 0.108 0.101c0.187 0.025 0.375-0.32 0.36-0.32-0.029 0-1.369 0.294-1.412 0.269z"></path>
<path fill="#dd8b59" d="M29.444 15.504c-0.005 0.025-0.007 0.054-0.007 0.084 0 0.051 0.008 0.101 0.022 0.146l-0.001-0.003 1.369-0.538s0.058-0.126 0-0.126-1.405 0.488-1.391 0.446zM31.245 15.168c0.036 0 1.398-0.513 1.398-0.513s0.022 0.219 0 0.219l-1.275 0.437-0.13-0.143z"></path>
<path fill="#fecf3e" d="M33.039 16.245s-0.209 0.269-0.144 0.631c0.065 0.37 0.144 0.69 0.166 0.69s0.252-0.488 0.504-0.513c0.252-0.025 0.713 0.269 0.713 0.269s-0.065-0.589-0.043-0.858c0.022-0.269 0.375-0.732 0.375-0.732l-1.571 0.505z"></path>
<path fill="#dd8b59" d="M31.137 15.799s-0.043 0.227-0.022 0.227l1.78-0.538v-0.16l-1.758 0.463z"></path>
<path fill="#b6b6b4" d="M28.875 18.76s-0.418-0.067-0.396 0.050c0.022 0.126 0.209 0.244 0.231 0.32s-0.065 0.336 0.065 0.32c0.122-0.025 0.245-0.126 0.245-0.202l-0.022-0.421z"></path>
<path fill="#dd8b59" d="M31.202 17.54v0.168l1.506-0.244-0.043-0.126z"></path>
<path fill="#fecf3e" d="M29.415 17.835c0.029 0 0 0.219 0.173 0.168 0.166-0.050 0.209-0.168 0.209-0.168s0.043 0.269 0.274 0.244c0.231-0.025 0.36-0.32 0.36-0.32s0.014 0.219 0.159 0.143c0.144-0.076 0.187-0.244 0.187-0.244l-1.319 0.219-0.036-0.042zM29.415 16.388s-0.187 0.076-0.122 0.513c0.065 0.437 0.216 0.69 0.231 0.69 0.022 0 0.187-0.421 0.44-0.488 0.252-0.084 0.692 0.219 0.692 0.219s-0.043-0.395 0.022-0.757c0.050-0.247 0.145-0.462 0.275-0.641l-0.002 0.002s-1.47 0.463-1.528 0.463z"></path>
<path fill="#dd8b59" d="M32.938 17.658l0.022 0.151s1.513-0.219 1.513-0.252c0-0.017 0-0.168-0.029-0.168-0.022 0-1.484 0.294-1.513 0.269zM32.917 16.093l0.022 0.168 1.78-0.555s0.043-0.151 0.022-0.151-1.78 0.614-1.823 0.538z"></path>
<path fill="#fecf3e" d="M31.288 15.244c0.072 0.017 0.223 0.269 0.31 0.219s0.209-0.202 0.209-0.202-0.022 0.294 0.144 0.252c0.173-0.050 0.195-0.252 0.195-0.252s0.123 0.084 0.231 0c0.101-0.067 0.202-0.437 0.166-0.437s-1.218 0.437-1.261 0.421zM31.245 15.95c0 0.050-0.216 0.437-0.144 0.808s0.18 0.707 0.202 0.707c0.022 0 0.339-0.387 0.612-0.463 0.267-0.076 0.67 0.244 0.649 0.244s-0.108-0.37-0.108-0.639c0-0.269 0.317-1.094 0.317-1.094zM31.245 17.717c0 0.017 0.058 0.185 0.209 0.185 0.144 0 0.166-0.168 0.166-0.168s-0.022 0.294 0.209 0.269c0.231-0.025 0.31-0.294 0.31-0.294s0.022 0.151 0.216 0.076c0.187-0.076 0.432-0.32 0.418-0.32-0.022 0-1.513 0.32-1.535 0.252z"></path>
<path fill="#000" d="M31.418 16.78c0.062 0.003 0.11 0.064 0.107 0.136s-0.054 0.129-0.116 0.127v0c-0.062-0.003-0.11-0.064-0.107-0.136s0.054-0.129 0.116-0.127v0z"></path>
<path fill="#000" d="M32.179 16.554c0.062 0.003 0.11 0.064 0.107 0.136s-0.054 0.129-0.116 0.127v0c-0.062-0.003-0.11-0.064-0.107-0.136s0.054-0.129 0.116-0.127v0z"></path>
<path fill="#000" d="M31.799 17.020c0.062 0.003 0.11 0.064 0.107 0.136s-0.054 0.129-0.116 0.127v0c-0.062-0.003-0.11-0.064-0.107-0.136s0.054-0.129 0.116-0.127v0z"></path>
<path fill="#be0f17" d="M31.799 16.308c0.062 0.003 0.11 0.064 0.107 0.136s-0.054 0.129-0.116 0.127v0c-0.062-0.003-0.11-0.064-0.107-0.136s0.054-0.129 0.116-0.127v0z"></path>
<path fill="#000" d="M30.793 20.416c0 0.102-0.071 0.185-0.159 0.185s-0.159-0.083-0.159-0.185v0c0-0.102 0.071-0.185 0.159-0.185s0.159 0.083 0.159 0.185v0zM31.564 20.811c0 0.088-0.061 0.16-0.137 0.16s-0.137-0.072-0.137-0.16v0c0-0.088 0.061-0.16 0.137-0.16s0.137 0.072 0.137 0.16v0zM32.551 20.912c0 0.088-0.061 0.16-0.137 0.16s-0.137-0.072-0.137-0.16v0c0-0.088 0.061-0.16 0.137-0.16s0.137 0.072 0.137 0.16v0zM33.408 20.534c0 0.084-0.050 0.143-0.115 0.143s-0.115-0.067-0.115-0.143c0-0.076 0.050-0.151 0.115-0.151s0.115 0.067 0.115 0.151zM34.1 20.054c0 0.076-0.065 0.135-0.137 0.135s-0.137-0.059-0.137-0.135c0-0.076 0.065-0.135 0.137-0.135s0.137 0.059 0.137 0.135z"></path>
<path fill="#f00" d="M30.036 14.805c-0.065 0.050-1.11 0.345-0.966 0.32s0.987 0.252 0.966 0.168c-0.022-0.084 0-0.437 0-0.488zM31.816 14.443c-0.043 0-0.648 0.269-0.627 0.269s0.692 0.219 0.67 0.168c-0.022-0.050-0.022-0.37-0.043-0.437zM33.639 14.687c-0.043 0.025-0.757 0.219-0.627 0.244s0.605 0.219 0.605 0.168c0-0.042 0-0.387 0.022-0.421z"></path>
<path fill="#dd8b59" d="M33.983 19.323l1.989 0.050 0.022-0.168-2.054-0.025zM34.070 18.709c0.231 0 1.967-0.387 1.967-0.387s0.065-0.252 0-0.252-1.967 0.471-1.967 0.471z"></path>
<path fill="#000" d="M31.799 16.664c0.062 0.003 0.11 0.064 0.107 0.136s-0.054 0.129-0.116 0.127v0c-0.062-0.003-0.11-0.064-0.107-0.136s0.054-0.129 0.116-0.127v0z"></path>
<path fill="#012169" d="M0 0h21.333v16h-21.333z"></path>
<path fill="#fff" d="M2.5 0l8.133 6.033 8.1-6.033h2.6v2.067l-8 5.967 8 5.933v2.033h-2.667l-8-5.967-7.967 5.967h-2.7v-2l7.967-5.933-7.967-5.933v-2.133z"></path>
<path fill="#c8102e" d="M14.133 9.367l7.2 5.3v1.333l-9.033-6.633zM8 10.033l0.2 1.167-6.4 4.8h-1.8zM21.333 0v0.1l-8.3 6.267 0.067-1.467 6.567-4.9zM0 0l7.967 5.867h-2l-5.967-4.467z"></path>
<path fill="#fff" d="M8.033 0v16h5.333v-16zM0 5.333v5.333h21.333v-5.333z"></path>
<path fill="#c8102e" d="M0 6.433v3.2h21.333v-3.2zM9.1 0v16h3.2v-16z"></path>
</svg>
