<!-- Generated by IcoMoon.io -->
<svg version="1.1" xmlns="http://www.w3.org/2000/svg" width="43" height="32" viewBox="0 0 43 32">
<title>fm</title>
<path fill="#6797d6" d="M-10.705 0h64.171v32.085h-64.171z"></path>
<path fill="#fff" d="M21.367 7.708l-2.030 1.391 0.777-2.25-2.037-1.391h2.513l0.777-2.25 0.777 2.256h2.507l-2.030 1.385 0.777 2.25zM21.367 24.44l-2.030-1.391 0.777 2.256-2.037 1.385h2.513l0.777 2.25 0.777-2.256 2.507 0.006-2.030-1.391 0.777-2.25zM11.591 17.258l-1.535 1.918 0.088-2.381-2.35-0.733 2.406-0.733 0.081-2.381 1.397 1.93 2.406-0.739-1.542 1.924 1.404 1.924zM31.131 17.252l1.542 1.924-0.088-2.381 2.35-0.733-2.406-0.733-0.081-2.381-1.397 1.93-2.406-0.739 1.542 1.924-1.404 1.924z"></path>
</svg>
