<!-- Generated by IcoMoon.io -->
<svg version="1.1" xmlns="http://www.w3.org/2000/svg" width="43" height="32" viewBox="0 0 43 32">
<title>gb</title>
<path fill="#012169" d="M0 0h42.667v32h-42.667z"></path>
<path fill="#fff" d="M5 0l16.267 12.067 16.2-12.067h5.2v4.133l-16 11.933 16 11.867v4.067h-5.333l-16-11.933-15.933 11.933h-5.4v-4l15.933-11.867-15.933-11.867v-4.267h5z"></path>
<path fill="#c8102e" d="M28.267 18.733l14.4 10.6v2.667l-18.067-13.267h3.667zM16 20.067l0.4 2.333-12.8 9.6h-3.6l16-11.933zM42.667 0v0.2l-16.6 12.533 0.133-2.933 13.133-9.8h3.333zM0 0l15.933 11.733h-4l-11.933-8.933v-2.8z"></path>
<path fill="#fff" d="M16.067 0v32h10.667v-32h-10.667zM0 10.667v10.667h42.667v-10.667h-42.667z"></path>
<path fill="#c8102e" d="M0 12.867v6.4h42.667v-6.4h-42.667zM18.2 0v32h6.4v-32h-6.4z"></path>
</svg>
