<!-- Generated by IcoMoon.io -->
<svg version="1.1" xmlns="http://www.w3.org/2000/svg" width="43" height="32" viewBox="0 0 43 32">
<title>gd</title>
<path fill="#ce1126" d="M0 0h42.667v32h-42.667z"></path>
<path fill="#007a5e" d="M4.48 4.48h33.707v23.040h-33.707z"></path>
<path fill="#fcd116" d="M4.48 4.487h33.707l-33.707 23.040h33.707z"></path>
<path fill="#ce1126" d="M25.167 16.007c0 2.121-1.719 3.84-3.84 3.84s-3.84-1.719-3.84-3.84c0-2.121 1.719-3.84 3.84-3.84s3.84 1.719 3.84 3.84z"></path>
<path fill="#000" d="M21.333 12.48l-1.088 3.348 1.674 0.544z"></path>
<path fill="#000" d="M21.333 12.48l1.088 3.348-1.674 0.544z"></path>
<path fill="#000" d="M24.681 14.912h-3.52v1.76z"></path>
<path fill="#000" d="M24.681 14.912l-2.848 2.069-1.035-1.424z"></path>
<path fill="#000" d="M23.402 18.848l-1.088-3.348-1.674 0.544z"></path>
<path fill="#000" d="M23.402 18.848l-2.848-2.069 1.035-1.424z"></path>
<path fill="#000" d="M19.264 18.848l2.848-2.069-1.035-1.424z"></path>
<path fill="#000" d="M19.264 18.848l1.088-3.348 1.674 0.544z"></path>
<path fill="#000" d="M17.986 14.912l2.848 2.069 1.035-1.424z"></path>
<path fill="#000" d="M17.986 14.912h3.52v1.76z"></path>
<path fill="#000" d="M12.647 0.16l-0.643 1.978 0.989 0.321z"></path>
<path fill="#000" d="M12.647 0.16l0.643 1.978-0.989 0.321z"></path>
<path fill="#000" d="M14.625 1.597h-2.080v1.040z"></path>
<path fill="#000" d="M14.625 1.597l-1.683 1.223-0.611-0.841z"></path>
<path fill="#000" d="M13.869 3.923l-0.643-1.978-0.989 0.321z"></path>
<path fill="#000" d="M13.869 3.923l-1.683-1.223 0.611-0.841z"></path>
<path fill="#000" d="M11.424 3.923l1.683-1.223-0.611-0.841z"></path>
<path fill="#000" d="M11.424 3.923l0.643-1.978 0.989 0.321z"></path>
<path fill="#000" d="M10.668 1.597l1.683 1.223 0.611-0.841z"></path>
<path fill="#000" d="M10.668 1.597h2.080v1.040z"></path>
<path fill="#000" d="M21.333 0.16l-0.643 1.978 0.989 0.321z"></path>
<path fill="#000" d="M21.333 0.16l0.643 1.978-0.989 0.321z"></path>
<path fill="#000" d="M23.312 1.597h-2.080v1.040z"></path>
<path fill="#000" d="M23.312 1.597l-1.683 1.223-0.611-0.841z"></path>
<path fill="#000" d="M22.556 3.923l-0.643-1.978-0.989 0.321z"></path>
<path fill="#000" d="M22.556 3.923l-1.683-1.223 0.611-0.841z"></path>
<path fill="#000" d="M20.111 3.923l1.683-1.223-0.611-0.841z"></path>
<path fill="#000" d="M20.111 3.923l0.643-1.978 0.989 0.321z"></path>
<path fill="#000" d="M19.355 1.597l1.683 1.223 0.611-0.841z"></path>
<path fill="#000" d="M19.355 1.597h2.080v1.040z"></path>
<path fill="#000" d="M8.687-0.067l-0.021 0.063 0.032 0.010z"></path>
<path fill="#000" d="M8.687-0.067l0.021 0.063-0.032 0.010z"></path>
<path fill="#000" d="M8.75-0.021l-0.054 0.039-0.020-0.027z"></path>
<path fill="#000" d="M8.726 0.054l-0.054-0.039 0.020-0.027z"></path>
<path fill="#000" d="M8.647 0.054l0.021-0.063 0.032 0.010z"></path>
<path fill="#000" d="M8.623-0.021h0.067v0.033z"></path>
<path fill="#ce1126" d="M6.82 16.047c0.516 0.949 1.279 1.706 2.204 2.199l0.029 0.014c-0.040-1.099-0.314-2.125-0.773-3.043l0.019 0.043-1.48 0.787z"></path>
<path fill="#fcd116" d="M6.007 12.98c0.693 1.447-1.807 4.913 2.367 5.727-0.467-0.669-0.746-1.498-0.746-2.393 0-0.141 0.007-0.28 0.020-0.417l-0.001 0.017c0.935 0.439 1.681 1.149 2.154 2.028l0.012 0.025c1.093-3.967-2.8-3.72-3.807-4.987z"></path>
<path fill="#000" d="M21.333 27.8l-0.643 1.978 0.989 0.321z"></path>
<path fill="#000" d="M21.333 27.8l0.643 1.978-0.989 0.321z"></path>
<path fill="#000" d="M23.312 29.237h-2.080v1.040z"></path>
<path fill="#000" d="M23.312 29.237l-1.683 1.223-0.611-0.841z"></path>
<path fill="#000" d="M22.556 31.563l-0.643-1.978-0.989 0.321z"></path>
<path fill="#000" d="M22.556 31.563l-1.683-1.223 0.611-0.841z"></path>
<path fill="#000" d="M20.111 31.563l1.683-1.223-0.611-0.841z"></path>
<path fill="#000" d="M20.111 31.563l0.643-1.978 0.989 0.321z"></path>
<path fill="#000" d="M19.355 29.237l1.683 1.223 0.611-0.841z"></path>
<path fill="#000" d="M19.355 29.237h2.080v1.040z"></path>
<path fill="#000" d="M8.687 27.573l-0.021 0.063 0.032 0.010z"></path>
<path fill="#000" d="M8.687 27.573l0.021 0.063-0.032 0.010z"></path>
<path fill="#000" d="M8.75 27.619l-0.054 0.039-0.020-0.027z"></path>
<path fill="#000" d="M8.726 27.694l-0.054-0.039 0.020-0.027z"></path>
<path fill="#000" d="M8.647 27.694l0.021-0.063 0.032 0.010z"></path>
<path fill="#000" d="M8.623 27.619h0.067v0.033z"></path>
</svg>
