<!-- Generated by IcoMoon.io -->
<svg version="1.1" xmlns="http://www.w3.org/2000/svg" width="43" height="32" viewBox="0 0 43 32">
<title>ge</title>
<path fill="#fff" d="M0 0h42.667v32h-42.667z"></path>
<path fill="#f00" d="M18.133 0h6.4v32h-6.4z"></path>
<path fill="#f00" d="M0 12.8h42.667v6.4h-42.667z"></path>
<path fill="#f00" d="M9.787 24.873c0.067-1.12 0.267-2.073 0.267-2.073s-0.653 0.067-0.987 0.067c-0.327 0-0.987-0.067-0.987-0.067s0.2 0.953 0.267 2.080c-1.127-0.067-2.080-0.267-2.080-0.267s0.067 0.493 0.067 0.987-0.067 0.987-0.067 0.987 0.953-0.2 2.080-0.267c-0.067 1.127-0.267 2.080-0.267 2.080s0.493-0.067 0.987-0.067 0.987 0.067 0.987 0.067-0.2-0.953-0.267-2.080c1.127 0.067 2.080 0.267 2.080 0.267s-0.067-0.653-0.067-0.987c0-0.327 0.067-0.987 0.067-0.987s-0.953 0.2-2.073 0.267zM34.32 5.673c0.067-1.12 0.267-2.073 0.267-2.073s-0.653 0.067-0.987 0.067c-0.327 0-0.987-0.067-0.987-0.067s0.2 0.953 0.267 2.073c-1.127-0.067-2.080-0.26-2.080-0.26s0.067 0.493 0.067 0.987-0.067 0.987-0.067 0.987 0.953-0.2 2.080-0.267c-0.067 1.127-0.267 2.080-0.267 2.080s0.493-0.067 0.987-0.067 0.987 0.067 0.987 0.067-0.2-0.953-0.267-2.073c1.127 0.067 2.080 0.267 2.080 0.267s-0.067-0.667-0.067-0.993 0.067-0.987 0.067-0.987-0.953 0.2-2.080 0.267zM9.787 5.673c0.067-1.12 0.267-2.073 0.267-2.073s-0.653 0.067-0.987 0.067c-0.327 0-0.987-0.067-0.987-0.067s0.2 0.953 0.267 2.080c-1.127-0.067-2.080-0.267-2.080-0.267s0.067 0.493 0.067 0.987-0.067 0.987-0.067 0.987 0.953-0.2 2.080-0.267c-0.067 1.127-0.267 2.080-0.267 2.080s0.493-0.067 0.987-0.067 0.987 0.067 0.987 0.067-0.2-0.953-0.267-2.080c1.127 0.067 2.080 0.267 2.080 0.267s-0.067-0.653-0.067-0.987c0-0.327 0.067-0.987 0.067-0.987s-0.953 0.2-2.073 0.267zM34.32 24.873c0.067-1.12 0.267-2.073 0.267-2.073s-0.653 0.067-0.987 0.067c-0.327 0-0.987-0.067-0.987-0.067s0.2 0.953 0.267 2.080c-1.127-0.067-2.080-0.267-2.080-0.267s0.067 0.493 0.067 0.987-0.067 0.987-0.067 0.987 0.953-0.2 2.080-0.267c-0.067 1.127-0.267 2.080-0.267 2.080s0.493-0.067 0.987-0.067 0.987 0.067 0.987 0.067-0.2-0.953-0.267-2.080c1.127 0.067 2.080 0.267 2.080 0.267s-0.067-0.653-0.067-0.987c0-0.327 0.067-0.987 0.067-0.987s-0.953 0.2-2.080 0.267z"></path>
</svg>
