<!-- Generated by IcoMoon.io -->
<svg version="1.1" xmlns="http://www.w3.org/2000/svg" width="43" height="32" viewBox="0 0 43 32">
<title>gi</title>
<path fill="#da000c" d="M0 0h42.667v32h-42.667z"></path>
<path fill="#fff" d="M0 0h42.667v21.44h-42.667z"></path>
<path fill="#000" d="M13.908 14.537h8v5.5h-8z"></path>
<path fill="#da000c" d="M18.058 19.238h-4.875l-1.088 0.712v0.75h5.963M16.021 16.075c0.7 0 1.275 0.587 1.275 1.313v1.837h0.913v-7h-5.037v7h1.575v-1.837c0-0.7 0.563-1.313 1.275-1.313z"></path>
<path fill="#000" d="M14.896 7.5h2.325v4.25h-2.325z"></path>
<path fill="#da000c" d="M17.208 11.088h-2.025v-0.725h-1.488v0.725h-1v-0.725h-0.613v1.3h5.125M12.683 11.662h4.375v0.563h-4.375zM14.433 5.95v4.425h0.75v-1.213c0-0.45 0.313-0.825 0.762-0.85h0.050c0.469 0 0.85 0.381 0.85 0.85v0 1.213h0.712v-4.425zM14.146 5.35v0.6h3.662v-0.6zM13.683 4.213v1.138h4.375v-1.138h-0.663v0.588h-0.825v-0.588h-1.25v0.588h-0.813v-0.588zM12.083 19.95h6M21.958 19.6h-4.050l-1.225 0.587v0.875h5.275"></path>
<path fill="#da000c" d="M16.683 20.188h5.4"></path>
<path fill="#000" d="M28.758 14.537h-8v5.5h8z"></path>
<path fill="#da000c" d="M24.608 19.238h4.875l1.087 0.712v0.75h-5.963M26.646 16.075c-0.7 0-1.275 0.587-1.275 1.313v1.837h-0.913v-7h5.037v7h-1.575v-1.837c0-0.7-0.563-1.313-1.275-1.313z"></path>
<path fill="#000" d="M27.771 7.5h-2.325v4.25h2.325z"></path>
<path fill="#da000c" d="M25.458 11.088h2.025v-0.725h1.488v0.725h1v-0.725h0.613v1.3h-5.125M29.983 11.662h-4.375v0.563h4.375zM28.233 5.95v4.425h-0.75v-1.213c0-0.45-0.313-0.825-0.762-0.85h-0.050c-0.469 0-0.85 0.381-0.85 0.85v0 1.213h-0.712v-4.425zM28.521 5.35v0.6h-3.663v-0.6zM28.983 4.213v1.138h-4.375v-1.138h0.663v0.588h0.825v-0.588h1.25v0.588h0.813v-0.588zM30.583 19.95h-6M20.708 19.6h4.050l1.225 0.587v0.875h-5.275"></path>
<path fill="#da000c" d="M25.983 20.188h-5.4"></path>
<path fill="#f8d80e" d="M23.496 18.75c-0.337 0.125-0.625 0.3-0.938 0.475-0.424 0.244-0.788 0.492-1.131 0.764l0.019-0.014c-0.125 0.087-0.25 0.175-0.337 0.3-0.125 0.1-0.25 0.25-0.225 0.438 0 0.075 0.1-0.1 0.175-0.113 0.075-0.041 0.165-0.065 0.26-0.065 0.045 0 0.090 0.006 0.132 0.016l-0.004-0.001c0.163-0.175 0.375-0.288 0.55-0.425 0.47-0.344 1.003-0.661 1.566-0.925l0.059-0.025-0.125-0.425z"></path>
<path fill="#f8d80e" d="M21.883 19.675v0.488M22.183 19.462v0.488M22.483 19.275v0.475M22.796 19.087v0.5"></path>
<path fill="#f8d80e" d="M19.196 18.775l-0.15 0.413c0.758 0.294 1.409 0.63 2.017 1.026l-0.042-0.026c0.212 0.15 0.438 0.288 0.6 0.488 0.038 0.1-0.063 0.188-0.163 0.15-0.087-0.025-0.188-0.063-0.275 0-0.137 0.063-0.262 0.275-0.063 0.337 0.3 0.2 0.762 0.113 0.9-0.225 0.075-0.175 0.087-0.4-0.063-0.55-0.25-0.288-0.6-0.5-0.925-0.712-0.523-0.325-1.128-0.628-1.762-0.874l-0.076-0.026z"></path>
<path fill="#f8d80e" d="M21.083 19.75l-0.038 0.425M21.433 19.962l-0.1 0.413M21.808 20.25l-0.225 0.325M21.921 21.025l-0.325-0.175M22.021 20.675l-0.375 0.038M21.546 21.212l-0.025-0.325M21.396 20.85l-0.3 0.225M19.921 19.113v0.387M20.708 19.538v0.438M20.308 19.325v0.413"></path>
<path fill="#f8d80e" d="M18.808 28.45v1h0.625v-0.5h0.863v0.5h0.675v-1zM18.808 29.825v1h2.15v-1h-0.675v0.5h-0.863v-0.5z"></path>
<path fill="#f8d80e" d="M20.958 24.212h0.625v7.25h-0.625z"></path>
<path fill="#f8d80e" d="M20.958 24.837h0.625v6.25h-0.625zM21.283 22.425l1.325 0.775-1.325 0.775-1.337-0.775zM19.496 22.925h-0.337v0.55h0.337l1.788 1.038 1.775-1.038h0.35v-0.55h-0.35l-1.775-1.038z"></path>
<path fill="#f8d80e" d="M21.246 20.538c-0.288 0.060-0.5 0.311-0.5 0.612 0 0.009 0 0.018 0.001 0.026l-0-0.001v1.4c0.024 0.307 0.268 0.551 0.573 0.575l0.002 0c0.014 0.001 0.030 0.002 0.046 0.002 0.244 0 0.454-0.142 0.553-0.348l0.002-0.004-0.212-0.125c-0.055 0.134-0.185 0.227-0.336 0.227-0.014 0-0.027-0.001-0.040-0.002l0.002 0c-0.2 0-0.363-0.2-0.337-0.387v-1.4c0.020-0.184 0.174-0.325 0.361-0.325 0.005 0 0.010 0 0.015 0l-0.001-0c0.075-0.025 0.188 0.087 0.238 0 0.075-0.113-0.050-0.188-0.125-0.25h-0.238zM21.971 21.025c-0.061 0.085-0.141 0.153-0.234 0.198l-0.004 0.002v0.938l0.25 0.137v-1.275z"></path>
<path fill="#000" d="M19.433 4.8h3.663v6.65h-3.663z"></path>
<path fill="#da000c" d="M19.183 4.8v5.563h1.163v-1.65c0-0.375 0.25-0.912 0.988-0.912s1 0.537 1 0.912v1.662h1.15v-5.575zM21.158 5.425h0.35v1.9h-0.35zM20.121 5.8h0.375v1.388h-0.375zM22.183 5.8h0.363v1.388h-0.375zM18.783 4v0.787h5.1v-0.788zM18.308 3.075v0.925h6.063v-0.925h-0.762v0.5h-0.875v-0.5h-0.975v0.5h-0.85v-0.5h-0.988v0.5h-0.837v-0.5zM17.183 12.225v0.575h8.313v-0.575z"></path>
<path fill="#da000c" d="M16.833 10.363v1.875h9v-1.875h-0.85v0.725h-1.15v-0.725h-1.525v0.725h-1.975v-0.725h-1.525v0.725h-1.125v-0.725z"></path>
<path fill="#da000c" d="M17.921 12.8v6.8h1.6v-2.55c0-1.188 0.8-1.75 1.813-1.75 0.975 0 1.813 0.563 1.813 1.75v2.55h1.6v-6.8z"></path>
</svg>
