<!-- Generated by IcoMoon.io -->
<svg version="1.1" xmlns="http://www.w3.org/2000/svg" width="43" height="32" viewBox="0 0 43 32">
<title>gq</title>
<path fill="#e32118" d="M0 0h42.667v32h-42.667z"></path>
<path fill="#fff" d="M0 0h42.667v21.333h-42.667z"></path>
<path fill="#3e9a00" d="M0 0h42.667v10.667h-42.667z"></path>
<path fill="#0073ce" d="M0 0v32l12-16z"></path>
<path fill="#fff" d="M18.773 12.787h5.107v5.347c0 1.8-2.347 0.413-2.547 1.373-0.347-0.987-2.547 0.44-2.547-1.48l-0.013-5.24z"></path>
<path fill="#73452b" d="M21.693 18.653s-0.067 0.067-0.187 0.013c-0.12-0.053-0.133-3.427-0.133-3.427 0.267-0.293 0.48-0.387 0.48-0.387l0.16 0.133c-0.6 0.307-0.547 0.747-0.493 1.507 0.013 0.28 0.013 0.64 0.080 0.987 0.093 0.44 0.28 0.813 0.293 1.093 0.013 0.173-0.2 0.080-0.2 0.080z"></path>
<path fill="#73452b" d="M21.28 14.773h0.24c-0.2 1.933-0.027 3.080-0.027 3.64 0 0.187 0.107 0.253 0.093 0.253-0.24 0.267-0.36-0.013-0.36-0.013z"></path>
<path fill="#a36629" d="M20.907 18.653c-0.227 0.107-0.253-0.107-0.24-0.133 0.493-1 0.707-3.2 0.253-3.44l0.027-0.213c0.173 0.053 0.333 0.28 0.333 0.28 0.067 2.467 0 3.48-0.040 3.52-0.24 0.253-0.333-0.040-0.347-0.067"></path>
<path fill="#009a3b" d="M22.067 13.867c0.080-0.093 0.080-0.093 0.227-0.093 0.027-0.2 0.36-0.2 0.387 0.053 0.267-0.053 0.32 0.107 0.213 0.267 0.253-0.067 0.48 0 0.413 0.293 0.453 0.12 0.28 0.44 0.080 0.507-0.027 0.2-0.213 0.267-0.467 0.187-0.32 0.227-0.507 0.147-0.653-0.080-0.36 0.053-0.387-0.027-0.547-0.227-0.28 0.12-0.333 0.12-0.573-0.027-0.013 0.187-0.080 0.133-0.2 0.12 0.013 0.24-0.080 0.347-0.293 0.267 0.16 0.333-0.253 0.48-0.453 0.2-0.187 0.013-0.2-0.040-0.293-0.107-0.080 0.267-0.373 0.227-0.427 0.080-0.373-0.053-0.333-0.253-0.027-0.267 0.027-0.213 0.213-0.173 0.333-0.147 0.013-0.133 0.093-0.107 0.16-0.080-0.040-0.093-0.013-0.147 0.107-0.173-0.173-0.227-0.067-0.307 0.107-0.387-0.093-0.213 0.067-0.2 0.187-0.213-0.013-0.227 0.053-0.267 0.293-0.293-0.027-0.080 0.013-0.147 0.147-0.147-0.080-0.227 0.027-0.28 0.267-0.24 0.040-0.333 0.747-0.173 0.693 0.28 0.2 0.027 0.267 0.067 0.32 0.227z"></path>
<path fill="#ffd700" d="M21.16 12.033l-0.293 0.013-0.147 0.267-0.16-0.253-0.293 0.013 0.133-0.267-0.16-0.247 0.307-0.013 0.133-0.267 0.16 0.253 0.293-0.013-0.133 0.267zM19.907 12.133l-0.293 0.067-0.080 0.287-0.213-0.213-0.28 0.067 0.080-0.28-0.2-0.213 0.28-0.073 0.080-0.287 0.213 0.213 0.293-0.067-0.093 0.287zM18.693 12.38l-0.267 0.133-0.013 0.293-0.253-0.16-0.267 0.133 0.027-0.3-0.253-0.16 0.267-0.133 0.027-0.3 0.24 0.167 0.267-0.133-0.013 0.293zM21.547 12.033l0.293 0.013 0.133 0.267 0.16-0.253 0.293 0.013-0.133-0.267 0.16-0.247-0.293-0.013-0.147-0.267-0.16 0.253-0.293-0.013 0.133 0.267zM22.8 12.133l0.28 0.067 0.080 0.287 0.213-0.213 0.28 0.067-0.080-0.28 0.213-0.213-0.293-0.073-0.080-0.287-0.213 0.213-0.28-0.067 0.080 0.287zM24 12.38l0.267 0.133 0.013 0.293 0.253-0.16 0.267 0.133-0.013-0.3 0.24-0.16-0.267-0.133-0.013-0.3-0.253 0.167-0.267-0.133 0.027 0.293z"></path>
<path fill="#fff" d="M24.36 18.027l0.333 0.48 0.307-0.453-0.213-0.387zM22.24 19.427l0.027 0.48s0.133 0 0.253-0.040c0.107-0.040 0.2-0.12 0.2-0.12l-0.013-0.253zM20.453 19.427l-0.027 0.467s-0.12 0-0.24-0.027c-0.107-0.027-0.2-0.093-0.2-0.093l-0.133-0.32zM18.307 18.027l-0.347 0.48-0.373-0.613 0.28-0.293z"></path>
<path fill="#fff" d="M19.973 20.387c0 0.453 2.747 0.453 2.747 0v-0.64c0 0.333-2.747 0.267-2.747 0z"></path>
<path fill="#fff" d="M17.52 18.907c0.24 1.227 2.453 1.253 2.453 1.253v-0.413c-0.053-0.16 0.040-0.213 0.4-0.267 0.147-0.013 0.080-0.227 0.080-0.227s-0.96 0.173-1.64-0.093c-0.92-0.373-1.053-1.093-1.053-1.093s-0.067 0.56-0.24 0.84zM25.16 18.907c-0.227 1.227-2.44 1.253-2.44 1.253v-0.413c0.040-0.16-0.053-0.213-0.413-0.267-0.147-0.013-0.067-0.227-0.067-0.227s0.96 0.173 1.64-0.093c0.907-0.373 1.013-1.093 1.013-1.093s0.093 0.56 0.267 0.84z"></path>
<path fill="#fff" d="M17.693 18.44c-0.613-0.333-0.133-0.68-0.080-1.667 0.093 0.6 0.773 0.853 0.693 1.24-0.28 0.013-0.413-0.413-0.547 0.053l-0.067 0.373zM24.987 18.44c0.613-0.347 0.107-0.68 0.053-1.667-0.093 0.6-0.76 0.853-0.68 1.24 0.267 0.013 0.4-0.413 0.533 0.053l0.093 0.36z"></path>
<path fill="#000" d="M18.067 18.893l0.067 0.053-0.147 0.16c-0.067 0.067-0.073 0.107-0.033 0.147 0.047 0.047 0.087 0.027 0.133-0.027l0.167-0.173 0.053 0.053-0.16 0.187c-0.087 0.1-0.167 0.080-0.24 0.013-0.053-0.053-0.093-0.133 0-0.233l0.16-0.18zM18.333 19.12l0.067 0.040-0.013 0.32 0.147-0.227 0.067 0.040-0.213 0.347-0.080-0.040 0.013-0.32-0.147 0.227-0.067-0.040zM18.453 19.68l0.187-0.373 0.067 0.040-0.173 0.36zM18.747 19.36l-0.147 0.387 0.147 0.053c0.133 0.047 0.2-0.013 0.24-0.127 0.047-0.12 0.027-0.2-0.107-0.26l-0.133-0.053zM18.8 19.453c0.133 0.047 0.147 0.1 0.107 0.2-0.040 0.087-0.067 0.12-0.2 0.053l0.093-0.253zM19.187 19.507l-0.24 0.36 0.093 0.027 0.053-0.093 0.16 0.040 0.013 0.093 0.093 0.013-0.093-0.427-0.080-0.013zM19.213 19.6l0.027 0.16-0.107-0.013 0.080-0.147zM19.413 19.54l-0.013 0.413h0.153c0.147 0.007 0.187-0.067 0.193-0.2 0-0.12-0.047-0.2-0.193-0.2l-0.14-0.013zM19.493 19.607c0.147 0.007 0.167 0.053 0.167 0.153-0.007 0.1-0.027 0.14-0.173 0.12v-0.267zM20.813 20.12v0.427h0.093v-0.16s0.080 0 0.147-0.013c0.047-0.013 0.087-0.047 0.087-0.133 0-0.080-0.047-0.12-0.127-0.12h-0.2zM20.907 20.187h0.093c0.073 0 0.067 0.12 0 0.12h-0.093v-0.12zM21.293 20.12l-0.173 0.427h0.093l0.040-0.107h0.173l0.040 0.107h0.093l-0.173-0.427h-0.093zM21.333 20.213l0.067 0.16h-0.12l0.053-0.16zM21.56 20.467l0.227-0.28h-0.2v-0.067h0.32v0.067l-0.24 0.28h0.24v0.080h-0.347zM22.907 19.64l0.080-0.013 0.040 0.24c0.013 0.087-0.027 0.14-0.087 0.167-0.067 0.027-0.16 0-0.167-0.113l0.067-0.013c0.013 0.067 0.040 0.073 0.067 0.067 0.033-0.013 0.047-0.053 0.040-0.093zM23.040 19.613l0.073-0.013 0.040 0.2c0.013 0.087 0.040 0.12 0.1 0.113 0.067-0.013 0.073-0.053 0.060-0.133l-0.047-0.207 0.080-0.013 0.053 0.22c0.027 0.133-0.040 0.18-0.133 0.2-0.073 0.013-0.16 0-0.187-0.133zM23.453 19.8l0.067-0.027c0.033 0.060 0.080 0.053 0.12 0.040 0.053-0.027 0.067-0.073 0.033-0.093-0.040-0.020-0.133 0.013-0.18 0-0.060-0.027-0.087-0.067-0.080-0.113 0-0.067 0.053-0.093 0.113-0.113 0.067-0.020 0.133-0.013 0.18 0.067l-0.080 0.027c-0.027-0.047-0.067-0.040-0.093-0.027s-0.067 0.033-0.040 0.067c0.013 0.033 0.113 0.013 0.167 0.013s0.093 0.040 0.1 0.087c0.013 0.073-0.013 0.113-0.1 0.147-0.1 0.040-0.193 0-0.207-0.073zM23.813 19.467l-0.107 0.053-0.027-0.067 0.293-0.12 0.027 0.053-0.107 0.053 0.12 0.293-0.067 0.040zM23.987 19.32l0.067-0.040 0.187 0.347-0.067 0.040zM24.44 19.347l0.080-0.027c0.008 0.018 0.012 0.039 0.012 0.060 0 0.088-0.072 0.16-0.16 0.16-0.004 0-0.008-0-0.012-0l0.001 0c-0.2 0-0.227-0.227-0.193-0.3 0.053-0.127 0.2-0.12 0.267-0.053l-0.067 0.053c-0.040-0.053-0.133-0.020-0.133 0.027-0.003 0.012-0.004 0.026-0.004 0.040 0 0.069 0.039 0.13 0.097 0.16l0.001 0c0.067 0.027 0.16-0.053 0.113-0.12zM24.4 19.067l0.067-0.053 0.24 0.32-0.067 0.053zM24.653 18.867l-0.067 0.053 0.147 0.4 0.067-0.067-0.040-0.080 0.12-0.107 0.080 0.040 0.067-0.053-0.373-0.187zM24.68 18.96l0.133 0.067-0.080 0.080-0.053-0.147z"></path>
</svg>
