<!-- Generated by IcoMoon.io -->
<svg version="1.1" xmlns="http://www.w3.org/2000/svg" width="43" height="32" viewBox="0 0 43 32">
<title>gr</title>
<path fill="#005bae" d="M0 0h42.667v3.553h-42.667z"></path>
<path fill="#fff" d="M0 3.553h42.667v3.56h-42.667z"></path>
<path fill="#005bae" d="M0 7.113h42.667v3.553h-42.667z"></path>
<path fill="#fff" d="M0 10.667h42.667v3.553h-42.667z"></path>
<path fill="#005bae" d="M0 0h17.78v17.78h-17.78z"></path>
<path fill="#005bae" d="M0 14.22h42.667v3.56h-42.667z"></path>
<path fill="#fff" d="M0 17.78h42.667v3.553h-42.667z"></path>
<path fill="#005bae" d="M0 21.333h42.667v3.553h-42.667z"></path>
<path fill="#fff" d="M0 24.887h42.667v3.56h-42.667z"></path>
<path fill="#fff" d="M7.111 0h3.556v17.778h-3.556z"></path>
<path fill="#fff" d="M0 7.111h17.778v3.556h-17.778z"></path>
<path fill="#005bae" d="M0 28.447h42.667v3.553h-42.667z"></path>
</svg>
