<!-- Generated by IcoMoon.io -->
<svg version="1.1" xmlns="http://www.w3.org/2000/svg" width="43" height="32" viewBox="0 0 43 32">
<title>gs</title>
<path fill="#006" d="M0 0h42.667v32h-42.667z"></path>
<path fill="#6a4c2d" d="M31.4 23s-0.173 0.453-0.267 0.453c-0.107 0-0.467-0.2-0.467-0.2s-0.26 0.427-0.4 0.447c-0.133 0.027-0.493-0.060-0.493-0.060s-0.347 0-0.36-0.047c-0.013-0.053 0.013-0.153 0.013-0.153s-0.5 0.4-0.607 0.373c-0.113-0.020-0.487-0.493-0.487-0.493l-0.067 0.247-0.707-0.027-0.62-0.4s-0.347 0.573-0.36 0.56c-0.013-0.007-0.607 0.14-0.607 0.14l-0.040-0.113-0.4-0.233s0.313-0.433 0.313-0.447c0-0.013-0.147-0.067-0.147-0.067l-0.227 0.187-0.46 0.3-0.46-0.213 0.2-0.373 0.027-0.267 0.36-0.553 4.413-4.287 2.173 4.013z"></path>
<path fill="#fff" d="M34.533 23.253l1.153-0.040-0.493-0.24 4.38-0.167-0.62-0.233-0.547-0.747-2.267-0.167s-0.173-0.133-0.447-0.067c-0.013-0.173-0.227-0.4-0.227-0.4l-1.4-0.113-0.867 0.6 0.587 1.507z"></path>
<path fill="#000" d="M30.067 10.4l0.12-0.4s0.2-0.333 0.2-0.493c0-0.147 0.153-0.327 0.153-0.327s0.46-0.133 0.56 0.153c0.493-0.753 1.080-0.040 1.080-0.040l0.16-0.187 0.333-0.4s0.467 0.433 0.467 0.507c0.013 0.080 0.087 0.027 0.087 0.027l0.507-0.040c-0.005 0.030-0.008 0.063-0.008 0.098 0 0.178 0.078 0.338 0.201 0.448l0.001 0.001c0.18 0.107 0.34 0.733 0.34 0.733z"></path>
<path fill="#656263" d="M34.533 15.073c0.093-0.053 0.367-0.14 0.333-0.547-0.033-0.4-0.38-0.453-0.58-0.44s-0.367 0.187-0.367 0.187l-0.653-0.413s0.327-2.047 0.667-2.173c0.333-0.233 0.387-0.333 0.387-0.387 0-0.060-0.12-0.193-0.12-0.193l-2.113-0.247-2 0.233s-0.147 0.24-0.133 0.333c0.027 0.093 0.033 0.193 0.387 0.467 0.4 0.307 0.667 2.053 0.667 2.053s-0.553 0.28-0.593 0.24c-0.033-0.033-0.2-0.067-0.287-0.053s-0.38 0.167-0.38 0.547c0 0.387 0.293 0.607 0.293 0.607s1.907-0.22 2.193 0.307c0.273-0.633 2.087-0.413 2.307-0.52z"></path>
<path fill="#000" d="M36.593 12.947s0.020-0.22 0.18-0.327c0.16-0.107 1.213-0.16 1.467 0s0.347 0.94 0.347 0.94 0.16 0.273 0.173 0.48c0.007 0.2 0.033 0.333 0.033 0.333s0.84 1.1 0.853 2.093c0.093 0.673 0.073 2.48-0.193 3.167 0 0.003 0 0.007 0 0.010 0 0.518-0.136 1.004-0.374 1.424l0.008-0.014s0.087 0.147 0.073 0.307c-0.013 0.153-0.093 0.307-0.093 0.307l1.233 0.607-0.453-0.167 0.453 0.38-0.513-0.24 0.3 0.307c-0.007-0.013-0.747-0.34-0.747-0.34l0.333 0.313-0.567-0.267s0.333 0.367 0.333 0.347c-0.123-0.063-0.286-0.134-0.452-0.199l-0.041-0.014 0.027 0.18s-0.387-0.020-0.387-0.307c-0.121-0.070-0.224-0.154-0.312-0.252l-0.001-0.001-0.88-0.147-0.993-2.973 0.233-5.013 0.067-0.253z"></path>
<path fill="#fb0" d="M35.933 28.987s-0.513-1.067-0.767-1.087c-0.227-0.44 0.8-4 2.78-4.207 1.087 0.087 0.087 1.253-0.627 0.893 0.118 0.293 0.268 0.546 0.451 0.772l-0.004-0.006s-1.42 0.613-1.84 3.633z"></path>
<path fill="#fb0" d="M29.113 29.14s0.42-1.22 0.673-1.233c0.26-0.013-0.673-4.060-2.707-4.087-1.093 0.087-0.087 1.26 0.633 0.9-0.12 0.293-0.273 0.546-0.458 0.772l0.004-0.005s1.433 0.613 1.853 3.653z"></path>
<path fill="#00713d" d="M30.973 21.533c0-0.013-0.507 0.153-0.18 0.7 0.020-0.213 0.247-0.333 0.247-0.333s-0.34 0.4 0.020 0.74c0.047-0.32 0.253-0.42 0.253-0.42s-0.26 0.747 0 0.9c0.033-0.3 0.22-0.433 0.22-0.433s-0.227 0.667-0.020 0.82c0.020-0.253 0.193-0.367 0.193-0.367s-0.1 0.7 0.167 0.747c0-0.247 0.2-0.487 0.2-0.487s-0.087 0.567 0.333 0.593c0-0.213 0.080-0.46 0.080-0.46s0.193 0.6 0.467 0.507v-0.513s0.18 0.573 0.513 0.467c-0.047-0.16 0.020-0.353 0.020-0.353s0.173 0.36 0.493 0.24c0.053-0.107-0.013-0.32-0.013-0.32s0.467 0.48 0.6 0.193c0.147-0.287-0.367-0.387-0.367-0.387h0.347s-0.113-0.293-0.58-0.36c0.16-0.067 0.327-0.013 0.327-0.013s-0.1-0.367-0.58-0.407c0.187-0.067 0.4-0.020 0.4-0.020s-0.067-0.347-0.6-0.447c0.087-0.093 0.313-0.067 0.313-0.067s-0.213-0.327-0.453-0.307c-0.24 0.020-2.4-0.22-2.4-0.213z"></path>
<path fill="#fff" d="M29.42 15.287l1.62-0.033s1.067 0 1.18 0.347c0.2-0.46 1.133-0.433 1.133-0.433l1.667-0.053 0.033 4.040c-0.333 1.573-1.467 2.68-2.713 3.153-1.414-0.491-2.464-1.686-2.743-3.154l-0.004-0.026-0.173-3.84z"></path>
<path fill="#006b00" d="M30 15.267l2.353 6.28 2.133-6.413c-0.667 0.040-2.080-0.107-2.26 0.5-0.267-0.54-1.76-0.327-2.233-0.367z"></path>
<path fill="#ffc900" d="M31.6 18.667c0.093 0.047 0.087-1.7 0.207-1.753l0.093-0.367c-0.1-0.18-0.56-0.173-0.733-0.013l0.113 0.32c0.233 0.373 0.187 1.853 0.32 1.813z"></path>
<path fill="#cdad56" d="M30.967 5.133s0.167-0.193 0.173-0.233c0.013-0.047 0.76-0.080 1.2-0.913 0.253-0.433 0-0.18 0-0.18l-0.007-0.207s0.307-0.293 0.2-0.453c-0.12-0.16-0.080 0.2-0.267 0.2-0.18-0.007-0.080-0.4-0.080-0.4s-0.013-0.040-0.067-0.067c-0.073 0.013-0.053 0.147-0.12 0.16-0.067 0.020-0.133-0.313-0.133-0.313s-0.113-0.153-0.207 0.32c0.053 0.513 0.373 0.413 0.373 0.747s-0.287 0.587-0.367 0.6c-0.087 0-0.053-0.287-0.053-0.287s-0.047-0.133-0.073-0.133c-0.033 0 0.167-0.033 0.133-0.407-0.067-0.453-0.12 0.107-0.24 0.080-0.127-0.020-0.033-0.413 0.013-0.467 0.047-0.040-0.053-0.227-0.32 0.253-0.020 0.24-0.053-0.060-0.107-0.040-0.087 0.187-0.073 0.32 0.053 0.493 0.193 0.18 0.313 0.353 0.307 0.44-0.007 0.093-0.107 0.3-0.247 0.3-0.133 0 0.007-0.253 0-0.333 0-0.087-0.233-0.387-0.233-0.387s-0.16-0.26-0.14-0.267c0.013-0.007-0.020-0.047-0.093 0.22s-0.167-0.173-0.167-0.173-0.107 0.327 0.12 0.52c-0.173-0.020-0.187 0.047-0.187 0.047 0 0.093 0.233 0.133 0.267 0.287 0.027 0.16-0.247 0.253-0.247 0.253s0.113 0.153 0.433-0.153c0.007 0.2-0.12 0.333-0.12 0.333 0.107 0.047 0.187 0.040 0.2 0.167z"></path>
<path fill="#cdad56" d="M29.933 5.133s-0.147-0.213-0.153-0.253c0-0.040-0.693 0.053-1.020-0.787-0.213-0.4 0-0.167 0-0.167l0.013-0.193s-0.227-0.273-0.133-0.42c0.1-0.147 0.067 0.187 0.187 0.187 0.153-0.007 0.067-0.36 0.067-0.36s0.013-0.040 0.067-0.060c0.060 0.007 0.087 0.213 0.14 0.227 0.060 0.013 0.18-0.24 0.22-0.293 0.053-0.007 0.047-0.213 0.133 0.22-0.047 0.46-0.427 0.367-0.427 0.667 0 0.307 0.24 0.54 0.313 0.547 0.067 0.013 0.047-0.253 0.047-0.253s0.040-0.12 0.067-0.12c0.020 0-0.227 0.047-0.2-0.3 0.053-0.32 0.18 0.020 0.287 0 0.1-0.020-0.013-0.333 0.013-0.387 0.007-0.053 0.16-0.26 0.22 0.2 0.020 0.22 0.133-0.18 0.18-0.167 0.080 0.173-0.033 0.4-0.14 0.56-0.16 0.16-0.233 0.333-0.227 0.413 0 0.087 0.040 0.187 0.16 0.187 0.113 0 0.033-0.147 0.040-0.22s0.2-0.32 0.2-0.32c0.040-0.067 0.007-0.173 0.047-0.227 0.067 0 0.093-0.087 0.153 0.153 0.067 0.24 0.14-0.16 0.14-0.16s0.093 0.3-0.1 0.48c0.147-0.020 0.16 0.040 0.16 0.040 0 0.080-0.067 0.113-0.093 0.267-0.002 0.012-0.003 0.027-0.003 0.041 0 0.070 0.029 0.134 0.077 0.179l0 0s-0.093 0.147-0.367-0.133c0 0.001 0 0.002 0 0.003 0 0.113 0.040 0.217 0.107 0.298l-0.001-0.001c-0.093 0.047-0.16 0.040-0.173 0.153z"></path>
<path fill="#ffc900" d="M34.087 16.2c-0.133-0.12-0.153-0.013-0.227-0.040-0.033-0.013-0.060-0.047-0.087-0.073s-0.060-0.040-0.093-0.053l-0.040 0.113c-0.013 0.040 0.040 0.1 0.040 0.16-0.013 0.087-0.047 0.153-0.153 0.18 0.033-0.060 0.047-0.060 0.040-0.133 0-0.033-0.107-0.1-0.093-0.133 0.013-0.060 0.047-0.12 0.027-0.18-0.047 0.033-0.1 0.013-0.147 0.033-0.033 0.020-0.040 0.087-0.087 0.113-0.053 0.027-0.167 0.013-0.267-0.040 0.060-0.047 0.107-0.013 0.167-0.067 0.027-0.013 0.027-0.113 0.060-0.133l0.127-0.067c-0.027-0.033-0.027-0.080-0.053-0.107-0.027-0.033-0.14-0.027-0.167-0.053-0.053-0.067-0.047-0.14-0.093-0.2 0.133 0.047 0.113 0.113 0.147 0.107 0.067-0.033 0.133-0.033 0.167-0.020s0.093 0.1 0.133 0.113l0.040-0.127c0.013-0.040-0.053-0.1-0.047-0.14 0.027-0.073 0.093-0.14 0.12-0.22l0.027 0.207c0.007 0.040 0.080 0.060 0.080 0.093 0.007 0.040-0.033 0.12-0.033 0.16 0.040-0.007 0.1 0 0.133-0.013 0.047-0.007 0.067-0.1 0.107-0.107 0.080-0.013 0.133-0.007 0.22 0-0.067 0.060-0.107 0.053-0.14 0.107-0.033 0.020 0.007 0.093-0.073 0.147-0.033 0.020-0.12 0-0.147 0.020l0.080 0.087c0.027 0.033 0.14 0.047 0.167 0.080 0.053 0.053 0.080 0.133 0.067 0.193z"></path>
<path fill="#ffc900" d="M30.467 16.267c0.133-0.127 0.153-0.013 0.227-0.047 0.033-0.013 0.060-0.040 0.087-0.067 0.027-0.033 0.060-0.040 0.093-0.060l0.040 0.12c0.013 0.033-0.040 0.1-0.040 0.153 0.013 0.087 0.047 0.153 0.153 0.187-0.033-0.067-0.047-0.067-0.040-0.133 0-0.040 0.107-0.107 0.093-0.14-0.013-0.053-0.047-0.12-0.027-0.173 0.047 0.027 0.1 0.013 0.147 0.027 0.033 0.020 0.040 0.087 0.087 0.113 0.053 0.027 0.167 0.013 0.267-0.040-0.060-0.047-0.107-0.013-0.167-0.060-0.027-0.020-0.027-0.12-0.060-0.133-0.027-0.027-0.1-0.053-0.127-0.073 0.027-0.033 0.027-0.080 0.053-0.107 0.027-0.033 0.14-0.027 0.167-0.053 0.053-0.067 0.047-0.14 0.093-0.2-0.133 0.047-0.113 0.113-0.147 0.107-0.067-0.027-0.133-0.033-0.167-0.020s-0.093 0.1-0.133 0.113l-0.040-0.127c-0.013-0.033 0.060-0.1 0.047-0.133-0.027-0.080-0.093-0.147-0.12-0.227l-0.027 0.213c-0.007 0.033-0.080 0.053-0.080 0.087-0.007 0.040 0.033 0.127 0.033 0.16-0.040-0.007-0.1 0-0.133-0.013-0.047 0-0.067-0.093-0.107-0.107-0.080-0.013-0.133-0.007-0.22 0.007 0.067 0.053 0.107 0.053 0.147 0.1 0.027 0.027-0.013 0.1 0.067 0.147 0.033 0.020 0.12 0 0.147 0.020l-0.080 0.093c-0.027 0.027-0.14 0.040-0.167 0.067-0.053 0.067-0.080 0.133-0.067 0.2z"></path>
<path fill="#ffc900" d="M33.96 16.613c-0.127 0.1-0.953 0.307-0.96 1.020-0.007 0.72 0.147 0.88-0.007 0.9-0.3 0-0.34-0.8-0.333-1.153s0.020-0.3 0.020-0.3 0.2 0.053 0.187 0.227c-0.020 0.173 0.2-0.427 0.127-0.587 0.133 0.133 0.313 0.080 0.313 0.067 0 0-0.1-0.113-0.147-0.2-0.040-0.073 0.153 0.053 0.153 0.053s0.013-0.133-0.16-0.133c-0.22 0 0.033-0.067 0.033-0.067s0.133 0.113 0.213-0.013c-0.064-0.063-0.139-0.115-0.222-0.151l-0.005-0.002s-0.12-0.227-0.28-0.267c-0.187-0.047-0.167 0.080-0.38 0.060-0.040 0.080-0.040 0.093 0.047 0.12-0.147 0.1-0.067 0.293-0.067 0.293s0.227-0.093 0.22 0.067c-0.007 0.167-0.133 0.133-0.22 0.033-0.080-0.040-0.107 0.047-0.107 0.047l0.12 0.133s-0.227-0.013-0.287 0.14c0.127-0.007 0.2 0.027 0.2 0.027s-0.267 0.12-0.293 0.18c-0.027 0.067-0.033-0.067-0.047-0.067l-0.253-0.093-0.087 0.393s0.173 0.167 0.267 0.113 0.267-0.22 0.367-0.173c-0.3 0.227-0.6 0.553-0.76 0.6-0.040-0.040-0.187-0.18-0.247-0.107-0.060 0.067-0.013 0.16 0.067 0.153 0.067-0.013-0.253 0.067-0.187 0.207 0.067 0.133 0.067 0.127 0.12 0.093 0.067-0.040-0.047-0.047 0.173-0.113s0.213-0.127 0.213-0.127-0.047 0.1-0.167 0.133c-0.113 0.020-0.207 0.020-0.187 0.060 0.027 0.033 0.080 0.1 0.067 0.133-0.020 0.040 0.24-0.187 0.313-0.007 0.173-0.013 0.293-0.227 0.207-0.353 0.013 0.133 0.093 0.18 0.047 0.247-0.053 0.060 0.4-0.213 0.18-0.373 0.053 0.133 0.067 0.24 0.067 0.24s0.1 0 0.127-0.040c0.027-0.040-0.053 0.1-0.020 0.127s0.2 0.18 0.133 0.287c-0.047-0.067-0.053-0.16-0.107-0.153s-0.267 0.167-0.393 0.173c-0.127 0.007 0.153 0.467 0.153 0.467s-0.193-0.020-0.22 0c-0.027 0.013-0.153-0.167-0.173-0.060-0.047 0.133 0.040 0.080 0.040 0.080s-0.113-0.053-0.173 0.013c-0.060 0.067-0.113 0.127-0.073 0.153s0.227 0.027 0.253 0.020c0.027-0.013-0.213 0.013-0.227 0.040-0.020 0.027-0.053 0.133 0 0.167 0.047 0.033 0.18-0.020 0.187-0.047s0.013 0.1 0.013 0.1 0.22 0.020 0.22-0.207 0.020 0.16 0.020 0.16 0.22 0.040 0.227-0.187c0.013-0.227 0.027 0.153 0.027 0.153s0.147-0.047 0.147-0.080c0-0.040-0.007 0.447-0.113 0.587-0.16-0.107-0.267 0.067-0.267 0.067s0.013 0.267 0 0.333c-0.020 0.067 0.107-0.040 0.113-0.067 0.013-0.027 0.167-0.1 0.173-0.113l0.053-0.113s-0.040 0.133-0.093 0.147c-0.067 0.020-0.12 0.080-0.093 0.133 0.020 0.060 0.113 0.093 0.147 0.147 0.040 0.053 0.153-0.313 0.153-0.313l0.013 0.080s0.153-0.040 0.167-0.113c0.020-0.067-0.16-0.133-0.013-0.253 0.14-0.113 0 0.113 0 0.113s0.047 0.173 0.080 0.173c0.040 0 0.12-0.333 0.040-0.413-0.087-0.080 0.127 0.1 0.127 0.1s0.12-0.333-0.013-0.38l-0.187-0.067s0.067-0.087 0.033-0.093c-0.033-0.013 0.18 0.2 0.213 0.14 0.033-0.053 0.087-0.213-0.16-0.307-0.247-0.087-0.007-0.34-0.007-0.34s0.153 0.18 0.267 0.080c0.107-0.1-0.013-0.1-0.013-0.1s0.313-0.2 0.327-0.3c-0.067-0.007-0.167 0.007-0.167 0.007s0.18-0.113 0.133-0.307c-0.067 0.1-0.16 0.1-0.16 0.1s0.153-0.153 0.133-0.3c-0.093 0.073-0.087 0.133-0.147 0.113s-0.16-0.593 0.073-0.627c0.24-0.040 0.113 0.28 0.12 0.28 0.013 0 0.36-0.147 0-0.38 0.087-0.027 0.267 0.133 0.267 0.133s-0.080-0.4-0.467-0.153c0.1-0.1 0.16-0.16 0.233-0.147 0.080 0.020 0.353-0.007 0.353-0.087-0.067-0.053-0.213 0.027-0.293 0-0.073-0.027 0.547-0.073 0.493-0.38z"></path>
<path fill="#e80000" d="M32.32 19.82s-0.107 0.127-0.247 0.133"></path>
<path fill="#006b00" d="M32.607 16.807s0.18-0.067 0.213-0.107c0.046-0.045 0.084-0.098 0.112-0.157l0.001-0.003c0.013-0.053-0.12-0.133-0.053-0.253 0.047-0.060 0.107-0.067 0.2 0 0.107 0.067-0.087-0.2-0.187-0.213-0.107-0.007-0.173 0.073-0.2 0.053-0.027-0.013 0.007 0.073-0.033 0.073s0.087 0.073 0.080 0.12c-0.013 0.047 0.133 0.2 0.127 0.233-0.013 0.040-0.213 0.247-0.26 0.253z"></path>
<path fill="#ffc900" d="M32.733 16.213c0.080-0.020 0.093 0 0.080 0.067-0.030-0.016-0.055-0.039-0.073-0.066l-0-0.001z"></path>
<path fill="#e80000" d="M32.2 20.247s-0.033 0.193 0.033 0.207c0-0.067 0.020-0.12 0.033-0.14l-0.067-0.067z"></path>
<path fill="#e80000" d="M32.033 20.013c-0.067-0.007-0.167 0.053-0.133 0.12 0.047-0.047 0.093 0 0.133-0.047v-0.067z"></path>
<path fill="#e80000" d="M32.033 19.88s-0.1-0.013-0.113 0.060c0.067-0.013 0.093-0.020 0.113 0v-0.060z"></path>
<path fill="#e80000" d="M31.607 18.813s0.067 0.020 0.080 0.087c0.047-0.027 0.067-0.173-0.080-0.087z"></path>
<path fill="#e80000" d="M31.453 18.973s0.133-0.080 0.14 0c-0.027 0.020-0.033 0.040-0.053 0.047-0.020 0-0.053-0.053-0.087-0.047z"></path>
<path fill="#e80000" d="M31.447 19.233s0.080-0.067 0.107-0.027c0.033 0.053-0.027 0.047-0.027 0.047l-0.080-0.020z"></path>
<path fill="#e80000" d="M31.333 17.773s-0.1-0.040-0.14 0.033c0.067 0.013 0.087 0.033 0.12 0.060-0.013-0.033-0.027-0.080 0.020-0.093z"></path>
<path fill="#e80000" d="M31.14 18.327s0-0.127 0.067-0.173c0.027 0.020 0.033 0.047 0.053 0.080-0.040 0.013-0.093 0.013-0.12 0.093z"></path>
<path fill="#e80000" d="M31.4 18.24s-0.107 0.053-0.067 0.113c0.033-0.047 0.073-0.033 0.073-0.033v-0.080z"></path>
<path fill="#ffc900" d="M31.247 17.053c-0.040 0.047 0.047 0.147 0.14 0.133 0.027-0.107-0.113-0.167-0.133-0.133z"></path>
<path fill="#e80000" d="M31.347 16.973s0.020 0.087 0.1 0.067c-0.011-0.050-0.034-0.092-0.067-0.127l0 0c0 0.020 0.007 0.053-0.033 0.060z"></path>
<path fill="#e80000" d="M31.4 17.22s0.047 0.053 0.133-0.047c-0.040 0.007-0.107-0.027-0.107-0.027s0 0.067-0.027 0.073z"></path>
<path fill="#ffc900" d="M31.24 16.853c-0.033 0.047 0.020 0.113 0.113 0.1 0.020-0.113-0.087-0.133-0.113-0.1z"></path>
<path fill="#000" d="M31.28 16.42s0.367-0.107 0.56 0.053c0.2 0.153 0.2 0.013 0.2 0.013s0.28 0.107 0.36 0.080c0.080-0.020-0.060 0.013 0.053-0.060 0.113-0.067-0.227 0.020-0.253-0.127-0.053-0.087 0-0.2-0.113-0.16-0.080-0.107 0.053-0.18 0.020-0.293-0.080 0.067-0.127-0.020-0.193 0.133-0.153-0.033-0.020-0.253-0.193-0.273 0 0.153-0.127 0.16-0.133 0.253-0.073 0.053-0.4 0.247-0.307 0.38z"></path>
<path fill="#c01500" d="M27.067 28.333c0.24-0.067 1.527 0.28 2.020 0.813-0.107-0.953-0.367-1.673-0.367-1.673s-0.767-0.22-0.867-0.113c-0.293 0.285-0.552 0.602-0.774 0.945l-0.013 0.021z"></path>
<path fill="#c01500" d="M26.673 23.953c-0.087 0.013-0.18 0.073-0.267 0.227-0.107 0.253-0.18 0.9-0.333 1.053-0.147 0.147-0.287 0.16-0.287 0.3 0 0.133 0.020 0.447 0.42 0.567 0.407 0.020 1.053-0.647 1.053-0.647s0.333-0.36 0.467-0.747c-0.78 0.267-1.333-0.453-1.053-0.753z"></path>
<path fill="#c01500" d="M37.98 28.18c-0.777 0.052-1.477 0.348-2.032 0.811l0.006-0.005c0.107-0.94 0.367-1.667 0.367-1.667 0.087-0.020 0.753-0.213 0.853-0.107 0.153 0.16 0.647 0.647 0.807 0.967z"></path>
<path fill="#c01500" d="M38.347 23.827c0.087 0.013 0.12 0.133 0.2 0.28 0.1 0.26 0.2 0.627 0.353 0.773 0.153 0.153 0.287 0.373 0.287 0.507s-0.033 0.32-0.433 0.44c-0.4 0.013-0.987-0.507-0.987-0.507s-0.333-0.353-0.467-0.747c0.78 0.267 1.28-0.42 1.047-0.747z"></path>
<path fill="#fb0" d="M26.227 27.5s0.807 0.56 0.827 0.813c2.18-3.233 7.74-4.24 10.913-0.227 0.42-0.553 0.853-0.733 0.853-0.733-3.333-4.36-9.98-3.82-12.6 0.147z"></path>
<path fill="#1e5aa6" d="M34.493 15.133l0.32-0.007-0.567 0.72 0.68 0.793-1.34 1.687 1.267 1.52c-0.14 0.356-0.315 0.664-0.527 0.943l0.007-0.009-0.727-0.8 1.327-1.647-1.080-1.227z"></path>
<path fill="#1e5aa6" d="M29.953 15.28h-0.333l0.633 0.693-0.673 0.84 1.4 1.52-1.16 1.553c0.133 0.333 0.333 0.72 0.553 1l0.687-0.873-1.413-1.573 1.033-1.313z"></path>
<path fill="#1e5aa6" d="M31.533 19.36l-0.507 0.667 1.787 2.067c0.32-0.16 0.567-0.34 0.833-0.56l-0.933-1.073 0.38-1.113 0.547 0.627-1.7 2.173c-0.287-0.12-0.6-0.307-0.887-0.547l0.9-1.14z"></path>
<path fill="#1e5aa6" d="M30.98 18.327l0.32 0.407-0.207-0.553z"></path>
<path fill="#1e5aa6" d="M33.307 18.687l0.267-0.347-0.1-0.133z"></path>
<path fill="#000" d="M36.627 13.88s1.073 0.040 1.073 0.147-0.8 0.307-0.813 0.747c-0.007 0.447 0.613 0.48 0.66 1.040 0.040 0.56-0.487 0.64-0.6 0.793-0.1 0.067-0.353 0.867-0.32 1.333 0.033 0.46 0.167 2.033 0.413 2.353 0.187 0.147 0.467 0.62 0.78 0.467 0.307-0.14 0.093-0.68 0.067-0.827-0.033-0.147 0.12-0.393 0.12-0.613 0-0.227-0.113-0.4-0.1-0.453 0.007-0.053 0.853 0.2 0.8 1.033s-0.393 0.58-0.393 0.58 0.107 1.027-0.153 1.16c-0.48 0.253-0.827-0.053-0.827-0.053l0.047 0.213-0.367-0.187s-0.467-0.667-0.567-0.967c-0.123-0.539-0.194-1.159-0.194-1.795 0-0.037 0-0.074 0.001-0.111l-0 0.006c0.047-0.287 0.073-1.953 0.053-2.040-0.020-0.080-0.107-1.473-0.053-1.687s0.38-1.14 0.373-1.14z"></path>
<path fill="#ff7000" d="M35.467 13.6s0.747-0.727 1.18-0.64c0.22 0 0.013 0.16 0.013 0.16s0.38 0.027 0.433 0.2c0.007 0.067-0.18 0.093-0.18 0.093s0.153 0.033 0.167 0.167c0.013 0.14-1.6 0.033-1.62 0.027z"></path>
<path fill="#fff" d="M38.42 21.993s0.507-0.12 0.647-0.3c0.080-0.067 0.527 0.667-0.647 0.3z"></path>
<path fill="#c75b00" d="M37.187 13.353s0.133 0.38 0.58 0.020c-0.287-0.393-0.58-0.013-0.58-0.020z"></path>
<path fill="#000" d="M37.513 13.333c0 0.020-0.020 0.040-0.047 0.040s-0.047-0.020-0.047-0.040 0.020-0.033 0.047-0.033c0.027 0 0.047 0.013 0.047 0.033z"></path>
<path fill="#fff" d="M33.56 12.467s0.84 0.913 1.38 0.9c0.1 0.267-0.247 0.52-0.38 0.633-0.28-0.087-0.533 0.020-1.173-0.773 0.040-0.507 0.18-0.733 0.173-0.76z"></path>
<path fill="#fff" d="M34.693 10.347c0.113-0.333 0.333-0.6 0.52-0.633-0.053-0.253 0.393-1.393 1.687-1.827 0.080 0.58-0.553 1.16-0.553 1.16s1.913-0.333 2.3-0.813c-0.040 0.213-0.427 1.573-2.467 1.56 0.773 0.733-0.247 1.32-0.68 1.14 0.8-0.613-0.233-0.98-0.8-0.587z"></path>
<path fill="#cccccd" d="M35.347 9.873c0.387-0.247 0.527-0.247 0.847-0.2l-0.233 0.040s-0.020 0.033 0.12 0.16c-0.16-0.040-0.293-0.133-0.733 0z"></path>
<path fill="#00f" d="M34.547 14s1.047 0.287 1.167-1.213c-0.227-0.653-0.54-2.067-0.060-2.467-0.44-0.307-0.933 0.013-0.933 0.013-0.027 0.067-0.42 0.633 0.113 1.62-1.267-0.333-0.753 0.867-0.753 0.867 0.053-0.2 0.727-0.373 0.893 0.587 0.067 0.24-0.453 0.6-0.427 0.6z"></path>
<path fill="#00f" d="M35.727 12.8s1.107-0.6 1.080-2c-0.947 0.027-1.28 1.24-1.28 1.24z"></path>
<path fill="#fff" d="M30.753 12.727s-0.82 0.713-1.287 0.487c-0.34 0.2-0.747-0.16-0.747-0.16s0.467 1.753 2.173 0.487c-0.018-0.297-0.066-0.575-0.14-0.842l0.007 0.028z"></path>
<path fill="#00f" d="M29.46 13.18c0.067-0.367 0.353-0.547 0.587-0.2 0.307 0.067 0.613-1.2-0.48-0.987 0.307-1.647-0.613-2.26-0.613-2.26s-0.327 1.827-0.173 2.16c0.147 0.333-0.22-0.62-1.4-0.893-0.020 1.38 1.32 2.020 1.32 2.020s0.373 0.347 0.76 0.16z"></path>
<path fill="#fff" d="M28.807 10.42c0-0.013-0.78 0-0.32 0.793-0.34 0.107-1.113-0.4-0.58-1.067-1.753-0.047-2.467-0.887-2.467-1.66 0.513 0.533 1.747 0.32 2.18 0.647-0.533-0.493-0.427-1.18-0.427-1.18s1.493 0.447 1.76 1.773c-0.087 0.26-0.127 0.713-0.147 0.693z"></path>
<path fill="#cccccd" d="M27.947 9.967s0.613-0.080 0.793 0.133c-0.24 0-0.32-0.060-0.667 0.067 0.093-0.047 0.067-0.133 0.12-0.133s-0.22-0.067-0.247-0.067z"></path>
<path fill="#923f00" d="M31 5.167s0.34-0.3 0.707-0.033c-0.167 0.493-0.76 0.307-0.76 0.307s0.020 0.247-0.040 0.367c0.12 0.093 0.213 0.387 0.213 0.387s0.613-0.147 0.747 0.12c0.233-0.033 0.4 0 0.4 0s0.48-0.12 0.647-0.12c0.167 0 0.7 0.133 0.753 0.24 0.047 0.093 0.227 0.76 0.347 0.747 0.12-0.007-0.287 0.16-0.4-0.007-0.107-0.167-0.073 0.22-0.073 0.22s0.333 0.353 0.373 0.433c0.040 0.080-0.207 0.72-0.020 1.167-0.167 0.013-0.18 0.187-0.18 0.187-0.007 0.2-0.253 0.247-0.253 0.247l-0.067-0.267-0.16 0.1 0.067-0.207s0.227-0.553 0.247-0.733c0.020-0.18-0.207-0.493-0.387-0.493s-0.307 0.567-0.307 0.567-0.087 0.42-0.060 0.467l-0.12-0.14s-0.073 0.253-0.133 0.333c-0.067 0.080-0.193 0.107-0.193 0.107s-0.087-0.253-0.053-0.353c0.027-0.1 0.48-0.487 0.44-0.76-0.040-0.28 0-0.213-0.007-0.22-0.013-0.013-0.24-0.207-0.247-0.32-0.013-0.107-0.3 0.14-0.673 0.067-0.113 0.2-0.133 0.7-0.133 0.7s-0.033 0.6 0.040 0.667c0.080 0.073-0.2 0.22-0.2 0.22l-0.193 0.267-0.067-0.153-0.14 0.1 0.080-0.2c-0.007-0.153 0.193-0.56 0.193-0.907s0.020-0.72 0.020-0.72-0.36-0.020-0.353 0.36c0.007 0.373-0.087 0.4-0.067 0.5 0.020 0.113 0.113 0.42 0.087 0.507-0.027 0.093-0.147 0.12-0.147 0.12l-0.033 0.047s-0.367 0.173-0.353 0.24l-0.013-0.2-0.020-0.287s0.22-0.133 0.22-0.48-0.047-0.4-0.040-0.48c0.007-0.080 0.060-0.367 0.047-0.4-0.007-0.027-0.2 0.087-0.267 0.087-0.060 0 0.113-0.207 0.133-0.36 0.020-0.147-0.2 0.14-0.38-0.027 0.087-0.18 0.207-0.24 0.227-0.373 0.020-0.14-0.133 0.113-0.273 0.013 0.013-0.133 0.147-0.247 0.147-0.247s-0.113-0.013-0.16 0c-0.087-0.027 0.1-0.167 0.113-0.367 0.007-0.2-0.113-0.273-0.113-0.287 0-0.007-0.2-0.173-0.227-0.247-0.027-0.067-0.027-0.147-0.027-0.147s-0.333 0.24-0.713-0.267c0.353-0.3 0.733-0.080 0.733-0.080s0.1-0.28 0.553-0.26c0.453 0.020 0.547 0.28 0.527 0.253z"></path>
<path fill="#00f" d="M33.493 10.28c0.007 0 0.84 0.027 0.847 0.473 0.013 0.447-0.253 0.333-0.267 0.333l-0.6-0.080z"></path>
<path fill="#fffeff" d="M32.687 10.16s1.040-0.007 0.98 0.447c-0.060 0.453-0.32 0.36-0.32 0.36l-0.507-0.040z"></path>
<path fill="#00f" d="M32.1 10.113l0.6 0.047s0.367 0.047 0.347 0.4c-0.013 0.34-0.367 0.347-0.367 0.347l-0.587-0.033z"></path>
<path fill="#fff" d="M30.693 10.28c-0.013 0-0.84 0.027-0.853 0.473 0 0.447 0.26 0.333 0.267 0.333l0.607-0.080z"></path>
<path fill="#00f" d="M31.5 10.16s-1.040-0.007-0.98 0.447c0.053 0.453 0.32 0.36 0.32 0.36l0.5-0.040z"></path>
<path fill="#fff" d="M32.087 10.113l-0.6 0.047s-0.367 0.047-0.353 0.4c0.020 0.34 0.373 0.347 0.373 0.347l0.587-0.033z"></path>
<path fill="#5e0043" d="M33.693 15.113s0.433-0.633 0.62-0.567c0.16 0.053 0.033 0.547-0.040 0.593z"></path>
<path fill="#5e0043" d="M30.733 15.227c-0.14-0.187-0.333-0.713-0.52-0.567-0.16 0.053-0.040 0.547 0.040 0.593z"></path>
<path fill="#5e0043" d="M31.1 11.933l0.16-0.2 0.807 0.4 0.827-0.367 0.16 0.173-0.92 0.647z"></path>
<path fill="#474747" d="M30.453 11.92c0.303 0.348 0.539 0.765 0.68 1.223l0.006 0.024c0.093 0.527-0.053-0.727-0.053-0.727s0.647 0.32 0.667 0.52c0.020 0.2 0.307-0.013 0.32-0.047l-1.867-1.213z"></path>
<path fill="#474747" d="M33.653 11.887s-0.68 0.893-0.6 1.867c-0.14-0.467-0.027-1.233-0.027-1.233l-0.147 0.093s-0.16 0.66-0.353 0.76c-0.033-0.080-0.027-0.107-0.027-0.107s-0.207 0.267-0.247 0.293c-0.040 0.027 0.013 0.913 0.013 0.913s0.067 0.64 0.147 0.633c-0.082 0.042-0.148 0.080-0.211 0.12l0.011-0.007-0.087-1.707 0.193-0.193s0.253-0.313 0.273-0.613c-0.107 0.093-0.233 0.12-0.233 0.12s-0.033 0.433-0.133 0.493c-0.107 0.067-0.107 0.173-0.107 0.173l-0.027-0.567z"></path>
<path fill="#b4b6b9" d="M30.013 11.567l2.080 1.36 1.88-1.26s0.387-0.213 0.353-0.367c-0.033-0.16-0.167-0.1-0.233-0.067-0.067 0.020-1.967 1.367-1.967 1.367l-2.013-1.28s-0.147-0.047-0.173 0.053c-0.027 0.093 0.053 0.147 0.073 0.193z"></path>
<path fill="#474747" d="M33.733 11.213s-0.533-0.227-0.533-0.033c0 0.2 0.020 0.22 0.107 0.347 0.087 0.12-0.067 0.2-0.067 0.2l-0.053-0.133c-0.027-0.087-0.313-0.147-0.333-0.253-0.033-0.1 0.053-0.26-0.113-0.28-0.173-0.020-0.34 0.067-0.373 0.267-0.077 0.254-0.165 0.47-0.271 0.676l0.011-0.023 0.033-1.040c0.373 0.027 1.067 0.107 1.607 0.173-0.16-0.027 0.067 0.007 0.053 0.067-0.013 0.040-0.067 0.047-0.067 0.033z"></path>
<path fill="#474747" d="M31.853 10.953c-0.251 0.010-0.488 0.055-0.711 0.132l0.017-0.005c-0.12 0.067 0.2 0.18 0.153 0.267-0.040 0.1-0.047 0.293-0.2 0.253-0.147-0.040-0.653-0.293-0.667-0.38-0.020-0.080-0.12-0.087-0.12-0.087s1.453-0.2 1.527-0.18z"></path>
<path fill="#000" d="M32.173 9.3s0.253 0.347 0.227 0.447c0.1 0.080 0.22 0.4 0.22 0.4"></path>
<path fill="#000" d="M30.34 5.56c-0.013 0.040-0.080 0.060-0.153 0.040-0.073-0.027-0.127-0.080-0.113-0.12 0.013-0.047 0.087-0.067 0.16-0.040 0.067 0.020 0.12 0.073 0.107 0.12z"></path>
<path fill="#000" d="M30.567 5.547c0.013 0.040 0.080 0.060 0.153 0.033 0.073-0.020 0.127-0.073 0.113-0.12-0.013-0.040-0.087-0.060-0.16-0.033-0.067 0.020-0.12 0.073-0.107 0.12z"></path>
<path fill="#ff7000" d="M37 21.6s-0.213 0.033-0.2 0.053c0 0.020-0.6 0.040-0.607 0.020-0.013-0.020-0.093 0.1-0.093 0.1l0.1-0.060s0.147 0.153 0.187 0.14c0.047-0.007-0.020 0.067 0 0.073 0.007 0.013 0.053-0.027 0.053-0.027l0.987-0.013z"></path>
<path fill="#ff7000" d="M37.36 21.9l-0.8 0.027s-0.207 0.187-0.22 0.227c-0.013 0.047 0.133 0.060 0.133 0.060l0.040 0.153 0.107-0.040s0.687 0.1 1.313-0.040c0.32-0.107 0.38-0.24 0.153-0.327-0.22-0.080-0.72-0.053-0.727-0.060z"></path>
<path fill="#000" d="M34.6 23.56l1.447-0.067-0.267-0.227 3.933-0.16-0.133-0.313-4.407 0.18 0.533 0.247-1.2 0.033 0.040 0.127-0.313-0.013s0.353 0.133 0.36 0.2z"></path>
<path fill="#000" d="M36.227 15.527c-0.113-0.060-0.627-0.133-1.193 0.24l0.027 1.307s0.833-0.447 1.233-0.347c-0.020-0.4-0.020-0.92-0.067-1.2z"></path>
<path fill="#8a9396" d="M28.013 14.253s-0.107 0.333 0 0.5 0.767 1.5 0.767 1.5 0.453-0.553 0.62-0.567c0.16-0.020 0.087 1.44 0.087 1.44s-0.267 0.253-0.433 0.24c-0.167-0.013 0.4 0.573 0.387 1.067-0.013 0.5-0.747 2.967-1.020 3.007-0.267 0.047 0.12-0.447 0.107-0.587-0.020-0.133-0.093-0.040-0.153-0.193-0.060-0.147 0.093-0.373 0.067-0.527-0.033-0.147-0.173-0.12-0.187-0.227s0.093-0.133 0.073-0.253c-0.013-0.12-0.18-0.093-0.16-0.2 0.013-0.1 0.027-0.053 0.013-0.253-0.013-0.193-0.047 0.133-0.213 0.153-0.167 0.013-0.3 0.393-0.3 0.393s-0.333 0.467-0.66 0.253c0.2 0.42 0.047 0.6-0.033 0.613-0.067 0.020 0.067 0.333-0.12 0.347-0.18 0.013 0.133 0.707-0.067 0.767 0.22 0.107 0.040 0.24 0.040 0.24s-0.52 0.047-0.407 0.727c-1.533-0.547-2.287-1.473-2.267-2.427 0.013-0.947 0.313-1.8 1.047-2.113 0.213-0.787 0.573-1.627 0.573-1.627s-0.060-0.347-0.013-0.573c0.052-0.174 0.14-0.323 0.254-0.447l-0.001 0.001s-0.027-0.547-0.013-0.813 0.12-0.393 0.133-0.54c0.013-0.153-0.047-0.92 0.107-1.053 0.147-0.133 0.433-0.12 0.587-0.213 0.147-0.087 0.347-0.253 0.54-0.24 0.2 0.013 0.36 0.153 0.36 0.153s0.733 0 0.78 0.28c0.047 0.287-0.147 0.4-0.147 0.4s0.107 0.4-0.347 0.773z"></path>
<path fill="#cecfcf" d="M27.36 13.213c0.020 0.047-0.033 0.12-0.12 0.167-0.093 0.047-0.18 0.053-0.2 0.013-0.027-0.047 0.027-0.12 0.113-0.167 0.093-0.053 0.18-0.053 0.2-0.013z"></path>
<path fill="#000" d="M27.233 13.293c0 0.027-0.027 0.047-0.053 0.047-0.033 0-0.060-0.020-0.060-0.047 0-0.033 0.027-0.053 0.060-0.053 0.027 0 0.053 0.020 0.053 0.053z"></path>
<path fill="#2b2b2b" d="M28.793 16.293s0.493-0.62 0.607-0.6c0.113 0.027 0.080 1.44 0.080 1.44s-0.367 0.273-0.447 0.267c-0.080-0.013 0.413 0.667 0.4 0.913-0.007 0.253-0.020 0.253-0.020 0.253s0-0.147-0.113-0.387c-0.12-0.247-0.047-0.52-0.8-1.133-0.18-0.373 0.373 0.233 0.487 0.14 0.113-0.087-0.2-0.88-0.2-0.893z"></path>
<path fill="#2b2b2b" d="M26.733 13.527s-0.313 0.307-0.16 0.347c0.153 0.040 0.313-0.247 0.313-0.247s0 0.487 0.133 0.407c0.133-0.073 0.513-0.347 0.513-0.347s0.133-0.013 0.167 0c0.027 0.007 0.353 0.293 0.573 0.187-0.127 0.32-0.267 0.36-0.267 0.36s-0.227 0.293-0.52 0.227c-0.293-0.067-0.367-0.187-0.367-0.187s-0.247 0.013-0.32-0.1l-0.107-0.173s-0.133 0.133-0.18 0.067c-0.033-0.067 0-0.447 0.22-0.54z"></path>
<path fill="#000" d="M28.587 13.073c0 0.067-0.047 0.127-0.107 0.127-0.067 0-0.107-0.060-0.107-0.127s0.047-0.12 0.107-0.12c0.060 0 0.107 0.053 0.107 0.12z"></path>
<path fill="#2b2b2b" d="M26.913 14.547s0.233 0.36 0.513 0.46-0.2 0.18-0.473 0c-0.2-0.28-0.147-0.48-0.147-0.48s0.053-0.053 0.107 0.020z"></path>
<path fill="#2b2b2b" d="M28.92 16.673s-0.66-0.913-0.847-0.967c-0.193-0.047 0.147-0.087 0.347 0.107 0.2 0.2-0.053-0.313-0.053-0.313z"></path>
<path fill="#2b2b2b" d="M26.847 21.973c0.253-0.067 1.36 0.633 1.6 0.807 0.253 0.18 0.773 0.067 0.773 0.067s-0.24 0.147-0.387 0.18c-0.153 0.033 0.44 0.033 0.44 0.033s-1.407 0.393-2.84-0.36c-0.133-0.587 0.307-0.72 0.413-0.727z"></path>
<path fill="#2b2b2b" d="M28.467 16.9s-0.193-0.033-0.287-0.14c-0.093-0.113-0.227-0.38-0.367-0.493-0.14-0.107-0.84-0.493-1.093-0.467s-0.333-0.027-0.367-0.060c-0.027-0.033-0.133 0.013-0.113 0.147s-0.2 0.42-0.12 0.553c0.155 0.267 0.325 0.499 0.517 0.71l-0.003-0.004c0.067 0.020 0.027 0.32 0.027 0.32s0.32 0.327 0.4 0.34c0.080 0.020 0.167 0.080 0.153 0.16-0.007 0.073-0.353 0.493-0.353 0.493s-0.367 0.2-0.373 0.3c0 0.113 0.093 0.333 0.387 0.407 0.13 0.022 0.28 0.034 0.433 0.034 0.244 0 0.481-0.032 0.706-0.092l-0.019 0.004c0.040-0.067 0.107-0.467 0.080-0.513-0.027-0.040-0.22-0.16-0.32-0.147-0.1 0.020-0.193 0.1-0.18 0.12 0.007 0.020-0.14 0.093-0.14 0.020 0-0.067 0.293-0.4 0.32-0.367 0.027 0.027 0.44 0.067 0.52 0.273 0.073 0.207 0.073 0.36 0.293 0.333 0.213-0.020 0.52-0.22 0.547-0.633 0.002-0.019 0.002-0.042 0.002-0.064 0-0.269-0.122-0.509-0.314-0.668l-0.001-0.001c-0.067-0.047-0.293-0.18-0.313-0.247-0.013-0.067-0.067-0.267-0.027-0.32z"></path>
<path fill="#2b2b2b" d="M24.553 18.733s0.7-0.18 0.88-0.173c0.18 0 0.867 0.32 1.067 0.513 0.2 0.2 0.6 0.653 0.867 0.613s0.347-0.093 0.347-0.093l-0.107 0.2s-0.213 0.060-0.327 0.033c-0.107-0.027-0.32-0.1-0.533-0.307-0.207-0.2-0.867-0.767-1.42-0.727s-0.873 0.587-0.873 0.587 0-0.267 0.027-0.327c0.020-0.053-0.12 0.133-0.12 0.133z"></path>
<path fill="#2b2b2b" d="M27.133 19.28s0.173 0.047 0.467 0.047c0.287 0 0.44-0.127 0.44-0.127l-0.020-0.113 0.047-0.153s0.22 0.22 0.22 0.267c0 0.047-0.093 0.067-0.093 0.067l-0.033-0.113-0.073 0.1s-0.42 0.333-0.653 0.28c-0.227-0.047-0.44-0.2-0.38-0.233s0.087-0.020 0.080-0.020z"></path>
<path fill="#2b2b2b" d="M26.113 19.867s-0.253 0-0.367 0.053c-0.113 0.053-0.153 0.12-0.233 0.113-0.073-0.013-0.133-0.107-0.113-0.147 0.033-0.067 0.187-0.147 0.467-0.127 0.287 0.027 0.247 0.107 0.247 0.107z"></path>
<path fill="#2b2b2b" d="M27 20.553c0-0.013-0.020-0.367-0.16-0.513-0.078-0.082-0.188-0.134-0.31-0.134-0.027 0-0.054 0.003-0.079 0.007l0.003-0c-0.080 0.020 0.28 0.18 0.32 0.28 0.033 0.107 0.153 0.4 0.12 0.467s-0.087-0.2-0.313-0.28c-0.22-0.080-0.527-0.033-0.467 0.067 0.067 0.093 0.313 0 0.44 0.22 0.071 0.119 0.145 0.261 0.21 0.408l0.010 0.026 0.047-0.153 0.107-0.027 0.020-0.293z"></path>
<path fill="#2b2b2b" d="M26.82 21.713l-0.233-0.467s-0.067-0.287-0.267-0.367c-0.2-0.087-0.453-0.067-0.453 0.027-0.007 0.1 0.413 0.227 0.44 0.28s0.013 0.147-0.020 0.153c-0.040 0-0.227-0.067-0.32-0.047s-0.147 0.147-0.287 0.107c-0.14-0.033-0.26-0.48-0.2-0.533 0.047-0.040-0.107 0.087-0.14-0.033-0.033-0.113 0.047-0.48-0.007-0.527s-0.32-0.2-0.32-0.233c-0.007-0.033 0.013-1.8 1.487-0.333-0.633-0.753-0.88-0.667-1-0.673-0.080 0-0.66 0.047-0.8 0.78-0.147 0.733-0.32 0.273-0.32 0.273s-0.027 0.32 0.127 0.407c0.153 0.093-0.073 0.353-0.073 0.353s-0.28-0.667-0.233-0.967c-0.060 0.233-0.053 0.82 0.293 1.453 0.488 0.551 1.095 0.984 1.781 1.262l0.032 0.011c0.533-0.82 0.513-0.92 0.513-0.933z"></path>
<path fill="#8a9396" d="M25.853 21.72s0.293 0.033 0.373 0.187c0.087 0.153 0.12 0.387 0.12 0.387 0.053-0.1 0.067-0.18 0.173-0.253 0.1-0.073 0.173-0.087 0.167-0.133 0-0.060-0.32-0.387-0.473-0.407-0.16-0.020-0.433 0.173-0.433 0.173s-0.053 0.067 0.067 0.047z"></path>
<path fill="#000" d="M26.753 27.353l0.133-0.147 0.040 0.033-0.007 0.013-0.013 0.020v0.013l0.013 0.013 0.173 0.153 0.013 0.013h0.013l0.007-0.013q0.027-0.027 0.033-0.053 0.013-0.027 0.007-0.053 0-0.033-0.027-0.067l0.053-0.027 0.080 0.133-0.213 0.24-0.040-0.033 0.013-0.020 0.007-0.013v-0.013l-0.013-0.013-0.173-0.153-0.020-0.013h-0.007l-0.020 0.013-0.013 0.013-0.040-0.040z"></path>
<path fill="#000" d="M27.047 27.027l0.247-0.24 0.12 0.060-0.020 0.047-0.067-0.013-0.040 0.013q-0.020 0.007-0.040 0.033l-0.047 0.040 0.067 0.073 0.020-0.013q0.020-0.013 0.020-0.027v-0.013l-0.013-0.020-0.013-0.013 0.040-0.040 0.12 0.127-0.040 0.033-0.013-0.007-0.020-0.020h-0.013l-0.027 0.020-0.013 0.013 0.080 0.080h0.007l0.013-0.013 0.027-0.020 0.040-0.053q0.013-0.027 0.007-0.067 0-0.027-0.020-0.060l0.053-0.027 0.067 0.153-0.253 0.247-0.040-0.040h0.013l0.013-0.027v-0.013l-0.013-0.020-0.16-0.16-0.020-0.013h-0.013l-0.013 0.007-0.013 0.013-0.040-0.040z"></path>
<path fill="#000" d="M27.56 26.533q0.080-0.067 0.16-0.060 0.087 0.007 0.147 0.080 0.040 0.047 0.053 0.1 0.013 0.060-0.007 0.107-0.020 0.053-0.073 0.1-0.067 0.060-0.147 0.060-0.093 0-0.16-0.080-0.067-0.067-0.053-0.153 0.007-0.087 0.080-0.153zM27.607 26.58q-0.033 0.033-0.033 0.080 0 0.053 0.047 0.107t0.1 0.067q0.040 0 0.073-0.027 0.040-0.027 0.040-0.067 0-0.060-0.053-0.113-0.027-0.033-0.067-0.053-0.027-0.013-0.060-0.013-0.027 0-0.047 0.020z"></path>
<path fill="#000" d="M28.013 26.167l0.033-0.020 0.007 0.007 0.193-0.133v-0.013l0.027-0.020 0.127 0.087-0.033 0.047-0.047-0.020q-0.027-0.013-0.053-0.007l-0.027 0.007-0.007 0.007v0.013l0.14 0.2 0.013 0.020h0.020l0.033-0.020 0.027 0.047-0.16 0.12-0.033-0.047 0.027-0.027v-0.013l-0.007-0.020-0.14-0.2-0.013-0.013-0.007 0.007q-0.013 0.007-0.020 0.027-0.013 0.020-0.013 0.047l0.007 0.053-0.053 0.013-0.040-0.147z"></path>
<path fill="#000" d="M28.387 25.933l0.293-0.187 0.113 0.087-0.040 0.047-0.053-0.027h-0.047q-0.020 0-0.047 0.020l-0.053 0.033 0.053 0.087 0.013-0.013 0.027-0.013v-0.020l-0.007-0.027-0.007-0.013 0.047-0.027 0.087 0.153-0.047 0.027-0.007-0.020-0.020-0.020h-0.013l-0.027 0.013-0.020 0.007 0.053 0.087 0.007 0.013h0.007l0.020-0.007 0.080-0.060 0.020-0.060v-0.067l0.053-0.013 0.033 0.16-0.307 0.187-0.027-0.047 0.027-0.027q0.007 0 0-0.013v-0.020l-0.12-0.193-0.020-0.020h-0.007l-0.020 0.007-0.013 0.007-0.033-0.047z"></path>
<path fill="#000" d="M28.8 25.68l0.233-0.12 0.047-0.020q0.027-0.013 0.060-0.007 0.027 0 0.047 0.013l0.033 0.040q0.027 0.047 0.007 0.087-0.013 0.040-0.053 0.067l0.12 0.053h0.007l0.020 0.007h0.020l0.013-0.007 0.020-0.007 0.020 0.047-0.113 0.067-0.2-0.1-0.033 0.013 0.040 0.073 0.013 0.027h0.033l0.013-0.013 0.027 0.053-0.18 0.093-0.027-0.053 0.020-0.007 0.013-0.013 0.007-0.013-0.007-0.020-0.107-0.207-0.013-0.013q0-0.007-0.013 0h-0.020l-0.013 0.007-0.027-0.047zM28.973 25.667l0.047 0.093 0.053-0.027q0.033-0.013 0.047-0.033l0.013-0.027v-0.033l-0.027-0.020h-0.027l-0.047 0.013-0.067 0.033z"></path>
<path fill="#000" d="M29.267 25.44l0.24-0.107 0.047-0.013h0.060q0.027 0 0.047 0.013l0.033 0.047q0.020 0.040 0 0.080t-0.060 0.067l0.12 0.060 0.027 0.007h0.033l0.013-0.013 0.027 0.053-0.12 0.053-0.2-0.107-0.027 0.013 0.033 0.073 0.013 0.027h0.027l0.020-0.007 0.020 0.047-0.18 0.087-0.027-0.053 0.020-0.007 0.013-0.013 0.007-0.013-0.007-0.020-0.093-0.213q0-0.013-0.013-0.020h-0.033l-0.013 0.013-0.020-0.053zM29.44 25.44l0.040 0.1 0.060-0.027 0.047-0.027q0.013-0.013 0.013-0.033v-0.027l-0.020-0.027h-0.033l-0.047 0.013-0.067 0.027z"></path>
<path fill="#000" d="M29.893 25.18l0.087-0.033 0.227 0.26 0.027 0.020h0.033l0.013 0.053-0.18 0.067-0.020-0.053 0.013-0.007q0.013 0 0.020-0.013v-0.013l-0.013-0.013-0.027-0.033-0.113 0.040v0.067l0.020 0.007 0.027-0.007 0.020 0.053-0.153 0.053-0.020-0.053q0.013 0 0.020-0.013l0.007-0.007v-0.027l0.013-0.347zM29.96 25.393l0.073-0.027-0.073-0.093v0.12z"></path>
<path fill="#000" d="M30.213 25.067l0.18-0.053 0.14 0.22v-0.267l0.187-0.047 0.013 0.053-0.020 0.007q-0.013 0-0.020 0.013v0.027l0.067 0.227 0.007 0.013 0.013 0.007h0.040l0.013 0.047-0.193 0.060-0.013-0.060h0.013q0.020 0 0.020-0.013l0.007-0.007v-0.020l-0.067-0.247-0.007 0.36-0.053 0.013-0.187-0.293 0.067 0.247 0.007 0.007 0.013 0.007h0.020l0.020-0.007 0.013 0.053-0.16 0.047-0.020-0.053h0.020l0.020-0.013v-0.033l-0.067-0.22v-0.020l-0.013-0.007h-0.040l-0.020-0.047z"></path>
<path fill="#000" d="M31.040 24.847l0.213-0.040h0.067q0.033 0 0.053 0.013 0.027 0.013 0.040 0.033l0.020 0.047q0.007 0.053-0.027 0.093-0.033 0.047-0.1 0.060l-0.067 0.013 0.013 0.073v0.020h0.053l0.007 0.053-0.2 0.040v-0.053h0.007l0.027-0.013v-0.033l-0.040-0.22v-0.027l-0.013-0.007h-0.040l-0.013-0.053zM31.2 24.887l0.027 0.113h0.033l0.047-0.020 0.020-0.027v-0.033q0-0.027-0.027-0.040-0.020-0.007-0.053 0h-0.047z"></path>
<path fill="#000" d="M31.48 24.767l0.253-0.033h0.053l0.053 0.013q0.027 0.013 0.040 0.033 0.020 0.020 0.020 0.047 0.007 0.047-0.020 0.080-0.033 0.033-0.073 0.053l0.093 0.087 0.020 0.013 0.013 0.007h0.040v0.053l-0.127 0.020-0.153-0.16h-0.033l0.013 0.080v0.027l0.013 0.013h0.040v0.053l-0.2 0.027v-0.060h0.013l0.020-0.007 0.013-0.013v-0.020l-0.033-0.233v-0.020h-0.053l-0.007-0.060zM31.64 24.813l0.013 0.107h0.067l0.047-0.020 0.027-0.020v-0.033l-0.007-0.027-0.027-0.013h-0.053l-0.067 0.007z"></path>
<path fill="#000" d="M32.227 24.687q0.093-0.007 0.16 0.047 0.067 0.060 0.067 0.153 0 0.067-0.020 0.113-0.027 0.047-0.067 0.080-0.053 0.027-0.12 0.033-0.093 0-0.153-0.040-0.073-0.060-0.080-0.16 0-0.093 0.053-0.16 0.060-0.067 0.16-0.067zM32.227 24.753q-0.047 0-0.067 0.040-0.040 0.040-0.033 0.113 0 0.067 0.040 0.107 0.027 0.033 0.073 0.033t0.073-0.040q0.033-0.040 0.027-0.113 0-0.047-0.020-0.080-0.013-0.033-0.040-0.047-0.027-0.020-0.053-0.013z"></path>
<path fill="#000" d="M32.533 24.68h0.227l0.067 0.007 0.047 0.027 0.027 0.040 0.013 0.053q0 0.053-0.040 0.087t-0.113 0.033h-0.067v0.1l0.027 0.007h0.020v0.060h-0.2v-0.060h0.033l0.007-0.007v-0.027l0.007-0.227v-0.027l-0.007-0.007h-0.040v-0.067zM32.687 24.747v0.12h0.040l0.047-0.007 0.020-0.020q0.013-0.013 0.013-0.033 0-0.033-0.020-0.047t-0.053-0.013h-0.047z"></path>
<path fill="#000" d="M32.987 24.68l0.253 0.020 0.053 0.007 0.053 0.027q0.020 0.013 0.033 0.040l0.007 0.053q0 0.047-0.040 0.067-0.033 0.033-0.080 0.040l0.080 0.1v0.007l0.013 0.020h0.013l0.020 0.007h0.020v0.060l-0.133-0.007-0.127-0.187h-0.033v0.107h0.040v0.067l-0.2-0.020v-0.053h0.040l0.013-0.013v-0.020l0.013-0.233v-0.020l-0.020-0.013h-0.027v-0.060zM33.133 24.76l-0.007 0.107h0.060q0.033 0.007 0.053 0 0.020 0 0.027-0.013 0.013-0.013 0.013-0.033v-0.027l-0.027-0.020-0.053-0.007h-0.067z"></path>
<path fill="#000" d="M33.493 24.72l0.2 0.027v0.060h-0.020q-0.020-0.007-0.027 0l-0.013 0.027-0.027 0.227v0.027h0.007l0.020 0.013h0.020l-0.007 0.060-0.2-0.027 0.007-0.060h0.013q0.020 0.007 0.027 0h0.007l0.007-0.020 0.027-0.233v-0.033h-0.027l-0.020-0.007 0.007-0.060z"></path>
<path fill="#000" d="M33.927 24.78l0.093 0.020 0.067 0.333q0 0.027 0.013 0.033l0.027 0.013-0.013 0.053-0.193-0.033 0.013-0.053h0.033l0.007-0.007v-0.067l-0.133-0.020-0.020 0.040v0.013q-0.007 0.007 0 0.013h0.007l0.027 0.013-0.007 0.053-0.16-0.027 0.007-0.053h0.027l0.013-0.007 0.013-0.020 0.18-0.3zM33.873 25l0.087 0.013-0.020-0.12-0.067 0.107z"></path>
<path fill="#000" d="M34.267 24.84l0.18 0.047 0.013 0.267 0.133-0.227 0.18 0.047-0.013 0.053h-0.020q-0.013-0.013-0.020 0-0.013 0-0.013 0.020l-0.060 0.227v0.027l0.040 0.013-0.013 0.060-0.193-0.053 0.013-0.053h0.020l0.020 0.007h0.013v-0.027l0.067-0.247-0.18 0.313-0.053-0.020-0.020-0.34-0.060 0.24v0.013l0.007 0.013h0.020l0.020 0.007-0.013 0.060-0.167-0.040 0.013-0.060h0.020l0.020 0.007h0.007l0.013-0.027 0.053-0.227v-0.027l-0.040-0.013 0.013-0.060z"></path>
<path fill="#000" d="M35.1 25.073l0.2 0.073 0.067 0.033 0.033 0.040 0.013 0.047-0.007 0.053q-0.020 0.047-0.067 0.067-0.053 0.020-0.12 0l-0.067-0.027-0.027 0.067v0.033l0.020 0.013h0.020l-0.020 0.060-0.193-0.067 0.020-0.060h0.013l0.027 0.013h0.007l0.013-0.027 0.080-0.213v-0.033l-0.020-0.013h-0.013l0.020-0.060zM35.213 25.187l-0.040 0.113 0.033 0.013 0.047 0.007 0.033-0.007 0.020-0.033q0.007-0.027-0.007-0.047t-0.040-0.027l-0.047-0.020z"></path>
<path fill="#000" d="M35.52 25.227l0.233 0.107 0.047 0.027q0.027 0.013 0.040 0.040l0.020 0.047-0.013 0.053q-0.020 0.047-0.060 0.060h-0.087l0.033 0.127 0.013 0.020 0.007 0.013 0.020 0.013h0.013l-0.020 0.060-0.12-0.053-0.053-0.22-0.033-0.013-0.033 0.073v0.040l0.013 0.007 0.020 0.013-0.027 0.047-0.18-0.080 0.020-0.053 0.040 0.013h0.013l0.007-0.020 0.093-0.213 0.007-0.020v-0.013l-0.013-0.007h-0.013l-0.013-0.007 0.027-0.060zM35.633 25.353l-0.047 0.1 0.060 0.020q0.027 0.020 0.047 0.020l0.033-0.007q0.013-0.007 0.020-0.027 0.007-0.013 0-0.027l-0.007-0.027-0.047-0.027-0.067-0.027z"></path>
<path fill="#000" d="M36.2 25.547q0.087 0.047 0.113 0.127t-0.020 0.167q-0.027 0.053-0.073 0.080-0.047 0.033-0.107 0.033-0.053 0-0.113-0.033-0.080-0.040-0.113-0.113-0.033-0.087 0.020-0.173 0.040-0.087 0.127-0.113 0.080-0.020 0.167 0.027zM36.173 25.607q-0.040-0.027-0.087-0.007t-0.080 0.087q-0.033 0.060-0.027 0.113 0.007 0.040 0.053 0.067 0.040 0.020 0.080 0 0.047-0.020 0.080-0.080 0.027-0.047 0.027-0.080 0-0.040-0.013-0.067l-0.033-0.033z"></path>
<path fill="#000" d="M36.507 25.707l0.033 0.020v0.013l0.2 0.127 0.007-0.007 0.033 0.020-0.033 0.147-0.053-0.013v-0.053q0-0.027-0.013-0.047l-0.020-0.027h-0.013l-0.007 0.013-0.127 0.2-0.013 0.027v0.007l0.007 0.007 0.027 0.020-0.027 0.047-0.173-0.107 0.033-0.047 0.007 0.007 0.027 0.013h0.007l0.020-0.027 0.133-0.2v-0.020h-0.007q-0.013-0.013-0.040-0.013l-0.040 0.007-0.047 0.027-0.040-0.040 0.12-0.1z"></path>
<path fill="#000" d="M36.88 25.96l0.28 0.2-0.040 0.133-0.053-0.013v-0.067l-0.013-0.040q-0.013-0.020-0.040-0.033l-0.047-0.040-0.067 0.087 0.020 0.013 0.027 0.013h0.020l0.013-0.027 0.013-0.013 0.040 0.033-0.1 0.14-0.040-0.027 0.020-0.040v-0.013l-0.027-0.027-0.020-0.007-0.053 0.073-0.007 0.020 0.013 0.020 0.027 0.020 0.067 0.027q0.027 0.007 0.053 0 0.033-0.007 0.067-0.033l0.027 0.047-0.133 0.093-0.287-0.2 0.033-0.053 0.007 0.007 0.027 0.013h0.013l0.013-0.020 0.133-0.187 0.013-0.020v-0.007l-0.020-0.020-0.013-0.007 0.033-0.047z"></path>
<path fill="#000" d="M37.34 26.547l0.153 0.133-0.033 0.040-0.013-0.007-0.013-0.013h-0.013l-0.020 0.020-0.080 0.1-0.047-0.040 0.007-0.033-0.067-0.013-0.047-0.033q-0.047-0.040-0.067-0.087-0.013-0.053 0-0.107 0-0.053 0.040-0.107 0.040-0.047 0.093-0.067t0.107-0.007q0.053 0.007 0.1 0.040l0.033 0.040 0.027 0.047 0.020-0.007 0.033 0.027-0.060 0.133-0.053-0.027v-0.073l-0.007-0.047-0.027-0.033-0.053-0.020-0.060 0.013q-0.027 0.013-0.060 0.053l-0.040 0.067v0.073q0.007 0.027 0.033 0.047l0.033 0.020h0.033l0.027-0.013 0.007-0.013 0.013-0.020v-0.007l-0.033-0.033 0.033-0.047z"></path>
<path fill="#000" d="M37.787 26.68l0.067 0.067-0.127 0.32q-0.013 0.020-0.007 0.033l0.013 0.020-0.040 0.047-0.133-0.133 0.033-0.047 0.007 0.013 0.020 0.007h0.013l0.013-0.020 0.013-0.033-0.093-0.087-0.053 0.027v0.020l0.020 0.020-0.040 0.040-0.113-0.107 0.040-0.040 0.013 0.013h0.013l0.027-0.007 0.313-0.153zM37.627 26.833l0.060 0.060 0.047-0.113-0.107 0.053z"></path>
<path fill="#000" d="M38.060 26.927l0.027 0.027-0.007 0.013 0.16 0.167h0.013l0.027 0.020-0.067 0.133-0.053-0.020 0.013-0.053v-0.047q0-0.020-0.013-0.033h-0.013l-0.013 0.007-0.187 0.187v0.013l0.020 0.027-0.040 0.040-0.133-0.147 0.040-0.040v0.013l0.027 0.013h0.013l0.020-0.013 0.173-0.167 0.007-0.013v-0.007l-0.033-0.020h-0.047l-0.053 0.013-0.020-0.053 0.133-0.067z"></path>
<path fill="#012169" d="M0 0h21.333v16h-21.333z"></path>
<path fill="#fff" d="M2.5 0l8.133 6.033 8.1-6.033h2.6v2.067l-8 5.967 8 5.933v2.033h-2.667l-8-5.967-7.967 5.967h-2.7v-2l7.967-5.933-7.967-5.933v-2.133z"></path>
<path fill="#c8102e" d="M14.133 9.367l7.2 5.3v1.333l-9.033-6.633zM8 10.033l0.2 1.167-6.4 4.8h-1.8zM21.333 0v0.1l-8.3 6.267 0.067-1.467 6.567-4.9zM0 0l7.967 5.867h-2l-5.967-4.467z"></path>
<path fill="#fff" d="M8.033 0v16h5.333v-16zM0 5.333v5.333h21.333v-5.333z"></path>
<path fill="#c8102e" d="M0 6.433v3.2h21.333v-3.2zM9.1 0v16h3.2v-16z"></path>
</svg>
