<!-- Generated by IcoMoon.io -->
<svg version="1.1" xmlns="http://www.w3.org/2000/svg" width="43" height="32" viewBox="0 0 43 32">
<title>gt</title>
<path fill="#4997d0" d="M0 0h42.667v32h-42.667z"></path>
<path fill="#fff" d="M14.22 0h14.227v32h-14.227z"></path>
<path fill="#406325" d="M21.605 19.778c-0.036-0.058-0.089-0.093-0.147-0.12-0.342-0.178-0.684-0.262-1.067-0.324-0.093-0.013-0.182-0.098-0.276-0.142-0.222-0.102-0.467-0.142-0.68-0.253-0.034-0.018-0.064-0.040-0.089-0.067l-0-0c-0.089-0.098-0.244-0.129-0.338-0.222-0.373-0.347-0.764-0.667-0.969-1.133-0.249-0.564-0.556-1.147-0.516-1.791 0.027-0.4-0.031-0.813 0.067-1.2 0.151-0.573 0.338-1.138 0.684-1.613l-0.058 0.036c-0.314 0.461-0.552 1.001-0.679 1.583l-0.006 0.030c-0.102 0.387-0.044 0.8-0.067 1.2-0.044 0.644 0.267 1.227 0.511 1.791 0.204 0.462 0.6 0.787 0.969 1.138 0.098 0.089 0.249 0.12 0.338 0.222 0.026 0.025 0.055 0.047 0.087 0.066l0.002 0.001c0.218 0.107 0.462 0.147 0.684 0.253 0.089 0.044 0.178 0.124 0.267 0.138 0.4 0.052 0.763 0.166 1.095 0.333l-0.020-0.009c0.060 0.026 0.109 0.065 0.146 0.115l0.001 0.001 0.058-0.036"></path>
<path fill="#67923d" d="M18.058 17.405c-0.045-0.162-0.071-0.348-0.071-0.539 0-0.179 0.023-0.353 0.065-0.52l-0.003 0.014c0.298 0.578 0.2 1.053 0.009 1.044zM20.098 19.422c-0.316 0.018-0.916 0.413-0.973 0.507 0.671 0.004 1.067-0.324 0.973-0.507zM20.431 19.231c-0.294-0.322-0.511-0.719-0.618-1.16l-0.004-0.018c0.667 0.48 0.84 1.080 0.622 1.178z"></path>
<path fill="#67923d" d="M20.205 19.236c-0.314-0.267-0.558-0.608-0.706-0.997l-0.006-0.017c0.68 0.364 0.902 0.898 0.711 1.013zM19.511 18.933c0.044-0.347-0.249-1.076-0.333-1.156-0.133 0.733 0.133 1.227 0.338 1.156zM18.298 17.853c-0.031-0.127-0.049-0.273-0.049-0.424 0-0.181 0.026-0.357 0.074-0.523l-0.003 0.013c0.244 0.52 0.147 0.942-0.022 0.933zM17.689 14.444c0.242-0.311 0.556-0.554 0.918-0.706l0.015-0.006c-0.298 0.649-0.8 0.884-0.933 0.711z"></path>
<path fill="#67923d" d="M17.72 14.191c0.181-0.364 0.444-0.664 0.765-0.884l0.008-0.005c-0.164 0.698-0.609 1.031-0.773 0.889zM18.96 18.6c-0.222-0.276-0.356-1.062-0.324-1.173 0.498 0.556 0.533 1.12 0.32 1.173zM17.685 16.978c-0.311 0.049-0.951-0.204-1.022-0.28 0.649-0.142 1.084 0.089 1.022 0.28zM17.587 16.547c0.036-0.244 0.382-0.702 0.458-0.738-0.044 0.533-0.329 0.827-0.458 0.738zM19.867 19.156c-0.452 0.103-0.844 0.315-1.162 0.606l0.002-0.002c0.8 0.004 1.276-0.387 1.16-0.604z"></path>
<path fill="#406325" d="M18.062 17.4c0.187 0.009 0.284-0.462-0.013-1.040 0.029 0.17 0.046 0.365 0.046 0.565 0 0.168-0.012 0.333-0.035 0.494l0.002-0.019zM18.56 18.289c-0.264-0.237-0.59-0.411-0.95-0.495l-0.015-0.003c0.396 0.538 0.884 0.671 0.964 0.498zM17.476 15.933c-0.134-0.42-0.36-0.779-0.657-1.066l-0.001-0.001c0.067 0.764 0.471 1.187 0.658 1.067zM17.849 17.458c-0.222-0.164-0.844-0.24-0.933-0.209 0.453 0.364 0.898 0.373 0.933 0.209zM17.431 16.351c-0.192-0.263-0.445-0.471-0.739-0.604l-0.012-0.005c0.244 0.551 0.649 0.756 0.751 0.609zM17.551 14.24c0.044-0.338-0.244-1.040-0.324-1.12-0.129 0.711 0.129 1.187 0.324 1.12zM17.751 13.573c0.037-0.149 0.059-0.321 0.059-0.498 0-0.207-0.030-0.408-0.085-0.598l0.004 0.015c-0.284 0.6-0.169 1.093 0.022 1.084z"></path>
<path fill="#406325" d="M17.973 13.236c0.101-0.217 0.16-0.471 0.16-0.739 0-0.043-0.002-0.087-0.005-0.129l0 0.006c-0.32 0.431-0.311 0.84-0.156 0.862zM18.24 12.964c0.191-0.212 0.33-0.473 0.398-0.762l0.002-0.012c-0.431 0.311-0.542 0.702-0.4 0.773zM17.529 14.884c0 0.040-0.044-0.364-0.449-0.813 0.018 0.658 0.276 0.907 0.444 0.813zM18.973 18.698c-0.317-0.168-0.692-0.267-1.091-0.267-0.020 0-0.039 0-0.059 0.001l0.003-0c0.56 0.462 1.107 0.471 1.147 0.267zM19.507 18.929c-0.2 0.071-0.462-0.418-0.333-1.151 0.064 0.431 0.18 0.82 0.345 1.183l-0.011-0.028zM20.102 19.427c0.089 0.178-0.302 0.507-0.969 0.502 0.533-0.222 0.942-0.44 0.964-0.502zM20.427 19.227c0.222-0.102 0.049-0.689-0.622-1.173 0.382 0.587 0.644 1.093 0.622 1.173z"></path>
<path fill="#406325" d="M20.205 19.231c0.187-0.12-0.031-0.644-0.711-1.009 0.422 0.498 0.72 0.933 0.711 1.009zM18.302 17.853c0.164 0.009 0.267-0.413 0.022-0.933 0.031 0.489 0.018 0.889-0.022 0.933zM17.689 14.44c0.133 0.178 0.622-0.058 0.929-0.707-0.268 0.275-0.573 0.511-0.909 0.701l-0.020 0.010z"></path>
<path fill="#406325" d="M17.729 14.191c0.16 0.142 0.6-0.191 0.764-0.889-0.356 0.502-0.693 0.88-0.764 0.889zM18.96 18.596c0.209-0.049 0.178-0.613-0.324-1.169 0.222 0.6 0.356 1.102 0.324 1.169zM17.676 16.978c0.062-0.191-0.369-0.418-1.013-0.28 0.547 0.098 0.978 0.222 1.013 0.28zM17.587 16.547c0.133 0.089 0.413-0.204 0.462-0.738-0.125 0.282-0.279 0.525-0.462 0.742l0.004-0.005zM19.867 19.156c0.116 0.222-0.356 0.609-1.156 0.6 0.631-0.258 1.124-0.52 1.156-0.6z"></path>
<path fill="#406325" d="M17.751 17.169c-0.188-0.296-0.443-0.534-0.745-0.697l-0.011-0.005c0.222 0.604 0.631 0.849 0.756 0.702z"></path>
<path fill="#67923d" d="M17.44 14.845c0.178-0.209 0.778-0.409 0.871-0.4-0.356 0.467-0.8 0.56-0.871 0.4zM18.551 18.289c-0.076 0.178-0.56 0.044-0.96-0.493 0.277 0.199 0.596 0.366 0.938 0.485l0.026 0.008zM17.471 15.933c-0.187 0.12-0.582-0.302-0.653-1.067 0.293 0.591 0.578 1.044 0.653 1.067zM17.845 17.458c-0.031 0.164-0.476 0.16-0.924-0.209 0.271 0.107 0.585 0.181 0.913 0.208l0.012 0.001zM17.427 16.347c-0.107 0.147-0.502-0.053-0.747-0.604 0.364 0.356 0.689 0.609 0.747 0.604zM17.547 14.236c-0.196 0.071-0.449-0.4-0.324-1.111 0.12 0.6 0.267 1.076 0.324 1.111zM17.747 13.573c-0.191 0.013-0.307-0.48-0.022-1.080-0.036 0.569-0.022 1.031 0.022 1.080zM17.969 13.236c-0.151-0.027-0.164-0.431 0.16-0.862-0.091 0.255-0.149 0.55-0.16 0.857l-0 0.005zM18.236 12.964c-0.138-0.076-0.031-0.462 0.4-0.773-0.162 0.222-0.298 0.478-0.394 0.753l-0.006 0.021z"></path>
<path fill="#67923d" d="M17.525 14.884c-0.173 0.093-0.427-0.156-0.444-0.813 0.222 0.52 0.382 0.791 0.444 0.813zM18.969 18.698c-0.040 0.204-0.582 0.196-1.142-0.262 0.587 0.191 1.080 0.298 1.142 0.262zM18.605 18.276c-0.161-0.242-0.267-0.533-0.293-0.847l-0-0.007c0.4 0.387 0.453 0.804 0.302 0.853zM17.858 17.165c-0.096-0.224-0.151-0.484-0.151-0.757 0-0.094 0.007-0.186 0.019-0.276l-0.001 0.010c0.369 0.529 0.324 1.009 0.133 1.022zM17.738 17.169c-0.12 0.147-0.529-0.093-0.747-0.702 0.214 0.27 0.46 0.502 0.736 0.695l0.011 0.007z"></path>
<path fill="#406325" d="M17.44 14.845c0.071 0.16 0.507 0.067 0.867-0.396-0.533 0.302-0.742 0.436-0.867 0.396zM17.853 17.156c0.191-0.013 0.236-0.489-0.133-1.013 0.085 0.277 0.135 0.594 0.135 0.924 0 0.033-0 0.066-0.001 0.099l0-0.005zM18.609 18.276c0.151-0.044 0.098-0.467-0.298-0.853 0.196 0.431 0.32 0.8 0.298 0.853z"></path>
<path fill="#406325" d="M17.52 15.636c0.014-0.085 0.022-0.183 0.022-0.283 0-0.313-0.079-0.608-0.218-0.865l0.005 0.010c-0.209 0.684-0.009 1.182 0.191 1.138z"></path>
<path fill="#67923d" d="M17.511 15.725c-0.267 0.058-0.387-0.533-0.182-1.204 0.044 0.6 0.124 1.16 0.178 1.2z"></path>
<path fill="#67923d" d="M17.453 15.72c0.042-0.414 0.186-0.788 0.405-1.106l-0.005 0.008c0.089 0.702-0.2 1.169-0.4 1.098z"></path>
<path fill="#406325" d="M17.458 15.716c0.196 0.071 0.484-0.391 0.396-1.093-0.156 0.591-0.333 1.058-0.396 1.093z"></path>
<path fill="#67923d" d="M17.516 16.147c0.066-0.405 0.233-0.763 0.474-1.057l-0.003 0.004c0.036 0.72-0.28 1.151-0.471 1.053z"></path>
<path fill="#406325" d="M17.52 16.151c0.187 0.098 0.502-0.324 0.467-1.044-0.196 0.569-0.4 1.018-0.467 1.044z"></path>
<path fill="#ba1f3e" d="M17.685 13.836c0 0.027-0.022 0.049-0.049 0.049s-0.049-0.022-0.049-0.049c0-0.027 0.022-0.049 0.049-0.049s0.049 0.022 0.049 0.049z"></path>
<path fill="#ba1f3e" d="M18.058 13.56c0 0.027-0.022 0.049-0.049 0.049s-0.049-0.022-0.049-0.049c0-0.027 0.022-0.049 0.049-0.049s0.049 0.022 0.049 0.049z"></path>
<path fill="#ba1f3e" d="M17.898 13.409c0 0.027-0.022 0.049-0.049 0.049s-0.049-0.022-0.049-0.049c0-0.027 0.022-0.049 0.049-0.049s0.049 0.022 0.049 0.049z"></path>
<path fill="#ba1f3e" d="M17.502 16.582c0 0.032-0.026 0.058-0.058 0.058s-0.058-0.026-0.058-0.058c0-0.032 0.026-0.058 0.058-0.058s0.058 0.026 0.058 0.058z"></path>
<path fill="#ba1f3e" d="M17.613 15.871c0 0.032-0.026 0.058-0.058 0.058s-0.058-0.026-0.058-0.058c0-0.032 0.026-0.058 0.058-0.058s0.058 0.026 0.058 0.058z"></path>
<path fill="#ba1f3e" d="M18.2 17.533c0 0.032-0.026 0.058-0.058 0.058s-0.058-0.026-0.058-0.058c0-0.032 0.026-0.058 0.058-0.058s0.058 0.026 0.058 0.058z"></path>
<path fill="#ba1f3e" d="M17.942 17.618c0 0.032-0.026 0.058-0.058 0.058s-0.058-0.026-0.058-0.058c0-0.032 0.026-0.058 0.058-0.058s0.058 0.026 0.058 0.058z"></path>
<path fill="#ba1f3e" d="M19.911 19.005c0 0.032-0.026 0.058-0.058 0.058s-0.058-0.026-0.058-0.058c0-0.032 0.026-0.058 0.058-0.058s0.058 0.026 0.058 0.058z"></path>
<path fill="#ba1f3e" d="M20.040 19.32c0 0.032-0.026 0.058-0.058 0.058s-0.058-0.026-0.058-0.058c0-0.032 0.026-0.058 0.058-0.058s0.058 0.026 0.058 0.058z"></path>
<path fill="#406325" d="M21.085 19.773c0.037-0.052 0.087-0.093 0.144-0.119l0.002-0.001c0.342-0.178 0.684-0.258 1.067-0.32 0.093-0.018 0.182-0.102 0.276-0.142 0.222-0.107 0.467-0.147 0.68-0.253 0.034-0.019 0.064-0.043 0.089-0.071l0-0c0.089-0.098 0.244-0.129 0.338-0.222 0.373-0.347 0.764-0.667 0.969-1.133 0.249-0.564 0.556-1.147 0.516-1.787-0.027-0.409 0.031-0.818-0.067-1.2-0.134-0.614-0.371-1.156-0.695-1.634l0.010 0.016 0.058 0.036c0.314 0.461 0.551 1.001 0.679 1.583l0.006 0.031c0.102 0.387 0.044 0.8 0.067 1.204 0.044 0.64-0.267 1.222-0.511 1.791-0.204 0.462-0.6 0.782-0.969 1.133-0.098 0.089-0.249 0.12-0.338 0.222-0.026 0.025-0.055 0.047-0.087 0.066l-0.002 0.001c-0.218 0.111-0.462 0.151-0.684 0.253-0.089 0.044-0.178 0.124-0.267 0.142-0.4 0.051-0.763 0.163-1.095 0.329l0.020-0.009c-0.060 0.027-0.11 0.068-0.146 0.119l-0.001 0.001-0.058-0.040"></path>
<path fill="#406325" d="M24.605 17.538c0.124-0.329 0-1.102-0.062-1.2-0.298 0.684-0.151 1.227 0.062 1.2z"></path>
<path fill="#406325" d="M24.289 17.849c0.102-0.249 0.027-0.858-0.018-0.933-0.249 0.52-0.147 0.947 0.018 0.933zM25.036 14.556c-0.222-0.283-0.509-0.505-0.84-0.644l-0.014-0.005c0.276 0.591 0.733 0.809 0.853 0.649z"></path>
<path fill="#406325" d="M24.969 14.2c-0.151-0.304-0.37-0.554-0.638-0.738l-0.006-0.004c0.133 0.578 0.507 0.858 0.644 0.742zM25.178 14.867c-0.156-0.182-0.676-0.356-0.756-0.347 0.311 0.4 0.693 0.484 0.756 0.342zM25.053 16.925c0.334-0.002 0.645-0.096 0.91-0.258l-0.008 0.004c-0.573-0.124-0.956 0.084-0.902 0.253zM25.049 16.671c0-0.249-0.284-0.747-0.356-0.8-0.027 0.533 0.213 0.867 0.356 0.8z"></path>
<path fill="#406325" d="M25.067 16.062c-0.067-0.403-0.234-0.759-0.474-1.053l0.003 0.004c-0.036 0.72 0.28 1.147 0.471 1.049zM22.711 19.409c0.27 0.239 0.604 0.411 0.973 0.487l0.014 0.002c-0.391-0.547-0.893-0.671-0.982-0.489z"></path>
<path fill="#67923d" d="M24.605 17.529c-0.218 0.027-0.36-0.507-0.062-1.191-0.022 0.631 0.009 1.142 0.062 1.191zM22.231 19.471c0.377 0.087 0.705 0.265 0.97 0.508l-0.002-0.001c-0.667 0.004-1.067-0.324-0.969-0.507zM22.231 19.116c0.089-0.356 0.667-0.942 0.778-0.982-0.16 0.76-0.609 1.133-0.778 0.987zM23.178 18.929c-0.044-0.347 0.249-1.076 0.333-1.156 0.133 0.733-0.133 1.227-0.333 1.156zM24.129 18.285c0.264-0.237 0.59-0.411 0.95-0.495l0.015-0.003c-0.396 0.538-0.884 0.671-0.964 0.498zM25.276 15.916c0.044-0.28 0.431-0.796 0.516-0.84-0.053 0.604-0.369 0.933-0.516 0.844z"></path>
<path fill="#67923d" d="M24.756 17.609c0.296-0.155 0.647-0.245 1.019-0.245 0.023 0 0.046 0 0.068 0.001l-0.003-0c-0.524 0.431-1.044 0.436-1.084 0.244zM25.213 16.52c0.201-0.276 0.466-0.494 0.774-0.635l0.012-0.005c-0.258 0.578-0.68 0.791-0.787 0.64zM25.147 14.493c0-0.338 0.356-1.009 0.444-1.076 0.049 0.716-0.253 1.164-0.444 1.076zM24.836 13.338c-0.035-0.133-0.056-0.287-0.056-0.444s0.020-0.311 0.058-0.457l-0.003 0.013c0.244 0.489 0.164 0.898 0 0.889zM24.653 13.245c-0.226-0.272-0.39-0.604-0.464-0.968l-0.002-0.014c0.524 0.413 0.64 0.907 0.462 0.982z"></path>
<path fill="#67923d" d="M25.169 14.778c-0.013 0.040 0.133-0.342 0.631-0.68-0.178 0.636-0.489 0.813-0.631 0.68zM23.653 18.778c0.311-0.231 1.178-0.342 1.298-0.302-0.631 0.524-1.253 0.533-1.298 0.298zM24.289 17.849c-0.164 0.009-0.267-0.413-0.022-0.933-0.031 0.489-0.018 0.889 0.022 0.933zM25.040 14.56c-0.12 0.156-0.578-0.058-0.853-0.653 0.245 0.253 0.526 0.469 0.835 0.64l0.018 0.009zM24.965 14.2c-0.138 0.116-0.502-0.16-0.64-0.742 0.298 0.418 0.578 0.733 0.64 0.742zM25.178 14.867c-0.062 0.142-0.44 0.058-0.751-0.342 0.462 0.262 0.644 0.378 0.756 0.342zM25.062 16.92c-0.058-0.164 0.324-0.369 0.898-0.244-0.333 0.039-0.636 0.125-0.917 0.252l0.019-0.008zM25.045 16.671c-0.142 0.067-0.378-0.262-0.356-0.796 0.087 0.304 0.208 0.57 0.363 0.812l-0.007-0.012z"></path>
<path fill="#67923d" d="M25.062 16.071c-0.187 0.098-0.502-0.329-0.467-1.044 0.196 0.569 0.4 1.018 0.467 1.044zM22.72 19.405c0.089-0.178 0.582-0.058 0.978 0.489-0.281-0.202-0.605-0.368-0.953-0.482l-0.025-0.007z"></path>
<path fill="#406325" d="M23.178 18.925c0.204 0.071 0.467-0.418 0.338-1.151-0.124 0.622-0.276 1.116-0.338 1.156z"></path>
<path fill="#406325" d="M23.636 18.693c0.134-0.293 0.213-0.636 0.213-0.998 0-0.071-0.003-0.142-0.009-0.211l0.001 0.009c-0.444 0.604-0.418 1.169-0.204 1.2zM22.227 19.467c-0.089 0.182 0.298 0.511 0.969 0.502-0.37-0.126-0.691-0.297-0.979-0.509l0.010 0.007zM22.236 19.111c0.169 0.147 0.613-0.222 0.773-0.982-0.36 0.551-0.698 0.969-0.773 0.978zM24.133 18.28c0.080 0.178 0.564 0.044 0.964-0.493-0.277 0.199-0.596 0.366-0.938 0.485l-0.026 0.008zM25.28 15.911c0.147 0.093 0.458-0.236 0.511-0.836-0.137 0.32-0.309 0.595-0.515 0.841l0.004-0.005zM24.756 17.609c0.040 0.196 0.551 0.187 1.080-0.244-0.556 0.178-1.022 0.276-1.080 0.244zM25.213 16.516c0.111 0.151 0.529-0.062 0.787-0.64-0.225 0.249-0.485 0.461-0.771 0.632l-0.015 0.008zM25.156 14.489c0.191 0.089 0.489-0.356 0.444-1.067-0.187 0.578-0.378 1.036-0.444 1.067zM24.845 13.338c0.16 0.004 0.244-0.4 0-0.889 0.040 0.467 0.036 0.849 0 0.889zM24.658 13.24c0.178-0.076 0.062-0.564-0.462-0.978 0.191 0.281 0.348 0.605 0.455 0.952l0.007 0.026zM25.173 14.782c0.142 0.133 0.453-0.044 0.631-0.684-0.347 0.449-0.564 0.676-0.631 0.684zM23.662 18.778c0.044 0.231 0.662 0.222 1.289-0.298-0.662 0.213-1.218 0.338-1.289 0.298z"></path>
<path fill="#406325" d="M23.96 18.436c0.104-0.222 0.165-0.483 0.165-0.758 0-0.048-0.002-0.095-0.005-0.142l0 0.006c-0.333 0.444-0.32 0.867-0.16 0.889zM24.831 17.16c0.096-0.224 0.151-0.484 0.151-0.757 0-0.094-0.007-0.186-0.019-0.276l0.001 0.010c-0.369 0.529-0.324 1.009-0.133 1.022z"></path>
<path fill="#67923d" d="M23.636 18.689c-0.213-0.027-0.236-0.591 0.2-1.191-0.16 0.613-0.24 1.129-0.2 1.191zM25.2 15.653c-0.044-0.342 0.178-0.893 0.293-1 0.111 0.64-0.12 1.067-0.298 1zM23.956 18.431c-0.16-0.022-0.173-0.444 0.156-0.889-0.092 0.264-0.148 0.569-0.155 0.885l-0 0.003zM24.996 13.8c-0.098-0.267 0-0.889 0.053-0.969 0.236 0.542 0.116 0.982-0.053 0.969zM22.413 19.138c0.111-0.356 0.72-0.933 0.836-0.973-0.191 0.773-0.667 1.133-0.836 0.978zM24.836 17.289c0.188-0.296 0.443-0.534 0.745-0.697l0.011-0.005c-0.222 0.604-0.636 0.849-0.756 0.702zM24.831 17.156c-0.191-0.018-0.236-0.489 0.133-1.018-0.085 0.277-0.135 0.594-0.135 0.924 0 0.033 0 0.066 0.001 0.099l-0-0.005z"></path>
<path fill="#406325" d="M25.2 15.733c0.231 0.084 0.4-0.436 0.293-1.062-0.058 0.398-0.16 0.758-0.304 1.095l0.011-0.028z"></path>
<path fill="#406325" d="M25.236 15.716c0.022-0.333-0.311-1.022-0.4-1.098-0.089 0.702 0.2 1.169 0.4 1.098zM25.005 13.796c0.169 0.018 0.284-0.418 0.049-0.964 0.009 0.091 0.014 0.198 0.014 0.305 0 0.233-0.025 0.461-0.072 0.681l0.004-0.021zM22.422 19.133c0.169 0.16 0.64-0.196 0.831-0.969-0.391 0.547-0.756 0.96-0.831 0.969zM24.849 17.289c0.124 0.147 0.533-0.093 0.756-0.702-0.216 0.27-0.465 0.502-0.744 0.695l-0.012 0.008z"></path>
<path fill="#67923d" d="M25.231 15.711c-0.2 0.076-0.484-0.387-0.396-1.089 0.156 0.587 0.333 1.053 0.396 1.089z"></path>
<path fill="#ba1f3e" d="M25.142 13.996c0 0.027-0.022 0.049-0.049 0.049s-0.049-0.022-0.049-0.049c0-0.027 0.022-0.049 0.049-0.049s0.049 0.022 0.049 0.049z"></path>
<path fill="#ba1f3e" d="M25.311 14.524c0 0.027-0.022 0.049-0.049 0.049s-0.049-0.022-0.049-0.049c0-0.027 0.022-0.049 0.049-0.049s0.049 0.022 0.049 0.049z"></path>
<path fill="#ba1f3e" d="M25.382 16.191c0 0.032-0.026 0.058-0.058 0.058s-0.058-0.026-0.058-0.058c0-0.032 0.026-0.058 0.058-0.058s0.058 0.026 0.058 0.058z"></path>
<path fill="#ba1f3e" d="M25.151 15.88c0 0.032-0.026 0.058-0.058 0.058s-0.058-0.026-0.058-0.058c0-0.032 0.026-0.058 0.058-0.058s0.058 0.026 0.058 0.058z"></path>
<path fill="#ba1f3e" d="M24.498 17.653c0 0.032-0.026 0.058-0.058 0.058s-0.058-0.026-0.058-0.058c0-0.032 0.026-0.058 0.058-0.058s0.058 0.026 0.058 0.058z"></path>
<path fill="#ba1f3e" d="M24.778 17.773c0 0.032-0.026 0.058-0.058 0.058s-0.058-0.026-0.058-0.058c0-0.032 0.026-0.058 0.058-0.058s0.058 0.026 0.058 0.058z"></path>
<path fill="#ba1f3e" d="M22.893 19.213c0 0.032-0.026 0.058-0.058 0.058s-0.058-0.026-0.058-0.058c0-0.032 0.026-0.058 0.058-0.058s0.058 0.026 0.058 0.058z"></path>
<path fill="#ba1f3e" d="M22.582 19.436c0 0.032-0.026 0.058-0.058 0.058s-0.058-0.026-0.058-0.058c0-0.032 0.026-0.058 0.058-0.058s0.058 0.026 0.058 0.058z"></path>
<path fill="#ba1f3e" d="M24.805 13.747c0 0.027-0.022 0.049-0.049 0.049s-0.049-0.022-0.049-0.049c0-0.027 0.022-0.049 0.049-0.049s0.049 0.022 0.049 0.049z"></path>
<path fill="#8c959d" d="M19.302 17.613c-0.009 0.044 0.036 0.102 0.089 0.089 0.022 0 0.031-0.022 0.009-0.022-0.018 0.004-0.040 0-0.053-0.013-0.015-0.014-0.025-0.034-0.025-0.056 0-0.012 0.003-0.023 0.008-0.033l-0 0-0.027 0.036z"></path>
<path fill="#8c959d" d="M19.431 17.702c-0.044 0.053-0.111 0.076-0.151 0.040-0.027-0.027-0.036-0.053-0.022-0.089l-0.044 0.058c0.016 0.033 0.041 0.060 0.070 0.080l0.001 0c0.053 0.022 0.133-0.013 0.178-0.071 0.036-0.044 0.071-0.107 0.044-0.16-0.020-0.034-0.051-0.061-0.088-0.075l-0.001-0-0.044 0.044c0.022-0.009 0.053 0 0.076 0.018 0.058 0.044 0.022 0.111-0.018 0.156z"></path>
<path fill="#485654" d="M19.431 17.702c-0.013 0.018-0.030 0.032-0.048 0.044l-0.001 0c-0.022 0.009-0.044 0.018-0.067 0.013-0.012-0.002-0.022-0.007-0.031-0.013l0 0c-0.009-0.008-0.016-0.016-0.022-0.026l-0-0c-0.007-0.009-0.011-0.019-0.013-0.031l-0-0c0-0.013 0-0.022 0.009-0.036l0.004 0.004-0.049 0.053c0.013 0.018 0.027 0.040 0.044 0.053l0.031 0.022c0.009 0.003 0.018 0.005 0.029 0.005 0.002 0 0.005-0 0.007-0l-0 0c0.027-0.001 0.051-0.009 0.072-0.023l-0 0c0.022-0.012 0.041-0.027 0.058-0.044l0-0 0.044-0.062c0.009-0.022 0.013-0.044 0.013-0.071-0-0.013-0.003-0.025-0.009-0.036l0 0c-0.006-0.010-0.014-0.019-0.022-0.027l-0-0c-0.017-0.019-0.038-0.034-0.061-0.044l-0.001-0h0.004l-0.044 0.049h-0.004c0.009-0.009 0.022-0.009 0.036-0.009 0.034 0.006 0.061 0.030 0.071 0.062l0 0.001c0.004 0.022 0 0.044-0.009 0.062-0.011 0.020-0.024 0.038-0.040 0.053l-0 0zM19.431 17.702c0.018-0.013 0.027-0.031 0.036-0.053 0.009-0.018 0.013-0.044 0.009-0.062-0.008-0.019-0.022-0.035-0.040-0.044l-0-0c-0.018-0.013-0.044-0.018-0.058-0.009h-0.004l0.044-0.053c0.037 0.014 0.067 0.039 0.088 0.070l0 0.001c0.009 0.013 0.013 0.027 0.013 0.044 0 0.022-0.004 0.044-0.018 0.071-0.013 0.024-0.027 0.044-0.045 0.062l0-0c-0.013 0.022-0.036 0.036-0.058 0.049s-0.044 0.022-0.076 0.022c-0.002 0-0.004 0-0.006 0-0.011 0-0.021-0.002-0.030-0.005l0.001 0c-0.014-0.006-0.025-0.013-0.036-0.022l0 0c-0.018-0.018-0.033-0.038-0.044-0.061l-0.001-0.001 0.044-0.058h0.009l-0.004 0.036c0 0.009 0 0.022 0.009 0.031l0.022 0.022 0.027 0.013c0.022 0.004 0.044 0 0.067-0.013 0.019-0.011 0.035-0.024 0.049-0.040l0-0z"></path>
<path fill="#6c301e" d="M22.898 13.747l-1.782 1.756-1.827 1.742-0.204 0.24c-0.089 0.102-0.196 0.236-0.32 0.356-0.018 0.027-0.049 0.018-0.076 0.036-0.085 0.055-0.158 0.118-0.221 0.19l-0.001 0.001-0.547 0.6c-0.031 0.040-0.044 0.062-0.018 0.089l0.293 0.391c0.053 0.053 0.116 0.080 0.142 0.036 0.138-0.244 0.489-0.613 0.622-0.902 0.076-0.178 0.173-0.493 0.244-0.569 0.089-0.098 0.316-0.347 0.524-0.564l0.044-0.044 0.040-0.044c1.044-1.067 2.253-2.36 3.133-3.271l-0.044-0.044z"></path>
<path fill="#8c959d" d="M19.196 17.249c-0.053 0-0.089-0.031-0.129-0.062 0.053 0.018 0.107 0.036 0.156 0.018l-0.027 0.044z"></path>
<path fill="#b2b6ba" d="M24.756 12.449l-1.413 1.164c-0.013 0.018-0.027 0.013-0.040 0l-0.129-0.107v-0.027l0.062-0.062c0.009-0.009 0-0.013-0.004-0.027l-0.027-0.027c-0.013-0.004-0.022 0-0.031 0.009l-0.062 0.067c-0.031 0-0.058 0.027-0.062 0.062-0.853 0.831-1.591 1.573-2.44 2.391l-1.004 0.96c-0.036 0.044-0.191 0.129-0.293 0.196-0.032 0.017-0.058 0.039-0.080 0.066l-0 0.001-0.080 0.244-0.111 0.187c0.102 0.107 0.098 0.098 0.169 0.164l0.498-0.529 0.036-0.044c-0.020-0.026-0.040-0.049-0.062-0.071l-0-0c-0.015-0.013-0.033-0.028-0.050-0.042l-0.003-0.002-0.027-0.027c-0.009-0.009 0.009-0.022 0.018-0.031 1.178-1.133 2.444-2.387 3.48-3.404 0.007 0.003 0.014 0.004 0.022 0.004s0.016-0.002 0.023-0.004l-0 0 0.124 0.142c0.027 0.027 0.053 0.027 0.076 0.018l1.418-1.271z"></path>
<path fill="#485654" d="M19.156 17.351h0.022c0.001 0 0.002 0 0.003 0 0.009 0 0.017-0.002 0.025-0.005l-0 0c0.031-0.111 0.054-0.182 0.078-0.252l-0.012 0.039c-0.008-0.008-0.019-0.015-0.031-0.018l-0-0c0.013 0 0.022 0.009 0.031 0.018l-0.062 0.213c-0.008 0.005-0.017 0.008-0.026 0.009l-0 0c-0.011-0-0.022-0.002-0.032-0.005l0.001 0z"></path>
<path fill="#485654" d="M19.6 16.996l-0.044-0.036c-0.013-0.011-0.024-0.023-0.035-0.035l-0-0c0.030 0.022 0.056 0.045 0.080 0.071l0 0z"></path>
<path fill="#8c959d" d="M22.32 14.178l0.156 0.156 0.027-0.027-0.156-0.151-0.027 0.027z"></path>
<path fill="#67923d" d="M19.289 18.907c-0.173-0.043-0.373-0.068-0.578-0.068-0.259 0-0.508 0.040-0.742 0.113l0.018-0.005c0.724 0.356 1.311 0.204 1.298-0.044zM23.245 19.053c0.171-0.043 0.367-0.067 0.568-0.067 0.26 0 0.511 0.041 0.747 0.116l-0.017-0.005c-0.724 0.351-1.316 0.2-1.302-0.044z"></path>
<path fill="#406325" d="M19.28 18.911c0.013 0.244-0.569 0.396-1.293 0.040 0.68 0.044 1.236 0.018 1.289-0.044zM23.249 19.058c-0.013 0.244 0.569 0.396 1.289 0.040-0.676 0.044-1.231 0.018-1.289-0.044z"></path>
<path fill="#b2b6ba" d="M22.6 18.667c-0.9-1.237-2.028-2.251-3.33-2.995l-0.052-0.027c0.16-0.009 0.511 0.173 0.653 0.267 1.062 0.684 1.969 1.587 2.916 2.658-0.046 0.047-0.096 0.090-0.148 0.131l-0.003 0.003-0.036-0.036z"></path>
<path fill="#8c959d" d="M22.693 18.658l-0.071 0.053c-1.022-1.316-2.449-2.573-3.409-3.071 1.338 0.618 2.462 1.858 3.467 3.009h0.009z"></path>
<path fill="#485654" d="M22.693 18.658l-0.071 0.053c-0.255-0.323-0.501-0.609-0.758-0.883l0.007 0.007c-0.264-0.284-0.529-0.55-0.804-0.805l-0.009-0.009c-0.268-0.25-0.554-0.494-0.852-0.725l-0.028-0.021c-0.13-0.101-0.283-0.212-0.44-0.318l-0.031-0.020c-0.16-0.102-0.324-0.204-0.493-0.293v-0.009c0.383 0.181 0.711 0.378 1.017 0.603l-0.017-0.012c0.33 0.242 0.619 0.484 0.894 0.742l-0.005-0.004c0.282 0.266 0.548 0.534 0.803 0.811l0.010 0.011c0.267 0.284 0.516 0.578 0.773 0.862zM22.693 18.658c-0.288-0.329-0.542-0.61-0.8-0.887l0.022 0.024c-0.266-0.288-0.531-0.556-0.805-0.815l-0.008-0.008c-0.27-0.254-0.559-0.495-0.863-0.72l-0.026-0.018c-0.288-0.212-0.615-0.408-0.959-0.571l-0.036-0.015v-0.009c0.371 0.213 0.686 0.423 0.986 0.652l-0.022-0.016c0.328 0.253 0.616 0.497 0.892 0.754l-0.008-0.007c0.284 0.264 0.55 0.529 0.805 0.804l0.009 0.009c0.248 0.267 0.492 0.554 0.724 0.851l0.022 0.029 0.067-0.062z"></path>
<path fill="#fab81c" d="M23 18.445c-0.089 0.023-0.168 0.058-0.239 0.104l0.003-0.002c-0.009 0.062-0.089 0.133-0.16 0.147l-0.022-0.036c0-0.002-0.002-0.004-0.004-0.004s-0.004 0.002-0.004 0.004v0c-0.011 0.005-0.020 0.009-0.028 0.014l0.002-0.001c-0.027 0-0.058 0.009-0.071 0.044-0.018 0.044 0.018 0.102 0.053 0.138 0.044 0.031 0.062 0.044 0.107 0.044 0.049-0.013 0.076-0.058 0.089-0.071 0.164 0.2 0.289 0.311 0.498 0.471 0.093 0 0.142-0.058 0.111-0.124-0.009-0.022-0.036-0.036-0.058-0.027v-0.022c0.107-0.098 0.156-0.222 0.040-0.44-0.098-0.178-0.209-0.236-0.311-0.236zM23.28 18.649l0.044 0.089c0.067 0.133 0.009 0.293-0.107 0.347h-0.009c0.018-0.031-0.036-0.098-0.062-0.076 0.013-0.031-0.031-0.089-0.067-0.076 0.018-0.031-0.022-0.084-0.062-0.067 0.018-0.031-0.013-0.080-0.058-0.071 0.013-0.040-0.018-0.080-0.058-0.071 0-0.036-0.009-0.053-0.022-0.067 0.044-0.036 0.102-0.093 0.151-0.12 0.12-0.053 0.196 0.044 0.244 0.111z"></path>
<path fill="#fab81c" d="M23.329 18.791c-0.022-0.013-0.036-0.036-0.027-0.049 0.009-0.018 0.031-0.022 0.053-0.009 0.022 0.009 0.036 0.031 0.027 0.044-0.004 0.018-0.031 0.022-0.053 0.013z"></path>
<path fill="#fab81c" d="M23.316 18.747c-0.022-0.013-0.036-0.036-0.027-0.053 0.009-0.013 0.031-0.018 0.053-0.004 0.022 0.009 0.036 0.031 0.027 0.044-0.004 0.018-0.031 0.022-0.053 0.013z"></path>
<path fill="#fab81c" d="M23.289 18.693c-0.022-0.009-0.036-0.031-0.027-0.044 0.009-0.018 0.031-0.022 0.053-0.013 0.022 0.013 0.036 0.036 0.027 0.049-0.004 0.018-0.031 0.022-0.053 0.009z"></path>
<path fill="#fab81c" d="M23.253 18.649c-0.022-0.013-0.036-0.036-0.027-0.049s0.031-0.018 0.053-0.009c0.022 0.013 0.036 0.036 0.031 0.049-0.009 0.013-0.036 0.022-0.058 0.009z"></path>
<path fill="#fab81c" d="M23.209 18.605c-0.027-0.009-0.036-0.036-0.027-0.044v-0.009c0.009 0.004 0.031 0.009 0.027-0.004 0-0.009-0.004-0.013 0-0.009l0.027 0.009c0.022 0.013 0.036 0.036 0.027 0.049-0.009 0.018-0.031 0.022-0.053 0.009z"></path>
<path fill="#fab81c" d="M22.725 18.827c0.027-0.080 0.089-0.151 0.156-0.169zM22.733 18.836c0.058 0.013 0.147-0.053 0.169-0.111zM22.787 18.902c0.071 0.018 0.147-0.053 0.178-0.107zM22.853 18.973c0.089 0 0.138-0.058 0.164-0.107zM22.92 19.045c0.071 0 0.142-0.062 0.16-0.111zM22.982 19.102c0.003 0 0.007 0 0.010 0 0.066 0 0.123-0.035 0.154-0.088l0-0.001zM23.058 19.165c0.071 0.004 0.133-0.040 0.151-0.080zM23.138 19.231c0.071 0 0.12-0.044 0.138-0.089z"></path>
<path fill="#6c301e" d="M22.725 18.827c0.014-0.039 0.033-0.073 0.058-0.103l-0 0 0.044-0.044 0.053-0.022c-0.020 0.006-0.038 0.015-0.054 0.027l0-0-0.044 0.044c-0.023 0.028-0.042 0.060-0.057 0.095l-0.001 0.003zM22.733 18.84c0.018 0 0.036 0 0.053-0.009 0.017-0.008 0.032-0.017 0.045-0.027l0.044-0.035 0.027-0.044c-0.005 0.018-0.014 0.033-0.027 0.044l-0 0c-0.013 0.015-0.028 0.028-0.044 0.040l-0.001 0c-0.013 0.009-0.027 0.016-0.043 0.022l-0.001 0c-0.012 0.006-0.026 0.010-0.041 0.010-0.004 0-0.008-0-0.012-0.001l0 0zM22.787 18.902h0.053l0.044-0.027c0.030-0.022 0.056-0.048 0.075-0.079l0.001-0.001c-0.009 0.017-0.019 0.032-0.031 0.045l0-0c-0.012 0.015-0.025 0.028-0.040 0.040l-0 0c-0.013 0.009-0.027 0.017-0.043 0.022l-0.001 0h-0.058zM22.853 18.973c0.018-0.001 0.034-0.004 0.050-0.009l-0.001 0c0.017-0.006 0.032-0.013 0.045-0.023l-0.001 0c0.017-0.010 0.032-0.022 0.044-0.035l0-0 0.027-0.044c-0.015 0.034-0.037 0.063-0.066 0.084l-0.001 0c-0.024 0.017-0.054 0.027-0.086 0.027-0.004 0-0.008-0-0.012-0l0.001 0zM22.92 19.040c0.035-0.003 0.067-0.016 0.094-0.036l-0 0c0.027-0.019 0.049-0.043 0.066-0.070l0.001-0.001c-0.004 0.013-0.013 0.031-0.027 0.044l-0.036 0.031c-0.013 0.009-0.027 0.016-0.043 0.022l-0.001 0c-0.018 0.009-0.036 0.009-0.053 0.009zM22.987 19.102c0.017-0.002 0.032-0.005 0.047-0.009l-0.002 0.001c0.017-0.005 0.032-0.011 0.046-0.018l-0.001 0.001c0.030-0.015 0.055-0.038 0.071-0.066l0-0.001-0.027 0.044c-0.013 0.009-0.027 0.022-0.044 0.027-0.026 0.014-0.056 0.022-0.089 0.022h-0zM23.058 19.165h0.044c0.017-0.006 0.032-0.013 0.045-0.023l-0.001 0 0.036-0.022c0.013-0.013 0.022-0.022 0.027-0.036-0.005 0.014-0.013 0.026-0.022 0.036l0-0c-0.012 0.011-0.025 0.019-0.039 0.026l-0.001 0c-0.022 0.012-0.048 0.018-0.075 0.018-0.005 0-0.009-0-0.014-0.001l0.001 0zM23.138 19.231c0.001 0 0.003 0 0.005 0 0.014 0 0.028-0.002 0.041-0.005l-0.001 0c0.028-0.008 0.053-0.024 0.071-0.044l0-0c0.008-0.010 0.016-0.022 0.022-0.035l0-0.001c-0.010 0.028-0.029 0.051-0.053 0.066l-0.001 0c-0.013 0.007-0.028 0.011-0.044 0.013l-0.001 0c-0.007 0.001-0.014 0.002-0.022 0.002s-0.016-0.001-0.023-0.002l0.001 0z"></path>
<path fill="#406325" d="M18.187 13.333c0.356-0.191 0.648-0.461 0.861-0.787l0.005-0.009c-0.693 0.187-1.009 0.64-0.867 0.8zM24.667 13.542c-0.157-0.357-0.394-0.655-0.688-0.881l-0.005-0.004c0.124 0.676 0.533 1.013 0.693 0.889z"></path>
<path fill="#67923d" d="M18.187 13.333c-0.147-0.156 0.169-0.604 0.862-0.791-0.489 0.373-0.853 0.72-0.862 0.791zM24.667 13.542c-0.164 0.133-0.564-0.204-0.689-0.876 0.32 0.489 0.622 0.867 0.689 0.876z"></path>
<path fill="#000" d="M20.098 16.805s-0.276 0.031-0.351-0.347c-0.080-0.404 0.236-0.444 0.236-0.444s0.36-0.040 0.587-0.044l0.098 0.8-0.569 0.036z"></path>
<path fill="#000" d="M20.133 16.684s-0.178 0.031-0.213-0.249c-0.027-0.2 0.098-0.227 0.098-0.227l0.409 0.071v0.364l-0.293 0.040z"></path>
<path fill="#000" d="M20.018 16.209s0.262-0.018 0.4-0.036l0.058 0.253-0.316 0.018s-0.022-0.227-0.142-0.236z"></path>
<path fill="#000" d="M19.965 16.018s0.333-0.084 0.378 0.289c0.009 0.093-0.044 0.316-0.209 0.378l0.618-0.067-0.058-0.667-0.204 0.018s-0.444 0.013-0.524 0.044z"></path>
<path fill="#f9f0aa" d="M20.098 16.805s2.307-0.156 2.542-0.147c0.702-0.382 0-1.889-0.591-2.733 0.067-0.191-1.329-0.618-1.956-0.578-0.084 0-0.16 0.009-0.231 0.013-0.342 0.036-0.347 0.476-0.209 0.756 0.133 0.267 1.347 2.444 0.498 2.68l-0.053 0.009z"></path>
<path fill="#000" d="M22.569 14.813c-0.167-0.343-0.34-0.634-0.534-0.91l0.014 0.021c0.067-0.191-1.329-0.618-1.956-0.578-0.084 0-0.16 0.009-0.231 0.013-0.342 0.036-0.347 0.476-0.209 0.756 0.044 0.080 0.191 0.356 0.351 0.698"></path>
<path fill="#000" d="M20.222 15.333c0.249 0.649 0.387 1.333-0.071 1.458l-0.053 0.013s2.311-0.156 2.542-0.147c0.382-0.209 0.347-0.747 0.142-1.333"></path>
<path fill="#000" d="M19.885 13.489c-0.164 0-0.209 0.16-0.204 0.258 0.004 0.267 0.204 0.276 0.204 0.276l0.267-0.013 0.124-0.542-0.391 0.022z"></path>
<path fill="#000" d="M19.885 13.489l0.391-0.022 0.044 0.404-0.347 0.018s0.111-0.324-0.089-0.4z"></path>
<path fill="#000" d="M22.049 13.925c0.298-0.044 0.293-0.444 0.089-0.609-0.689-0.022-1.596-0.004-2.249 0.044 0.076 0 0.28 0.018 0.307 0.289 0.001 0.008 0.001 0.018 0.001 0.028 0 0.114-0.052 0.215-0.134 0.282l-0.001 0.001c-0.089 0.062-0.178 0.062-0.178 0.062h0.16l0.133-0.018c0.933-0.12 1.867-0.080 1.867-0.080h0.004z"></path>
<path fill="#b07e09" d="M20.378 14.551c-0.009-0.013-0.013-0.031-0.036-0.036-0.009 0-0.027 0-0.022-0.018h0.036l0.071-0.009c0.018 0.004 0.013 0.027 0 0.022-0.022 0-0.009 0.022-0.004 0.036l0.058 0.133c0.004 0.018 0.018 0.031 0.031 0.031l0.049-0.004c0.013-0.009 0.009-0.027 0.009-0.044-0.004-0.013 0.022-0.009 0.022 0l0.018 0.062c0 0.009-0.009 0.004-0.018 0.004l-0.133 0.009c-0.013 0-0.036 0.013-0.044 0 0-0.018 0.027-0.009 0.027-0.022l-0.013-0.044-0.049-0.12zM20.591 14.538c-0.004-0.013-0.013-0.031-0.031-0.036-0.009 0-0.027 0-0.027-0.018h0.031l0.076-0.009c0.013 0 0.018 0.022 0 0.018-0.013 0-0.013 0.018-0.009 0.031l0.067 0.151c0 0.009 0.009 0.022 0.022 0.027 0.013 0 0.031 0 0.031 0.013 0 0.009-0.018 0.004-0.027 0.004-0.025 0-0.050 0.003-0.073 0.009l0.002-0c-0.009 0-0.022 0-0.022-0.013s0.022 0 0.027-0.018c0-0.013-0.009-0.027-0.018-0.044l-0.049-0.116zM20.791 14.569c0 0.009 0.018 0 0.022 0 0.013 0 0.027-0.004 0.027-0.018-0.002-0.022-0.014-0.041-0.031-0.053l-0-0c-0.013-0.013-0.036-0.009-0.049-0.009l0.004 0.022 0.027 0.058zM20.818 14.64c0.009 0.013 0.013 0.031 0.027 0.044 0.009 0.009 0.027 0.004 0.036 0 0.013 0 0.022-0.013 0.018-0.022-0.004-0.031-0.022-0.058-0.053-0.067-0.007-0.002-0.014-0.002-0.022-0.002s-0.016 0.001-0.023 0.002l0.001-0 0.018 0.044zM20.729 14.533c-0.009-0.013-0.013-0.031-0.031-0.044-0.009 0-0.027 0.004-0.031-0.009 0-0.013 0.027-0.004 0.036-0.009 0.040 0 0.076-0.013 0.116 0 0.031 0.009 0.062 0.036 0.067 0.071 0 0.018-0.013 0.031-0.027 0.036l0.022 0.004c0.027 0.009 0.049 0.027 0.062 0.049 0.009 0.018 0.013 0.044 0 0.062-0.018 0.018-0.044 0.018-0.062 0.018-0.036 0-0.067 0-0.102 0.009-0.009 0-0.018-0.022 0-0.022 0.013 0 0.013-0.018 0.009-0.027l-0.058-0.133zM21.058 14.449c0.013 0 0.018 0.013 0.022 0.022l0.013 0.040c-0.013 0.009-0.022-0.009-0.027-0.018s-0.018-0.022-0.031-0.018c-0.008-0.001-0.017-0.001-0.027-0.001s-0.019 0-0.028 0.001l0.001-0c-0.009 0.009 0 0.018 0.004 0.027l0.027 0.058c0.009 0 0.027 0 0.036-0.009 0-0.009-0.013-0.031 0.009-0.027 0.013 0.009 0.009 0.027 0.018 0.040l0.022 0.049c-0.013 0.013-0.022-0.004-0.027-0.018-0.009-0.013-0.031-0.013-0.044-0.013-0.009 0 0 0.009 0 0.013l0.027 0.067c0.009 0.013 0.031 0.013 0.044 0.013 0.018 0 0.036 0 0.044-0.018 0.009-0.009-0.013-0.031 0-0.036 0.018 0 0.018 0.018 0.022 0.027 0 0.013 0.009 0.027 0.013 0.036 0 0.009-0.013 0.009-0.018 0.009l-0.133 0.009c-0.018 0-0.040 0.009-0.044-0.009 0-0.013 0.027-0.004 0.027-0.027l-0.018-0.044-0.049-0.116c-0.009-0.013-0.018-0.027-0.036-0.031-0.009 0-0.027 0-0.018-0.018h0.044l0.124-0.009zM21.16 14.507c-0.004-0.013-0.013-0.031-0.031-0.040-0.009 0-0.031 0-0.031-0.018 0.013-0.009 0.031 0 0.044 0 0.036 0 0.071-0.013 0.107 0 0.036 0.009 0.067 0.040 0.071 0.080 0 0.018-0.013 0.031-0.031 0.036-0.013 0 0.009 0.004 0.013 0.009 0.031 0.013 0.044 0.040 0.062 0.067 0.004 0.009 0.022 0.031 0.027 0.009 0-0.022 0.031 0 0.022 0.013 0 0.018-0.013 0.027-0.031 0.027s-0.040-0.009-0.049-0.027c-0.018-0.027-0.031-0.058-0.058-0.076-0.009-0.009-0.022-0.013-0.036-0.004v0.018l0.027 0.053c0.009 0.013 0.027 0.013 0.044 0.013 0.013 0.004 0.009 0.027-0.009 0.022h-0.076c-0.013 0.009-0.040 0-0.031-0.013 0.013 0 0.031-0.009 0.022-0.022l-0.044-0.116-0.013-0.031zM21.222 14.551c0.009 0.013 0.027 0 0.040 0s0.013-0.022 0.009-0.031c-0.004-0.022-0.018-0.044-0.040-0.053-0.009 0-0.036-0.009-0.040 0.004l0.031 0.071v0.004zM21.542 14.622c0.009 0.013 0.013 0.027 0.027 0.031 0.009 0 0.027 0 0.031 0.013 0 0.013-0.018 0.004-0.027 0.009-0.011-0.001-0.023-0.002-0.036-0.002s-0.025 0.001-0.037 0.002l0.001-0c-0.013 0.004-0.027 0-0.027-0.013 0.009-0.009 0.031 0 0.031-0.018l-0.022-0.049-0.049-0.129c-0.004-0.013-0.022-0.013-0.031-0.013-0.013 0-0.031 0-0.031 0.018 0 0.013 0.009 0.031 0 0.036-0.013 0-0.018-0.013-0.022-0.022l-0.013-0.044c0-0.009 0.013-0.004 0.018-0.004l0.187-0.009c0.013 0 0.022 0.009 0.022 0.022s0.013 0.027 0.018 0.044c-0.004 0.013-0.022 0-0.022-0.013-0.009-0.013-0.027-0.027-0.044-0.031-0.009 0-0.027 0-0.036 0.009l0.009 0.031 0.053 0.133zM21.711 14.582c-0.009 0-0.004 0.013-0.004 0.018v0.036c0.004 0.013 0.022 0.013 0.036 0.018 0.009 0 0.004 0.022-0.009 0.018h-0.053c-0.013 0.004-0.031-0.004-0.022-0.018 0.009 0 0.018-0.004 0.022-0.013v-0.222c0.009-0.013 0.027 0 0.027 0.004l0.16 0.204c0.009 0.009 0.022 0.018 0.036 0.018s0.018 0.022 0 0.018h-0.067c-0.009 0-0.022 0.009-0.031 0-0.009-0.004 0-0.018 0.009-0.018 0.013 0 0-0.018-0.004-0.027l-0.027-0.036h-0.071zM21.76 14.56c0.009 0 0-0.004 0-0.009l-0.058-0.076v0.089h0.058zM21.898 14.48c-0.004-0.018-0.013-0.044-0.036-0.044-0.013 0-0.031-0.009-0.022-0.022h0.076c0.031 0 0.062 0 0.089 0.009 0.069 0.021 0.121 0.079 0.133 0.15l0 0.001c0 0.027-0.004 0.058-0.027 0.071-0.036 0.022-0.076 0.018-0.111 0.013l-0.062 0.004c-0.013 0-0.018-0.022 0-0.018 0.018 0 0.018-0.022 0.009-0.031l-0.049-0.133zM21.987 14.591c0.004 0.013 0.009 0.031 0.022 0.044h0.044c0.022 0 0.031-0.022 0.031-0.040-0.001-0.035-0.011-0.067-0.027-0.094l0 0.001c-0.016-0.031-0.045-0.054-0.079-0.062l-0.001-0h-0.044c-0.004 0 0 0.009 0 0.018l0.053 0.133zM21.049 15.142c0 0.013 0.018 0.027 0.036 0.027 0.009 0 0.031 0 0.031 0.018-0.009 0.009-0.022 0-0.036 0-0.024 0.001-0.047 0.004-0.069 0.009l0.003-0.001h-0.040c-0.009 0-0.009-0.018 0.004-0.018s0.027-0.004 0.031-0.018c0-0.013-0.009-0.027-0.013-0.036l-0.053-0.124c0-0.013-0.018-0.013-0.031-0.013-0.009 0-0.027 0.004-0.031-0.009 0-0.013 0.022-0.009 0.031-0.018l0.044-0.013c0.009 0 0.013 0.004 0.018 0.013l0.076 0.178zM21.080 14.942h0.089c0.018 0 0.009-0.022 0.018-0.022 0.018 0 0.018 0.022 0.018 0.031 0 0.002 0.001 0.003 0.001 0.005 0 0.012-0.010 0.022-0.022 0.022-0.002 0-0.003-0-0.005-0.001l0 0h-0.067l0.022 0.053 0.027-0.009c0.001-0 0.002-0 0.003-0 0.049 0 0.092 0.029 0.112 0.070l0 0.001c0.009 0.018 0.013 0.044 0 0.067-0.018 0.022-0.044 0.027-0.071 0.027-0.022 0-0.044-0.004-0.062-0.027-0.004-0.009-0.004-0.031 0.009-0.027 0.018 0 0.031 0.009 0.031 0.027 0.004 0.009 0.022 0.004 0.031 0.004 0.013 0 0.027-0.009 0.027-0.027s-0.009-0.044-0.022-0.058c-0.009-0.018-0.031-0.031-0.053-0.031l-0.040 0.004c-0.013 0-0.013-0.013-0.018-0.022-0.009-0.020-0.020-0.048-0.029-0.077l-0.002-0.008s0.004-0.009 0.009-0.004zM21.387 14.987c-0.009-0.018-0.018-0.040-0.040-0.044-0.009 0-0.031-0.009-0.018-0.018h0.071c0.012-0.004 0.026-0.006 0.041-0.006 0.019 0 0.037 0.004 0.053 0.011l-0.001-0c0.069 0.021 0.121 0.079 0.133 0.15l0 0.001c0 0.027-0.004 0.053-0.031 0.067-0.031 0.022-0.071 0.018-0.107 0.018l-0.058 0.009c-0.013 0-0.018-0.022 0-0.022s0.013-0.018 0.009-0.031l-0.053-0.133zM21.476 15.093c0.009 0.018 0.013 0.036 0.027 0.044s0.027 0.004 0.044 0c0.018 0 0.027-0.022 0.027-0.040-0.002-0.035-0.013-0.067-0.032-0.094l0 0.001c-0.017-0.030-0.045-0.051-0.079-0.058l-0.001-0c-0.007-0.001-0.014-0.002-0.022-0.002s-0.016 0.001-0.023 0.002l0.001-0v0.013l0.058 0.133zM21.76 14.907c0.013 0 0.018 0.013 0.022 0.022 0 0.013 0.009 0.022 0.013 0.036-0.009 0.013-0.022 0-0.027-0.013-0.004-0.009-0.013-0.022-0.027-0.022-0.009-0.001-0.019-0.001-0.029-0.001s-0.020 0-0.030 0.001l0.001-0c-0.009 0.009 0 0.022 0 0.027l0.027 0.062c0.013 0 0.027 0 0.036-0.009s-0.009-0.031 0.009-0.027c0.018 0 0.013 0.022 0.018 0.036l0.022 0.049c-0.004 0.018-0.022 0-0.027-0.013s-0.022-0.013-0.036-0.013c-0.009 0-0.018 0-0.009 0.009l0.027 0.067c0.009 0.018 0.031 0.013 0.044 0.013 0.018 0 0.036 0 0.044-0.013 0.009-0.009-0.009-0.027 0-0.036 0.018 0 0.022 0.013 0.022 0.022l0.013 0.044c0 0.004-0.013 0-0.018 0l-0.138 0.009c-0.013 0-0.031 0.009-0.040 0-0.009-0.022 0.022-0.013 0.027-0.027l-0.013-0.040-0.049-0.129c-0.009-0.013-0.018-0.027-0.036-0.031-0.009 0-0.027 0-0.018-0.018h0.044l0.124-0.004zM20.551 15.542c0.004 0.022 0.027 0.031 0.044 0.036 0.036 0.009 0.076 0.022 0.098 0.049 0.013 0.018 0.022 0.040 0.022 0.062s-0.022 0.040-0.044 0.044c-0.009 0.003-0.020 0.005-0.032 0.005-0.016 0-0.031-0.003-0.045-0.009l0.001 0c-0.009-0.004-0.004 0.018-0.018 0.009-0.013-0.004-0.009-0.022-0.018-0.036-0.004-0.018-0.009-0.033-0.014-0.047l0.001 0.003c0-0.013 0.018 0 0.022 0.009 0.013 0.027 0.040 0.044 0.071 0.049 0.018 0 0.036-0.009 0.036-0.027 0-0.022-0.018-0.044-0.036-0.053-0.031-0.013-0.062-0.018-0.089-0.036-0.025-0.015-0.042-0.041-0.044-0.071v-0c0-0.018 0.018-0.036 0.036-0.040 0.011-0.004 0.023-0.006 0.036-0.006s0.025 0.002 0.036 0.006l-0.001-0c0.009 0 0.013-0.013 0.027-0.004 0 0.009 0 0.018 0.009 0.027l0.013 0.040c-0.009 0.009-0.022 0-0.022-0.009-0.013-0.018-0.027-0.036-0.044-0.036s-0.036 0-0.044 0.013v0.022zM20.845 15.467c0.018 0 0.018 0.013 0.022 0.022 0 0.013 0.009 0.027 0.013 0.036-0.009 0.013-0.022 0-0.027-0.009s-0.013-0.022-0.031-0.022h-0.053c-0.009 0.009 0 0.018 0 0.027l0.022 0.062c0.013 0 0.027 0 0.036-0.009s-0.009-0.027 0.004-0.031c0.018 0 0.018 0.018 0.022 0.031 0 0.018 0.013 0.036 0.022 0.058-0.009 0.013-0.027 0-0.027-0.013-0.004-0.013-0.022-0.018-0.036-0.013-0.009 0-0.018 0-0.013 0.009l0.027 0.067c0.004 0.013 0.018 0.013 0.031 0.013 0.018 0 0.040 0 0.053-0.013 0.009-0.009 0-0.027 0-0.036 0.013-0.009 0.027 0 0.027 0.013l0.009 0.044c0 0.009-0.013 0.009-0.018 0.009l-0.133 0.009c-0.018 0-0.036 0.013-0.044 0 0-0.018 0.022-0.013 0.027-0.027 0-0.013 0-0.022-0.009-0.036l-0.044-0.133c0-0.013-0.013-0.027-0.031-0.027-0.009 0-0.027-0.009-0.018-0.018h0.044l0.124-0.013zM21.031 15.653c0.004 0.013 0.013 0.027 0.027 0.031 0.013 0 0.031-0.004 0.036 0.009 0 0.018-0.022 0.009-0.031 0.009-0.005-0-0.012-0.001-0.018-0.001-0.019 0-0.037 0.002-0.055 0.005l0.002-0c-0.009 0-0.022 0.009-0.027-0.004 0-0.018 0.022-0.009 0.027-0.018l-0.004-0.036-0.044-0.133c-0.009-0.013-0.013-0.031-0.031-0.031-0.009 0-0.027 0-0.022-0.018 0.004-0.009 0.022 0 0.031 0 0.031 0 0.062-0.013 0.098-0.009 0.034 0.002 0.062 0.023 0.075 0.053l0 0.001c0.009 0.018 0.009 0.044 0 0.058-0.022 0.018-0.049 0.022-0.076 0.027-0.009 0 0 0.009 0 0.013l0.013 0.044zM21.009 15.573h0.027c0.013-0.004 0.022-0.018 0.018-0.031-0.002-0.021-0.010-0.039-0.022-0.053l0 0c-0.013-0.013-0.036-0.013-0.049-0.009-0.009 0.004 0 0.013 0 0.022l0.022 0.071zM21.28 15.64c0 0.009 0.009 0.027 0.022 0.027 0.009 0 0.031 0 0.031 0.013s-0.022 0.009-0.031 0.009c-0.005-0-0.011-0-0.016-0-0.019 0-0.038 0.002-0.057 0.005l0.002-0c-0.009 0-0.022 0-0.022-0.013 0.009-0.009 0.031 0 0.031-0.018l-0.013-0.053-0.044-0.129c0-0.013-0.018-0.013-0.031-0.009-0.009 0-0.027 0-0.031 0.013v0.036c-0.009 0.009-0.018 0-0.018-0.013-0.005-0.017-0.011-0.032-0.019-0.046l0.001 0.002c0-0.013 0.013-0.013 0.022-0.013l0.182-0.009c0.013 0 0.022 0.009 0.022 0.022l0.018 0.044c-0.004 0.009-0.022 0-0.022-0.009-0.009-0.013-0.022-0.031-0.044-0.036-0.009 0-0.022 0-0.036 0.009l0.009 0.027 0.044 0.142zM21.373 15.493c-0.004-0.013-0.009-0.031-0.027-0.036-0.009 0-0.027 0-0.027-0.018 0.004-0.009 0.018 0 0.027 0l0.080-0.009c0.013-0.004 0.022 0.018 0.009 0.018s-0.027 0.009-0.022 0.022l0.022 0.071 0.031 0.098c0 0.009 0.013 0.018 0.022 0.018 0.013 0 0.031 0 0.027 0.018h-0.031l-0.071 0.009c-0.009 0-0.022-0.009-0.018-0.018 0.009-0.004 0.027 0 0.027-0.018l-0.013-0.053-0.036-0.102zM21.631 15.422c0.013 0 0.013 0.013 0.018 0.022l0.009 0.036c-0.004 0.013-0.022 0-0.022-0.009-0.004-0.013-0.013-0.027-0.031-0.027-0.008-0.001-0.017-0.001-0.027-0.001s-0.019 0-0.028 0.001l0.001-0c-0.009 0.009 0 0.022 0 0.027l0.022 0.062c0.009 0 0.022 0 0.036-0.009 0.009-0.009-0.009-0.027 0.004-0.031 0.018 0 0.018 0.022 0.018 0.031l0.022 0.058c-0.004 0.013-0.022 0-0.022-0.009-0.004-0.013-0.022-0.018-0.036-0.018-0.004 0-0.022 0-0.013 0.009l0.022 0.067c0.004 0.013 0.018 0.018 0.031 0.013 0.018 0 0.040 0 0.053-0.009 0.009-0.009 0-0.027 0.004-0.040 0.013-0.009 0.022 0.004 0.022 0.018 0.004 0.018 0.009 0.033 0.014 0.047l-0.001-0.003c0 0.009-0.013 0.009-0.022 0.009l-0.133 0.004c-0.013 0-0.031 0.009-0.044 0-0.004-0.018 0.022-0.013 0.027-0.022 0.001-0.004 0.002-0.008 0.002-0.013 0-0.008-0.002-0.016-0.006-0.023l0 0-0.044-0.133c0-0.013-0.013-0.031-0.031-0.031-0.009 0-0.027-0.009-0.018-0.018h0.044l0.129-0.009zM21.72 15.467c-0.004-0.018-0.018-0.031-0.036-0.031-0.013 0.004-0.022-0.027 0-0.018h0.067l0.031 0.040 0.093 0.129v-0.013l0.018-0.16c0.009-0.009 0.031 0 0.044-0.009 0.013 0 0.044 0 0.036 0.018-0.018 0-0.036 0.009-0.027 0.027l0.053 0.16c0 0.018 0.018 0.027 0.036 0.022 0.013 0 0.013 0.027 0 0.022h-0.080c-0.013 0.004-0.036 0.004-0.027-0.013 0.013 0 0.036-0.009 0.022-0.027l-0.044-0.142c0.004 0.004 0 0.013 0 0.018l-0.009 0.133-0.004 0.036c-0.013 0.004-0.018-0.004-0.022-0.013l-0.129-0.164 0.009 0.013c0.013 0.044 0.022 0.089 0.040 0.129 0 0.018 0.022 0.022 0.036 0.022 0.018 0.009 0.004 0.022-0.009 0.018h-0.067c-0.013 0-0.013-0.018 0-0.018 0.022 0 0.018-0.022 0.009-0.036l-0.044-0.147zM22.107 15.502c0 0.009 0.018 0 0.022 0 0.013 0 0.031 0 0.031-0.018 0-0.022-0.009-0.044-0.022-0.053-0.018-0.013-0.036-0.009-0.053-0.009l0.004 0.022 0.018 0.058zM22.129 15.573l0.018 0.044c0.013 0.009 0.027 0.004 0.040 0.004 0.009 0 0.022-0.009 0.018-0.022 0-0.027-0.013-0.058-0.040-0.067-0.007-0.002-0.014-0.002-0.022-0.002s-0.016 0.001-0.023 0.002l0.001-0v0.013l0.009 0.027zM22.045 15.467c-0.004-0.018-0.009-0.036-0.027-0.044-0.009 0-0.027 0-0.027-0.013s0.022 0 0.031-0.004c0.044 0 0.080-0.013 0.12 0 0.031 0.009 0.058 0.040 0.058 0.071 0 0.018-0.013 0.031-0.031 0.040 0-0.009 0.018 0 0.022 0 0.022 0.009 0.044 0.027 0.053 0.049s0.013 0.044 0 0.062c-0.018 0.018-0.044 0.018-0.067 0.018l-0.102 0.004c-0.013 0-0.018-0.022 0-0.018 0.013 0 0.018-0.018 0.009-0.031l-0.040-0.133zM22.267 15.458c0-0.013-0.009-0.036-0.027-0.044-0.009 0-0.027 0-0.027-0.013 0.009-0.013 0.027 0 0.044-0.004h0.089c0.036 0 0.067 0.027 0.076 0.062 0.009 0.018 0 0.044-0.013 0.053l-0.022 0.009c0.027 0.009 0.049 0.031 0.062 0.053l0.022 0.036c0.013 0.009 0.013-0.004 0.013-0.013 0.018-0.009 0.027 0.013 0.018 0.027-0.004 0.018-0.031 0.022-0.044 0.018-0.018 0-0.027-0.013-0.036-0.027l-0.044-0.076c-0.007-0.007-0.017-0.011-0.027-0.011-0.005 0-0.009 0.001-0.013 0.002l0-0v0.022l0.022 0.049c0.004 0.018 0.022 0.018 0.036 0.022 0.018 0 0.018 0.022 0 0.018h-0.080c-0.009 0-0.027 0.009-0.031 0-0.009-0.022 0.018-0.013 0.027-0.027l-0.009-0.036-0.036-0.12zM22.325 15.502c0.004 0.009 0.027 0 0.036 0 0.013 0 0.022-0.013 0.018-0.022 0-0.022-0.009-0.044-0.022-0.058-0.013-0.009-0.031-0.009-0.044-0.004-0.009 0-0.004 0.013 0 0.022l0.013 0.058zM22.636 15.387c0.009 0 0.013 0.013 0.013 0.022 0 0.013 0.009 0.022 0.013 0.036-0.009 0.013-0.022 0-0.022-0.009-0.009-0.009-0.013-0.027-0.031-0.027-0.009-0.001-0.019-0.001-0.029-0.001s-0.020 0-0.030 0.001l0.001-0c-0.009 0.004 0 0.018 0 0.027l0.018 0.058h0.036c0.013-0.009-0.004-0.031 0.009-0.036 0.018 0 0.018 0.018 0.018 0.031 0 0.018 0.013 0.040 0.018 0.058-0.004 0.013-0.022 0-0.022-0.009 0-0.013-0.018-0.022-0.031-0.018-0.004 0-0.022-0.009-0.018 0l0.022 0.076c0 0.013 0.018 0.013 0.031 0.013 0.018 0 0.040 0 0.053-0.009s0-0.027 0.004-0.036c0.013-0.009 0.027 0 0.022 0.013l0.009 0.044c0 0.009-0.013 0.009-0.018 0.009h-0.138c-0.013 0-0.027 0.009-0.036 0-0.013-0.018 0.013-0.013 0.018-0.022 0.009-0.009 0-0.022 0-0.031l-0.040-0.138c0-0.013-0.013-0.031-0.027-0.031s-0.027-0.004-0.022-0.018h0.044l0.133-0.004zM21.173 15.969c-0.004-0.018-0.009-0.036-0.027-0.044-0.013 0-0.031 0-0.022-0.013 0.013-0.009 0.027 0 0.044-0.004 0.036 0 0.071-0.009 0.107 0 0.054 0.012 0.098 0.050 0.115 0.101l0 0.001c0.009 0.036 0.013 0.071-0.009 0.102-0.022 0.027-0.062 0.036-0.098 0.036-0.031 0-0.058 0-0.084 0.009-0.009 0.004-0.027-0.004-0.018-0.018 0.013 0 0.031-0.009 0.027-0.022l-0.018-0.067-0.018-0.080zM21.245 16.080c0.004 0.013 0.009 0.031 0.018 0.040 0.013 0.009 0.031 0.004 0.044 0 0.018 0 0.036-0.018 0.040-0.040 0.001-0.006 0.001-0.012 0.001-0.018 0-0.029-0.007-0.056-0.019-0.080l0 0.001c-0.012-0.028-0.036-0.048-0.066-0.053l-0.001-0c-0.007-0.001-0.016-0.002-0.024-0.002s-0.017 0.001-0.025 0.002l0.001-0c-0.004 0 0 0.009 0 0.018l0.031 0.133zM21.56 15.88c0.013 0 0.013 0.013 0.018 0.022l0.009 0.040c-0.004 0.009-0.022 0-0.022-0.009-0.004-0.013-0.013-0.027-0.027-0.027-0.009-0.001-0.019-0.001-0.029-0.001s-0.020 0-0.030 0.001l0.001-0c-0.009 0.004 0 0.018 0 0.027 0 0.022 0.009 0.044 0.013 0.062 0.013 0 0.027 0 0.036-0.009s-0.004-0.027 0.009-0.031c0.018 0 0.013 0.022 0.018 0.031 0 0.018 0.013 0.036 0.013 0.058 0 0.013-0.022 0-0.022-0.009 0-0.018-0.018-0.022-0.031-0.018-0.004 0-0.022-0.004-0.013 0.004 0 0.022 0.009 0.044 0.018 0.071 0 0.013 0.018 0.013 0.031 0.013 0.018 0 0.040 0 0.053-0.013 0.009-0.009 0-0.027 0.009-0.036 0.013-0.009 0.018 0.004 0.018 0.018s0 0.027 0.009 0.044l-0.022 0.004-0.133 0.009c-0.013 0-0.027 0.009-0.040 0-0.009-0.009 0.004-0.018 0.018-0.018 0.013-0.004 0.009-0.022 0.009-0.031l-0.036-0.142c-0.004-0.013-0.013-0.031-0.027-0.031s-0.027-0.004-0.022-0.018l0.044-0.004 0.129-0.009zM21.849 16.062c0 0.013 0.013 0.027 0.027 0.027 0.009 0.004 0.027 0 0.031 0.013s-0.018 0.009-0.027 0.009l-0.076 0.004c-0.013 0-0.027 0.004-0.036 0-0.013 0-0.009-0.018 0.004-0.018s0.027-0.004 0.031-0.018l-0.004-0.036-0.031-0.124c0-0.013-0.018-0.013-0.027-0.013s-0.027 0.009-0.031-0.004c0-0.018 0.022-0.013 0.031-0.018l0.049-0.018c0.009 0 0.013 0.004 0.013 0.013l0.044 0.182zM22.013 15.916c0-0.018-0.013-0.036-0.031-0.036-0.013 0-0.031 0-0.036 0.013-0 0.002-0.001 0.005-0.001 0.008 0 0.015 0.007 0.028 0.018 0.036l0 0 0.040 0.022 0.009-0.027c0-0.003 0.001-0.006 0.001-0.009s-0-0.006-0.001-0.009l0 0zM22.049 16.049c0-0.027-0.022-0.040-0.044-0.044-0.009 0-0.018-0.013-0.022-0.009-0.011 0.008-0.019 0.021-0.019 0.036 0 0.003 0 0.006 0.001 0.009l-0-0c0.009 0.027 0.022 0.044 0.044 0.044 0.018 0.004 0.036 0 0.044-0.018 0.001-0.003 0.001-0.007 0.001-0.011s-0-0.008-0.001-0.011l0 0zM22.093 16.036c0.001 0.003 0.001 0.007 0.001 0.011 0 0.020-0.011 0.038-0.028 0.047l-0 0c-0.015 0.009-0.034 0.015-0.054 0.015-0.012 0-0.024-0.002-0.036-0.006l0.001 0c-0.027-0.008-0.048-0.030-0.053-0.057l-0-0c0-0.018 0.004-0.044 0.027-0.058 0 0 0.018-0.004 0.004-0.009-0.022-0.009-0.044-0.027-0.044-0.053-0.009-0.022 0-0.044 0.022-0.058 0.012-0.006 0.026-0.010 0.041-0.010 0.031 0 0.059 0.016 0.075 0.041l0 0c0.009 0.018 0.009 0.040 0 0.053l-0.027 0.022c0.022 0 0.044 0.018 0.053 0.036 0.009 0.004 0.013 0.018 0.013 0.027zM22.236 16.058c0.009 0 0.022 0 0.022-0.018 0.004-0.004 0-0.027 0.013-0.022 0.013 0 0.009 0.013 0.013 0.027 0 0.018 0 0.036-0.018 0.049-0.009 0.009-0.022 0.004-0.036 0.004h-0.076c-0.009 0-0.022 0.009-0.031 0s0-0.022 0-0.031c0.009-0.031 0.027-0.053 0.044-0.071 0.018-0.013 0.036-0.027 0.040-0.049 0-0.002 0-0.004 0-0.006 0-0.017-0.005-0.034-0.014-0.048l0 0c-0.008-0.013-0.022-0.021-0.038-0.021-0.009 0-0.018 0.003-0.025 0.008l0-0c-0.013 0.004-0.018 0.022-0.013 0.031 0.009 0.009 0.027 0 0.031 0.018 0.009 0.009 0 0.027-0.013 0.027-0.018 0-0.036-0.013-0.044-0.031-0.001-0.004-0.002-0.010-0.002-0.015 0-0.021 0.012-0.038 0.029-0.047l0-0c0.022-0.013 0.049-0.013 0.076-0.009 0.022 0.009 0.044 0.027 0.053 0.053 0.004 0.018 0.004 0.040-0.004 0.058-0.018 0.031-0.049 0.044-0.076 0.076-0.004 0.004-0.009 0.013-0.004 0.027 0-0.013 0.018-0.009 0.022-0.009h0.044zM22.413 16.040c0 0.013 0.009 0.027 0.022 0.031 0.009 0 0.027 0 0.031 0.009 0.004 0.013-0.013 0.013-0.022 0.013h-0.12c-0.009-0.004 0-0.022 0.009-0.018 0.013 0 0.027-0.004 0.031-0.018v-0.036l-0.031-0.124c0-0.013-0.013-0.013-0.022-0.013-0.013 0-0.027 0.009-0.031 0-0.009-0.022 0.013-0.018 0.022-0.022l0.053-0.018c0.009 0 0.013 0.004 0.018 0.013l0.036 0.182z"></path>
<path fill="#000" d="M21.147 12.418l-0.169 0.204c-0.053 0.231 0.080 0.409 0.342 0.56 0.209 0.133 0.6 0.164 0.724 0.058l-0.609-0.578-0.289-0.24z"></path>
<path fill="#448127" d="M22.382 18.413c-0.051-0.065-0.080-0.101-0.11-0.137l0.021 0.026c-0.387 0.522-0.872 0.949-1.431 1.259l-0.023 0.012c0.671-0.191 1.111-0.676 1.542-1.16zM21.689 20c0.304-0.594 0.573-1.064 0.859-1.521l-0.050 0.086c-0.051-0.067-0.082-0.106-0.113-0.145l0.019 0.025c-0.324 0.542-0.711 1.187-0.711 1.556zM23.556 14.911c-0.047-0.219-0.113-0.412-0.198-0.595l0.007 0.017c-0.485-0.808-1.141-1.467-1.922-1.941l-0.025-0.014v-0.013h0.013l-0.009-0.004h0.022l-0.009-0.013h0.018l-0.013-0.018h0.018l-0.013-0.013h0.022l-0.013-0.018h0.018l-0.018-0.013 0.027-0.004-0.022-0.013 0.022-0.004-0.018-0.013 0.027-0.009-0.022-0.013 0.027-0.013-0.027-0.018 0.031-0.009-0.031-0.013 0.027-0.018h-0.036l0.022-0.031h-0.031l0.013-0.022h-0.027l0.013-0.022-0.031 0.004 0.013-0.027-0.027 0.018 0.009-0.031-0.031 0.018 0.004-0.031-0.022 0.022v-0.031l-0.022 0.022v-0.031l-0.022 0.027v-0.031l-0.018 0.027-0.009-0.031-0.013 0.027-0.009-0.031-0.013 0.036-0.009-0.036-0.013 0.036-0.009-0.031-0.009 0.027-0.004-0.022-0.013 0.031-0.009-0.031-0.009 0.036-0.013-0.031-0.009 0.036-0.013-0.031v0.036l-0.018-0.027v0.036l-0.022-0.027v0.031l-0.018-0.013 0.009 0.031-0.022-0.013 0.009 0.031-0.018-0.013 0.004 0.027h-0.018l0.009 0.018h-0.013l0.009 0.018c-0.012 0.037-0.019 0.079-0.019 0.122 0 0.012 0 0.023 0.002 0.035l-0-0.002c0 0.009 0.027 0.018 0.031 0.027 0.013 0.018 0.009 0.027 0.009 0.027-0.071 0.116-0.133 0.204-0.138 0.338 0.053-0.071 0.116-0.16 0.196-0.16-0.040 0.067-0.058 0.271-0.013 0.307l0.036-0.062c0 0.044 0.004 0.080 0.018 0.102l0.044-0.076c0 0.067 0.009 0.12 0.027 0.147 0.019-0.028 0.043-0.052 0.070-0.071l0.001-0.001c-0.009 0.040-0.022 0.076-0.018 0.12l0.089-0.111c-0.018 0.071 0 0.124 0.018 0.2 0.018-0.089 0.027-0.102 0.067-0.138 0.004 0.084-0.009 0.16 0.009 0.209 0.036-0.076 0.062-0.067 0.089-0.116-0.009 0.071-0.022 0.147 0 0.209 0.014-0.049 0.044-0.089 0.084-0.115l0.001-0c0 0.098 0.022 0.080-0.036 0.164 0.027 0.009 0.111-0.018 0.16-0.040-0.022 0.053-0.018 0.093-0.040 0.133 0.044-0.027 0.089-0.067 0.129-0.107-0.018 0.062-0.067 0.124-0.044 0.182 0.013-0.058 0.058-0.102 0.102-0.111-0.009 0.031-0.013 0.098-0.058 0.129 0.107 0.009 0.151-0.062 0.204-0.12-0.004 0.062 0 0.107 0.071 0.191-0.013-0.107 0.009-0.084 0.058-0.147 0.027 0.093 0.053 0.196 0.151 0.267-0.044-0.102-0.044-0.156-0.027-0.218 0.013 0.067 0.076 0.147 0.089 0.209 0.013-0.071 0.022-0.138 0.044-0.182 0.031 0.073 0.053 0.157 0.062 0.245l0 0.004c0.022-0.044 0.040-0.089 0.049-0.138 0.88 0.916 1.076 2.080 0.116 3.311 0.342-0.231 0.431-0.6 0.622-0.916-0.187 0.413-0.267 0.876-0.6 1.218 0.32-0.276 0.387-0.529 0.578-0.796-0.2 0.556-0.489 1.164-0.88 1.724 0.054 0.057 0.123 0.133 0.193 0.208l0.021 0.023 0.178-0.307c0.418-0.684 1.098-1.667 0.756-3.16z"></path>
<path fill="#eac102" d="M21.031 12.236c-0.044 0.009-0.062 0.027-0.093 0.062 0.040 0.009 0.071 0.013 0.111 0.013 0.009 0 0.013-0.013 0.013-0.027l-0.009-0.044c0-0.009-0.027-0.004-0.036 0l0.013-0.004z"></path>
<path fill="#a08307" d="M20.933 12.298c0.011-0.004 0.026-0.009 0.041-0.013l0.003-0.001c0.015-0.004 0.033-0.007 0.051-0.009l0.002-0c-0.011 0.004-0.026 0.009-0.041 0.013l-0.003 0.001c-0.015 0.004-0.033 0.007-0.051 0.009l-0.002 0z"></path>
<path fill="#000" d="M21.267 12.24c0 0.020-0.016 0.036-0.036 0.036s-0.036-0.016-0.036-0.036c0-0.020 0.016-0.036 0.036-0.036s0.036 0.016 0.036 0.036z"></path>
<path fill="#000" d="M21.253 12.236c0 0.007-0.006 0.013-0.013 0.013s-0.013-0.006-0.013-0.013c0-0.007 0.006-0.013 0.013-0.013s0.013 0.006 0.013 0.013z"></path>
<path fill="#34541f" d="M21.698 19.987c0.028-0.092 0.051-0.157 0.075-0.221l-0.009 0.025c0.035-0.094 0.062-0.159 0.091-0.223l-0.011 0.027c0.053-0.129 0.12-0.253 0.182-0.373 0.090-0.167 0.159-0.286 0.231-0.403l-0.022 0.039c0.075-0.13 0.11-0.188 0.146-0.246l-0.039 0.068 0.111-0.178-0.107 0.178c0.009-0.021-0.026 0.039-0.061 0.098l-0.045 0.084-0.204 0.364c-0.051 0.089-0.113 0.212-0.171 0.337l-0.015 0.037c-0.017 0.035-0.044 0.098-0.070 0.162l-0.010 0.029c-0.017 0.039-0.041 0.104-0.063 0.17l-0.008 0.026zM20.858 19.565c0.096-0.040 0.17-0.074 0.241-0.111l-0.019 0.009c0.085-0.046 0.152-0.086 0.217-0.128l-0.013 0.008c0.148-0.093 0.275-0.188 0.395-0.292l-0.004 0.003c0.123-0.106 0.235-0.215 0.339-0.33l0.003-0.003c0.050-0.055 0.103-0.114 0.154-0.174l0.006-0.008 0.151-0.191c-0.060 0.081-0.108 0.143-0.157 0.205l0.010-0.014c-0.058 0.071-0.11 0.132-0.164 0.191l0.004-0.004c-0.108 0.121-0.219 0.231-0.338 0.334l-0.005 0.004c-0.116 0.099-0.243 0.193-0.378 0.277l-0.013 0.008c-0.053 0.033-0.121 0.071-0.191 0.107l-0.018 0.008c-0.052 0.028-0.125 0.062-0.2 0.094l-0.022 0.008zM22.516 18.262c0.052-0.075 0.115-0.172 0.176-0.271l0.015-0.027 0.178-0.302c0.016-0.023 0.071-0.125 0.125-0.227l0.040-0.084 0.164-0.311-0.076 0.156-0.080 0.16c-0.083 0.166-0.138 0.268-0.194 0.369l0.030-0.058c-0.075 0.136-0.134 0.235-0.195 0.332l0.017-0.030c-0.072 0.116-0.138 0.211-0.208 0.304l0.008-0.011zM22.782 17.147c0.070-0.084 0.137-0.177 0.198-0.274l0.006-0.011c0.056-0.087 0.112-0.189 0.162-0.295l0.007-0.016c0.090-0.191 0.167-0.413 0.218-0.645l0.004-0.021 0.018-0.089c0.013-0.074 0.024-0.165 0.031-0.258l0-0.008c0.004-0.053 0.007-0.114 0.007-0.176s-0.002-0.123-0.007-0.184l0 0.008c-0.012-0.13-0.032-0.248-0.061-0.362l0.003 0.016c-0.031-0.132-0.068-0.245-0.112-0.354l0.006 0.016c0.040 0.091 0.078 0.202 0.107 0.317l0.004 0.017c0.026 0.101 0.047 0.22 0.057 0.343l0.001 0.008c0.009 0.116 0.009 0.236 0 0.356-0.005 0.1-0.015 0.192-0.029 0.282l0.002-0.015c-0.010 0.055-0.016 0.083-0.023 0.111l0.005-0.027c-0.056 0.254-0.132 0.476-0.231 0.686l0.008-0.020c-0.059 0.121-0.118 0.223-0.184 0.321l0.006-0.010c-0.069 0.108-0.137 0.2-0.212 0.288l0.003-0.004z"></path>
<path fill="#34541f" d="M22.707 16.889c0.080-0.077 0.152-0.161 0.214-0.252l0.004-0.005c0.058-0.083 0.114-0.18 0.163-0.28l0.006-0.014c0.038-0.075 0.082-0.178 0.123-0.282l0.010-0.029c0.018-0.053 0.044-0.107 0.058-0.16l0.018-0.040 0.040-0.12c0.022-0.111 0.031-0.227 0.036-0.342 0-0.004 0-0.009 0-0.014 0-0.116-0.010-0.23-0.028-0.341l0.002 0.012c-0.018-0.111-0.044-0.222-0.076-0.333-0.041-0.135-0.080-0.243-0.124-0.348l0.009 0.023c0.037 0.082 0.077 0.189 0.113 0.299l0.007 0.025c0.029 0.091 0.055 0.204 0.074 0.319l0.002 0.015c0.017 0.099 0.027 0.213 0.027 0.329 0 0.005 0 0.009-0 0.014v-0.001c0 0.002 0 0.003 0 0.005 0 0.119-0.011 0.236-0.033 0.348l0.002-0.012-0.027 0.084-0.013 0.040-0.018 0.040-0.058 0.16c-0.052 0.133-0.099 0.236-0.149 0.336l0.011-0.025c-0.055 0.114-0.111 0.21-0.174 0.301l0.005-0.008c-0.067 0.097-0.14 0.181-0.221 0.257l-0.001 0.001z"></path>
<path fill="#34541f" d="M22.445 18.187c0.058-0.071 0.107-0.147 0.16-0.222l0.080-0.111 0.076-0.111c0.040-0.063 0.084-0.142 0.125-0.223l0.008-0.017 0.116-0.244c0.080-0.164 0.156-0.329 0.222-0.502 0.059-0.145 0.112-0.319 0.151-0.498l0.004-0.022c0.036-0.178 0.062-0.356 0.084-0.538 0.018-0.182 0.018-0.364 0-0.547-0.021-0.198-0.063-0.378-0.125-0.55l0.005 0.016c-0.070-0.192-0.146-0.354-0.235-0.509l0.008 0.016c0.082 0.139 0.16 0.302 0.224 0.471l0.007 0.022c0.057 0.155 0.099 0.336 0.119 0.523l0.001 0.010c0.022 0.178 0.018 0.364 0 0.547-0.018 0.178-0.044 0.36-0.080 0.538-0.043 0.203-0.097 0.378-0.163 0.547l0.008-0.023c-0.083 0.211-0.158 0.375-0.239 0.535l0.017-0.037-0.12 0.244c-0.049 0.098-0.093 0.176-0.141 0.253l0.007-0.013c-0.022 0.044-0.049 0.076-0.076 0.116l-0.24 0.333z"></path>
<path fill="#34541f" d="M22.569 18.325l0.311-0.516c0.077-0.128 0.172-0.301 0.261-0.478l0.023-0.051c0.080-0.155 0.155-0.339 0.215-0.53l0.007-0.026c0.031-0.098 0.053-0.191 0.076-0.289 0.008-0.034 0.017-0.085 0.025-0.137l0.002-0.015c0.035-0.221 0.058-0.479 0.062-0.742l0-0.005c0-0.2-0.018-0.4-0.053-0.596-0.041-0.216-0.102-0.409-0.184-0.589l0.006 0.016c-0.089-0.195-0.192-0.363-0.315-0.516l0.004 0.005c0.119 0.148 0.223 0.316 0.305 0.496l0.006 0.015c0.077 0.165 0.14 0.357 0.18 0.557l0.003 0.016c0.034 0.177 0.053 0.38 0.053 0.588 0 0.003 0 0.006 0 0.008v-0c0 0.2-0.013 0.4-0.040 0.6-0.008 0.078-0.014 0.13-0.021 0.182l0.003-0.031c-0.010 0.065-0.019 0.115-0.030 0.164l0.003-0.017c-0.026 0.12-0.052 0.217-0.082 0.312l0.006-0.023c-0.067 0.218-0.142 0.404-0.232 0.581l0.010-0.021c-0.089 0.178-0.191 0.356-0.289 0.524-0.15 0.259-0.253 0.425-0.358 0.591l0.047-0.079zM21.333 12.48h0.062c0.069 0.014 0.13 0.034 0.187 0.060l-0.005-0.002c0.076 0.036 0.151 0.080 0.218 0.133 0.071 0.052 0.133 0.106 0.191 0.164l0 0c0.026 0.028 0.052 0.058 0.077 0.090l0.003 0.004 0.080 0.102c-0.030-0.038-0.056-0.070-0.083-0.101l0.003 0.004c-0.029-0.031-0.058-0.060-0.088-0.088l-0.001-0.001c-0.057-0.060-0.118-0.115-0.183-0.166l-0.004-0.003c-0.063-0.049-0.135-0.094-0.211-0.13l-0.007-0.003c-0.070-0.031-0.151-0.053-0.237-0.062l-0.003-0z"></path>
<path fill="#448127" d="M22.062 12.96s0.133 0.080 0.209 0.196c0 0-0.209-0.040-0.356-0.204z"></path>
<path fill="#34541f" d="M22.062 12.96c0.044 0.025 0.082 0.053 0.116 0.085l-0-0c0.037 0.031 0.069 0.066 0.097 0.105l0.001 0.002 0.004 0.013h-0.009c-0.040-0.010-0.074-0.022-0.106-0.037l0.004 0.002c-0.037-0.014-0.067-0.029-0.097-0.046l0.003 0.002c-0.062-0.036-0.116-0.080-0.164-0.133 0.048 0.049 0.104 0.090 0.165 0.123l0.004 0.002c0.024 0.014 0.053 0.029 0.084 0.042l0.005 0.002c0.029 0.012 0.063 0.023 0.098 0.030l0.004 0.001v0.009c-0.014-0.022-0.029-0.041-0.045-0.058l0 0-0.053-0.053c-0.016-0.015-0.033-0.029-0.051-0.043l-0.002-0.001c-0.017-0.014-0.036-0.029-0.055-0.043l-0.003-0.002z"></path>
<path fill="#448127" d="M21.76 12.92s0.32 0.204 0.364 0.222c0 0-0.071-0.156-0.222-0.222z"></path>
<path fill="#34541f" d="M21.76 12.92l0.182 0.111c0.017 0.011 0.062 0.038 0.107 0.064l0.030 0.016 0.044 0.027v0.004c-0.014-0.025-0.029-0.047-0.045-0.068l0.001 0.001-0.049-0.062c-0.019-0.019-0.039-0.037-0.061-0.052l-0.001-0.001-0.067-0.040c0.027 0.012 0.051 0.025 0.072 0.041l-0.001-0.001c0.065 0.046 0.118 0.106 0.154 0.175l0.001 0.003 0.009 0.013-0.013-0.004-0.093-0.053-0.089-0.058c-0.089-0.054-0.148-0.092-0.207-0.131l0.025 0.015z"></path>
<path fill="#448127" d="M21.889 12.818s0.164 0.071 0.204 0.191c0 0-0.302-0.124-0.356-0.191z"></path>
<path fill="#34541f" d="M21.889 12.818c0.048 0.019 0.089 0.043 0.125 0.072l-0.001-0.001c0.018 0.016 0.034 0.033 0.048 0.052l0.001 0.001 0.036 0.067v0.009h-0.009c-0.050-0.024-0.079-0.039-0.108-0.054l0.019 0.009c-0.045-0.020-0.076-0.035-0.106-0.050l0.012 0.006c-0.038-0.019-0.067-0.036-0.096-0.053l0.007 0.004-0.044-0.027-0.036-0.036 0.040 0.031 0.044 0.027 0.089 0.044c0.039 0.021 0.098 0.051 0.159 0.079l0.023 0.010h-0.004c-0.009-0.022-0.021-0.041-0.036-0.058l0 0c-0.014-0.020-0.028-0.037-0.044-0.053l-0-0c-0.036-0.031-0.077-0.057-0.121-0.079l-0.003-0.001z"></path>
<path fill="#448127" d="M21.636 12.947s0.293 0.209 0.382 0.209c0 0-0.089-0.147-0.24-0.209z"></path>
<path fill="#34541f" d="M21.636 12.947c0.038 0.026 0.098 0.065 0.158 0.102l0.024 0.014c0.039 0.024 0.087 0.049 0.137 0.072l0.010 0.004 0.053 0.013-0.004 0.009c-0.030-0.047-0.064-0.088-0.102-0.124l-0-0-0.062-0.049c-0.021-0.016-0.044-0.030-0.068-0.043l-0.003-0.001c0.049 0.022 0.098 0.053 0.133 0.089 0.043 0.036 0.079 0.077 0.11 0.122l0.001 0.002v0.004h-0.004c-0.021-0.001-0.041-0.006-0.059-0.014l0.001 0c-0.020-0.008-0.037-0.016-0.052-0.024l0.003 0.002c-0.039-0.021-0.070-0.038-0.099-0.057l0.006 0.004c-0.042-0.027-0.072-0.047-0.102-0.068l0.009 0.006c-0.038-0.025-0.067-0.046-0.096-0.067l0.007 0.005z"></path>
<path fill="#448127" d="M21.636 13.009s0.151 0.133 0.24 0.133c0 0-0.089-0.147-0.24-0.213z"></path>
<path fill="#34541f" d="M21.636 13.009c0.032 0.026 0.068 0.052 0.106 0.077l0.005 0.003 0.062 0.031c0.019 0.009 0.042 0.015 0.066 0.018l0.001 0-0.004 0.004c-0.015-0.024-0.029-0.044-0.045-0.063l0.001 0.001c-0.035-0.042-0.074-0.079-0.118-0.11l-0.002-0.001c-0.020-0.014-0.044-0.027-0.068-0.039l-0.003-0.001c0.049 0.022 0.098 0.049 0.133 0.089 0.043 0.035 0.079 0.074 0.11 0.118l0.001 0.002v0.009h-0.004c-0.027 0-0.044-0.009-0.071-0.018-0.024-0.012-0.045-0.024-0.064-0.037l0.002 0.001-0.053-0.040c-0.020-0.015-0.037-0.030-0.054-0.045l0.001 0.001z"></path>
<path fill="#448127" d="M21.556 12.72s0.32 0.227 0.356 0.351c0 0-0.284-0.133-0.338-0.2z"></path>
<path fill="#34541f" d="M21.556 12.72c0.041 0.029 0.075 0.054 0.107 0.079l-0.005-0.004c0.038 0.029 0.069 0.055 0.101 0.082l-0.003-0.002c0.032 0.028 0.061 0.057 0.088 0.088l0.001 0.001 0.044 0.044 0.031 0.062v0.009l-0.009-0.004c-0.050-0.023-0.079-0.038-0.108-0.053l0.019 0.009c-0.043-0.020-0.072-0.035-0.101-0.050l0.012 0.006c-0.035-0.021-0.063-0.038-0.090-0.057l0.005 0.003c-0.018-0.011-0.032-0.022-0.046-0.032l0.002 0.001c-0.012-0.009-0.022-0.019-0.031-0.031l-0-0 0.036 0.031c0.036 0.023 0.079 0.048 0.124 0.071l0.009 0.004c0.037 0.021 0.095 0.051 0.154 0.079l0.023 0.010-0.009 0.004c-0.008-0.020-0.019-0.038-0.031-0.054l0 0c-0.013-0.018-0.026-0.034-0.040-0.049l0 0-0.089-0.089c-0.029-0.028-0.059-0.055-0.090-0.082l-0.003-0.003c-0.026-0.020-0.059-0.045-0.093-0.069l-0.010-0.007z"></path>
<path fill="#406325" d="M19.778 19.125c-0.252 0.135-0.552 0.214-0.869 0.214-0.013 0-0.026-0-0.039-0l0.002 0c0.444-0.364 0.876-0.373 0.907-0.213zM22.88 19.325c0.231 0.209 0.933 0.356 1.044 0.329-0.471-0.476-0.982-0.524-1.044-0.329z"></path>
<path fill="#67923d" d="M19.778 19.125c-0.031-0.164-0.467-0.156-0.907 0.213 0.266-0.11 0.574-0.186 0.896-0.213l0.011-0.001zM22.885 19.32c0.062-0.196 0.569-0.147 1.040 0.333-0.301-0.152-0.65-0.268-1.018-0.33l-0.022-0.003z"></path>
</svg>
