<!-- Generated by IcoMoon.io -->
<svg version="1.1" xmlns="http://www.w3.org/2000/svg" width="43" height="32" viewBox="0 0 43 32">
<title>gu</title>
<path fill="#be0027" d="M0 0h42.667v32h-42.667z"></path>
<path fill="#3b5aa3" d="M1.707 1.82h39.3v28.56h-39.3z"></path>
<path fill="#cbe0e5" d="M20.96 27.547c0.084 0.041 0.183 0.065 0.287 0.065 0.099 0 0.193-0.021 0.277-0.060l-0.004 0.002c9.187-4.887 9.187-18.287 0.007-23.107-0.081-0.038-0.176-0.060-0.276-0.060-0.111 0-0.215 0.027-0.308 0.075l0.004-0.002c-8.953 4.893-8.98 18.14 0.007 23.087z"></path>
<path fill="#add2d9" d="M20.96 27.793c0.133 0.113 0.427 0.1 0.56 0 6.767-5.067 6.8-8.22 6.507-8.22h-13.4c-0.2 0 0.12 3.213 6.333 8.22z"></path>
<path fill="#fdf9a1" d="M15.687 22.080c0.234-0.076 0.502-0.12 0.781-0.12 0.391 0 0.762 0.086 1.095 0.24l-0.016-0.007c0.507 0.267 0.8 0.267 1.347 0.267 0.573 0.013 1.020 0.433 1.64 0.453 1.14 0.027 1.62 0.593 0.733 0.6-0.413 0-1.313-0.287-1.747-0.227-0.907 0.093-1.48 0.293-2.333 1.247l0.987 0.667c0.853-0.34 0.993-0.733 1.467-0.747 0.533-0.020 0.713-0.347 1.333-0.347 0.154 0.014 0.333 0.021 0.514 0.021 0.601 0 1.181-0.086 1.73-0.246l-0.044 0.011c0.987-0.227 0.52-0.92-0.080-1.167-0.487-0.207-1.387-0.007-1.947-0.213-0.427-0.167-0.080-0.433 0.153-0.487 0.227-0.047 0.473 0.033 0.76 0.080 0.513 0.040 1.16-0.007 1.607-0.080 0.933-0.14 0.893-0.413 1.333-0.42 0.333-0.020 0.58-0.113 0.8-0.273 0.267-0.18 0.54-0.533 0.86-0.52l0.847 0.033-1.2 2.693-3.38 3.447-1.753 0.667-3.853-2.513-1.94-2.98 0.313-0.080z"></path>
<path fill="#179a3b" d="M20.12 19.467l7.733-0.040 0.133-0.687s-0.273-0.040-0.5-0.053c-0.273-0.020-0.753 0.293-1.067 0.287-0.233 0-0.487-0.4-0.713-0.4-0.4 0-0.427 0.353-0.8 0.367-0.3-0.013-0.427-0.24-0.82-0.213-0.4 0.020-0.373 0.247-0.887 0.233-0.68-0.020-0.953-0.607-1.5-0.613-0.907-0.013-0.933 0.867-1.587 1.113z"></path>
<path fill="#fdf9a1" d="M20.12 19.627l7.96-0.040v-0.213l-8.147 0.040 0.18 0.213z"></path>
<path fill="#a79270" d="M23.387 22.020c0.127 0.467 0.253 0.627 0.747 0.753 0.487 0.113 1.233-0.36 0.773-0.82-0.44-0.427-0.907-0.533-1.3-0.92-0.833-0.82-2.087-2.833-2.087-4.253 0-1.22-0.12-3.72-0.12-6.087 0-0.153-0.467 0.427-0.467 0.587 0.027 2.087 0.027 3.667 0.107 5.773 0.133 1.54 0.867 2.58 1.513 3.513 0.287 0.453 0.707 0.933 0.833 1.453z"></path>
<path fill="#239e46" d="M17.307 10.727c-0.1 0.2 0.24-0.060 0.32-0.087 0.447-0.16 0.62-0.72 1.387-0.38 0.6 0.26 1.407 0.107 0.987 0.373-0.52 0.313-1.567 0.66-1.587 2.213 0.087 0.147 0.093 0.127 0.167-0.040 0.16-0.36 0.913-1.34 1.287-1.26 0.153 0.040 0.593-0.447 0.6-0.307 0.047 0.387-0.6 1.173-0.587 2.22 0 0.247 0.3 0.327 0.44 0.153 0.147-0.153 0.227-0.307 0.48-0.507 0.44-0.36 0.32-1.907 0.373-1.833 0.313 0.4 0.36 1.553 0.827 2.020 0.393 0.393 0.707 0.2 0.62-0.333-0.167-1.093-0.68-0.78-0.927-1.907-0.053-0.22-0.067-0.413 0.227-0.327 0.353 0.107 0.567 0.267 0.827 0.667 0.267 0.387 0.76 0.753 1.047 0.973 0.5 0.387 0.68 0.053 0.44-0.44-0.308-0.558-0.795-0.984-1.382-1.207l-0.018-0.006c-0.413-0.147-0.56-0.16-0.92-0.227-0.1-0.020-0.2-0.227-0.027-0.34 0.367-0.267 0.811-0.45 1.293-0.512l0.014-0.001c0.447-0.013 0.8 0.347 1.113 0.44 0.627 0.16 0.627-0.233 0.347-0.533-0.227-0.247-0.707-0.667-1.153-0.607-0.9 0.113-0.84 0.087-1.4 0.453-0.2 0.12-0.427 0.253-0.34 0.107 0.2-0.367 0.013-0.3 0.327-0.673 0.24-0.267 0.42-0.467 0.667-0.533 0.227-0.060 0.533-0.3 0.62-0.427 0.227-0.307 0.033-0.487-0.313-0.38-0.307 0.080-0.467 0.28-0.667 0.333-0.493 0.16-0.887 1.267-0.947 1.427-0.073 0.187-0.16 0.093-0.147-0.067 0.067-0.78 0.133-2.1-0.133-2.64-0.427-0.8-0.387-0.427-0.547-0.047-0.24 0.6-0.153 1.167 0 1.753 0.067 0.293 0.307 0.627 0.353 0.86 0.033 0.18-0.107-0.053-0.187-0.167-0.26-0.4-0.453-0.667-0.88-0.887-0.265-0.112-0.572-0.177-0.895-0.177-0.16 0-0.316 0.016-0.466 0.046l0.015-0.003c-0.12 0.040 0.133 0.213 0.233 0.293 0.287 0.227 0.827 0.3 1.2 0.527 0.307 0.193 0.547 0.313 0.653 0.58 0.040 0.2 0.107 0.493-0.027 0.487-0.34-0.020-0.867-0.32-1.96-0.2-0.56 0.080-1.040 0.553-1.353 1.127z"></path>
<path fill="#000" d="M19.687 20.707h0.313v0.527h-0.313z"></path>
<path fill="#fdf9ff" d="M18.113 17.193c1.253 1.733 3.267 2.747 3.307 3.533h-3.92c0.9-1.080 1.453-1.813 0.613-3.533z"></path>
<path fill="#a68861" d="M16.973 20.767c1.707 0.38 3.74 0.593 5.040-0.053 0.013 0.38-0.42 0.933-0.78 0.933h-3.267c0.38-0.060 0.6-0.173 1.213-0.2l-1.733 0.013c-0.2 0.007-0.533-0.507-0.473-0.693z"></path>
<path fill="#be0027" d="M20.84 28.34c-9.64-5.313-9.613-19.527-0.013-24.78l-0.004 0.002c0.099-0.052 0.211-0.081 0.331-0.081 0.109 0 0.212 0.024 0.3 0.066 9.847 5.173 9.84 19.553-0.013 24.8-0.153 0.080-0.427 0.087-0.6-0.013zM20.887 27.153c0.080 0.040 0.174 0.064 0.274 0.064 0.094 0 0.183-0.021 0.263-0.059l-0.004 0.002c8.24-4.853 8.34-17.673 0.007-22.267-0.16-0.12-0.393-0.080-0.553 0-7.893 4.673-8.333 16.967 0.013 22.26z"></path>
</svg>
