<!-- Generated by IcoMoon.io -->
<svg version="1.1" xmlns="http://www.w3.org/2000/svg" width="43" height="32" viewBox="0 0 43 32">
<title>hk</title>
<path fill="#ba0000" d="M44.295 32.085h-45.834v-32.085h45.834z"></path>
<path fill="#fff" d="M20.726 15.529s-3.234-1.391-2.77-5.001c0.445-1.736 1.241-2.92 2.676-3.566 0.677-0.207 1.366-0.301 2.068-0.357-0.188 0.175-0.338 0.351-0.42 0.564-0.15 0.401-0.038 0.777 0.169 1.159 0.257 0.439 0.414 0.89 0.464 1.479 0.010 0.080 0.016 0.173 0.016 0.267 0 0.754-0.363 1.422-0.924 1.84l-0.006 0.004c-0.414 0.32-0.902 0.432-1.303 0.796-0.313 0.301-0.501 0.608-0.564 1.134-0.013 1.009 0.257 1.153 0.595 1.679z"></path>
<path fill="#ba0000" d="M20.105 10.309v-0.019"></path>
<path fill="#ba0000" d="M20.895 9.682l0.207 0.345-0.376-0.157-0.295 0.313 0.050-0.407-0.376-0.157 0.407-0.094 0.050-0.401 0.207 0.345 0.414-0.094z"></path>
<path fill="#fff" d="M21.001 15.291s0.376-3.503 3.967-4.117c1.792-0.075 3.158 0.332 4.199 1.523 0.395 0.583 0.683 1.216 0.94 1.867-0.219-0.125-0.426-0.219-0.664-0.232-0.42-0.031-0.752 0.188-1.053 0.495-0.345 0.381-0.773 0.68-1.256 0.87l-0.023 0.008c-0.273 0.124-0.592 0.196-0.928 0.196-0.512 0-0.984-0.168-1.366-0.451l0.006 0.004c-0.426-0.307-0.677-0.739-1.141-1.015-0.258-0.156-0.57-0.248-0.903-0.248-0.124 0-0.245 0.013-0.362 0.037l0.011-0.002c-0.971 0.288-1.021 0.589-1.429 1.065z"></path>
<path fill="#ba0000" d="M25.808 13.173h0.019"></path>
<path fill="#ba0000" d="M26.641 13.743l-0.269 0.295 0.038-0.407-0.376-0.188 0.395-0.063 0.038-0.42 0.213 0.376 0.401-0.075-0.269 0.295 0.207 0.376z"></path>
<path fill="#fff" d="M21.24 15.541s3.447-0.752 5.164 2.463c0.645 1.673 0.689 3.096-0.107 4.456-0.426 0.564-0.94 1.034-1.473 1.491 0.050-0.251 0.069-0.476 0.006-0.702-0.1-0.414-0.414-0.658-0.802-0.846-0.495-0.22-0.91-0.539-1.236-0.934l-0.005-0.006c-0.368-0.405-0.593-0.946-0.593-1.539 0-0.252 0.041-0.494 0.115-0.72l-0.005 0.016c0.15-0.501 0.483-0.877 0.595-1.404 0.026-0.113 0.041-0.243 0.041-0.376 0-0.323-0.087-0.626-0.24-0.886l0.004 0.008c-0.583-0.827-0.884-0.783-1.466-1.021z"></path>
<path fill="#ba0000" d="M24.774 19.433l0.013 0.013"></path>
<path fill="#ba0000" d="M24.498 20.404l-0.37-0.163 0.407-0.094 0.050-0.42 0.194 0.357 0.407-0.094-0.282 0.313 0.188 0.357-0.363-0.163-0.282 0.32z"></path>
<path fill="#fff" d="M21.164 15.899s1.686 3.096-0.909 5.64c-1.429 1.090-2.782 1.535-4.311 1.153-0.658-0.251-1.253-0.608-1.849-0.996 0.251-0.019 0.483-0.063 0.683-0.188 0.363-0.213 0.508-0.583 0.583-1.003 0.070-0.552 0.267-1.047 0.559-1.471l-0.007 0.011c0.41-0.663 1.133-1.097 1.957-1.097 0.021 0 0.043 0 0.064 0.001l-0.003-0c0.526 0.006 0.978 0.226 1.517 0.188 0.432-0.056 0.771-0.175 1.153-0.551 0.627-0.783 0.501-1.065 0.564-1.692z"></path>
<path fill="#ba0000" d="M18.42 20.385l-0.006 0.013"></path>
<path fill="#ba0000" d="M17.411 20.392l0.056-0.401 0.207 0.357 0.414-0.063-0.288 0.288 0.207 0.357-0.382-0.182-0.288 0.288 0.050-0.401-0.382-0.182z"></path>
<path fill="#fff" d="M20.782 15.83s-2.356 2.619-5.627 1.028c-1.504-0.984-2.369-2.118-2.513-3.685 0.019-0.708 0.15-1.385 0.32-2.068 0.107 0.226 0.226 0.426 0.407 0.577 0.32 0.269 0.721 0.282 1.147 0.213 0.21-0.048 0.45-0.075 0.697-0.075 0.303 0 0.596 0.041 0.874 0.118l-0.023-0.005c0.812 0.175 1.454 0.762 1.706 1.525l0.005 0.016c0.169 0.495 0.113 0.996 0.332 1.491 0.188 0.389 0.414 0.664 0.896 0.902 0.953 0.332 1.172 0.119 1.78-0.031z"></path>
<path fill="#ba0000" d="M15.637 14.739l-0.013-0.006"></path>
<path fill="#ba0000" d="M15.299 13.787l0.395-0.081-0.269 0.313 0.194 0.37-0.363-0.175-0.269 0.313 0.044-0.426-0.37-0.175 0.395-0.081 0.044-0.426z"></path>
</svg>
