<!-- Generated by IcoMoon.io -->
<svg version="1.1" xmlns="http://www.w3.org/2000/svg" width="43" height="32" viewBox="0 0 43 32">
<title>hm</title>
<path fill="#006" d="M0 0h42.667v32h-42.667z"></path>
<path fill="#fff" d="M19.987 26.167l-2.913 0.253 0.4 2.893-2.007-2.113-2.007 2.113 0.4-2.893-2.913-0.253 2.513-1.487-1.62-2.433 2.733 1.033 0.893-2.78 0.9 2.78 2.733-1.033-1.62 2.433zM32.44 28.833l-0.707-1.053 1.187 0.447 0.387-1.207 0.387 1.207 1.187-0.447-0.7 1.053 1.093 0.647-1.267 0.113 0.173 1.26-0.867-0.927-0.88 0.927 0.173-1.26-1.267-0.107zM32.433 10.027l-0.7-1.053 1.187 0.447 0.387-1.207 0.387 1.207 1.187-0.447-0.7 1.053 1.093 0.653-1.267 0.107 0.173 1.26-0.867-0.92-0.88 0.913 0.173-1.253-1.267-0.107zM25.387 17.667l-0.7-1.053 1.187 0.447 0.387-1.207 0.393 1.207 1.187-0.447-0.707 1.053 1.093 0.647-1.267 0.113 0.18 1.26-0.88-0.927-0.867 0.927 0.167-1.26-1.267-0.107zM38.713 15.787l-0.713-1.053 1.187 0.447 0.387-1.207 0.393 1.207 1.187-0.447-0.7 1.053 1.087 0.647-1.267 0.113 0.173 1.253-0.867-0.92-0.88 0.92 0.173-1.253-1.267-0.113zM36.133 21.333l-0.687 0.433 0.193-0.793-0.62-0.52 0.807-0.067 0.307-0.747 0.313 0.753 0.807 0.060-0.62 0.52 0.193 0.793z"></path>
<path fill="#006" d="M0 0h21.333v16h-21.333z"></path>
<path fill="#fff" d="M2.5 0l8.133 6.033 8.1-6.033h2.6v2.067l-8 5.967 8 5.933v2.033h-2.667l-8-5.967-7.967 5.967h-2.7v-2l7.967-5.933-7.967-5.933v-2.133z"></path>
<path fill="#c8102e" d="M14.133 9.367l7.2 5.3v1.333l-9.033-6.633zM8 10.033l0.2 1.167-6.4 4.8h-1.8zM21.333 0v0.1l-8.3 6.267 0.067-1.467 6.567-4.9zM0 0l7.967 5.867h-2l-5.967-4.467z"></path>
<path fill="#fff" d="M8.033 0v16h5.333v-16zM0 5.333v5.333h21.333v-5.333z"></path>
<path fill="#c8102e" d="M0 6.433v3.2h21.333v-3.2zM9.1 0v16h3.2v-16z"></path>
</svg>
