<!-- Generated by IcoMoon.io -->
<svg version="1.1" xmlns="http://www.w3.org/2000/svg" width="43" height="32" viewBox="0 0 43 32">
<title>hn</title>
<path fill="#0073cf" d="M0 0h42.667v32h-42.667z"></path>
<path fill="#fff" d="M0 10.667h42.667v10.667h-42.667z"></path>
<path fill="#0073cf" d="M20.8 16l0.889 0.178-0.356-1.956z"></path>
<path fill="#0073cf" d="M21.867 16l-0.889 0.178 0.356-1.956z"></path>
<path fill="#0073cf" d="M21.169 15.493l0.106 0.9 1.75-0.942z"></path>
<path fill="#0073cf" d="M21.498 16.507l-0.444-0.79 1.97-0.266z"></path>
<path fill="#0073cf" d="M21.169 16.507l0.444-0.79-1.97-0.266z"></path>
<path fill="#0073cf" d="M21.498 15.493l-0.106 0.9-1.75-0.942z"></path>
<path fill="#0073cf" d="M21.765 15.687l-0.824 0.379 1.437 1.373z"></path>
<path fill="#0073cf" d="M20.902 16.314l0.615-0.666 0.862 1.791z"></path>
<path fill="#0073cf" d="M21.765 16.314l-0.615-0.666-0.862 1.791z"></path>
<path fill="#0073cf" d="M20.902 15.687l0.824 0.379-1.437 1.373z"></path>
<path fill="#0073cf" d="M8.867 2.487l0.033 0.007-0.013-0.073z"></path>
<path fill="#0073cf" d="M8.907 2.487l-0.033 0.007 0.013-0.073z"></path>
<path fill="#0073cf" d="M8.893 2.506l-0.017-0.030 0.074-0.010z"></path>
<path fill="#0073cf" d="M8.893 2.468l-0.004 0.034-0.066-0.035z"></path>
<path fill="#0073cf" d="M8.87 2.498l0.023-0.025 0.032 0.067z"></path>
<path fill="#0073cf" d="M8.87 2.475l0.031 0.014-0.054 0.051z"></path>
</svg>
