<!-- Generated by IcoMoon.io -->
<svg version="1.1" xmlns="http://www.w3.org/2000/svg" width="43" height="32" viewBox="0 0 43 32">
<title>ht</title>
<path fill="#d21034" d="M0 0h42.667v32h-42.667z"></path>
<path fill="#00209f" d="M0 0h42.667v16h-42.667z"></path>
<path fill="#fff" d="M16.287 11.98h10.093v8.033h-10.093z"></path>
<path fill="#016a16" d="M23.367 17.787l-2.067 0.067-2.047 0.020s-1.053 0.387-1.487 0.473c-0.427 0.087-0.373 0.227-0.7 0.307-0.267 0.060-0.3 0.073-0.453 0.087-0.1 0-0.213 0.080-0.333 0.16v1.113h10.1v-1.060c-0.107-0.060-0.213-0.1-0.32-0.133-0.147-0.053-0.247-0.107-0.513-0.167-0.333-0.073-0.28-0.22-0.707-0.307-0.433-0.087-1.473-0.56-1.473-0.56z"></path>
<path fill="#f1b517" d="M20.747 15.307h0.149l0.277 1.141-0.064 0.363-0.363-1.493z"></path>
<path fill="#fff" d="M20.587 14.539l0.107 0.885h0.107l-0.213-0.875z"></path>
<path fill="#f1b517" d="M20.875 16.491l-0.459-1.227 0.171-0.011 0.533 1.493-0.245-0.256z"></path>
<path fill="#fff" d="M20.203 14.56l0.192 0.853h0.149l-0.341-0.853z"></path>
<path fill="#f1b517" d="M20.469 16.064l-0.267-0.587 0.107-0.021 0.501 0.96-0.341-0.352z"></path>
<path fill="#fff" d="M19.84 14.805l0.309 0.811h0.149l-0.448-0.811z"></path>
<path fill="#0a328c" d="M20.512 16.149l-1.227-1.333c-0.384 0.299-0.309 0.853-0.309 0.853l1.387 1.088 0.139-0.608z"></path>
<path fill="#d20014" d="M21.216 16.875l-0.907-0.917c-0.384 0.021-0.085 0.587-0.064 0.661l0.96 0.821v-0.565z"></path>
<path fill="#f1b517" d="M21.131 16.725l-1.867-2.005-0.075 0.053 1.984 2.197-0.043-0.245zM19.157 14.592l-0.043-0.053v-0.096l-0.384-0.245 0.171 0.395 0.139 0.021 0.032 0.043 0.085-0.064z"></path>
<path fill="#f1b517" d="M18.955 14.731c0.078-0.097 0.174-0.175 0.283-0.232l0.005-0.002 0.107 0.16-0.235 0.192-0.16-0.107z"></path>
<path fill="#0a328c" d="M18.752 15.072l0.064 0.107c0.043-0.011 0.427-0.373 0.427-0.373h0.288l0.075-0.096c-0.213-0.213-0.395 0.032-0.395 0.032l-0.459 0.32z"></path>
<path fill="#d20014" d="M18.987 15.253c0-0.107 0.192-0.341 0.213-0.352 0.139 0.043 0.267 0.128 0.416-0.192-0.128 0.149-0.373 0-0.373 0l-0.107 0.085v0.043l-0.32 0.299 0.16 0.117z"></path>
<path fill="#0a328c" d="M19.979 16.501l-1.536-1.216c-0.267 0.267-0.043 1.088-0.043 1.088l1.493 0.811 0.075-0.683z"></path>
<path fill="#d20014" d="M21.248 17.493l-1.269-1.024c-0.427 0.064-0.085 0.693-0.064 0.768l1.333 0.725v-0.48z"></path>
<path fill="#f1b517" d="M21.195 17.28l-2.731-2.048-0.053 0.064 2.859 2.24-0.075-0.256zM18.336 15.125l-0.043-0.043-0.021-0.085-0.427-0.181 0.245 0.352h0.139l0.043 0.043 0.064-0.085z"></path>
<path fill="#f1b517" d="M18.165 15.296c0.063-0.111 0.145-0.203 0.243-0.276l0.002-0.002 0.128 0.139-0.192 0.224-0.181-0.085z"></path>
<path fill="#0a328c" d="M18.027 15.637v0.117c0.043-0.021 0.395-0.395 0.395-0.395l0.267-0.053 0.064-0.085c-0.192-0.224-0.395 0.075-0.395 0.075l-0.341 0.341z"></path>
<path fill="#d20014" d="M18.24 15.84c-0.021-0.107 0.128-0.405 0.149-0.427 0.171 0.053 0.32 0.128 0.373-0.213-0.107 0.171-0.373 0.043-0.373 0.043l-0.085 0.107v0.053l-0.267 0.352 0.203 0.085z"></path>
<path fill="#0a328c" d="M19.861 17.248c-2.104-1.136-2.749-1.507-3.392-1.881l1.419 0.761c-0.139 0.245-0.011 0.587 0.053 0.64 0 0.16-0.064 0.245 0.075 0.587 0.043 0.213 0.139 0.416 0.288 0.533 0.171 0.683 0.875 0.736 1.141 0.171l0.427-0.811z"></path>
<path fill="#d20014" d="M21.152 17.973l-1.333-0.779c-0.427 0.053 0 0.853 0.032 0.928l1.301 0.459v-0.608z"></path>
<path fill="#f1b517" d="M20.928 17.685l-3.019-1.6-0.053 0.064 3.2 1.781-0.128-0.245zM17.76 16l-0.053-0.032-0.032-0.085-0.437-0.107 0.288 0.309 0.128-0.021 0.064 0.032 0.043-0.096z"></path>
<path fill="#f1b517" d="M17.621 16.192c0.043-0.107 0.085-0.203 0.192-0.32l0.149 0.117-0.149 0.256-0.192-0.053z"></path>
<path fill="#0a328c" d="M17.504 16.555l0.064 0.128 0.32-0.491 0.267-0.096 0.053-0.107c-0.213-0.192-0.373 0.149-0.373 0.149l-0.331 0.416z"></path>
<path fill="#d20014" d="M17.792 16.725c-0.021-0.107 0.053-0.448 0.075-0.459 0.16 0.053 0.299 0.064 0.341-0.277-0.107 0.16-0.352 0.107-0.352 0.107l-0.075 0.107 0.011 0.043-0.213 0.427 0.213 0.053z"></path>
<path fill="#f1b517" d="M21.909 15.307h-0.149l-0.277 1.141 0.064 0.363 0.363-1.493z"></path>
<path fill="#fff" d="M22.069 14.539l-0.107 0.885h-0.107l0.213-0.875z"></path>
<path fill="#f1b517" d="M21.781 16.491l0.459-1.227-0.171-0.011-0.533 1.493 0.245-0.256z"></path>
<path fill="#fff" d="M22.453 14.56l-0.192 0.853h-0.149l0.341-0.853z"></path>
<path fill="#f1b517" d="M22.187 16.064l0.267-0.587-0.107-0.021-0.501 0.96 0.341-0.352z"></path>
<path fill="#fff" d="M22.816 14.805l-0.309 0.811h-0.149l0.448-0.811z"></path>
<path fill="#0a328c" d="M22.144 16.149l1.227-1.333c0.384 0.299 0.309 0.853 0.309 0.853l-1.387 1.088-0.139-0.608z"></path>
<path fill="#d20014" d="M21.44 16.875l0.907-0.917c0.384 0.021 0.085 0.587 0.064 0.661l-0.96 0.821v-0.565z"></path>
<path fill="#f1b517" d="M21.525 16.725l1.867-2.005 0.075 0.053-1.984 2.197 0.043-0.245zM23.499 14.592l0.043-0.053v-0.096l0.384-0.245-0.171 0.395-0.139 0.021-0.032 0.043-0.085-0.064z"></path>
<path fill="#f1b517" d="M23.701 14.731c-0.078-0.097-0.174-0.175-0.283-0.232l-0.005-0.002-0.107 0.16 0.235 0.192 0.16-0.107z"></path>
<path fill="#0a328c" d="M23.904 15.072l-0.064 0.107c-0.043-0.011-0.427-0.373-0.427-0.373h-0.288l-0.075-0.096c0.213-0.213 0.395 0.032 0.395 0.032l0.459 0.32z"></path>
<path fill="#d20014" d="M23.669 15.253c0-0.107-0.192-0.341-0.213-0.352-0.139 0.043-0.267 0.128-0.416-0.192 0.128 0.149 0.373 0 0.373 0l0.107 0.085v0.043l0.32 0.299-0.16 0.117z"></path>
<path fill="#0a328c" d="M22.677 16.501l1.536-1.216c0.267 0.267 0.043 1.088 0.043 1.088l-1.493 0.811-0.075-0.683z"></path>
<path fill="#d20014" d="M21.408 17.493l1.269-1.024c0.427 0.064 0.085 0.693 0.064 0.768l-1.333 0.725v-0.48z"></path>
<path fill="#f1b517" d="M21.461 17.28l2.731-2.048 0.053 0.064-2.859 2.24 0.075-0.256zM24.32 15.125l0.043-0.043 0.021-0.085 0.427-0.181-0.245 0.352h-0.139l-0.043 0.043-0.064-0.085z"></path>
<path fill="#f1b517" d="M24.491 15.296c-0.063-0.111-0.145-0.203-0.243-0.276l-0.002-0.002-0.128 0.139 0.192 0.224 0.181-0.085z"></path>
<path fill="#0a328c" d="M24.629 15.637v0.117c-0.043-0.021-0.395-0.395-0.395-0.395l-0.267-0.053-0.064-0.085c0.192-0.224 0.395 0.075 0.395 0.075l0.341 0.341z"></path>
<path fill="#d20014" d="M24.416 15.84c0.021-0.107-0.128-0.405-0.149-0.427-0.171 0.053-0.32 0.128-0.373-0.213 0.107 0.171 0.373 0.043 0.373 0.043l0.085 0.107v0.053l0.267 0.352-0.203 0.085z"></path>
<path fill="#0a328c" d="M22.795 17.248c2.104-1.136 2.749-1.507 3.392-1.881l-1.419 0.761c0.139 0.245 0.011 0.587-0.053 0.64 0 0.16 0.064 0.245-0.075 0.587-0.043 0.213-0.139 0.416-0.288 0.533-0.171 0.683-0.875 0.736-1.141 0.171l-0.427-0.811z"></path>
<path fill="#d20014" d="M21.504 17.973l1.333-0.779c0.427 0.053 0 0.853-0.032 0.928l-1.301 0.459v-0.608z"></path>
<path fill="#f1b517" d="M21.728 17.685l3.019-1.6 0.053 0.064-3.2 1.781 0.128-0.245zM24.896 16l0.053-0.032 0.032-0.085 0.437-0.107-0.288 0.309-0.128-0.021-0.064 0.032-0.043-0.096z"></path>
<path fill="#f1b517" d="M25.035 16.192c-0.043-0.107-0.085-0.203-0.192-0.32l-0.149 0.117 0.149 0.256 0.192-0.053z"></path>
<path fill="#0a328c" d="M25.152 16.555l-0.064 0.128-0.32-0.491-0.267-0.096-0.053-0.107c0.213-0.192 0.373 0.149 0.373 0.149l0.331 0.416z"></path>
<path fill="#d20014" d="M24.864 16.725c0.021-0.107-0.053-0.448-0.075-0.459-0.16 0.053-0.299 0.064-0.341-0.277 0.107 0.16 0.352 0.107 0.352 0.107l0.075 0.107-0.011 0.043 0.213 0.427-0.213 0.053z"></path>
<path fill="#016a16" d="M21.205 13.397l-0.053 0.96h0.309l-0.043-0.96 0.32-0.032-0.032-0.384-0.8 0.032v0.341l0.299 0.043z"></path>
<path fill="#016a16" d="M21.312 13.003c-0.832-0.832-1.483-0.427-1.632-0.309 0.107 0.021 0.192-0.043 0.245-0.053l-0.107 0.128s0.267-0.107 0.299-0.107c-0.043 0.032-0.085 0.107-0.085 0.107 0.021 0 0.171-0.117 0.192-0.117-0.043 0.043-0.053 0.16-0.053 0.16l0.128-0.053c0.032 0.021-0.011 0.064 0.011 0.064 0.213-0.021 0.501 0.181 0.533 0.245"></path>
<path fill="#016a16" d="M21.109 13.152c-0.085-0.192-1.664-0.533-1.984 0.032 0.128 0.032 0.245-0.107 0.245-0.107v0.128l0.203-0.171-0.075 0.171 0.16-0.139v0.139l0.213-0.213-0.032 0.117 0.181-0.075-0.021 0.107"></path>
<path fill="#016a16" d="M21.035 13.184c-0.405-0.267-1.024-0.085-1.024-0.085-0.405 0.213-0.619 0.181-0.661 0.597 0.032-0.011 0.139-0.149 0.139-0.149l0.085 0.16 0.021-0.224 0.064 0.181 0.107-0.299 0.021 0.203 0.149-0.203 0.064 0.064 0.064-0.16 0.064 0.107s0.107-0.064 0.16-0.032l0.107-0.128 0.032 0.096 0.107-0.107 0.032 0.075 0.096-0.085v0.064h0.32"></path>
<path fill="#016a16" d="M20.949 13.227c-0.288 0-1.099 0.309-1.301 0.619 0.037-0.020 0.082-0.042 0.129-0.061l0.009-0.003 0.032 0.128 0.053-0.128 0.011 0.107c0.032-0.085 0.064-0.085 0.128-0.011l0.021-0.117 0.032 0.107 0.053-0.117s0.032 0.128 0.053 0.128c0 0 0.085-0.235 0.128-0.245l0.011 0.149 0.053-0.149 0.053 0.107v-0.149l0.064 0.107s0.021-0.107 0.064-0.128l0.085 0.075 0.363-0.267"></path>
<path fill="#016a16" d="M21.003 13.301c-0.373 0.139-0.715 0.661-0.683 0.875 0.16-0.213 0.128-0.181 0.203 0.064 0 0 0.021-0.213 0.053-0.235l0.053 0.149 0.011-0.203h0.053l-0.011-0.117 0.075 0.053c-0.021-0.075-0.032-0.096 0.043-0.16 0 0-0.107 0.011-0.021-0.16l0.075 0.064s-0.021-0.075 0-0.107l0.277-0.085"></path>
<path fill="#016a16" d="M21.035 13.333l-0.139 0.277 0.075 0.021-0.171 0.117 0.139-0.011s-0.213 0.075-0.235 0.288l0.213-0.107s-0.181 0.192-0.213 0.309l0.139-0.107s-0.128 0.128-0.107 0.32l0.096-0.107c-0.021 0.245-0.021 0.267 0.085 0.448 0 0-0.021-0.277 0-0.32l0.245 0.256-0.128-0.352s0.149 0.213 0.235 0.203l-0.192-0.288 0.192 0.149-0.213-0.32 0.192 0.064s-0.139-0.181-0.128-0.299l0.139 0.149s-0.053-0.16-0.043-0.213l0.075 0.011-0.139-0.149 0.096-0.021-0.011-0.107 0.064-0.011v-0.117M21.184 13.419c-0.235 0.32-0.117 0.8-0.256 1.056"></path>
<path fill="#016a16" d="M21.344 13.003c0.832-0.832 1.483-0.427 1.632-0.309-0.107 0.021-0.192-0.043-0.245-0.053l0.107 0.128s-0.267-0.107-0.299-0.107c0.043 0.032 0.085 0.107 0.085 0.107-0.021 0-0.171-0.117-0.192-0.117 0.043 0.043 0.053 0.16 0.053 0.16l-0.128-0.053c-0.032 0.021 0.011 0.064-0.011 0.064-0.213-0.021-0.501 0.181-0.533 0.245"></path>
<path fill="#016a16" d="M21.547 13.152c0.085-0.192 1.664-0.533 1.984 0.032-0.128 0.032-0.245-0.107-0.245-0.107v0.128l-0.203-0.171 0.075 0.171-0.16-0.139v0.139l-0.213-0.213 0.032 0.117-0.181-0.075 0.021 0.107"></path>
<path fill="#016a16" d="M21.621 13.184c0.405-0.267 1.024-0.085 1.024-0.085 0.405 0.213 0.619 0.181 0.661 0.597-0.032-0.011-0.139-0.149-0.139-0.149l-0.085 0.16-0.021-0.224-0.064 0.181-0.107-0.299-0.021 0.203-0.149-0.203-0.064 0.064-0.064-0.16-0.064 0.107s-0.107-0.064-0.16-0.032l-0.107-0.128-0.032 0.096-0.107-0.107-0.032 0.075-0.096-0.085v0.064h-0.32"></path>
<path fill="#016a16" d="M21.707 13.227c0.288 0 1.099 0.309 1.301 0.619-0.037-0.020-0.082-0.042-0.129-0.061l-0.009-0.003-0.032 0.128-0.053-0.128-0.011 0.107c-0.032-0.085-0.064-0.085-0.128-0.011l-0.021-0.117-0.032 0.107-0.053-0.117s-0.032 0.128-0.053 0.128c0 0-0.085-0.235-0.128-0.245l-0.011 0.149-0.053-0.149-0.053 0.107v-0.149l-0.064 0.107s-0.021-0.107-0.064-0.128l-0.085 0.075-0.363-0.267"></path>
<path fill="#016a16" d="M21.653 13.301c0.373 0.139 0.715 0.661 0.683 0.875-0.16-0.213-0.128-0.181-0.203 0.064 0 0-0.021-0.213-0.053-0.235l-0.053 0.149-0.011-0.203h-0.053l0.011-0.117-0.075 0.053c0.021-0.075 0.032-0.096-0.043-0.16 0 0 0.107 0.011 0.021-0.16l-0.075 0.064s0.021-0.075 0-0.107l-0.277-0.085"></path>
<path fill="#016a16" d="M21.621 13.333l0.139 0.277-0.075 0.021 0.171 0.117-0.139-0.011s0.213 0.075 0.235 0.288l-0.213-0.107s0.181 0.192 0.213 0.309l-0.139-0.107s0.128 0.128 0.107 0.32l-0.096-0.107c0.021 0.245 0.021 0.267-0.085 0.448 0 0 0.021-0.277 0-0.32l-0.245 0.256 0.128-0.352s-0.149 0.213-0.235 0.203l0.192-0.288-0.192 0.149 0.213-0.32-0.192 0.064s0.139-0.181 0.128-0.299l-0.139 0.149s0.053-0.16 0.043-0.213l-0.075 0.011 0.139-0.149-0.096-0.021 0.011-0.107-0.064-0.011v-0.117M21.472 13.419c0.235 0.32 0.117 0.8 0.256 1.056"></path>
<path fill="#f1b517" d="M21.44 17.76s0.117-1.067 0.117-1.515c0-0.363-0.085-1.152-0.085-1.152h-0.352s-0.053 0.789-0.043 1.152c0 0.448 0.117 1.515 0.117 1.515h0.245z"></path>
<path fill="#f1b517" d="M21.088 15.147h0.427l-0.053-0.288h-0.309l-0.064 0.277z"></path>
<path fill="#f1b517" d="M21.12 14.912h0.373l-0.075-0.288h-0.235l-0.075 0.288z"></path>
<path fill="#f1b517" d="M21.141 14.688h0.32l-0.064-0.288h-0.203l-0.053 0.288z"></path>
<path fill="#f1b517" d="M21.408 14.368h-0.213l-0.032 0.107h0.267l-0.021-0.107zM21.451 17.536h-0.277M21.472 17.323h-0.32M21.515 17.109h-0.405M21.536 16.885h-0.427M21.536 16.651h-0.437M21.547 16.437h-0.469M21.547 16.256h-0.491M21.547 16.021h-0.491M21.536 15.797h-0.48M21.515 15.563h-0.437M21.493 15.349h-0.395"></path>
<path fill="#0a328c" d="M21.333 12.693c-0.085-0.032-0.245-0.139-0.203-0.203l0.075-0.128c0.107-0.235 0-0.149 0-0.213-0.021-0.085 0.405-0.021 0.405 0.139 0 0.053-0.032 0.021-0.021 0.277l-0.085 0.16c-0.015 0.002-0.031 0.003-0.048 0.003-0.048 0-0.093-0.009-0.136-0.025l0.003 0.001z"></path>
<path fill="#f1b517" d="M21.376 13.333l-0.107-0.096 0.032-0.757 0.107 0.032-0.032 0.811z"></path>
<path fill="#d20014" d="M21.515 12.725c0.064-0.043 0.107-0.16 0.064-0.224-0.107-0.139-0.181-0.085-0.363-0.149-0.032 0.043-0.107 0.107-0.096 0.171 0.245 0.107 0.149 0.021 0.235 0.032 0.043 0 0.064 0.053 0.16 0.16z"></path>
<path fill="#f1b517" d="M20.107 17.099c-0.021-0.053-0.107-0.096-0.213-0.096s-0.181 0.043-0.213 0.096c-0.002-0.006-0.003-0.014-0.003-0.021s0.001-0.015 0.003-0.022l-0 0.001c0-0.075 0.096-0.128 0.213-0.128 0.128 0 0.224 0.053 0.224 0.128 0.002 0.006 0.003 0.014 0.003 0.021s-0.001 0.015-0.003 0.022l0-0.001z"></path>
<path fill="#016a16" d="M20.096 17.259c0 0.128-0.096 0.245-0.203 0.245s-0.192-0.107-0.192-0.256v-0.128h0.395v0.128z"></path>
<path fill="#fff" d="M20.085 17.077c0 0.053-0.086 0.096-0.192 0.096s-0.192-0.043-0.192-0.096c0-0.053 0.086-0.096 0.192-0.096s0.192 0.043 0.192 0.096z"></path>
<path fill="#016a16" d="M19.851 17.173l-0.032-0.341h0.149l-0.021 0.352h-0.096z"></path>
<path fill="#016a16" d="M20.107 17.077c-0.021 0.053-0.107 0.096-0.213 0.096s-0.181-0.043-0.213-0.096c-0.002 0.006-0.003 0.014-0.003 0.021s0.001 0.015 0.003 0.022l-0-0.001c0 0.075 0.096 0.128 0.213 0.128 0.128 0 0.224-0.053 0.224-0.128 0.002-0.006 0.003-0.014 0.003-0.021s-0.001-0.015-0.003-0.022l0 0.001z"></path>
<path fill="#f1b517" d="M20.907 18.432l-0.747-0.235-0.331-0.565-1.163-0.053 0.043 0.427 0.992 0.181 0.085 0.171 1.141 0.32-0.021-0.245z"></path>
<path fill="#503200" d="M20.128 18.592l-1.195-1.76-0.053 0.053 1.173 1.749 0.075-0.043z"></path>
<path fill="#fff" d="M19.051 16.907l-0.128-0.213c-0.032-0.043-0.064-0.053-0.117-0.021-0.053 0.021-0.043 0.075-0.021 0.117l0.107 0.203 0.16-0.085z"></path>
<path fill="#f1b517" d="M20.267 17.504l-2.4-0.245-0.064 0.352 2.389 0.245 0.075-0.352z"></path>
<path fill="#f1b517" d="M17.813 17.173l-0.053 0.48h0.107l0.064-0.437-0.107-0.043zM18.219 17.248l-0.021 0.437h0.064l0.053-0.373-0.085-0.064zM19.851 17.44l-0.064 0.405h0.117l0.053-0.405h-0.107zM20.203 17.451l-0.075 0.469 0.128 0.021 0.043-0.245c0 0.053 0.053 0.085 0.107 0.085 0.064 0 0.107-0.053 0.107-0.107 0-0.064-0.043-0.107-0.107-0.107-0.003-0-0.006-0-0.009-0-0.044 0-0.081 0.026-0.098 0.064l-0 0.001 0.032-0.171-0.128-0.011zM19.349 17.525l-0.341 0.373 0.043 0.043 0.427-0.288-0.139-0.128zM18.56 18.453l0.331-0.373-0.032-0.043-0.427 0.288 0.128 0.128zM19.424 18.357l-0.395-0.309-0.043 0.032 0.32 0.405 0.117-0.128zM18.432 17.643l0.416 0.299 0.043-0.032-0.32-0.405-0.139 0.139zM18.88 17.397l0.043 0.491h0.053l0.128-0.48-0.224-0.011zM19.008 18.571l-0.032-0.48h-0.064l-0.075 0.491h0.171zM19.552 17.931l-0.512 0.043v0.053l0.512 0.064v-0.171zM18.336 18.091l0.501-0.075v-0.043l-0.512-0.053v0.171z"></path>
<path fill="#f1b517" d="M19.093 17.984c0 0.071-0.062 0.128-0.139 0.128s-0.139-0.057-0.139-0.128c0-0.071 0.062-0.128 0.139-0.128s0.139 0.057 0.139 0.128z"></path>
<path fill="#f1b517" d="M19.669 17.984v-0.001c-0.006-0.384-0.319-0.693-0.704-0.693-0.004 0-0.008 0-0.011 0-0.395 0-0.715 0.309-0.715 0.693v0.001c0.006 0.384 0.319 0.693 0.704 0.693 0.004 0 0.008-0 0.011-0 0.395 0 0.715-0.32 0.715-0.693zM19.531 17.984c-0.006 0.308-0.257 0.555-0.565 0.555-0.004 0-0.008-0-0.011-0h0.001c-0.003 0-0.007 0-0.011 0-0.312 0-0.565-0.253-0.565-0.565 0-0 0-0 0-0v0c0.012-0.303 0.26-0.544 0.565-0.544 0.004 0 0.008 0 0.012 0h-0.001c0.003-0 0.007-0 0.011-0 0.308 0 0.559 0.247 0.565 0.554v0.001z"></path>
<path fill="#f1b517" d="M18.507 17.632l-0.107-0.085M19.307 17.547l0.107-0.107M19.52 18.421l-0.117-0.096M18.507 18.528l0.107-0.107M20.928 17.291l0.117 0.64-0.096 0.043-0.107-0.672h0.085z"></path>
<path fill="#fff" d="M20.864 17.216c-0.053-0.032-0.128 0.011-0.256-0.139-0.203 0.181 0 0.213 0.021 0.395 0.053 0.021 0.096-0.149 0.245-0.16l0.245-0.021-0.053-0.075h-0.213z"></path>
<path fill="#fff" d="M20.949 17.333l-0.021-0.181c-0.032-0.075-0.107-0.011-0.107 0.021l0.021 0.181 0.107-0.021z"></path>
<path fill="#f1b517" d="M20.352 17.856h0.085v0.139c0.043-0.011 0.149 0.011 0.149 0.16v0.267c0 0.053-0.053 0.117-0.075 0.117h-0.107v0.128c0.011 0.021 0.075 0.043 0.107 0.064 0.085 0.021 0.053 0.075-0.107 0.107l-0.107-0.011c-0.128-0.021-0.139-0.075-0.107-0.107 0.032-0.021 0.096-0.021 0.107-0.064v-0.501c0-0.064-0.011-0.107 0.053-0.128v-0.171zM20.523 18.144c0-0.043-0.064-0.085-0.085-0.085s-0.075 0.053-0.075 0.096v0.107c0 0.043 0.032 0.171 0.096 0.181 0.021 0 0.064-0.043 0.064-0.085v-0.213z"></path>
<path fill="#fff" d="M19.659 18.379c-0.075-0.021-0.075 0.128-0.075 0.128h0.107c0.053 0.021 0.085 0.085 0.064 0.128-0.032 0.021-0.235-0.053-0.245 0 0.032 0.203 0.309 0.277 0.405 0.192 0.096-0.096 0.117-0.32-0.192-0.395l-0.064-0.053zM19.723 18.443l-0.032 0.064"></path>
<path fill="#f1b517" d="M17.6 18.453l-0.107-0.427M17.717 18.432l-0.16-0.331M17.984 18.347l-0.352-0.192M18.144 18.304l-0.661-0.288"></path>
<path fill="#d20014" d="M17.088 17.707l-0.277 0.011c-0.021 0.011 0.053 0.096 0.043 0.117-0.064 0.117-0.469 0.107-0.501 0.085-0.053-0.053 0.373-0.085 0.384-0.107 0-0.043-0.064-0.128-0.053-0.181 0-0.075 0.181-0.107 0.181-0.107l0.224 0.181z"></path>
<path fill="#503200" d="M17.408 17.92l-0.533-0.448s-0.032-0.021-0.053 0 0 0.043 0 0.043l0.576 0.469 0.011-0.053z"></path>
<path fill="#f1b517" d="M17.941 18.368l-0.448-0.384-0.032-0.107-0.085 0.064c-0.032 0.021-0.064 0.085-0.064 0.085h0.117l0.384 0.363 0.117-0.021z"></path>
<path fill="#f1b517" d="M19.541 18.891c0 0.041-0.033 0.075-0.075 0.075s-0.075-0.033-0.075-0.075c0-0.041 0.033-0.075 0.075-0.075s0.075 0.033 0.075 0.075z"></path>
<path fill="#f1b517" d="M19.339 18.741c0 0.041-0.033 0.075-0.075 0.075s-0.075-0.033-0.075-0.075c0-0.041 0.033-0.075 0.075-0.075s0.075 0.033 0.075 0.075z"></path>
<path fill="#f1b517" d="M19.072 18.837c0 0.041-0.033 0.075-0.075 0.075s-0.075-0.033-0.075-0.075c0-0.041 0.033-0.075 0.075-0.075s0.075 0.033 0.075 0.075z"></path>
<path fill="#f1b517" d="M18.656 18.923c0 0.041-0.033 0.075-0.075 0.075s-0.075-0.033-0.075-0.075c0-0.041 0.033-0.075 0.075-0.075s0.075 0.033 0.075 0.075z"></path>
<path fill="#f1b517" d="M18.475 18.944c0 0.041-0.033 0.075-0.075 0.075s-0.075-0.033-0.075-0.075c0-0.041 0.033-0.075 0.075-0.075s0.075 0.033 0.075 0.075z"></path>
<path fill="#f1b517" d="M18.293 18.944c0 0.041-0.033 0.075-0.075 0.075s-0.075-0.033-0.075-0.075c0-0.041 0.033-0.075 0.075-0.075s0.075 0.033 0.075 0.075z"></path>
<path fill="#f1b517" d="M18.123 18.944c0 0.041-0.033 0.075-0.075 0.075s-0.075-0.033-0.075-0.075c0-0.041 0.033-0.075 0.075-0.075s0.075 0.033 0.075 0.075z"></path>
<path fill="#f1b517" d="M18.208 18.805c0 0.041-0.033 0.075-0.075 0.075s-0.075-0.033-0.075-0.075c0-0.041 0.033-0.075 0.075-0.075s0.075 0.033 0.075 0.075z"></path>
<path fill="#f1b517" d="M18.379 18.816c0 0.041-0.033 0.075-0.075 0.075s-0.075-0.033-0.075-0.075c0-0.041 0.033-0.075 0.075-0.075s0.075 0.033 0.075 0.075z"></path>
<path fill="#f1b517" d="M18.539 18.795c0 0.041-0.033 0.075-0.075 0.075s-0.075-0.033-0.075-0.075c0-0.041 0.033-0.075 0.075-0.075s0.075 0.033 0.075 0.075z"></path>
<path fill="#f1b517" d="M18.464 18.667c0 0.041-0.033 0.075-0.075 0.075s-0.075-0.033-0.075-0.075c0-0.041 0.033-0.075 0.075-0.075s0.075 0.033 0.075 0.075z"></path>
<path fill="#f1b517" d="M18.293 18.656c0 0.041-0.033 0.075-0.075 0.075s-0.075-0.033-0.075-0.075c0-0.041 0.033-0.075 0.075-0.075s0.075 0.033 0.075 0.075z"></path>
<path fill="#f1b517" d="M19.893 18.987c0 0.032-0.075 0.021-0.075 0.043 0 0.043 0.085 0.032 0.128 0 0.011 0.075 0.107 0.075 0.16 0 0.053 0.043 0.107 0.064 0.203 0l0 0c0.020 0.022 0.048 0.036 0.080 0.036s0.060-0.014 0.080-0.036h0.032c0.032 0.064 0.128 0.075 0.181 0.021 0.011 0.021 0.053 0.021 0.085 0l0 0c0.016 0.018 0.038 0.029 0.064 0.029s0.048-0.011 0.064-0.029c0.011 0.043 0.096 0.064 0.128 0.021 0.011 0.043 0.075 0.032 0.075 0 0-0.043-0.043-0.021-0.043-0.043 0-0.032 0.064-0.021 0.064-0.064 0-0.021-0.053-0.021-0.085 0-0.043-0.021-0.085-0.053-0.117-0.011-0.043-0.053-0.139-0.075-0.171 0-0.021-0.032-0.053-0.032-0.075 0-0.043-0.053-0.107-0.064-0.181 0-0.032-0.053-0.139-0.064-0.181-0.021-0.075-0.064-0.149-0.064-0.213 0.021-0.043-0.021-0.075-0.064-0.149 0-0.011-0.032-0.139-0.075-0.139-0.032s0.085 0.032 0.085 0.064zM20.064 18.997c0 0.021-0.021 0.032-0.043 0.032s-0.043-0.011-0.043-0.032 0.011-0.021 0.043-0.021 0.043 0.011 0.043 0.021zM20.267 18.976c0 0.021-0.032 0.032-0.064 0.032s-0.053-0.011-0.053-0.032c0-0.011 0.021-0.032 0.053-0.032s0.053 0.021 0.053 0.032zM20.64 18.997c0 0.021-0.021 0.032-0.053 0.032s-0.043-0.011-0.043-0.032c0-0.011 0.021-0.032 0.043-0.032s0.053 0.011 0.053 0.032zM20.437 18.997c0 0.021-0.021 0.032-0.053 0.032s-0.043-0.011-0.043-0.043c0-0.021 0.021-0.043 0.043-0.043s0.053 0.021 0.053 0.043zM20.864 18.997c0 0.011-0.011 0.032-0.032 0.032-0.032 0-0.053-0.021-0.053-0.043s0.021-0.032 0.053-0.032c0.021 0 0.043 0.011 0.043 0.032zM20.736 18.997c0 0.021 0 0.032-0.021 0.032s-0.032-0.011-0.032-0.032 0.011-0.021 0.032-0.021l0.021 0.021zM20.992 19.008c0 0.021 0 0.043-0.032 0.043-0.011 0-0.032-0.021-0.032-0.043s0.021-0.032 0.032-0.032c0.021 0 0.032 0.011 0.032 0.032z"></path>
<path fill="#f1b517" d="M21.749 18.432l0.747-0.235 0.331-0.565 1.163-0.053-0.043 0.427-0.992 0.181-0.085 0.171-1.141 0.32 0.021-0.245z"></path>
<path fill="#503200" d="M22.528 18.592l1.195-1.76 0.053 0.053-1.173 1.749-0.075-0.043z"></path>
<path fill="#fff" d="M23.605 16.907l0.128-0.213c0.032-0.043 0.064-0.053 0.117-0.021 0.053 0.021 0.043 0.075 0.021 0.117l-0.107 0.203-0.16-0.085z"></path>
<path fill="#f1b517" d="M22.389 17.504l2.4-0.245 0.064 0.352-2.389 0.245-0.075-0.352z"></path>
<path fill="#f1b517" d="M24.843 17.173l0.053 0.48h-0.107l-0.064-0.437 0.107-0.043zM24.437 17.248l0.021 0.437h-0.064l-0.053-0.373 0.085-0.064zM22.805 17.44l0.064 0.405h-0.117l-0.053-0.405h0.107zM22.453 17.451l0.075 0.469-0.128 0.021-0.043-0.245c0 0.053-0.053 0.085-0.107 0.085-0.064 0-0.107-0.053-0.107-0.107 0-0.064 0.043-0.107 0.107-0.107 0.003-0 0.006-0 0.009-0 0.044 0 0.081 0.026 0.098 0.064l0 0.001-0.032-0.171 0.128-0.011zM23.307 17.525l0.341 0.373-0.043 0.043-0.427-0.288 0.139-0.128zM24.096 18.453l-0.331-0.373 0.032-0.043 0.427 0.288-0.128 0.128zM23.232 18.357l0.395-0.309 0.043 0.032-0.32 0.405-0.117-0.128zM24.224 17.643l-0.416 0.299-0.043-0.032 0.32-0.405 0.139 0.139zM23.776 17.397l-0.043 0.491h-0.053l-0.128-0.48 0.224-0.011zM23.648 18.571l0.032-0.48h0.064l0.075 0.491h-0.171zM23.104 17.931l0.512 0.043v0.053l-0.512 0.064v-0.171zM24.32 18.091l-0.501-0.075v-0.043l0.512-0.053v0.171z"></path>
<path fill="#f1b517" d="M23.563 17.984c0 0.071 0.062 0.128 0.139 0.128s0.139-0.057 0.139-0.128c0-0.071-0.062-0.128-0.139-0.128s-0.139 0.057-0.139 0.128z"></path>
<path fill="#f1b517" d="M22.987 17.984v-0.001c0.006-0.384 0.319-0.693 0.704-0.693 0.004 0 0.008 0 0.011 0 0.395 0 0.715 0.309 0.715 0.693v0.001c-0.006 0.384-0.319 0.693-0.704 0.693-0.004 0-0.008-0-0.011-0-0.395 0-0.715-0.32-0.715-0.693zM23.125 17.984c0.006 0.308 0.257 0.555 0.565 0.555 0.004 0 0.008-0 0.011-0h-0.001c0.003 0 0.007 0 0.011 0 0.312 0 0.565-0.253 0.565-0.565 0-0 0-0 0-0v0c-0.012-0.303-0.26-0.544-0.565-0.544-0.004 0-0.008 0-0.012 0h0.001c-0.003-0-0.007-0-0.011-0-0.308 0-0.559 0.247-0.565 0.554v0.001z"></path>
<path fill="#f1b517" d="M24.149 17.632l0.107-0.085M23.349 17.547l-0.107-0.107M23.136 18.421l0.117-0.096M24.149 18.528l-0.107-0.107M21.728 17.291l-0.117 0.64 0.096 0.043 0.107-0.672h-0.085z"></path>
<path fill="#fff" d="M21.792 17.216c0.053-0.032 0.128 0.011 0.256-0.139 0.203 0.181 0 0.213-0.021 0.395-0.053 0.021-0.096-0.149-0.245-0.16l-0.245-0.021 0.053-0.075h0.213z"></path>
<path fill="#fff" d="M21.707 17.333l0.021-0.181c0.032-0.075 0.107-0.011 0.107 0.021l-0.021 0.181-0.107-0.021z"></path>
<path fill="#f1b517" d="M22.304 17.856h-0.085v0.139c-0.043-0.011-0.149 0.011-0.149 0.16v0.267c0 0.053 0.053 0.117 0.075 0.117h0.107v0.128c-0.011 0.021-0.075 0.043-0.107 0.064-0.085 0.021-0.053 0.075 0.107 0.107l0.107-0.011c0.128-0.021 0.139-0.075 0.107-0.107-0.032-0.021-0.096-0.021-0.107-0.064v-0.501c0-0.064 0.011-0.107-0.053-0.128v-0.171zM22.133 18.144c0-0.043 0.064-0.085 0.085-0.085s0.075 0.053 0.075 0.096v0.107c0 0.043-0.032 0.171-0.096 0.181-0.021 0-0.064-0.043-0.064-0.085v-0.213z"></path>
<path fill="#fff" d="M22.997 18.379c0.075-0.021 0.075 0.128 0.075 0.128h-0.107c-0.053 0.021-0.085 0.085-0.064 0.128 0.032 0.021 0.235-0.053 0.245 0-0.032 0.203-0.309 0.277-0.405 0.192-0.096-0.096-0.117-0.32 0.192-0.395l0.064-0.053zM22.933 18.443l0.032 0.064"></path>
<path fill="#f1b517" d="M25.056 18.453l0.107-0.427M24.939 18.432l0.16-0.331M24.672 18.347l0.352-0.192M24.512 18.304l0.661-0.288"></path>
<path fill="#d20014" d="M25.568 17.707l0.277 0.011c0.021 0.011-0.053 0.096-0.043 0.117 0.064 0.117 0.469 0.107 0.501 0.085 0.053-0.053-0.373-0.085-0.384-0.107 0-0.043 0.064-0.128 0.053-0.181 0-0.075-0.181-0.107-0.181-0.107l-0.224 0.181z"></path>
<path fill="#503200" d="M25.248 17.92l0.533-0.448s0.032-0.021 0.053 0 0 0.043 0 0.043l-0.576 0.469-0.011-0.053z"></path>
<path fill="#f1b517" d="M24.715 18.368l0.448-0.384 0.032-0.107 0.085 0.064c0.032 0.021 0.064 0.085 0.064 0.085h-0.117l-0.384 0.363-0.117-0.021z"></path>
<path fill="#f1b517" d="M23.115 18.891c0 0.041 0.033 0.075 0.075 0.075s0.075-0.033 0.075-0.075c0-0.041-0.033-0.075-0.075-0.075s-0.075 0.033-0.075 0.075z"></path>
<path fill="#f1b517" d="M23.317 18.741c0 0.041 0.033 0.075 0.075 0.075s0.075-0.033 0.075-0.075c0-0.041-0.033-0.075-0.075-0.075s-0.075 0.033-0.075 0.075z"></path>
<path fill="#f1b517" d="M23.584 18.837c0 0.041 0.033 0.075 0.075 0.075s0.075-0.033 0.075-0.075c0-0.041-0.033-0.075-0.075-0.075s-0.075 0.033-0.075 0.075z"></path>
<path fill="#f1b517" d="M24 18.923c0 0.041 0.033 0.075 0.075 0.075s0.075-0.033 0.075-0.075c0-0.041-0.033-0.075-0.075-0.075s-0.075 0.033-0.075 0.075z"></path>
<path fill="#f1b517" d="M24.181 18.944c0 0.041 0.033 0.075 0.075 0.075s0.075-0.033 0.075-0.075c0-0.041-0.033-0.075-0.075-0.075s-0.075 0.033-0.075 0.075z"></path>
<path fill="#f1b517" d="M24.363 18.944c0 0.041 0.033 0.075 0.075 0.075s0.075-0.033 0.075-0.075c0-0.041-0.033-0.075-0.075-0.075s-0.075 0.033-0.075 0.075z"></path>
<path fill="#f1b517" d="M24.533 18.944c0 0.041 0.033 0.075 0.075 0.075s0.075-0.033 0.075-0.075c0-0.041-0.033-0.075-0.075-0.075s-0.075 0.033-0.075 0.075z"></path>
<path fill="#f1b517" d="M24.448 18.805c0 0.041 0.033 0.075 0.075 0.075s0.075-0.033 0.075-0.075c0-0.041-0.033-0.075-0.075-0.075s-0.075 0.033-0.075 0.075z"></path>
<path fill="#f1b517" d="M24.277 18.816c0 0.041 0.033 0.075 0.075 0.075s0.075-0.033 0.075-0.075c0-0.041-0.033-0.075-0.075-0.075s-0.075 0.033-0.075 0.075z"></path>
<path fill="#f1b517" d="M24.117 18.795c0 0.041 0.033 0.075 0.075 0.075s0.075-0.033 0.075-0.075c0-0.041-0.033-0.075-0.075-0.075s-0.075 0.033-0.075 0.075z"></path>
<path fill="#f1b517" d="M24.192 18.667c0 0.041 0.033 0.075 0.075 0.075s0.075-0.033 0.075-0.075c0-0.041-0.033-0.075-0.075-0.075s-0.075 0.033-0.075 0.075z"></path>
<path fill="#f1b517" d="M24.363 18.656c0 0.041 0.033 0.075 0.075 0.075s0.075-0.033 0.075-0.075c0-0.041-0.033-0.075-0.075-0.075s-0.075 0.033-0.075 0.075z"></path>
<path fill="#f1b517" d="M22.763 18.987c0 0.032 0.075 0.021 0.075 0.043 0 0.043-0.085 0.032-0.128 0-0.011 0.075-0.107 0.075-0.16 0-0.053 0.043-0.107 0.064-0.203 0l-0 0c-0.020 0.022-0.048 0.036-0.080 0.036s-0.060-0.014-0.080-0.036h-0.032c-0.032 0.064-0.128 0.075-0.181 0.021-0.011 0.021-0.053 0.021-0.085 0l-0 0c-0.016 0.018-0.038 0.029-0.064 0.029s-0.048-0.011-0.064-0.029c-0.011 0.043-0.096 0.064-0.128 0.021-0.011 0.043-0.075 0.032-0.075 0 0-0.043 0.043-0.021 0.043-0.043 0-0.032-0.064-0.021-0.064-0.064 0-0.021 0.053-0.021 0.085 0 0.043-0.021 0.085-0.053 0.117-0.011 0.043-0.053 0.139-0.075 0.171 0 0.021-0.032 0.053-0.032 0.075 0 0.043-0.053 0.107-0.064 0.181 0 0.032-0.053 0.139-0.064 0.181-0.021 0.075-0.064 0.149-0.064 0.213 0.021 0.043-0.021 0.075-0.064 0.149 0 0.011-0.032 0.139-0.075 0.139-0.032s-0.085 0.032-0.085 0.064zM22.592 18.997c0 0.021 0.021 0.032 0.043 0.032s0.043-0.011 0.043-0.032-0.011-0.021-0.043-0.021-0.043 0.011-0.043 0.021zM22.389 18.976c0 0.021 0.032 0.032 0.064 0.032s0.053-0.011 0.053-0.032c0-0.011-0.021-0.032-0.053-0.032s-0.053 0.021-0.053 0.032zM22.016 18.997c0 0.021 0.021 0.032 0.053 0.032s0.043-0.011 0.043-0.032c0-0.011-0.021-0.032-0.043-0.032s-0.053 0.011-0.053 0.032zM22.219 18.997c0 0.021 0.021 0.032 0.053 0.032s0.043-0.011 0.043-0.043c0-0.021-0.021-0.043-0.043-0.043s-0.053 0.021-0.053 0.043zM21.792 18.997c0 0.011 0.011 0.032 0.032 0.032 0.032 0 0.053-0.021 0.053-0.043s-0.021-0.032-0.053-0.032c-0.021 0-0.043 0.011-0.043 0.032zM21.92 18.997c0 0.021 0 0.032 0.021 0.032s0.032-0.011 0.032-0.032-0.011-0.021-0.032-0.021l-0.021 0.021zM21.664 19.008c0 0.021 0 0.043 0.032 0.043 0.011 0 0.032-0.021 0.032-0.043s-0.021-0.032-0.032-0.032c-0.021 0-0.032 0.011-0.032 0.032z"></path>
<path fill="#0a328c" d="M21.312 17.675c-0.267 0-0.48 0.107-0.48 0.224 0 0.021 0 0.043 0.021 0.064 0.053 0.064 0.245 0.107 0.469 0.107 0.213 0 0.384-0.032 0.448-0.096 0.021-0.021 0.032-0.043 0.032-0.075 0-0.117-0.213-0.213-0.491-0.213z"></path>
<path fill="#f1b517" d="M21.803 17.92v0.747c0 0.096-0.213 0.16-0.48 0.16s-0.491-0.064-0.491-0.16v-0.747c0 0.085 0.213 0.16 0.48 0.16 0.277 0 0.491-0.075 0.491-0.16z"></path>
<path fill="#d20014" d="M20.832 17.92v0.107l0.235 0.747 0.192-0.576 0.213 0.587 0.139-0.555 0.192 0.373v-0.203l-0.171-0.363c-0.015 0.006-0.036 0.013-0.058 0.020l-0.006 0.002-0.107 0.405-0.16-0.384c-0.011 0-0.024 0-0.037 0s-0.026-0-0.039-0l0.002 0-0.16 0.384-0.171-0.469c-0.043-0.021-0.064-0.053-0.064-0.075z"></path>
<path fill="#0a328c" d="M21.803 18.528v0.139c0 0.096-0.213 0.16-0.48 0.16s-0.491-0.064-0.491-0.16v-0.139c0 0.096 0.213 0.16 0.48 0.16 0.277 0 0.491-0.064 0.491-0.16z"></path>
<path fill="#f1b517" d="M21.515 18.667l-0.117 0.021v0.139l0.128-0.011v-0.139zM21.003 18.656v0.139l0.117 0.021v-0.139c-0.045-0.005-0.085-0.013-0.124-0.023l0.007 0.001zM20.832 18.528v0.139c0 0.032 0.021 0.053 0.053 0.075v-0.139c-0.032-0.021-0.053-0.043-0.053-0.075zM21.803 18.549c0 0.021-0.043 0.053-0.085 0.075v0.139c0.053-0.021 0.085-0.053 0.085-0.096v-0.107z"></path>
<path fill="#fff" d="M21.696 17.867c0 0.053-0.171 0.107-0.373 0.107-0.213 0-0.384-0.053-0.384-0.107s0.171-0.096 0.373-0.096c0.213 0 0.384 0.043 0.384 0.107z"></path>
<path fill="#f1b517" d="M21.195 17.941l0.021 0.128h0.107l0.011-0.128h-0.139zM21.632 17.909l-0.107 0.021 0.011 0.128 0.107-0.021v-0.117zM21.056 17.696l-0.075 0.032 0.011 0.107 0.064-0.021v-0.107zM21.312 17.664h-0.032l0.021 0.128h0.064l0.021-0.128c-0.011-0-0.024-0.001-0.037-0.001s-0.026 0-0.039 0.001l0.002-0zM21.6 17.707l-0.011 0.107 0.075 0.032v-0.107c-0.018-0.011-0.039-0.021-0.060-0.031l-0.004-0.001zM20.907 18.005l0.021-0.139-0.107-0.053v0.16l0.085 0.032zM21.803 17.973v-0.139l-0.085 0.032 0.085 0.107zM22.795 17.067c0.085 0 0.213 0.107 0.224 0.267 0 0.107-0.181 0.107-0.181 0.107 0 0.053-0.107 0.096-0.192 0.107-0.085 0 0.021-0.16 0.021-0.16-0.053-0.139 0.021-0.288 0.021-0.288l0.107-0.032z"></path>
<path fill="#f1b517" d="M22.667 17.387h0.085s0 0.032 0.021 0.032 0.032-0.043 0.032-0.043h0.128"></path>
<path fill="#d20014" d="M22.837 17.163c0.075-0.053 0.011-0.16-0.043-0.16h-0.107c-0.064 0-0.149 0.064-0.139 0.107 0 0.053 0.043 0.075 0.085 0.064 0.021 0 0.064-0.064 0.085-0.064 0.032 0 0.107 0.064 0.117 0.053z"></path>
<path fill="#f1b517" d="M17.515 18.645c-0.064 0.011-0.075 0.085-0.053 0.16-0.277 0.075-0.533 0.181-0.789 0.256-0.011-0.053 0.128-0.192 0.128-0.192 0.032 0.011 0.064 0.096 0.064 0.096 0-0.171 0.171-0.277 0.171-0.277-0.107-0.021-0.395 0.107-0.427 0.149 0 0 0.107-0.021 0.128 0 0 0-0.235 0.245-0.245 0.32 0.043 0.075 0.427 0.139 0.427 0.139 0 0.021-0.107 0.107-0.107 0.107 0.16 0.021 0.395-0.085 0.459-0.149 0 0-0.181-0.021-0.32-0.139 0 0 0.021 0.075 0 0.107 0 0-0.213-0.064-0.245-0.107 0 0 0.533-0.128 0.789-0.213 0.011 0.053 0.064 0.139 0.128 0.117 0.032-0.011 0.021-0.085 0-0.149 0.015 0.013 0.035 0.022 0.057 0.022 0.003 0 0.005-0 0.008-0l-0 0c0.043 0 0.075-0.032 0.075-0.075s-0.032-0.075-0.075-0.075c-0.034 0.002-0.062 0.023-0.074 0.053l-0 0.001c-0.011-0.053-0.043-0.149-0.085-0.139zM17.728 18.816c0 0.021-0.021 0.032-0.043 0.032-0.003 0.001-0.007 0.002-0.011 0.002-0.018 0-0.032-0.014-0.032-0.032 0-0.001 0-0.001 0-0.002v0c0-0.021 0.021-0.043 0.043-0.043s0.032 0.021 0.032 0.043z"></path>
<path fill="#f1b517" d="M25.92 18.976c0.021-0.043 0-0.235 0-0.235-0.053 0-0.107 0.075-0.107 0.075 0.053-0.171-0.085-0.427-0.085-0.427 0.096 0.011 0.416 0.32 0.427 0.384 0 0-0.139-0.053-0.16-0.043 0.032 0.16 0.139 0.235 0.181 0.32 0 0-0.181 0.032-0.171 0.192h-0.117c-0.043-0.053 0.011-0.139 0.011-0.139l-0.821-0.341c-0.053-0.021-0.171-0.085-0.149-0.149 0.011-0.053 0.213 0.032 0.256 0.053l0.747 0.309z"></path>
<path fill="#f1b517" d="M25.131 18.827l0.107-0.171c0.032-0.053-0.043-0.107-0.096-0.043l-0.107 0.16c-0.043 0.096 0.053 0.117 0.107 0.053z"></path>
<path fill="#fff" d="M19.347 19.24l-0.007-0.2-0.233 0.020-0.013 0.207 0.253-0.027z"></path>
<path fill="#fff" d="M17.627 19.513l-0.313-0.18c1.293 0.12 1.56-0.333 1.873-0.353 0.2-0.020 0.22 0.213-0.153 0.1l0.1 0.24s-0.92 0.52-1.827 0.307l0.32-0.113zM23.28 19.24l0.007-0.2 0.287 0.013 0.013 0.207-0.307-0.020z"></path>
<path fill="#fff" d="M25.060 19.467l0.3-0.167c-1.493 0.047-1.153-0.24-1.893-0.32-0.2-0.027-0.333 0.227 0.147 0.1l-0.093 0.24h0.233c0.507 0.333 1.187 0.367 1.64 0.26l-0.333-0.113z"></path>
<path fill="#fff" d="M19.033 19.087v0.333s0.82 0.307 2.293 0.307c1.48 0 2.293-0.307 2.293-0.307v-0.333s-0.62 0.287-2.293 0.287c-1.667 0-2.293-0.287-2.293-0.287z"></path>
<path fill="#000" d="M19.153 19.42l0.073-0.247 0.033 0.013-0.067 0.213 0.133 0.033-0.013 0.033-0.16-0.047zM19.393 19.313v-0.047l0.013-0.047 0.040 0.013-0.013 0.040-0.020 0.047-0.020-0.007zM19.747 19.293l0.033 0.013-0.027 0.14-0.027 0.067c-0.008 0.012-0.020 0.021-0.033 0.026l-0 0h-0.067c-0.023-0.004-0.043-0.013-0.060-0.027l0 0c-0.013-0.009-0.023-0.023-0.027-0.040l-0-0 0.007-0.067 0.033-0.147 0.033 0.007-0.033 0.147c-0.002 0.008-0.003 0.017-0.003 0.027s0.001 0.019 0.003 0.028l-0-0.001c0.002 0.011 0.006 0.020 0.013 0.027v0l0.033 0.013h0.067l0.027-0.067 0.027-0.147zM19.787 19.56l0.040-0.247h0.040l0.1 0.227 0.033-0.2h0.033l-0.040 0.26-0.033-0.007-0.107-0.22-0.033 0.2-0.033-0.007zM20.053 19.607l0.040-0.253h0.033l-0.033 0.253h-0.033zM20.16 19.493c0-0.040 0.020-0.073 0.047-0.093 0.022-0.017 0.050-0.027 0.081-0.027 0.004 0 0.009 0 0.013 0.001l-0.001-0c0.027 0 0.047 0.007 0.067 0.020l0.033 0.053c0.013 0.020 0.013 0.047 0.007 0.067-0.001 0.025-0.009 0.048-0.020 0.067l0-0.001c-0.012 0.021-0.031 0.037-0.053 0.046l-0.001 0c-0.014 0.005-0.030 0.008-0.046 0.008-0.007 0-0.014-0.001-0.021-0.002l0.001 0c-0.025-0.001-0.048-0.008-0.067-0.020l0.001 0c-0.016-0.014-0.027-0.032-0.033-0.053l-0-0.001c-0.005-0.014-0.008-0.030-0.008-0.047 0-0.007 0-0.014 0.002-0.021l-0 0.001zM20.193 19.493c0 0.033 0 0.067 0.020 0.080 0.013 0.020 0.033 0.033 0.060 0.033s0.047 0 0.067-0.020c0.020-0.013 0.027-0.040 0.033-0.067 0.003-0.010 0.004-0.021 0.004-0.033s-0.002-0.023-0.005-0.034l0 0.001c-0.008-0.014-0.019-0.026-0.033-0.033l-0-0c-0.013-0.011-0.029-0.018-0.046-0.020l-0-0c-0.020 0-0.047 0-0.067 0.020-0.013 0.013-0.027 0.040-0.033 0.080zM20.44 19.647l0.020-0.253h0.040l0.12 0.213 0.013-0.2h0.033l-0.020 0.26h-0.033l-0.127-0.213-0.013 0.2h-0.033zM20.813 19.673l0.007-0.253 0.18 0.007v0.033l-0.14-0.007-0.007 0.073 0.127 0.007v0.033l-0.133-0.007v0.12h-0.033zM21.013 19.68l0.1-0.253h0.040l0.1 0.267h-0.040l-0.027-0.087h-0.113l-0.027 0.080h-0.040zM21.080 19.58h0.093l-0.027-0.067c-0.004-0.015-0.009-0.035-0.013-0.056l-0.001-0.004-0.013 0.053-0.033 0.073zM21.287 19.687v-0.253h0.040v0.253h-0.040zM21.453 19.687v-0.22h-0.087v-0.027h0.207v0.027h-0.087v0.227h-0.033zM21.72 19.687l-0.020-0.267h0.040l0.007 0.227h0.133v0.027l-0.167 0.007zM21.893 19.673l0.080-0.267h0.040l0.133 0.247h-0.047l-0.033-0.067h-0.113l-0.020 0.087h-0.040zM21.96 19.56h0.093l-0.033-0.067-0.027-0.060c-0.001 0.019-0.003 0.038-0.007 0.055l0-0.002-0.027 0.073zM22.273 19.64l-0.027-0.253 0.173-0.020 0.007 0.033-0.14 0.013v0.080l0.133-0.013v0.033l-0.127 0.013 0.013 0.113h-0.033zM22.473 19.5c-0.004-0.011-0.006-0.025-0.006-0.038 0-0.025 0.007-0.049 0.019-0.069l-0 0.001c0.021-0.025 0.052-0.043 0.086-0.047l0.001-0 0.067 0.007c0.027 0.007 0.040 0.020 0.053 0.040l0.027 0.067-0.007 0.067c-0.008 0.022-0.022 0.040-0.040 0.053l-0 0c-0.017 0.013-0.037 0.023-0.059 0.027l-0.001 0c-0.006 0.001-0.013 0.002-0.020 0.002-0.017 0-0.032-0.003-0.047-0.009l0.001 0c-0.022-0.008-0.040-0.022-0.053-0.040l-0-0c-0.014-0.019-0.023-0.041-0.027-0.066l-0-0.001zM22.507 19.493c0 0.027 0.013 0.053 0.033 0.067 0.020 0.020 0.040 0.020 0.067 0.020s0.047-0.013 0.067-0.033c0.013-0.020 0.013-0.047 0.013-0.080-0.003-0.020-0.010-0.038-0.020-0.054l0 0c-0.010-0.015-0.023-0.026-0.039-0.033l-0.001-0c-0.007-0.002-0.015-0.003-0.023-0.003s-0.016 0.001-0.024 0.003l0.001-0c-0.027 0-0.047 0.007-0.067 0.027-0.007 0.020-0.013 0.047-0.007 0.087zM22.78 19.58l-0.040-0.253 0.113-0.020h0.053c0.013 0 0.027 0 0.033 0.013l0.020 0.040c0 0.020 0 0.033-0.013 0.047-0.007 0.013-0.027 0.027-0.047 0.033 0.008 0.002 0.014 0.004 0.021 0.007l-0.001-0 0.033 0.033 0.067 0.060h-0.047l-0.047-0.040c-0.011-0.012-0.022-0.023-0.033-0.033l-0-0c-0.006-0.005-0.012-0.010-0.020-0.013l-0-0c-0.003-0.001-0.006-0.001-0.010-0.001s-0.007 0-0.010 0.001l0-0h-0.020l-0.040 0.007 0.027 0.113h-0.040zM22.793 19.433l0.067-0.013c0.015-0.002 0.028-0.007 0.041-0.014l-0.001 0c0.012-0.007 0.020-0.020 0.020-0.035 0-0.002-0-0.004-0-0.005l0 0c-0.001-0.011-0.006-0.020-0.013-0.027l-0-0h-0.047l-0.087 0.007 0.020 0.087zM23.213 19.407h0.033c0 0.027-0.007 0.053-0.020 0.067-0.017 0.019-0.040 0.033-0.066 0.040l-0.001 0c-0.010 0.003-0.021 0.004-0.033 0.004s-0.023-0.002-0.034-0.004l0.001 0c-0.022-0.008-0.040-0.022-0.053-0.040l-0-0c-0.015-0.019-0.027-0.041-0.033-0.065l-0-0.001c-0.002-0.010-0.004-0.021-0.004-0.033s0.001-0.023 0.004-0.034l-0 0.001c0-0.027 0.020-0.047 0.033-0.060l0.060-0.027h0.067c0.027 0.013 0.040 0.027 0.053 0.053l-0.033 0.013c-0.008-0.014-0.019-0.026-0.033-0.033l-0-0c-0.007-0.002-0.015-0.004-0.023-0.004s-0.016 0.001-0.024 0.004l0.001-0c-0.018 0-0.035 0.008-0.047 0.020v0c-0.012 0.012-0.019 0.029-0.020 0.046v0.047c0.006 0.020 0.015 0.038 0.027 0.054l-0-0c0.007 0.013 0.020 0.027 0.040 0.027h0.047c0.016-0.003 0.029-0.010 0.040-0.020v0c0.013-0.013 0.020-0.033 0.020-0.053zM23.307 19.473l-0.067-0.247 0.18-0.047 0.013 0.027-0.153 0.040 0.020 0.073 0.14-0.033 0.013 0.027-0.147 0.040 0.027 0.080 0.16-0.040v0.027l-0.187 0.053z"></path>
</svg>
