<!-- Generated by IcoMoon.io -->
<svg version="1.1" xmlns="http://www.w3.org/2000/svg" width="43" height="32" viewBox="0 0 43 32">
<title>il</title>
<path fill="#fff" d="M44.289 32.085h-45.834v-32.085h45.834z"></path>
<path fill="#00c" d="M44.289 7.219h-45.834v-4.211h45.834zM44.289 29.184h-45.834v-4.211h45.834zM14.021 11.951l6.9 12.007 7.050-11.951-13.95-0.050z"></path>
<path fill="#fff" d="M19.623 19.915l1.31 2.225 1.341-2.212-2.657-0.013z"></path>
<path fill="#00c" d="M13.996 20.091l6.906-12.007 7.044 11.957-13.95 0.050z"></path>
<path fill="#fff" d="M19.623 12.007l1.31-2.225 1.341 2.218-2.657 0.006zM16.879 16.989l-1.36 2.256 2.569-0.006-1.209-2.256zM15.544 12.822l2.582 0.019-1.241 2.275-1.341-2.294zM25.019 17.020l1.31 2.225-2.613-0.031 1.303-2.193zM26.304 12.822l-2.582 0.019 1.241 2.275 1.341-2.294zM19.141 12.822l-1.78 3.221 1.805 3.152 3.309 0.075 2.005-3.227-1.855-3.259-3.484 0.031z"></path>
</svg>
