<!-- Generated by IcoMoon.io -->
<svg version="1.1" xmlns="http://www.w3.org/2000/svg" width="43" height="32" viewBox="0 0 43 32">
<title>im</title>
<path fill="#ba0000" d="M44.296 32.085h-45.834v-32.085h45.834z"></path>
<path fill="#ffef00" d="M22.463 23.563c0.013-0.038 0.038-0.426 0.025-0.426s-0.589-0.683-0.577-0.683c0.013 0 0.739 0.163 0.739 0.138s0.295-0.721 0.295-0.733l0.351 0.846 0.721 0.313-0.501 0.42 0.107 0.815c0 0.019-0.501-0.476-0.501-0.476l-0.558 0.063s-0.075-0.251-0.1-0.276z"></path>
<path fill="#fff" d="M18.559 12.966c-0.483 0.251-2.319 2.35-2.569 2.676-0.269 0.57-0.623 1.056-1.051 1.465l-0.002 0.002c-0.457 0.345-0.708 0.815-0.645 1.253 0 0.564 0.307 0.94 0.551 1.322 0.144 0.182 0.345 0.295 0.551 0.313 0.432 0.050 0.47 0.188 0.689 0.263 0.84 1.153 2.106 2.005 3.008 2.676 0.434 0.208 0.806 0.468 1.13 0.779l-0.002-0.001c0.263 0.514 0.213 1.003 0.175 1.253l-0.671 2.544c-0.119 0.689 0.489 0.539 0.52 0.401 0.269-0.357 0.677-0.107 1.253-2.149l0.802-1.072s0.307-0.125 0.307-0.157c0.47-0.564 0.113-0.877-0.157-0.984l-0.577-0.213s-0.677-0.677-0.708-0.677c-0.32-0.934-1.899-2.92-2.262-3.196-0.251-0.269-0.376-0.376-0.614-0.526-0.37-0.175-0.489-0.238-0.714-0.326-0.188-0.075-0.056-0.282 0.063-0.376 1.253-0.683 2.237-1.435 3.434-2.2l0.188-0.125-0.432-2.457-1.993-0.702c-0.107 0.069-0.188 0.144-0.276 0.213z"></path>
<path fill="#ffec00" d="M20.225 25.888c0-0.025 1.253-0.251 1.253-0.251l-0.157 0.464-1.235 0.376 0.138-0.583z"></path>
<path fill="#ffe606" d="M14.817 18.38c0.263-0.019 0.708 0.063 0.721 0.063l0.589-0.013c0.313-0.025 0.376-0.144 0.426-0.232 0.119-0.175 0.194-0.238 0.288-0.376 0.138-0.1 0.338 0.144 0.345 0.144 0.501 0.476 0.1 1.053 0.075 1.072-0.251 0.232-0.307 0.244-0.457 0.1-0.15-0.182-0.194-0.263-0.32-0.326-0.244-0.113-0.739-0.025-0.752-0.025l-0.257 0.1c-0.125 0.044-0.201 0.15-0.407 0.188-0.219 0.013-0.288-0.006-0.395-0.182-0.144-0.219-0.075-0.489 0.144-0.514z"></path>
<path fill="#ffef00" d="M28.779 7.564c-0.038 0-0.395 0.175-0.389 0.188 0.006 0.006-0.301 0.846-0.307 0.84-0.006-0.013-0.219-0.733-0.244-0.721-0.019 0.013-0.771 0.1-0.777 0.107l0.564-0.721-0.081-0.783 0.614 0.238 0.658-0.501c0.013-0.006-0.169 0.677-0.169 0.677l0.326 0.451s-0.188 0.188-0.194 0.226z"></path>
<path fill="#fff" d="M21.46 16.162c0.445 0.295 3.177 0.871 3.591 0.927 0.11-0.009 0.239-0.014 0.369-0.014 0.508 0 0.998 0.078 1.457 0.224l-0.034-0.009c0.52 0.226 1.053 0.213 1.41-0.063 0.489-0.263 0.664-0.714 0.877-1.128 0.043-0.092 0.068-0.2 0.068-0.313s-0.025-0.221-0.070-0.318l0.002 0.005c-0.163-0.401-0.063-0.501-0.1-0.727 0.589-1.303 0.714-2.82 0.852-3.942-0.013-0.658 0.056-1.159 0.125-1.36 0.243-0.352 0.586-0.618 0.989-0.76l0.014-0.004 2.551-0.664c0.664-0.238 0.232-0.689 0.094-0.652-0.439-0.063-0.426-0.539-2.488-0.044l-1.329-0.169s-0.251-0.207-0.282-0.188c-0.721-0.132-0.821 0.332-0.783 0.614l0.1 0.614s-0.257 0.915-0.244 0.94c-0.658 0.739-1.629 3.108-1.692 3.566-0.031 0.426-0.188 0.345-0.15 0.765 0 0.326-0.038 0.125 0.069 0.79 0.031 0.201-0.219 0.188-0.357 0.125-1.203-0.752-2.344-1.247-3.603-1.911l-0.194-0.1-1.93 1.579 0.363 2.081c0.113 0.063 0.213 0.094 0.32 0.138z"></path>
<path fill="#ffec00" d="M31.907 8.372c-0.264-0.289-0.537-0.603-0.801-0.924l-0.033-0.041 0.476-0.094 0.927 0.896-0.57 0.163z"></path>
<path fill="#ffe606" d="M28.009 16.77c-0.144-0.226-0.295-0.652-0.301-0.658l-0.295-0.514c-0.175-0.251-0.313-0.251-0.414-0.251-0.213-0.019-0.307-0.063-0.464-0.069-0.163-0.075-0.044-0.37-0.050-0.376 0.169-0.664 0.877-0.602 0.902-0.589 0.32 0.107 0.357 0.15 0.307 0.351-0.081 0.219-0.125 0.301-0.125 0.439 0.019 0.263 0.345 0.658 0.345 0.664l0.213 0.175c0.1 0.088 0.232 0.1 0.363 0.269 0.119 0.182 0.138 0.251 0.038 0.426-0.125 0.238-0.389 0.307-0.52 0.132z"></path>
<path fill="#ffef00" d="M11.446 10.572c0.031 0.025 0.363 0.232 0.376 0.219s0.877-0.213 0.865-0.201-0.489 0.583-0.464 0.595c0.025 0.013 0.501 0.589 0.514 0.595l-0.909-0.075-0.614 0.489-0.138-0.639-0.771-0.276c-0.013-0.006 0.658-0.226 0.658-0.226l0.201-0.52s0.257 0.044 0.295 0.038z"></path>
<path fill="#fff" d="M22.651 11.988c0-0.545-1.015-3.146-1.191-3.516-0.355-0.457-0.634-0.994-0.806-1.576l-0.009-0.034c-0.094-0.564-0.395-1.003-0.815-1.153-0.495-0.257-0.971-0.157-1.429-0.113-0.226 0.044-0.42 0.169-0.526 0.345-0.251 0.357-0.382 0.326-0.558 0.483-1.41 0.219-2.745 0.946-3.76 1.441-0.346 0.264-0.747 0.481-1.18 0.63l-0.030 0.009c-0.451-0.007-0.864-0.161-1.195-0.417l0.005 0.003-1.949-1.773c-0.564-0.42-0.702 0.188-0.595 0.282 0.188 0.401-0.219 0.645 1.329 2.106l0.583 1.203s-0.031 0.326 0 0.338c0.276 0.677 0.727 0.508 0.94 0.32l0.457-0.42s0.909-0.288 0.921-0.313c0.978 0.144 3.497-0.332 3.91-0.533 0.376-0.207 0.395-0.031 0.721-0.295 0.269-0.182 0.125-0.038 0.627-0.495 0.15-0.125 0.269 0.081 0.301 0.232 0.025 1.423 0.238 2.645 0.37 4.061l0.025 0.219 2.381 0.752 1.542-1.441-0.063-0.351z"></path>
<path fill="#ffec00" d="M10.412 7.507c0.019 0.019-0.351 1.228-0.351 1.228l-0.338-0.345 0.238-1.272 0.451 0.389z"></path>
<path fill="#ffe606" d="M19.574 6.173c-0.119 0.232-0.248 0.431-0.394 0.616l0.006-0.008-0.263 0.526c-0.113 0.288-0.044 0.407 0.006 0.489 0.107 0.188 0.125 0.288 0.201 0.426 0.031 0.175-0.282 0.238-0.282 0.244-0.652 0.226-0.984-0.401-0.984-0.432-0.088-0.326-0.075-0.376 0.125-0.445 0.226-0.056 0.313-0.063 0.426-0.138 0.219-0.163 0.37-0.645 0.376-0.652l0.025-0.276c0.019-0.125-0.038-0.251 0.025-0.451 0.088-0.201 0.138-0.251 0.338-0.269 0.263-0.019 0.47 0.163 0.395 0.37z"></path>
<path fill="#ffef00" d="M18.721 12.515c-0.1-0.094 1.842 0.702 2.112 0.708 0.363-0.132 1.874-1.404 1.874-1.404 0.013 0.125 0.069 0.445 0.213 0.514-0.583 0.47-1.109 0.927-1.692 1.397 0.038 0.752-0.094 1.548 0.282 2.381 0 0-0.451 0.013-0.451 0-0.401-0.401-0.545-2.331-0.545-2.331l-1.918-0.852c0.094-0.063 0.163-0.244 0.125-0.42z"></path>
</svg>
