<!-- Generated by IcoMoon.io -->
<svg version="1.1" xmlns="http://www.w3.org/2000/svg" width="43" height="32" viewBox="0 0 43 32">
<title>in</title>
<path fill="#f93" d="M0 0h42.667v10.667h-42.667z"></path>
<path fill="#fff" d="M0 10.667h42.667v10.667h-42.667z"></path>
<path fill="#128807" d="M0 21.333h42.667v10.667h-42.667z"></path>
<path fill="#008" d="M25.6 16c0 2.356-1.91 4.267-4.267 4.267s-4.267-1.91-4.267-4.267c0-2.356 1.91-4.267 4.267-4.267s4.267 1.91 4.267 4.267z"></path>
<path fill="#fff" d="M25.067 16c0 2.062-1.671 3.733-3.733 3.733s-3.733-1.671-3.733-3.733c0-2.062 1.671-3.733 3.733-3.733s3.733 1.671 3.733 3.733z"></path>
<path fill="#008" d="M22.080 16c0 0.412-0.334 0.747-0.747 0.747s-0.747-0.334-0.747-0.747c0-0.412 0.334-0.747 0.747-0.747s0.747 0.334 0.747 0.747z"></path>
<path fill="#008" d="M25.225 16.514c-0.014 0.105-0.11 0.179-0.215 0.165s-0.179-0.11-0.165-0.215c0.014-0.105 0.11-0.179 0.215-0.165s0.179 0.11 0.165 0.215z"></path>
<path fill="#008" d="M21.333 19.733l0.128-2.24-0.128-1.067-0.128 1.067 0.128 2.24z"></path>
<path fill="#008" d="M24.959 17.503c-0.041 0.098-0.153 0.145-0.251 0.104s-0.145-0.153-0.104-0.251c0.041-0.098 0.153-0.145 0.251-0.104s0.145 0.153 0.104 0.251z"></path>
<path fill="#008" d="M20.367 19.606l0.703-2.131 0.152-1.063-0.4 0.997-0.456 2.197z"></path>
<path fill="#008" d="M24.447 18.391c-0.065 0.084-0.185 0.1-0.269 0.035s-0.1-0.185-0.035-0.269c0.065-0.084 0.185-0.1 0.269-0.035s0.1 0.185 0.035 0.269z"></path>
<path fill="#008" d="M19.467 19.233l1.231-1.876 0.422-0.988-0.644 0.86-1.009 2.004z"></path>
<path fill="#008" d="M18.693 18.64l1.674-1.493 0.664-0.845-0.845 0.664-1.493 1.674z"></path>
<path fill="#008" d="M22.834 19.627c-0.098 0.041-0.21-0.006-0.251-0.104s0.006-0.21 0.104-0.251c0.098-0.041 0.21 0.006 0.251 0.104s-0.006 0.21-0.104 0.251z"></path>
<path fill="#008" d="M18.1 17.867l2.004-1.009 0.86-0.644-0.988 0.422-1.876 1.231z"></path>
<path fill="#008" d="M17.727 16.966l2.197-0.456 0.997-0.4-1.063 0.152-2.131 0.703z"></path>
<path fill="#008" d="M17.6 16l2.24 0.128 1.067-0.128-1.067-0.128-2.24 0.128z"></path>
<path fill="#008" d="M20.82 19.892c-0.105-0.014-0.179-0.11-0.165-0.215s0.11-0.179 0.215-0.165c0.105 0.014 0.179 0.11 0.165 0.215s-0.11 0.179-0.215 0.165z"></path>
<path fill="#008" d="M17.727 15.034l2.131 0.703 1.063 0.152-0.997-0.4-2.197-0.456z"></path>
<path fill="#008" d="M18.943 19.113c-0.084-0.065-0.1-0.185-0.035-0.269s0.185-0.1 0.269-0.035c0.084 0.065 0.1 0.185 0.035 0.269s-0.185 0.1-0.269 0.035z"></path>
<path fill="#008" d="M18.1 14.133l1.876 1.231 0.988 0.422-0.86-0.644-2.004-1.009z"></path>
<path fill="#008" d="M18.693 13.36l1.493 1.674 0.845 0.664-0.664-0.845-1.674-1.493z"></path>
<path fill="#008" d="M19.467 12.767l1.009 2.004 0.644 0.86-0.422-0.988-1.231-1.876z"></path>
<path fill="#008" d="M17.706 17.501c-0.041-0.098 0.006-0.21 0.104-0.251s0.21 0.006 0.251 0.104c0.041 0.098-0.006 0.21-0.104 0.251s-0.21-0.006-0.251-0.104z"></path>
<path fill="#008" d="M20.367 12.394l0.456 2.197 0.4 0.997-0.152-1.063-0.703-2.131z"></path>
<path fill="#008" d="M21.333 12.267l-0.128 2.24 0.128 1.067 0.128-1.067-0.128-2.24z"></path>
<path fill="#008" d="M18.945 12.885c0.084-0.065 0.205-0.049 0.269 0.035s0.049 0.205-0.035 0.269c-0.084 0.065-0.205 0.049-0.269-0.035s-0.049-0.205 0.035-0.269z"></path>
<path fill="#008" d="M22.3 12.394l-0.703 2.131-0.152 1.063 0.4-0.997 0.456-2.197z"></path>
<path fill="#008" d="M18.22 13.609c0.065-0.084 0.185-0.1 0.269-0.035s0.1 0.185 0.035 0.269c-0.065 0.084-0.185 0.1-0.269 0.035s-0.1-0.185-0.035-0.269z"></path>
<path fill="#008" d="M23.973 13.36l-1.674 1.493-0.664 0.845 0.845-0.664 1.493-1.674z"></path>
<path fill="#008" d="M19.832 12.373c0.098-0.041 0.21 0.006 0.251 0.104s-0.006 0.21-0.104 0.251c-0.098 0.041-0.21-0.006-0.251-0.104s0.006-0.21 0.104-0.251z"></path>
<path fill="#008" d="M24.567 14.133l-2.004 1.009-0.86 0.644 0.988-0.422 1.876-1.231z"></path>
<path fill="#008" d="M24.939 15.034l-2.197 0.456-0.997 0.4 1.063-0.152 2.131-0.703z"></path>
<path fill="#008" d="M25.067 16l-2.24-0.128-1.067 0.128 1.067 0.128 2.24-0.128z"></path>
<path fill="#008" d="M21.847 12.108c0.105 0.014 0.179 0.11 0.165 0.215s-0.11 0.179-0.215 0.165c-0.105-0.014-0.179-0.11-0.165-0.215s0.11-0.179 0.215-0.165z"></path>
<path fill="#008" d="M24.939 16.966l-2.131-0.703-1.063-0.152 0.997 0.4 2.197 0.456z"></path>
<path fill="#008" d="M24.567 17.867l-1.876-1.231-0.988-0.422 0.86 0.644 2.004 1.009z"></path>
<path fill="#008" d="M25.225 15.489c0.014 0.105-0.060 0.202-0.165 0.215s-0.202-0.060-0.215-0.165c-0.014-0.105 0.060-0.202 0.165-0.215s0.202 0.060 0.215 0.165z"></path>
<path fill="#008" d="M23.973 18.64l-1.493-1.674-0.845-0.664 0.664 0.845 1.674 1.493z"></path>
<path fill="#008" d="M24.96 14.499c0.041 0.098-0.006 0.21-0.104 0.251s-0.21-0.006-0.251-0.104c-0.041-0.098 0.006-0.21 0.104-0.251s0.21 0.006 0.251 0.104z"></path>
<path fill="#008" d="M22.3 19.606l-0.456-2.197-0.4-0.997 0.152 1.063 0.703 2.131z"></path>
</svg>
