<!-- Generated by IcoMoon.io -->
<svg version="1.1" xmlns="http://www.w3.org/2000/svg" width="43" height="32" viewBox="0 0 43 32">
<title>io</title>
<path fill="#fff" d="M0 0h64v32h-64z"></path>
<path fill="#000063" d="M64 27.825c-0.719 0.438-1.331 1.438-3.237 1.438-3.813 0-4.763-2.119-7.625-2.119-1.9 0-2.85 2.125-4.756 2.125-3.813 0-4.763-2.125-7.625-2.125-1.9 0-2.85 2.125-4.75 2.125-3.813 0-4.769-2.125-7.625-2.125-1.906 0-2.856 2.125-4.762 2.125-3.813 0-4.762-2.125-7.619-2.125-1.906 0-2.856 2.125-4.762 2.125-3.813 0-4.763-2.125-7.619-2.125-1.906 0-2.475 1.512-3.619 1.512v2.731c1.144 0 1.712-1.512 3.625-1.512 2.85 0 3.806 2.125 7.613 2.125 1.906 0 2.856-2.125 4.762-2.125 2.856 0 3.813 2.125 7.625 2.125 1.9 0 2.85-2.125 4.756-2.125 2.856 0 3.813 2.125 7.619 2.125 1.906 0 2.856-2.125 4.763-2.125 2.856 0 3.813 2.125 7.619 2.125 1.906 0 2.856-2.125 4.763-2.125 2.856 0 3.813 2.125 7.619 2.125 1.906 0 2.519-0.6 3.237-1.031v-3.144zM64 22.519c-0.719 0.438-1.331 1.438-3.237 1.438-3.813 0-4.763-2.125-7.625-2.125-1.9 0-2.85 2.125-4.756 2.125-3.813 0-4.763-2.125-7.625-2.125-1.9 0-2.85 2.125-4.75 2.125-3.813 0-4.769-2.125-7.625-2.125-1.906 0-2.856 2.125-4.762 2.125-3.813 0-4.762-2.125-7.619-2.125-1.906 0-2.856 2.125-4.762 2.125-3.813 0-4.763-2.125-7.619-2.125-1.906 0-2.475 1.519-3.619 1.519v2.731c1.144 0 1.712-1.512 3.625-1.512 2.85 0 3.806 2.125 7.613 2.125 1.906 0 2.856-2.125 4.762-2.125 2.856 0 3.813 2.125 7.625 2.125 1.9 0 2.85-2.125 4.756-2.125 2.856 0 3.813 2.125 7.625 2.125 1.9 0 2.85-2.125 4.756-2.125 2.856 0 3.813 2.125 7.619 2.125 1.906 0 2.856-2.125 4.763-2.125 2.856 0 3.813 2.125 7.619 2.125 1.906 0 2.519-0.6 3.237-1.031v-3.144zM64 17.212c-0.719 0.438-1.331 1.438-3.237 1.438-3.813 0-4.763-2.125-7.625-2.125-1.9 0-2.85 2.125-4.756 2.125-3.813 0-4.763-2.125-7.625-2.125-1.9 0-2.85 2.125-4.75 2.125-3.813 0-4.769-2.125-7.625-2.125-1.906 0-2.856 2.125-4.762 2.125-3.813 0-4.762-2.125-7.619-2.125-1.906 0-2.856 2.125-4.762 2.125-3.813 0-4.763-2.125-7.619-2.125-1.906 0-2.475 1.519-3.619 1.519v2.731c1.144 0 1.712-1.512 3.625-1.512 2.85 0 3.806 2.125 7.613 2.125 1.906 0 2.856-2.125 4.762-2.125 2.856 0 3.813 2.125 7.625 2.125 1.9 0 2.85-2.125 4.756-2.125 2.856 0 3.813 2.125 7.625 2.125 1.9 0 2.85-2.125 4.756-2.125 2.856 0 3.813 2.125 7.619 2.125 1.906 0 2.856-2.125 4.763-2.125 2.856 0 3.813 2.125 7.619 2.125 1.906 0 2.519-0.606 3.237-1.038v-3.137zM64 11.906c-0.719 0.431-1.331 1.438-3.237 1.438-3.813 0-4.763-2.125-7.625-2.125-1.9 0-2.85 2.125-4.756 2.125-3.813 0-4.763-2.125-7.625-2.125-1.9 0-2.85 2.125-4.75 2.125-3.813 0-4.769-2.125-7.625-2.125-1.906 0-2.856 2.125-4.762 2.125-3.813 0-4.762-2.125-7.619-2.125-1.906 0-2.856 2.125-4.762 2.125-3.813 0-4.763-2.125-7.619-2.125-1.906 0-2.475 1.519-3.619 1.519v2.731c1.144 0 1.712-1.512 3.625-1.512 2.85 0 3.806 2.125 7.613 2.125 1.906 0 2.856-2.125 4.762-2.125 2.856 0 3.813 2.125 7.625 2.125 1.9 0 2.85-2.125 4.756-2.125 2.856 0 3.813 2.125 7.625 2.125 1.9 0 2.85-2.125 4.756-2.125 2.856 0 3.813 2.125 7.619 2.125 1.906 0 2.856-2.125 4.763-2.125 2.856 0 3.813 2.125 7.619 2.125 1.906 0 2.519-0.606 3.237-1.037v-3.138zM64 6.594c-0.719 0.438-1.331 1.444-3.237 1.444-3.813 0-4.763-2.125-7.625-2.125-1.9 0-2.85 2.125-4.756 2.125-3.813 0-4.763-2.125-7.625-2.125-1.9 0-2.85 2.125-4.75 2.125-3.813 0-4.769-2.125-7.625-2.125-1.906 0-2.856 2.125-4.762 2.125-3.813 0-4.762-2.125-7.619-2.125-1.906 0-2.856 2.125-4.762 2.125-3.813 0-4.763-2.125-7.619-2.125-1.906 0.006-2.475 1.525-3.619 1.525v2.731c1.144 0 1.712-1.512 3.619-1.512 2.856 0 3.813 2.125 7.625 2.125 1.9 0 2.85-2.125 4.756-2.125 2.856 0 3.813 2.125 7.625 2.125 1.9 0 2.85-2.125 4.75-2.125 2.863 0 3.813 2.125 7.625 2.125 1.906 0 2.856-2.125 4.763-2.125 2.856 0 3.813 2.125 7.619 2.125 1.906 0 2.856-2.125 4.763-2.125 2.856 0 3.813 2.125 7.619 2.125 1.9 0 2.519-0.606 3.237-1.037v-3.138zM64 1.294c-0.719 0.431-1.331 1.438-3.237 1.438-3.813 0-4.763-2.125-7.625-2.125-1.9 0-2.85 2.125-4.756 2.125-3.813 0-4.763-2.125-7.625-2.125-1.9 0-2.85 2.125-4.75 2.125-3.813 0-4.769-2.125-7.625-2.125-1.906 0-2.856 2.125-4.762 2.125-3.813 0-4.762-2.125-7.619-2.125-1.906 0-2.856 2.125-4.762 2.125-3.813 0-4.763-2.125-7.619-2.125-1.906 0-2.475 1.519-3.619 1.519v2.737c1.144 0 1.712-1.513 3.619-1.513 2.856 0 3.813 2.125 7.625 2.125 1.9 0 2.85-2.125 4.756-2.125 2.856 0 3.813 2.125 7.625 2.125 1.9 0 2.85-2.125 4.75-2.125 2.863 0 3.813 2.125 7.625 2.125 1.906 0 2.856-2.125 4.763-2.125 2.856 0 3.813 2.125 7.619 2.125 1.906 0 2.856-2.125 4.763-2.125 2.856 0 3.813 2.125 7.619 2.125 1.9 0 2.519-0.606 3.237-1.037v-3.144z"></path>
<path fill="#000063" d="M0 0h16.331v9.875h-16.331z"></path>
<path fill="#fff" d="M0 0v1.106l14.506 8.769h1.825v-1.106l-14.5-8.762h-1.831zM16.331 0v1.106l-14.5 8.769h-1.831v-1.106l14.506-8.762h1.825z"></path>
<path fill="#fff" d="M6.806 0v9.875h2.719v-9.875h-2.713zM0 3.3v3.288h16.331v-3.294h-16.331z"></path>
<path fill="#c00" d="M0 3.95v1.975h16.331v-1.975h-16.331zM7.35 0v9.875h1.631v-9.875h-1.631zM0 9.875l5.444-3.294h1.219l-5.444 3.294h-1.219zM0 0l5.444 3.294h-1.219l-4.225-2.556v-0.731zM9.669 3.294l5.444-3.288h1.219l-5.438 3.288h-1.225zM16.331 9.875l-5.438-3.294h1.213l4.225 2.556v0.738z"></path>
<path fill="#a24300" stroke="#fff" stroke-linejoin="miter" stroke-linecap="butt" stroke-miterlimit="4" stroke-width="0.46" d="M23.738 7.484l-0.23 21.713c0 1.143 1.033 1.143 1.143 0l-0.228-21.713h-0.685z"></path>
<path fill="#006d00" stroke="#fff" stroke-linejoin="miter" stroke-linecap="butt" stroke-miterlimit="4" stroke-width="0.5533" d="M26.106 15.559l-0.721-0.789-0.177 0.798-0.313-1.154-0.292 0.581-0.052-1.229-0.291 0.582-0.052-1.229-0.292 0.581-0.167-1.445-0.291 0.582-0.167-1.445-0.292 0.581-0.251-2.168 0.146-0.29 0.376 0.141 1.813 1.72-0.75-0.282 1.208 1.146-0.75-0.284 1.208 1.146-0.75-0.282 1.094 0.931-0.75-0.284 1.094 0.931-0.75-0.282 0.831 1.004-0.865-0.499 0.197 0.939z"></path>
<path fill="#006d00" stroke="#fff" stroke-linejoin="miter" stroke-linecap="butt" stroke-miterlimit="4" stroke-width="0.5533" d="M17.678 5.249l1.175 0.447-0.342-0.888 1.027 1.011-0.097-0.725 0.831 1.212-0.098-0.726 0.831 1.212-0.097-0.725 1.075 1.374-0.098-0.726 1.075 1.374-0.097-0.725 1.613 2.061 0.048 0.362-0.441 0.040-2.788-0.858 0.88-0.077-1.858-0.571 0.881-0.076-1.858-0.571 0.88-0.077-1.614-0.41 0.881-0.076-1.614-0.41 0.88-0.077-1.416-0.61 1.126 0.086-0.781-0.85z"></path>
<path fill="#006d00" stroke="#fff" stroke-linejoin="miter" stroke-linecap="butt" stroke-miterlimit="4" stroke-width="0.5533" d="M31.328 6.764l-0.978 0.717 1.080 0.119-1.505 0.357 0.802 0.239-1.631 0.119 0.804 0.238-1.631 0.119 0.802 0.239-1.907 0.238 0.804 0.238-1.907 0.238 0.802 0.239-2.861 0.357-0.401-0.119 0.149-0.359 2.107-1.788-0.3 0.715 1.404-1.192-0.302 0.716 1.404-1.192-0.3 0.715 1.129-1.073-0.302 0.716 1.129-1.073-0.3 0.715 1.253-0.832-0.577 0.835 1.23-0.237z"></path>
<path fill="#006d00" stroke="#fff" stroke-linejoin="miter" stroke-linecap="butt" stroke-miterlimit="4" stroke-width="0.5533" d="M31.172 13.989l-1.218-0.352 0.436 0.857-1.131-0.925 0.174 0.714-0.957-1.141 0.176 0.715-0.957-1.141 0.174 0.714-1.218-1.283 0.176 0.715-1.218-1.283 0.174 0.714-1.828-1.924-0.087-0.357 0.435-0.075 2.869 0.633-0.868 0.147 1.912 0.422-0.87 0.146 1.912 0.422-0.868 0.147 1.651 0.28-0.87 0.146 1.651 0.28-0.868 0.147 1.475 0.496-1.13 0.004 0.869 0.785z"></path>
<path fill="#006d00" stroke="#fff" stroke-linejoin="miter" stroke-linecap="butt" stroke-miterlimit="4" stroke-width="0.5533" d="M18.486 14.408l0.61-0.855-0.932 0.135 1.151-0.654-0.735-0.033 1.323-0.47-0.736-0.032 1.323-0.47-0.735-0.033 1.518-0.637-0.736-0.032 1.518-0.637-0.735-0.033 2.278-0.956 0.368 0.017-0.023 0.352-1.246 2.059 0.047-0.702-0.831 1.372 0.048-0.703-0.831 1.372 0.047-0.702-0.635 1.205 0.048-0.703-0.635 1.205 0.047-0.702-0.807 1.019 0.244-0.87-0.956 0.485z"></path>
<path fill="#006d00" stroke="#fff" stroke-linejoin="miter" stroke-linecap="butt" stroke-miterlimit="4" stroke-width="0.5533" d="M29.562 3.16l-1.182 0.791-0.193-0.848-0.697 1.172-0.127-0.564-0.568 1.203-0.079-0.554-0.443 1.232-0.252-0.594-0.444 1.499-0.251-0.595-0.444 1.499-0.252-0.594-0.666 2.249 0.126 0.297 0.475-0.155 2.465-1.825-0.947 0.311 1.643-1.216-0.948 0.312 1.643-1.216-0.947 0.311 1.642-0.949-1.121 0.271 1.769-0.919-1.076 0.28 1.298-1.030-1.122 0.538 0.696-0.905z"></path>
<path fill="#006d00" stroke="#fff" stroke-linejoin="miter" stroke-linecap="butt" stroke-miterlimit="4" stroke-width="0.5533" d="M23.165 1.677l0.528 1.204 0.68-0.637-0.117 1.312 0.451-0.424-0.246 1.281 0.403-0.438-0.371 1.25 0.576-0.393-0.532 1.478 0.576-0.395-0.532 1.478 0.576-0.393-0.798 2.217-0.288 0.197-0.311-0.345-0.332-0.888-0.663-1.774 0.619 0.69-0.663-1.774 0.62 0.691-0.663-1.774 0.619 0.69-0.825-1.546 0.792 0.734-0.951-1.577 0.748 0.721-0.482-1.461 0.631 0.962-0.044-1.084z"></path>
<path fill="#006d00" stroke="#fff" stroke-linejoin="miter" stroke-linecap="butt" stroke-miterlimit="4" stroke-width="0.5533" d="M16.089 10.534l1.542-1.068-0.773-0.398 1.351 0.231-0.463-0.613 1.313 0.492-0.465-0.613 1.313 0.49-0.463-0.611 1.583 0.536-0.463-0.611 1.545 0.796-0.465-0.611 1.583 0.536 0.773 0.398 0.232 0.306-0.308 0.215-0.85 0.121-1.37 0.564 0.252-0.489-1.698 0.242 0.616-0.427-1.736 0.502 0.616-0.427-1.466 0.549 0.656-0.687-1.504 0.809 0.655-0.688-1.233 0.855 0.693-0.947-1.466 0.549z"></path>
<path fill="#c00" d="M21.273 22.232l-0.015-1.8-0.522-0.841c-0.131-0.413-0.067-0.613 0.145-0.627 0.211-0.013 0.42 0.107 0.724 0.12s0.247-0.467 0.696-0.453c0.449 0.013 1.232 0.254 1.898 0.294s1.014-0.214 1.782-0.24 0.971 0.333 1.014 0.333 0.261-0.146 0.478-0.173c0.218-0.027 0.29 0.080 0.29 0.080s-0.015 0.453-0.116 0.72c-0.102 0.267-0.464 0.707-0.478 0.707s-0.131 1.961-0.131 1.974c0 0.013-5.767-0.053-5.767-0.093z"></path>
<path fill="#fff100" d="M27.238 20.388s0.581-0.409 0.596-1.392c0.009-0.566-0.294-0.974-1.050-0.974-1.059 0-2.57 0.417-2.57 0.417v0.139s1.21-0.417 2.571-0.417c0.604 0 0.907 0.409 0.907 0.827 0 0.696-0.606 1.401-0.606 1.401v1.113h0.152v-1.114z"></path>
<path fill="#fff" d="M27.553 20.097c0 0.077 0.068 0.139 0.152 0.139s0.152-0.062 0.152-0.139v0c0-0.077-0.068-0.139-0.152-0.139s-0.152 0.062-0.152 0.139v0z"></path>
<path fill="#fff" d="M27.703 19.778c0 0.077 0.068 0.139 0.152 0.139s0.152-0.062 0.152-0.139v0c0-0.077-0.068-0.139-0.152-0.139s-0.152 0.062-0.152 0.139v0z"></path>
<path fill="#fff" d="M27.785 19.453c0 0.077 0.068 0.139 0.152 0.139s0.152-0.062 0.152-0.139v0c0-0.077-0.068-0.139-0.152-0.139s-0.152 0.062-0.152 0.139v0z"></path>
<path fill="#fff" d="M27.841 19.109c0 0.077 0.068 0.139 0.152 0.139s0.152-0.062 0.152-0.139v0c0-0.077-0.068-0.139-0.152-0.139s-0.152 0.062-0.152 0.139v0z"></path>
<path fill="#fff" d="M27.828 18.734c0 0.077 0.068 0.139 0.152 0.139s0.152-0.062 0.152-0.139v0c0-0.077-0.068-0.139-0.152-0.139s-0.152 0.062-0.152 0.139v0z"></path>
<path fill="#fff" d="M27.335 20.378c0 0.077 0.068 0.139 0.152 0.139s0.152-0.062 0.152-0.139v0c0-0.077-0.068-0.139-0.152-0.139s-0.152 0.062-0.152 0.139v0z"></path>
<path fill="#fff" d="M27.697 18.378c0 0.077 0.068 0.139 0.152 0.139s0.152-0.062 0.152-0.139v0c0-0.077-0.068-0.139-0.152-0.139s-0.152 0.062-0.152 0.139v0z"></path>
<path fill="#fff" d="M27.416 18.097c0 0.077 0.068 0.139 0.152 0.139s0.152-0.062 0.152-0.139v0c0-0.077-0.068-0.139-0.152-0.139s-0.152 0.062-0.152 0.139v0z"></path>
<path fill="#fff" d="M27.041 17.909c0 0.077 0.068 0.139 0.152 0.139s0.152-0.062 0.152-0.139v0c0-0.077-0.068-0.139-0.152-0.139s-0.152 0.062-0.152 0.139v0z"></path>
<path fill="#fff" d="M26.666 17.884c0 0.077 0.068 0.139 0.152 0.139s0.152-0.062 0.152-0.139v0c0-0.077-0.068-0.139-0.152-0.139s-0.152 0.062-0.152 0.139v0z"></path>
<path fill="#fff" d="M26.26 17.897c0 0.077 0.068 0.139 0.152 0.139s0.152-0.062 0.152-0.139v0c0-0.077-0.068-0.139-0.152-0.139s-0.152 0.062-0.152 0.139v0z"></path>
<path fill="#fff" d="M25.853 17.953c0 0.077 0.068 0.139 0.152 0.139s0.152-0.062 0.152-0.139v0c0-0.077-0.068-0.139-0.152-0.139s-0.152 0.062-0.152 0.139v0z"></path>
<path fill="#fff" d="M25.453 18.003c0 0.077 0.068 0.139 0.152 0.139s0.152-0.062 0.152-0.139v0c0-0.077-0.068-0.139-0.152-0.139s-0.152 0.062-0.152 0.139v0z"></path>
<path fill="#fff" d="M25.016 18.066c0 0.077 0.068 0.139 0.152 0.139s0.152-0.062 0.152-0.139v0c0-0.077-0.068-0.139-0.152-0.139s-0.152 0.062-0.152 0.139v0z"></path>
<path fill="#fff" d="M24.641 18.166c0 0.077 0.068 0.139 0.152 0.139s0.152-0.062 0.152-0.139v0c0-0.077-0.068-0.139-0.152-0.139s-0.152 0.062-0.152 0.139v0z"></path>
<path fill="#fff" d="M20.872 20.097c0 0.077-0.068 0.139-0.152 0.139s-0.152-0.062-0.152-0.139v0c0-0.077 0.068-0.139 0.152-0.139s0.152 0.062 0.152 0.139v0z"></path>
<path fill="#fff" d="M20.715 19.778c0 0.077-0.068 0.139-0.152 0.139s-0.152-0.062-0.152-0.139v0c0-0.077 0.068-0.139 0.152-0.139s0.152 0.062 0.152 0.139v0z"></path>
<path fill="#fff" d="M20.64 19.453c0 0.077-0.068 0.139-0.152 0.139s-0.152-0.062-0.152-0.139v0c0-0.077 0.068-0.139 0.152-0.139s0.152 0.062 0.152 0.139v0z"></path>
<path fill="#fff" d="M20.584 19.109c0 0.077-0.068 0.139-0.152 0.139s-0.152-0.062-0.152-0.139v0c0-0.077 0.068-0.139 0.152-0.139s0.152 0.062 0.152 0.139v0z"></path>
<path fill="#fff" d="M20.597 18.734c0 0.077-0.068 0.139-0.152 0.139s-0.152-0.062-0.152-0.139v0c0-0.077 0.068-0.139 0.152-0.139s0.152 0.062 0.152 0.139v0z"></path>
<path fill="#fff" d="M20.722 18.378c0 0.077-0.068 0.139-0.152 0.139s-0.152-0.062-0.152-0.139v0c0-0.077 0.068-0.139 0.152-0.139s0.152 0.062 0.152 0.139v0z"></path>
<path fill="#fff" d="M20.997 18.097c0 0.077-0.068 0.139-0.152 0.139s-0.152-0.062-0.152-0.139v0c0-0.077 0.068-0.139 0.152-0.139s0.152 0.062 0.152 0.139v0z"></path>
<path fill="#fff" d="M21.378 17.909c0 0.077-0.068 0.139-0.152 0.139s-0.152-0.062-0.152-0.139v0c0-0.077 0.068-0.139 0.152-0.139s0.152 0.062 0.152 0.139v0z"></path>
<path fill="#fff" d="M21.753 17.884c0 0.077-0.068 0.139-0.152 0.139s-0.152-0.062-0.152-0.139v0c0-0.077 0.068-0.139 0.152-0.139s0.152 0.062 0.152 0.139v0z"></path>
<path fill="#fff" d="M22.159 17.897c0 0.077-0.068 0.139-0.152 0.139s-0.152-0.062-0.152-0.139v0c0-0.077 0.068-0.139 0.152-0.139s0.152 0.062 0.152 0.139v0z"></path>
<path fill="#fff" d="M22.565 17.953c0 0.077-0.068 0.139-0.152 0.139s-0.152-0.062-0.152-0.139v0c0-0.077 0.068-0.139 0.152-0.139s0.152 0.062 0.152 0.139v0z"></path>
<path fill="#fff" d="M22.972 18.003c0 0.077-0.068 0.139-0.152 0.139s-0.152-0.062-0.152-0.139v0c0-0.077 0.068-0.139 0.152-0.139s0.152 0.062 0.152 0.139v0z"></path>
<path fill="#fff" d="M23.403 18.066c0 0.077-0.068 0.139-0.152 0.139s-0.152-0.062-0.152-0.139v0c0-0.077 0.068-0.139 0.152-0.139s0.152 0.062 0.152 0.139v0z"></path>
<path fill="#fff" d="M23.778 18.166c0 0.077-0.068 0.139-0.152 0.139s-0.152-0.062-0.152-0.139v0c0-0.077 0.068-0.139 0.152-0.139s0.152 0.062 0.152 0.139v0z"></path>
<path fill="#fff" d="M21.084 20.378c0 0.077-0.068 0.139-0.152 0.139s-0.152-0.062-0.152-0.139v0c0-0.077 0.068-0.139 0.152-0.139s0.152 0.062 0.152 0.139v0z"></path>
<path fill="#fff100" d="M21.187 20.388s-0.581-0.409-0.596-1.392c-0.009-0.566 0.294-0.974 1.050-0.974 1.059 0 2.57 0.417 2.57 0.417v0.139s-1.21-0.417-2.571-0.417c-0.604 0-0.907 0.409-0.907 0.827 0 0.696 0.606 1.401 0.606 1.401v1.113h-0.152v-1.114z"></path>
<path fill="#fff100" d="M22.242 20.904s0.044-0.106 0.202-0.106c0.108 0 0.201 0.106 0.201 0.212v0.212h0.101v-0.212c0-0.106 0.101-0.212 0.201-0.212 0.151 0 0.202 0.106 0.202 0.106s0-0.318-0.202-0.318c-0.151 0-0.201 0.106-0.201 0.106s0.050-0.159 0.050-0.318-0.101-0.265-0.101-0.265c0 0.020-0.101 0.106-0.101 0.265s0.050 0.318 0.050 0.318-0.050-0.106-0.201-0.106c-0.202 0-0.202 0.318-0.202 0.318z"></path>
<path fill="#fff100" d="M25.267 20.904s0.044-0.106 0.202-0.106c0.108 0 0.201 0.106 0.201 0.212v0.212h0.101v-0.212c0-0.106 0.101-0.212 0.201-0.212 0.151 0 0.202 0.106 0.202 0.106s0-0.318-0.202-0.318c-0.151 0-0.201 0.106-0.201 0.106s0.050-0.159 0.050-0.318-0.101-0.265-0.101-0.265c0 0.020-0.101 0.106-0.101 0.265s0.050 0.318 0.050 0.318-0.050-0.106-0.201-0.106c-0.202 0-0.202 0.318-0.202 0.318z"></path>
<path fill="#fff100" d="M21.187 22.337v-1.253s0.302 0.418 0.756 0.418c0.371 0 0.756-0.557 0.756-0.557s0.354 0.418 0.756 0.418c0.359 0 0.756-0.539 0.756-0.539s0.369 0.539 0.756 0.539c0.388 0 0.756-0.418 0.756-0.418s0.395 0.557 0.907 0.557c0.453 0 0.605-0.418 0.605-0.418v1.253h-6.050z"></path>
<path fill="#fff100" d="M21.188 22.337v-0.974s0.907 0.277 0.907 0.974h-0.907z"></path>
<path fill="#fff100" d="M27.231 22.337v-0.974s-0.907 0.277-0.907 0.974h0.907z"></path>
<path fill="#fff100" d="M21.793 22.337c0-0.697 0.907-1.137 0.907-1.137s0.907 0.44 0.907 1.137h-1.815z"></path>
<path fill="#fff100" d="M24.818 22.337c0-0.697 0.907-1.137 0.907-1.137s0.907 0.44 0.907 1.137h-1.815z"></path>
<path fill="#fff100" d="M23.153 22.341c0-0.696 1.059-1.253 1.059-1.253s1.059 0.556 1.059 1.253h-2.117z"></path>
<path fill="#fff" d="M27.386 22.338c-0.299-0.139-1.401-0.278-3.176-0.278s-2.954 0.139-3.254 0.278c-0.299 0.139-0.299 0.418 0 0.557s1.48 0.278 3.254 0.278 2.877-0.139 3.176-0.278c0.299-0.139 0.299-0.418 0-0.557z"></path>
<path fill="#808080" d="M27.238 22.894c0 0.281-2.519 0.281-3.025 0.281-0.55 0-3.025 0.075-3.025-0.281 0-0.275 2.494-0.275 3.025-0.275 0.525 0 3.025 0.056 3.025 0.275z"></path>
<path fill="#c00" d="M21.488 21.894c0 0.094-0.063 0.169-0.15 0.169s-0.15-0.075-0.15-0.169 0.063-0.163 0.15-0.163c0.081 0 0.15 0.075 0.15 0.163zM27.238 21.894c0 0.094-0.069 0.169-0.156 0.169-0.081 0-0.15-0.075-0.15-0.169s0.069-0.163 0.15-0.163c0.087 0 0.15 0.075 0.15 0.163z"></path>
<path fill="#000" d="M24.512 21.813c0 0.087-0.137 0.163-0.3 0.163s-0.306-0.075-0.306-0.169 0.137-0.163 0.306-0.163 0.3 0.075 0.3 0.163z"></path>
<path fill="#006300" d="M25.962 21.813c0 0.087-0.1 0.163-0.225 0.163s-0.225-0.075-0.225-0.169 0.1-0.163 0.225-0.163 0.225 0.075 0.225 0.163zM22.85 21.813c0 0.087-0.1 0.163-0.225 0.163s-0.231-0.075-0.231-0.169 0.1-0.163 0.231-0.163c0.125 0 0.225 0.075 0.225 0.163z"></path>
<path fill="#fff100" d="M23.605 20.852s0.173-0.238 0.346-0.238h0.173v0.159c0 0.239-0.259 0.319-0.259 0.319h0.691s-0.26-0.080-0.26-0.319v-0.159h0.173c0.173 0 0.345 0.239 0.345 0.239v-0.637s-0.173 0.239-0.345 0.239h-0.173v-0.159c0-0.238 0.26-0.318 0.26-0.318h-0.692s0.259 0.079 0.259 0.318v0.159h-0.173c-0.173 0-0.346-0.239-0.346-0.239v0.637z"></path>
<path fill="#fff100" d="M21.183 21.364h0.173s-0.13-0.070-0.13-0.279v-0.139h0.086c0.087 0 0.173 0.209 0.173 0.209v-0.558s-0.087 0.209-0.173 0.209h-0.086v-0.14c0-0.209 0.13-0.278 0.13-0.278h-0.173v0.974z"></path>
<path fill="#fff100" d="M27.235 21.364h-0.173s0.13-0.070 0.13-0.279v-0.139h-0.086c-0.087 0-0.173 0.209-0.173 0.209v-0.558s0.087 0.209 0.173 0.209h0.086v-0.14c0-0.209-0.13-0.278-0.13-0.278h0.173v0.974z"></path>
<path fill="#fff" d="M24.363 20.527c0 0.077-0.068 0.139-0.151 0.139s-0.151-0.062-0.151-0.139v0c0-0.077 0.068-0.139 0.151-0.139s0.151 0.062 0.151 0.139v0z"></path>
<path fill="#fff100" d="M23.605 17.927s0.173-0.238 0.346-0.238h0.173v0.159c0 0.239-0.259 0.319-0.259 0.319h0.691s-0.26-0.080-0.26-0.319v-0.159h0.173c0.173 0 0.345 0.239 0.345 0.239v-0.637s-0.173 0.239-0.345 0.239h-0.173v-0.159c0-0.238 0.26-0.318 0.26-0.318h-0.692s0.259 0.079 0.259 0.318v0.159h-0.173c-0.173 0-0.346-0.239-0.346-0.239v0.637z"></path>
<path fill="#fff" d="M24.376 17.628c0 0.077-0.068 0.139-0.151 0.139s-0.151-0.062-0.151-0.139v0c0-0.077 0.068-0.139 0.151-0.139s0.151 0.062 0.151 0.139v0z"></path>
<path fill="#fff100" d="M23.91 18.163h0.605v0.418h-0.606z"></path>
<path fill="#fff100" d="M23.91 18.382h0.605v1.591h-0.606z"></path>
<path fill="#fff" d="M24.359 19.691c0 0.077-0.068 0.139-0.152 0.139s-0.152-0.062-0.152-0.139v0c0-0.077 0.068-0.139 0.152-0.139s0.152 0.062 0.152 0.139v0z"></path>
<path fill="#fff" d="M24.359 19.334c0 0.077-0.068 0.139-0.152 0.139s-0.152-0.062-0.152-0.139v0c0-0.077 0.068-0.139 0.152-0.139s0.152 0.062 0.152 0.139v0z"></path>
<path fill="#fff" d="M24.359 19.003c0 0.077-0.068 0.139-0.152 0.139s-0.152-0.062-0.152-0.139v0c0-0.077 0.068-0.139 0.152-0.139s0.152 0.062 0.152 0.139v0z"></path>
<path fill="#fff" d="M24.359 18.653c0 0.077-0.068 0.139-0.152 0.139s-0.152-0.062-0.152-0.139v0c0-0.077 0.068-0.139 0.152-0.139s0.152 0.062 0.152 0.139v0z"></path>
<path fill="#000" d="M24.531 22.344c0 0.063-0.137 0.113-0.313 0.113s-0.3-0.050-0.3-0.113 0.137-0.113 0.306-0.113 0.306 0.050 0.306 0.113zM27.319 22.619c-0.019 0.044-0.169 0.050-0.337 0.006-0.169-0.038-0.288-0.1-0.275-0.144 0.019-0.044 0.169-0.050 0.337-0.006 0.169 0.038 0.288 0.1 0.275 0.144zM26.15 22.431c0 0.056-0.15 0.087-0.325 0.081-0.169-0.012-0.306-0.069-0.3-0.125s0.156-0.087 0.325-0.075c0.175 0.012 0.313 0.063 0.3 0.119zM21.038 22.619c0.012 0.044 0.163 0.050 0.331 0.006 0.169-0.038 0.294-0.1 0.275-0.144s-0.169-0.050-0.337-0.006c-0.163 0.038-0.288 0.1-0.269 0.144zM22.256 22.406c0.006 0.056 0.156 0.087 0.325 0.075 0.175-0.012 0.313-0.063 0.3-0.125 0-0.050-0.15-0.087-0.325-0.075-0.169 0.012-0.306 0.063-0.3 0.125z"></path>
</svg>
