<!-- Generated by IcoMoon.io -->
<svg version="1.1" xmlns="http://www.w3.org/2000/svg" width="43" height="32" viewBox="0 0 43 32">
<title>iq</title>
<path fill="#fff" d="M0 10.667h42.667v10.667h-42.667z"></path>
<path fill="#ce1126" d="M0 0h42.667v10.667h-42.667z"></path>
<path fill="#000" d="M0 21.333h42.667v10.667h-42.667z"></path>
<path fill="#007a3d" d="M26.061 14.041c-0.063-0.031-0.117-0.070-0.163-0.117l-0-0c-0.035-0.058-0.012-0.058 0.14-0.023 0.269 0.082 0.444 0.047 0.619-0.093l0.152-0.128 0.175 0.082c0.105 0.058 0.21 0.093 0.234 0.082 0.082-0.023 0.245-0.234 0.234-0.304 0-0.082 0.070-0.058 0.117 0.035 0.070 0.187-0.035 0.409-0.234 0.455-0.082 0.023-0.163 0.012-0.304-0.035-0.163-0.058-0.199-0.058-0.28 0-0.104 0.080-0.237 0.127-0.38 0.127-0.113 0-0.22-0.030-0.312-0.082l0.003 0.002zM26.739 13.422c-0.074-0.13-0.117-0.286-0.117-0.453 0-0.005 0-0.010 0-0.015v0.001c0.012-0.070 0.035-0.093 0.093-0.070 0.117 0.035 0.14 0.117 0.117 0.35 0 0.21-0.035 0.269-0.093 0.187zM18.844 13.2c-0.012 0.152 0.28 0.537 0.409 0.607-0.093 0.035-0.199 0.023-0.28 0.058-0.467 0.467-2.149 2.102-2.453 2.499 0.911 0.023 1.915-0.012 2.768-0.047 0-0.619 0.584-0.654 0.981-0.876 0.199 0.315 0.701 0.292 0.771 0.771v2.055h-7.766c-0.102 0.529-0.562 0.923-1.113 0.923-0.115 0-0.226-0.017-0.331-0.049l0.008 0.002c0.234-0.234 0.631-0.327 0.771-0.666 0.117-0.747-0.234-1.203-0.467-1.635 0.312-0.102 0.584-0.245 0.825-0.426l-0.007 0.005c-0.269 0.818 0.724 0.736 1.448 0.712 0.023-0.28 0.012-0.607-0.199-0.654 0.269-0.105 0.315-0.14 0.771-0.514v1.121l5.384-0.012c0-0.35 0.093-0.923-0.187-0.923-0.257 0 0 0.724-0.21 0.724h-4.169v-0.701c0.175-0.187 0.152-0.175 1.355-1.378 0.117-0.117 0.969-0.888 1.705-1.6zM29.249 13.165c0.292 0.164 0.526 0.374 0.876 0.467-0.035 0.152-0.175 0.21-0.21 0.362v3.153c0.397 0.082 0.491-0.152 0.677-0.269 0.047 0.502 0.374 0.993 0.35 1.401h-1.693v-5.104zM26.984 14.859s0.619-0.526 0.619-0.549v2.745h0.444l-0.012-3.072c0.175-0.187 0.537-0.444 0.619-0.631v4.905h-3.901c-0.058-1.016-0.070-2.067 1.121-1.845v-0.409c-0.035-0.070-0.105 0.012-0.117-0.082 0.187-0.187 0.245-0.234 0.759-0.677l0.012 1.81h0.455v-2.196zM25.512 17.031c0.082 0.117 0.374 0.117 0.35-0.093-0.035-0.175-0.409-0.117-0.35 0.093z"></path>
<path fill="#007a3d" d="M14.441 18.853c0 0.129-0.105 0.234-0.234 0.234s-0.234-0.105-0.234-0.234c0-0.129 0.105-0.234 0.234-0.234s0.234 0.105 0.234 0.234z"></path>
<path fill="#007a3d" d="M21.565 13.177c0.292 0.152 0.526 0.374 0.888 0.467-0.047 0.14-0.175 0.199-0.21 0.35v3.153c0.397 0.082 0.479-0.14 0.666-0.269 0.058 0.502 0.374 1.004 0.362 1.401h-1.705v-5.104z"></path>
</svg>
