<!-- Generated by IcoMoon.io -->
<svg version="1.1" xmlns="http://www.w3.org/2000/svg" width="43" height="32" viewBox="0 0 43 32">
<title>ir</title>
<path fill="#fff" d="M-6.667 0h56v32h-56z"></path>
<path fill="#da0000" d="M-6.667 21.488h56v10.512h-56z"></path>
<path fill="#fff" d="M3.983 21.938h3.062v0.206h-3.063zM4.44 22.988h0.213v0.206h-0.213zM7.058 22.988v0.206h-0.612v-0.212zM7.383 21.938h0.213v1.25h-0.213z"></path>
<path fill="#fff" d="M8.608 22.981v0.212h-1.162v-0.212zM6.446 22.488h0.2v0.706h-0.206z"></path>
<path fill="#fff" d="M8.433 21.938h0.213v1.25h-0.213zM7.908 21.938h0.206v1.25h-0.206zM5.108 22.438v0.212h-1.125v-0.212zM7.565 22.438v0.212h-1.125v-0.212z"></path>
<path fill="#fff" d="M6.446 22.494h0.2v0.694h-0.206z"></path>
<path fill="#fff" d="M6.446 22.494h0.2v0.694h-0.206zM3.99 22.494h0.206v0.694h-0.206zM5.79 22.494h0.213v0.694h-0.213zM4.896 22.494h0.213v0.694h-0.213z"></path>
<path fill="#fff" d="M5.933 22.981v0.212h-0.944v-0.212zM5.996 22.438v0.212h-0.6v-0.212z"></path>
<path fill="#fff" d="M-1.054 21.938h3.063v0.206h-3.063zM-0.598 22.988h0.213v0.206h-0.219zM2.021 22.988v0.206h-0.613v-0.212zM2.346 21.938h0.212v1.25h-0.212z"></path>
<path fill="#fff" d="M3.571 22.981v0.212h-1.163v-0.212zM1.408 22.488h0.206v0.706h-0.206z"></path>
<path fill="#fff" d="M3.396 21.938h0.212v1.25h-0.212zM2.871 21.938h0.206v1.25h-0.206zM0.071 22.438v0.212h-1.125v-0.212zM2.527 22.438v0.212h-1.125v-0.212z"></path>
<path fill="#fff" d="M1.408 22.494h0.206v0.694h-0.206z"></path>
<path fill="#fff" d="M1.408 22.494h0.206v0.694h-0.206zM-1.048 22.494h0.206v0.694h-0.206zM0.752 22.494h0.206v0.694h-0.206zM-0.142 22.494h0.212v0.694h-0.212z"></path>
<path fill="#fff" d="M0.896 22.981v0.212h-0.938v-0.212zM0.958 22.438v0.212h-0.6v-0.212z"></path>
<path fill="#fff" d="M8.977 21.938h3.063v0.206h-3.063zM9.433 22.988h0.213v0.206h-0.213zM12.052 22.988v0.206h-0.613v-0.212zM12.383 21.938h0.213v1.25h-0.213z"></path>
<path fill="#fff" d="M13.602 22.981v0.212h-1.162v-0.212zM11.44 22.488h0.213v0.706h-0.213z"></path>
<path fill="#fff" d="M13.427 21.938h0.213v1.25h-0.213zM12.902 21.938h0.213v1.25h-0.219zM10.102 22.438v0.212h-1.125v-0.212zM12.558 22.438v0.212h-1.125v-0.212z"></path>
<path fill="#fff" d="M11.44 22.494h0.213v0.694h-0.213z"></path>
<path fill="#fff" d="M11.44 22.494h0.213v0.694h-0.213zM8.983 22.494h0.213v0.694h-0.213zM10.783 22.494h0.213v0.694h-0.213zM9.89 22.494h0.213v0.694h-0.213z"></path>
<path fill="#fff" d="M10.933 22.981v0.212h-0.95v-0.212zM10.996 22.438v0.212h-0.6v-0.212z"></path>
<path fill="#fff" d="M14.002 21.938h3.069v0.206h-3.063zM14.465 22.988h0.206v0.206h-0.206zM17.077 22.988v0.206h-0.613v-0.212zM17.408 21.938h0.212v1.25h-0.212z"></path>
<path fill="#fff" d="M18.633 22.981v0.212h-1.163v-0.212zM16.465 22.488h0.212v0.706h-0.212z"></path>
<path fill="#fff" d="M18.458 21.938h0.212v1.25h-0.212zM17.927 21.938h0.212v1.25h-0.212zM15.127 22.438v0.212h-1.119v-0.212zM17.583 22.438v0.212h-1.119v-0.212z"></path>
<path fill="#fff" d="M16.465 22.494h0.212v0.694h-0.212z"></path>
<path fill="#fff" d="M16.465 22.494h0.212v0.694h-0.212zM14.008 22.494h0.213v0.694h-0.213zM15.808 22.494h0.213v0.694h-0.213zM14.921 22.494h0.206v0.694h-0.206z"></path>
<path fill="#fff" d="M15.958 22.981v0.212h-0.944v-0.212zM16.021 22.438v0.212h-0.6v-0.212z"></path>
<path fill="#fff" d="M19.052 21.938h3.063v0.206h-3.063zM19.508 22.988h0.212v0.206h-0.212zM22.127 22.988v0.206h-0.613v-0.212zM22.458 21.938h0.206v1.25h-0.206z"></path>
<path fill="#fff" d="M23.677 22.981v0.212h-1.163v-0.212zM21.515 22.488h0.212v0.706h-0.212z"></path>
<path fill="#fff" d="M23.502 21.938h0.212v1.25h-0.212zM22.977 21.938h0.212v1.25h-0.212zM20.177 22.438v0.212h-1.125v-0.212zM22.633 22.438v0.212h-1.125v-0.212z"></path>
<path fill="#fff" d="M21.515 22.494h0.212v0.694h-0.212z"></path>
<path fill="#fff" d="M21.515 22.494h0.212v0.694h-0.212zM19.058 22.494h0.206v0.694h-0.206zM20.858 22.494h0.212v0.694h-0.212zM19.965 22.494h0.212v0.694h-0.219z"></path>
<path fill="#fff" d="M21.008 22.981v0.212h-0.95v-0.212zM21.071 22.438v0.212h-0.613v-0.212z"></path>
<path fill="#239f40" d="M-6.667 0h56v10.512h-56z"></path>
<path fill="#fff" d="M24.127 21.938h3.063v0.206h-3.063zM24.583 22.988h0.212v0.206h-0.212zM27.202 22.988v0.206h-0.619v-0.212zM27.533 21.938h0.206v1.25h-0.206z"></path>
<path fill="#fff" d="M28.752 22.981v0.212h-1.163v-0.212zM26.59 22.488h0.212v0.706h-0.219z"></path>
<path fill="#fff" d="M28.583 21.938h0.206v1.25h-0.206zM28.052 21.938h0.212v1.25h-0.212zM25.252 22.438v0.212h-1.125v-0.212zM27.708 22.438v0.212h-1.125v-0.212z"></path>
<path fill="#fff" d="M26.583 22.494h0.219v0.694h-0.219z"></path>
<path fill="#fff" d="M26.583 22.494h0.219v0.694h-0.219zM24.133 22.494h0.212v0.694h-0.212zM25.933 22.494h0.212v0.694h-0.212zM25.040 22.494h0.212v0.694h-0.212z"></path>
<path fill="#fff" d="M26.083 22.981v0.212h-0.95v-0.212zM26.146 22.438v0.212h-0.6v-0.212z"></path>
<path fill="#fff" d="M29.171 21.938h3.063v0.206h-3.063zM29.627 22.988h0.212v0.206h-0.212zM32.252 22.988v0.206h-0.619v-0.212zM32.577 21.938h0.212v1.25h-0.212z"></path>
<path fill="#fff" d="M33.796 22.981v0.212h-1.163v-0.212zM31.633 22.488h0.212v0.706h-0.212z"></path>
<path fill="#fff" d="M33.627 21.938h0.206v1.25h-0.206zM33.096 21.938h0.212v1.25h-0.212zM30.296 22.438v0.212h-1.119v-0.212zM32.752 22.438v0.212h-1.119v-0.212z"></path>
<path fill="#fff" d="M31.633 22.494h0.212v0.694h-0.212z"></path>
<path fill="#fff" d="M31.633 22.494h0.212v0.694h-0.212zM29.177 22.494h0.212v0.694h-0.212zM30.977 22.494h0.212v0.694h-0.212zM30.083 22.494h0.212v0.694h-0.206z"></path>
<path fill="#fff" d="M31.127 22.981v0.212h-0.944v-0.212zM31.19 22.438v0.212h-0.606v-0.212z"></path>
<path fill="#fff" d="M34.221 21.938h3.063v0.206h-3.063zM34.677 22.988h0.212v0.206h-0.212zM37.296 22.988v0.206h-0.612v-0.212zM37.621 21.938h0.212v1.25h-0.212z"></path>
<path fill="#fff" d="M38.846 22.981v0.212h-1.163v-0.212zM36.677 22.488h0.212v0.706h-0.212z"></path>
<path fill="#fff" d="M38.671 21.938h0.212v1.25h-0.212zM38.146 21.938h0.206v1.25h-0.206zM35.346 22.438v0.212h-1.125v-0.212zM37.802 22.438v0.212h-1.125v-0.212z"></path>
<path fill="#fff" d="M36.683 22.494h0.206v0.694h-0.206z"></path>
<path fill="#fff" d="M36.683 22.494h0.206v0.694h-0.206zM34.221 22.494h0.212v0.694h-0.212zM36.027 22.494h0.206v0.694h-0.206zM35.133 22.494h0.212v0.694h-0.212z"></path>
<path fill="#fff" d="M36.171 22.981v0.212h-0.944v-0.212zM36.233 22.438v0.212h-0.6v-0.212z"></path>
<path fill="#fff" d="M39.296 21.938h3.063v0.206h-3.063zM39.752 22.988h0.212v0.206h-0.212zM42.371 22.988v0.206h-0.612v-0.212zM42.696 21.938h0.212v1.25h-0.212z"></path>
<path fill="#fff" d="M43.921 22.981v0.212h-1.163v-0.212zM41.758 22.488h0.206v0.706h-0.206z"></path>
<path fill="#fff" d="M43.746 21.938h0.212v1.25h-0.212zM43.221 21.938h0.206v1.25h-0.206zM40.421 22.438v0.212h-1.125v-0.212zM42.877 22.438v0.212h-1.125v-0.212z"></path>
<path fill="#fff" d="M41.758 22.494h0.206v0.694h-0.206z"></path>
<path fill="#fff" d="M41.758 22.494h0.206v0.694h-0.206zM39.302 22.494h0.206v0.694h-0.206zM41.102 22.494h0.212v0.694h-0.212zM40.208 22.494h0.212v0.694h-0.212z"></path>
<path fill="#fff" d="M41.246 22.981v0.212h-0.944v-0.212zM41.308 22.438v0.212h-0.6v-0.212z"></path>
<path fill="#fff" d="M3.983 8.963h3.062v0.213h-3.063zM4.44 10.025h0.213v0.2h-0.213zM7.058 10.012v0.213h-0.612v-0.213zM7.383 8.963h0.213v1.262h-0.213z"></path>
<path fill="#fff" d="M8.608 10.012v0.213h-1.162v-0.213zM6.446 9.519h0.2v0.706h-0.206z"></path>
<path fill="#fff" d="M8.433 8.963h0.213v1.262h-0.213zM7.908 8.963h0.206v1.262h-0.206zM5.108 9.463v0.213h-1.125v-0.206zM7.565 9.463v0.213h-1.125v-0.206z"></path>
<path fill="#fff" d="M6.446 9.519h0.2v0.706h-0.206z"></path>
<path fill="#fff" d="M6.446 9.519h0.2v0.706h-0.206zM3.99 9.519h0.206v0.706h-0.206zM5.79 9.519h0.213v0.706h-0.213zM4.896 9.519h0.213v0.706h-0.213z"></path>
<path fill="#fff" d="M5.933 10.012v0.213h-0.944v-0.213zM5.996 9.469v0.206h-0.6v-0.206z"></path>
<path fill="#fff" d="M-1.054 8.963h3.063v0.213h-3.063zM-0.598 10.025h0.213v0.2h-0.219zM2.021 10.012v0.213h-0.613v-0.213zM2.346 8.963h0.212v1.262h-0.212z"></path>
<path fill="#fff" d="M3.571 10.012v0.213h-1.163v-0.213zM1.408 9.519h0.206v0.706h-0.206z"></path>
<path fill="#fff" d="M3.396 8.963h0.212v1.262h-0.212zM2.871 8.963h0.206v1.262h-0.206zM0.071 9.463v0.213h-1.125v-0.206zM2.527 9.463v0.213h-1.125v-0.206z"></path>
<path fill="#fff" d="M1.408 9.519h0.206v0.706h-0.206z"></path>
<path fill="#fff" d="M1.408 9.519h0.206v0.706h-0.206zM-1.048 9.519h0.206v0.706h-0.206zM0.752 9.519h0.206v0.706h-0.206zM-0.142 9.519h0.212v0.706h-0.212z"></path>
<path fill="#fff" d="M0.896 10.012v0.213h-0.938v-0.213zM0.958 9.469v0.206h-0.6v-0.206z"></path>
<path fill="#fff" d="M8.977 8.963h3.063v0.213h-3.063zM9.433 10.025h0.213v0.2h-0.213zM12.052 10.012v0.213h-0.613v-0.213zM12.383 8.963h0.213v1.262h-0.213z"></path>
<path fill="#fff" d="M13.602 10.012v0.213h-1.162v-0.213zM11.44 9.519h0.213v0.706h-0.213z"></path>
<path fill="#fff" d="M13.427 8.963h0.213v1.262h-0.213zM12.902 8.963h0.213v1.262h-0.219zM10.102 9.463v0.213h-1.125v-0.206zM12.558 9.463v0.213h-1.125v-0.206z"></path>
<path fill="#fff" d="M11.44 9.519h0.213v0.706h-0.213z"></path>
<path fill="#fff" d="M11.44 9.519h0.213v0.706h-0.213zM8.983 9.519h0.213v0.706h-0.213zM10.783 9.519h0.213v0.706h-0.213zM9.89 9.519h0.213v0.706h-0.213z"></path>
<path fill="#fff" d="M10.933 10.012v0.213h-0.95v-0.213zM10.996 9.469v0.206h-0.6v-0.206z"></path>
<path fill="#fff" d="M14.002 8.963h3.069v0.213h-3.063zM14.465 10.025h0.206v0.2h-0.206zM17.077 10.012v0.213h-0.613v-0.213zM17.408 8.963h0.212v1.262h-0.212z"></path>
<path fill="#fff" d="M18.633 10.012v0.213h-1.163v-0.213zM16.465 9.519h0.212v0.706h-0.212z"></path>
<path fill="#fff" d="M18.458 8.963h0.212v1.262h-0.212zM17.927 8.963h0.212v1.262h-0.212zM15.127 9.463v0.213h-1.119v-0.206zM17.583 9.463v0.213h-1.119v-0.206z"></path>
<path fill="#fff" d="M16.465 9.519h0.212v0.706h-0.212z"></path>
<path fill="#fff" d="M16.465 9.519h0.212v0.706h-0.212zM14.008 9.519h0.213v0.706h-0.213zM15.808 9.519h0.213v0.706h-0.213zM14.921 9.519h0.206v0.706h-0.206z"></path>
<path fill="#fff" d="M15.958 10.012v0.213h-0.944v-0.213zM16.021 9.469v0.206h-0.6v-0.206z"></path>
<path fill="#fff" d="M19.052 8.963h3.063v0.213h-3.063zM19.508 10.025h0.212v0.2h-0.212zM22.127 10.012v0.213h-0.613v-0.213zM22.458 8.963h0.206v1.262h-0.206z"></path>
<path fill="#fff" d="M23.677 10.012v0.213h-1.163v-0.213zM21.515 9.519h0.212v0.706h-0.212z"></path>
<path fill="#fff" d="M23.502 8.963h0.212v1.262h-0.212zM22.977 8.963h0.212v1.262h-0.212zM20.177 9.463v0.213h-1.125v-0.206zM22.633 9.463v0.213h-1.125v-0.206z"></path>
<path fill="#fff" d="M21.515 9.519h0.212v0.706h-0.212z"></path>
<path fill="#fff" d="M21.515 9.519h0.212v0.706h-0.212zM19.058 9.519h0.206v0.706h-0.206zM20.858 9.519h0.212v0.706h-0.212zM19.965 9.519h0.212v0.706h-0.219z"></path>
<path fill="#fff" d="M21.008 10.012v0.213h-0.95v-0.213zM21.071 9.469v0.206h-0.613v-0.206z"></path>
<path fill="#fff" d="M24.127 8.963h3.063v0.213h-3.063zM24.583 10.025h0.212v0.2h-0.212zM27.202 10.012v0.213h-0.619v-0.213zM27.533 8.963h0.206v1.262h-0.206z"></path>
<path fill="#fff" d="M28.752 10.012v0.213h-1.163v-0.213zM26.59 9.519h0.212v0.706h-0.219z"></path>
<path fill="#fff" d="M28.583 8.963h0.206v1.262h-0.206zM28.052 8.963h0.212v1.262h-0.212zM25.252 9.463v0.213h-1.125v-0.206zM27.708 9.463v0.213h-1.125v-0.206z"></path>
<path fill="#fff" d="M26.583 9.519h0.219v0.706h-0.219z"></path>
<path fill="#fff" d="M26.583 9.519h0.219v0.706h-0.219zM24.133 9.519h0.212v0.706h-0.212zM25.933 9.519h0.212v0.706h-0.212zM25.040 9.519h0.212v0.706h-0.212z"></path>
<path fill="#fff" d="M26.083 10.012v0.213h-0.95v-0.213zM26.146 9.469v0.206h-0.6v-0.206z"></path>
<path fill="#fff" d="M29.171 8.963h3.063v0.213h-3.063zM29.627 10.025h0.212v0.2h-0.212zM32.252 10.012v0.213h-0.619v-0.213zM32.577 8.963h0.212v1.262h-0.212z"></path>
<path fill="#fff" d="M33.796 10.012v0.213h-1.163v-0.213zM31.633 9.519h0.212v0.706h-0.212z"></path>
<path fill="#fff" d="M33.627 8.963h0.206v1.262h-0.206zM33.096 8.963h0.212v1.262h-0.212zM30.296 9.463v0.213h-1.119v-0.206zM32.752 9.463v0.213h-1.119v-0.206z"></path>
<path fill="#fff" d="M31.633 9.519h0.212v0.706h-0.212z"></path>
<path fill="#fff" d="M31.633 9.519h0.212v0.706h-0.212zM29.177 9.519h0.212v0.706h-0.212zM30.977 9.519h0.212v0.706h-0.212zM30.083 9.519h0.212v0.706h-0.206z"></path>
<path fill="#fff" d="M31.127 10.012v0.213h-0.944v-0.213zM31.19 9.469v0.206h-0.606v-0.206z"></path>
<path fill="#fff" d="M34.221 8.963h3.063v0.213h-3.063zM34.677 10.025h0.212v0.2h-0.212zM37.296 10.012v0.213h-0.612v-0.213zM37.621 8.963h0.212v1.262h-0.212z"></path>
<path fill="#fff" d="M38.846 10.012v0.213h-1.163v-0.213zM36.677 9.519h0.212v0.706h-0.212z"></path>
<path fill="#fff" d="M38.671 8.963h0.212v1.262h-0.212zM38.146 8.963h0.206v1.262h-0.206zM35.346 9.463v0.213h-1.125v-0.206zM37.802 9.463v0.213h-1.125v-0.206z"></path>
<path fill="#fff" d="M36.683 9.519h0.206v0.706h-0.206z"></path>
<path fill="#fff" d="M36.683 9.519h0.206v0.706h-0.206zM34.221 9.519h0.212v0.706h-0.212zM36.027 9.519h0.206v0.706h-0.206zM35.133 9.519h0.212v0.706h-0.212z"></path>
<path fill="#fff" d="M36.171 10.012v0.213h-0.944v-0.213zM36.233 9.469v0.206h-0.6v-0.206z"></path>
<path fill="#fff" d="M39.296 8.963h3.063v0.213h-3.063zM39.752 10.025h0.212v0.2h-0.212zM42.371 10.012v0.213h-0.612v-0.213zM42.696 8.963h0.212v1.262h-0.212z"></path>
<path fill="#fff" d="M43.921 10.012v0.213h-1.163v-0.213zM41.758 9.519h0.206v0.706h-0.206z"></path>
<path fill="#fff" d="M43.746 8.963h0.212v1.262h-0.212zM43.221 8.963h0.206v1.262h-0.206zM40.421 9.463v0.213h-1.125v-0.206zM42.877 9.463v0.213h-1.125v-0.206z"></path>
<path fill="#fff" d="M41.758 9.519h0.206v0.706h-0.206z"></path>
<path fill="#fff" d="M41.758 9.519h0.206v0.706h-0.206zM39.302 9.519h0.206v0.706h-0.206zM41.102 9.519h0.212v0.706h-0.212zM40.208 9.519h0.212v0.706h-0.212z"></path>
<path fill="#fff" d="M41.246 10.012v0.213h-0.944v-0.213zM41.308 9.469v0.206h-0.6v-0.206z"></path>
<path fill="#d90000" d="M1.033 21.219h0.375v0.656h-0.375zM11.065 21.219h0.375v0.656h-0.375zM-6.667 21.219h0.375v0.656h-0.375zM-1.573 21.219h0.375v0.656h-0.375zM3.483 21.219h0.375v0.656h-0.375zM5.983 21.219h0.375v0.656h-0.375zM8.54 21.219h0.375v0.656h-0.375zM13.565 21.219h0.375v0.656h-0.375zM26.252 21.219h0.381v0.656h-0.375zM16.121 21.219h0.375v0.656h-0.375zM18.621 21.219h0.375v0.656h-0.375zM21.152 21.219h0.375v0.656h-0.375zM23.677 21.219h0.375v0.656h-0.375zM43.877 21.219h0.375v0.656h-0.375zM28.708 21.219h0.375v0.656h-0.375zM31.258 21.219h0.375v0.656h-0.375zM33.84 21.219h0.375v0.656h-0.375zM36.265 21.219h0.375v0.656h-0.375zM38.846 21.219h0.375v0.656h-0.375zM41.371 21.219h0.375v0.656h-0.375zM48.852 21.219h0.375v0.656h-0.375zM46.427 21.219h0.375v0.656h-0.375zM-4.129 21.219h0.375v0.656h-0.375z"></path>
<path fill="#239e3f" d="M1.033 10.162h0.375v0.656h-0.375zM11.065 10.162h0.375v0.656h-0.375zM-6.667 10.162h0.375v0.656h-0.375zM-1.573 10.162h0.375v0.656h-0.375zM3.483 10.162h0.375v0.656h-0.375zM5.983 10.162h0.375v0.656h-0.375zM8.54 10.162h0.375v0.656h-0.375zM13.565 10.162h0.375v0.656h-0.375zM26.252 10.162h0.381v0.656h-0.375zM16.121 10.162h0.375v0.656h-0.375zM18.621 10.162h0.375v0.656h-0.375zM21.152 10.162h0.375v0.656h-0.375zM23.677 10.162h0.375v0.656h-0.375zM43.877 10.162h0.375v0.656h-0.375zM28.708 10.162h0.375v0.656h-0.375zM31.258 10.162h0.375v0.656h-0.375zM33.84 10.162h0.375v0.656h-0.375zM36.265 10.162h0.375v0.656h-0.375zM38.846 10.162h0.375v0.656h-0.375zM41.371 10.162h0.375v0.656h-0.375zM48.852 10.162h0.375v0.656h-0.375zM46.427 10.162h0.375v0.656h-0.375zM-4.129 10.162h0.375v0.656h-0.375z"></path>
<path fill="#da0000" d="M22.821 12.344c0.525 0.65 2.156 4.225-0.981 6.575-1.481 1.113-0.563 1.163-0.519 1.35 2.375-1.256 3.144-2.969 3.125-4.5-0.012-1.525-0.825-2.875-1.625-3.425z"></path>
<path fill="#da0000" d="M23.133 12.175c1.328 0.818 2.2 2.264 2.2 3.914 0 1.203-0.463 2.297-1.221 3.114l0.003-0.003c1.7-0.375 3.875-5.4-0.981-7.025zM19.533 12.175c-1.326 0.818-2.196 2.263-2.196 3.911 0 1.204 0.464 2.299 1.224 3.117l-0.003-0.003c-1.706-0.375-3.875-5.4 0.975-7.025z"></path>
<path fill="#da0000" d="M19.846 12.344c-0.525 0.65-2.156 4.225 0.981 6.575 1.475 1.113 0.563 1.163 0.519 1.35-2.375-1.256-3.144-2.969-3.125-4.5 0.012-1.525 0.825-2.875 1.625-3.425z"></path>
<path fill="#da0000" d="M24.346 19.944c-0.931 0.012-2.1-0.125-2.969-0.581 0.144 0.281 0.262 0.456 0.406 0.731 0.825 0.081 1.969 0.175 2.563-0.15zM18.408 19.944c0.931 0.012 2.1-0.125 2.969-0.581-0.144 0.281-0.262 0.456-0.406 0.731-0.825 0.081-1.969 0.175-2.563-0.15zM20.115 11.275c0.188 0.5 0.681 0.575 1.206 0.281 0.387 0.225 0.981 0.244 1.188-0.256 0.156 1.238-1.144 0.938-1.188 0.7-0.488 0.469-1.387 0.2-1.206-0.725z"></path>
<path fill="#da0000" d="M21.358 20.725l0.488-0.563 0.069-7.506-0.581-0.512-0.581 0.488 0.119 7.562 0.488 0.531z"></path>
</svg>
