<!-- Generated by IcoMoon.io -->
<svg version="1.1" xmlns="http://www.w3.org/2000/svg" width="43" height="32" viewBox="0 0 43 32">
<title>je</title>
<path fill="#fff" d="M0 0h42.667v32h-42.667z"></path>
<path fill="#df112d" d="M-5.333 0v2.133l23.36 13.867-23.253 13.867v2.133h3.413l23.253-13.867 23.147 13.867h3.413v-2.133l-23.147-13.867 23.253-13.867v-2.133h-3.52l-23.253 13.867-23.147-13.867h-3.413z"></path>
<path fill="#e8112d" d="M24.127 4.822c0.673 2.78 0.304 6.211-2.802 8.123-3.084-1.911-3.475-5.343-2.78-8.123 0.738-0.652 4.040-1.064 5.582 0z"></path>
<path fill="#f9dd16" d="M21.347 4.257c0.977-0.022 1.955 0.217 2.802 0.695 0.154-0.998 0.53-1.888 1.077-2.646l-0.012 0.018c-0.543 0-0.782 0.282-0.782 0.565-0.13-0.369-0.652-0.348-0.825-0.152 0.586 0.391 0.13 1.086-0.391 0.956-0.239-0.065-0.369-0.239-0.434-0.5 0.131-0.026 0.228-0.14 0.228-0.277 0-0.156-0.126-0.282-0.282-0.282s-0.282 0.126-0.282 0.282c0 0.137 0.097 0.251 0.226 0.277l0.002 0c-0.152 0.217-0.413 0.348-0.673 0.282-0.282-0.065-0.413-0.326-0.413-0.543 0-0.586 0.565-0.673 0.738-0.565 0-0.391-0.63-0.717-0.825-0.391 0.217-0.413 0.174-0.934-0.174-1.26-0.187 0.188-0.303 0.448-0.303 0.735 0 0.185 0.048 0.358 0.132 0.508l-0.003-0.005c-0.195-0.326-0.804 0-0.804 0.391 0.152-0.109 0.717-0.022 0.717 0.565 0 0.217-0.13 0.478-0.391 0.543-0.044 0.011-0.095 0.017-0.147 0.017-0.229 0-0.43-0.118-0.546-0.297l-0.002-0.003c0.043 0 0.087-0.043 0.13-0.087 0.048-0.050 0.077-0.119 0.077-0.194 0-0.156-0.126-0.282-0.282-0.282s-0.282 0.126-0.282 0.282c0 0.144 0.108 0.263 0.248 0.28l0.001 0c-0.043 0.261-0.195 0.434-0.434 0.5-0.039 0.010-0.083 0.016-0.129 0.016-0.288 0-0.521-0.233-0.521-0.521 0-0.191 0.103-0.359 0.257-0.449l0.002-0.001c-0.174-0.217-0.695-0.217-0.825 0.152 0-0.282-0.239-0.565-0.782-0.565 0.542 0.739 0.925 1.628 1.081 2.593l0.005 0.035c0.774-0.425 1.697-0.675 2.677-0.675 0.051 0 0.102 0.001 0.153 0.002l-0.008-0z"></path>
<path fill="#f9dd16" d="M23.693 6.993c-0.087 0-0.087 0.109-0.109 0.109 0.174 0 0.261-0.065 0.304-0.152v0.13c0.13-0.043 0.174-0.152 0.13-0.217l0.152 0.043c-0.087-0.065-0.022-0.217-0.174-0.304 0.043 0 0.13 0.043 0.174 0.109-0.022-0.152-0.043-0.239-0.174-0.326h0.109c-0.053-0.036-0.087-0.095-0.087-0.163 0-0.004 0-0.008 0-0.012l-0 0.001c0-0.087-0.043-0.087-0.13-0.065l-0.391 0.022c-0.217 0-0.434 0-0.608-0.13 0.282 0.13 0.652-0.13 0.652-0.326 0-0.217-0.304-0.434-0.869-0.304s-1.26 0.087-1.26-0.109 0.5-0.217 0.76-0.174c0.261 0.043 0.434 0.065 0.912-0.109-0.109 0.043-0.5 0.065-0.804-0.022s-1.042-0.087-1.042 0.304c0 0.413 0.782 0.369 1.477 0.261 0.391-0.043 0.608 0 0.608 0.109 0 0.13-0.369 0.174-0.652 0.152-0.087-0.012-0.188-0.019-0.29-0.019-0.214 0-0.421 0.031-0.616 0.088l0.015-0.004c-0.282 0.087-0.478 0-0.782 0.065-0.152 0-0.521 0-0.695-0.304-0.109 0.087-0.434 0.239-0.5 0.413-0.065 0.13 0 0.282 0.087 0.434 0.13 0.174-0.065 0.152-0.217 0.152-0.174 0-0.434 0-0.565-0.174-0.13-0.13-0.282-0.239-0.413-0.152-0.065 0.065 0 0.13 0.043 0.109l0.174 0.043c-0.026-0.012-0.057-0.019-0.090-0.019-0.048 0-0.092 0.015-0.128 0.042l0.001-0c-0.065 0.043 0 0.13 0.065 0.109 0.043-0.022 0.152-0.043 0.217 0-0.065 0-0.152 0-0.174 0.043s0 0.087 0.065 0.087c0.13 0 0.152 0.087 0.282 0.065-0.063 0.004-0.118 0.037-0.152 0.086l-0 0.001c0.13-0.065 0.239 0.087 0.391 0.043-0.043 0.022-0.152 0.087-0.152 0.13 0.087-0.109 0.695 0.087 0.695-0.152l-0.022 0.174c0.065-0.043 0.304-0.065 0.391-0.217 0 0.043 0 0.109-0.043 0.13 0.065 0 0.174-0.043 0.282-0.195 0.043-0.065 0.043-0.109 0.043-0.152 0.109 0 0.174-0.022 0.261-0.087s0.174 0.065 0.326-0.043c0.13-0.087 0.261 0 0.348-0.043 0.065-0.043 0.174 0 0.261-0.043s0.217 0.022 0.348-0.087c0.217 0.087 0.5 0.217 1.129 0.109 0.348-0.065 0.478 0.065 0.478 0.217 0 0.13-0.087 0.13-0.13 0.13-0.217 0.022-0.282-0.065-0.369-0.043-0.043 0.022-0.087 0.109 0 0.152-0.065 0.022-0.065 0.087-0.022 0.109s0.109 0 0.174-0.022c-0.087 0.022-0.152 0.087-0.109 0.152 0.022 0.043 0.087 0.065 0.152 0 0.065-0.087 0.174-0.152 0.261-0.152zM19.653 5.256c-0.174-0.065-0.217-0.065-0.195 0.087 0 0.065 0.065 0.152 0.109 0.195 0-0.065 0.022-0.217 0.087-0.261z"></path>
<path fill="#f9dd16" d="M20.239 5.278c0.174-0.087 0.239-0.087 0.195 0.065 0 0.065-0.065 0.152-0.109 0.195 0-0.065 0-0.217-0.087-0.261z"></path>
<path fill="#f9dd16" d="M19.957 5.169c0.348 0 0.391 0.174 0.369 0.369 0 0.217-0.109 0.13-0.174 0.434-0.022 0.087-0.109 0.109-0.217 0.109-0.065 0-0.152 0-0.195-0.13-0.065-0.282-0.174-0.217-0.174-0.434 0-0.174 0.043-0.348 0.391-0.348z"></path>
<path fill="#f9dd16" d="M19.067 5.973c-0.087-0.043-0.152 0-0.195 0 0.13 0.022 0.13 0.174 0.391 0.217-0.065 0-0.087 0.043-0.152 0 0.109 0.087 0.217 0.195 0.478 0.195 0.152 0 0.043 0.065-0.043 0.022 0.087 0.109 0.282 0.022 0.413 0.217 0-0.152-0.217-0.369-0.109-0.521-0.369-0.022-0.391-0.217-0.586-0.369-0.174-0.13-0.195-0.261-0.261-0.5-0.022-0.109-0.152-0.174-0.217-0.152-0.065 0-0.109 0.065-0.043 0.109 0.043 0.043 0.13 0.043 0.13 0.152-0.065-0.087-0.174-0.109-0.217-0.065-0.022 0.043 0 0.109 0.043 0.109 0.109 0 0.043 0.13 0.152 0.217-0.109-0.109-0.195-0.13-0.261-0.065-0.022 0.043 0 0.109 0.087 0.109 0.109 0 0.217 0.261 0.391 0.326zM21.89 6.972c-0.043 0-0.022 0.109-0.109 0.109 0.174 0 0.282-0.043 0.348-0.109l-0.043 0.109c0.087-0.065 0.326-0.087 0.434-0.065s0.13-0.022 0.174-0.087c0.043-0.087 0-0.13-0.065-0.174-0.065-0.065-0.087-0.152-0.065-0.282-0.304-0.434-0.869-0.217-0.869-0.043 0.195 0.239 0.217 0.217 0.391 0.239 0.152 0.043 0.261 0.043 0.152 0.13-0.043 0.043-0.217 0-0.326 0.022-0.282 0-0.434-0.195-0.5-0.087-0.065 0.087 0 0.13 0.13 0.13-0.087 0-0.217 0-0.195 0.087 0.043 0.152 0.174-0.022 0.239 0.022-0.043 0-0.13 0.022-0.13 0.065s0.109 0.109 0.217 0c0.056-0.041 0.127-0.065 0.203-0.065 0.005 0 0.010 0 0.015 0l-0.001-0z"></path>
<path fill="#ff0016" d="M19.957 6.016c0.087 0 0.13 0 0.13-0.13 0-0.043 0.065-0.065 0.022-0.152 0.043 0.087-0.152 0.087-0.152 0.043 0 0.043-0.217 0.043-0.174-0.043-0.022 0.087 0.043 0.109 0.022 0.152 0 0.13 0.043 0.13 0.152 0.13z"></path>
<path fill="#000" d="M19.848 5.755l-0.217-0.065M19.848 5.755h-0.217M19.848 5.777l-0.195 0.065M20.022 5.755l0.217-0.065M20.022 5.755h0.261M20.022 5.777l0.217 0.065"></path>
<path fill="#0051ba" d="M18.784 5.082c-0.065-0.087-0.217 0-0.217 0.087 0.043-0.065 0.13 0.022 0.195 0 0.022 0 0.065-0.043 0.022-0.087zM18.719 5.278c-0.065-0.087-0.239 0-0.239 0.087 0.043-0.065 0.13 0.022 0.195 0 0.022 0 0.065-0.065 0.043-0.087zM18.676 5.538c-0.087-0.087-0.239 0-0.217 0.109 0.043-0.065 0.13 0 0.174 0 0.043-0.022 0.065-0.087 0.022-0.109zM18.741 6.342c-0.087-0.087-0.217 0.022-0.217 0.13 0.043-0.087 0.152 0 0.217-0.043 0 0 0.043-0.065 0-0.109zM18.741 6.494c-0.109-0.022-0.217 0.13-0.152 0.217 0-0.109 0.13-0.065 0.174-0.109l-0.022-0.109zM18.871 6.646c-0.109-0.043-0.217 0.087-0.152 0.174 0-0.065 0.13-0.043 0.152-0.087v-0.109zM21.412 6.885c-0.109-0.022-0.217 0.109-0.152 0.217 0-0.109 0.13-0.065 0.174-0.109l-0.022-0.109zM21.543 7.015c-0.109-0.022-0.195 0.13-0.13 0.217 0-0.109 0.13-0.087 0.152-0.13 0.022-0.022 0.022-0.087 0-0.087zM21.456 6.711c-0.087-0.043-0.217 0.087-0.195 0.174 0.043-0.087 0.152-0.022 0.195-0.065v-0.087zM23.258 6.928c-0.087-0.022-0.174 0.13-0.13 0.217 0-0.087 0.13-0.065 0.174-0.109 0-0.043 0-0.109-0.043-0.109zM23.258 6.776c-0.087-0.065-0.217 0.065-0.174 0.152 0.043-0.065 0.152-0.022 0.195-0.065v-0.109zM23.345 7.058c-0.109 0-0.195 0.152-0.13 0.217 0-0.087 0.13-0.065 0.152-0.109s0-0.087-0.022-0.109zM19.957 5.929c0.065 0 0.087 0.022 0.087 0.152 0 0.217 0 0.348-0.087 0.348-0.065 0-0.065-0.109-0.065-0.282 0-0.087 0-0.152-0.022-0.13 0-0.065 0.022-0.087 0.087-0.087z"></path>
<path fill="#f9dd16" d="M23.367 9.274c-0.065 0-0.065 0.087-0.087 0.087 0.152 0 0.217-0.043 0.261-0.13v0.109c0.13-0.022 0.174-0.13 0.13-0.195l0.13 0.043c-0.065-0.043 0-0.195-0.152-0.261 0.043 0 0.109 0.022 0.152 0.087 0-0.13-0.043-0.217-0.152-0.282h0.087c-0.042-0.032-0.069-0.082-0.069-0.138 0-0.012 0.001-0.025 0.004-0.036l-0 0.001c0-0.065-0.043-0.065-0.13-0.043h-0.348c-0.195 0-0.391 0-0.543-0.109 0.261 0.13 0.586-0.109 0.586-0.282 0-0.217-0.282-0.391-0.782-0.282-0.5 0.13-1.129 0.087-1.129-0.087s0.434-0.217 0.673-0.174c0.239 0.043 0.391 0.065 0.825-0.087-0.087 0.043-0.434 0.065-0.717-0.022s-0.934-0.087-0.934 0.282c0 0.369 0.695 0.326 1.303 0.217 0.369-0.022 0.565 0 0.565 0.109s-0.326 0.152-0.586 0.13c-0.074-0.010-0.16-0.016-0.247-0.016-0.198 0-0.39 0.030-0.57 0.084l0.014-0.004c-0.261 0.087-0.434 0-0.695 0.065-0.152 0-0.478 0-0.652-0.282-0.087 0.087-0.369 0.217-0.434 0.369-0.043 0.13 0 0.261 0.087 0.391 0.109 0.152-0.065 0.13-0.217 0.13-0.13 0-0.369 0-0.5-0.152-0.109-0.109-0.239-0.217-0.369-0.13-0.043 0.065 0 0.109 0.043 0.087l0.152 0.043c-0.023-0.011-0.050-0.017-0.079-0.017-0.044 0-0.084 0.014-0.117 0.039l0-0c-0.043 0.043 0 0.13 0.065 0.109 0.043-0.022 0.13-0.043 0.195 0l-0.152 0.022c-0.022 0.022 0 0.087 0.065 0.087 0.109 0 0.13 0.087 0.239 0.065-0.053 0.002-0.099 0.027-0.13 0.065l-0 0c0.109-0.043 0.217 0.087 0.348 0.043-0.043 0.022-0.13 0.087-0.13 0.13 0.065-0.109 0.63 0.065 0.63-0.152l-0.022 0.152c0.043-0.022 0.261-0.043 0.348-0.195 0 0.043 0 0.109-0.043 0.13 0.065 0 0.152-0.043 0.261-0.174 0.043-0.065 0.043-0.109 0.043-0.152 0.087 0 0.152 0 0.217-0.065 0.087-0.065 0.174 0.065 0.304-0.043 0.109-0.087 0.217 0 0.304-0.043 0.065-0.043 0.174 0 0.239-0.043s0.217 0.022 0.326-0.065c0.195 0.065 0.434 0.195 0.999 0.087 0.326-0.043 0.434 0.065 0.434 0.217 0 0.109-0.065 0.109-0.109 0.109-0.217 0-0.261-0.065-0.348-0.043-0.022 0-0.065 0.087 0 0.13-0.043 0.022-0.043 0.087 0 0.109s0.087 0 0.152-0.022c-0.087 0-0.152 0.065-0.109 0.13 0.022 0.043 0.087 0.065 0.152 0 0.043-0.065 0.152-0.13 0.217-0.13zM19.74 7.71c-0.152-0.065-0.217-0.065-0.174 0.065 0 0.065 0.065 0.152 0.087 0.195 0-0.065 0.022-0.217 0.087-0.239z"></path>
<path fill="#f9dd16" d="M20.283 7.732c0.13-0.087 0.217-0.087 0.152 0.043 0 0.065-0.043 0.152-0.087 0.195 0-0.065 0-0.217-0.087-0.239z"></path>
<path fill="#f9dd16" d="M20.022 7.623c0.304 0 0.348 0.152 0.326 0.348 0 0.195-0.109 0.109-0.152 0.391-0.022 0.065-0.109 0.087-0.217 0.087-0.043 0-0.13 0-0.152-0.109-0.065-0.261-0.174-0.217-0.174-0.391s0.043-0.326 0.369-0.326z"></path>
<path fill="#f9dd16" d="M19.197 8.362c-0.065-0.043-0.13 0-0.152 0 0.109 0 0.109 0.152 0.348 0.195h-0.152c0.109 0.065 0.217 0.174 0.434 0.174 0.152 0 0.043 0.043-0.043 0 0.087 0.109 0.261 0.022 0.391 0.217 0-0.152-0.217-0.348-0.109-0.478-0.326-0.022-0.348-0.217-0.521-0.326-0.152-0.13-0.174-0.239-0.239-0.456-0.022-0.109-0.13-0.152-0.217-0.13-0.043 0-0.087 0.043 0 0.087 0 0.043 0.109 0.043 0.109 0.13-0.065-0.065-0.174-0.087-0.217-0.043 0 0.043 0 0.087 0.043 0.087 0.109 0 0.043 0.13 0.152 0.217-0.109-0.109-0.174-0.13-0.239-0.065-0.022 0.022 0 0.087 0.065 0.087 0.109 0 0.217 0.217 0.369 0.304zM21.76 9.23c-0.043 0-0.022 0.109-0.109 0.109 0.152 0 0.261-0.022 0.326-0.087l-0.043 0.087c0.065-0.043 0.282-0.065 0.391-0.043s0.109-0.022 0.152-0.087c0.043-0.065 0-0.109-0.065-0.152-0.043-0.065-0.065-0.13-0.043-0.261-0.282-0.391-0.782-0.195-0.782-0.043 0.174 0.217 0.195 0.217 0.348 0.217 0.13 0.043 0.217 0.043 0.13 0.13-0.043 0.043-0.195 0-0.282 0-0.261 0-0.391-0.152-0.456-0.065s0 0.109 0.109 0.109c-0.065 0-0.195 0-0.174 0.087 0.043 0.13 0.152 0 0.217 0-0.043 0-0.109 0.043-0.109 0.087 0 0.022 0.087 0.087 0.195 0 0.051-0.041 0.117-0.065 0.188-0.065 0.003 0 0.005 0 0.008 0h-0z"></path>
<path fill="#ff0016" d="M20.022 8.383c0.065 0 0.109 0 0.109-0.109 0-0.043 0.065-0.065 0-0.13 0.065 0.065-0.109 0.065-0.109 0.022 0 0.043-0.217 0.043-0.174-0.022 0 0.065 0.043 0.087 0.022 0.13 0 0.109 0.043 0.109 0.152 0.109z"></path>
<path fill="#000" d="M19.914 8.166l-0.195-0.065M19.914 8.166h-0.195M19.914 8.166l-0.174 0.065M20.066 8.166l0.217-0.065M20.066 8.166h0.239M20.087 8.166l0.174 0.065"></path>
<path fill="#0051ba" d="M18.958 7.558c-0.065-0.087-0.217 0-0.217 0.065 0.065-0.043 0.13 0.022 0.195 0 0 0 0.065-0.043 0-0.065zM18.893 7.732c-0.043-0.087-0.217 0-0.217 0.065 0.043-0.043 0.13 0.022 0.174 0 0.022 0 0.065-0.043 0.043-0.065zM18.849 7.949c-0.065-0.065-0.217 0-0.195 0.109 0.043-0.065 0.13 0 0.174 0 0.022 0 0.043-0.087 0-0.087zM18.915 8.687c-0.065-0.087-0.195 0-0.195 0.109 0.043-0.065 0.13 0 0.217-0.043v-0.065zM18.915 8.818c-0.087 0-0.195 0.13-0.13 0.217 0-0.109 0.109-0.087 0.152-0.109v-0.109zM19.045 8.948c-0.109-0.022-0.217 0.087-0.152 0.174 0-0.065 0.13-0.043 0.152-0.087v-0.087zM21.325 9.165c-0.109 0-0.217 0.109-0.13 0.217 0-0.109 0.109-0.065 0.152-0.109l-0.022-0.109zM21.434 9.295c-0.087-0.022-0.174 0.109-0.109 0.195 0-0.109 0.109-0.087 0.13-0.13v-0.065zM21.369 9.013c-0.087-0.043-0.217 0.087-0.174 0.152 0.022-0.065 0.13 0 0.174-0.043v-0.087zM22.976 9.23c-0.065-0.043-0.152 0.109-0.109 0.174 0-0.065 0.109-0.065 0.152-0.087 0-0.043 0-0.109-0.043-0.109zM22.976 9.078c-0.065-0.065-0.195 0.065-0.152 0.13 0.043-0.065 0.13 0 0.174-0.065v-0.087zM23.063 9.339c-0.109 0-0.174 0.13-0.109 0.195 0-0.087 0.109-0.065 0.13-0.109l-0.022-0.087zM20.022 8.318c0.043 0 0.065 0 0.065 0.13 0 0.195 0 0.304-0.065 0.304s-0.065-0.087-0.065-0.239c0-0.087 0-0.152-0.022-0.13 0-0.043 0-0.065 0.087-0.065z"></path>
<path fill="#f9dd16" d="M22.839 11.218c-0.058 0-0.058 0.081-0.073 0.081 0.116 0 0.175-0.049 0.204-0.114v0.098c0.087-0.033 0.116-0.114 0.087-0.163l0.102 0.033c-0.058-0.049-0.015-0.163-0.116-0.228 0.029 0 0.087 0.033 0.116 0.081-0.015-0.114-0.029-0.179-0.116-0.244h0.073c-0.035-0.027-0.058-0.071-0.058-0.122 0-0.003 0-0.006 0-0.009l-0 0c0-0.065-0.029-0.065-0.087-0.049l-0.262 0.016c-0.145 0-0.291 0-0.407-0.098 0.189 0.098 0.437-0.098 0.437-0.244 0-0.163-0.204-0.326-0.582-0.228s-0.844 0.065-0.844-0.081 0.335-0.163 0.509-0.13c0.175 0.033 0.291 0.049 0.611-0.081-0.073 0.033-0.335 0.049-0.538-0.016s-0.698-0.065-0.698 0.228c0 0.309 0.524 0.277 0.989 0.195 0.262-0.033 0.407 0 0.407 0.081 0 0.098-0.247 0.13-0.437 0.114-0.058-0.009-0.126-0.015-0.194-0.015-0.143 0-0.282 0.023-0.413 0.066l0.010-0.003c-0.189 0.065-0.32 0-0.524 0.049-0.102 0-0.349 0-0.466-0.228-0.073 0.065-0.291 0.179-0.335 0.309-0.044 0.098 0 0.212 0.058 0.326 0.087 0.13-0.044 0.114-0.145 0.114-0.116 0-0.291 0-0.378-0.13-0.087-0.098-0.189-0.179-0.276-0.114-0.044 0.049 0 0.098 0.029 0.081l0.116 0.033c-0.018-0.009-0.038-0.015-0.060-0.015-0.032 0-0.062 0.012-0.086 0.031l0-0c-0.044 0.033 0 0.098 0.044 0.081 0.029-0.016 0.102-0.033 0.145 0-0.044 0-0.102 0-0.116 0.033s0 0.065 0.044 0.065c0.087 0 0.102 0.065 0.189 0.049-0.043 0.003-0.079 0.028-0.102 0.065l-0 0.001c0.087-0.049 0.16 0.065 0.262 0.033-0.029 0.016-0.102 0.065-0.102 0.098 0.058-0.081 0.466 0.065 0.466-0.114l-0.015 0.13c0.044-0.033 0.204-0.049 0.262-0.163 0 0.033 0 0.081-0.029 0.098 0.044 0 0.116-0.033 0.189-0.147 0.029-0.049 0.029-0.081 0.029-0.114 0.073 0 0.116-0.016 0.175-0.065s0.116 0.049 0.218-0.033c0.087-0.065 0.175 0 0.233-0.033 0.044-0.033 0.116 0 0.175-0.033s0.145 0.016 0.233-0.065c0.145 0.065 0.335 0.163 0.757 0.081 0.233-0.049 0.32 0.049 0.32 0.163 0 0.098-0.058 0.098-0.087 0.098-0.145 0.016-0.189-0.049-0.247-0.033-0.029 0.016-0.058 0.081 0 0.114-0.044 0.016-0.044 0.065-0.015 0.081s0.073 0 0.116-0.016c-0.058 0.016-0.102 0.065-0.073 0.114 0.015 0.033 0.058 0.049 0.102 0 0.044-0.065 0.116-0.114 0.175-0.114zM20.132 9.914c-0.116-0.049-0.145-0.049-0.131 0.065 0 0.049 0.044 0.114 0.073 0.147 0-0.049 0.015-0.163 0.058-0.195z"></path>
<path fill="#f9dd16" d="M20.525 9.931c0.116-0.065 0.16-0.065 0.131 0.049 0 0.049-0.044 0.114-0.073 0.147 0-0.049 0-0.163-0.058-0.195z"></path>
<path fill="#f9dd16" d="M20.336 9.849c0.233 0 0.262 0.13 0.247 0.277 0 0.163-0.073 0.098-0.116 0.326-0.015 0.065-0.073 0.081-0.145 0.081-0.044 0-0.102 0-0.131-0.098-0.044-0.212-0.116-0.163-0.116-0.326 0-0.13 0.029-0.261 0.262-0.261z"></path>
<path fill="#f9dd16" d="M19.739 10.452c-0.058-0.033-0.102 0-0.131 0 0.087 0.016 0.087 0.13 0.262 0.163-0.044 0-0.058 0.033-0.102 0 0.073 0.065 0.145 0.147 0.32 0.147 0.102 0 0.029 0.049-0.029 0.016 0.058 0.081 0.189 0.016 0.276 0.163 0-0.114-0.145-0.277-0.073-0.391-0.247-0.016-0.262-0.163-0.393-0.277-0.116-0.098-0.131-0.195-0.175-0.375-0.015-0.081-0.102-0.13-0.145-0.114-0.044 0-0.073 0.049-0.029 0.081 0.029 0.033 0.087 0.033 0.087 0.114-0.044-0.065-0.116-0.081-0.145-0.049-0.015 0.033 0 0.081 0.029 0.081 0.073 0 0.029 0.098 0.102 0.163-0.073-0.081-0.131-0.098-0.175-0.049-0.015 0.033 0 0.081 0.058 0.081 0.073 0 0.145 0.195 0.262 0.244zM21.631 11.201c-0.029 0-0.015 0.081-0.073 0.081 0.116 0 0.189-0.033 0.233-0.081l-0.029 0.081c0.058-0.049 0.218-0.065 0.291-0.049s0.087-0.016 0.116-0.065c0.029-0.065 0-0.098-0.044-0.13-0.044-0.049-0.058-0.114-0.044-0.212-0.204-0.326-0.582-0.163-0.582-0.033 0.131 0.179 0.145 0.163 0.262 0.179 0.102 0.033 0.175 0.033 0.102 0.098-0.029 0.033-0.145 0-0.218 0.016-0.189 0-0.291-0.147-0.335-0.065-0.044 0.065 0 0.098 0.087 0.098-0.058 0-0.145 0-0.131 0.065 0.029 0.114 0.116-0.016 0.16 0.016-0.029 0-0.087 0.016-0.087 0.049s0.073 0.081 0.145 0c0.038-0.031 0.085-0.049 0.136-0.049 0.003 0 0.007 0 0.010 0l-0-0z"></path>
<path fill="#ff0016" d="M20.336 10.485c0.058 0 0.087 0 0.087-0.098 0-0.033 0.044-0.049 0.015-0.114 0.029 0.065-0.102 0.065-0.102 0.033 0 0.033-0.145 0.033-0.116-0.033-0.015 0.065 0.029 0.081 0.015 0.114 0 0.098 0.029 0.098 0.102 0.098z"></path>
<path fill="#000" d="M20.263 10.289l-0.145-0.049M20.263 10.289h-0.145M20.263 10.305l-0.131 0.049M20.38 10.289l0.145-0.049M20.38 10.289h0.175M20.38 10.305l0.145 0.049"></path>
<path fill="#0051ba" d="M19.55 9.784c-0.044-0.065-0.145 0-0.145 0.065 0.029-0.049 0.087 0.016 0.131 0 0.015 0 0.044-0.033 0.015-0.065zM19.507 9.931c-0.044-0.065-0.16 0-0.16 0.065 0.029-0.049 0.087 0.016 0.131 0 0.015 0 0.044-0.049 0.029-0.065zM19.477 10.126c-0.058-0.065-0.16 0-0.145 0.081 0.029-0.049 0.087 0 0.116 0 0.029-0.016 0.044-0.065 0.015-0.081zM19.521 10.729c-0.058-0.065-0.145 0.016-0.145 0.098 0.029-0.065 0.102 0 0.145-0.033 0 0 0.029-0.049 0-0.081zM19.521 10.843c-0.073-0.016-0.145 0.098-0.102 0.163 0-0.081 0.087-0.049 0.116-0.081l-0.015-0.081zM19.608 10.957c-0.073-0.033-0.145 0.065-0.102 0.13 0-0.049 0.087-0.033 0.102-0.065v-0.081zM21.311 11.136c-0.073-0.016-0.145 0.081-0.102 0.163 0-0.081 0.087-0.049 0.116-0.081l-0.015-0.081zM21.398 11.234c-0.073-0.016-0.131 0.098-0.087 0.163 0-0.081 0.087-0.065 0.102-0.098 0.015-0.016 0.015-0.065 0-0.065zM21.34 11.006c-0.058-0.033-0.145 0.065-0.131 0.13 0.029-0.065 0.102-0.016 0.131-0.049v-0.065zM22.548 11.169c-0.058-0.016-0.116 0.098-0.087 0.163 0-0.065 0.087-0.049 0.116-0.081 0-0.033 0-0.081-0.029-0.081zM22.548 11.055c-0.058-0.049-0.145 0.049-0.116 0.114 0.029-0.049 0.102-0.016 0.131-0.049v-0.081zM22.606 11.266c-0.073 0-0.131 0.114-0.087 0.163 0-0.065 0.087-0.049 0.102-0.081s0-0.065-0.015-0.081zM20.336 10.419c0.044 0 0.058 0.016 0.058 0.114 0 0.163 0 0.261-0.058 0.261-0.044 0-0.044-0.081-0.044-0.212 0-0.065 0-0.114-0.015-0.098 0-0.049 0.015-0.065 0.058-0.065z"></path>
</svg>
