<!-- Generated by IcoMoon.io -->
<svg version="1.1" xmlns="http://www.w3.org/2000/svg" width="43" height="32" viewBox="0 0 43 32">
<title>ke</title>
<path fill="#fff" d="M0 0h42.667v32h-42.667z"></path>
<path fill="#000" d="M0 0h42.667v9.6h-42.667z"></path>
<path fill="#060" d="M0 22.4h42.667v9.6h-42.667z"></path>
<path fill="#000" d="M15.613 25.5l0.36 0.2 9.34-16.2c0.54-0.12 0.84-0.64 1.14-1.16 0.2-0.36 1-1.74 1.34-3.54-0.936 0.834-1.727 1.804-2.35 2.884l-0.030 0.056c-0.3 0.52-0.6 1.040-0.46 1.58z"></path>
<path fill="#fff" d="M15.613 25.5l0.36 0.2 9.34-16.2c0.54-0.12 0.84-0.64 1.14-1.16 0.2-0.36 1-1.74 1.34-3.54-0.936 0.834-1.727 1.804-2.35 2.884l-0.030 0.056c-0.3 0.52-0.6 1.040-0.46 1.58z"></path>
<path fill="#000" d="M44.573 3.167l-0.12 0.067-3.113-5.4c-0.18-0.040-0.28-0.213-0.38-0.387-0.067-0.12-0.333-0.58-0.447-1.18 0.312 0.278 0.576 0.601 0.783 0.961l0.010 0.019c0.1 0.173 0.2 0.347 0.153 0.527z"></path>
<path fill="#fff" d="M44.573 3.167l-0.12 0.067-3.113-5.4c-0.18-0.040-0.28-0.213-0.38-0.387-0.067-0.12-0.333-0.58-0.447-1.18 0.312 0.278 0.576 0.601 0.783 0.961l0.010 0.019c0.1 0.173 0.2 0.347 0.153 0.527z"></path>
<path fill="#b00" d="M42.7 11.2h-17.567c-0.6-1.6-2.6-4.8-3.8-4.8s-3.2 3.2-3.8 4.8h-17.547v9.6h17.547c0.6 1.6 2.6 4.8 3.8 4.8s3.2-3.2 3.8-4.8h17.567v-9.6z"></path>
<path fill="#000" d="M25.133 20.8c0.6-1.6 1-3.2 1-4.8s-0.4-3.2-1-4.8c-0.6 1.6-1 3.2-1 4.8s0.4 3.2 1 4.8z"></path>
<path fill="#000" d="M17.533 20.8c-0.6-1.6-1-3.2-1-4.8s0.4-3.2 1-4.8c0.6 1.6 1 3.2 1 4.8s-0.4 3.2-1 4.8z"></path>
<path fill="#fff" d="M22.133 16c0 0.663-0.358 1.2-0.8 1.2s-0.8-0.537-0.8-1.2c0-0.663 0.358-1.2 0.8-1.2s0.8 0.537 0.8 1.2z"></path>
<path fill="#fff" d="M21.533 17.16s0.8 1.6 0.8 4.2-0.8 4.2-0.8 4.2z"></path>
<path fill="#fff" d="M21.133 14.84s-0.8-1.6-0.8-4.2 0.8-4.2 0.8-4.2z"></path>
<path fill="#fff" d="M21.133 17.16s-0.8 1.6-0.8 4.2 0.8 4.2 0.8 4.2z"></path>
<path fill="#fff" d="M21.533 14.84s0.8-1.6 0.8-4.2-0.8-4.2-0.8-4.2z"></path>
</svg>
