<!-- Generated by IcoMoon.io -->
<svg version="1.1" xmlns="http://www.w3.org/2000/svg" width="43" height="32" viewBox="0 0 43 32">
<title>kg</title>
<path fill="#be0027" d="M-2.693 0h48.050v32h-48.050z"></path>
<path fill="#ff0" d="M11.9 16.319c0.85-1.037 2.619-0.025 4.063-0.769-1.713 0.094-2.644-0.825-3.994-0.694 1.4-0.863 2.594 0.281 4.156-0.175-2.069-0.175-1.981-1.106-3.869-1.238 1.675-0.713 2.5 0.738 4.144 0.406-1.938-0.444-2.188-1.581-3.625-1.825 2.1-0.313 1.963 0.925 4.019 1.075-2.088-0.894-1.544-1.675-3.287-2.356 1.956-0.044 1.825 1.313 3.813 1.662-1.7-1.075-1.494-2.056-2.887-2.825 1.656 0.031 1.813 1.725 3.506 2.25-1.506-1.194-1.113-2.206-2.412-3.275 1.65 0.387 1.406 1.85 3.125 2.787-1.275-1.412-0.788-2.425-1.894-3.581 1.587 0.506 0.981 1.9 2.625 3.225-0.938-1.556-0.356-2.55-1.288-3.856 1.475 0.756 0.762 2.181 2.125 3.594-0.644-1.594 0-2.581-0.656-3.994 1.262 0.938 0.512 2.456 1.531 3.906-0.375-2 0.488-2.325 0.219-4.075 0.956 1.175-0.113 2.35 0.625 4.081-0.094-1.969 0.956-2.425 0.775-4 0.944 1.412-0.531 2.644 0.087 4.156 0.156-1.863 1.381-2.35 1.4-3.8 0.75 1.331-0.875 2.294-0.613 4.062 0.531-1.95 1.837-2.188 2-3.5 0.444 1.537-1.337 2.25-1.231 3.963 0.531-1.731 2.163-1.938 2.5-3.213 0.206 1.625-1.4 1.919-1.856 3.719 0.844-1.469 2.325-1.588 2.988-2.75-0.050 1.613-1.863 1.825-2.419 3.331 1.044-1.281 2.356-1.063 3.4-2.194-0.113 1.456-1.956 1.375-2.938 2.881 1.131-1.044 2.837-0.731 3.706-1.631-0.044 1.287-2.306 1.188-3.375 2.344 1.313-0.725 2.988-0.3 3.95-0.969-0.175 1.125-2.563 0.863-3.706 1.75 1.575-0.438 2.794 0.231 4.063-0.25-0.619 1.094-2.788 0.4-3.938 1.113 1.375-0.231 2.825 0.6 4.069 0.331-0.406 0.95-2.788-0.063-4.063 0.531 1.525-0.012 2.519 0.969 3.938 0.9-0.769 0.863-2.856-0.319-4.075-0.119 1.488 0.313 2.625 1.538 3.75 1.6-0.931 0.706-2.656-0.906-4.063-0.706 1.45 0.387 2.663 2.031 3.488 2.069-0.894 0.613-2.656-1.406-3.863-1.331 1.469 0.663 2.137 2.344 3.106 2.581-1.194 0.381-2.369-1.825-3.65-1.906 1.488 0.938 1.569 2.375 2.712 3.012-1.206 0.294-2.063-2.2-3.331-2.413 1.219 0.894 1.406 2.813 2.212 3.413-1.225 0.063-1.669-2.544-2.925-2.919 1.075 0.9 0.819 2.85 1.656 3.688-1.275-0.269-1.113-2.538-2.444-3.306 0.956 1.212 0.469 2.931 1.094 3.9-1.244-0.5-0.706-2.538-1.887-3.688 0.644 1.288-0.050 2.788 0.462 4.031-1.137-0.556-0.375-2.962-1.244-3.919 0.4 1.488-0.337 2.719-0.038 4.050-1.163-1.344 0.175-2.7-0.831-4.069 0.262 1.569-0.837 2.669-0.663 3.981-0.919-1.075 0.5-2.794-0.219-4.15 0.15 1.544-1.269 2.9-1.169 3.875-0.75-1.25 0.831-2.725 0.406-4.144-0.087 1.475-1.525 2.275-1.794 3.619-0.481-1.481 1.225-2.55 1.075-4.006-0.488 1.381-1.875 1.938-2.363 3.281-0.4-1.481 1.625-2.262 1.675-3.813-0.625 1.45-2.281 1.775-2.831 2.887-0.206-1.469 2.113-2.125 2.2-3.519-0.75 1.337-2.563 1.394-3.188 2.456-0.094-1.462 2.35-1.644 2.731-3.175-0.744 1.137-2.731 0.994-3.563 1.919 0.131-1.356 2.775-1.438 3.2-2.663-0.988 0.95-2.813 0.563-3.844 1.313 0.575-1.337 3.056-1.056 3.613-2.019-1.094 0.569-3.037 0.012-4 0.587 0.875-1.262 2.8-0.506 3.894-1.375-1.775 0.256-2.844-0.45-4.075-0.125z"></path>
<path fill="#ff0" d="M27.557 16.006c0 3.426-2.777 6.203-6.203 6.203s-6.203-2.777-6.203-6.203v0c0-3.424 2.776-6.2 6.2-6.2s6.2 2.776 6.2 6.2v0z"></path>
<path fill="#be0027" d="M26.757 16.019c0 2.979-2.415 5.394-5.394 5.394s-5.394-2.415-5.394-5.394v0c0-2.979 2.415-5.394 5.394-5.394s5.394 2.415 5.394 5.394v0z"></path>
<path fill="#ff0" d="M26.007 16.031c0 2.558-2.073 4.631-4.631 4.631s-4.631-2.073-4.631-4.631v0c0-2.558 2.073-4.631 4.631-4.631s4.631 2.073 4.631 4.631v0z"></path>
<path fill="#be0027" d="M17.432 13c1.281-0.031 2.875 0.088 3.931 0.925 0.912-0.578 2.023-0.92 3.213-0.92 0.2 0 0.398 0.010 0.593 0.029l-0.025-0.002 0.688 1.256c-0.172-0.017-0.372-0.026-0.574-0.026-0.924 0-1.801 0.198-2.591 0.555l0.040-0.016c1.321 0.982 2.167 2.537 2.167 4.291 0 0.076-0.002 0.151-0.005 0.226l0-0.011c-0.169 0.212-0.438 0.444-0.606 0.656 0.25-1.781-0.688-3.769-2.056-4.813 1.113 1.6 1.769 3.038 1.587 5.025l-0.625 0.4c0.288-1.75-0.125-3.813-1.419-5 0.75 1.094 1.488 3.063 1.025 5.063-0.2 0.063-0.512 0.231-0.712 0.288 0.159-0.514 0.251-1.105 0.251-1.717 0-1.188-0.345-2.295-0.94-3.226l0.014 0.024c-0.863 1.238-1.144 3.125-0.656 4.875-0.238-0.063-0.419-0.137-0.663-0.194-0.356-1.875 0.137-4 0.994-5.106-0.875 0.506-1.694 2.669-1.462 4.875l-0.581-0.269c-0.281-1.644 0.462-3.788 1.531-5.025-1.212 0.762-2.2 2.644-2.031 4.662-0.188-0.163-0.356-0.244-0.544-0.413-0.212-1.762 0.813-3.537 2.006-4.6-1.006-0.456-1.875-0.544-3.125-0.525 0.194-0.406 0.375-0.881 0.575-1.294z"></path>
</svg>
