<!-- Generated by IcoMoon.io -->
<svg version="1.1" xmlns="http://www.w3.org/2000/svg" width="43" height="32" viewBox="0 0 43 32">
<title>kh</title>
<path fill="#032ea1" d="M0 0h42.667v32h-42.667z"></path>
<path fill="#e00025" d="M0 8h42.667v16h-42.667z"></path>
<path fill="#fff" d="M16.827 15.080h9.104v3.504h-9.104z"></path>
<path fill="#fff" d="M25.467 17.008h0.28v1.32h-0.28zM16.827 16.36h9.104v0.4h-9.104zM16.827 15.8h9.104v0.368h-9.104z"></path>
<path fill="#fff" d="M16.827 15.256h9.104v0.344h-9.104z"></path>
<path fill="#fff" d="M19.227 17.008h0.288v1.32h-0.288zM23.147 17.008h0.288v1.32h-0.288zM16.907 17.008h0.28v1.32h-0.28zM17.467 17.008h0.28v1.32h-0.28zM18.067 17.008h0.28v1.32h-0.28zM18.667 17.008h0.28v1.32h-0.28zM23.691 17.008h0.288v1.32h-0.288zM24.291 17.008h0.288v1.32h-0.288zM24.891 17.008h0.288v1.32h-0.288z"></path>
<path fill="#fff" d="M13.267 18.76c0.166-0.092 0.291-0.24 0.351-0.419l0.002-0.005h15.448c0.061 0.184 0.186 0.332 0.348 0.422l0.004 0.002z"></path>
<path fill="#fff" d="M21.147 9.744s-0.008-0.328 0.184-0.336c0.184 0 0.176 0.336 0.176 0.336zM20.147 14.104v-0.44c0-0.224-0.224-0.24-0.224-0.4 0 0-0.032-0.24 0.032-0.352 0.088 0.32 0.24 0.264 0.24 0.128 0-0.112-0.080-0.224-0.264-0.504-0.064-0.088-0.024-0.368 0.056-0.472 0.032 0.24 0.072 0.36 0.176 0.36 0.064 0 0.112-0.040 0.112-0.16 0-0.16-0.104-0.24-0.16-0.384-0.017-0.043-0.027-0.092-0.027-0.144 0-0.109 0.044-0.208 0.115-0.28l-0 0c0.040 0.24 0.032 0.336 0.136 0.336 0.216-0.072 0-0.384-0.048-0.464-0.048-0.088 0.080-0.272 0.080-0.272 0.064 0.216 0.080 0.232 0.16 0.208 0.096-0.024 0.080-0.16-0.032-0.272-0.072-0.080-0.064-0.184 0.016-0.264 0.080 0.152 0.176 0.144 0.184 0.048l-0.064-0.352h1.392l-0.072 0.344c-0.016 0.096 0.112 0.12 0.192-0.040 0.080 0.080 0.088 0.192 0.016 0.264-0.112 0.112-0.128 0.248-0.032 0.272 0.080 0.024 0.096 0 0.16-0.208 0 0 0.12 0.12 0.080 0.272-0.048 0.080-0.264 0.4-0.048 0.464 0.104 0 0.096-0.096 0.136-0.336 0.067 0.071 0.109 0.168 0.109 0.274 0 0.054-0.011 0.105-0.030 0.152l0.001-0.003c-0.048 0.144-0.16 0.224-0.16 0.384 0 0.12 0.056 0.16 0.12 0.16 0.104 0 0.144-0.112 0.176-0.36 0.080 0.104 0.12 0.384 0.056 0.48-0.184 0.272-0.272 0.384-0.272 0.496 0 0.136 0.16 0.192 0.24-0.128 0.072 0.112 0.040 0.352 0.040 0.352 0 0.16-0.216 0.176-0.224 0.4v0.44zM20.723 10.424l-0.032-0.248h1.272l-0.032 0.248zM20.803 10.168l-0.016-0.2h1.080l-0.024 0.2zM20.987 9.96l-0.024-0.208h0.72l-0.008 0.208zM23.627 18.76c-0.16-0.056-0.4-0.232-0.4-0.4v-1.944l0.208-0.272h-4.208l0.2 0.272v1.944c0 0.168-0.16 0.344-0.32 0.4z"></path>
<path fill="#fff" d="M19.963 17.008h0.288v1.32h-0.288zM22.395 17.008h0.288v1.32h-0.288z"></path>
<path fill="#fff" d="M19.147 13.936v2.208h4.32v-2.208c-0.101 0.038-0.178 0.12-0.207 0.222l-0.001 0.002v0.944h-3.896v-0.944s-0.048-0.16-0.224-0.224z"></path>
<path fill="#fff" d="M22.875 18.76c-0.144-0.056-0.448-0.232-0.448-0.4v-2.176c0.032-0.12 0.192-0.192 0.296-0.272h-2.856c0.136 0.080 0.288 0.136 0.344 0.272v2.176c0 0.168-0.24 0.344-0.384 0.4z"></path>
<path fill="#fff" d="M23.259 15.936v-1.568h-0.392v-0.152h-3.104v0.16h-0.4v1.56zM22.267 18.76c-0.144-0.056-0.344-0.232-0.344-0.4v-1.856l0.112-0.168h-1.416l0.12 0.16v1.864c0 0.168-0.208 0.344-0.344 0.4z"></path>
<path fill="#fff" d="M20.963 16.336h0.72v2.424h-0.72z"></path>
<path fill="#fff" d="M22.059 15.8c0-0.16 0.464-0.168 0.704-0.304h-2.88c0.24 0.136 0.696 0.144 0.696 0.304l0.096 0.312 1.2 0.048z"></path>
<path fill="#fff" d="M22.619 14.104c0-0.392 0.016-0.536 0.136-0.536v1.232c-0.296 0.112-0.504 0.48-0.504 0.48h-1.856s-0.208-0.368-0.504-0.48v-1.24c0.144 0 0.144 0.16 0.144 0.536zM22.755 13.944c0-0.448 0.392-0.496 0.392-0.496v0.4c-0.152-0.008-0.224 0.128-0.224 0.32 0 0.2 0.12 0.2 0.12 0.2v1.136h-0.288z"></path>
<path fill="#fff" d="M19.891 13.944c0-0.448-0.392-0.496-0.392-0.496v0.4c0.152-0.008 0.224 0.128 0.224 0.32 0 0.2-0.12 0.2-0.12 0.2v1.136h0.288z"></path>
<path fill="#fff" d="M20.427 14.336c0.24 0.288 0.208 0.776 0.208 1.064h1.392c0-0.288-0.032-0.776 0.208-1.064zM21.203 11.056l-0.192-0.104v-0.28c0.080 0.024 0.16 0.032 0.176 0.16 0.024-0.184 0.080-0.168 0.152-0.24 0.080 0.072 0.12 0.056 0.152 0.24 0-0.128 0.096-0.136 0.168-0.16v0.28l-0.184 0.096z"></path>
<path fill="#fff" d="M21.187 11.512l-0.32-0.224v-0.248c0.12 0.024 0.24 0.040 0.256 0.176 0.032-0.2 0.104-0.296 0.216-0.376 0.104 0.080 0.176 0.176 0.216 0.376 0.008-0.136 0.136-0.152 0.24-0.176v0.256l-0.312 0.216z"></path>
<path fill="#fff" d="M21.163 12.224l-0.36-0.32v-0.376c0.128 0.032 0.272 0.048 0.288 0.248 0.040-0.28 0.12-0.432 0.24-0.544 0.128 0.112 0.208 0.264 0.256 0.544 0.016-0.2 0.16-0.216 0.288-0.248v0.376l-0.368 0.32zM21.835 12.648l-0.32 0.456h-0.376l-0.328-0.456zM20.619 13.408c0.16 0.088 0.224 0.272 0.24 0.608h0.928c0.016-0.336 0.080-0.52 0.24-0.608z"></path>
<path fill="#fff" d="M22.043 12.64v-0.448c-0.141 0.031-0.254 0.13-0.303 0.261l-0.001 0.003c0-0.16-0.2-0.504-0.416-0.68-0.216 0.192-0.424 0.512-0.416 0.672-0.040-0.12-0.144-0.216-0.304-0.256v0.456z"></path>
<path fill="#fff" d="M22.107 13.408v-0.448c-0.168 0.048-0.28 0.136-0.328 0.264 0-0.16-0.216-0.504-0.456-0.68-0.24 0.2-0.464 0.512-0.456 0.68-0.040-0.12-0.16-0.216-0.328-0.264v0.456z"></path>
<path fill="#fff" d="M22.299 14.344v-0.528c-0.17 0.054-0.311 0.161-0.406 0.301l-0.002 0.003c0-0.28-0.32-0.72-0.568-0.856-0.256 0.144-0.568 0.592-0.568 0.856-0.099-0.144-0.243-0.251-0.41-0.303l-0.006-0.001v0.528z"></path>
<path fill="#fff" d="M22.187 15.52v-0.544c-0.192 0.072-0.24 0.248-0.304 0.376 0.024-0.552-0.304-1.136-0.56-1.288-0.256 0.152-0.592 0.752-0.56 1.28-0.064-0.112-0.12-0.296-0.304-0.368v0.536z"></path>
<path fill="#fff" d="M22.059 16.336v-0.544c-0.2 0.048-0.208 0.12-0.272 0.24 0.024-0.328-0.208-0.704-0.464-0.848-0.256 0.144-0.48 0.52-0.464 0.848-0.064-0.12-0.072-0.192-0.272-0.24v0.544z"></path>
<path fill="#fff" d="M13.627 18.336v-1.632c-0.056-0.208-0.24-0.4-0.368-0.432v-1.44l0.296 0.16 0.344 1.512v1.84z"></path>
<path fill="#fff" d="M13.627 18.344v-1.64c-0.056-0.208-0.24-0.4-0.368-0.432v-1.536c0.2 0 0.296 0.256 0.296 0.256l0.344 1.512v1.832z"></path>
<path fill="#fff" d="M13.411 18.76c0.136-0.056 0.336-0.232 0.336-0.4v-2.048l-0.096-0.16h3.496l-0.136 0.16v2.048c0.013 0.177 0.119 0.326 0.269 0.399l0.003 0.001z"></path>
<path fill="#fff" d="M16.571 18.76c-0.136-0.056-0.336-0.232-0.336-0.4v-1.944l0.288-0.272h-2.368l0.288 0.272v1.944c0 0.168-0.2 0.344-0.336 0.4z"></path>
<path fill="#fff" d="M16.243 18.76c-0.136-0.056-0.344-0.232-0.344-0.4v-1.76l0.192-0.264h-1.504l0.192 0.264v1.76c0 0.168-0.2 0.344-0.344 0.4z"></path>
<path fill="#fff" d="M14.987 16.336h0.712v2.432h-0.72z"></path>
<path fill="#fff" d="M14.003 17.008h0.288v1.32h-0.288zM16.467 17.008h0.28v1.32h-0.288zM13.755 14.784h0.352v1.36h-0.352zM13.755 14.528h0.344v0.256h-0.344zM16.603 15.080h0.488v1.040h-0.488z"></path>
<path fill="#fff" d="M14.099 16.128v-2.32c0.096 0 0.112 0.344 0.336 0.344 0.12 0 0.112-0.144 0.040-0.256-0.056-0.104-0.128-0.24-0.032-0.504 0.072 0.2 0.248 0.264 0.216 0.144-0.056-0.216-0.224-0.256-0.096-0.584 0.040 0.272 0.216 0.264 0.176 0.104-0.048-0.184-0.152-0.264-0.024-0.52 0.072 0.296 0.16 0.28 0.16 0.096 0-0.272 0-0.56 0.336-0.664 0 0 0.024-0.24 0.152-0.24 0.12 0 0.144 0.24 0.144 0.24 0.344 0.104 0.336 0.4 0.336 0.664 0 0.184 0.088 0.2 0.16-0.096 0.128 0.256 0.024 0.336-0.024 0.52-0.040 0.16 0.136 0.168 0.176-0.104 0.128 0.328-0.040 0.368-0.096 0.584-0.032 0.12 0.144 0.056 0.216-0.144 0.096 0.264 0.024 0.4-0.032 0.504-0.064 0.112-0.080 0.256 0.040 0.256 0.224 0 0.24-0.336 0.336-0.336v2.312zM13.547 14.376v1.768h0.2v-1.768c-0.072-0.040-0.136-0.040-0.2 0z"></path>
<path fill="#fff" d="M13.563 15.52c0.248 0.128 0.496 0.28 0.56 0.624h-0.56zM17.019 14.992v1.152h0.16v-1.152c-0.048-0.024-0.12-0.032-0.16 0z"></path>
<path fill="#fff" d="M17.179 15.52c-0.248 0.12-0.496 0.264-0.56 0.616h0.56zM15.531 12.824l0.144-0.12v-0.16c-0.048 0-0.080 0.024-0.12 0.080-0.033-0.105-0.104-0.19-0.198-0.239l-0.002-0.001c-0.098 0.047-0.172 0.129-0.207 0.229l-0.001 0.003c-0.040-0.056-0.064-0.064-0.12-0.080v0.16l0.144 0.128z"></path>
<path fill="#fff" d="M15.611 13.216l0.064-0.152v-0.2c-0.048 0-0.080 0.024-0.12 0.080-0.033-0.105-0.104-0.19-0.198-0.239l-0.002-0.001c-0.098 0.047-0.172 0.129-0.207 0.229l-0.001 0.003c-0.040-0.056-0.064-0.064-0.12-0.072v0.2l0.064 0.152z"></path>
<path fill="#fff" d="M15.627 13.744l0.208-0.264v-0.256c-0.080 0-0.12 0.040-0.176 0.128-0.056-0.184-0.16-0.216-0.304-0.304-0.152 0.080-0.256 0.12-0.304 0.296-0.064-0.088-0.104-0.112-0.184-0.12v0.256l0.216 0.264z"></path>
<path fill="#fff" d="M15.683 14.264s0.256-0.216 0.264-0.336v-0.28c-0.096 0.008-0.184 0.032-0.256 0.152-0.064-0.232-0.16-0.296-0.336-0.4-0.184 0.104-0.28 0.168-0.336 0.4-0.080-0.12-0.16-0.144-0.264-0.16v0.288c0.070 0.131 0.158 0.242 0.263 0.335l0.001 0.001z"></path>
<path fill="#fff" d="M15.787 15.224s0.352-0.376 0.36-0.528v-0.432c-0.128 0.016-0.256 0.104-0.352 0.288-0.080-0.36-0.208-0.608-0.44-0.784-0.24 0.176-0.368 0.424-0.448 0.784-0.096-0.184-0.216-0.272-0.344-0.288v0.432c0.024 0.152 0.352 0.528 0.352 0.528z"></path>
<path fill="#fff" d="M15.787 15.792s0.296-0.296 0.36-0.424v-0.432c-0.128 0.016-0.256 0.104-0.352 0.28-0.046-0.303-0.207-0.562-0.437-0.734l-0.003-0.002c-0.24 0.176-0.368 0.376-0.448 0.736-0.096-0.176-0.216-0.264-0.344-0.28v0.432c0.080 0.128 0.352 0.424 0.352 0.424z"></path>
<path fill="#fff" d="M15.907 16.128c-0.080-0.376-0.16-0.656-0.568-0.936-0.416 0.28-0.488 0.56-0.576 0.936z"></path>
<path fill="#fff" d="M16.123 16.336v-0.544c-0.192 0.080-0.36 0.184-0.424 0.304-0.064-0.304-0.2-0.432-0.368-0.616-0.168 0.184-0.28 0.32-0.352 0.616-0.064-0.12-0.232-0.232-0.416-0.304v0.544z"></path>
<path fill="#fff" d="M29.043 18.336v-1.632c0.056-0.208 0.24-0.4 0.368-0.432v-1.44l-0.296 0.16-0.344 1.512v1.84z"></path>
<path fill="#fff" d="M29.043 18.344v-1.64c0.056-0.208 0.24-0.4 0.368-0.432v-1.536c-0.2 0-0.296 0.256-0.296 0.256l-0.344 1.512v1.832z"></path>
<path fill="#fff" d="M29.259 18.76c-0.136-0.056-0.336-0.232-0.336-0.4v-2.048l0.096-0.16h-3.496l0.136 0.16v2.048c-0.013 0.177-0.119 0.326-0.269 0.399l-0.003 0.001z"></path>
<path fill="#fff" d="M26.099 18.76c0.136-0.056 0.336-0.232 0.336-0.4v-1.944l-0.288-0.272h2.368l-0.288 0.272v1.944c0 0.168 0.2 0.344 0.336 0.4z"></path>
<path fill="#fff" d="M26.427 18.76c0.136-0.056 0.344-0.232 0.344-0.4v-1.76l-0.192-0.264h1.504l-0.192 0.264v1.76c0 0.168 0.2 0.344 0.344 0.4z"></path>
<path fill="#fff" d="M27.683 16.336h-0.712v2.432h0.72z"></path>
<path fill="#fff" d="M28.667 17.008h-0.288v1.32h0.288zM26.203 17.008h-0.28v1.32h0.288zM28.915 14.784h-0.352v1.36h0.352zM28.915 14.528h-0.344v0.256h0.344zM26.067 15.080h-0.488v1.040h0.488z"></path>
<path fill="#fff" d="M28.571 16.128v-2.32c-0.096 0-0.112 0.344-0.336 0.344-0.12 0-0.112-0.144-0.040-0.256 0.056-0.104 0.128-0.24 0.032-0.504-0.072 0.2-0.248 0.264-0.216 0.144 0.056-0.216 0.224-0.256 0.096-0.584-0.040 0.272-0.216 0.264-0.176 0.104 0.048-0.184 0.152-0.264 0.024-0.52-0.072 0.296-0.16 0.28-0.16 0.096 0-0.272 0-0.56-0.336-0.664 0 0-0.024-0.24-0.152-0.24-0.12 0-0.144 0.24-0.144 0.24-0.344 0.104-0.336 0.4-0.336 0.664 0 0.184-0.088 0.2-0.16-0.096-0.128 0.256-0.024 0.336 0.024 0.52 0.040 0.16-0.136 0.168-0.176-0.104-0.128 0.328 0.040 0.368 0.096 0.584 0.032 0.12-0.144 0.056-0.216-0.144-0.096 0.264-0.024 0.4 0.032 0.504 0.064 0.112 0.080 0.256-0.040 0.256-0.224 0-0.24-0.336-0.336-0.336v2.312zM29.123 14.376v1.768h-0.2v-1.768c0.072-0.040 0.136-0.040 0.2 0z"></path>
<path fill="#fff" d="M29.107 15.52c-0.248 0.128-0.496 0.28-0.56 0.624h0.56zM25.651 14.992v1.152h-0.16v-1.152c0.048-0.024 0.12-0.032 0.16 0z"></path>
<path fill="#fff" d="M25.491 15.52c0.248 0.12 0.496 0.264 0.56 0.616h-0.56zM27.139 12.824l-0.144-0.12v-0.16c0.048 0 0.080 0.024 0.12 0.080 0.032-0.105 0.104-0.19 0.198-0.239l0.002-0.001c0.098 0.047 0.172 0.129 0.207 0.229l0.001 0.003c0.040-0.056 0.064-0.064 0.12-0.080v0.16l-0.144 0.128z"></path>
<path fill="#fff" d="M27.059 13.216l-0.064-0.152v-0.2c0.048 0 0.080 0.024 0.12 0.080 0.032-0.105 0.104-0.19 0.198-0.239l0.002-0.001c0.098 0.047 0.172 0.129 0.207 0.229l0.001 0.003c0.040-0.056 0.064-0.064 0.12-0.072v0.2l-0.064 0.152z"></path>
<path fill="#fff" d="M27.043 13.744l-0.208-0.264v-0.256c0.080 0 0.12 0.040 0.176 0.128 0.056-0.184 0.16-0.216 0.304-0.304 0.152 0.080 0.256 0.12 0.304 0.296 0.064-0.088 0.104-0.112 0.184-0.12v0.256l-0.216 0.264z"></path>
<path fill="#fff" d="M26.987 14.264s-0.256-0.216-0.264-0.336v-0.28c0.096 0.008 0.184 0.032 0.256 0.152 0.064-0.232 0.16-0.296 0.336-0.4 0.184 0.104 0.28 0.168 0.336 0.4 0.080-0.12 0.16-0.144 0.264-0.16v0.288c-0.070 0.131-0.158 0.242-0.263 0.335l-0.001 0.001z"></path>
<path fill="#fff" d="M26.883 15.224s-0.352-0.376-0.36-0.528v-0.432c0.128 0.016 0.256 0.104 0.352 0.288 0.080-0.36 0.208-0.608 0.44-0.784 0.24 0.176 0.368 0.424 0.448 0.784 0.096-0.184 0.216-0.272 0.344-0.288v0.432c-0.024 0.152-0.352 0.528-0.352 0.528z"></path>
<path fill="#fff" d="M26.883 15.792s-0.296-0.296-0.36-0.424v-0.432c0.128 0.016 0.256 0.104 0.352 0.28 0.046-0.303 0.207-0.562 0.437-0.734l0.003-0.002c0.24 0.176 0.368 0.376 0.448 0.736 0.096-0.176 0.216-0.264 0.344-0.28v0.432c-0.080 0.128-0.352 0.424-0.352 0.424z"></path>
<path fill="#fff" d="M26.763 16.128c0.080-0.376 0.16-0.656 0.568-0.936 0.416 0.28 0.488 0.56 0.576 0.936z"></path>
<path fill="#fff" d="M26.547 16.336v-0.544c0.192 0.080 0.36 0.184 0.424 0.304 0.064-0.304 0.2-0.432 0.368-0.616 0.168 0.184 0.28 0.32 0.352 0.616 0.064-0.12 0.232-0.232 0.416-0.304v0.544z"></path>
<path fill="#fff" d="M11.523 20.744h19.624v1h-19.624zM11.003 21.744h20.664v1h-20.664zM12.555 19.24h17.552v0.648h-17.552z"></path>
<path fill="#fff" d="M12.043 19.888h18.592v0.848h-18.592zM12.859 18.744h16.96v0.496h-16.96z"></path>
<path fill="#fff" d="M14.699 18.744h1.28v4h-1.28z"></path>
<path fill="#fff" d="M14.987 18.744h0.712v4h-0.72zM20.667 18.744h1.28v4h-1.28z"></path>
<path fill="#fff" d="M20.963 18.744h0.72v4h-0.72zM26.683 18.744h1.28v4h-1.28z"></path>
<path fill="#fff" d="M26.963 18.744h0.72v4h-0.72z"></path>
</svg>
