<!-- Generated by IcoMoon.io -->
<svg version="1.1" xmlns="http://www.w3.org/2000/svg" width="43" height="32" viewBox="0 0 43 32">
<title>ki</title>
<path fill="#e73e2d" d="M-4.869 0h52.237v19.156h-52.237z"></path>
<path fill="#fec74a" d="M18.169 17.631c-1.212-0.95-3.475-0.625-3.85-3.206 1.731 1.344 1.419-0.075 4 1.206l-0.15 2z"></path>
<path fill="#fec74a" d="M18.494 16.462c-0.869-1.275-3.125-1.662-2.688-4.231 1.244 1.806 1.375 0.356 3.45 2.369l-0.762 1.862z"></path>
<path fill="#fec74a" d="M18.887 15.625c-0.313-1.506-2.25-2.725-0.863-4.938 0.45 2.15 1.125 0.863 2.275 3.512l-1.413 1.425z"></path>
<path fill="#fec74a" d="M19.794 14.85c0.169-1.531-1.3-3.287 0.694-4.963-0.225 2.181 0.813 1.169 1.094 4.037l-1.788 0.925z"></path>
<path fill="#fec74a" d="M20.606 14.231c0.775-1.331 0.156-3.531 2.663-4.244-1.1 1.894 0.262 1.394-0.656 4.125l-2.006 0.119z"></path>
<path fill="#fec74a" d="M21.775 14.394c1.163-1.012 1.275-3.3 3.875-3.181-1.644 1.45-0.188 1.406-1.938 3.713l-1.938-0.531z"></path>
<path fill="#fec74a" d="M22.813 14.994c1.406-0.631 2.181-2.781 4.631-1.906-2 0.906-0.594 1.294-2.938 2.981l-1.694-1.075z"></path>
<path fill="#fec74a" d="M23.681 15.938c1.525-0.213 2.875-2.063 4.981-0.525-2.169 0.306-0.938 1.069-3.656 2.031l-1.325-1.512z"></path>
<path fill="#fec74a" d="M29.119 16.225l-7.006 0.156 0.294 1.887 6.713-2.044z"></path>
<path fill="#fec74a" d="M28.087 13.65l-6.488 2.494 1.081 2.081 5.406-4.575z"></path>
<path fill="#fec74a" d="M22.938 17.544l3.356-6.1-5.15 4.794 1.794 1.306z"></path>
<path fill="#fec74a" d="M22.869 17.038l1.075-6.838-3.363 6.075 2.288 0.762z"></path>
<path fill="#fec74a" d="M22.462 16.481l-1.125-6.887-1.25 6.919 2.375-0.031z"></path>
<path fill="#fec74a" d="M21.881 15.894l-3.269-5.75 1.25 6.988 2.019-1.238z"></path>
<path fill="#fec74a" d="M21.375 15.85l-5.069-4.281 3.6 6.125 1.469-1.844z"></path>
<path fill="#fec74a" d="M14.525 13.681l5.437 4.494 0.837-2.35-6.275-2.144z"></path>
<path fill="#fec74a" d="M19.906 16.306l-6.394-0.094 6.369 2.125 0.025-2.031z"></path>
<path fill="#fec74a" d="M25.094 17.45c0.002 0.046 0.003 0.1 0.003 0.155 0 2.119-1.718 3.837-3.837 3.837s-3.837-1.718-3.837-3.837c0-0.054 0.001-0.109 0.003-0.163l-0 0.008c0.085-2.052 1.769-3.683 3.834-3.683s3.749 1.631 3.834 3.675l0 0.008z"></path>
<path fill="#005989" d="M-4.919 18.962h52.494v13.038h-52.5z"></path>
<path fill="#fff" d="M-4.95 28.375c0.975 0.45 2.375 1.581 3.875 1.581 2.5-0.019 2.563-1.712 5.1-1.631 2.544 0.063 2.081 1.85 5.513 1.844 2.838-0.012 3.75-2.169 6.2-1.913 1.813-0.094 2.55 2.044 5.331 2.075 2.887 0.063 3.944-2.331 5.75-2.131 1.938 0 2.563 1.925 5.269 1.938 3.45 0.019 4.056-2 6.206-1.875 1.538-0.031 2.75 1.481 5 1.519 1.788 0.031 3.294-1.325 4.313-1.813l0.044-2.3c-1.063 0.394-2.65 1.694-4.231 1.706-2.288 0.087-3.694-1.5-5.281-1.481-1.9 0.019-2.656 1.956-5.875 1.956-2.95 0-3.625-1.956-5.525-1.956-1.856 0.012-2.425 2.125-5.644 2.087-2.625-0.031-3.644-2.019-5.5-2-1.969 0-4 1.931-6.188 1.837-3-0.125-3.656-1.837-5.625-1.837-1.469 0-3.063 1.6-4.831 1.625-1.763 0.031-3.744-1.594-3.925-1.625l0.025 2.394zM-4.95 23.813c0.975 0.456 2.375 1.587 3.875 1.587 2.5-0.019 2.563-1.712 5.1-1.637 2.544 0.063 2.081 1.856 5.513 1.844 2.838 0 3.75-2.163 6.2-1.906 1.813-0.094 2.55 2.044 5.331 2.069 2.887 0.063 3.944-2.325 5.75-2.125 1.938 0 2.563 1.925 5.269 1.938 3.45 0.019 4.056-2 6.206-1.875 1.538-0.031 2.75 1.481 5 1.519 1.788 0.031 3.294-1.325 4.313-1.813l0.044-2.3c-1.063 0.394-2.65 1.688-4.231 1.706-2.288 0.081-3.694-1.5-5.281-1.481-1.9 0.019-2.656 1.956-5.875 1.956-2.95 0-3.625-1.956-5.525-1.956-1.856 0.012-2.425 2.125-5.644 2.087-2.625-0.031-3.644-2.019-5.5-2-1.969 0-4 1.925-6.188 1.831-3-0.125-3.656-1.837-5.625-1.837-1.469 0-3.063 1.606-4.831 1.631-1.763 0.025-3.744-1.594-3.925-1.625l0.025 2.394z"></path>
<path fill="#fff" d="M-4.95 19.313c0.975 0.45 2.375 1.575 3.869 1.575 2.5-0.012 2.563-1.712 5.1-1.631 2.537 0.063 2.075 1.85 5.506 1.844 2.831-0.006 3.75-2.169 6.188-1.906 1.813-0.094 2.55 2.044 5.331 2.069 2.881 0.063 3.938-2.331 5.75-2.131 1.925 0 2.563 1.925 5.262 1.938 3.438 0.019 4.044-2 6.2-1.875 1.531-0.031 2.744 1.481 4.987 1.519 1.794 0.031 3.294-1.325 4.313-1.813l0.044-2.3c-1.063 0.4-2.644 1.694-4.231 1.706-2.275 0.087-3.688-1.494-5.275-1.481-1.894 0.019-2.65 1.956-5.875 1.956-2.938 0-3.613-1.956-5.512-1.956-1.856 0.019-2.425 2.125-5.631 2.087-2.625-0.031-3.644-2.012-5.5-2-1.969 0-4 1.931-6.175 1.837-3.006-0.125-3.656-1.837-5.625-1.837-1.469 0-3.056 1.6-4.825 1.625-1.763 0.031-3.737-1.587-3.925-1.625l0.025 2.394z"></path>
<path fill="#ffc84b" d="M13.95 4.75c3.813-0.263 3.125-0.588 4.656-0.837 1.938 0.269 2.156 1.437 3.238 2.156 0 0-0.406 1.375-1.731 1.181-0.181-0.55 0.637-0.725-1.719-2.162-1.375-0.081-3.831 0.244-4.438-0.338zM25.781 6.869l-2.75 0.112v0.681c1.856 0.063 2.188-0.188 2.75-0.794z"></path>
<path fill="#ffc84b" d="M16.325 6.75c0.481-0.244 0.719-0.144 1.137-0.156 0.281 0.519 0.55 0.563 1.175 0.625 0.551 0.808 1.458 1.338 2.49 1.362l0.004 0c1.869-0.050 2.462-1.356 3.719-1.5h1.325c-0.219-0.375-0.394-0.594-0.875-0.619-0.988-0.050-2.262-0.025-3.375 0.225l-1.569 0.394c-0.462-0.225-1.581-1.4-2.3-1.375-0.419 0.112-0.419 0.256-0.625 0.419-0.406 0.175-0.813 0.088-1.106 0.625z"></path>
<path fill="#ffc84b" d="M18.219 6.188c0.002 0.011 0.003 0.023 0.003 0.035 0 0.11-0.090 0.2-0.2 0.2s-0.2-0.090-0.2-0.2c0-0.012 0.001-0.025 0.003-0.036l-0 0.001c0.017-0.094 0.099-0.165 0.197-0.165s0.18 0.071 0.197 0.164l0 0.001z"></path>
<path fill="#ffc84b" d="M19.5 6.737c2.806-3.381 5.256-2.969 8.456-3.2 0.106 0.394 0.063 0.981-1.456 1.5-2.087 0.313-5.819 2.513-5.837 2.513-0.694-0.037-1.181-0.763-1.163-0.813z"></path>
</svg>
