<!-- Generated by IcoMoon.io -->
<svg version="1.1" xmlns="http://www.w3.org/2000/svg" width="43" height="32" viewBox="0 0 43 32">
<title>km</title>
<path fill="#ff0" d="M0 0h48.050v8h-48.050z"></path>
<path fill="#fff" d="M0 8h48.050v8h-48.050z"></path>
<path fill="#be0027" d="M0 16h48.050v8h-48.050z"></path>
<path fill="#3b5aa3" d="M0 24h48.050v8h-48.050z"></path>
<path fill="#239e46" d="M0 0v32l23.869-15.956-23.869-16.044z"></path>
<path fill="#fff" d="M9.825 8.838c-5.313-0.269-7.744 3.969-7.737 7.244-0.013 3.875 3.663 7.063 7.050 6.875-1.825-0.863-4.063-3.294-4.075-6.894-0.019-3.256 1.844-6.094 4.769-7.225z"></path>
<path fill="#fff" d="M9.75 12.313l-0.75-0.581-0.912 0.287 0.325-0.9-0.55-0.775 0.95 0.037 0.563-0.769 0.269 0.919 0.9 0.3-0.787 0.531zM9.731 15.569l-0.75-0.588-0.912 0.287 0.331-0.894-0.556-0.775 0.956 0.031 0.563-0.762 0.262 0.912 0.906 0.306-0.794 0.531zM9.744 18.856l-0.75-0.587-0.906 0.288 0.325-0.894-0.55-0.775 0.95 0.031 0.563-0.762 0.269 0.913 0.9 0.3-0.787 0.538zM9.731 22.169l-0.75-0.581-0.919 0.288 0.331-0.9-0.556-0.775 0.956 0.038 0.563-0.769 0.262 0.919 0.906 0.3-0.794 0.531z"></path>
</svg>
