<!-- Generated by IcoMoon.io -->
<svg version="1.1" xmlns="http://www.w3.org/2000/svg" width="43" height="32" viewBox="0 0 43 32">
<title>kn</title>
<path fill="#ffe900" d="M-1.731 0.013h46.1v31.956h-46.1z"></path>
<path fill="#35a100" d="M-1.756 0.013l0.050 23.038 35.875-23.050-35.925 0.013z"></path>
<path fill="#c70000" d="M44.425 31.969l-0.087-23.95-36.188 23.969 36.275-0.019z"></path>
<path fill="#000" d="M-1.737 24.788l0.031 7.212 7.831-0.012 38.231-25.631-0.038-6.269-7.737-0.075-38.313 24.775z"></path>
<path fill="#fff" d="M28.782 9.787l-0.613-2.638 2.081 1.687 2.375-1.537-1.087 2.581 2.087 1.688-2.762-0.094-1.081 2.581-0.619-2.637-2.756-0.094zM11.582 20.975l-0.619-2.644 2.081 1.688 2.375-1.538-1.088 2.581 2.088 1.688-2.756-0.094-1.088 2.581-0.613-2.637-2.756-0.094z"></path>
</svg>
