<!-- Generated by IcoMoon.io -->
<svg version="1.1" xmlns="http://www.w3.org/2000/svg" width="43" height="32" viewBox="0 0 43 32">
<title>kp</title>
<path fill="#fff" d="M48.189 31.968h-53.26v-31.944h53.26z"></path>
<path fill="#3e5698" d="M48.189 26.186h-53.26v5.782h53.26z"></path>
<path fill="#c60000" d="M48.189 24.848h-53.26v-17.703h53.26z"></path>
<path fill="#3e5698" d="M48.189 0.031h-53.26v5.776h53.26z"></path>
<path fill="#fff" d="M20.215 15.996c0 3.97-3.313 7.189-7.414 7.189s-7.414-3.219-7.414-7.189 3.313-7.176 7.414-7.176c4.095 0 7.414 3.213 7.414 7.183z"></path>
<path fill="#c40000" d="M10.67 16.909l-3.563-2.544 4.438-0.012 1.419-4.151 1.319 4.132 4.438-0.025-3.619 2.575 1.331 4.132-3.563-2.544-3.626 2.582z"></path>
</svg>
