<!-- Generated by IcoMoon.io -->
<svg version="1.1" xmlns="http://www.w3.org/2000/svg" width="43" height="32" viewBox="0 0 43 32">
<title>kr</title>
<path fill="#fff" d="M44.149 32.002h-45.638v-32h45.638z"></path>
<path fill="#fff" d="M21.73 16.027c0 3.883-3.148 7.031-7.031 7.031s-7.031-3.148-7.031-7.031v0c0-3.883 3.148-7.031 7.031-7.031s7.031 3.148 7.031 7.031v0z"></path>
<path fill="#c70000" d="M30.549 16.439c0 5.063-4.063 9.175-9.081 9.175s-9.075-4.113-9.075-9.175 4.063-9.181 9.081-9.181 9.075 4.119 9.075 9.181z"></path>
<path fill="#000" d="M2.899 7.927l5.225-6.044 1.244 1.069-5.231 6.050zM4.612 9.408l5.225-6.044 1.244 1.063-5.231 6.056z"></path>
<path fill="#000" d="M2.899 7.927l5.225-6.044 1.244 1.069-5.231 6.050zM6.362 10.927l5.225-6.056 1.244 1.075-5.231 6.050z"></path>
<path fill="#000" d="M2.899 7.927l5.225-6.044 1.244 1.069-5.231 6.050z"></path>
<path fill="#000" d="M2.899 7.927l5.225-6.044 1.244 1.069-5.231 6.050zM34.699 1.877l5.188 6.088-1.25 1.063-5.188-6.088zM31.218 4.845l5.188 6.088-1.25 1.063-5.188-6.088z"></path>
<path fill="#fff" d="M32.087 8.352l4.9-4.237 0.919 1.063-5.25 4.712-0.581-1.537z"></path>
<path fill="#000" d="M38.124 23.277l-5.025 5.988-1.231-1.025 5.025-5.988zM32.974 3.345l5.188 6.088-1.244 1.063-5.181-6.094zM39.83 24.695l-5.031 5.988-1.237-1.025 5.031-5.988zM36.387 21.833l-5.025 5.988-1.231-1.025 5.025-5.988z"></path>
<path fill="#3d5897" d="M12.524 14.82c0.287 2.312 0.706 4.888 4.262 5.15 1.331 0.081 3.925-0.313 4.813-3.95 1.175-3.488 4.688-4.488 7.081-2.6 1.369 0.887 1.744 2.294 1.831 3.356-0.106 3.375-2.056 6.313-4.55 7.625-2.875 1.706-6.85 1.744-10.331-0.844-1.569-1.469-3.762-4.188-3.106-8.738z"></path>
<path fill="#fff" d="M33.237 23.189l4.913 4.225-0.913 1.063-5.444-4.488 1.438-0.8z"></path>
<path fill="#000" d="M5.868 22.352l5.188 6.081-1.25 1.063-5.188-6.081z"></path>
<path fill="#fff" d="M4.974 27.358l4.912-4.244 0.919 1.063-5.25 4.719-0.581-1.544z"></path>
<path fill="#000" d="M7.593 20.883l5.188 6.081-1.25 1.063-5.188-6.081zM4.112 23.852l5.187 6.081-1.25 1.063-5.188-6.081z"></path>
</svg>
