<!-- Generated by IcoMoon.io -->
<svg version="1.1" xmlns="http://www.w3.org/2000/svg" width="43" height="32" viewBox="0 0 43 32">
<title>ky</title>
<path fill="#006" d="M0 0h42.667v32h-42.667z"></path>
<path fill="#012169" d="M0 0h21.333v16h-21.333z"></path>
<path fill="#fff" d="M2.5 0l8.133 6.033 8.1-6.033h2.6v2.067l-8 5.967 8 5.933v2.033h-2.667l-8-5.967-7.967 5.967h-2.7v-2l7.967-5.933-7.967-5.933v-2.133z"></path>
<path fill="#c8102e" d="M14.133 9.367l7.2 5.3v1.333l-9.033-6.633zM8 10.033l0.2 1.167-6.4 4.8h-1.8zM21.333 0v0.1l-8.3 6.267 0.067-1.467 6.567-4.9zM0 0l7.967 5.867h-2l-5.967-4.467z"></path>
<path fill="#fff" d="M8.033 0v16h5.333v-16zM0 5.333v5.333h21.333v-5.333z"></path>
<path fill="#c8102e" d="M0 6.433v3.2h21.333v-3.2zM9.1 0v16h3.2v-16z"></path>
<path fill="#000" stroke="#fff" stroke-linejoin="round" stroke-linecap="butt" stroke-miterlimit="4" stroke-width="0.64" d="M37.039 12.122v5.426c0 4.705-2.225 6.32-5.205 7.598-2.98-1.278-5.228-2.893-5.228-7.598v-5.431h10.433z"></path>
<path fill="#000" stroke="#fff" stroke-linejoin="round" stroke-linecap="butt" stroke-miterlimit="4" stroke-width="0.64" d="M23.37 24.704c0.168 0.442 1.365 1.028 2.759 0.279 0.947-0.534 1.557-1.278 2.144-2.614 0.163-0.337 0.25-0.755-0.139-1.005-0.308-0.227-0.813-0.476-1.034-0.697-0.11-0.116-0.221-0.198-0.302-0.279 0.058 0.058 0.11 0.11 0.163 0.192 0.558 0.668-0.023 1.644-0.639 2.231-0.447 0.418-1.249 1.446-2.422 0.471-0.25-0.221-0.837 0.697-0.523 1.423z"></path>
<path fill="#000" stroke="#fff" stroke-linejoin="round" stroke-linecap="butt" stroke-miterlimit="4" stroke-width="0.64" d="M40.298 24.704c-0.197 0.442-1.394 1.028-2.759 0.279-0.941-0.534-1.557-1.278-2.167-2.614-0.139-0.337-0.227-0.755 0.163-1.005 0.308-0.227 0.813-0.476 1.034-0.697 0.11-0.116 0.192-0.198 0.302-0.279-0.058 0.058-0.11 0.11-0.163 0.192-0.558 0.668 0.023 1.644 0.61 2.231 0.447 0.418 1.278 1.446 2.451 0.471 0.25-0.221 0.807 0.697 0.523 1.423z"></path>
<path fill="#000" stroke="#fff" stroke-linejoin="round" stroke-linecap="butt" stroke-miterlimit="4" stroke-width="0.64" d="M31.834 27.098c2.225 0 5.652-1.005 7.494-4.514 0.302-0.581 0-0.889-0.366-1.081-0.43-0.219-0.798-0.491-1.115-0.813l-0.001-0.001c0.447 0.447 0.36 0.755 0.058 1.255-1.423 2.37-3.369 3.567-6.070 3.567s-4.647-1.197-6.070-3.567c-0.302-0.5-0.389-0.807 0.029-1.249-0.313 0.327-0.683 0.598-1.093 0.797l-0.023 0.010c-0.36 0.192-0.668 0.5-0.36 1.081 1.836 3.509 5.286 4.514 7.517 4.514z"></path>
<path fill="#000" stroke="#fff" stroke-linejoin="round" stroke-linecap="butt" stroke-miterlimit="4" stroke-width="0.64" d="M26.681 22.392c-0.058-0.279-0.412-0.168-0.523 0.168-0.141-0.179-0.272-0.381-0.385-0.594l-0.010-0.022c-0.331-0.5-0.389-0.837 0.087-1.307 0.221-0.221 0.668-0.476 0.97-0.198 0.639 0.529 0.308 1.394-0.139 1.952z"></path>
<path fill="#000" stroke="#fff" stroke-linejoin="round" stroke-linecap="butt" stroke-miterlimit="4" stroke-width="0.64" d="M36.958 22.392c0.058-0.279 0.447-0.168 0.558 0.168 0.139-0.198 0.279-0.389 0.389-0.616 0.331-0.5 0.389-0.837-0.116-1.307-0.192-0.221-0.639-0.476-0.97-0.198-0.616 0.529-0.308 1.394 0.139 1.952z"></path>
<path fill="#000" stroke="#fff" stroke-linejoin="round" stroke-linecap="butt" stroke-miterlimit="4" stroke-width="0.64" d="M23.37 24.704c-0.279-0.418-0.5-1.51-0.558-1.783-0.081-0.25-0.11-0.476 0.198-0.581 0.308-0.116 0.581 0.273 0.72 0.61 0.139 0.331 0.366 0.831 0.616 1.446-0.616-0.36-1.115-0.116-0.976 0.308z"></path>
<path fill="#000" stroke="#fff" stroke-linejoin="round" stroke-linecap="butt" stroke-miterlimit="4" stroke-width="0.64" d="M40.298 24.704c0.25-0.418 0.471-1.51 0.558-1.783 0.058-0.25 0.11-0.476-0.197-0.581-0.308-0.116-0.581 0.273-0.72 0.61-0.139 0.331-0.366 0.831-0.616 1.446 0.616-0.36 1.086-0.116 0.976 0.308z"></path>
<path fill="#000" stroke="#fff" stroke-linejoin="round" stroke-linecap="butt" stroke-miterlimit="4" stroke-width="0.64" d="M29.691 12.093c-0.36 0.081-0.61 0.11-0.947-0.197-0.221-0.221-0.168-0.61 0.058-0.755 0.25-0.163 0.471-0.273 0.778-0.192 0.308 0.087 1.115 0.836 0.918 0.866-0.198 0-0.5 0.192-0.807 0.279z"></path>
<path fill="#000" stroke="#fff" stroke-linejoin="round" stroke-linecap="butt" stroke-miterlimit="4" stroke-width="0.64" d="M30.55 10.757c0.116-0.087 0.256-0.139 0.616-0.174 0.337-0.023 0.581-0.023 0.668 0.232 0.116 0.302 0.198 0.662 0.418 0.831-0.139 0.081-0.837 0.168-1.086 0.029-0.331-0.168-0.418-0.813-0.61-0.918z"></path>
<path fill="#000" stroke="#fff" stroke-linejoin="round" stroke-linecap="butt" stroke-miterlimit="4" stroke-width="0.64" d="M32.949 10.786c0.11-0.087 0.25-0.087 0.61-0.058s0.5 0.058 0.581 0.308c0.087 0.279 0 0.639 0.174 0.889-0.174 0.058-0.726 0.058-0.924-0.139-0.302-0.221-0.279-0.866-0.441-1.005z"></path>
<path fill="#000" stroke="#fff" stroke-linejoin="round" stroke-linecap="butt" stroke-miterlimit="4" stroke-width="0.64" d="M34.617 10.948c-0.25-0.058-0.418-0.081-0.523 0 0.134 0.168 0.023 0.836 0.302 1.057 0.192 0.139 0.697 0.174 0.807-0.139 0.139-0.279 0.139-0.697-0.581-0.918z"></path>
<path fill="#000" stroke="#fff" stroke-linejoin="round" stroke-linecap="butt" stroke-miterlimit="4" stroke-width="0.64" d="M31.753 10.67c0.081-0.081 0.25-0.11 0.581-0.11 0.366 0 0.581 0.058 0.697 0.279 0.116 0.279 0.081 0.639 0.279 0.866-0.081 0.11-0.837 0.11-1.057-0.058-0.308-0.197-0.337-0.836-0.5-0.976z"></path>
<path fill="#000" stroke="#fff" stroke-linejoin="round" stroke-linecap="butt" stroke-miterlimit="4" stroke-width="0.64" d="M29.388 10.919c0-0.139 0.192-0.163 0.697-0.192 0.494-0.058 0.523-0.029 0.691 0.331 0.081 0.197 0.192 0.529 0.418 0.639-0.616 0.145-0.813 0.227-1.144 0.029-0.242-0.153-0.439-0.359-0.577-0.602l-0.004-0.008c-0.029-0.081-0.029-0.168-0.087-0.197z"></path>
<path fill="#000" stroke="#fff" stroke-linejoin="round" stroke-linecap="butt" stroke-miterlimit="4" stroke-width="0.64" d="M29.441 8.445c-0.198 0-0.36-0.081-0.476-0.221-0.192-0.256-0.72-0.366-0.947-0.139-0.081 0.058-0.192 0.058-0.273 0.081-0.139 0-0.308 0.139-0.256 0.418 0.116-0.087 0.139 0 0.227 0 0.058-0.029 0.029 0.029 0.029 0.081 0 0.139 0.302 0.418 0.581 0.389 0.308 0 0.447 0.116 0.5 0.174 0.087 0.076 0.029 0.052 0.087 0.192 0.081 0.081 0.11 0.11-0.029 0.221-0.124 0.104-0.203 0.259-0.203 0.433s0.078 0.329 0.202 0.432l0.001 0.001c0.36 0.273 1.278 0.697 2.312-0.116 0.999-0.778 2.556-0.331 2.672-0.058 0.139 0.285 0.192 0.447 0.221 0.587 0.029 0.116 0.168 0.227 0.366 0.197 0.192 0 0.412 0.081 0.523 0.168 0.145 0.081 0.337 0.058 0.285-0.197-0.116-0.778-0.587-0.889-0.639-1.249 0.273 0.023 0.465 0.023 0.581-0.087 0.081-0.11 0.192-0.308 0.308-0.36 0.081-0.058 0.081-0.116-0.029-0.087-0.139 0.029-0.221 0.087-0.476 0.058-1.278-0.139-4.868-1.115-5.565-0.918z"></path>
<path fill="#000" stroke="#fff" stroke-linejoin="round" stroke-linecap="butt" stroke-miterlimit="4" stroke-width="0.64" d="M35.122 9.392c-0.213 0.152-0.391 0.337-0.53 0.55l-0.005 0.008c-0.273 0.36-1.11 0.72-2.144 0.72-0.999 0-1.609-0.163-2.056-0.523-0.179-0.145-0.381-0.276-0.596-0.386l-0.020-0.009c-0.302-0.139-0.36-0.447-0.279-0.697-0.081 0.139-0.134 0.279-0.302 0.25-0.116 0-0.337 0-0.279 0.116-0.029-0.058-0.029-0.139-0.058-0.174l-0.058-0.052c0.087 0.058 0.285-0.11 0.424-0.11 0.11 0.029 0.25-0.11 0.221-0.279l-0.081-0.36c0.221-0.116 3.143 0.418 3.729 0.471 0.581 0.029 2.254 0.279 2.033 0.476z"></path>
<path fill="#000" stroke="#fff" stroke-linejoin="round" stroke-linecap="butt" stroke-miterlimit="4" stroke-width="0.64" d="M29.83 8.334c0.279-0.279 0.61-0.418 0.947-0.337h0.081c0.174-0.139 0.558-0.168 0.784-0.058h0.11c0.331-0.11 0.97 0 1.197 0.227l0.081 0.058c0.755-0.058 1.197 0.273 1.725 0.807 0.058 0.058 0.139 0.163 0.279 0.192 0.168 0.029 0.197 0.116 0.058 0.197-0.227 0.142-0.42 0.316-0.577 0.518l-0.004 0.005c-0.256 0.337-1.063 0.674-2.068 0.674-0.97 0-1.557-0.174-2.004-0.505-0.25-0.192-0.442-0.302-0.581-0.389-0.168-0.058-0.389-0.279-0.308-0.5 0.058-0.221-0.081-0.5-0.192-0.778 0.081-0.058 0.302-0.139 0.412-0.081z"></path>
<path fill="#000" stroke="#fff" stroke-linejoin="round" stroke-linecap="butt" stroke-miterlimit="4" stroke-width="0.64" d="M34.756 9.031c-0.523-0.534-0.97-0.866-1.725-0.813 0 0.029 0 0.116-0.029 0.174 0.541 0.246 0.997 0.594 1.361 1.023l0.005 0.006c0.116-0.116 0.308-0.25 0.389-0.389z"></path>
<path fill="#000" stroke="#fff" stroke-linejoin="round" stroke-linecap="butt" stroke-miterlimit="4" stroke-width="0.64" d="M32.949 8.166c-0.227-0.221-0.866-0.337-1.197-0.221 0 0.11 0 0.279-0.058 0.389 0.198 0.081 0.36 0.279 0.529 0.471 0.116-0.029 0.389-0.11 0.529-0.139 0.076-0.142 0.144-0.308 0.193-0.482l0.004-0.018z"></path>
<path fill="#000" stroke="#fff" stroke-linejoin="round" stroke-linecap="butt" stroke-miterlimit="4" stroke-width="0.64" d="M31.642 7.939c-0.227-0.11-0.616-0.081-0.784 0.058-0.058 0.116-0.081 0.337-0.081 0.447 0.116 0 0.279 0.081 0.331 0.139 0.174-0.058 0.395-0.168 0.476-0.25 0.029-0.116 0.081-0.279 0.058-0.389z"></path>
<path fill="#000" stroke="#fff" stroke-linejoin="round" stroke-linecap="butt" stroke-miterlimit="4" stroke-width="0.64" d="M29.83 8.334c0.279-0.279 0.61-0.418 0.947-0.337-0.058 0.087-0.081 0.25-0.081 0.418-0.308-0.029-0.697 0.058-0.866 0.168z"></path>
<path fill="#000" stroke="#fff" stroke-linejoin="round" stroke-linecap="butt" stroke-miterlimit="4" stroke-width="0.64" d="M34.256 9.473c-0.346-0.408-0.772-0.738-1.255-0.966l-0.023-0.010c0 0.029-0.058 0.139-0.087 0.227 0.168 0.25 0.5 0.807 0.639 1.115 0.139-0.058 0.529-0.227 0.726-0.366z"></path>
<path fill="#000" stroke="#fff" stroke-linejoin="round" stroke-linecap="butt" stroke-miterlimit="4" stroke-width="0.64" d="M32.142 10.089c0.045-0.337 0.075-0.734 0.081-1.136l0-0.009c0.139-0.029 0.418-0.11 0.529-0.139 0.139 0.227 0.476 0.813 0.616 1.086-0.337 0.081-0.895 0.221-1.226 0.197z"></path>
<path fill="#000" stroke="#fff" stroke-linejoin="round" stroke-linecap="butt" stroke-miterlimit="4" stroke-width="0.64" d="M31.166 8.753c0.139-0.058 0.337-0.174 0.471-0.279 0.116 0.081 0.337 0.279 0.418 0.389 0 0.25-0.081 0.976-0.11 1.22-0.221 0-0.581-0.052-0.778-0.163 0.029-0.418 0.058-0.889 0-1.168z"></path>
<path fill="#000" stroke="#fff" stroke-linejoin="round" stroke-linecap="butt" stroke-miterlimit="4" stroke-width="0.64" d="M29.772 9.084c0.029-0.058 0.058-0.25 0.058-0.331 0.221-0.139 0.778-0.279 1.197-0.058 0.029 0.279 0 0.976-0.029 1.144-0.353-0.289-0.754-0.542-1.185-0.741l-0.035-0.014z"></path>
<path fill="#000" stroke="#fff" stroke-linejoin="round" stroke-linecap="butt" stroke-miterlimit="4" stroke-width="0.64" d="M28.384 8.578c-0.058 0-0.087-0.163-0.198-0.163-0.029 0-0.11 0.029-0.139 0 0 0.058 0.029 0.116 0.058 0.139 0.029 0.081 0.168 0.029 0.279 0.029z"></path>
<path fill="#000" stroke="#fff" stroke-linejoin="round" stroke-linecap="butt" stroke-miterlimit="4" stroke-width="0.64" d="M28.384 9.055c0.331 0 0.389-0.418 0.558-0.441"></path>
<path fill="#000" stroke="#fff" stroke-linejoin="round" stroke-linecap="butt" stroke-miterlimit="4" stroke-width="0.64" d="M28.575 9.084c0.25 0.116 0.447-0.471 0.639-0.447"></path>
<path fill="#000" stroke="#fff" stroke-linejoin="round" stroke-linecap="butt" stroke-miterlimit="4" stroke-width="0.64" d="M28.076 8.363c0.081 0 0.139-0.116 0.279 0.023 0.058 0.058 0.139 0.087 0.198 0.087"></path>
<path fill="#000" stroke="#fff" stroke-linejoin="round" stroke-linecap="butt" stroke-miterlimit="4" stroke-width="0.64" d="M28.494 8.776c-0.116 0.174-0.308 0.279-0.418 0.227"></path>
<path fill="#000" stroke="#fff" stroke-linejoin="round" stroke-linecap="butt" stroke-miterlimit="4" stroke-width="0.64" d="M28.018 8.085c-0.081 0.058-0.134 0.163-0.192 0.25"></path>
<path fill="#000" stroke="#fff" stroke-linejoin="round" stroke-linecap="butt" stroke-miterlimit="4" stroke-width="0.64" d="M27.744 8.497v0.139"></path>
<path fill="#000" stroke="#fff" stroke-linejoin="round" stroke-linecap="butt" stroke-miterlimit="4" stroke-width="0.64" d="M30.725 8.085c-0.587-0.447-1.284-0.866-1.923-0.947 0.709 0.476 1.327 0.961 1.907 1.488l-0.013-0.012"></path>
<path fill="#000" stroke="#fff" stroke-linejoin="round" stroke-linecap="butt" stroke-miterlimit="4" stroke-width="0.64" d="M31.056 7.666c-0.697-0.476-1.505-1.005-2.283-1.057 0.746 0.437 1.38 0.975 1.908 1.604l0.009 0.011"></path>
<path fill="#000" stroke="#fff" stroke-linejoin="round" stroke-linecap="butt" stroke-miterlimit="4" stroke-width="0.64" d="M31.944 6.888c0.329-0.737 0.791-1.361 1.36-1.866l0.006-0.005c-0.279 0.587-0.581 1.783-0.726 2.26"></path>
<path fill="#000" stroke="#fff" stroke-linejoin="round" stroke-linecap="butt" stroke-miterlimit="4" stroke-width="0.64" d="M32.56 6.748c0.276-0.659 0.775-1.178 1.4-1.474l0.017-0.007c-0.464 0.574-0.826 1.252-1.047 1.992l-0.011 0.042"></path>
<path fill="#000" stroke="#fff" stroke-linejoin="round" stroke-linecap="butt" stroke-miterlimit="4" stroke-width="0.64" d="M32.81 7.3c0.535-0.811 1.283-1.443 2.164-1.823l0.032-0.012c-0.697 0.697-1.725 1.975-1.975 2.48"></path>
<path fill="#000" stroke="#fff" stroke-linejoin="round" stroke-linecap="butt" stroke-miterlimit="4" stroke-width="0.64" d="M33.199 7.916c0.5-0.279 1.505-0.726 2.225-0.581-0.441 0.163-1.778 0.773-2.364 1.336"></path>
<path fill="#000" stroke="#fff" stroke-linejoin="round" stroke-linecap="butt" stroke-miterlimit="4" stroke-width="0.64" d="M33.089 7.719c0.471-0.5 1.336-1.249 2.254-1.557-0.668 0.639-2.091 2.091-2.283 2.312"></path>
<path fill="#000" stroke="#fff" stroke-linejoin="round" stroke-linecap="butt" stroke-miterlimit="4" stroke-width="0.64" d="M31.753 7.416c-0.337-1.034-0.837-2.004-1.586-2.312 0.571 0.807 0.995 1.761 1.211 2.791l0.009 0.049"></path>
<path fill="#000" stroke="#fff" stroke-linejoin="round" stroke-linecap="butt" stroke-miterlimit="4" stroke-width="0.64" d="M31.108 7.387c-0.552-0.668-1.307-1.336-2.167-1.476 0.838 0.554 1.495 1.319 1.904 2.221l0.013 0.033"></path>
<path fill="#000" stroke="#fff" stroke-linejoin="round" stroke-linecap="butt" stroke-miterlimit="4" stroke-width="0.64" d="M31.422 7.358c-0.697-1.255-1.232-1.476-1.534-1.725 0.25 0.471 0.86 1.725 1.22 2.254"></path>
<path fill="#000" stroke="#fff" stroke-linejoin="round" stroke-linecap="butt" stroke-miterlimit="4" stroke-width="0.64" d="M30.027 7.277c0.401 0.255 0.734 0.579 0.992 0.958l0.008 0.012"></path>
<path fill="#000" stroke="#fff" stroke-linejoin="round" stroke-linecap="butt" stroke-miterlimit="4" stroke-width="0.64" d="M30.027 7.858c0.163 0.139 0.471 0.308 0.749 0.558"></path>
<path fill="#000" stroke="#fff" stroke-linejoin="round" stroke-linecap="butt" stroke-miterlimit="4" stroke-width="0.64" d="M33.339 8.276c0.279-0.221 0.889-0.581 1.197-0.697"></path>
<path fill="#000" stroke="#fff" stroke-linejoin="round" stroke-linecap="butt" stroke-miterlimit="4" stroke-width="0.64" d="M33.141 8.085c0.279-0.366 0.837-0.866 1.034-1.034"></path>
<path fill="#000" stroke="#fff" stroke-linejoin="round" stroke-linecap="butt" stroke-miterlimit="4" stroke-width="0.64" d="M33.92 6.353c-0.353 0.394-0.699 0.821-1.024 1.266l-0.033 0.047"></path>
<path fill="#000" stroke="#fff" stroke-linejoin="round" stroke-linecap="butt" stroke-miterlimit="4" stroke-width="0.64" d="M33.199 6.104c-0.24 0.35-0.472 0.751-0.673 1.171l-0.024 0.055"></path>
<path fill="#000" stroke="#fff" stroke-linejoin="round" stroke-linecap="butt" stroke-miterlimit="4" stroke-width="0.64" d="M30.998 6.162c0.168 0.447 0.476 1.197 0.581 1.505"></path>
<path fill="#000" stroke="#fff" stroke-linejoin="round" stroke-linecap="butt" stroke-miterlimit="4" stroke-width="0.64" d="M30.748 6.632c0.116 0.174 0.337 0.558 0.418 0.837"></path>
<path fill="#000" stroke="#fff" stroke-linejoin="round" stroke-linecap="butt" stroke-miterlimit="4" stroke-width="0.64" d="M31.695 6.493c0-0.25 0.168-0.523 0.337-0.523 0.192 0 0.331 0.331 0.331 0.523 0 0.227-0.168 0.418-0.331 0.418-0.174 0-0.337-0.163-0.337-0.418z"></path>
<path fill="#000" stroke="#fff" stroke-linejoin="round" stroke-linecap="butt" stroke-miterlimit="4" stroke-width="0.64" d="M31.334 6.719c0.029-0.279 0.221-0.5 0.389-0.476 0.168 0.029 0.25 0.366 0.221 0.558-0.029 0.221-0.221 0.389-0.36 0.36-0.139 0-0.279-0.192-0.25-0.442z"></path>
<path fill="#000" stroke="#fff" stroke-linejoin="round" stroke-linecap="butt" stroke-miterlimit="4" stroke-width="0.64" d="M32.084 6.801c-0.058-0.25 0.058-0.523 0.227-0.558 0.163-0.023 0.331 0.25 0.36 0.476 0.058 0.221-0.087 0.442-0.227 0.442-0.134 0.029-0.331-0.11-0.36-0.36z"></path>
<path fill="#000" stroke="#fff" stroke-linejoin="round" stroke-linecap="butt" stroke-miterlimit="4" stroke-width="0.64" d="M31.666 7.021c0-0.273 0.168-0.523 0.337-0.523 0.192 0 0.331 0.302 0.331 0.523 0 0.227-0.163 0.418-0.331 0.418s-0.337-0.163-0.337-0.418z"></path>
<path fill="#000" stroke="#fff" stroke-linejoin="round" stroke-linecap="butt" stroke-miterlimit="4" stroke-width="0.64" d="M31.166 7.161c0-0.25 0.198-0.523 0.36-0.523 0.174 0 0.337 0.331 0.337 0.523 0 0.227-0.198 0.418-0.337 0.418-0.163 0-0.36-0.163-0.36-0.418z"></path>
<path fill="#000" stroke="#fff" stroke-linejoin="round" stroke-linecap="butt" stroke-miterlimit="4" stroke-width="0.64" d="M32.194 7.050c0-0.25 0.174-0.523 0.337-0.523 0.192 0 0.331 0.331 0.331 0.523 0 0.227-0.163 0.418-0.331 0.418s-0.337-0.168-0.337-0.418z"></path>
<path fill="#000" stroke="#fff" stroke-linejoin="round" stroke-linecap="butt" stroke-miterlimit="4" stroke-width="0.64" d="M32.084 7.277c0-0.279 0.197-0.529 0.36-0.529 0.174 0 0.337 0.302 0.337 0.523 0 0.227-0.168 0.424-0.337 0.424-0.163 0-0.36-0.174-0.36-0.418z"></path>
<path fill="#000" stroke="#fff" stroke-linejoin="round" stroke-linecap="butt" stroke-miterlimit="4" stroke-width="0.64" d="M31.642 7.527c0-0.279 0.163-0.529 0.331-0.529 0.197 0 0.337 0.331 0.337 0.523 0 0.232-0.174 0.424-0.337 0.424-0.168 0-0.337-0.174-0.337-0.418z"></path>
<path fill="#000" stroke="#fff" stroke-linejoin="round" stroke-linecap="butt" stroke-miterlimit="4" stroke-width="0.64" d="M30.945 7.527c0-0.279 0.139-0.529 0.279-0.529s0.25 0.331 0.25 0.523c0 0.232-0.139 0.424-0.25 0.424-0.139 0-0.279-0.174-0.279-0.418z"></path>
<path fill="#000" stroke="#fff" stroke-linejoin="round" stroke-linecap="butt" stroke-miterlimit="4" stroke-width="0.64" d="M32.502 7.475c0-0.256 0.139-0.505 0.279-0.505s0.279 0.308 0.279 0.5c0 0.25-0.168 0.418-0.279 0.418-0.139 0-0.279-0.168-0.279-0.418z"></path>
<path fill="#000" stroke="#fff" stroke-linejoin="round" stroke-linecap="butt" stroke-miterlimit="4" stroke-width="0.64" d="M32.671 7.939c0.058-0.273 0.221-0.5 0.331-0.465 0.116 0.023 0.139 0.354 0.087 0.552-0.029 0.25-0.197 0.389-0.308 0.36-0.116-0.023-0.168-0.221-0.116-0.441z"></path>
<path fill="#000" stroke="#fff" stroke-linejoin="round" stroke-linecap="butt" stroke-miterlimit="4" stroke-width="0.64" d="M32.142 7.858c0.029-0.25 0.192-0.5 0.331-0.471 0.168 0 0.25 0.331 0.227 0.523-0.029 0.256-0.174 0.424-0.308 0.395-0.139 0-0.279-0.197-0.25-0.447z"></path>
<path fill="#000" stroke="#fff" stroke-linejoin="round" stroke-linecap="butt" stroke-miterlimit="4" stroke-width="0.64" d="M31.364 7.939c-0.087-0.273-0.256-0.465-0.366-0.442-0.11 0.029-0.139 0.36-0.081 0.558 0.058 0.221 0.221 0.36 0.331 0.331 0.087-0.023 0.174-0.221 0.116-0.441z"></path>
<path fill="#000" stroke="#fff" stroke-linejoin="round" stroke-linecap="butt" stroke-miterlimit="4" stroke-width="0.64" d="M31.166 7.887c0-0.25 0.139-0.5 0.279-0.5 0.168 0 0.279 0.308 0.279 0.5 0 0.25-0.139 0.418-0.279 0.418-0.116 0-0.279-0.168-0.279-0.418z"></path>
<path fill="#000" stroke="#fff" stroke-linejoin="round" stroke-linecap="butt" stroke-miterlimit="4" stroke-width="0.64" d="M31.584 7.997c0-0.279 0.168-0.523 0.331-0.523 0.198 0 0.337 0.302 0.337 0.523 0 0.227-0.168 0.418-0.337 0.418-0.163 0-0.331-0.168-0.331-0.418z"></path>
<path fill="#000" stroke="#fff" stroke-linejoin="round" stroke-linecap="butt" stroke-miterlimit="4" stroke-width="0.64" d="M31.724 4.936c-0.058 0.221-0.25 0.418-0.116 0.726-0.244-0.087-0.465-0.116-0.662 0.11 0.25-0.029 0.471 0.058 0.581 0.221-0.221-0.029-0.331 0.087-0.389 0.227 0.198-0.058 0.389-0.116 0.476-0.087-0.087 0.087-0.227 0.221-0.25 0.337 0.163-0.139 0.36-0.116 0.471-0.197-0.081 0.197 0.081 0.389 0.221 0.581-0.023-0.273 0.139-0.465 0.058-0.61 0.25 0.058 0.279 0.279 0.639 0.279-0.139-0.081-0.221-0.36-0.389-0.36 0.081-0.029 0.418-0.058 0.476 0-0.058-0.116-0.256-0.221-0.366-0.221 0.116-0.116 0.308-0.337 0.447-0.395-0.197 0.029-0.5 0.058-0.61 0.227 0.273-0.227 0.221-0.639 0.523-0.697-0.163-0.029-0.412 0.081-0.61 0.279 0.087-0.168 0.087-0.389 0.197-0.447-0.227 0.058-0.476 0.337-0.558 0.476-0.013-0.166-0.063-0.319-0.142-0.452l0.003 0.005z"></path>
<path fill="#000" stroke="#fff" stroke-linejoin="round" stroke-linecap="butt" stroke-miterlimit="4" stroke-width="0.64" d="M31.863 5.383c0 0.081 0 0.25-0.029 0.302"></path>
<path fill="#000" stroke="#fff" stroke-linejoin="round" stroke-linecap="butt" stroke-miterlimit="4" stroke-width="0.64" d="M32.223 5.354c-0.058 0.058-0.168 0.25-0.168 0.418"></path>
<path fill="#000" stroke="#fff" stroke-linejoin="round" stroke-linecap="butt" stroke-miterlimit="4" stroke-width="0.64" d="M32.392 5.685c-0.095 0.057-0.165 0.146-0.197 0.252l-0.001 0.003"></path>
<path fill="#fcea83" d="M23.37 24.704c0.168 0.442 1.365 1.028 2.759 0.279 0.947-0.534 1.557-1.278 2.144-2.614 0.163-0.337 0.25-0.755-0.139-1.005-0.308-0.227-0.813-0.476-1.034-0.697-0.11-0.116-0.221-0.198-0.302-0.279 0.058 0.058 0.11 0.11 0.163 0.192 0.558 0.668-0.023 1.644-0.639 2.231-0.447 0.418-1.249 1.446-2.422 0.471-0.25-0.221-0.837 0.697-0.523 1.423z"></path>
<path fill="#fcea83" d="M40.298 24.704c-0.197 0.442-1.394 1.028-2.759 0.279-0.941-0.534-1.557-1.278-2.167-2.614-0.139-0.337-0.227-0.755 0.163-1.005 0.308-0.227 0.813-0.476 1.034-0.697 0.11-0.116 0.192-0.198 0.302-0.279-0.058 0.058-0.11 0.11-0.163 0.192-0.558 0.668 0.023 1.644 0.61 2.231 0.447 0.418 1.278 1.446 2.451 0.471 0.25-0.221 0.807 0.697 0.523 1.423z"></path>
<path fill="#fcea83" d="M31.834 27.098c2.225 0 5.652-1.005 7.494-4.514 0.302-0.581 0-0.889-0.366-1.081-0.43-0.219-0.798-0.491-1.115-0.813l-0.001-0.001c0.447 0.447 0.36 0.755 0.058 1.255-1.423 2.37-3.369 3.567-6.070 3.567s-4.647-1.197-6.070-3.567c-0.302-0.5-0.389-0.807 0.029-1.249-0.313 0.327-0.683 0.598-1.093 0.797l-0.023 0.010c-0.36 0.192-0.668 0.5-0.36 1.081 1.836 3.509 5.286 4.514 7.517 4.514z"></path>
<path fill="#c8102e" d="M26.681 22.392c-0.058-0.279-0.412-0.168-0.523 0.168-0.141-0.179-0.272-0.381-0.385-0.594l-0.010-0.022c-0.331-0.5-0.389-0.837 0.087-1.307 0.221-0.221 0.668-0.476 0.97-0.198 0.639 0.529 0.308 1.394-0.139 1.952z"></path>
<path fill="#c8102e" d="M36.958 22.392c0.058-0.279 0.447-0.168 0.558 0.168 0.139-0.198 0.279-0.389 0.389-0.616 0.331-0.5 0.389-0.837-0.116-1.307-0.192-0.221-0.639-0.476-0.97-0.198-0.616 0.529-0.308 1.394 0.139 1.952z"></path>
<path fill="#c8102e" d="M23.37 24.704c-0.279-0.418-0.5-1.51-0.558-1.783-0.081-0.25-0.11-0.476 0.198-0.581 0.308-0.116 0.581 0.273 0.72 0.61 0.139 0.331 0.366 0.831 0.616 1.446-0.616-0.36-1.115-0.116-0.976 0.308z"></path>
<path fill="#c8102e" d="M40.298 24.704c0.25-0.418 0.471-1.51 0.558-1.783 0.058-0.25 0.11-0.476-0.197-0.581-0.308-0.116-0.581 0.273-0.72 0.61-0.139 0.331-0.366 0.831-0.616 1.446 0.616-0.36 1.086-0.116 0.976 0.308z"></path>
<path fill="#00493d" d="M24.985 22.195l-0.221 0.116c-0.058 0.023-0.058 0.081-0.058 0.11h-0.029l-0.11-0.25h0.029c0 0.023 0.029 0.058 0.081 0.023l0.476-0.25c0.058-0.029 0.058-0.058 0.029-0.081l0.023-0.029 0.139 0.279h-0.023c-0.029-0.029-0.058-0.058-0.116-0.029l-0.192 0.116 0.081 0.163 0.227-0.081c0.058-0.029 0.023-0.087 0.023-0.116h0.029l0.116 0.256c-0.029-0.029-0.058-0.058-0.116-0.029l-0.471 0.25c-0.058 0.029-0.058 0.058-0.029 0.081l-0.029 0.029-0.139-0.25 0.029-0.029c0.029 0.029 0.058 0.058 0.116 0.029l0.221-0.116z"></path>
<path fill="#00493d" d="M25.462 22.561c0.058-0.029 0.058-0.058 0.023-0.116h0.029l0.279 0.418-0.192 0.139v-0.023c0.11-0.087 0.11-0.198 0.081-0.227s-0.058-0.058-0.058-0.081c-0.023 0-0.023-0.029-0.081 0.029l-0.198 0.139c0.029 0.023 0.058 0.11 0.198 0.023h0.029l-0.308 0.227v-0.029c0.139-0.116 0.081-0.198 0.058-0.221l-0.198 0.139c-0.058 0.023-0.058 0.058-0.058 0.081 0.029 0 0.029 0.029 0.058 0.058 0.029 0.058 0.116 0.11 0.25 0.058l0.029 0.023-0.221 0.081-0.279-0.442h0.029c0.023 0.023 0.058 0.058 0.11 0.023z"></path>
<path fill="#00493d" d="M25.903 23.618l-0.192 0.163c-0.029 0.029-0.029 0.087 0 0.116h-0.029l-0.198-0.198 0.029-0.029c0.029 0.029 0.058 0.058 0.116 0l0.36-0.36c0.058-0.029 0.058-0.058 0.023-0.116l0.198 0.232c-0.029-0.035-0.081-0.035-0.116 0l-0.163 0.163 0.139 0.139 0.168-0.139c0.058-0.058 0.029-0.081 0-0.116l0.029-0.023 0.192 0.221h-0.029c-0.023 0-0.058-0.023-0.11 0.029l-0.36 0.337c-0.058 0.058-0.058 0.081-0.029 0.11v0.029l-0.192-0.227c0.023 0 0.081 0.029 0.11 0l0.192-0.192z"></path>
<path fill="#00493d" d="M26.321 24.205l0.087 0.081 0.11-0.25s-0.087 0.023-0.227 0.11l0.029 0.058-0.029 0.023-0.058-0.058c-0.023 0.029-0.052 0.029-0.081 0.058-0.081 0.058-0.058 0.087-0.023 0.116v0.023l-0.139-0.139h0.023l0.116-0.029 0.552-0.302 0.029 0.023s-0.029 0.029-0.279 0.587c0 0.058-0.023 0.081 0 0.139l-0.221-0.192 0.029-0.029c0.029 0.058 0.081 0.058 0.11 0 0-0.029 0.029-0.087 0.029-0.116l-0.087-0.081 0.029-0.029z"></path>
<path fill="#00493d" d="M26.542 24.756l0.029-0.029c0.029 0.029 0.058 0.029 0.116 0l0.36-0.471-0.029-0.029c-0.058-0.029-0.139-0.029-0.221 0.058v-0.029l0.11-0.139 0.418 0.308-0.139 0.163h-0.029c0.081-0.081 0.058-0.192 0-0.221v-0.029l-0.36 0.476c-0.058 0.029-0.029 0.081 0 0.11h-0.029z"></path>
<path fill="#00493d" d="M27.268 24.867l-0.139 0.198c-0.029 0.058 0 0.081 0.029 0.116l-0.029 0.023-0.221-0.168v-0.029c0.058 0.029 0.081 0.029 0.11-0.023l0.308-0.418c0.023-0.058 0-0.087-0.029-0.116l0.029-0.023 0.221 0.163v0.029c-0.058-0.029-0.081-0.029-0.116 0.029l-0.134 0.198 0.168 0.11 0.139-0.198c0.023-0.058 0-0.081-0.029-0.11l0.029-0.029 0.221 0.168v0.029c-0.029-0.029-0.081-0.029-0.116 0.029l-0.273 0.442c-0.058 0.029-0.029 0.058 0 0.087v0.023l-0.25-0.163h0.029c0.023 0 0.058 0 0.081-0.029l0.139-0.221z"></path>
<path fill="#00493d" d="M27.826 25.651l0.029-0.029c0.029 0.029 0.081 0.029 0.11-0.029l0.221-0.471c0.029-0.058 0-0.087-0.029-0.116l0.476 0.227-0.116 0.221-0.023-0.029c0.081-0.11 0-0.221-0.029-0.25-0.029 0-0.058-0.029-0.081-0.029-0.029 0-0.029 0-0.058 0.058-0.029 0.029-0.11 0.192-0.11 0.192 0.029 0.029 0.081 0.087 0.198-0.058h0.023l-0.163 0.337-0.029-0.023c0.081-0.174-0.029-0.198-0.058-0.198l-0.11 0.221c-0.029 0.058 0 0.087 0.029 0.087v0.029z"></path>
<path fill="#00493d" d="M28.633 26.040c-0.081-0.058-0.081-0.227 0-0.389 0.058-0.174 0.168-0.308 0.279-0.256 0.081 0.029 0.058 0.198 0 0.366-0.087 0.192-0.198 0.302-0.279 0.279h-0.029c0.198 0.081 0.337-0.029 0.418-0.227 0.081-0.163 0.058-0.36-0.116-0.442-0.163-0.087-0.331 0.023-0.412 0.221s-0.058 0.389 0.116 0.447z"></path>
<path fill="#00493d" d="M29.493 26.093l0.116-0.331c0.023-0.058 0-0.087-0.029-0.116l0.139 0.029v0.029c-0.029 0-0.058 0-0.087 0.058l-0.11 0.331c-0.058 0.139-0.139 0.25-0.302 0.198-0.116-0.029-0.198-0.168-0.139-0.308l0.139-0.36c0.023-0.058 0-0.087-0.029-0.116v-0.023l0.25 0.11v0.029c-0.029-0.029-0.081-0.029-0.081 0.029l-0.145 0.354c-0.029 0.11-0.029 0.221 0.058 0.25 0.081 0.029 0.163-0.029 0.215-0.168z"></path>
<path fill="#00493d" d="M29.749 25.732c0-0.029 0-0.029-0.029-0.029l0.192 0.029 0.174 0.529 0.081-0.337c0.023-0.058 0-0.081-0.029-0.11l0.163 0.029-0.023 0.029c-0.029 0-0.058 0-0.087 0.058l-0.139 0.61h-0.023l-0.227-0.668-0.139 0.447c0 0.081 0.029 0.081 0.058 0.11v0.029l-0.168-0.058v-0.029c0.029 0.029 0.081 0 0.081-0.058l0.139-0.5z"></path>
<path fill="#00493d" d="M30.695 26.29c-0.058 0.25-0.174 0.308-0.227 0.308h-0.058s-0.023-0.029 0-0.058l0.087-0.558c0.029-0.029 0.029-0.058 0.058-0.029h0.058c0.052 0 0.105 0.116 0.081 0.337l0.081 0.029c0.058-0.279-0.058-0.395-0.198-0.418-0.11-0.029-0.279-0.058-0.279-0.058v0.029c0.029 0.029 0.087 0.029 0.058 0.116l-0.081 0.494c-0.029 0.058-0.058 0.087-0.087 0.087h-0.023l0.273 0.058c0.139 0.023 0.279 0 0.337-0.308z"></path>
<path fill="#00493d" d="M30.945 26.064c0-0.058-0.058-0.081-0.087-0.081v-0.029l0.505 0.058-0.029 0.221c0-0.139-0.087-0.192-0.139-0.192-0.029-0.029-0.058-0.029-0.087-0.029-0.023 0-0.023 0-0.023 0.081l-0.029 0.227c0.029 0 0.11 0.023 0.168-0.139l-0.029 0.36h-0.029c0-0.168-0.081-0.168-0.116-0.168l-0.023 0.25c0 0.058 0 0.058 0.029 0.058l0.058 0.029c0.081 0 0.163-0.029 0.221-0.198h0.029l-0.058 0.221-0.529-0.058c0.058 0 0.081-0.023 0.116-0.076z"></path>
<path fill="#00493d" d="M31.863 26.4c0 0.25-0.087 0.331-0.168 0.331-0.029-0.023-0.029-0.023-0.058-0.023l-0.023-0.029 0.029-0.581c0-0.035 0-0.035 0.023-0.035h0.058c0.058 0 0.139 0.087 0.139 0.337h0.11c0-0.279-0.139-0.36-0.279-0.36-0.116-0.029-0.279-0.029-0.279-0.029v0.029c0.029 0 0.087 0.023 0.087 0.081l-0.029 0.529c0 0.058-0.029 0.081-0.058 0.081v0.029h0.25c0.139 0 0.279-0.058 0.308-0.36h-0.116z"></path>
<path fill="#00493d" d="M32.671 26.621c0 0.058 0.029 0.058 0.081 0.058v0.029l-0.308 0.023c0.029-0.023 0.087-0.058 0.087-0.11l-0.058-0.523c-0.029-0.058-0.058-0.058-0.11-0.058v-0.029l0.308-0.029c-0.029 0.029-0.087 0.058-0.058 0.116z"></path>
<path fill="#00493d" d="M32.949 26.679v-0.029c0.029 0 0.058-0.029 0.058-0.081l-0.116-0.581h-0.029c-0.058 0.023-0.11 0.076-0.081 0.192h-0.029l-0.029-0.198 0.505-0.081 0.023 0.192h-0.023c0-0.11-0.087-0.139-0.174-0.139h-0.023l0.116 0.581c0 0.058 0.023 0.087 0.081 0.087v0.029z"></path>
<path fill="#00493d" d="M34.146 26.122l-0.116-0.331c0-0.058-0.052-0.058-0.081-0.058v-0.029l0.139-0.058v0.029c-0.029 0.029-0.029 0.029-0.029 0.087l0.116 0.36c0.023 0.116 0.023 0.279-0.139 0.337-0.116 0.023-0.25-0.029-0.279-0.198l-0.116-0.36c-0.023-0.058-0.052-0.058-0.081-0.058l-0.029-0.029 0.279-0.081v0.029c-0.023 0.029-0.058 0.058-0.023 0.11l0.081 0.36c0.029 0.116 0.116 0.168 0.192 0.168 0.087-0.029 0.116-0.139 0.087-0.279z"></path>
<path fill="#00493d" d="M34.454 25.924c0.134-0.058 0.11-0.134 0.081-0.221-0.029-0.081-0.081-0.139-0.139-0.11-0.029 0-0.058 0.029-0.029 0.058l0.087 0.273 0.023 0.029 0.058 0.227c0.029 0.058 0.081 0.058 0.116 0.023v0.029l-0.256 0.116-0.029-0.029c0.058-0.029 0.058-0.058 0.058-0.116l-0.197-0.471c-0.029-0.081-0.058-0.058-0.11-0.058v-0.023l0.279-0.116c0.116-0.023 0.221 0 0.279 0.116 0.029 0.139-0.029 0.221-0.139 0.279-0.029 0-0.058 0.023-0.058 0.023z"></path>
<path fill="#00493d" d="M35.145 26.005c-0.081 0.035-0.192-0.081-0.279-0.273-0.081-0.168-0.081-0.337 0-0.36 0.087-0.029 0.197 0.081 0.279 0.25 0.087 0.168 0.087 0.331 0 0.389 0.174-0.058 0.227-0.25 0.139-0.447-0.081-0.168-0.25-0.279-0.418-0.221-0.107 0.055-0.18 0.164-0.18 0.291 0 0.057 0.015 0.111 0.041 0.158l-0.001-0.002c0.087 0.192 0.256 0.302 0.418 0.221z"></path>
<path fill="#00493d" d="M35.174 25.233h-0.052l0.163-0.116 0.505 0.279-0.174-0.302c-0.023-0.058-0.081-0.058-0.105-0.058v-0.029l0.139-0.058c-0.029 0.035-0.058 0.058 0 0.116l0.279 0.558-0.029 0.029-0.616-0.337 0.227 0.418c0.023 0.058 0.081 0.058 0.11 0.029v0.029l-0.139 0.081v-0.029c0.029-0.029 0.029-0.058 0-0.11l-0.221-0.447-0.087-0.058z"></path>
<path fill="#00493d" d="M36.429 25.314v-0.029c0-0.029 0.029-0.058 0-0.11l-0.337-0.471h-0.029c-0.058 0.023-0.081 0.139 0 0.221l-0.023 0.029-0.116-0.198 0.418-0.279 0.116 0.174c-0.087-0.087-0.174-0.087-0.227-0.058l-0.029 0.023 0.337 0.476c0.029 0.058 0.081 0.058 0.116 0.029v0.023z"></path>
<path fill="#00493d" d="M36.737 24.646l0.163 0.198c0.029 0.023 0.087 0.023 0.116 0v0.023l-0.227 0.198v-0.029c0.029-0.029 0.029-0.058 0-0.11l-0.331-0.418c-0.029-0.058-0.058-0.029-0.116-0.029l0.227-0.192v0.029c0 0.023-0.029 0.058 0 0.11l0.139 0.163 0.163-0.11-0.134-0.192c-0.029-0.058-0.087-0.029-0.116-0.029l0.227-0.198v0.029c-0.029 0.029-0.029 0.058 0 0.116l0.331 0.412c0.029 0.029 0.058 0.029 0.087 0l0.023 0.029-0.221 0.198-0.029-0.029c0.029-0.029 0.058-0.058 0.029-0.116l-0.168-0.192z"></path>
<path fill="#00493d" d="M36.987 24.059c-0.029-0.023-0.087-0.023-0.116 0v-0.023l0.366-0.337 0.168 0.168h-0.029c-0.087-0.116-0.197-0.058-0.25-0.029 0 0.029-0.029 0.029-0.058 0.058 0 0 0 0.023 0.029 0.081l0.168 0.168c0.023-0.029 0.11-0.087 0-0.227h0.023l0.227 0.256v0.023c-0.139-0.139-0.197-0.058-0.227-0.023l0.174 0.163c0.023 0.058 0.052 0.058 0.052 0.058l0.081-0.081c0.029-0.029 0.058-0.116 0-0.279h0.029l0.11 0.192-0.36 0.36-0.029-0.023c0.029-0.029 0.058-0.058 0-0.116z"></path>
<path fill="#00493d" d="M37.655 23.281c-0.029 0.029-0.029 0.087 0.023 0.116 0.058 0.052 0.116 0.052 0.227 0 0.058-0.029 0.163-0.058 0.25 0.023 0.139 0.139 0.081 0.25 0.058 0.308-0.029 0.029-0.087 0.058-0.116 0.081-0.029 0-0.029 0-0.029 0.029v0.029l-0.192-0.168h0.029c0.11 0.058 0.221 0.081 0.279 0 0.058-0.058 0-0.116-0.029-0.139-0.058-0.058-0.116-0.058-0.197 0-0.081 0.029-0.192 0.029-0.279-0.029-0.11-0.11-0.11-0.192-0.058-0.279l0.116-0.081c0.029 0 0.029 0 0-0.058l0.197 0.139h-0.029c-0.139-0.058-0.227-0.023-0.25 0.029z"></path>
<path fill="#00493d" d="M37.905 23.060c-0.058-0.029-0.087 0-0.116 0.029h-0.023l0.308-0.447 0.192 0.139-0.029 0.029c-0.033-0.029-0.077-0.046-0.125-0.046s-0.092 0.017-0.125 0.046l0-0c0 0.029-0.029 0.058-0.029 0.081-0.023 0-0.023 0.029 0.029 0.058 0.029 0.029 0.197 0.139 0.197 0.139 0.029-0.029 0.081-0.087-0.029-0.198v-0.029l0.279 0.227c-0.168-0.087-0.197 0-0.221 0.023l0.192 0.139c0.058 0.029 0.081 0.029 0.081 0.029 0-0.029 0.029-0.058 0.058-0.081 0.029-0.058 0.058-0.139-0.058-0.25l0.029-0.029 0.139 0.168-0.279 0.418h-0.029c0.029-0.058 0.029-0.087-0.023-0.139z"></path>
<path fill="#00493d" d="M38.654 22.561l-0.081 0.139c-0.116-0.116-0.168-0.198-0.168-0.198l0.25 0.058h0.058c0.029 0 0.081 0.023 0.11 0.023 0.081 0.029 0.058 0.058 0.029 0.116h0.029l0.139-0.256c-0.058 0.058-0.087 0.029-0.139 0.029-0.587-0.11-0.639-0.139-0.639-0.139v0.029l0.441 0.5c0.029 0.029 0.029 0.087 0.029 0.116h0.029l0.081-0.139-0.029-0.029c-0.029 0.058-0.058 0.081-0.11 0l-0.058-0.058 0.087-0.192z"></path>
<path fill="#00493d" d="M38.485 21.945c-0.023 0.029-0.023 0.087 0.058 0.116 0.081 0.023 0.116 0 0.197-0.058s0.163-0.116 0.273-0.058c0.174 0.087 0.139 0.227 0.116 0.279l-0.087 0.116v0.052l-0.221-0.116c0.139 0.029 0.25 0 0.279-0.081 0.029-0.058-0.029-0.11-0.058-0.139-0.058-0.023-0.11 0-0.192 0.058-0.087 0.081-0.174 0.116-0.279 0.058-0.116-0.058-0.168-0.139-0.116-0.227 0-0.058 0.058-0.081 0.087-0.11 0-0.029 0-0.029-0.029-0.058v-0.023l0.227 0.11h-0.029c-0.139-0.029-0.227 0.029-0.227 0.081z"></path>
<path fill="#fff" d="M29.691 12.093c-0.36 0.081-0.61 0.11-0.947-0.197-0.221-0.221-0.168-0.61 0.058-0.755 0.25-0.163 0.471-0.273 0.778-0.192 0.308 0.087 1.115 0.836 0.918 0.866-0.198 0-0.5 0.192-0.807 0.279z"></path>
<path fill="#fff" d="M30.55 10.757c0.116-0.087 0.256-0.139 0.616-0.174 0.337-0.023 0.581-0.023 0.668 0.232 0.116 0.302 0.198 0.662 0.418 0.831-0.139 0.081-0.837 0.168-1.086 0.029-0.331-0.168-0.418-0.813-0.61-0.918z"></path>
<path fill="#fff" d="M32.949 10.786c0.11-0.087 0.25-0.087 0.61-0.058s0.5 0.058 0.581 0.308c0.087 0.279 0 0.639 0.174 0.889-0.174 0.058-0.726 0.058-0.924-0.139-0.302-0.221-0.279-0.866-0.441-1.005z"></path>
<path fill="#073163" d="M34.617 10.948c-0.25-0.058-0.418-0.081-0.523 0 0.134 0.168 0.023 0.836 0.302 1.057 0.192 0.139 0.697 0.174 0.807-0.139 0.139-0.279 0.139-0.697-0.581-0.918z"></path>
<path fill="#073163" d="M31.753 10.67c0.081-0.081 0.25-0.11 0.581-0.11 0.366 0 0.581 0.058 0.697 0.279 0.116 0.279 0.081 0.639 0.279 0.866-0.081 0.11-0.837 0.11-1.057-0.058-0.308-0.197-0.337-0.836-0.5-0.976z"></path>
<path fill="#073163" d="M29.388 10.919c0-0.139 0.192-0.163 0.697-0.192 0.494-0.058 0.523-0.029 0.691 0.331 0.081 0.197 0.192 0.529 0.418 0.639-0.616 0.145-0.813 0.227-1.144 0.029-0.242-0.153-0.439-0.359-0.577-0.602l-0.004-0.008c-0.029-0.081-0.029-0.168-0.087-0.197z"></path>
<path fill="#f9d050" d="M30.725 8.085c-0.587-0.447-1.284-0.866-1.923-0.947 0.709 0.476 1.327 0.961 1.907 1.488l-0.013-0.012"></path>
<path fill="#f9d050" d="M31.056 7.666c-0.697-0.476-1.505-1.005-2.283-1.057 0.746 0.437 1.38 0.975 1.908 1.604l0.009 0.011"></path>
<path fill="#f9d050" d="M31.944 6.888c0.329-0.737 0.791-1.361 1.36-1.866l0.006-0.005c-0.279 0.587-0.581 1.783-0.726 2.26"></path>
<path fill="#f9d050" d="M32.56 6.748c0.276-0.659 0.775-1.178 1.4-1.474l0.017-0.007c-0.464 0.574-0.826 1.252-1.047 1.992l-0.011 0.042"></path>
<path fill="#f9d050" d="M32.81 7.3c0.535-0.811 1.283-1.443 2.164-1.823l0.032-0.012c-0.697 0.697-1.725 1.975-1.975 2.48"></path>
<path fill="#f9d050" d="M33.199 7.916c0.5-0.279 1.505-0.726 2.225-0.581-0.441 0.163-1.778 0.773-2.364 1.336"></path>
<path fill="#f9d050" d="M33.089 7.719c0.471-0.5 1.336-1.249 2.254-1.557-0.668 0.639-2.091 2.091-2.283 2.312"></path>
<path fill="#f9d050" d="M31.753 7.416c-0.337-1.034-0.837-2.004-1.586-2.312 0.571 0.807 0.995 1.761 1.211 2.791l0.009 0.049"></path>
<path fill="#f9d050" d="M31.108 7.387c-0.552-0.668-1.307-1.336-2.167-1.476 0.838 0.554 1.495 1.319 1.904 2.221l0.013 0.033"></path>
<path fill="#f9d050" d="M31.422 7.358c-0.697-1.255-1.232-1.476-1.534-1.725 0.25 0.471 0.86 1.725 1.22 2.254"></path>
<path fill="#f9d050" d="M30.027 7.858c0.163 0.139 0.471 0.308 0.749 0.558"></path>
<path fill="#f9d050" d="M33.339 8.276c0.279-0.221 0.889-0.581 1.197-0.697"></path>
<path fill="#f9d050" d="M33.141 8.085c0.279-0.366 0.837-0.866 1.034-1.034"></path>
<path fill="#f9d050" d="M33.92 6.353c-0.353 0.394-0.699 0.821-1.024 1.266l-0.033 0.047"></path>
<path fill="#f9d050" d="M33.199 6.104c-0.24 0.35-0.472 0.751-0.673 1.171l-0.024 0.055"></path>
<path fill="#f9d050" d="M30.998 6.162c0.168 0.447 0.476 1.197 0.581 1.505"></path>
<path fill="#f9d050" d="M30.748 6.632c0.116 0.174 0.337 0.558 0.418 0.837"></path>
<path fill="#f9d050" d="M31.695 6.493c0-0.25 0.168-0.523 0.337-0.523 0.192 0 0.331 0.331 0.331 0.523 0 0.227-0.168 0.418-0.331 0.418-0.174 0-0.337-0.163-0.337-0.418z"></path>
<path fill="#f9d050" d="M31.334 6.719c0.029-0.279 0.221-0.5 0.389-0.476 0.168 0.029 0.25 0.366 0.221 0.558-0.029 0.221-0.221 0.389-0.36 0.36-0.139 0-0.279-0.192-0.25-0.442z"></path>
<path fill="#f9d050" d="M32.084 6.801c-0.058-0.25 0.058-0.523 0.227-0.558 0.163-0.023 0.331 0.25 0.36 0.476 0.058 0.221-0.087 0.442-0.227 0.442-0.134 0.029-0.331-0.11-0.36-0.36z"></path>
<path fill="#f9d050" d="M31.666 7.021c0-0.273 0.168-0.523 0.337-0.523 0.192 0 0.331 0.302 0.331 0.523 0 0.227-0.163 0.418-0.331 0.418s-0.337-0.163-0.337-0.418z"></path>
<path fill="#f9d050" d="M31.166 7.161c0-0.25 0.198-0.523 0.36-0.523 0.174 0 0.337 0.331 0.337 0.523 0 0.227-0.198 0.418-0.337 0.418-0.163 0-0.36-0.163-0.36-0.418z"></path>
<path fill="#f9d050" d="M32.194 7.050c0-0.25 0.174-0.523 0.337-0.523 0.192 0 0.331 0.331 0.331 0.523 0 0.227-0.163 0.418-0.331 0.418s-0.337-0.168-0.337-0.418z"></path>
<path fill="#f9d050" d="M32.084 7.277c0-0.279 0.197-0.529 0.36-0.529 0.174 0 0.337 0.302 0.337 0.523 0 0.227-0.168 0.424-0.337 0.424-0.163 0-0.36-0.174-0.36-0.418z"></path>
<path fill="#f9d050" d="M31.642 7.527c0-0.279 0.163-0.529 0.331-0.529 0.197 0 0.337 0.331 0.337 0.523 0 0.232-0.174 0.424-0.337 0.424-0.168 0-0.337-0.174-0.337-0.418z"></path>
<path fill="#f9d050" d="M30.945 7.527c0-0.279 0.139-0.529 0.279-0.529s0.25 0.331 0.25 0.523c0 0.232-0.139 0.424-0.25 0.424-0.139 0-0.279-0.174-0.279-0.418z"></path>
<path fill="#f9d050" d="M32.502 7.475c0-0.256 0.139-0.505 0.279-0.505s0.279 0.308 0.279 0.5c0 0.25-0.168 0.418-0.279 0.418-0.139 0-0.279-0.168-0.279-0.418z"></path>
<path fill="#f9d050" d="M32.671 7.939c0.058-0.273 0.221-0.5 0.331-0.465 0.116 0.023 0.139 0.354 0.087 0.552-0.029 0.25-0.197 0.389-0.308 0.36-0.116-0.023-0.168-0.221-0.116-0.441z"></path>
<path fill="#f9d050" d="M32.142 7.858c0.029-0.25 0.192-0.5 0.331-0.471 0.168 0 0.25 0.331 0.227 0.523-0.029 0.256-0.174 0.424-0.308 0.395-0.139 0-0.279-0.197-0.25-0.447z"></path>
<path fill="#f9d050" d="M31.364 7.939c-0.087-0.273-0.256-0.465-0.366-0.442-0.11 0.029-0.139 0.36-0.081 0.558 0.058 0.221 0.221 0.36 0.331 0.331 0.087-0.023 0.174-0.221 0.116-0.441z"></path>
<path fill="#f9d050" d="M31.166 7.887c0-0.25 0.139-0.5 0.279-0.5 0.168 0 0.279 0.308 0.279 0.5 0 0.25-0.139 0.418-0.279 0.418-0.116 0-0.279-0.168-0.279-0.418z"></path>
<path fill="#f9d050" d="M31.584 7.997c0-0.279 0.168-0.523 0.331-0.523 0.198 0 0.337 0.302 0.337 0.523 0 0.227-0.168 0.418-0.337 0.418-0.163 0-0.331-0.168-0.331-0.418z"></path>
<path fill="#f9d050" d="M31.724 4.936c-0.058 0.221-0.25 0.418-0.116 0.726-0.244-0.087-0.465-0.116-0.662 0.11 0.25-0.029 0.471 0.058 0.581 0.221-0.221-0.029-0.331 0.087-0.389 0.227 0.198-0.058 0.389-0.116 0.476-0.087-0.087 0.087-0.227 0.221-0.25 0.337 0.163-0.139 0.36-0.116 0.471-0.197-0.081 0.197 0.081 0.389 0.221 0.581-0.023-0.273 0.139-0.465 0.058-0.61 0.25 0.058 0.279 0.279 0.639 0.279-0.139-0.081-0.221-0.36-0.389-0.36 0.081-0.029 0.418-0.058 0.476 0-0.058-0.116-0.256-0.221-0.366-0.221 0.116-0.116 0.308-0.337 0.447-0.395-0.197 0.029-0.5 0.058-0.61 0.227 0.273-0.227 0.221-0.639 0.523-0.697-0.163-0.029-0.412 0.081-0.61 0.279 0.087-0.168 0.087-0.389 0.197-0.447-0.227 0.058-0.476 0.337-0.558 0.476-0.013-0.166-0.063-0.319-0.142-0.452l0.003 0.005z"></path>
<path fill="#f9d050" d="M31.863 5.383c0 0.081 0 0.25-0.029 0.302"></path>
<path fill="#f9d050" d="M32.223 5.354c-0.058 0.058-0.168 0.25-0.168 0.418"></path>
<path fill="#059334" d="M29.441 8.445c-0.198 0-0.36-0.081-0.476-0.221-0.192-0.256-0.72-0.366-0.947-0.139-0.081 0.058-0.192 0.058-0.273 0.081-0.139 0-0.308 0.139-0.256 0.418 0.116-0.087 0.139 0 0.227 0 0.058-0.029 0.029 0.029 0.029 0.081 0 0.139 0.302 0.418 0.581 0.389 0.308 0 0.447 0.116 0.5 0.174 0.087 0.076 0.029 0.052 0.087 0.192 0.081 0.081 0.11 0.11-0.029 0.221-0.124 0.104-0.203 0.259-0.203 0.433s0.078 0.329 0.202 0.432l0.001 0.001c0.36 0.273 1.278 0.697 2.312-0.116 0.999-0.778 2.556-0.331 2.672-0.058 0.139 0.285 0.192 0.447 0.221 0.587 0.029 0.116 0.168 0.227 0.366 0.197 0.192 0 0.412 0.081 0.523 0.168 0.145 0.081 0.337 0.058 0.285-0.197-0.116-0.778-0.587-0.889-0.639-1.249 0.273 0.023 0.465 0.023 0.581-0.087 0.081-0.11 0.192-0.308 0.308-0.36 0.081-0.058 0.081-0.116-0.029-0.087-0.139 0.029-0.221 0.087-0.476 0.058-1.278-0.139-4.868-1.115-5.565-0.918z"></path>
<path fill="#000" d="M35.122 9.392c-0.213 0.152-0.391 0.337-0.53 0.55l-0.005 0.008c-0.273 0.36-1.11 0.72-2.144 0.72-0.999 0-1.609-0.163-2.056-0.523-0.179-0.145-0.381-0.276-0.596-0.386l-0.020-0.009c-0.302-0.139-0.36-0.447-0.279-0.697-0.081 0.139-0.134 0.279-0.302 0.25-0.116 0-0.337 0-0.279 0.116-0.029-0.058-0.029-0.139-0.058-0.174l-0.058-0.052c0.087 0.058 0.285-0.11 0.424-0.11 0.11 0.029 0.25-0.11 0.221-0.279l-0.081-0.36c0.221-0.116 3.143 0.418 3.729 0.471 0.581 0.029 2.254 0.279 2.033 0.476z"></path>
<path fill="#059334" d="M29.83 8.334c0.279-0.279 0.61-0.418 0.947-0.337h0.081c0.174-0.139 0.558-0.168 0.784-0.058h0.11c0.331-0.11 0.97 0 1.197 0.227l0.081 0.058c0.755-0.058 1.197 0.273 1.725 0.807 0.058 0.058 0.139 0.163 0.279 0.192 0.168 0.029 0.197 0.116 0.058 0.197-0.227 0.142-0.42 0.316-0.577 0.518l-0.004 0.005c-0.256 0.337-1.063 0.674-2.068 0.674-0.97 0-1.557-0.174-2.004-0.505-0.25-0.192-0.442-0.302-0.581-0.389-0.168-0.058-0.389-0.279-0.308-0.5 0.058-0.221-0.081-0.5-0.192-0.778 0.081-0.058 0.302-0.139 0.412-0.081z"></path>
<path fill="#00493d" d="M34.756 9.031c-0.523-0.534-0.97-0.866-1.725-0.813 0 0.029 0 0.116-0.029 0.174 0.541 0.246 0.997 0.594 1.361 1.023l0.005 0.006c0.116-0.116 0.308-0.25 0.389-0.389z"></path>
<path fill="#00493d" d="M32.949 8.166c-0.227-0.221-0.866-0.337-1.197-0.221 0 0.11 0 0.279-0.058 0.389 0.198 0.081 0.36 0.279 0.529 0.471 0.116-0.029 0.389-0.11 0.529-0.139 0.076-0.142 0.144-0.308 0.193-0.482l0.004-0.018z"></path>
<path fill="#00493d" d="M31.642 7.939c-0.227-0.11-0.616-0.081-0.784 0.058-0.058 0.116-0.081 0.337-0.081 0.447 0.116 0 0.279 0.081 0.331 0.139 0.174-0.058 0.395-0.168 0.476-0.25 0.029-0.116 0.081-0.279 0.058-0.389z"></path>
<path fill="#00493d" d="M29.83 8.334c0.279-0.279 0.61-0.418 0.947-0.337-0.058 0.087-0.081 0.25-0.081 0.418-0.308-0.029-0.697 0.058-0.866 0.168z"></path>
<path fill="#00493d" d="M34.256 9.473c-0.346-0.408-0.772-0.738-1.255-0.966l-0.023-0.010c0 0.029-0.058 0.139-0.087 0.227 0.168 0.25 0.5 0.807 0.639 1.115 0.139-0.058 0.529-0.227 0.726-0.366z"></path>
<path fill="#00493d" d="M32.142 10.089c0.045-0.337 0.075-0.734 0.081-1.136l0-0.009c0.139-0.029 0.418-0.11 0.529-0.139 0.139 0.227 0.476 0.813 0.616 1.086-0.337 0.081-0.895 0.221-1.226 0.197z"></path>
<path fill="#00493d" d="M31.166 8.753c0.139-0.058 0.337-0.174 0.471-0.279 0.116 0.081 0.337 0.279 0.418 0.389 0 0.25-0.081 0.976-0.11 1.22-0.221 0-0.581-0.052-0.778-0.163 0.029-0.418 0.058-0.889 0-1.168z"></path>
<path fill="#00493d" d="M29.772 9.084c0.029-0.058 0.058-0.25 0.058-0.331 0.221-0.139 0.778-0.279 1.197-0.058 0.029 0.279 0 0.976-0.029 1.144-0.353-0.289-0.754-0.542-1.185-0.741l-0.035-0.014z"></path>
<path fill="#000" d="M28.384 8.578c-0.058 0-0.087-0.163-0.198-0.163-0.029 0-0.11 0.029-0.139 0 0 0.058 0.029 0.116 0.058 0.139 0.029 0.081 0.168 0.029 0.279 0.029z"></path>
<path fill="#fff" d="M37.039 12.122v5.426c0 4.705-2.225 6.32-5.205 7.598-2.98-1.278-5.228-2.893-5.228-7.598v-5.431h10.433z"></path>
<path fill="#c8102e" d="M31.834 16.711c0.25 0 0.639-0.221 0.976-0.558 0.36-0.389 0.976-0.523 1.615 0 0.639 0.529 1.028 0.308 1.365 0 0.331-0.302 0.61-0.418 1.249-0.418v-3.613h-10.439v3.619c0.639 0 0.918 0.116 1.255 0.418 0.331 0.308 0.72 0.529 1.365 0 0.668-0.523 1.249-0.389 1.638 0 0.308 0.337 0.697 0.558 0.976 0.558z"></path>
<path fill="#0b50a0" d="M31.834 19.499c0.337 0 1.005-0.366 1.168-0.447 0.616-0.366 1.057-0.029 1.423 0.139 0.389 0.163 1.11 0.36 1.557 0 0.447-0.366 0.697-0.337 1.005-0.337 0.058-0.418 0.058-0.837 0.058-1.307v-0.337c-0.395-0.081-0.587 0.029-1.005 0.395-0.418 0.36-0.895 0.279-1.51 0.058-0.581-0.256-1.162-0.697-1.749 0-0.237 0.264-0.569 0.437-0.942 0.464l-0.005 0c-0.418 0-0.778-0.273-0.947-0.465-0.61-0.697-1.168-0.256-1.754 0-0.61 0.221-1.115 0.302-1.528-0.058-0.389-0.366-0.587-0.476-1.005-0.395v0.337c0 0.471 0.029 0.889 0.081 1.307 0.308 0 0.534-0.029 0.976 0.337 0.447 0.36 1.197 0.163 1.563 0 0.389-0.168 0.831-0.505 1.446-0.139 0.168 0.081 0.807 0.442 1.168 0.442z"></path>
<path fill="#0b50a0" d="M31.834 20.696c0.508-0.028 0.975-0.18 1.378-0.426l-0.013 0.007c0.558-0.308 0.947-0.174 1.505 0.11 0.581 0.279 1.057 0.192 1.394 0 0.163-0.116 0.302-0.337 0.662-0.25-0.163 0.697-0.418 1.307-0.72 1.807-0.177 0.061-0.382 0.096-0.594 0.096-0.313 0-0.609-0.076-0.869-0.211l0.011 0.005c-0.581-0.279-1.307-0.447-1.696-0.198-0.299 0.197-0.662 0.321-1.053 0.337l-0.004 0c-0.308 0-0.697-0.116-1.057-0.337-0.389-0.25-1.115-0.081-1.696 0.198-0.251 0.132-0.549 0.21-0.865 0.21-0.21 0-0.412-0.034-0.601-0.098l0.013 0.004c-0.302-0.505-0.552-1.121-0.72-1.812 0.36-0.087 0.5 0.139 0.668 0.25 0.196 0.113 0.432 0.179 0.683 0.179s0.486-0.067 0.689-0.183l-0.007 0.004c0.581-0.279 0.97-0.418 1.528-0.116 0.39 0.24 0.857 0.394 1.357 0.424l0.008 0z"></path>
<path fill="#0b50a0" d="M31.834 25.146c1.141-0.448 2.126-1.030 3.001-1.741l-0.020 0.016c-0.227-0.081-0.36-0.029-0.558-0.168s-0.778-0.192-1.278 0.087c-0.327 0.194-0.721 0.309-1.141 0.309s-0.814-0.115-1.152-0.314l0.011 0.006c-0.505-0.279-1.086-0.227-1.278-0.087-0.198 0.139-0.337 0.087-0.563 0.174 0.852 0.7 1.838 1.28 2.907 1.695l0.073 0.025z"></path>
<path fill="#f9d050" d="M31.108 13.481c0.029 0.058-0.023 0.197 0 0.25 0.058 0.116 0.058 0.174 0.139 0.227h0.198c0.61 0 1.336-0.25 1.946-0.25 0.587 0 0.947 0.192 1.278 0.192 0.197 0 0.366-0.139 0.366-0.279s-0.221-0.221-0.697-0.221c-0.668 0-1.028 0.168-1.586 0.168-0.837 0-0.976-0.308-0.976-0.447s0.139-0.331 0.587-0.331c0.139 0 0.25-0.029 0.308-0.087 0.029-0.058 0.11-0.168 0.279-0.25 0.192-0.116 0.581 0 0.778-0.139 0 0.116-0.168 0.279-0.308 0.337 0.279-0.087 0.581-0.087 0.639 0.139-0.139-0.087-0.36-0.029-0.441 0-0.116 0.023-0.168 0.058-0.279 0.081 0.11-0.029 0.168 0.192 0.331 0.192-0.163 0.139-0.441 0.139-0.72 0.029-0.087-0.029-0.308-0.11-0.447-0.11-0.279 0-0.447 0.058-0.447 0.168 0 0.139 0.174 0.221 0.668 0.221 0.505 0 0.784-0.139 1.534-0.139-0.058-0.081 0.029-0.168-0.081-0.25 0.279 0 0.581 0.081 0.697 0.279-0.029-0.197 0.134-0.36 0.081-0.529 0.168 0.029 0.308 0.192 0.331 0.331 0-0.081 0.116-0.081 0.116-0.163 0.135 0.074 0.225 0.216 0.225 0.378 0 0.022-0.002 0.044-0.005 0.066l0-0.002c0.081-0.139 0.168-0.081 0.221-0.25 0.058 0.116 0.029 0.447-0.168 0.558 0.174-0.116 0.418-0.116 0.587 0.081-0.168-0.023-0.25 0.058-0.331 0.087-0.341 0.178-0.745 0.283-1.174 0.283-0.049 0-0.097-0.001-0.146-0.004l0.007 0c-0.441-0.029-0.5-0.116-0.778-0.116 0.168 0.029 0.5 0.366 0.813 0.366 0.192 0 0.331 0 0.412-0.029s0.221 0 0.331 0.058c0.087 0.081 0.256 0.163 0.366 0.139-0.029 0.11-0.087 0.163-0.168 0.192 0.139 0.087 0.058 0.139 0.197 0.25-0.058 0-0.116 0.058-0.197 0.029 0.081 0.081 0.081 0.197 0.168 0.25-0.029 0-0.116 0.029-0.168 0 0.081 0.116 0 0.25 0.081 0.308 0.087 0.116-0.081 0.25-0.221 0.139 0.029 0.081-0.058 0.168-0.139 0.139s-0.139-0.116-0.116-0.139c0-0.029 0-0.029 0.035-0.058-0.058 0.087-0.168 0.087-0.227 0.058-0.023-0.029-0.058-0.058-0.058-0.081-0.192 0.058-0.273-0.116-0.244-0.197 0.023-0.081 0.192-0.116 0.25-0.081 0.058 0.023 0.11 0.058 0.168 0 0.058-0.029 0.081-0.087 0.081-0.139 0-0.087-0.081-0.337-0.447-0.308-0.418 0.029-1.086-0.081-1.417-0.197-0.029-0.023-0.058-0.023-0.087-0.058 0 0.116-0.11 0.174-0.11 0.285 0 0.139 0.058 0.25 0.227 0.302-0.087 0.139-0.227 0.116-0.279 0.029 0 0.087-0.116 0.139-0.116 0.25-0.023-0.058-0.058-0.081-0.081-0.139-0.081 0.197-0.308 0.308-0.418 0.256-0.139 0.11-0.302 0.081-0.36-0.029-0.081 0.058-0.198 0.058-0.25 0 0 0.081-0.058 0.058-0.087 0.168 0 0.058-0.11 0.081-0.163 0.058-0.058-0.035-0.087-0.145-0.029-0.197-0.081 0.058-0.168 0.058-0.221 0 0-0.058 0-0.139 0.058-0.174h0.052c-0.058-0.023-0.139 0-0.198-0.023-0.058-0.058-0.058-0.116-0.029-0.168 0.029-0.029 0.116-0.081 0.174-0.029l0.023 0.029c0-0.058 0.029-0.11 0.058-0.11 0.058-0.029 0.134-0.029 0.221 0.058 0.058 0.081 0.11 0.081 0.279 0.058 0.139 0 0.36-0.145 0.523-0.285-0.465-0.081-0.192-0.389-0.052-0.5-0.11-0.029-0.279-0.029-0.389 0.029-0.581 0.308-1.197 0.668-1.586 0.558 0.006 0.061 0.027 0.117 0.059 0.164l-0.001-0.001c-0.087 0-0.256 0-0.308-0.081-0.029 0.058-0.081 0.197-0.029 0.308-0.058-0.058-0.221-0.116-0.308-0.139 0.058 0.058 0 0.168 0.029 0.25-0.081-0.081-0.221-0.139-0.279-0.081s-0.168 0.081-0.25 0.058c-0.054 0.075-0.13 0.132-0.218 0.162l-0.003 0.001c0-0.058 0-0.139-0.029-0.168-0.029 0.087-0.116 0.197-0.221 0.25 0-0.058 0-0.139-0.029-0.192 0 0.11-0.221 0.168-0.25 0.25 0.029-0.081 0.029-0.168 0.029-0.221-0.062 0.098-0.161 0.168-0.276 0.191l-0.003 0c0.023-0.058 0.058-0.116 0.023-0.168-0.023 0.116-0.192 0.174-0.331 0.139 0 0.058-0.116 0.139-0.25 0.058-0.087-0.029-0.139-0.116-0.087-0.168-0.11 0-0.221-0.11-0.163-0.192 0-0.029 0.023-0.058 0.023-0.087-0.081-0.058-0.11-0.168-0.023-0.25 0.023-0.029 0.11-0.029 0.163-0.029 0-0.221 0.198-0.221 0.279-0.058 0.058 0.087 0.227 0.227 0.366 0.197 0.058 0 0.081-0.029 0.139-0.029 0.266-0.089 0.497-0.212 0.704-0.365l-0.007 0.005c0.023-0.081 0.023-0.139 0.023-0.192-0.11 0.058-0.221 0.11-0.279 0.192v-0.081c-0.081 0-0.221-0.029-0.279-0.029 0.029-0.029 0.058-0.168 0.116-0.197-0.139 0.029-0.279 0-0.395-0.023 0.058-0.058 0.058-0.139 0.087-0.227-0.058 0.029-0.198-0.023-0.308 0 0.029-0.081 0.058-0.192 0.139-0.221-0.116 0.029-0.25 0-0.389-0.058 0.116 0 0.168-0.139 0.25-0.139-0.221 0-0.279-0.11-0.389-0.163 0.081 0.023 0.139-0.058 0.221-0.058-0.081-0.029-0.221-0.168-0.163-0.25-0.029 0.029-0.058 0.081-0.116 0.116-0.058 0.023-0.163 0-0.25-0.087-0.058-0.116-0.029-0.25 0.087-0.279-0.070-0.005-0.125-0.063-0.125-0.133 0-0.036 0.014-0.069 0.038-0.093l-0 0c0.029-0.058 0.139-0.134 0.198-0.058l0.081 0.116c-0.029-0.058-0.029-0.168-0.029-0.25 0.029-0.081 0.087-0.081 0.174-0.116 0.076 0 0.134 0.087 0.134 0.174 0 0.081 0.029 0.134 0.058 0.25l0.023-0.116c0-0.11 0.139-0.081 0.227-0.058 0.081 0.035 0.11 0.197 0 0.285-0.058 0.058-0.029 0.139 0.029 0.192 0.192 0.308 0.523 0.558 0.807 0.587 0-0.116 0.058-0.221 0.139-0.308 0-0.058 0.023-0.139 0.058-0.192 0.023-0.168 0.105-0.25 0.215-0.197-0.023-0.029-0.058-0.058-0.058-0.081-0.081-0.087-0.163-0.227-0.105-0.337s0.221-0.081 0.279-0.023c-0.029-0.174 0.163-0.308 0.163-0.395 0.029 0.087 0.087 0.197 0.058 0.279 0.029-0.11 0.221-0.25 0.36-0.302-0.058 0.081 0.116 0.221 0.087 0.302 0.058-0.139 0.279-0.221 0.442-0.221-0.058 0.058-0.058 0.168-0.058 0.221 0.087 0 0.232-0.023 0.285-0.11 0 0.116-0.058 0.227-0.116 0.279 0.029-0.029 0.139-0.029 0.227-0.029-0.087 0.087-0.058 0.174-0.139 0.227 0.11-0.058 0.25-0.058 0.279 0.058 0.058 0.081-0.029 0.221-0.087 0.302-0.058 0.029-0.11 0.081-0.139 0.081z"></path>
<path fill="#000" d="M32.891 14.538c-0.081 0.058-0.168 0-0.25 0.087-0.058 0.058 0.029 0.081 0.081 0.081-0.023 0.087-0.023 0.116 0.116 0.116-0.058 0.081 0.11 0.11 0.081 0.221 0.046-0.048 0.075-0.113 0.075-0.186 0-0.034-0.006-0.066-0.017-0.095l0.001 0.002c-0.029-0.087-0.174-0.139-0.087-0.227z"></path>
<path fill="#073163" d="M30.359 13.65c-0.116-0.058-0.139-0.139-0.116-0.221-0.023 0.058-0.076 0.081-0.134 0.081-0.116 0.25-0.25 0.476-0.418 0.476-0.198 0.023-0.168 0.221-0.029 0.221 0.308 0.058 0.447-0.058 0.697-0.558z"></path>
<path fill="#073163" d="M27.605 12.982c0.081-0.081 0.023-0.168-0.029-0.192-0.087-0.029-0.25 0-0.337 0.134 0.087-0.023 0.174-0.023 0.198 0.029 0.029 0.058 0.081 0.116 0.168 0.029z"></path>
<path fill="#073163" d="M27.744 12.482c0.192 0 0.25 0.029 0.273 0.11 0.029 0.058-0.023 0.139-0.081 0.139-0.081 0-0.168-0.058-0.139-0.081 0.029-0.058 0.029-0.139-0.058-0.174z"></path>
<path fill="#073163" d="M28.296 12.923c0.139 0.029 0.198-0.058 0.116-0.163-0.029-0.087-0.116-0.139-0.256-0.116 0.139 0.087 0 0.227 0.139 0.279z"></path>
<path fill="#073163" d="M27.268 13.4c0.039 0.076 0.117 0.127 0.207 0.127 0.026 0 0.050-0.004 0.073-0.012l-0.002 0c0.081-0.035 0.116-0.116 0.081-0.174-0.058-0.081-0.139-0.11-0.163 0-0.058 0.116-0.139 0.087-0.198 0.058z"></path>
<path fill="#073163" d="M27.686 15.096c-0.058-0.11-0.221-0.11-0.36 0 0.058-0.029 0.163 0 0.192 0.058s0.087 0.058 0.116 0.058c0.023-0.029 0.081-0.058 0.052-0.116z"></path>
<path fill="#073163" d="M27.907 14.933c0-0.139-0.192-0.174-0.302-0.116 0.058 0 0.139 0.058 0.139 0.116 0.023 0.058 0.081 0.081 0.11 0.081 0.058-0.029 0.081-0.058 0.058-0.081z"></path>
<path fill="#073163" d="M27.628 15.433c-0.163-0.029-0.25 0.168-0.25 0.302 0.029-0.081 0.116-0.134 0.198-0.11 0.081 0 0.11-0.023 0.11-0.081 0.029-0.058 0-0.081-0.058-0.116z"></path>
<path fill="#073163" d="M27.657 15.903c0.058 0.029 0.116-0.029 0.139-0.11 0-0.058 0.116-0.058 0.139-0.029 0.058 0.029 0.058 0.139-0.029 0.197-0.058 0.029-0.192 0.058-0.25-0.058z"></path>
<path fill="#073163" d="M31.526 15.067c-0.058-0.023-0.192-0.081-0.302 0 0.081-0.023 0.139 0.029 0.163 0.087 0 0.058 0.087 0.081 0.116 0.029 0.023-0.029 0.058-0.087 0.023-0.116z"></path>
<path fill="#073163" d="M31.276 15.264c-0.11-0.058-0.25 0.081-0.279 0.197 0.054-0.045 0.122-0.076 0.195-0.087l0.002-0c0.058 0.029 0.11 0 0.11-0.058 0.029-0.023 0.029-0.052-0.029-0.052z"></path>
<path fill="#073163" d="M31.422 15.491c-0.087 0-0.198 0.11-0.198 0.221 0.023-0.058 0.081-0.087 0.139-0.058 0.058 0 0.139-0.029 0.139-0.081 0-0.058-0.029-0.087-0.087-0.087z"></path>
<path fill="#073163" d="M31.666 15.712c-0.058-0.029-0.139 0-0.139 0.081s0 0.168-0.023 0.197c0.058-0.058 0.11-0.087 0.163-0.116 0.029-0.023 0.058-0.11 0-0.163z"></path>
<path fill="#073163" d="M34.814 15.462c-0.058-0.058-0.139-0.029-0.168 0.023-0.029 0.058-0.058 0.197 0 0.308 0-0.058 0.058-0.139 0.116-0.139 0.081-0.029 0.105-0.139 0.052-0.192z"></path>
<path fill="#073163" d="M34.983 15.572c-0.116 0.058-0.116 0.25-0.029 0.36 0-0.058 0.029-0.139 0.081-0.168 0.087 0 0.116-0.11 0.087-0.163-0.058-0.058-0.116-0.029-0.139-0.029z"></path>
<path fill="#073163" d="M35.314 15.683c-0.058-0.029-0.116 0.029-0.116 0.081-0.023 0.087 0.035 0.197 0.116 0.25 0-0.058 0.029-0.11 0.058-0.139 0.081-0.058 0.058-0.163-0.058-0.192z"></path>
<path fill="#073163" d="M35.563 15.654c-0.058 0-0.11 0.081-0.058 0.168 0.029 0.058 0.087 0.081 0.197 0.058-0.029 0-0.081-0.087-0.058-0.116 0.029-0.058 0-0.11-0.081-0.11z"></path>
<path fill="#f9d050" d="M27.826 20.859l1.394-4.287 1.394 4.287-3.654-2.643h4.519z"></path>
<path fill="#024919" d="M28.105 20.469l2.893-2.114h-3.561l2.864 2.114-1.081-3.392z"></path>
<path fill="#f9d050" d="M33.060 20.859l1.394-4.287 1.394 4.287-3.654-2.643h4.519z"></path>
<path fill="#024919" d="M33.339 20.469l2.893-2.114h-3.561l2.864 2.114-1.081-3.392z"></path>
<path fill="#f9d050" d="M30.44 23.891l1.394-4.287 1.394 4.287-3.654-2.643h4.519z"></path>
<path fill="#024919" d="M30.719 23.502l2.893-2.114h-3.561l2.864 2.114-1.081-3.392z"></path>
</svg>
