<!-- Generated by IcoMoon.io -->
<svg version="1.1" xmlns="http://www.w3.org/2000/svg" width="43" height="32" viewBox="0 0 43 32">
<title>kz</title>
<path fill="#6fdcff" d="M0 0h42.667v32h-42.667z"></path>
<path fill="#ffe400" d="M4.013 31.133c0.22 0.213 0.147 0.567 0.753 0.52 0.92 0 0.947-0.56 0.947-0.953s-1.38-0.94-1.447-1.52c-0.067-0.58 0.32-0.733 0.64-0.733 0.313 0 0.533 0.18 0.533 0.34s-0.147 0.213-0.373 0.213 0.1-0.113-0.093-0.2-0.32 0.133-0.32 0.267c0 0.147 0.48 0.187 0.8 0.087 0.067 0.313 0.093 0.333-0.353 0.867 0.32-0.207 0.347-0.253 0.7-0.133-0.353-0.307-0.087-0.92-0.080-1.073s-0.067-0.34-0.2-0.433c-0.26-0.233-0.813-0.247-1.147-0.093-0.487 0.213-0.513 0.853-0.387 1.067l1.347 1.36c0.093 0.16 0.133 0.613-0.44 0.633-0.6 0.047-0.813-0.773-0.92-1.047-0.14 0.3-0.3 1.12-0.907 1.073-0.573-0.020-0.68-0.467-0.587-0.633l1.38-1.4c0.133-0.213 0.107-0.853-0.38-1.067-0.333-0.153-0.887-0.133-1.14 0.093-0.147 0.093-0.227 0.273-0.213 0.433s0.273 0.767-0.073 1.067c0.347-0.113 0.38-0.067 0.7 0.133-0.447-0.527-0.413-0.547-0.353-0.867 0.32 0.107 0.8 0.067 0.8-0.073s-0.133-0.373-0.327-0.28c-0.187 0.093 0.133 0.207-0.093 0.207-0.22 0-0.38-0.047-0.38-0.2s0.22-0.353 0.54-0.353 0.7 0.16 0.633 0.74-1.467 1.207-1.467 1.6c0 0.4 0.093 0.873 1.013 0.873 0.6 0.047 0.673-0.307 0.893-0.52z"></path>
<path fill="#ffe400" d="M3.94 22.887c0.22-0.213 0.4-0.84 1-0.8 0.92 0 1.267 0.513 1.267 0.907s-1.867 3.6-1.933 4.18c-0.067 0.58 0.32 0.74 0.633 0.74 0.32 0 0.54-0.18 0.54-0.347s-0.16-0.2-0.38-0.2 0.093 0.113-0.093 0.2-0.32-0.133-0.32-0.273c0-0.14 0.48-0.187 0.8-0.080 0.060-0.313 0.087-0.333-0.353-0.867 0.32 0.2 0.347 0.253 0.7 0.133-0.353 0.307-0.093 0.913-0.080 1.067s-0.067 0.347-0.207 0.44c-0.253 0.233-0.813 0.24-1.147 0.093-0.48-0.22-0.507-0.853-0.38-1.067l1.813-3.907c0.1-0.16-0.153-0.693-0.727-0.713-0.6-0.047-0.807 0.587-0.913 0.86l0.82-0.067s0.033 0.133 0 0.213c-0.31 0.023-0.591 0.061-0.866 0.114l0.046-0.007-0.033 0.413h0.4l-0.027 0.187s-0.34-0.027-0.373 0c-0.033 0.020-0.067 0.413-0.067 0.413s-0.067 0.027-0.133 0.027-0.133-0.027-0.133-0.027-0.027-0.393-0.060-0.413c-0.033-0.027-0.373 0-0.373 0l-0.033-0.187h0.407l-0.033-0.413s-0.4-0.080-0.82-0.107c-0.027-0.080 0-0.207 0-0.207l0.82 0.060c-0.107-0.273-0.313-0.907-0.913-0.867-0.573 0.027-0.827 0.56-0.733 0.72l1.813 3.907c0.127 0.207 0.1 0.847-0.38 1.067-0.333 0.147-0.893 0.133-1.147-0.093-0.14-0.093-0.22-0.28-0.207-0.433s0.267-0.773-0.080-1.067c0.353 0.113 0.387 0.067 0.7-0.14-0.44 0.533-0.413 0.553-0.347 0.867 0.313-0.107 0.793-0.067 0.793 0.080 0 0.133-0.133 0.367-0.32 0.273s0.133-0.2-0.093-0.2c-0.22 0-0.38 0.040-0.38 0.2s0.22 0.347 0.533 0.347 0.7-0.16 0.64-0.733c-0.067-0.58-1.933-3.8-1.933-4.187 0-0.4 0.347-0.9 1.267-0.9 0.6-0.047 0.82 0.58 1.033 0.793z"></path>
<path fill="#ffe400" d="M3.94 21.293c0.22 0.213 0.4 0.84 1 0.8 0.92 0 1.267-0.513 1.267-0.907s-1.867-3.6-1.933-4.18c-0.067-0.58 0.32-0.74 0.633-0.74 0.32 0 0.54 0.18 0.54 0.347s-0.16 0.2-0.38 0.2 0.093-0.107-0.093-0.2-0.32 0.133-0.32 0.273c0 0.14 0.48 0.187 0.8 0.080 0.060 0.313 0.087 0.333-0.353 0.867 0.32-0.2 0.347-0.253 0.7-0.133-0.353-0.307-0.093-0.913-0.080-1.067s-0.067-0.347-0.207-0.44c-0.253-0.227-0.813-0.24-1.147-0.093-0.48 0.22-0.507 0.853-0.38 1.067l1.813 3.9c0.1 0.16-0.153 0.693-0.727 0.713-0.6 0.047-0.807-0.587-0.913-0.86l0.82 0.067s0.033-0.133 0-0.213c-0.31-0.023-0.591-0.061-0.866-0.114l0.046 0.007-0.033-0.413h0.4l-0.027-0.187s-0.34 0.027-0.373 0c-0.033-0.020-0.067-0.413-0.067-0.413s-0.067-0.027-0.133-0.027-0.133 0.027-0.133 0.027-0.027 0.393-0.060 0.413c-0.033 0.027-0.373 0-0.373 0l-0.033 0.187h0.407l-0.033 0.413s-0.4 0.080-0.82 0.107c-0.027 0.080 0 0.207 0 0.207l0.82-0.060c-0.107 0.273-0.313 0.907-0.913 0.867-0.573-0.027-0.827-0.56-0.733-0.72l1.813-3.9c0.127-0.213 0.1-0.847-0.38-1.067-0.333-0.147-0.893-0.133-1.147 0.093-0.14 0.093-0.22 0.28-0.207 0.433s0.267 0.767-0.080 1.067c0.353-0.113 0.387-0.067 0.7 0.14-0.44-0.533-0.413-0.553-0.347-0.867 0.313 0.107 0.793 0.067 0.793-0.080 0-0.133-0.133-0.367-0.32-0.273s0.133 0.2-0.093 0.2c-0.22 0-0.38-0.040-0.38-0.2s0.22-0.347 0.533-0.347 0.7 0.16 0.64 0.733c-0.067 0.58-1.933 3.8-1.933 4.187 0 0.4 0.347 0.9 1.267 0.9 0.6 0.047 0.82-0.58 1.033-0.793z"></path>
<path fill="#ffe400" d="M3.94 10.707c0.22-0.213 0.4-0.84 1-0.8 0.92 0 1.267 0.513 1.267 0.907s-1.867 3.6-1.933 4.187c-0.067 0.573 0.32 0.733 0.633 0.733 0.32 0 0.54-0.18 0.54-0.34s-0.16-0.213-0.38-0.213 0.093 0.12-0.093 0.213-0.32-0.14-0.32-0.28c0-0.133 0.48-0.187 0.8-0.080 0.060-0.313 0.087-0.333-0.353-0.867 0.32 0.207 0.347 0.253 0.7 0.133-0.353 0.307-0.093 0.92-0.080 1.067s-0.067 0.347-0.207 0.44c-0.253 0.233-0.813 0.24-1.147 0.093-0.48-0.22-0.507-0.853-0.38-1.067l1.813-3.9c0.1-0.16-0.153-0.693-0.727-0.713-0.6-0.047-0.807 0.587-0.913 0.86l0.82-0.067s0.033 0.133 0 0.213c-0.427 0.027-0.82 0.107-0.82 0.107l-0.033 0.413h0.4l-0.027 0.187s-0.34-0.020-0.373 0-0.067 0.42-0.067 0.42-0.067 0.020-0.133 0.020-0.133-0.020-0.133-0.020-0.027-0.4-0.060-0.42c-0.033-0.020-0.373 0-0.373 0l-0.033-0.187h0.407l-0.033-0.413s-0.4-0.080-0.82-0.107c-0.027-0.080 0-0.207 0-0.207l0.82 0.060c-0.107-0.273-0.313-0.907-0.913-0.867-0.573 0.027-0.827 0.56-0.733 0.72l1.813 3.9c0.127 0.213 0.1 0.847-0.38 1.067-0.333 0.147-0.893 0.133-1.147-0.093-0.14-0.093-0.22-0.28-0.207-0.433s0.267-0.767-0.080-1.067c0.353 0.113 0.387 0.067 0.7-0.14-0.44 0.533-0.413 0.553-0.347 0.867 0.313-0.107 0.793-0.060 0.793 0.080 0 0.133-0.133 0.367-0.32 0.273-0.187-0.087 0.133-0.2-0.093-0.2-0.22 0-0.38 0.040-0.38 0.2s0.22 0.347 0.533 0.347 0.7-0.16 0.64-0.733c-0.067-0.58-1.933-3.793-1.933-4.187s0.347-0.9 1.267-0.9c0.6-0.047 0.82 0.58 1.033 0.8z"></path>
<path fill="#ffe400" d="M3.94 9.113c0.22 0.213 0.4 0.847 1 0.8 0.92 0 1.267-0.513 1.267-0.907s-1.867-3.6-1.933-4.18c-0.067-0.58 0.32-0.74 0.633-0.74 0.32 0 0.54 0.187 0.54 0.347s-0.16 0.207-0.38 0.207 0.093-0.113-0.093-0.207-0.32 0.133-0.32 0.273c0 0.14 0.48 0.187 0.8 0.080 0.060 0.313 0.087 0.333-0.353 0.867 0.32-0.2 0.347-0.253 0.7-0.133-0.353-0.3-0.093-0.913-0.080-1.067s-0.067-0.347-0.207-0.44c-0.253-0.227-0.813-0.24-1.147-0.087-0.48 0.213-0.507 0.853-0.38 1.060l1.813 3.907c0.1 0.16-0.153 0.693-0.727 0.72-0.6 0.040-0.807-0.587-0.913-0.867l0.82 0.067s0.033-0.133 0-0.213c-0.309-0.021-0.59-0.056-0.866-0.107l0.046 0.007-0.033-0.42h0.4l-0.027-0.187s-0.34 0.027-0.373 0c-0.033-0.020-0.067-0.413-0.067-0.413s-0.067-0.027-0.133-0.027-0.133 0.027-0.133 0.027-0.027 0.393-0.060 0.413c-0.033 0.027-0.373 0-0.373 0l-0.033 0.187h0.407l-0.033 0.42s-0.4 0.073-0.82 0.1c-0.027 0.087 0 0.213 0 0.213l0.82-0.067c-0.107 0.28-0.313 0.907-0.913 0.867-0.573-0.027-0.827-0.56-0.733-0.72l1.813-3.907c0.127-0.207 0.1-0.847-0.38-1.067-0.333-0.147-0.893-0.133-1.147 0.093-0.14 0.093-0.22 0.28-0.207 0.433s0.267 0.773-0.080 1.067c0.353-0.113 0.387-0.067 0.7 0.14-0.44-0.533-0.413-0.553-0.347-0.867 0.32 0.107 0.793 0.067 0.793-0.080 0-0.133-0.133-0.367-0.32-0.273s0.133 0.207-0.093 0.207c-0.22 0-0.38-0.047-0.38-0.207s0.22-0.347 0.533-0.347 0.707 0.16 0.64 0.733c-0.067 0.58-1.933 3.8-1.933 4.187 0 0.4 0.347 0.907 1.267 0.907 0.6 0.047 0.82-0.587 1.033-0.8z"></path>
<path fill="#ffe400" d="M4.013 0.867c0.22-0.213 0.147-0.567 0.753-0.52 0.92 0 0.947 0.56 0.947 0.953s-1.38 0.94-1.447 1.52c-0.067 0.58 0.32 0.733 0.64 0.733 0.313 0 0.533-0.18 0.533-0.34s-0.147-0.213-0.373-0.213 0.1 0.113-0.093 0.2-0.32-0.133-0.32-0.267c0-0.147 0.48-0.193 0.8-0.087 0.067-0.313 0.093-0.333-0.353-0.867 0.32 0.207 0.347 0.253 0.7 0.133-0.353 0.307-0.087 0.92-0.080 1.073s-0.067 0.34-0.2 0.433c-0.267 0.247-0.82 0.247-1.153 0.1-0.487-0.213-0.513-0.853-0.387-1.067l1.353-1.367c0.093-0.16 0.133-0.613-0.44-0.633-0.6-0.047-0.813 0.773-0.92 1.047-0.14-0.3-0.3-1.127-0.907-1.080-0.573 0.020-0.68 0.467-0.587 0.633l1.38 1.4c0.133 0.213 0.107 0.853-0.38 1.067-0.333 0.153-0.887 0.14-1.14-0.093-0.147-0.093-0.227-0.273-0.213-0.433s0.273-0.767-0.073-1.067c0.347 0.113 0.38 0.067 0.693-0.133-0.44 0.527-0.407 0.547-0.347 0.867 0.32-0.107 0.8-0.067 0.8 0.073s-0.133 0.373-0.327 0.28c-0.187-0.093 0.133-0.207-0.093-0.207-0.22 0-0.38 0.047-0.38 0.2s0.22 0.353 0.54 0.353 0.7-0.16 0.633-0.74-1.467-1.207-1.467-1.6c0-0.4 0.093-0.873 1.013-0.873 0.6-0.047 0.673 0.307 0.893 0.52z"></path>
<path fill="#ffe400" d="M23.379 7.989c3.344 0 6.055 2.571 6.055 5.742v-0.007c0 3.171-2.711 5.742-6.055 5.742s-6.055-2.571-6.055-5.742v0.007c0-3.171 2.711-5.742 6.055-5.742z"></path>
<path fill="#ffe400" d="M23.095 4.566c-0.057 0-0.327 1.907-0.427 2.334-0.1 0.961 1.281 0.925 1.053-0.036l-0.626-2.305zM23.579 23.052c0.050 0 0.462-1.886 0.598-2.305 0.164-0.946-1.217-0.996-1.067-0.028l0.47 2.334zM13.93 13.688c0 0.050 1.985 0.448 2.426 0.576 0.996 0.164 1.067-1.138 0.043-0.996l-2.469 0.427zM33.263 13.916c0-0.050-2.007-0.377-2.455-0.491-1.003-0.121-1.010 1.181 0 1.003l2.455-0.512zM15.965 7.64c-0.036 0.036 1.274 1.516 1.537 1.878 0.683 0.712 1.587-0.285 0.683-0.768l-2.22-1.103zM30.986 19.807c0.036-0.036-1.402-1.402-1.701-1.736-0.747-0.655-1.551 0.406-0.612 0.818l2.312 0.925zM18.961 5.577c-0.043 0.021 0.569 1.857 0.669 2.291 0.342 0.904 1.58 0.313 0.939-0.463l-1.601-1.829zM27.72 22.113c0.050-0.021-0.427-1.893-0.491-2.327-0.277-0.925-1.551-0.427-0.975 0.398l1.473 1.921zM29.876 6.858c-0.043-0.036-1.622 1.181-2.007 1.423-0.761 0.64 0.27 1.508 0.797 0.662l1.21-2.085zM16.855 20.64c0.036 0.036 1.708-1.067 2.106-1.288 0.804-0.583-0.157-1.523-0.747-0.712l-1.352 1.999zM14.364 10.387c-0.021 0.043 1.708 1.046 2.085 1.309 0.889 0.463 1.409-0.747 0.391-0.939l-2.476-0.37zM32.416 17.388c0.021-0.043-1.637-1.16-1.992-1.444-0.854-0.527-1.459 0.648-0.455 0.904l2.448 0.541zM26.681 5.086c-0.050-0.014-1.039 1.665-1.302 2.028 0.001 0.306 0.249 0.553 0.555 0.553 0.179 0 0.339-0.085 0.44-0.217l0.001-0.001 0.306-2.362zM20 22.469c0.050 0.021 1.16-1.594 1.444-1.942 0.519-0.825-0.74-1.352-0.975-0.398l-0.47 2.341zM14.485 17.538c0.021 0.043 1.992-0.427 2.455-0.498 0.968-0.27 0.427-1.466-0.427-0.911l-2.028 1.409zM32.423 10.23c-0.014-0.043-2.014 0.292-2.476 0.334-0.996 0.206-0.534 1.437 0.356 0.939l2.12-1.274z"></path>
<path fill="#ffe400" d="M25.059 4.687c-0.050-0.007-0.719 1.807-0.918 2.206-0.292 0.925 1.067 1.153 1.046 0.171l-0.121-2.384zM21.608 22.895c0.050 0.014 0.854-1.758 1.082-2.149 0.356-0.897-0.982-1.21-1.032-0.235l-0.057 2.384zM20.917 4.865c-0.050 0.014 0.135 1.935 0.135 2.377 0.135 0.946 1.466 0.619 1.025-0.263l-1.16-2.113zM25.756 22.789c0.050-0.007 0-1.935 0.036-2.377-0.064-0.961-1.423-0.719-1.039 0.192l0.996 2.184zM17.488 6.459c-0.043 0.028 0.904 1.729 1.082 2.135 0.512 0.832 1.615 0.050 0.84-0.612l-1.921-1.523zM29.214 21.252c0.043-0.028-0.783-1.793-0.925-2.206-0.448-0.861-1.601-0.149-0.882 0.555l1.807 1.651zM14.983 8.85c-0.028 0.043 1.501 1.309 1.822 1.637 0.79 0.598 1.523-0.512 0.555-0.861l-2.377-0.776zM31.647 18.79c0.028-0.043-1.402-1.409-1.701-1.75-0.74-0.648-1.551 0.413-0.612 0.825l2.312 0.925zM13.887 11.831c-0.014 0.050 1.871 0.768 2.284 0.975 0.953 0.32 1.259-0.953 0.221-0.982l-2.505 0.007zM32.914 15.944c0.021-0.043-1.807-0.882-2.206-1.117-0.925-0.384-1.331 0.868-0.299 0.968l2.505 0.149zM13.823 15.496c0.007 0.043 2.042 0.014 2.505 0.050 1.010-0.050 0.768-1.338-0.199-0.989l-2.305 0.939zM33.049 12.294c0-0.050-2.035-0.157-2.49-0.221-1.017-0.014-0.868 1.288 0.121 0.996l2.369-0.783zM15.567 19.295c0.028 0.043 1.85-0.825 2.277-0.989 0.882-0.462 0.071-1.523-0.633-0.804l-1.644 1.793zM31.384 8.458c-0.028-0.043-1.9 0.704-2.348 0.84-0.918 0.406-0.185 1.516 0.569 0.847l1.779-1.686zM18.527 21.814c0.043 0.021 1.345-1.459 1.672-1.772 0.619-0.761-0.569-1.423-0.918-0.498l-0.754 2.27zM28.467 5.89c-0.036-0.028-1.444 1.359-1.793 1.651-0.669 0.719 0.47 1.459 0.882 0.562l0.904-2.213z"></path>
<path fill="#ffe400" d="M14.121 17.544c0.109 0.367 0.124 2.422 2.314 4.403 2.174 1.967 5.901 2.407 5.901 2.407s0.016 0.279-0.248 0.294c-0.264 0.029-1.537-0.22-2.174-0.411-0.621-0.176-1.18-0.499-1.242-0.484-0.078 0.029-0.202 0.235-0.388 0.206s-1.087-0.91-1.491-1.145c-0.803-0.658-1.504-1.396-2.1-2.207l-0.027-0.039c-0.435-0.661-0.543-1.101-0.683-1.101s-0.652 0.323-0.652 0.323-0.466-0.661-0.87-1.717c-0.419-1.057-0.373-1.673-0.28-1.717 0.109-0.044 0.109 0.778 0.419 1.527 0.311 0.763 0.745 0.998 0.745 0.998s-0.28-0.396-0.497-1.38-0.311-1.938-0.155-2.231 0.295-0.382 0.311-0.367c0.031 0.029-0.264 0.455-0.062 1.585s0.745 2.084 0.87 2.040c0.124-0.044-0.078-0.279-0.155-0.939s0.078-1.072 0.248-1.13c0.078-0.059 0.202 0.734 0.217 1.086zM12.599 19.423c-0.419-0.367-1.071-1.644-1.211-1.585-0.155 0.073 1.056 1.908 1.087 2.055 0.031 0.176 0.295 0.675 0.093 0.602s-1.646-1.512-1.475-1.233 1.258 1.541 1.196 1.615-0.901-0.705-0.932-0.602c-0.016 0.088 0.823 0.851 0.807 0.939s-0.543-0.484-0.543-0.367 0.543 0.69 0.543 0.778-0.466-0.411-0.311-0.147c0.14 0.294 0.543 0.543 0.528 0.631s-0.342-0.117-0.342-0.073c0 0.044 0.606 0.25 0.745 0.411 0.155 0.161 1.149 1.248 1.894 1.791s2.888 1.497 3.044 1.497c0.14 0 0.357-0.294 0.311-0.411s-2.143-0.793-2.717-1.292c-0.59-0.499-2.019-1.703-2.143-1.761-0.109-0.073-0.435-0.044-0.435-0.117s0.419 0.044 0.388 0c-0.016-0.044-0.575-0.279-0.559-0.323 0.031-0.044 0.388 0.088 0.388 0.044s-0.652-0.382-0.621-0.455c0.016-0.073 0.481 0.206 0.481 0.147 0-0.029-0.621-0.44-0.606-0.514s0.481 0.323 0.466 0.235-0.373-0.587-0.373-0.646c0-0.073 0.559 0.499 0.621 0.382 0.031-0.103-0.202-1.057-0.186-1.072s0.419 0.206 0.481 0.073c0.078-0.147-0.28-0.338-0.621-0.602zM19.758 26.645c-0.295 0.044-0.435-0.059-0.264-0.294 0.233 0 0.854-0.191 1.071-0.279s0.45-0.206 0.637-0.367c0.186-0.191 0.311 0.103 0.202 0.264-0.078 0.103-0.435 0.294-0.699 0.396-0.388 0.117-0.73 0.294-0.947 0.279zM21.699 25.896c-0.202-0.206-0.031-0.352 0.264-0.514 0.435-0.22 0.311-0.528 0.87-0.778 0.248-0.147 3.727-1.468 4.86-2.172s4.317-2.98 5.171-4.55c0.839-1.556 0.435-1.673 0.559-1.732 0.109-0.073 0.233 0.22 0.217 0.572-0.031 0.338-0.311 1.365-0.217 1.468s1.273-0.807 1.77-1.908 0.87-2.246 1.103-2.246c0.248 0-0.404 1.879-0.823 2.613-0.404 0.734-0.885 1.101-0.776 1.262 0.124 0.147 1.335-0.807 1.755-1.512 0.404-0.719 0.792-1.35 0.87-1.218-0.133 0.903-0.503 1.706-1.050 2.375l0.009-0.012c-0.652 0.705-1.429 1.218-1.304 1.321 0.109 0.117 0.994 0.235 1.91-0.352 0.932-0.602 1.025-1.468 1.134-1.424 0.124 0.044-0.109 1.233-0.994 1.967s-2.050 0.807-2.019 0.969c0.062 0.147 2.531-0.675 2.485-0.484-0.047 0.176-3.199 1.35-3.23 1.468 0 0.088 0.544 0.117 1.398-0.073 0.839-0.176 1.646-0.807 1.755-0.661 0.031 0.206-0.606 0.705-1.568 0.939-0.978 0.235-1.46 0.543-1.491 0.616-0.016 0.073 1.739-0.206 1.739-0.117s-2.298 0.514-2.314 0.631c-0.031 0.103 2.174-0.426 2.143-0.294-0.062 0.103-2.997 0.925-2.966 0.969 0.016 0.059 2.453-0.499 2.407-0.411-0.062 0.103-4.1 1.174-4.131 1.248-0.031 0.059 3.572-0.763 3.54-0.69s-1.863 0.499-1.863 0.543c0 0.044 1.475-0.22 1.444-0.147-0.016 0.059-3.727 0.954-3.804 1.086-0.078 0.147 1.926-0.367 1.894-0.103s-4.301 1.615-4.317 1.365c-0.031-0.25 2.593-0.881 2.578-0.954-0.031-0.073-1.506 0.147-1.537 0.015-0.016-0.147 0.978-0.44 0.901-0.499-0.078-0.073-0.823 0.206-0.761 0.044 0.078-0.161 1.491-0.778 1.46-0.822-0.016-0.044-0.512 0.147-0.466 0 0.062-0.161 3.059-0.983 3.013-1.086-0.047-0.088-1.382 0.206-1.506 0.235-0.047-0.088 1.863-0.763 1.832-0.881-0.062-0.103-1.025 0.396-1.087 0.264-0.031-0.147 1.693-0.778 1.584-0.881s-0.885 0.264-0.994 0.161 1.63-1.233 1.367-1.262c-0.264-0.015-0.59 0.352-0.621 0.117 0.031-0.294 1.351-0.778 1.056-1.013-0.466-0.132-2.034 0.103-2.686 0.47s-2.826 2.407-3.354 2.73c-0.528 0.308-2.329 1.027-2.671 1.174-0.528 0.176-0.621 0.44-1.165 0.705-0.978 0.25-0.963 0.528-1.429 0.69-0.171 0.044-1.926 0.837-1.941 0.778zM19.245 26.924c-0.295 0.147-0.559 0.499-0.388 0.646 0.093 0.176 0.388-0.396 0.621-0.367l1.242 0.059c0.668 0.044 0.994-0.132 1.366-0.103s1.196-0.191 1.584-0.191 0.466 0.044 0.497-0.117c0.047-0.147-1.211-0.044-1.77-0.059-0.559-0.029-1.258 0.103-1.677 0.103-0.388-0.015-1.056-0.132-1.475 0.029z"></path>
<path fill="#ffe400" d="M20.845 26.527c0.146 0 0.264 0.099 0.264 0.22s-0.118 0.22-0.264 0.22c-0.146 0-0.264-0.099-0.264-0.22s0.118-0.22 0.264-0.22z"></path>
<path fill="#ffe400" d="M27.305 26.322c0.264-0.044 0.978 0.191 1.475 0.294 0.901 0.338 2.578 0.176 2.578 0.338s-0.109 0.352-0.497 0.382-1.366-0.147-1.335-0.147 0.776 0.338 0.559 0.426-0.854-0.191-0.963-0.117 0.59 0.206 0.466 0.25c-0.093 0.044-0.575-0.059-0.73-0.044-0.155 0.029 0.124 0.191-0.062 0.25-0.186 0.073-0.497-0.088-0.621-0.044-0.14 0.044 0.279 0.294 0.093 0.323s-0.621-0.117-0.87-0.147c-0.248 0 0.233 0.235 0.078 0.264-0.155 0.015-0.59-0.191-0.699-0.191s0 0.294-0.155 0.294-0.342-0.25-0.435-0.25 0 0.294-0.155 0.294-0.217-0.308-0.342-0.294c-0.155 0.029 0 0.396-0.217 0.367-0.202-0.015-0.233-0.382-0.404-0.367-0.155 0.029 0.031 0.367-0.124 0.367s-0.186-0.338-0.342-0.367c-0.155-0.015-0.093 0.323-0.186 0.323s-0.186-0.323-0.248-0.323c-0.047 0 0 0.323-0.186 0.294s-0.186-0.352-0.233-0.338c-0.062 0.029-0.062 0.264-0.186 0.264s-0.14-0.235-0.186-0.206c-0.062 0.015-0.248 0.308-0.373 0.264-0.14-0.044 0.031-0.279-0.031-0.279s-0.217 0.161-0.311 0.147 0-0.206-0.031-0.206-0.264 0.117-0.373 0.117-0.404 0.147-0.481 0.015c-0.078-0.147 0.202-0.147 0.264-0.279 0.047-0.132-0.155-0.528 0.062-0.661 0.202-0.147 0.87 0.191 1.863-0.044 1.801-0.455 3.199-0.983 3.339-0.969z"></path>
</svg>
