<!-- Generated by IcoMoon.io -->
<svg version="1.1" xmlns="http://www.w3.org/2000/svg" width="43" height="32" viewBox="0 0 43 32">
<title>lb</title>
<path fill="#f00" d="M-2.667 24h48v8h-48zM-2.667 0h48v8h-48z"></path>
<path fill="#fff" d="M-2.667 8h48v16h-48z"></path>
<path fill="#007900" d="M21.090 8.125c-0.488 0.969-0.813 0.969-1.625 1.625-0.325 0.319-0.813 0.481-0.163 0.813-0.656 0.319-0.981 0.481-1.306 1.131l0.163 0.162s0.625-0.3 0.65-0.162c0.113 0.131-0.813 0.625-0.931 0.706l-0.688 0.438c-0.819 0.644-1.313 0.481-1.794 1.456l1.625-0.162c0.325 1.137-0.813 1.3-1.625 1.787l-1.306 0.813c0.331 1.137 1.306 0.488 2.119 0.163l0.163 0.163v0.325l-1.625 0.813s-1.925 1.1-1.956 1.137c-0.012 0.063 0 0.325 0 0.325 0.65 0.163 1.625 0.325 2.281 0 0.813-0.325 0.975-0.65 1.95-0.65-0.897 0.705-2.009 1.174-3.223 1.298l-0.027 0.002v0.65c0.975 0 1.625 0 2.438-0.163l2.113-0.65c0.488 0 0.981 0.488 0.813 0.975-0.481 1.788-2.438 1.462-3.087 2.925l2.6-0.981c0.65-0.325 1.3-0.644 2.113-0.481 0.975 0.325 0.975 0.975 2.275 1.3l-0.325-0.813c0.325 0.163 0.65 0.163 0.981 0.325 0.813 0.325 0.975 0.65 1.95 0.488-0.813-0.975-0.975-0.813-1.625-1.462-0.65-0.975-0.981-2.438 0-2.6l1.137 0.325c1.137 0.163 1.137-0.163 2.762 0.488 0.981 0.325 1.306 0.813 2.438 0.488-0.481-1.137-2.269-1.95-3.413-2.275 1.306-0.813 0.975 0.325 2.769-0.163v-0.325c-1.294-0.981-1.788-1.794-3.575-1.794l2.769-0.325v-0.325s-2.731-0.713-2.794-0.744c0.019-0.081 0.087-0.206 0.269-0.281 0.519 0.338 2.081 0.3 2.175 0.294-0.050-0.4-0.794-0.731-1.438-1.056 0 0-2.794-1.719-2.806-1.869 0.056-0.438 1.144 0.069 2.313 0.406-0.325-0.65-0.975-0.975-1.625-1.137l0.975-0.162c-0.65-1.463-2.275-1.3-3.25-1.95-0.656-0.488-0.656-0.813-1.631-1.294z"></path>
<path fill="#fff" d="M19.333 18.938c0.119-0.381 0.275-0.725-0.45-1.056s0.363 1.319 0.45 1.063zM20.19 18.169c-0.144 0.019-0.225 0.55 0.069 0.7 0.325 0.050 0.063-0.694-0.069-0.7zM21.033 18.106c-0.15 0.050-0.156 0.8 0.375 0.663 0.538-0.131 0-0.719-0.375-0.656zM22.021 16.188c0.113-0.188-0.006-0.938-0.462-0.625-0.462 0.319 0.313 0.675 0.462 0.625zM21.021 15.563c0.144-0.056 0.156-0.519-0.25-0.394-0.394 0.119 0.144 0.488 0.25 0.394zM20.121 15.744s-0.281-0.387-0.5-0.306c-0.269 0.262 0.519 0.313 0.5 0.306zM17.021 16.981c0.119 0.012 1-0.144 1.306-0.488s-1.569 0.144-1.569 0.15c0 0.006 0.175 0.306 0.262 0.337zM25.84 14.794c0.044-0.081-0.469-0.444-0.775-0.3-0.081 0.269 0.775 0.356 0.775 0.3zM24.102 13.919c0.1-0.137-0.219-0.706-0.856-0.387-0.637 0.313 0.669 0.613 0.856 0.394zM22.096 13.588s0.156-0.512 0.538-0.412c0.438 0.331-0.519 0.431-0.538 0.412zM21.721 13.2c-0.063-0.144-0.456-0.063-0.913 0.244-0.462 0.294 1.050 0.088 0.913-0.25zM22.89 11.819s0.406-0.188 0.531 0c0.169 0.269-0.538 0-0.531 0zM22.546 11.637c-0.081-0.162-0.531-0.181-0.519 0.063-0.075 0.188 0.587 0.15 0.519-0.063zM21.471 11.637c-0.044-0.094-0.688 0-0.875 0.387 0.313 0.15 1.019-0.144 0.875-0.387zM20.096 12.031s-0.837 0.519-0.894 0.894c0.025 0.325 1.050-0.588 1.050-0.588s0.087-0.363-0.15-0.306zM19.165 11.563c0.025-0.106 0.419-0.35 0.45-0.331 0.031 0.106-0.319 0.394-0.45 0.331zM19.433 13.537c0.019-0.156-1-0.144-0.619 0.325 0.325 0.394 0.688-0.256 0.619-0.325zM18.496 14.206c-0.050-0.1-0.125-0.375-0.262-0.4-0.119 0-0.731 0.125-0.781 0.225-0.025 0.081 0.256 0.588 0.35 0.6 0.113 0.044 0.681-0.375 0.7-0.425zM24.021 17.656c0.031-0.113 1.081-0.469 1.438-0.125 0.425 0.581-1.462 0.313-1.438 0.125zM26.896 18.337c0.231-0.387-0.706-0.85-1.1-0.406 0.137 0.531 0.913 0.725 1.1 0.406z"></path>
</svg>
