<!-- Generated by IcoMoon.io -->
<svg version="1.1" xmlns="http://www.w3.org/2000/svg" width="43" height="32" viewBox="0 0 43 32">
<title>li</title>
<path fill="#002b7f" d="M0 0h42.667v16h-42.667z"></path>
<path fill="#ce1126" d="M0 16h42.667v16h-42.667z"></path>
<path fill="#ffd83d" d="M11.541 6.523l-0.101 3.333h-3.381c-0.416-0.811-0.757-1.493-0.757-2.427 0-0.779 0.613-1.397 1.493-1.397 0.933 0 1.963 0.315 2.747 0.491z"></path>
<path fill="#ffd83d" d="M7.707 6.677v1.92M7.973 6.48v2.56M8.251 6.347v3.051M8.517 6.283v2.395M8.789 6.272v2.416M9.061 6.181v2.507M9.333 6.181v2.507M9.605 6.208v2.507M9.877 6.235v2.501M10.149 6.389v2.507M10.416 6.416v2.821M10.693 6.416v2.507M10.96 6.416v2.507"></path>
<path fill="#000" d="M9.408 6.293c0.576 0.091 1.835 0.683 1.691 1.477-0.203 1.131-0.864 0.677-1.739 0.517l-0.661 0.219c-0.24 0.24-0.587 0.464-0.821 0.171h-0.395v1.536h4.341v-3.707z"></path>
<path fill="#ffd83d" d="M11.611 6.027c0 0.144-0.117 0.261-0.261 0.261s-0.261-0.117-0.261-0.261c0-0.144 0.117-0.261 0.261-0.261s0.261 0.117 0.261 0.261z"></path>
<path fill="#ffd83d" d="M11.019 5.883c0 0.144-0.117 0.261-0.261 0.261s-0.261-0.117-0.261-0.261c0-0.144 0.117-0.261 0.261-0.261s0.261 0.117 0.261 0.261z"></path>
<path fill="#ffd83d" d="M10.416 5.733c0 0.144-0.117 0.261-0.261 0.261s-0.261-0.117-0.261-0.261c0-0.144 0.117-0.261 0.261-0.261s0.261 0.117 0.261 0.261z"></path>
<path fill="#ffd83d" d="M9.813 5.632c0 0.144-0.117 0.261-0.261 0.261s-0.261-0.117-0.261-0.261c0-0.144 0.117-0.261 0.261-0.261s0.261 0.117 0.261 0.261z"></path>
<path fill="#ffd83d" d="M9.211 5.573c0 0.144-0.117 0.261-0.261 0.261s-0.261-0.117-0.261-0.261c0-0.144 0.117-0.261 0.261-0.261s0.261 0.117 0.261 0.261z"></path>
<path fill="#ffd83d" d="M8.624 5.605c0 0.144-0.117 0.261-0.261 0.261s-0.261-0.117-0.261-0.261c0-0.144 0.117-0.261 0.261-0.261s0.261 0.117 0.261 0.261z"></path>
<path fill="#ffd83d" d="M8.059 5.797c0 0.144-0.117 0.261-0.261 0.261s-0.261-0.117-0.261-0.261c0-0.144 0.117-0.261 0.261-0.261s0.261 0.117 0.261 0.261z"></path>
<path fill="#ffd83d" d="M7.584 6.149c0 0.144-0.117 0.261-0.261 0.261s-0.261-0.117-0.261-0.261c0-0.144 0.117-0.261 0.261-0.261s0.261 0.117 0.261 0.261z"></path>
<path fill="#ffd83d" d="M7.248 6.635c0 0.144-0.117 0.261-0.261 0.261s-0.261-0.117-0.261-0.261c0-0.144 0.117-0.261 0.261-0.261s0.261 0.117 0.261 0.261z"></path>
<path fill="#ffd83d" d="M7.083 7.211c0 0.144-0.117 0.261-0.261 0.261s-0.261-0.117-0.261-0.261c0-0.144 0.117-0.261 0.261-0.261s0.261 0.117 0.261 0.261z"></path>
<path fill="#ffd83d" d="M7.088 7.803c0 0.144-0.117 0.261-0.261 0.261s-0.261-0.117-0.261-0.261c0-0.144 0.117-0.261 0.261-0.261s0.261 0.117 0.261 0.261z"></path>
<path fill="#ffd83d" d="M7.205 8.384c0 0.144-0.117 0.261-0.261 0.261s-0.261-0.117-0.261-0.261c0-0.144 0.117-0.261 0.261-0.261s0.261 0.117 0.261 0.261z"></path>
<path fill="#ffd83d" d="M11.467 6.373l-0.027 0.347c-0.656-0.107-1.584-0.469-2.453-0.469-0.8 0-1.419 0.32-1.419 1.131 0 0.795 0.336 1.52 0.784 2.256l-0.464 0.213c-0.416-0.8-0.763-1.493-0.763-2.421 0-0.779 0.613-1.547 1.669-1.547 0.933 0 1.888 0.32 2.672 0.491z"></path>
<path fill="#ffd83d" d="M12.139 6.523l0.101 3.333h3.381c0.416-0.811 0.757-1.493 0.757-2.427 0-0.779-0.613-1.397-1.493-1.397-0.933 0-1.963 0.315-2.747 0.491z"></path>
<path fill="#ffd83d" d="M15.973 6.677v1.92M15.707 6.48v2.56M15.429 6.347v3.051M15.163 6.283v2.395M14.891 6.272v2.416M14.619 6.181v2.507M14.347 6.181v2.507M14.075 6.208v2.507M13.803 6.235v2.501M13.531 6.389v2.507M13.264 6.416v2.821M12.987 6.416v2.507M12.72 6.416v2.507"></path>
<path fill="#000" d="M14.272 6.293c-0.576 0.091-1.835 0.683-1.691 1.477 0.203 1.131 0.864 0.677 1.739 0.517l0.661 0.219c0.24 0.24 0.587 0.464 0.821 0.171h0.395v1.536h-4.341v-3.707z"></path>
<path fill="#ffd83d" d="M12.069 6.027c0 0.144 0.117 0.261 0.261 0.261s0.261-0.117 0.261-0.261c0-0.144-0.117-0.261-0.261-0.261s-0.261 0.117-0.261 0.261z"></path>
<path fill="#ffd83d" d="M12.661 5.883c0 0.144 0.117 0.261 0.261 0.261s0.261-0.117 0.261-0.261c0-0.144-0.117-0.261-0.261-0.261s-0.261 0.117-0.261 0.261z"></path>
<path fill="#ffd83d" d="M13.264 5.733c0 0.144 0.117 0.261 0.261 0.261s0.261-0.117 0.261-0.261c0-0.144-0.117-0.261-0.261-0.261s-0.261 0.117-0.261 0.261z"></path>
<path fill="#ffd83d" d="M13.867 5.632c0 0.144 0.117 0.261 0.261 0.261s0.261-0.117 0.261-0.261c0-0.144-0.117-0.261-0.261-0.261s-0.261 0.117-0.261 0.261z"></path>
<path fill="#ffd83d" d="M14.469 5.573c0 0.144 0.117 0.261 0.261 0.261s0.261-0.117 0.261-0.261c0-0.144-0.117-0.261-0.261-0.261s-0.261 0.117-0.261 0.261z"></path>
<path fill="#ffd83d" d="M15.056 5.605c0 0.144 0.117 0.261 0.261 0.261s0.261-0.117 0.261-0.261c0-0.144-0.117-0.261-0.261-0.261s-0.261 0.117-0.261 0.261z"></path>
<path fill="#ffd83d" d="M15.621 5.797c0 0.144 0.117 0.261 0.261 0.261s0.261-0.117 0.261-0.261c0-0.144-0.117-0.261-0.261-0.261s-0.261 0.117-0.261 0.261z"></path>
<path fill="#ffd83d" d="M16.096 6.149c0 0.144 0.117 0.261 0.261 0.261s0.261-0.117 0.261-0.261c0-0.144-0.117-0.261-0.261-0.261s-0.261 0.117-0.261 0.261z"></path>
<path fill="#ffd83d" d="M16.432 6.635c0 0.144 0.117 0.261 0.261 0.261s0.261-0.117 0.261-0.261c0-0.144-0.117-0.261-0.261-0.261s-0.261 0.117-0.261 0.261z"></path>
<path fill="#ffd83d" d="M16.597 7.211c0 0.144 0.117 0.261 0.261 0.261s0.261-0.117 0.261-0.261c0-0.144-0.117-0.261-0.261-0.261s-0.261 0.117-0.261 0.261z"></path>
<path fill="#ffd83d" d="M16.592 7.803c0 0.144 0.117 0.261 0.261 0.261s0.261-0.117 0.261-0.261c0-0.144-0.117-0.261-0.261-0.261s-0.261 0.117-0.261 0.261z"></path>
<path fill="#ffd83d" d="M16.475 8.384c0 0.144 0.117 0.261 0.261 0.261s0.261-0.117 0.261-0.261c0-0.144-0.117-0.261-0.261-0.261s-0.261 0.117-0.261 0.261z"></path>
<path fill="#ffd83d" d="M12.213 6.373l0.027 0.347c0.656-0.107 1.584-0.469 2.453-0.469 0.8 0 1.419 0.32 1.419 1.131 0 0.795-0.336 1.52-0.784 2.256l0.464 0.213c0.416-0.8 0.763-1.493 0.763-2.421 0-0.779-0.613-1.547-1.669-1.547-0.933 0-1.888 0.32-2.672 0.491z"></path>
<path fill="#ffd83d" d="M11.84 2.832l-0.277 0.517 0.277 0.512 0.272-0.512-0.272-0.523zM11.84 4.133l-0.277 0.512 0.277 0.517 0.267-0.523-0.272-0.512zM10.859 4l0.432 0.272 0.432-0.272-0.427-0.277-0.437 0.277zM11.952 4l0.432 0.272 0.437-0.272-0.437-0.277-0.427 0.277z"></path>
<path fill="#ffd83d" d="M12.048 4.005c0 0.115-0.093 0.208-0.208 0.208s-0.208-0.093-0.208-0.208c0-0.115 0.093-0.208 0.208-0.208s0.208 0.093 0.208 0.208z"></path>
<path fill="#ffd83d" d="M12.4 5.333c0 0.309-0.251 0.56-0.56 0.56s-0.56-0.251-0.56-0.56c0-0.309 0.251-0.56 0.56-0.56s0.56 0.251 0.56 0.56z"></path>
<path fill="#ffd83d" d="M11.296 6.277c-0.053 0.907-0.16 1.84-0.517 2.512l0.576-0.235c0.203-0.763 0.245-1.749 0.304-2.219l-0.363-0.059zM12.384 6.277l-0.368 0.059c0.064 0.469 0.107 1.456 0.304 2.219l0.576 0.235c-0.352-0.672-0.459-1.6-0.512-2.512z"></path>
<path fill="#ffd83d" d="M11.84 8.251c-0.693 0-1.2 0.32-1.227 1.152-0.171-0.299-0.88-1.227-1.547-1.104-0.395 0.075-0.747 0.624-0.683 1.248-0.331-0.939-1.285-1.093-1.989-0.533 0.624 0.507 0.901 2.016 1.424 2.667h8.037c0.523-0.651 0.8-2.16 1.424-2.667-0.699-0.56-1.659-0.405-1.984 0.533 0.053-0.624-0.293-1.173-0.693-1.248-0.661-0.123-1.371 0.805-1.541 1.104-0.027-0.827-0.533-1.152-1.227-1.152z"></path>
<path fill="#000" d="M15.845 11.68c0 0.299-1.792 0.624-4.005 0.624s-4.011-0.32-4.011-0.624c0-0.293 1.797-0.453 4.011-0.453 2.208 0 4.005 0.16 4.005 0.453z"></path>
<path fill="#ffd83d" d="M12.027 6.101c0 0.103-0.084 0.187-0.187 0.187s-0.187-0.084-0.187-0.187c0-0.103 0.084-0.187 0.187-0.187s0.187 0.084 0.187 0.187z"></path>
<path fill="#ffd83d" d="M12.037 6.507c0 0.109-0.088 0.197-0.197 0.197s-0.197-0.088-0.197-0.197c0-0.109 0.088-0.197 0.197-0.197s0.197 0.088 0.197 0.197z"></path>
<path fill="#ffd83d" d="M12.059 6.944c0 0.121-0.098 0.219-0.219 0.219s-0.219-0.098-0.219-0.219c0-0.121 0.098-0.219 0.219-0.219s0.219 0.098 0.219 0.219z"></path>
<path fill="#ffd83d" d="M12.091 7.429c0 0.138-0.112 0.251-0.251 0.251s-0.251-0.112-0.251-0.251c0-0.138 0.112-0.251 0.251-0.251s0.251 0.112 0.251 0.251z"></path>
<path fill="#ffd83d" d="M12.112 7.968c0 0.15-0.122 0.272-0.272 0.272s-0.272-0.122-0.272-0.272c0-0.15 0.122-0.272 0.272-0.272s0.272 0.122 0.272 0.272z"></path>
<path fill="#000" d="M11.733 8.491c-0.032 0-0.059 0.027-0.053 0.075l0.032 0.229c0.011 0.080 0.053 0.053 0.069 0 0.011-0.064 0.005-0.107 0.011-0.219 0-0.059-0.032-0.085-0.064-0.085zM11.947 8.491c-0.032 0-0.059 0.027-0.059 0.085 0 0.112 0 0.155 0.011 0.213 0.011 0.064 0.053 0.085 0.069 0l0.027-0.224c0.011-0.053-0.021-0.075-0.048-0.075zM11.536 8.523c-0.029 0-0.053 0.024-0.053 0.053v0c0 0.053 0.016 0.123 0.021 0.203 0.011 0.080 0.069 0.053 0.075 0 0-0.043 0.011-0.117 0-0.208 0-0.032-0.011-0.048-0.032-0.053-0.002-0-0.003-0-0.005-0s-0.004 0-0.006 0l0-0zM12.128 8.523c-0.016 0-0.032 0.016-0.037 0.053-0.001 0.014-0.001 0.029-0.001 0.045 0 0.056 0.004 0.11 0.012 0.163l-0.001-0.006c0 0.053 0.064 0.080 0.069 0 0-0.080 0.021-0.144 0.021-0.197 0-0.032-0.027-0.053-0.053-0.059-0.002-0-0.003-0-0.005-0s-0.004 0-0.006 0l0-0zM11.307 8.613c-0.027 0.005-0.053 0.037-0.043 0.069 0.016 0.069 0.032 0.144 0.032 0.213 0 0.059 0.048 0.037 0.053 0 0.003-0.056 0.005-0.121 0.005-0.186 0-0.009-0-0.019-0-0.028v0.001c0-0.053-0.027-0.075-0.053-0.069zM12.352 8.613c-0.016 0.005-0.032 0.027-0.032 0.069l0.011 0.213c0 0.037 0.053 0.059 0.053 0 0-0.069 0.011-0.144 0.027-0.213 0.011-0.032-0.016-0.064-0.037-0.069-0.002-0.001-0.005-0.001-0.008-0.001s-0.006 0-0.008 0.001l0-0zM9.205 8.624c-0.032 0-0.053 0.037-0.032 0.080 0.032 0.075 0.069 0.117 0.101 0.192 0.027 0.069 0.075 0.027 0.059-0.021l-0.075-0.197c-0.016-0.037-0.037-0.053-0.053-0.053zM14.475 8.624c-0.021 0-0.037 0.016-0.053 0.053-0.048 0.101-0.064 0.149-0.080 0.197-0.011 0.053 0.032 0.091 0.064 0.021l0.096-0.192c0.021-0.043 0-0.080-0.027-0.080zM9.419 8.624c-0.027 0.011-0.037 0.037-0.027 0.069 0.032 0.064 0.069 0.133 0.096 0.203 0.021 0.059 0.075 0.043 0.053-0.011l-0.053-0.197c-0.021-0.053-0.053-0.069-0.069-0.064zM14.245 8.624c-0.021 0.005-0.043 0.027-0.053 0.064-0.037 0.107-0.043 0.139-0.059 0.197-0.021 0.053 0.032 0.069 0.053 0.011l0.096-0.203c0.011-0.032 0-0.059-0.021-0.069-0.002-0.001-0.005-0.001-0.008-0.001s-0.006 0-0.008 0.001l0-0zM9.685 8.677c-0.032 0.005-0.053 0.048-0.032 0.101 0.021 0.064 0.053 0.123 0.085 0.197s0.080 0.059 0.069 0.011c-0.016-0.048-0.027-0.123-0.064-0.24-0.016-0.053-0.037-0.075-0.059-0.069zM13.995 8.677c-0.021 0-0.048 0.016-0.064 0.069-0.032 0.117-0.053 0.192-0.059 0.24-0.016 0.053 0.037 0.064 0.064-0.011 0.032-0.075 0.064-0.133 0.085-0.197 0.021-0.053 0-0.096-0.027-0.101zM9.024 8.715c-0.032 0-0.053 0.053-0.037 0.091 0.027 0.053 0.048 0.075 0.075 0.139 0.032 0.064 0.064 0.016 0.053-0.027-0.016-0.043-0.032-0.091-0.043-0.149-0.011-0.043-0.032-0.053-0.053-0.053zM14.656 8.715c-0.021 0-0.037 0.011-0.053 0.053l-0.037 0.149c-0.011 0.043 0.021 0.091 0.053 0.027 0.027-0.064 0.043-0.080 0.075-0.139 0.016-0.037-0.011-0.085-0.037-0.091zM11.083 8.864c-0.037 0-0.069 0.043-0.053 0.080 0.011 0.064 0.043 0.117 0.059 0.197 0.021 0.069 0.069 0.037 0.064-0.011-0.004-0.079-0.014-0.152-0.028-0.223l0.002 0.010c-0.011-0.037-0.027-0.053-0.048-0.053zM12.597 8.864c-0.016 0-0.037 0.016-0.043 0.053-0.014 0.061-0.026 0.134-0.032 0.208l-0 0.005c0 0.048 0.048 0.080 0.064 0.011l0.064-0.197c0.011-0.037-0.021-0.080-0.053-0.080zM11.84 8.928c-0.043 0-0.048 0.053-0.048 0.091-0.004 0.127-0.043 0.245-0.108 0.344l0.002-0.002c-0.053 0.064-0.123 0.048-0.187 0.011-0.067-0.037-0.125-0.076-0.178-0.119l0.002 0.002c-0.075-0.053-0.128-0.021-0.043 0.101 0.245 0.352 0.512 0.651 0.512 1.227 0 0.069 0.016 0.091 0.048 0.091s0.043-0.021 0.043-0.096c0-0.571 0.267-0.869 0.512-1.227 0.085-0.117 0.032-0.149-0.037-0.096-0.052 0.042-0.109 0.081-0.17 0.114l-0.006 0.003c-0.069 0.037-0.139 0.053-0.187-0.011-0.064-0.096-0.103-0.214-0.107-0.34l-0-0.001c-0.005-0.037-0.011-0.091-0.053-0.091zM9.957 8.843c-0.002-0-0.003-0-0.005-0s-0.004 0-0.006 0l0-0c-0.016 0.005-0.021 0.021-0.016 0.053l0.059 0.208c0.016 0.053 0.075 0.037 0.064-0.027l-0.032-0.165c-0.011-0.043-0.043-0.069-0.064-0.069zM13.723 8.843c-0.027 0-0.053 0.027-0.064 0.069-0.021 0.075-0.021 0.096-0.032 0.16-0.016 0.069 0.048 0.080 0.059 0.032l0.064-0.213c0-0.027-0.005-0.043-0.021-0.048-0.002-0-0.003-0-0.005-0s-0.004 0-0.006 0l0-0zM8.837 8.864c-0.032 0-0.053 0.043-0.021 0.096 0.032 0.064 0.091 0.139 0.117 0.187 0.027 0.043 0.075 0.011 0.043-0.043s-0.043-0.123-0.085-0.203c-0.007-0.022-0.027-0.037-0.051-0.037-0.001 0-0.002 0-0.003 0h0zM14.837 8.864c-0.016 0-0.037 0.011-0.053 0.037-0.037 0.080-0.053 0.144-0.080 0.203-0.032 0.053 0.011 0.085 0.037 0.043 0.027-0.048 0.085-0.123 0.117-0.187 0.032-0.053 0.011-0.096-0.021-0.096zM7.147 9.040c-0.032 0-0.043 0.064-0.011 0.107 0.042 0.053 0.088 0.1 0.137 0.143l0.001 0.001c0.043 0.043 0.053-0.011 0.032-0.053l-0.096-0.144c-0.027-0.037-0.048-0.053-0.064-0.053zM16.528 9.040c-0.016 0-0.037 0.016-0.059 0.053l-0.101 0.144c-0.021 0.043-0.011 0.096 0.037 0.053 0.051-0.044 0.096-0.091 0.137-0.142l0.002-0.002c0.032-0.043 0.021-0.107-0.016-0.107zM7.419 9.093c-0.032 0-0.053 0.021-0.027 0.069l0.101 0.203c0.027 0.053 0.107 0.069 0.075-0.011l-0.069-0.203c-0.016-0.037-0.053-0.053-0.080-0.053zM16.261 9.093c-0.032 0-0.069 0.021-0.085 0.059l-0.064 0.203c-0.032 0.080 0.048 0.064 0.075 0.011s0.069-0.133 0.096-0.203c0.027-0.048 0.005-0.069-0.021-0.069zM6.896 9.115c-0.043 0-0.043 0.037-0.005 0.064 0.048 0.037 0.107 0.075 0.16 0.123 0.069 0.053 0.091 0 0.053-0.043-0.032-0.043-0.064-0.085-0.155-0.133-0.021-0.011-0.037-0.011-0.053-0.011zM16.779 9.115c-0.011 0-0.032 0-0.053 0.011-0.085 0.048-0.123 0.091-0.16 0.133-0.032 0.048-0.005 0.096 0.059 0.043 0.053-0.048 0.117-0.085 0.16-0.123 0.043-0.027 0.037-0.064 0-0.064zM10.933 9.152c-0.027 0-0.043 0.027-0.037 0.064l0.053 0.192c0.011 0.059 0.080 0.059 0.069 0-0.011-0.053-0.016-0.123-0.037-0.208-0.005-0.032-0.021-0.048-0.043-0.053-0.001-0-0.002-0-0.003-0s-0.002 0-0.003 0h0zM12.736 9.152c-0.016 0-0.032 0.016-0.043 0.053-0.021 0.080-0.027 0.149-0.037 0.208-0.011 0.053 0.059 0.053 0.069-0.005l0.053-0.192c0.011-0.037-0.011-0.064-0.032-0.064-0.002-0-0.003-0-0.005-0s-0.004 0-0.006 0l0-0zM9.323 9.045c-0.016 0-0.027 0.037-0.011 0.091 0.054 0.142 0.085 0.307 0.085 0.479 0 0 0 0.001 0 0.001v-0c-0.016 0.064-0.053 0.069-0.101 0.053-0.057-0.028-0.106-0.059-0.152-0.093l0.003 0.002c-0.043-0.027-0.091 0.005-0.027 0.059 0.32 0.267 0.549 0.571 0.64 0.939 0.011 0.075 0.059 0.085 0.048 0-0.075-0.464-0.091-0.848 0.021-1.083 0.043-0.091 0-0.176-0.064-0.032-0.048 0.096-0.117 0.133-0.176 0.053-0.076-0.117-0.148-0.252-0.207-0.394l-0.006-0.017c-0.011-0.037-0.027-0.053-0.043-0.059-0.001-0-0.002-0-0.003-0s-0.002 0-0.003 0h0zM14.341 9.045c-0.016 0-0.032 0.021-0.043 0.053-0.037 0.107-0.155 0.331-0.213 0.416s-0.128 0.043-0.171-0.053c-0.069-0.144-0.107-0.059-0.069 0.032 0.112 0.235 0.096 0.619 0.027 1.083-0.016 0.085 0.032 0.075 0.053 0 0.104-0.385 0.326-0.708 0.625-0.936l0.004-0.003c0.064-0.053 0.016-0.085-0.027-0.053-0.043 0.028-0.092 0.055-0.143 0.078l-0.006 0.002c-0.053 0.021-0.085 0.016-0.101-0.053-0.011-0.064 0.011-0.208 0.091-0.48 0.011-0.043 0-0.080-0.016-0.085-0.002-0.001-0.003-0.001-0.005-0.001s-0.004 0-0.005 0.001l0-0zM7.701 9.173c-0.027 0-0.053 0.021-0.037 0.064 0.021 0.075 0.064 0.149 0.080 0.192 0.016 0.048 0.064 0.027 0.053-0.037l-0.027-0.165c0-0.032-0.037-0.053-0.069-0.053zM15.973 9.173c-0.032 0-0.064 0.021-0.069 0.053l-0.021 0.165c-0.011 0.064 0.037 0.085 0.053 0.037 0.011-0.043 0.053-0.117 0.075-0.192 0.016-0.043-0.005-0.064-0.037-0.064zM8.704 9.083c-0.032-0.005-0.037 0.080-0.011 0.117l0.149 0.165c0.043 0.053 0.069 0.005 0.043-0.037l-0.139-0.203c-0.016-0.027-0.032-0.043-0.043-0.043zM14.971 9.083c-0.011 0-0.027 0.016-0.043 0.043l-0.139 0.203c-0.027 0.043 0 0.091 0.048 0.037l0.144-0.165c0.027-0.037 0.027-0.123-0.011-0.117zM7.931 9.296c-0.021 0-0.037 0.011-0.027 0.053 0.011 0.064 0.027 0.107 0.043 0.165 0.016 0.053 0.053 0.048 0.053-0.005l-0.016-0.171c-0.005-0.026-0.027-0.046-0.053-0.048h-0zM15.744 9.296c-0 0-0.001 0-0.001 0-0.026 0-0.047 0.018-0.052 0.042l-0 0-0.016 0.171c0 0.053 0.043 0.064 0.053 0.005l0.048-0.16c0.011-0.048-0.011-0.064-0.032-0.064zM8.629 9.371c-0.032 0-0.059 0.037-0.021 0.085 0.059 0.080 0.128 0.133 0.155 0.16 0.021 0.032 0.080 0.021 0.043-0.037l-0.123-0.187c-0.011-0.021-0.032-0.027-0.053-0.021zM15.029 9.371c-0.011 0-0.027 0.005-0.032 0.021l-0.128 0.187c-0.037 0.059 0.021 0.069 0.048 0.043 0.021-0.032 0.091-0.085 0.155-0.165 0.037-0.053 0.005-0.085-0.027-0.085-0.002-0-0.003-0-0.005-0s-0.004 0-0.006 0l0-0zM7.525 9.589c-0.021 0-0.032 0.021 0 0.069 0.079 0.096 0.14 0.21 0.175 0.335l0.002 0.006c0.005 0.075-0.027 0.075-0.059 0.075-0.101 0-0.149-0.075-0.235-0.096-0.091-0.016-0.107 0.027-0.043 0.075 0.31 0.198 0.57 0.443 0.778 0.728l0.006 0.008c0.053 0.101 0.123 0.133 0.085 0.043-0.084-0.164-0.133-0.358-0.133-0.564 0-0.038 0.002-0.076 0.005-0.113l-0 0.005c0.027-0.149 0.064-0.245 0.059-0.331 0-0.080-0.053-0.075-0.069 0l-0.053 0.149c-0.021 0.027-0.096 0.043-0.16-0.048-0.093-0.113-0.19-0.214-0.296-0.307l-0.003-0.002c-0.016-0.016-0.037-0.027-0.053-0.032zM16.149 9.589c-0.016 0-0.037 0.011-0.059 0.032-0.106 0.095-0.202 0.196-0.29 0.304l-0.004 0.005c-0.069 0.091-0.144 0.075-0.16 0.053-0.023-0.045-0.041-0.096-0.053-0.15l-0.001-0.004c-0.021-0.075-0.069-0.080-0.075 0 0 0.085 0.032 0.181 0.059 0.331s0 0.384-0.123 0.672c-0.043 0.091 0.032 0.053 0.085-0.043 0.212-0.293 0.471-0.538 0.768-0.729l0.011-0.007c0.064-0.048 0.053-0.091-0.037-0.075-0.091 0.021-0.139 0.096-0.235 0.096-0.032 0-0.069 0-0.064-0.075 0.005-0.069 0.096-0.235 0.176-0.341 0.032-0.053 0.027-0.069 0-0.069z"></path>
<path fill="#ffd83d" d="M8.005 11.344l0.107 0.325M8.219 11.28l0.096 0.331M8.453 11.237l0.064 0.341M8.667 11.2l0.069 0.336M8.939 11.173l0.053 0.341M9.232 11.173l0.059 0.336M9.52 11.077l0.043 0.341M9.787 11.093l0.043 0.341M10.048 11.061l0.043 0.341M10.304 11.029l0.027 0.347M10.587 11.029l0.021 0.347M10.843 11.013l0.016 0.347M11.12 10.997l0.016 0.341M11.44 10.987l0.016 0.347M15.669 11.344l-0.107 0.325M15.456 11.28l-0.091 0.331M15.227 11.237l-0.064 0.341M15.013 11.2l-0.069 0.336M14.731 11.173l-0.053 0.341M14.443 11.173l-0.059 0.341M14.16 11.077l-0.043 0.341M13.888 11.093l-0.043 0.341M13.632 11.061l-0.048 0.341M13.371 11.029l-0.027 0.347M13.088 11.029l-0.021 0.347M12.837 11.013l-0.016 0.347M12.555 10.997l-0.011 0.341M12.235 10.987l-0.011 0.347M11.84 10.96v0.384"></path>
</svg>
