<!-- Generated by IcoMoon.io -->
<svg version="1.1" xmlns="http://www.w3.org/2000/svg" width="43" height="32" viewBox="0 0 43 32">
<title>lk</title>
<path fill="#ffb700" d="M0 0h42.667v32h-42.667z"></path>
<path fill="#ff5b00" d="M1.78 16l5.867-14.22h5.867v28.44h-5.867z"></path>
<path fill="#005641" d="M1.78 1.78h5.867v28.44h-5.867z"></path>
<path fill="#8d2029" d="M15.287 1.78h25.78v28.44h-25.78z"></path>
<path fill="#ffb700" d="M38.62 27.24s0.24 0.487 0.507 0.693c0.4 0.293 1.2 0.267 1.553 0.62 0.407 0.407-0.033 0.947-0.033 1l0.027 0.28s-0.28 0-0.4 0.020c-0.173 0.027-0.24 0.173-0.573 0.153-0.82-0.053-0.787-0.8-0.833-1.433-0.040-0.24-0.133-0.56-0.193-0.8-0.047-0.2-0.053-0.533-0.053-0.533z"></path>
<path fill="#ffb700" d="M17.733 27.24s-0.24 0.487-0.507 0.693c-0.4 0.293-1.2 0.267-1.553 0.62-0.407 0.407 0.033 0.947 0.033 1l-0.027 0.28s0.28 0 0.4 0.020c0.173 0.027 0.24 0.173 0.573 0.153 0.82-0.053 0.787-0.8 0.833-1.433 0.040-0.24 0.133-0.56 0.193-0.8 0.047-0.2 0.053-0.533 0.053-0.533z"></path>
<path fill="#ffb700" d="M38.62 4.76s0.24-0.487 0.507-0.693c0.4-0.293 1.2-0.267 1.553-0.62 0.407-0.407-0.033-0.947-0.033-1l0.027-0.28s-0.28 0-0.4-0.020c-0.173-0.027-0.24-0.173-0.573-0.153-0.82 0.053-0.787 0.8-0.833 1.433-0.040 0.24-0.133 0.56-0.193 0.8-0.047 0.2-0.053 0.533-0.053 0.533z"></path>
<path fill="#ffb700" d="M17.74 4.76s-0.24-0.487-0.507-0.693c-0.4-0.293-1.2-0.267-1.553-0.62-0.407-0.407 0.033-0.947 0.033-1l-0.027-0.28s0.28 0 0.4-0.020c0.173-0.027 0.24-0.173 0.573-0.153 0.82 0.053 0.787 0.8 0.833 1.433 0.040 0.24 0.133 0.56 0.193 0.8 0.047 0.2 0.053 0.533 0.053 0.533z"></path>
<path fill="#000" stroke="#000" stroke-linejoin="miter" stroke-linecap="butt" stroke-miterlimit="4" stroke-width="0.3733" d="M24.233 22.653l0.153-0.093 0.067 0.093c0.087 0.12 0.333 0.113 0.493 0l0.127-0.1 0.107 0.093c0.133 0.127 0.387 0.127 0.553 0 0.113-0.080 0.133-0.087 0.2-0.020 0.047 0.040 0.18 0.080 0.293 0.1 0.213 0.027 0.213 0.027 0.333-0.16 0.107-0.153 0.12-0.213 0.1-0.367-0.016-0.097-0.031-0.218-0.039-0.341l-0.001-0.012c-0.013-0.173-0.007-0.173 0.24-0.267 0.146-0.045 0.266-0.090 0.381-0.142l-0.021 0.009c0.1-0.060 0.38-0.387 0.38-0.453 0-0.013-0.107-0.040-0.24-0.053-0.533-0.067-0.62-0.347-0.273-0.867 0.553-0.867 0.893-1.7 0.893-2.227 0-0.24 0.020-0.32 0.047-0.267 0.127 0.207-0.1 1.093-0.433 1.733l-0.133 0.253 0.127-0.027c0.067-0.020 0.493-0.2 0.933-0.4 1.213-0.547 1.627-0.653 2.413-0.62 0.66 0.027 0.933 0.153 1.4 0.64 0.247 0.267 0.487 0.447 0.92 0.72 0.92 0.573 0.96 0.627 1.007 1.307 0.047 0.687 0.020 0.727-0.5 0.84-0.447 0.1-0.727 0.307-0.8 0.6-0.040 0.147 0.047 0.153 0.267 0.007l0.167-0.107 0.073 0.107c0.1 0.14 0.3 0.14 0.467 0l0.133-0.1 0.133 0.1c0.2 0.167 0.467 0.127 0.547-0.080 0.013-0.033 0.053-0.027 0.133 0.047 0.153 0.133 0.533 0.187 0.573 0.080 0.013-0.040-0.013-0.133-0.067-0.213-0.22-0.333-0.293-0.487-0.293-0.667 0-0.253 0.067-0.38 0.36-0.58 0.347-0.253 0.453-0.573 0.187-0.573-0.16 0-0.327-0.147-0.433-0.38-0.213-0.48-0.167-1.013 0.153-1.907 0.227-0.476 0.36-1.035 0.36-1.624 0-0.020-0-0.039-0-0.059l0 0.003c0-0.493-0.013-0.573-0.12-0.847-0.092-0.207-0.194-0.384-0.313-0.549l0.006 0.009-0.187-0.247 0.233-0.2c0.72-0.593 0.573-1.567-0.293-1.94-0.267-0.12-0.333-0.127-0.8-0.127-0.267 0-0.7 0.040-0.933 0.087-0.282 0.047-0.609 0.076-0.943 0.080l-0.004 0c-0.453 0-0.533-0.013-0.707-0.107-0.18-0.093-0.213-0.14-0.247-0.367-0.007-0.044-0.035-0.081-0.073-0.1l-0.001-0c-0.067-0.020-0.347 0.227-0.387 0.333-0.027 0.060-0.040 0.053-0.1-0.020-0.054-0.069-0.099-0.148-0.131-0.234l-0.002-0.006c-0.067-0.22 0.020-0.38 0.28-0.507l0.2-0.093-0.12-0.073c-0.24-0.153-0.653-0.047-0.8 0.2-0.047 0.067-0.093 0.133-0.107 0.133s-0.093-0.067-0.173-0.153c-0.313-0.307-0.207-0.76 0.213-0.893 0.22-0.073 0.42-0.020 0.46 0.133 0.067 0.22 0.253-0.073 0.22-0.347-0.020-0.18-0.020-0.187 0.107-0.187 0.173 0 0.533 0.227 0.653 0.4 0.133 0.207 0.12 0.533-0.027 0.773l-0.113 0.187 0.153-0.027c0.213-0.047 0.427-0.18 0.533-0.347 0.059-0.108 0.093-0.237 0.093-0.374 0-0.115-0.024-0.225-0.068-0.324l0.002 0.005c-0.1-0.18-0.087-0.207 0.060-0.147 0.24 0.1 0.373 0.213 0.467 0.407 0.093 0.173 0.1 0.213 0.053 0.4-0.035 0.122-0.085 0.228-0.149 0.324l0.003-0.004c-0.080 0.107-0.087 0.127-0.020 0.127 0.12 0 0.36-0.113 0.447-0.2 0.047-0.053 0.113-0.167 0.147-0.267l0.067-0.167 0.067 0.133c0.1 0.18 0.3 0.347 0.54 0.453 0.26 0.107 0.367 0.113 0.233 0.013-0.093-0.067-0.267-0.567-0.207-0.613 0.298 0.169 0.555 0.368 0.779 0.599l0.001 0.001c0.38 0.34 0.62 0.453 0.967 0.453 0.447 0 0.707-0.387 0.507-0.753-0.113-0.213-0.373-0.247-0.533-0.067-0.067 0.087-0.087 0.153-0.067 0.247 0.027 0.107 0.020 0.12-0.080 0.12-0.133 0-0.387-0.167-0.84-0.547-0.606-0.524-1.316-0.946-2.093-1.232l-0.047-0.015c-0.318-0.077-0.682-0.121-1.057-0.121-0.198 0-0.394 0.012-0.586 0.036l0.023-0.002c-0.427 0.080-0.933 0.327-1.213 0.587-0.487 0.467-0.493 1.087-0.020 1.653l0.133 0.16-0.087 0.147c-0.058 0.093-0.093 0.206-0.093 0.327 0 0.138 0.045 0.265 0.121 0.368l-0.001-0.002c0.067 0.093 0.133 0.167 0.153 0.167 0.013 0 0.027-0.060 0.033-0.133 0.013-0.18 0.093-0.3 0.227-0.347 0.12-0.047 0.2-0.020 0.747 0.2 0.58 0.227 1.533 0.24 2.547 0.040 0.192-0.046 0.412-0.073 0.639-0.073 0.247 0 0.486 0.031 0.714 0.091l-0.020-0.004c0.48 0.2 0.587 0.713 0.24 1.1-0.153 0.173-0.293 0.24-0.78 0.373-0.277 0.076-0.595 0.12-0.923 0.12-0.133 0-0.264-0.007-0.393-0.021l0.016 0.001c-0.72-0.007-0.98 0.007-1.267 0.067-0.327 0.067-0.52 0.073-1.453 0.053l-1.087-0.027 0.12 0.093c0.061 0.055 0.129 0.105 0.2 0.15l0.006 0.004c0.087 0.047 0.080 0.053-0.040 0.1-0.067 0.027-0.227 0.047-0.353 0.047h-0.22l-0.027 0.187c-0.009 0.040-0.013 0.086-0.013 0.133s0.005 0.093 0.014 0.138l-0.001-0.004c0.027 0.067 0.013 0.080-0.053 0.053-0.047-0.020-0.173-0.053-0.287-0.073-0.127-0.028-0.239-0.064-0.345-0.111l0.011 0.004c-0.127-0.067-0.14-0.067-0.187 0.020-0.040 0.067-0.413 0.347-0.467 0.347-0.026-0.186-0.078-0.355-0.151-0.511l0.005 0.011c-0.067-0.14-0.127-0.3-0.147-0.347-0.020-0.073-0.033-0.080-0.067-0.020-0.020 0.033-0.047 0.133-0.067 0.213-0.026 0.116-0.067 0.218-0.123 0.311l0.003-0.005-0.1 0.147-0.067-0.127c-0.067-0.133-0.173-0.28-0.213-0.28-0.013 0-0.033 0.040-0.047 0.1-0.033 0.107-0.293 0.42-0.36 0.42-0.020 0-0.040-0.087-0.040-0.2 0-0.1-0.020-0.193-0.047-0.193s-0.047 0.033-0.047 0.067c0 0.080-0.22 0.333-0.3 0.333-0.027 0-0.080 0.027-0.113 0.067-0.080 0.087-0.147 0.073-0.113-0.027 0.002-0.020 0.004-0.042 0.004-0.065 0-0.067-0.011-0.132-0.031-0.192l0.001 0.004-0.067-0.213c-0.013-0.033-0.093-0.020-0.267 0.033-0.267 0.087-0.36 0.067-0.22-0.040 0.053-0.040 0.133-0.18 0.173-0.307 0.047-0.133 0.113-0.247 0.147-0.26 0.047-0.013 0.047 0-0.013 0.080-0.037 0.048-0.063 0.107-0.073 0.171l-0 0.002c0 0.033-0.033 0.12-0.067 0.193-0.040 0.067-0.067 0.133-0.060 0.14s0.113-0.033 0.233-0.087l0.213-0.107v0.093c0 0.053 0.027 0.187 0.060 0.3l0.060 0.2 0.147-0.067c0.147-0.067 0.287-0.307 0.287-0.5 0-0.093 0.053-0.080 0.080 0.020 0 0.027 0.040 0.14 0.067 0.247l0.067 0.187 0.1-0.12c0.060-0.067 0.127-0.2 0.153-0.287 0.053-0.16 0.133-0.233 0.133-0.113 0 0.080 0.227 0.387 0.267 0.36 0.027-0.013 0.067-0.127 0.1-0.253 0.067-0.267 0.167-0.44 0.233-0.4 0.027 0.013 0.033 0.040 0.020 0.067-0.013 0.013 0.040 0.187 0.12 0.373-0.362-0.98-0.303-0.842-0.245-0.703l0.418 1.123c0.027 0.067 0.053 0.067 0.22-0.087 0.1-0.093 0.2-0.193 0.207-0.227 0.020-0.053 0.040-0.047 0.133 0.013 0.183 0.099 0.399 0.166 0.627 0.186l0.006 0c0.013-0.013 0.027-0.133 0.027-0.267l0.007-0.247 0.133 0.027c0.067 0.020 0.22 0.020 0.333 0l0.2-0.027-0.18-0.133c-0.1-0.067-0.2-0.153-0.227-0.193-0.020-0.040-0.113-0.080-0.213-0.087-0.273-0.027-0.76-0.293-0.76-0.427 0-0.027 0.067 0.020 0.147 0.093 0.187 0.167 0.44 0.267 0.667 0.267h0.16l-0.1-0.133c-0.068-0.098-0.116-0.215-0.133-0.343l-0-0.004c-0.013-0.2-0.033-0.227-0.24-0.367-0.124-0.088-0.233-0.183-0.333-0.286l-0.001-0.001-0.113-0.127-0.060 0.153c-0.033 0.087-0.067 0.153-0.087 0.153-0.013 0-0.080-0.053-0.133-0.113-0.037-0.043-0.081-0.079-0.131-0.105l-0.002-0.001c-0.020 0-0.067 0.080-0.12 0.18l-0.093 0.18-0.067-0.1c-0.061-0.084-0.127-0.158-0.199-0.226l-0.001-0.001c-0.080-0.067-0.113-0.12-0.087-0.12s0.113 0.067 0.2 0.153l0.147 0.153 0.067-0.113c0.026-0.051 0.041-0.112 0.041-0.176 0-0.027-0.003-0.054-0.008-0.080l0 0.003c-0.027-0.12-0.020-0.127 0.020-0.047 0.058 0.076 0.124 0.142 0.198 0.198l0.003 0.002 0.147 0.12 0.1-0.18c0.1-0.187 0.1-0.187 0.14-0.073 0.067 0.14 0.5 0.5 0.867 0.707 0.067 0.033 0.040-0.073-0.067-0.333-0.030-0.079-0.050-0.17-0.053-0.265l-0-0.002c0-0.12-0.033-0.173-0.187-0.293-0.189-0.122-0.316-0.324-0.333-0.558l-0-0.002c-0.020-0.113-0.060-0.233-0.093-0.273-0.040-0.067-0.053-0.027-0.040 0.173 0.013 0.14-0.007 0.313-0.040 0.387l-0.053 0.133-0.040-0.113c-0.027-0.060-0.133-0.167-0.233-0.233s-0.173-0.133-0.16-0.147c0.013-0.013 0.12 0.047 0.233 0.133 0.18 0.14 0.213 0.153 0.24 0.093 0.027-0.067 0-0.373-0.053-0.587-0.027-0.107-0.027-0.107 0.107 0.027 0.093 0.093 0.147 0.213 0.193 0.413 0.053 0.253 0.080 0.3 0.313 0.507 0.14 0.127 0.267 0.22 0.273 0.213 0.013-0.013 0.027-0.333 0.040-0.72 0.027-0.74 0-0.92-0.18-1.147l-0.093-0.12 0.147-0.153c0.16-0.153 0.272-0.354 0.312-0.58l0.001-0.007 0.027-0.18-0.16 0.153c-0.133 0.127-0.2 0.153-0.353 0.153s-0.213-0.027-0.313-0.133c-0.151-0.146-0.337-0.256-0.544-0.318l-0.009-0.002c-0.080-0.027-0.107-0.013-0.107 0.040 0 0.040-0.040 0.147-0.093 0.247l-0.093 0.173-0.2-0.2c-0.127-0.113-0.267-0.213-0.38-0.24-0.273-0.067-0.287-0.067-0.287 0.14 0 0.313-0.133 0.373-0.373 0.167-0.187-0.16-0.333-0.2-0.687-0.153l-0.267 0.027 0.047 0.12c0.040 0.1 0.033 0.147-0.053 0.26-0.14 0.187-0.32 0.267-0.6 0.267-0.133 0-0.293 0.027-0.36 0.060s-0.24 0.067-0.38 0.080c-0.133 0.013-0.287 0.040-0.333 0.053-0.067 0.027-0.067 0-0.047-0.147 0.033-0.227-0.133-0.4-0.38-0.4-0.327 0-0.473 0.293-0.347 0.68 0.021 0.062 0.044 0.147 0.063 0.234l0.004 0.020c0.091 0.172 0.207 0.317 0.345 0.439l0.002 0.001c0.173 0.173 0.333 0.353 0.36 0.4 0.054 0.069 0.12 0.125 0.197 0.165l0.003 0.002 0.147 0.080-0.020-0.16c-0.020-0.173 0.013-0.2 0.107-0.073 0.033 0.040 0.12 0.113 0.187 0.153 0.113 0.067 0.133 0.067 0.133 0.013 0-0.040 0.020-0.127 0.047-0.193l0.047-0.12 0.087 0.167c0.047 0.093 0.2 0.3 0.34 0.467 0.273 0.313 0.447 0.667 0.36 0.747-0.040 0.033-0.133 0.033-0.333-0.007-0.147-0.027-0.333-0.047-0.413-0.033-0.153 0.020-0.167 0-0.067-0.12 0.1-0.133 0.080-0.153-0.12-0.153-0.233 0-0.813-0.113-1.040-0.2-0.213-0.087-0.267-0.067-0.333 0.14l-0.113 0.373-0.067 0.2 0.24-0.020c0.138-0.015 0.263-0.038 0.384-0.071l-0.017 0.004c0.038-0.013 0.081-0.021 0.126-0.021 0.007 0 0.014 0 0.021 0.001l-0.001-0c0.013 0.007-0.020 0.087-0.067 0.18l-0.093 0.16 0.147-0.027c0.080-0.020 0.2-0.060 0.267-0.093 0.12-0.053 0.133-0.053 0.227 0.1 0.113 0.18 0.2 0.173 0.22-0.020 0.020-0.2 0.087-0.173 0.213 0.093 0.12 0.253 0.24 0.347 0.267 0.2 0.007-0.053 0.067-0.133 0.14-0.187 0.147-0.1 0.253-0.067 0.313 0.087 0.067 0.167-0.080 0.333-0.493 0.587-0.762 0.427-1.303 1.172-1.445 2.050l-0.002 0.016c-0.127 0.787 0.267 1.6 1.040 2.193 0.373 0.28 0.967 0.573 0.927 0.467-0.16-0.487-0.153-1.4 0.007-1.553 0.027-0.027 0.020 0.067-0.020 0.207-0.133 0.527-0.067 0.94 0.267 1.913 0.293 0.88 0.253 1.26-0.173 1.507-0.133 0.080-0.22 0.093-0.587 0.087-0.4 0-0.447 0-0.573 0.107-0.148 0.151-0.251 0.348-0.286 0.567l-0.001 0.006c0 0.087 0.093 0.073 0.267-0.027z"></path>
<path fill="#000" stroke="#000" stroke-linejoin="miter" stroke-linecap="butt" stroke-miterlimit="4" stroke-width="0.3733" d="M30.7 22.633l0.167-0.107 0.113 0.107c0.147 0.14 0.327 0.133 0.467-0.007 0.067-0.067 0.12-0.107 0.127-0.1l0.060 0.107c0.033 0.060 0.107 0.087 0.24 0.1 0.153 0.007 0.2 0 0.267-0.093l0.067-0.113 0.167 0.107c0.453 0.293 0.693-0.013 0.487-0.62-0.1-0.307-0.040-0.48 0.287-0.867 0.14-0.167 0.253-0.347 0.253-0.4 0-0.073-0.027-0.087-0.213-0.080-0.173 0-0.227-0.020-0.32-0.12-0.153-0.167-0.14-0.36 0.027-0.573l0.133-0.167-0.24-0.16c-0.198-0.147-0.372-0.302-0.532-0.471l-0.002-0.002c-0.287-0.337-0.697-0.56-1.16-0.6l-0.006-0-0.313-0.033v0.24c0 0.3 0.147 0.593 0.533 1.087 0.44 0.56 0.467 0.647 0.487 1.38l0.020 0.62-0.133 0.12c-0.113 0.107-0.16 0.127-0.533 0.147-0.353 0.020-0.433 0.040-0.533 0.133-0.115 0.084-0.196 0.207-0.226 0.35l-0.001 0.004c-0.020 0.1-0.013 0.12 0.060 0.12 0.047 0 0.16-0.047 0.253-0.107zM21.22 21.033c0.039-0.056 0.063-0.125 0.067-0.199l0-0.001c0-0.067 0.040-0.093 0.213-0.12l0.207-0.027-0.133-0.113c-0.167-0.133-0.187-0.233-0.040-0.233s0.387-0.147 0.427-0.26c0.020-0.053 0-0.12-0.027-0.153-0.080-0.093-0.233-0.080-0.26 0.027-0.033 0.107-0.080 0.107-0.2 0-0.167-0.167-0.173-0.507 0-0.707 0.073-0.093 0.073-0.093-0.027-0.193-0.107-0.107-0.187-0.307-0.133-0.36 0.013-0.013 0.1 0 0.187 0.033 0.133 0.040 0.18 0.040 0.233 0 0.153-0.127-0.013-0.287-0.267-0.247-0.107 0.013-0.147 0-0.16-0.053-0.013-0.040-0.1-0.093-0.2-0.12-0.18-0.047-0.18-0.047-0.18 0.080 0 0.133-0.080 0.16-0.227 0.073-0.12-0.067-0.233-0.013-0.233 0.113 0 0.12 0.113 0.173 0.333 0.16 0.16-0.007 0.167 0.113 0.013 0.287l-0.113 0.133 0.087 0.127c0.133 0.187 0.12 0.5-0.020 0.66l-0.113 0.12-0.073-0.1c-0.107-0.133-0.247-0.127-0.287 0.020-0.020 0.093 0 0.133 0.12 0.24 0.080 0.067 0.2 0.12 0.26 0.12 0.153 0 0.147 0.127-0.013 0.247l-0.133 0.1 0.2 0.027c0.107 0.020 0.2 0.047 0.2 0.067 0 0.087 0.133 0.347 0.173 0.347 0.027 0 0.080-0.047 0.12-0.1z"></path>
<path fill="#000" stroke="#000" stroke-linejoin="miter" stroke-linecap="butt" stroke-miterlimit="4" stroke-width="0.3733" d="M23.767 19.927c0.18-0.067 0.567-0.4 0.567-0.473 0-0.027-0.107-0.147-0.24-0.267-0.267-0.24-0.567-0.66-0.647-0.9-0.040-0.133-0.233-0.347-0.78-0.88l-0.727-0.7-0.207 0.053c-0.12 0.027-0.26 0.053-0.313 0.053-0.1 0-0.1 0 0.033 0.107l0.133 0.107 0.2-0.107c0.18-0.107 0.187-0.107 0.207-0.020 0.013 0.047-0.013 0.133-0.067 0.193-0.047 0.060-0.073 0.133-0.067 0.153 0.020 0.020-0.027 0.067-0.1 0.107-0.133 0.067-0.233 0.287-0.127 0.287 0.1 0 0.313-0.267 0.287-0.353-0.013-0.047 0-0.093 0.013-0.107 0.087-0.047 0.080 0.16 0 0.267-0.053 0.053-0.080 0.12-0.067 0.147 0.013 0.020-0.033 0.067-0.107 0.107-0.133 0.067-0.233 0.287-0.127 0.287s0.313-0.253 0.293-0.347c-0.013-0.047-0.013-0.1 0.007-0.113 0.060-0.027 0.087 0.133 0.040 0.213-0.012 0.021-0.019 0.046-0.019 0.073s0.007 0.052 0.019 0.074l-0-0.001c0.047 0.087 0 0.247-0.087 0.3-0.033 0.020-0.013 0.067 0.080 0.133 0.133 0.093 0.133 0.107 0.133 0.533 0 0.36 0.013 0.453 0.080 0.513 0.067 0.067 0.080 0.067 0.080 0s0.133-0.16 0.233-0.16c0.033 0 0.227 0.167 0.433 0.367s0.427 0.38 0.487 0.387l0.147 0.027c0.020 0 0.113-0.020 0.207-0.067zM21.547 18.187c0-0.113-0.24-0.24-0.527-0.267-0.233-0.033-0.233-0.027-0.233 0.087 0 0.093 0.033 0.133 0.2 0.2 0.253 0.113 0.56 0.1 0.56-0.020z"></path>
<path fill="#000" stroke="#000" stroke-linejoin="miter" stroke-linecap="butt" stroke-miterlimit="4" stroke-width="0.3733" d="M21.807 18.173c0.12-0.107 0.173-0.227 0.1-0.227-0.080 0-0.293 0.187-0.293 0.267 0 0.107 0.040 0.1 0.2-0.040zM21.56 17.833c0.007-0.067-0.033-0.107-0.153-0.167-0.267-0.113-0.573-0.173-0.647-0.113-0.14 0.113-0.047 0.26 0.173 0.287 0.093 0.007 0.213 0.033 0.273 0.060 0.173 0.067 0.333 0.033 0.353-0.067zM21.56 17.48c0.013-0.087-0.047-0.12-0.533-0.293-0.367-0.133-0.527-0.067-0.407 0.153 0.040 0.073 0.107 0.107 0.26 0.133 0.113 0.013 0.267 0.047 0.34 0.073 0.2 0.067 0.32 0.040 0.333-0.067zM21.8 17.153c0.073-0.073 0.133-0.16 0.133-0.2 0-0.1-0.287 0.087-0.327 0.22-0.040 0.153 0.033 0.147 0.2-0.020zM21.56 17.133c0.013-0.107-0.16-0.2-0.507-0.273-0.26-0.060-0.373-0.027-0.353 0.093 0.013 0.067 0.1 0.113 0.333 0.187 0.393 0.12 0.507 0.12 0.527-0.007zM21.893 16.64c0.453-0.2 0.487-0.7 0.067-0.833-0.173-0.053-0.28-0.020-0.347 0.093-0.053 0.093-0.020 0.253 0.047 0.253 0.027 0 0.047 0.033 0.047 0.067 0 0.18-0.68 0.253-0.96 0.113-0.1-0.047-0.133-0.18-0.060-0.18 0.067 0 0.107-0.133 0.073-0.22-0.040-0.133-0.173-0.173-0.353-0.12-0.42 0.107-0.407 0.6 0.020 0.8 0.229 0.087 0.495 0.137 0.772 0.137 0.248 0 0.487-0.040 0.711-0.115l-0.016 0.005z"></path>
<path fill="#000" stroke="#000" stroke-linejoin="miter" stroke-linecap="butt" stroke-miterlimit="4" stroke-width="0.3733" d="M21.62 16.253c0.027-0.027 0.013-0.067-0.027-0.093-0.093-0.073-0.087-0.187 0.013-0.313 0.080-0.093 0.087-0.24 0.113-1.673 0.047-2.473 0.233-4.333 0.473-4.787 0.1-0.173 0.087-0.173-0.167 0-0.331 0.232-0.595 0.537-0.774 0.893l-0.006 0.014c-0.413 0.767-0.553 1.8-0.553 4.013 0 1.253 0.007 1.42 0.080 1.533 0.067 0.12 0.067 0.16 0.027 0.28-0.033 0.073-0.047 0.153-0.033 0.167 0.093 0.087 0.76 0.067 0.853-0.033zM25.36 13.893c0.020-0.020-0.013-0.133-0.067-0.24-0.080-0.173-0.113-0.2-0.227-0.2-0.567-0.050-1.087-0.203-1.558-0.438l0.025 0.011c-0.34-0.153-0.467-0.187-0.5-0.147-0.107 0.1 0.067 0.333 0.333 0.46 0.36 0.134 0.776 0.222 1.209 0.246l0.011 0c0.18 0 0.187 0 0.080 0.153l-0.067 0.107h0.2l0.333 0.040c0.2 0.047 0.2 0.047 0.227 0.007z"></path>
<path fill="#000" stroke="#000" stroke-linejoin="miter" stroke-linecap="butt" stroke-miterlimit="4" stroke-width="0.3733" d="M27.467 15.007c0-0.067-0.193-0.233-0.38-0.347-0.153-0.087-0.18-0.093-0.18-0.020 0 0.107-0.093 0.38-0.133 0.38-0.020 0-0.053-0.053-0.067-0.113-0.020-0.067-0.093-0.2-0.167-0.287l-0.133-0.167-0.093 0.153c-0.093 0.147-0.26 0.287-0.333 0.287-0.013 0-0.020-0.080 0-0.167 0.007-0.107 0-0.187-0.033-0.2-0.027-0.020-0.053-0.013-0.053 0.013 0 0.053-0.227 0.307-0.267 0.307-0.027 0-0.053-0.067-0.067-0.16l-0.053-0.32c-0.013-0.080 0.020-0.027 0.067 0.133l0.107 0.273 0.107-0.167c0.046-0.065 0.083-0.14 0.105-0.222l0.001-0.005c0-0.033 0.020-0.047 0.047-0.033s0.060 0.127 0.073 0.247l0.033 0.227 0.12-0.133c0.061-0.064 0.117-0.134 0.169-0.207l0.004-0.006c0.047-0.080 0.053-0.080 0.153 0 0.053 0.053 0.14 0.167 0.193 0.26s0.1 0.16 0.107 0.153l0.040-0.213 0.027-0.2c0.007-0.033 0.36 0.2 0.493 0.313 0.080 0.073 0.16 0.127 0.173 0.113s0.027-0.12 0.027-0.247c0-0.187-0.020-0.24-0.133-0.34-0.133-0.12-0.133-0.12-0.187-0.033-0.067 0.113-0.14 0.113-0.14 0 0-0.080-0.253-0.393-0.313-0.393-0.020 0-0.073 0.067-0.12 0.153s-0.1 0.153-0.113 0.153c-0.067 0-0.42-0.4-0.42-0.467 0-0.053 0.027-0.040 0.087 0.053 0.062 0.090 0.13 0.169 0.206 0.239l0.001 0.001c0.133 0.12 0.187 0.093 0.24-0.14 0.020-0.067 0.047-0.12 0.067-0.12 0.053 0 0.36 0.327 0.4 0.433l0.047 0.107 0.033-0.12c0.040-0.147 0.087-0.147 0.153-0.013 0.027 0.053 0.16 0.173 0.293 0.253l0.247 0.16 0.047-0.16c0.027-0.087 0.067-0.133 0.080-0.107 0.027 0.033-0.040 0.3-0.087 0.353 0 0.007-0.087-0.040-0.173-0.1l-0.167-0.12v0.213c0 0.113-0.013 0.253-0.027 0.307-0.033 0.107-0.113 0.133-0.113 0.040zM26.233 13.313c-0.293-0.24-0.333-0.293-0.333-0.413l0.007-0.12 0.020 0.113c0.013 0.067 0.093 0.173 0.187 0.253l0.173 0.133 0.1-0.12c0.060-0.067 0.107-0.147 0.107-0.173 0-0.080 0.013-0.073 0.213 0.1 0.173 0.153 0.18 0.153 0.2 0.053 0.020-0.053 0.013-0.16 0-0.233-0.067-0.2-0.053-0.227 0.033-0.107l0.16 0.187c0.067 0.073 0.073 0.073 0.1-0.020 0.020-0.060 0.033-0.16 0.033-0.227v-0.127l0.153 0.18c0.153 0.173 0.167 0.18 0.207 0.093 0.033-0.047 0.053-0.16 0.053-0.247 0-0.12 0.013-0.147 0.040-0.107 0.053 0.080 0.020 0.28-0.073 0.453l-0.067 0.133-0.087-0.14c-0.113-0.173-0.153-0.173-0.22 0.013-0.067 0.18-0.113 0.193-0.18 0.053-0.040-0.087-0.053-0.073-0.080 0.113l-0.033 0.2-0.4-0.307-0.1 0.1c-0.047 0.060-0.087 0.133-0.087 0.16 0 0.067-0.053 0.067-0.127 0zM28.833 12.407c-0.1-0.093-0.173-0.187-0.16-0.2 0.020-0.020 0.033-0.027 0.040-0.013 0.065 0.069 0.131 0.135 0.198 0.198l0.002 0.002c0.227 0.24 0.18 0.247-0.073 0.013zM25.367 12.047c-0.093-0.133-0.087-0.213 0.033-0.36 0.080-0.1 0.12-0.113 0.267-0.093 0.1 0.007 0.307 0.093 0.46 0.187 0.207 0.126 0.457 0.2 0.725 0.2 0.003 0 0.006 0 0.009-0h-0l-0.113-0.187c-0.147-0.22-0.147-0.247 0.027-0.113 0.173 0.14 0.38 0.18 0.847 0.167l0.227-0.007-0.133-0.133c-0.18-0.18-0.127-0.2 0.080-0.020 0.187 0.167 0.18 0.18-0.227 0.22-0.046 0.005-0.1 0.008-0.154 0.008-0.125 0-0.247-0.015-0.363-0.043l0.010 0.002c-0.227-0.067-0.24-0.060-0.193 0.013 0.027 0.047 0.067 0.080 0.087 0.080 0.027 0 0.047 0.027 0.047 0.053 0 0.087-0.493 0.007-0.733-0.107-0.533-0.273-0.6-0.3-0.733-0.26-0.072 0.028-0.129 0.083-0.159 0.152l-0.001 0.002c-0.087 0.22 0.227 0.393 0.353 0.2 0.040-0.060 0.033-0.093-0.033-0.167-0.093-0.093-0.080-0.107 0.040-0.067 0.087 0.033 0.093 0.24 0.013 0.32-0.087 0.087-0.3 0.067-0.38-0.047z"></path>
<path fill="#000" stroke="#000" stroke-linejoin="miter" stroke-linecap="butt" stroke-miterlimit="4" stroke-width="0.3733" d="M27.493 11.507c-0.067-0.067-0.013-0.080 0.287-0.087 0.373-0.007 0.6-0.067 0.867-0.24 0.213-0.133 0.273-0.107 0.067 0.033-0.18 0.133-0.467 0.227-0.753 0.253l-0.34 0.047c-0.053 0.013-0.113 0.007-0.133-0.007z"></path>
<path fill="#ffb700" d="M24.233 22.653l0.153-0.093 0.067 0.093c0.087 0.12 0.333 0.113 0.493 0l0.127-0.1 0.107 0.093c0.133 0.127 0.387 0.127 0.553 0 0.113-0.080 0.133-0.087 0.2-0.020 0.047 0.040 0.18 0.080 0.293 0.1 0.213 0.027 0.213 0.027 0.333-0.16 0.107-0.153 0.12-0.213 0.1-0.367-0.016-0.097-0.031-0.218-0.039-0.341l-0.001-0.012c-0.013-0.173-0.007-0.173 0.24-0.267 0.146-0.045 0.266-0.090 0.381-0.142l-0.021 0.009c0.1-0.060 0.38-0.387 0.38-0.453 0-0.013-0.107-0.040-0.24-0.053-0.533-0.067-0.62-0.347-0.273-0.867 0.553-0.867 0.893-1.7 0.893-2.227 0-0.24 0.020-0.32 0.047-0.267 0.127 0.207-0.1 1.093-0.433 1.733l-0.133 0.253 0.127-0.027c0.067-0.020 0.493-0.2 0.933-0.4 1.213-0.547 1.627-0.653 2.413-0.62 0.66 0.027 0.933 0.153 1.4 0.64 0.247 0.267 0.487 0.447 0.92 0.72 0.92 0.573 0.96 0.627 1.007 1.307 0.047 0.687 0.020 0.727-0.5 0.84-0.447 0.1-0.727 0.307-0.8 0.6-0.040 0.147 0.047 0.153 0.267 0.007l0.167-0.107 0.073 0.107c0.1 0.14 0.3 0.14 0.467 0l0.133-0.1 0.133 0.1c0.2 0.167 0.467 0.127 0.547-0.080 0.013-0.033 0.053-0.027 0.133 0.047 0.153 0.133 0.533 0.187 0.573 0.080 0.013-0.040-0.013-0.133-0.067-0.213-0.22-0.333-0.293-0.487-0.293-0.667 0-0.253 0.067-0.38 0.36-0.58 0.347-0.253 0.453-0.573 0.187-0.573-0.16 0-0.327-0.147-0.433-0.38-0.213-0.48-0.167-1.013 0.153-1.907 0.227-0.476 0.36-1.035 0.36-1.624 0-0.020-0-0.039-0-0.059l0 0.003c0-0.493-0.013-0.573-0.12-0.847-0.092-0.207-0.194-0.384-0.313-0.549l0.006 0.009-0.187-0.247 0.233-0.2c0.72-0.593 0.573-1.567-0.293-1.94-0.267-0.12-0.333-0.127-0.8-0.127-0.267 0-0.7 0.040-0.933 0.087-0.282 0.047-0.609 0.076-0.943 0.080l-0.004 0c-0.453 0-0.533-0.013-0.707-0.107-0.18-0.093-0.213-0.14-0.247-0.367-0.007-0.044-0.035-0.081-0.073-0.1l-0.001-0c-0.067-0.020-0.347 0.227-0.387 0.333-0.027 0.060-0.040 0.053-0.1-0.020-0.054-0.069-0.099-0.148-0.131-0.234l-0.002-0.006c-0.067-0.22 0.020-0.38 0.28-0.507l0.2-0.093-0.12-0.073c-0.24-0.153-0.653-0.047-0.8 0.2-0.047 0.067-0.093 0.133-0.107 0.133s-0.093-0.067-0.173-0.153c-0.313-0.307-0.207-0.76 0.213-0.893 0.22-0.073 0.42-0.020 0.46 0.133 0.067 0.22 0.253-0.073 0.22-0.347-0.020-0.18-0.020-0.187 0.107-0.187 0.173 0 0.533 0.227 0.653 0.4 0.133 0.207 0.12 0.533-0.027 0.773l-0.113 0.187 0.153-0.027c0.213-0.047 0.427-0.18 0.533-0.347 0.059-0.108 0.093-0.237 0.093-0.374 0-0.115-0.024-0.225-0.068-0.324l0.002 0.005c-0.1-0.18-0.087-0.207 0.060-0.147 0.24 0.1 0.373 0.213 0.467 0.407 0.093 0.173 0.1 0.213 0.053 0.4-0.035 0.122-0.085 0.228-0.149 0.324l0.003-0.004c-0.080 0.107-0.087 0.127-0.020 0.127 0.12 0 0.36-0.113 0.447-0.2 0.047-0.053 0.113-0.167 0.147-0.267l0.067-0.167 0.067 0.133c0.1 0.18 0.3 0.347 0.54 0.453 0.26 0.107 0.367 0.113 0.233 0.013-0.093-0.067-0.267-0.567-0.207-0.613 0.298 0.169 0.555 0.368 0.779 0.599l0.001 0.001c0.38 0.34 0.62 0.453 0.967 0.453 0.447 0 0.707-0.387 0.507-0.753-0.113-0.213-0.373-0.247-0.533-0.067-0.067 0.087-0.087 0.153-0.067 0.247 0.027 0.107 0.020 0.12-0.080 0.12-0.133 0-0.387-0.167-0.84-0.547-0.606-0.524-1.316-0.946-2.093-1.232l-0.047-0.015c-0.318-0.077-0.682-0.121-1.057-0.121-0.198 0-0.394 0.012-0.586 0.036l0.023-0.002c-0.427 0.080-0.933 0.327-1.213 0.587-0.487 0.467-0.493 1.087-0.020 1.653l0.133 0.16-0.087 0.147c-0.058 0.093-0.093 0.206-0.093 0.327 0 0.138 0.045 0.265 0.121 0.368l-0.001-0.002c0.067 0.093 0.133 0.167 0.153 0.167 0.013 0 0.027-0.060 0.033-0.133 0.013-0.18 0.093-0.3 0.227-0.347 0.12-0.047 0.2-0.020 0.747 0.2 0.58 0.227 1.533 0.24 2.547 0.040 0.192-0.046 0.412-0.073 0.639-0.073 0.247 0 0.486 0.031 0.714 0.091l-0.020-0.004c0.48 0.2 0.587 0.713 0.24 1.1-0.153 0.173-0.293 0.24-0.78 0.373-0.277 0.076-0.595 0.12-0.923 0.12-0.133 0-0.264-0.007-0.393-0.021l0.016 0.001c-0.72-0.007-0.98 0.007-1.267 0.067-0.327 0.067-0.52 0.073-1.453 0.053l-1.087-0.027 0.12 0.093c0.061 0.055 0.129 0.105 0.2 0.15l0.006 0.004c0.087 0.047 0.080 0.053-0.040 0.1-0.067 0.027-0.227 0.047-0.353 0.047h-0.22l-0.027 0.187c-0.009 0.040-0.013 0.086-0.013 0.133s0.005 0.093 0.014 0.138l-0.001-0.004c0.027 0.067 0.013 0.080-0.053 0.053-0.047-0.020-0.173-0.053-0.287-0.073-0.127-0.028-0.239-0.064-0.345-0.111l0.011 0.004c-0.127-0.067-0.14-0.067-0.187 0.020-0.040 0.067-0.413 0.347-0.467 0.347-0.026-0.186-0.078-0.355-0.151-0.511l0.005 0.011c-0.067-0.14-0.127-0.3-0.147-0.347-0.020-0.073-0.033-0.080-0.067-0.020-0.020 0.033-0.047 0.133-0.067 0.213-0.026 0.116-0.067 0.218-0.123 0.311l0.003-0.005-0.1 0.147-0.067-0.127c-0.067-0.133-0.173-0.28-0.213-0.28-0.013 0-0.033 0.040-0.047 0.1-0.033 0.107-0.293 0.42-0.36 0.42-0.020 0-0.040-0.087-0.040-0.2 0-0.1-0.020-0.193-0.047-0.193s-0.047 0.033-0.047 0.067c0 0.080-0.22 0.333-0.3 0.333-0.027 0-0.080 0.027-0.113 0.067-0.080 0.087-0.147 0.073-0.113-0.027 0.002-0.020 0.004-0.042 0.004-0.065 0-0.067-0.011-0.132-0.031-0.192l0.001 0.004-0.067-0.213c-0.013-0.033-0.093-0.020-0.267 0.033-0.267 0.087-0.36 0.067-0.22-0.040 0.053-0.040 0.133-0.18 0.173-0.307 0.047-0.133 0.113-0.247 0.147-0.26 0.047-0.013 0.047 0-0.013 0.080-0.037 0.048-0.063 0.107-0.073 0.171l-0 0.002c0 0.033-0.033 0.12-0.067 0.193-0.040 0.067-0.067 0.133-0.060 0.14s0.113-0.033 0.233-0.087l0.213-0.107v0.093c0 0.053 0.027 0.187 0.060 0.3l0.060 0.2 0.147-0.067c0.147-0.067 0.287-0.307 0.287-0.5 0-0.093 0.053-0.080 0.080 0.020 0 0.027 0.040 0.14 0.067 0.247l0.067 0.187 0.1-0.12c0.060-0.067 0.127-0.2 0.153-0.287 0.053-0.16 0.133-0.233 0.133-0.113 0 0.080 0.227 0.387 0.267 0.36 0.027-0.013 0.067-0.127 0.1-0.253 0.067-0.267 0.167-0.44 0.233-0.4 0.027 0.013 0.033 0.040 0.020 0.067-0.013 0.013 0.040 0.187 0.12 0.373-0.362-0.98-0.303-0.842-0.245-0.703l0.418 1.123c0.027 0.067 0.053 0.067 0.22-0.087 0.1-0.093 0.2-0.193 0.207-0.227 0.020-0.053 0.040-0.047 0.133 0.013 0.183 0.099 0.399 0.166 0.627 0.186l0.006 0c0.013-0.013 0.027-0.133 0.027-0.267l0.007-0.247 0.133 0.027c0.067 0.020 0.22 0.020 0.333 0l0.2-0.027-0.18-0.133c-0.1-0.067-0.2-0.153-0.227-0.193-0.020-0.040-0.113-0.080-0.213-0.087-0.273-0.027-0.76-0.293-0.76-0.427 0-0.027 0.067 0.020 0.147 0.093 0.187 0.167 0.44 0.267 0.667 0.267h0.16l-0.1-0.133c-0.068-0.098-0.116-0.215-0.133-0.343l-0-0.004c-0.013-0.2-0.033-0.227-0.24-0.367-0.124-0.088-0.233-0.183-0.333-0.286l-0.001-0.001-0.113-0.127-0.060 0.153c-0.033 0.087-0.067 0.153-0.087 0.153-0.013 0-0.080-0.053-0.133-0.113-0.037-0.043-0.081-0.079-0.131-0.105l-0.002-0.001c-0.020 0-0.067 0.080-0.12 0.18l-0.093 0.18-0.067-0.1c-0.061-0.084-0.127-0.158-0.199-0.226l-0.001-0.001c-0.080-0.067-0.113-0.12-0.087-0.12s0.113 0.067 0.2 0.153l0.147 0.153 0.067-0.113c0.026-0.051 0.041-0.112 0.041-0.176 0-0.027-0.003-0.054-0.008-0.080l0 0.003c-0.027-0.12-0.020-0.127 0.020-0.047 0.058 0.076 0.124 0.142 0.198 0.198l0.003 0.002 0.147 0.12 0.1-0.18c0.1-0.187 0.1-0.187 0.14-0.073 0.067 0.14 0.5 0.5 0.867 0.707 0.067 0.033 0.040-0.073-0.067-0.333-0.030-0.079-0.050-0.17-0.053-0.265l-0-0.002c0-0.12-0.033-0.173-0.187-0.293-0.189-0.122-0.316-0.324-0.333-0.558l-0-0.002c-0.020-0.113-0.060-0.233-0.093-0.273-0.040-0.067-0.053-0.027-0.040 0.173 0.013 0.14-0.007 0.313-0.040 0.387l-0.053 0.133-0.040-0.113c-0.027-0.060-0.133-0.167-0.233-0.233s-0.173-0.133-0.16-0.147c0.013-0.013 0.12 0.047 0.233 0.133 0.18 0.14 0.213 0.153 0.24 0.093 0.027-0.067 0-0.373-0.053-0.587-0.027-0.107-0.027-0.107 0.107 0.027 0.093 0.093 0.147 0.213 0.193 0.413 0.053 0.253 0.080 0.3 0.313 0.507 0.14 0.127 0.267 0.22 0.273 0.213 0.013-0.013 0.027-0.333 0.040-0.72 0.027-0.74 0-0.92-0.18-1.147l-0.093-0.12 0.147-0.153c0.16-0.153 0.272-0.354 0.312-0.58l0.001-0.007 0.027-0.18-0.16 0.153c-0.133 0.127-0.2 0.153-0.353 0.153s-0.213-0.027-0.313-0.133c-0.151-0.146-0.337-0.256-0.544-0.318l-0.009-0.002c-0.080-0.027-0.107-0.013-0.107 0.040 0 0.040-0.040 0.147-0.093 0.247l-0.093 0.173-0.2-0.2c-0.127-0.113-0.267-0.213-0.38-0.24-0.273-0.067-0.287-0.067-0.287 0.14 0 0.313-0.133 0.373-0.373 0.167-0.187-0.16-0.333-0.2-0.687-0.153l-0.267 0.027 0.047 0.12c0.040 0.1 0.033 0.147-0.053 0.26-0.14 0.187-0.32 0.267-0.6 0.267-0.133 0-0.293 0.027-0.36 0.060s-0.24 0.067-0.38 0.080c-0.133 0.013-0.287 0.040-0.333 0.053-0.067 0.027-0.067 0-0.047-0.147 0.033-0.227-0.133-0.4-0.38-0.4-0.327 0-0.473 0.293-0.347 0.68 0.021 0.062 0.044 0.147 0.063 0.234l0.004 0.020c0.091 0.172 0.207 0.317 0.345 0.439l0.002 0.001c0.173 0.173 0.333 0.353 0.36 0.4 0.054 0.069 0.12 0.125 0.197 0.165l0.003 0.002 0.147 0.080-0.020-0.16c-0.020-0.173 0.013-0.2 0.107-0.073 0.033 0.040 0.12 0.113 0.187 0.153 0.113 0.067 0.133 0.067 0.133 0.013 0-0.040 0.020-0.127 0.047-0.193l0.047-0.12 0.087 0.167c0.047 0.093 0.2 0.3 0.34 0.467 0.273 0.313 0.447 0.667 0.36 0.747-0.040 0.033-0.133 0.033-0.333-0.007-0.147-0.027-0.333-0.047-0.413-0.033-0.153 0.020-0.167 0-0.067-0.12 0.1-0.133 0.080-0.153-0.12-0.153-0.233 0-0.813-0.113-1.040-0.2-0.213-0.087-0.267-0.067-0.333 0.14l-0.113 0.373-0.067 0.2 0.24-0.020c0.138-0.015 0.263-0.038 0.384-0.071l-0.017 0.004c0.038-0.013 0.081-0.021 0.126-0.021 0.007 0 0.014 0 0.021 0.001l-0.001-0c0.013 0.007-0.020 0.087-0.067 0.18l-0.093 0.16 0.147-0.027c0.080-0.020 0.2-0.060 0.267-0.093 0.12-0.053 0.133-0.053 0.227 0.1 0.113 0.18 0.2 0.173 0.22-0.020 0.020-0.2 0.087-0.173 0.213 0.093 0.12 0.253 0.24 0.347 0.267 0.2 0.007-0.053 0.067-0.133 0.14-0.187 0.147-0.1 0.253-0.067 0.313 0.087 0.067 0.167-0.080 0.333-0.493 0.587-0.762 0.427-1.303 1.172-1.445 2.050l-0.002 0.016c-0.127 0.787 0.267 1.6 1.040 2.193 0.373 0.28 0.967 0.573 0.927 0.467-0.16-0.487-0.153-1.4 0.007-1.553 0.027-0.027 0.020 0.067-0.020 0.207-0.133 0.527-0.067 0.94 0.267 1.913 0.293 0.88 0.253 1.26-0.173 1.507-0.133 0.080-0.22 0.093-0.587 0.087-0.4 0-0.447 0-0.573 0.107-0.148 0.151-0.251 0.348-0.286 0.567l-0.001 0.006c0 0.087 0.093 0.073 0.267-0.027z"></path>
<path fill="#ffb700" d="M30.7 22.633l0.167-0.107 0.113 0.107c0.147 0.14 0.327 0.133 0.467-0.007 0.067-0.067 0.12-0.107 0.127-0.1l0.060 0.107c0.033 0.060 0.107 0.087 0.24 0.1 0.153 0.007 0.2 0 0.267-0.093l0.067-0.113 0.167 0.107c0.453 0.293 0.693-0.013 0.487-0.62-0.1-0.307-0.040-0.48 0.287-0.867 0.14-0.167 0.253-0.347 0.253-0.4 0-0.073-0.027-0.087-0.213-0.080-0.173 0-0.227-0.020-0.32-0.12-0.153-0.167-0.14-0.36 0.027-0.573l0.133-0.167-0.24-0.16c-0.198-0.147-0.372-0.302-0.532-0.471l-0.002-0.002c-0.287-0.337-0.697-0.56-1.16-0.6l-0.006-0-0.313-0.033v0.24c0 0.3 0.147 0.593 0.533 1.087 0.44 0.56 0.467 0.647 0.487 1.38l0.020 0.62-0.133 0.12c-0.113 0.107-0.16 0.127-0.533 0.147-0.353 0.020-0.433 0.040-0.533 0.133-0.115 0.084-0.196 0.207-0.226 0.35l-0.001 0.004c-0.020 0.1-0.013 0.12 0.060 0.12 0.047 0 0.16-0.047 0.253-0.107zM21.22 21.033c0.039-0.056 0.063-0.125 0.067-0.199l0-0.001c0-0.067 0.040-0.093 0.213-0.12l0.207-0.027-0.133-0.113c-0.167-0.133-0.187-0.233-0.040-0.233s0.387-0.147 0.427-0.26c0.020-0.053 0-0.12-0.027-0.153-0.080-0.093-0.233-0.080-0.26 0.027-0.033 0.107-0.080 0.107-0.2 0-0.167-0.167-0.173-0.507 0-0.707 0.073-0.093 0.073-0.093-0.027-0.193-0.107-0.107-0.187-0.307-0.133-0.36 0.013-0.013 0.1 0 0.187 0.033 0.133 0.040 0.18 0.040 0.233 0 0.153-0.127-0.013-0.287-0.267-0.247-0.107 0.013-0.147 0-0.16-0.053-0.013-0.040-0.1-0.093-0.2-0.12-0.18-0.047-0.18-0.047-0.18 0.080 0 0.133-0.080 0.16-0.227 0.073-0.12-0.067-0.233-0.013-0.233 0.113 0 0.12 0.113 0.173 0.333 0.16 0.16-0.007 0.167 0.113 0.013 0.287l-0.113 0.133 0.087 0.127c0.133 0.187 0.12 0.5-0.020 0.66l-0.113 0.12-0.073-0.1c-0.107-0.133-0.247-0.127-0.287 0.020-0.020 0.093 0 0.133 0.12 0.24 0.080 0.067 0.2 0.12 0.26 0.12 0.153 0 0.147 0.127-0.013 0.247l-0.133 0.1 0.2 0.027c0.107 0.020 0.2 0.047 0.2 0.067 0 0.087 0.133 0.347 0.173 0.347 0.027 0 0.080-0.047 0.12-0.1z"></path>
<path fill="#ffb700" d="M23.767 19.927c0.18-0.067 0.567-0.4 0.567-0.473 0-0.027-0.107-0.147-0.24-0.267-0.267-0.24-0.567-0.66-0.647-0.9-0.040-0.133-0.233-0.347-0.78-0.88l-0.727-0.7-0.207 0.053c-0.12 0.027-0.26 0.053-0.313 0.053-0.1 0-0.1 0 0.033 0.107l0.133 0.107 0.2-0.107c0.18-0.107 0.187-0.107 0.207-0.020 0.013 0.047-0.013 0.133-0.067 0.193-0.047 0.060-0.073 0.133-0.067 0.153 0.020 0.020-0.027 0.067-0.1 0.107-0.133 0.067-0.233 0.287-0.127 0.287 0.1 0 0.313-0.267 0.287-0.353-0.013-0.047 0-0.093 0.013-0.107 0.087-0.047 0.080 0.16 0 0.267-0.053 0.053-0.080 0.12-0.067 0.147 0.013 0.020-0.033 0.067-0.107 0.107-0.133 0.067-0.233 0.287-0.127 0.287s0.313-0.253 0.293-0.347c-0.013-0.047-0.013-0.1 0.007-0.113 0.060-0.027 0.087 0.133 0.040 0.213-0.012 0.021-0.019 0.046-0.019 0.073s0.007 0.052 0.019 0.074l-0-0.001c0.047 0.087 0 0.247-0.087 0.3-0.033 0.020-0.013 0.067 0.080 0.133 0.133 0.093 0.133 0.107 0.133 0.533 0 0.36 0.013 0.453 0.080 0.513 0.067 0.067 0.080 0.067 0.080 0s0.133-0.16 0.233-0.16c0.033 0 0.227 0.167 0.433 0.367s0.427 0.38 0.487 0.387l0.147 0.027c0.020 0 0.113-0.020 0.207-0.067zM21.547 18.187c0-0.113-0.24-0.24-0.527-0.267-0.233-0.033-0.233-0.027-0.233 0.087 0 0.093 0.033 0.133 0.2 0.2 0.253 0.113 0.56 0.1 0.56-0.020z"></path>
<path fill="#ffb700" d="M21.807 18.173c0.12-0.107 0.173-0.227 0.1-0.227-0.080 0-0.293 0.187-0.293 0.267 0 0.107 0.040 0.1 0.2-0.040zM21.56 17.833c0.007-0.067-0.033-0.107-0.153-0.167-0.267-0.113-0.573-0.173-0.647-0.113-0.14 0.113-0.047 0.26 0.173 0.287 0.093 0.007 0.213 0.033 0.273 0.060 0.173 0.067 0.333 0.033 0.353-0.067zM21.56 17.48c0.013-0.087-0.047-0.12-0.533-0.293-0.367-0.133-0.527-0.067-0.407 0.153 0.040 0.073 0.107 0.107 0.26 0.133 0.113 0.013 0.267 0.047 0.34 0.073 0.2 0.067 0.32 0.040 0.333-0.067zM21.8 17.153c0.073-0.073 0.133-0.16 0.133-0.2 0-0.1-0.287 0.087-0.327 0.22-0.040 0.153 0.033 0.147 0.2-0.020zM21.56 17.133c0.013-0.107-0.16-0.2-0.507-0.273-0.26-0.060-0.373-0.027-0.353 0.093 0.013 0.067 0.1 0.113 0.333 0.187 0.393 0.12 0.507 0.12 0.527-0.007zM21.893 16.64c0.453-0.2 0.487-0.7 0.067-0.833-0.173-0.053-0.28-0.020-0.347 0.093-0.053 0.093-0.020 0.253 0.047 0.253 0.027 0 0.047 0.033 0.047 0.067 0 0.18-0.68 0.253-0.96 0.113-0.1-0.047-0.133-0.18-0.060-0.18 0.067 0 0.107-0.133 0.073-0.22-0.040-0.133-0.173-0.173-0.353-0.12-0.42 0.107-0.407 0.6 0.020 0.8 0.229 0.087 0.495 0.137 0.772 0.137 0.248 0 0.487-0.040 0.711-0.115l-0.016 0.005z"></path>
<path fill="#ffb700" d="M21.62 16.253c0.027-0.027 0.013-0.067-0.027-0.093-0.093-0.073-0.087-0.187 0.013-0.313 0.080-0.093 0.087-0.24 0.113-1.673 0.047-2.473 0.233-4.333 0.473-4.787 0.1-0.173 0.087-0.173-0.167 0-0.331 0.232-0.595 0.537-0.774 0.893l-0.006 0.014c-0.413 0.767-0.553 1.8-0.553 4.013 0 1.253 0.007 1.42 0.080 1.533 0.067 0.12 0.067 0.16 0.027 0.28-0.033 0.073-0.047 0.153-0.033 0.167 0.093 0.087 0.76 0.067 0.853-0.033zM25.36 13.893c0.020-0.020-0.013-0.133-0.067-0.24-0.080-0.173-0.113-0.2-0.227-0.2-0.567-0.050-1.087-0.203-1.558-0.438l0.025 0.011c-0.34-0.153-0.467-0.187-0.5-0.147-0.107 0.1 0.067 0.333 0.333 0.46 0.36 0.134 0.776 0.222 1.209 0.246l0.011 0c0.18 0 0.187 0 0.080 0.153l-0.067 0.107h0.2l0.333 0.040c0.2 0.047 0.2 0.047 0.227 0.007z"></path>
<path fill="#000" d="M27.467 15.007c0-0.067-0.193-0.233-0.38-0.347-0.153-0.087-0.18-0.093-0.18-0.020 0 0.107-0.093 0.38-0.133 0.38-0.020 0-0.053-0.053-0.067-0.113-0.020-0.067-0.093-0.2-0.167-0.287l-0.133-0.167-0.093 0.153c-0.093 0.147-0.26 0.287-0.333 0.287-0.013 0-0.020-0.080 0-0.167 0.007-0.107 0-0.187-0.033-0.2-0.027-0.020-0.053-0.013-0.053 0.013 0 0.053-0.227 0.307-0.267 0.307-0.027 0-0.053-0.067-0.067-0.16l-0.053-0.32c-0.013-0.080 0.020-0.027 0.067 0.133l0.107 0.273 0.107-0.167c0.046-0.065 0.083-0.14 0.105-0.222l0.001-0.005c0-0.033 0.020-0.047 0.047-0.033s0.060 0.127 0.073 0.247l0.033 0.227 0.12-0.133c0.061-0.064 0.117-0.134 0.169-0.207l0.004-0.006c0.047-0.080 0.053-0.080 0.153 0 0.053 0.053 0.14 0.167 0.193 0.26s0.1 0.16 0.107 0.153l0.040-0.213 0.027-0.2c0.007-0.033 0.36 0.2 0.493 0.313 0.080 0.073 0.16 0.127 0.173 0.113s0.027-0.12 0.027-0.247c0-0.187-0.020-0.24-0.133-0.34-0.133-0.12-0.133-0.12-0.187-0.033-0.067 0.113-0.14 0.113-0.14 0 0-0.080-0.253-0.393-0.313-0.393-0.020 0-0.073 0.067-0.12 0.153s-0.1 0.153-0.113 0.153c-0.067 0-0.42-0.4-0.42-0.467 0-0.053 0.027-0.040 0.087 0.053 0.062 0.090 0.13 0.169 0.206 0.239l0.001 0.001c0.133 0.12 0.187 0.093 0.24-0.14 0.020-0.067 0.047-0.12 0.067-0.12 0.053 0 0.36 0.327 0.4 0.433l0.047 0.107 0.033-0.12c0.040-0.147 0.087-0.147 0.153-0.013 0.027 0.053 0.16 0.173 0.293 0.253l0.247 0.16 0.047-0.16c0.027-0.087 0.067-0.133 0.080-0.107 0.027 0.033-0.040 0.3-0.087 0.353 0 0.007-0.087-0.040-0.173-0.1l-0.167-0.12v0.213c0 0.113-0.013 0.253-0.027 0.307-0.033 0.107-0.113 0.133-0.113 0.040zM26.233 13.313c-0.293-0.24-0.333-0.293-0.333-0.413l0.007-0.12 0.020 0.113c0.013 0.067 0.093 0.173 0.187 0.253l0.173 0.133 0.1-0.12c0.060-0.067 0.107-0.147 0.107-0.173 0-0.080 0.013-0.073 0.213 0.1 0.173 0.153 0.18 0.153 0.2 0.053 0.020-0.053 0.013-0.16 0-0.233-0.067-0.2-0.053-0.227 0.033-0.107l0.16 0.187c0.067 0.073 0.073 0.073 0.1-0.020 0.020-0.060 0.033-0.16 0.033-0.227v-0.127l0.153 0.18c0.153 0.173 0.167 0.18 0.207 0.093 0.033-0.047 0.053-0.16 0.053-0.247 0-0.12 0.013-0.147 0.040-0.107 0.053 0.080 0.020 0.28-0.073 0.453l-0.067 0.133-0.087-0.14c-0.113-0.173-0.153-0.173-0.22 0.013-0.067 0.18-0.113 0.193-0.18 0.053-0.040-0.087-0.053-0.073-0.080 0.113l-0.033 0.2-0.4-0.307-0.1 0.1c-0.047 0.060-0.087 0.133-0.087 0.16 0 0.067-0.053 0.067-0.127 0zM28.833 12.407c-0.1-0.093-0.173-0.187-0.16-0.2 0.020-0.020 0.033-0.027 0.040-0.013 0.065 0.069 0.131 0.135 0.198 0.198l0.002 0.002c0.227 0.24 0.18 0.247-0.073 0.013zM25.367 12.047c-0.093-0.133-0.087-0.213 0.033-0.36 0.080-0.1 0.12-0.113 0.267-0.093 0.1 0.007 0.307 0.093 0.46 0.187 0.207 0.126 0.457 0.2 0.725 0.2 0.003 0 0.006 0 0.009-0h-0l-0.113-0.187c-0.147-0.22-0.147-0.247 0.027-0.113 0.173 0.14 0.38 0.18 0.847 0.167l0.227-0.007-0.133-0.133c-0.18-0.18-0.127-0.2 0.080-0.020 0.187 0.167 0.18 0.18-0.227 0.22-0.046 0.005-0.1 0.008-0.154 0.008-0.125 0-0.247-0.015-0.363-0.043l0.010 0.002c-0.227-0.067-0.24-0.060-0.193 0.013 0.027 0.047 0.067 0.080 0.087 0.080 0.027 0 0.047 0.027 0.047 0.053 0 0.087-0.493 0.007-0.733-0.107-0.533-0.273-0.6-0.3-0.733-0.26-0.072 0.028-0.129 0.083-0.159 0.152l-0.001 0.002c-0.087 0.22 0.227 0.393 0.353 0.2 0.040-0.060 0.033-0.093-0.033-0.167-0.093-0.093-0.080-0.107 0.040-0.067 0.087 0.033 0.093 0.24 0.013 0.32-0.087 0.087-0.3 0.067-0.38-0.047z"></path>
<path fill="#000" d="M27.493 11.507c-0.067-0.067-0.013-0.080 0.287-0.087 0.373-0.007 0.6-0.067 0.867-0.24 0.213-0.133 0.273-0.107 0.067 0.033-0.18 0.133-0.467 0.227-0.753 0.253l-0.34 0.047c-0.053 0.013-0.113 0.007-0.133-0.007z"></path>
</svg>
