<!-- Generated by IcoMoon.io -->
<svg version="1.1" xmlns="http://www.w3.org/2000/svg" width="43" height="32" viewBox="0 0 43 32">
<title>lr</title>
<path fill="#fff" d="M0 0h47.994v32h-47.994z"></path>
<path fill="#006" d="M0 0h14.544v14.55h-14.544z"></path>
<path fill="#c00" d="M0 29.056h47.994v2.944h-47.994z"></path>
<path fill="#c00" d="M0 29.087h47.994v2.913h-47.994zM0 23.281h47.994v2.887h-47.994zM0 17.456h47.875v2.919h-47.875zM14.544 0h33.444v2.906h-33.444zM14.544 11.625h33.444v2.925h-33.444zM14.544 5.831h33.444v2.906h-33.444z"></path>
<path fill="#fff" d="M10.394 11.094l-3.169-1.938-3.15 1.956 1.169-3.181-3.144-1.963 3.894-0.025 1.206-3.169 1.238 3.163h3.894l-3.131 1.981 1.194 3.175z"></path>
</svg>
