<!-- Generated by IcoMoon.io -->
<svg version="1.1" xmlns="http://www.w3.org/2000/svg" width="43" height="32" viewBox="0 0 43 32">
<title>ls</title>
<path fill="#fff" d="M0 0h42.667v32h-42.667z"></path>
<path fill="#009543" d="M0 22.4h42.667v9.6h-42.667z"></path>
<path fill="#00209f" d="M0 0h42.667v9.6h-42.667z"></path>
<path fill="#000" d="M21.307 10.2c-0.18 0-0.36 0.2-0.36 0.2l0.020 2.16-0.687 0.713h0.553v1.233l-3.267 4.4-0.48-0.173-0.847 1.8s2.087 1.307 5.113 1.267c3.32-0.033 5.127-1.327 5.127-1.327l-0.867-1.773-0.433 0.187-3.307-4.373v-1.273h0.547l-0.747-0.707v-2.147s-0.18-0.2-0.367-0.193z"></path>
<path fill="none" stroke="#000" stroke-linejoin="miter" stroke-linecap="butt" stroke-miterlimit="4" stroke-width="0.5333" d="M22.447 15.36h-2.26s-0.813-1.727-0.687-2.933c0.133-1.227 0.84-1.807 1.773-1.82 1.107-0.007 1.68 0.54 1.853 1.773 0.173 1.22-0.68 2.98-0.68 2.98z"></path>
<path fill="#fff" d="M17.367 19.473c-0.040 0.047-0.313 0.593-0.313 0.593l0.467-0.1-0.153-0.493zM17.633 20.173l-0.493 0.16 0.593 0.233-0.1-0.393zM17.853 19.487l0.247 0.727 0.6-0.173-0.153-0.347-0.693-0.207zM18.24 20.473l0.080 0.293 0.8 0.2-0.32-0.68-0.56 0.187zM19.12 19.853l0.287 0.68 0.6-0.233-0.2-0.3-0.687-0.147zM19.52 20.78l0.093 0.253 0.933 0.133-0.393-0.613-0.64 0.227zM20.413 20.047l0.347 0.607 0.867-0.32-0.093-0.233-1.12-0.047zM20.92 20.873l0.18 0.32 1.080-0.033-0.4-0.6-0.867 0.313zM22.060 20.073l0.293 0.507 0.693-0.333-0.187-0.267-0.8 0.093zM23.193 20.46l-0.687 0.34 0.18 0.3 0.92-0.147-0.413-0.493zM23.413 19.927l0.353 0.447 0.58-0.46-0.2-0.2-0.733 0.213zM24.473 20.16l-0.553 0.42 0.147 0.26 0.76-0.2-0.353-0.48zM25.233 19.293l0.133 0.193-0.38 0.567-0.393-0.507 0.64-0.253zM25.493 19.78l0.233 0.467-0.467 0.16-0.040-0.22 0.267-0.4z"></path>
</svg>
