<!-- Generated by IcoMoon.io -->
<svg version="1.1" xmlns="http://www.w3.org/2000/svg" width="43" height="32" viewBox="0 0 43 32">
<title>ly</title>
<path fill="#239e46" d="M-10.667 0h64v32h-64z"></path>
<path fill="#000" d="M-10.667 0h64v24h-64z"></path>
<path fill="#e70013" d="M-10.667 0h64v8h-64z"></path>
<path fill="#fff" d="M24.162 13.171c-0.561-0.404-1.261-0.646-2.019-0.646-1.919 0-3.475 1.556-3.475 3.475s1.556 3.475 3.475 3.475c0.757 0 1.458-0.242 2.029-0.653l-0.010 0.007c-0.724 0.724-1.724 1.171-2.828 1.171-2.209 0-4-1.791-4-4s1.791-4 4-4c1.104 0 2.104 0.448 2.828 1.171v0zM23.279 16l5.382-1.747-3.328 4.576v-5.658l3.328 4.576z"></path>
</svg>
