<!-- Generated by IcoMoon.io -->
<svg version="1.1" xmlns="http://www.w3.org/2000/svg" width="43" height="32" viewBox="0 0 43 32">
<title>md</title>
<path fill="#00319c" d="M0 0h14.22v32h-14.22z"></path>
<path fill="#ffde00" d="M14.22 0h14.227v32h-14.227z"></path>
<path fill="#de2110" d="M28.447 0h14.22v32h-14.22z"></path>
<path fill="#ff1900" d="M24.027 21.36l1.613 2.333c0.093 0.133 0.18 0.26 0.047 0.347s-0.093 0.427 0 0.56c0.18 0.26 0.4 0.3 0.533 0.213l1.227-0.773c0.133-0.080 0.18-0.3 0-0.56-0.1-0.133-0.4-0.3-0.533-0.213-0.14 0.087-0.233-0.047-0.32-0.173l-1.62-2.333"></path>
<path fill="#a77b3b" d="M24.66 19.715c0.722 0.82 0.973 1.759 0.561 2.090s-1.337-0.067-2.059-0.886-0.969-1.762-0.558-2.093 1.334 0.063 2.059 0.886z"></path>
<path fill="#ff1900" d="M17.467 20.407l-1.433 2.447c-0.080 0.133-0.16 0.267-0.3 0.2-0.14-0.080-0.44 0.113-0.52 0.253-0.16 0.267-0.1 0.48 0.047 0.56l1.28 0.68c0.133 0.073 0.36 0.013 0.52-0.253 0.073-0.147 0.093-0.487-0.047-0.56s-0.067-0.213 0.020-0.347l1.427-2.447"></path>
<path fill="#a77b3b" d="M22.080 18.707h-1.307c-0.040 0.040-0.413 2.373-0.813 3.267-0.487 1.087-1.947 2.047-1.947 2.047s0.873 0.267 1.133 0.44c0.067-0.020 1.467-0.313 1.627-2.020 0.16 1.707-0.973 2.487-0.973 2.487s1.627 0.467 1.627 1.553c0-1.087 1.627-1.553 1.627-1.553s-0.813-0.78-0.98-2.487c0.333 1.707 1.567 2 1.633 2.020 0.26-0.173 1.133-0.44 1.133-0.44s-1.46-0.96-1.947-2.047c-0.4-0.893-0.773-3.227-0.813-3.267zM16.547 10.927l2.44 0.78c0.807 0 1.627-0.78 1.627-1.56 0.027-1.733-0.653-2.333-0.813-2.333l0.32-0.307-0.487-0.467s0.167-0.807 1.793-0.78c1.627 0.033 1.627 0.78 1.627 1.553s-0.813 0.78-0.813 2.333c0 0.78 0.813 1.56 1.627 1.56l2.44-0.78v7.78h-9.767v-7.78z"></path>
<path fill="#a77b3b" d="M14.911 6.264c-1.626 0.777-1.626 2.335-1.626 3.112 0.055 0.707 0 15.552 0 15.552s0.106-0.878 0.813-1.554l0.809-0.777 0.813-0.777c0.597-0.518 0.813-1.558 0.813-2.335v-10.886s0-0.781-1.626-2.335z"></path>
<path fill="#a77b3b" d="M27.936 6.264c1.626 0.777 1.626 2.335 1.626 3.112-0.055 0.707 0 15.552 0 15.552s-0.106-0.878-0.813-1.554l-0.808-0.777-0.813-0.777c-0.597-0.518-0.813-1.558-0.813-2.335v-10.886s0-0.781 1.626-2.335z"></path>
<path fill="#a77b3b" d="M19.285 20.191c-0.431 0.989-1.19 1.633-1.686 1.435s-0.552-1.166-0.12-2.155 1.194-1.631 1.69-1.434 0.553 1.162 0.12 2.155z"></path>
<path fill="#f00" d="M16.54 11.707h9.767v4.667h-9.767z"></path>
<path fill="#564dff" d="M16.54 16.373h9.767v2.333c0 1.553-2.44 1.553-4.88 3.107-2.447-1.547-4.893-1.547-4.893-3.107v-2.333z"></path>
<path fill="#ff0" d="M19.633 12.017s-1.627 1.144-1.627 2.238c0 1.094 1.707 1.461 1.707 1.461s-0.569 0-0.569 1.459c0 0.732 1.707 0.367 1.707 0.732s-0.023 1.247 0 1.826c0 0.365-1.138 0-1.138 0.365 0 0.181 0.855 1.094 1.711 1.094s1.707-0.913 1.707-1.094c0-0.365-1.138 0-1.138-0.365v-1.826c0-0.365 1.707 0 1.707-0.732 0-1.459-0.569-1.459-0.569-1.459s1.711-0.365 1.711-1.461-1.63-2.238-1.63-2.238 0.916 1.509 0.916 2.238c0 0.365-0.428 1.097-1.566 1.097 0 0-0.289-0.367-0.569 0 0 0-0.328-0.367-0.569 0-0.084 0.124-0.232-0.367-0.572 0-0.142 0.097-0.257-0.367-0.569 0-0.569 0-1.707-0.367-1.707-1.097s1.058-2.238 1.058-2.238z"></path>
<path fill="#ff0" d="M19.666 18.552c-0.116 0.074 0.148 1.263 0.225 1.315 0.116 0.072 0.801 0.072 0.913 0 0.080-0.052 0-1.169-0.113-1.241-0.116-0.074-0.945-0.124-1.029-0.074z"></path>
<path fill="#ff0" d="M23.187 18.552c0.116 0.074-0.148 1.263-0.225 1.315-0.116 0.072-0.801 0.072-0.913 0-0.080-0.052 0-1.169 0.113-1.241 0.116-0.074 0.945-0.124 1.029-0.074z"></path>
<path fill="#ff0" d="M20.837 18.118c0 0.227-0.265 0.411-0.591 0.411s-0.591-0.184-0.591-0.411v0c0-0.227 0.265-0.411 0.591-0.411s0.591 0.184 0.591 0.411v0z"></path>
<path fill="#ff0" d="M23.191 18.118c0 0.227-0.265 0.411-0.591 0.411s-0.591-0.184-0.591-0.411v0c0-0.227 0.265-0.411 0.591-0.411s0.591 0.184 0.591 0.411v0z"></path>
<path fill="#000" d="M22.453 20.5c0 0.1-0.133 0.18-0.287 0.18-0.16 0-0.287-0.080-0.287-0.18s0.133-0.18 0.287-0.18 0.287 0.080 0.287 0.18zM20.967 20.5c0 0.1-0.127 0.18-0.28 0.18-0.16 0-0.287-0.080-0.287-0.18s0.127-0.18 0.287-0.18c0.153 0 0.28 0.080 0.28 0.18z"></path>
<path fill="#ff0" d="M21.426 14.667l-0.35-0.441-0.574 0.073 0.081-0.548-0.462-0.33 0.462-0.334-0.081-0.548 0.574 0.077 0.35-0.441 0.35 0.441 0.569-0.077-0.076 0.548 0.457 0.334-0.457 0.334 0.076 0.544-0.574-0.073z"></path>
<path fill="#ff0" d="M23.865 16.373l0.978 0.47 0.978-0.47-0.978-0.465-0.974 0.465z"></path>
<path fill="#ff0" d="M16.865 16.373l0.978 0.47 0.978-0.47-0.978-0.465-0.974 0.465z"></path>
<path fill="#ff0" d="M25.375 19.156c-0.3-0.19-0.804-0.095-1.087 0.060s-0.566 0.31-0.604 0.873c-0.325-0.541-0.069-1.040 0.361-1.276 0.472-0.221 1.042-0.073 1.33 0.345l0.002 0.002z"></path>
<path fill="#ff0" d="M18.654 18.24c0 0.171-0.145 0.309-0.324 0.309s-0.324-0.139-0.324-0.309v0c0-0.171 0.145-0.309 0.324-0.309s0.324 0.139 0.324 0.309v0z"></path>
<path fill="#ff0" d="M18.327 19.326c0 0.171-0.145 0.309-0.324 0.309s-0.324-0.139-0.324-0.309v0c0-0.171 0.145-0.309 0.324-0.309s0.324 0.139 0.324 0.309v0z"></path>
<path fill="#ff0" d="M18.167 18.706c0 0.171-0.145 0.309-0.324 0.309s-0.324-0.139-0.324-0.309v0c0-0.171 0.145-0.309 0.324-0.309s0.324 0.139 0.324 0.309v0z"></path>
<path fill="#ff0" d="M18.981 19.326c0 0.171-0.145 0.309-0.324 0.309s-0.324-0.139-0.324-0.309v0c0-0.171 0.145-0.309 0.324-0.309s0.324 0.139 0.324 0.309v0z"></path>
<path fill="#ff0" d="M19.141 18.706c0 0.171-0.145 0.309-0.324 0.309s-0.324-0.139-0.324-0.309v0c0-0.171 0.145-0.309 0.324-0.309s0.324 0.139 0.324 0.309v0z"></path>
<path fill="#ff0" d="M18.654 18.86c0 0.171-0.145 0.309-0.324 0.309s-0.324-0.139-0.324-0.309v0c0-0.171 0.145-0.309 0.324-0.309s0.324 0.139 0.324 0.309v0z"></path>
<path fill="#da4500" d="M19.853 8.027c-0.827 0-0.933 0.133-1.307 0.26 0-0.36 0.92-0.78 1.733-0.78 0 0.26-0.213 0.52-0.427 0.52z"></path>
<path fill="#cac9c7" d="M21.1 7.2c0 0.167-0.147 0.307-0.327 0.307s-0.327-0.14-0.327-0.313 0.147-0.307 0.327-0.307 0.327 0.133 0.327 0.307z"></path>
<path fill="#ff0" d="M17.681 6.11v0.465h0.813v2.331h0.492v-2.331h0.813v-0.465h-0.813v-0.623h-0.496v0.623h-0.813z"></path>
<path fill="#da4500" d="M20.287 7.507c-0.089-0.005-0.194-0.009-0.299-0.009-0.592 0-1.161 0.098-1.692 0.279l0.037-0.011c0-0.48 0.56-1.040 1.52-1.040 0.213 0 0.433 0.52 0.433 0.78z"></path>
<path fill="#008500" d="M11.817 15.766c-0.234-0.505-0.229-0.666 0.188-0.088l5.020 9.518-0.154 0.043-5.052-9.471z"></path>
<path fill="#008f00" d="M15.227 22.027c0.053-0.707-1.24-1.467-1.293-1.42-0.047 0.053 0.080 0.467 0.327 0.673-0.467-0.24-0.96-0.387-0.973-0.287-0.040 0.147 0.733 0.48 0.8 0.613 0 0.093-0.573 0.080-0.56 0.173s1.62 0.907 1.7 0.247zM13.933 19.973c0.053-0.707-1.24-1.467-1.287-1.42-0.053 0.047 0.073 0.46 0.32 0.673-0.467-0.24-0.96-0.393-0.973-0.287-0.033 0.14 0.733 0.48 0.8 0.613 0.007 0.093-0.567 0.080-0.56 0.173 0.013 0.093 1.62 0.9 1.7 0.247zM12.947 18.107c0.053-0.707-1.24-1.467-1.293-1.42-0.047 0.047 0.080 0.46 0.327 0.673-0.467-0.24-0.96-0.393-0.973-0.287-0.033 0.14 0.733 0.48 0.8 0.613 0 0.093-0.567 0.080-0.56 0.173 0.013 0.093 1.62 0.907 1.7 0.247zM11.973 16.080c0.047-0.7-1.24-1.467-1.293-1.42-0.053 0.053 0.080 0.467 0.32 0.68-0.467-0.247-0.96-0.393-0.967-0.287-0.040 0.14 0.733 0.48 0.793 0.607 0.007 0.093-0.567 0.087-0.553 0.18 0.007 0.093 1.613 0.9 1.7 0.24z"></path>
<path fill="#008f00" d="M12.307 15.993c0.627-0.38 0.5-1.827 0.433-1.84-0.073-0.007-0.347 0.333-0.38 0.653-0.073-0.507-0.24-0.973-0.333-0.92-0.14 0.053 0.027 0.847-0.047 0.973-0.067 0.067-0.4-0.387-0.467-0.32-0.080 0.067 0.187 1.78 0.8 1.453zM13.213 17.767c0.72-0.16 1.113-1.56 1.047-1.593s-0.44 0.2-0.58 0.493c0.107-0.5 0.113-0.993 0-0.973-0.153 0.007-0.267 0.807-0.38 0.9-0.087 0.040-0.247-0.487-0.333-0.453-0.093 0.040-0.44 1.74 0.247 1.627zM14.293 19.58c0.66-0.32 0.667-1.773 0.6-1.787-0.067-0.020-0.367 0.3-0.433 0.613-0.027-0.513-0.147-0.987-0.247-0.94-0.147 0.040-0.053 0.84-0.133 0.96-0.080 0.060-0.367-0.42-0.447-0.36-0.080 0.053 0.027 1.787 0.667 1.513zM15.467 21.953c0.687-0.26 0.853-1.7 0.787-1.727-0.067-0.020-0.4 0.267-0.5 0.573 0.027-0.513-0.040-1-0.147-0.96-0.153 0.027-0.14 0.833-0.233 0.947-0.087 0.047-0.32-0.453-0.4-0.4-0.087 0.040-0.167 1.78 0.493 1.567z"></path>
<path fill="#ff1900" d="M16.979 24.427c-0.175 0.299-0.727 0.326-1.241 0.052s-0.779-0.737-0.605-1.036 0.731-0.324 1.241-0.052 0.779 0.737 0.605 1.036z"></path>
<path fill="#ff0" d="M30.235 14.414l0.086-0.223 0.233 0.073 0.086-0.223 0.233 0.073-0.085 0.22 0.239 0.075-0.088 0.226-0.239-0.075-0.215 0.556-0.233-0.073 0.215-0.556-0.233-0.073zM29.735 16.379l0.233 0.073-2.502 6.457-0.233-0.073z"></path>
<path fill="#ff0" d="M27.156 22.688l0.472 0.149-0.69 1.782-0.472-0.149zM29.933 15.193l0.708 0.223c0.469 0.148-0.595 1.188-0.595 1.188l-0.469-0.148s-0.117-1.412 0.355-1.263zM30.584 15.208c-0.037 0.094-0.169 0.137-0.299 0.096s-0.207-0.15-0.172-0.241 0.169-0.137 0.299-0.096 0.207 0.15 0.17 0.244z"></path>
<path fill="#ff1900" d="M27.535 23.613c0.198 0.285-0.030 0.767-0.521 1.077s-1.043 0.323-1.241 0.038 0.034-0.769 0.521-1.077 1.043-0.323 1.241-0.038z"></path>
</svg>
