<!-- Generated by IcoMoon.io -->
<svg version="1.1" xmlns="http://www.w3.org/2000/svg" width="43" height="32" viewBox="0 0 43 32">
<title>mh</title>
<path fill="#3b5aa3" d="M0 0h42.66v32h-42.66z"></path>
<path fill="#e2ae57" d="M0 31.133l42.66-31.133v5.8l-42.66 26.2v-0.867z"></path>
<path fill="#fff" d="M1.493 32l41.173-20.053-0.007-6.367-42.66 26.42h1.493zM11.693 1.013l-0.427 6.853-1.8-4.373 0.693 4.653-2.793-3.76 1.833 4.287-3.667-2.84 2.853 3.573-4.14-1.84 3.627 2.747-4.513-0.6 4.267 1.693-6.693 0.613 6.707 0.447-4.247 1.747 4.467-0.6-3.62 2.667 4.2-1.84-2.867 3.6 3.64-2.753-1.8 4.193 2.907-3.647-0.787 4.54 1.833-4.247 0.413 6.713 0.647-6.693 1.58 4.267-0.6-4.6 2.893 3.653-1.907-4.267 3.64 2.933-2.893-3.66 4.327 1.8-3.827-2.793 4.66 0.787-4.467-1.713 6.94-0.433-6.933-0.647 4.567-1.52-4.733 0.6 3.907-2.733-4.4 1.767 3.040-3.687-3.707 2.893 1.78-4.427-2.873 3.76 0.62-4.693-1.713 4.433-0.64-6.853z"></path>
</svg>
