<!-- Generated by IcoMoon.io -->
<svg version="1.1" xmlns="http://www.w3.org/2000/svg" width="43" height="32" viewBox="0 0 43 32">
<title>mk</title>
<path fill="#d20000" d="M0 0h42.667v32h-42.667z"></path>
<path fill="#ffe600" d="M0 0h6.4l14.933 15.427 14.933-15.427h6.4l-42.667 32h6.4l14.933-15.427 14.933 15.427h6.4zM42.667 12.8v6.4l-42.667-6.4v6.4zM18.667 0l2.667 13.713 2.667-13.713zM18.667 32l2.667-13.713 2.667 13.713z"></path>
<path fill="#ffe600" stroke="#d20000" stroke-linejoin="miter" stroke-linecap="butt" stroke-miterlimit="4" stroke-width="1.14" d="M26.473 16c0 2.839-2.301 5.14-5.14 5.14s-5.14-2.301-5.14-5.14c0-2.839 2.301-5.14 5.14-5.14s5.14 2.301 5.14 5.14z"></path>
</svg>
