<!-- Generated by IcoMoon.io -->
<svg version="1.1" xmlns="http://www.w3.org/2000/svg" width="43" height="32" viewBox="0 0 43 32">
<title>mn</title>
<path fill="#c4272f" d="M0 0h42.667v32h-42.667z"></path>
<path fill="#015197" d="M14.22 0h14.227v32h-14.227z"></path>
<path fill="#f9cf02" d="M9.467 12.607c0 1.289-1.045 2.333-2.333 2.333s-2.333-1.045-2.333-2.333c0-1.289 1.045-2.333 2.333-2.333s2.333 1.045 2.333 2.333z"></path>
<path fill="#c4272f" d="M9.68 11.547c0 1.406-1.14 2.547-2.547 2.547s-2.547-1.14-2.547-2.547c0-1.406 1.14-2.547 2.547-2.547s2.547 1.14 2.547 2.547z"></path>
<path fill="#f9cf02" d="M6.073 8.787c0 0.585 0.475 1.060 1.060 1.060s1.060-0.475 1.060-1.060v0c0-0.42-0.267-0.48-0.267-0.633 0-0.16 0.16-0.373-0.16-0.64 0.16 0.267-0.107 0.32-0.107 0.587s0.107 0.267 0.107 0.473c-0.018 0.101-0.105 0.176-0.21 0.176s-0.192-0.075-0.21-0.174l-0-0.001c0-0.207 0.207-0.42 0.207-0.733 0-0.327-0.047-0.433-0.207-0.693-0.16-0.267-0.427-0.48-0.213-0.693-0.32 0.107-0.16 0.533-0.16 0.8s-0.213 0.42-0.213 0.733 0.16 0.38 0.16 0.587c-0.018 0.101-0.105 0.176-0.21 0.176s-0.192-0.075-0.21-0.174l-0-0.001c0-0.207 0.107-0.207 0.107-0.473s-0.267-0.32-0.107-0.587c-0.32 0.267-0.16 0.48-0.16 0.64s-0.267 0.207-0.267 0.633z"></path>
<path fill="#f9cf02" d="M8.827 11.967c0 0.935-0.758 1.693-1.693 1.693s-1.693-0.758-1.693-1.693c0-0.935 0.758-1.693 1.693-1.693s1.693 0.758 1.693 1.693z"></path>
<path fill="#f9cf02" d="M2.467 15.36v10.18h2.12v-10.18zM9.68 15.36v10.18h2.12v-10.18zM5.013 17.060v0.847h4.24v-0.847zM5.013 22.993v0.853h4.24v-0.847zM5.013 15.36h4.24l-2.12 1.273zM5.013 24.273h4.24l-2.12 1.26z"></path>
<path fill="#f9cf02" d="M9.38 20.453c0 1.241-1.006 2.247-2.247 2.247s-2.247-1.006-2.247-2.247c0-1.241 1.006-2.247 2.247-2.247s2.247 1.006 2.247 2.247z"></path>
<path fill="#c4272f" d="M7.56 19.327c0 0.236-0.191 0.427-0.427 0.427s-0.427-0.191-0.427-0.427c0-0.236 0.191-0.427 0.427-0.427s0.427 0.191 0.427 0.427z"></path>
<path fill="#c4272f" d="M7.56 21.573c0 0.236-0.191 0.427-0.427 0.427s-0.427-0.191-0.427-0.427c0-0.236 0.191-0.427 0.427-0.427s0.427 0.191 0.427 0.427z"></path>
</svg>
