<!-- Generated by IcoMoon.io -->
<svg version="1.1" xmlns="http://www.w3.org/2000/svg" width="43" height="32" viewBox="0 0 43 32">
<title>mo</title>
<path fill="#00785e" d="M0 0h42.667v32h-42.667z"></path>
<path fill="#fbd116" d="M19.667 7.247l2.7 1.967-1.033-3.18-1.033 3.18 2.707-1.967z"></path>
<path fill="#fff" d="M21.333 22.107h-6.833c-0.083-0.084-0.166-0.171-0.247-0.259l-0.007-0.007h7.087c0.055 0.020 0.093 0.071 0.093 0.132 0 0 0 0.001 0 0.001v-0c0 0.053-0.033 0.113-0.093 0.133zM21.333 20.020c0.056-0.112 0.089-0.243 0.089-0.382 0-0.044-0.003-0.087-0.010-0.129l0.001 0.005c-0.014-0.095-0.042-0.18-0.082-0.258l0.002 0.005c-0.595 0.567-1.321 1.003-2.128 1.256l-0.039 0.011c-0.469 0.148-1.008 0.233-1.566 0.233h-4.207c0.143 0.211 0.27 0.385 0.402 0.554l-0.016-0.021h4.067c1.333 0 2.547-0.48 3.487-1.273zM14.027 18.373c-0.191 0.073-0.411 0.121-0.642 0.133l-0.005 0c0.994 1.126 2.441 1.833 4.053 1.833h0c0 0 0.001 0 0.001 0 1.532 0 2.915-0.639 3.897-1.665l0.002-0.002c0.178-1.168 0.286-2.525 0.3-3.905l0-0.015c0.001-0.093 0.002-0.203 0.002-0.313 0-1.482-0.11-2.938-0.321-4.362l0.020 0.161c-0.44 0.4-1.267 1.247-1.653 2.553-0.135 0.45-0.213 0.968-0.213 1.503 0 0.013 0 0.026 0 0.039v-0.002c0 0 0 0.001 0 0.001 0 1.118 0.341 2.157 0.925 3.018l-0.012-0.019c-0.706-0.901-1.133-2.051-1.133-3.3v-0c0-0.827 0.187-1.613 0.52-2.313-0.225-0.238-0.397-0.529-0.496-0.851l-0.004-0.015c-0.44 0.763-0.7 1.678-0.7 2.654 0 0.005 0 0.009 0 0.014v-0.001c0 1.2 0.393 2.313 1.060 3.207-1.156-1.213-2.784-1.967-4.588-1.967-0.107 0-0.214 0.003-0.32 0.008l0.015-0.001c0.181 0.167 0.332 0.364 0.448 0.582l0.006 0.012c1.798 0.002 3.42 0.753 4.571 1.958l0.002 0.002c-1.092-0.92-2.514-1.479-4.067-1.48h-0c-0.004 0-0.008 0-0.012 0-0.879 0-1.716 0.179-2.476 0.502l0.041-0.016c0.796 2.062 2.762 3.498 5.063 3.498 0.156 0 0.311-0.007 0.463-0.020l-0.020 0.001c-0.313 0.053-0.633 0.087-0.96 0.087-0.003 0-0.006 0-0.010 0-1.459 0-2.782-0.58-3.752-1.521l0.001 0.001zM21.333 24.293h-3.54c1.044 0.426 2.256 0.673 3.526 0.673 0.005 0 0.010 0 0.015 0h-0.001c0.053-0.096 0.084-0.211 0.087-0.333v-0.001c-0.001-0.125-0.033-0.242-0.089-0.344l0.002 0.004zM21.333 22.66h-6.24c0.152 0.13 0.321 0.266 0.495 0.395l0.025 0.018h5.72c0.052-0.054 0.085-0.126 0.087-0.206v-0c0-0.003 0-0.006 0-0.010 0-0.078-0.033-0.148-0.087-0.197l-0-0zM21.333 23.493h-5.113c0.265 0.171 0.579 0.349 0.904 0.508l0.056 0.025h4.153c0.050-0.077 0.080-0.172 0.080-0.273 0-0.002-0-0.005-0-0.007v0c-0.004-0.095-0.033-0.182-0.081-0.255l0.001 0.002z"></path>
<path fill="#fbd116" d="M13.367 11.653l1.693 1.573-0.447-2.267-0.973 2.093 2.020-1.12zM15.827 9.52l2.313 0.040-1.847-1.4 0.673 2.22 0.753-2.193z"></path>
<path fill="#fff" d="M21.333 22.107h6.833c0.083-0.084 0.166-0.171 0.247-0.259l0.006-0.007h-7.087c-0.055 0.020-0.093 0.071-0.093 0.132 0 0 0 0.001 0 0.001v-0c0 0.053 0.033 0.113 0.093 0.133zM21.333 20.020c-0.056-0.112-0.089-0.243-0.089-0.382 0-0.044 0.003-0.087 0.010-0.129l-0.001 0.005c0.014-0.095 0.042-0.18 0.082-0.258l-0.002 0.005c0.595 0.567 1.321 1.003 2.128 1.256l0.039 0.011c0.469 0.148 1.008 0.233 1.566 0.233h4.207c-0.143 0.211-0.27 0.385-0.402 0.554l0.016-0.021h-4.067c-1.333 0-2.547-0.48-3.487-1.273zM28.64 18.373c0.191 0.073 0.411 0.121 0.642 0.133l0.005 0c-0.994 1.126-2.441 1.833-4.053 1.833h-0c-0 0-0.001 0-0.001 0-1.532 0-2.915-0.639-3.897-1.665l-0.002-0.002c-0.178-1.168-0.286-2.525-0.3-3.905l-0-0.015c-0.001-0.093-0.002-0.203-0.002-0.313 0-1.482 0.11-2.938 0.321-4.362l-0.020 0.161c0.44 0.4 1.267 1.247 1.653 2.553 0.135 0.45 0.213 0.968 0.213 1.503 0 0.013-0 0.026-0 0.039v-0.002c0 0 0 0.001 0 0.001 0 1.118-0.341 2.157-0.925 3.018l0.012-0.019c0.706-0.901 1.133-2.051 1.133-3.3v-0c0-0.827-0.187-1.613-0.52-2.313 0.225-0.238 0.397-0.529 0.496-0.851l0.004-0.015c0.44 0.763 0.7 1.678 0.7 2.654 0 0.005 0 0.009-0 0.014v-0.001c0 1.2-0.393 2.313-1.060 3.207 1.156-1.213 2.784-1.967 4.588-1.967 0.107 0 0.214 0.003 0.32 0.008l-0.015-0.001c-0.181 0.167-0.332 0.364-0.448 0.582l-0.006 0.012c-1.798 0.002-3.42 0.753-4.571 1.958l-0.002 0.002c1.092-0.92 2.514-1.479 4.067-1.48h0c0.004 0 0.008 0 0.012 0 0.879 0 1.715 0.179 2.476 0.502l-0.041-0.016c-0.796 2.062-2.762 3.498-5.063 3.498-0.156 0-0.311-0.007-0.463-0.020l0.020 0.001c0.313 0.053 0.633 0.087 0.96 0.087 0.003 0 0.006 0 0.010 0 1.459 0 2.782-0.58 3.752-1.521l-0.001 0.001zM21.333 24.293h3.54c-1.044 0.426-2.256 0.673-3.526 0.673-0.005 0-0.010 0-0.015 0h0.001c-0.053-0.096-0.084-0.211-0.087-0.333v-0.001c0.001-0.125 0.033-0.242 0.089-0.344l-0.002 0.004zM21.333 22.66h6.24c-0.152 0.13-0.321 0.266-0.495 0.395l-0.025 0.018h-5.72c-0.052-0.054-0.085-0.126-0.087-0.206v-0c-0-0.003-0-0.006-0-0.010 0-0.078 0.033-0.148 0.087-0.197l0-0zM21.333 23.493h5.113c-0.265 0.171-0.579 0.349-0.904 0.508l-0.056 0.025h-4.153c-0.050-0.077-0.080-0.172-0.080-0.273 0-0.002 0-0.005 0-0.007v0c0.004-0.095 0.033-0.182 0.081-0.255l-0.001 0.002z"></path>
<path fill="#fbd116" d="M29.3 11.653l-1.693 1.573 0.447-2.267 0.973 2.093-2.020-1.12zM26.84 9.52l-2.313 0.040 1.847-1.4-0.673 2.22-0.753-2.193z"></path>
</svg>
