<!-- Generated by IcoMoon.io -->
<svg version="1.1" xmlns="http://www.w3.org/2000/svg" width="43" height="32" viewBox="0 0 43 32">
<title>mp</title>
<path fill="#0071bc" d="M-10.667 0h64v32h-64z"></path>
<path fill="#fff" d="M24.667 24.38s1.013-1.073 1.987-0.867c0.293-1.133 1.4-1.227 1.4-1.227s-0.113-1.247 1.3-1.52c0.040-0.847 0.9-1.553 0.9-1.553s-0.173-1.313 0.72-1.62c-0.547-1.040 0.187-1.8 0.18-1.82-0.013-0.020-0.933-1.653-0.107-2.12-0.867-0.733-0.587-1.56-0.587-1.56s-0.947-0.247-0.607-1.38c-0.78-0.133-0.933-1.393-0.933-1.393s-1.2 0.247-1.347-0.8c-0.8 0.127-0.88-0.653-0.893-0.653-0.007 0-1.567 0.42-1.88-0.76-0.607 0.313-0.867-0.247-0.867-0.247s-0.867 0.433-1.387-0.4c-1.033 0.647-1.613-0.027-1.613-0.027s-1.353 0.893-1.8 0.2c-0.8 0.813-1.52 0.467-1.52 0.467s-0.6 1.067-1.58 0.8c-0.22 0.993-1.347 1.013-1.347 1.013s0.12 0.873-1.227 1.113c-0.173 1.033-0.88 1.2-0.88 1.2s0.067 1.013-0.567 1.333c0.227 0.567-0.36 1.26-0.36 1.26s0.627 0.78-0.227 1.66c0.82 0.213 0.227 1.627 0.227 1.627s1.133 0.507 0.42 1.447c0.813 0.267 0.56 0.907 0.567 1.287 0.52 0.233 0.973 0.12 0.753 1.16 1.587 0.18 0.84 1.053 0.84 1.053s0.733 0.033 0.447 0.62c1.353-0.033 1.553 1.013 1.553 1.013s1.253-0.333 1.42 0.153-0.547 3.78-0.547 3.78-1.067 0-1.853-0.853c-1.853-0.047-1.44-1.267-1.467-1.267-0.033 0-0.62 0.227-0.92-0.793-1.24 0.253-1.2-0.787-1.213-0.8-0.007-0.007-0.553-0.253-0.353-0.767-1.273 0.113-1.18-1.133-1.18-1.133-0.28-0.113-0.38-0.373-0.34-0.633-0.167-0.060-1.3-0.080-0.713-1.573-1.080-0.653-0.407-1.4-0.407-1.4s-1.493-0.773-0.34-1.667c-0.867-1.267 0.067-1.9 0.067-1.9s-1.193-1.207 0.020-2.067c-0.2-1.833 0.893-2.273 0.893-2.273s-0.573-1.493 0.987-2.12c0.1-1.513 1.193-1.553 1.193-1.553s0.027-1.2 1.747-1.080c0.333-1.073 1.5-0.86 1.5-0.86s0.36-1.3 1.953-0.673c0.807-1.58 2.013-0.773 2.013-0.773s0.76-0.493 1.133-0.333c0.487-0.833 1.52-0.040 2.18 0.127 0.247-0.1 1.107-0.747 1.767 0.067 0.88-0.567 1.633 0.467 1.633 0.467s1.207-0.613 1.773 0.787c2.567-0.233 2.2 1.447 2.2 1.447s2.013-0.46 1.573 1.553c1.84 0.127 1.653 1.333 1.653 1.333s1.16 0.88 0.653 1.667c1.033 0.053 0.653 1.047 0.653 1.047s0.793 0.307 0.133 1.533c1.513 1.207 0.293 2.413 0.287 2.4-0.013-0.007 0.807 0.973 0.067 2.107 0.227 1.8-0.68 2.253-0.68 2.253s0.233 1.167-0.78 1.493c-0.020 1.367-1.313 1.533-1.313 1.533s0.347 0.6-0.933 1.22c-0.053 0.913-1.387 0.987-1.387 0.987s-0.127 1.68-1.827 1.227c-0.407 1.347-2.4 0.947-2.44 0.933-0.033-0.020-0.38-2.893-0.38-2.9z"></path>
<path fill="#217900" d="M12.333 8.267s0.427 0.373 0.347 0.933c-0.080 0.553-0.4 1.327-0.333 1.9 0.040 0.233 0.020 0.647 0.020 0.647s-0.38-0.547-0.387-1.133 0.413-1.14 0.413-1.573-0.073-0.78-0.067-0.767zM12.12 8.44s-0.56 0.533-0.633 1.047c-0.053 0.267-0.067 1.513-0.080 2.067-0.013 0.167-0.080 0.833-0.093 1.080-0.020 0.24 0.407-0.413 0.433-0.953-0.013-0.553-0.013-1.72 0.040-1.9 0.053-0.227 0.040-0.473 0.12-0.7l0.213-0.64z"></path>
<path fill="#ffd200" d="M24.4 6.7s0.72-0.333 0.933-0.96-0.633-0.627-0.74-0.427c-0.113 0.2 0.093 0.687 0.040 0.82s-0.347 0.44-0.233 0.56z"></path>
<path fill="#ffd200" d="M17.987 6.927s0.467-0.647 0.347-1.293c-0.127-0.64-0.853-0.24-0.853-0.013s0.413 0.553 0.433 0.693c0.020 0.14-0.087 0.56 0.067 0.607zM16.713 7.307s0.467-0.647 0.347-1.287c-0.12-0.647-0.853-0.247-0.853-0.020s0.42 0.56 0.44 0.7c0.013 0.133-0.087 0.553 0.067 0.607zM15.307 7.74s0.467-0.64 0.347-1.287c-0.127-0.647-0.853-0.247-0.853-0.020s0.413 0.56 0.433 0.7c0.020 0.133-0.087 0.553 0.067 0.607zM14.307 8.733s0.473-0.647 0.353-1.287c-0.12-0.647-0.853-0.247-0.853-0.020s0.42 0.56 0.433 0.7c0.020 0.133-0.087 0.553 0.067 0.607zM13.267 9.693s0.467-0.647 0.347-1.293-0.853-0.24-0.853-0.013 0.42 0.553 0.44 0.693c0.013 0.14-0.087 0.56 0.067 0.613z"></path>
<path fill="#ffd200" d="M15.667 4.113s-0.627 0.493-0.68 1.147c-0.053 0.653 0.753 0.467 0.813 0.247 0.067-0.22-0.247-0.647-0.227-0.787 0.020-0.133 0.233-0.513 0.093-0.6zM17.753 3.473s-0.62 0.493-0.68 1.147c-0.053 0.653 0.753 0.467 0.82 0.247 0.060-0.22-0.253-0.653-0.233-0.793 0.020-0.133 0.233-0.513 0.093-0.6zM9.973 9.107s0.133 0.787 0.68 1.153c0.547 0.36 0.767-0.44 0.607-0.6s-0.687-0.093-0.8-0.173c-0.113-0.087-0.333-0.453-0.487-0.38zM8.933 11.773s0 0.8 0.487 1.247c0.48 0.44 0.827-0.313 0.693-0.493s-0.667-0.2-0.76-0.3c-0.1-0.107-0.267-0.5-0.42-0.447zM11.333 14.76s-0.28-0.747-0.887-1c-0.607-0.24-0.667 0.587-0.48 0.713 0.193 0.12 0.693-0.047 0.82 0.013 0.133 0.060 0.42 0.373 0.553 0.267zM10.84 13.467s0.48-0.633 0.373-1.273c-0.113-0.647-0.847-0.267-0.853-0.040 0 0.227 0.4 0.567 0.42 0.707 0.013 0.14-0.1 0.553 0.060 0.613zM25.88 7.34s0.72-0.333 0.933-0.953-0.633-0.627-0.74-0.433c-0.113 0.2 0.093 0.693 0.040 0.82-0.053 0.133-0.347 0.447-0.233 0.567zM28.067 8.433s0.427-0.673 0.26-1.307c-0.167-0.633-0.867-0.187-0.853 0.040 0.013 0.22 0.453 0.527 0.48 0.667 0.027 0.133-0.047 0.56 0.113 0.6zM34.040 14.633s-0.287-0.74-0.893-0.993c-0.607-0.247-0.667 0.587-0.48 0.707 0.193 0.127 0.7-0.047 0.82 0.013 0.133 0.067 0.42 0.38 0.553 0.273zM31.12 15.1s0.013-0.8 0.5-1.24c0.487-0.44 0.827 0.327 0.693 0.507-0.14 0.18-0.667 0.187-0.773 0.287-0.093 0.1-0.267 0.493-0.42 0.44zM30.653 6.647s-0.753-0.287-1.333 0c-0.6 0.293-0.013 0.893 0.2 0.833 0.22-0.067 0.427-0.553 0.56-0.607s0.56-0.067 0.567-0.227zM28.933 5.22s-0.74-0.287-1.333 0c-0.587 0.293-0.007 0.893 0.213 0.833 0.213-0.067 0.427-0.553 0.553-0.607 0.133-0.053 0.56-0.067 0.567-0.227zM26.4 3.86s-0.633 0.487-0.693 1.133c-0.067 0.653 0.747 0.473 0.813 0.26 0.067-0.22-0.247-0.653-0.227-0.793 0.027-0.133 0.24-0.507 0.107-0.6zM24.747 3.46s-0.293 0.74-0.007 1.333c0.287 0.593 0.887 0.013 0.827-0.2-0.060-0.22-0.547-0.433-0.6-0.56-0.053-0.133-0.060-0.567-0.22-0.573zM20.047 6.327s0.513-0.613 0.44-1.267c-0.073-0.647-0.833-0.3-0.847-0.073-0.020 0.227 0.373 0.587 0.38 0.727 0.007 0.133-0.127 0.547 0.027 0.607z"></path>
<path fill="#8c8a8c" d="M22.853 7.627s1.233 0.080 1.293 0.787-0.293 1.14-0.293 1.14 0.153 1.533-1.053 1.98c-1.293 0.153-3.327 0.033-3.327 0.033s-0.6 0.147-0.84-1.087c-0.122-0.575-0.231-1.294-0.3-2.025l-0.006-0.082s0.12-0.693 0.993-0.733c0.867-0.047 3.52 0 3.533-0.013z"></path>
<path fill="#8c8a8c" d="M22.953 11.487c0.167 0.14 0.32 0.293 0.353 0.8l0.067 1.027 0.867 7.773 0.76 5.62 0.053 0.867s-0.18 0.647-0.693 0.7c-0.367 0.773-2.38 1-2.58 0.993-0.18-0.013-0.82-0.28-1.207-0.247-0.393 0.033-1.067 0.293-1.367 0.253-0.3-0.047-0.987-0.28-1.107-0.773-0.847-0.267-0.98-0.913-0.98-0.913l0.913-6.5 0.887-8.227s0.107-1.093 0.547-1.26c0.46-0.040 2.827 0.047 3.487-0.113z"></path>
<path fill="#de2010" d="M32.933 15.029c-0.028-0.221-0.141-0.431-0.284-0.526-0.165-0.103-0.337-0.081-0.45 0.056s-0.184 0.36-0.156 0.581c0.029 0.232 0.141 0.431 0.285 0.537 0.165 0.103 0.337 0.081 0.45-0.056s0.195-0.361 0.156-0.581z"></path>
<path fill="#de2010" d="M32.84 13.849c-0.028-0.221-0.141-0.431-0.284-0.526-0.165-0.103-0.337-0.081-0.45 0.056s-0.184 0.36-0.156 0.581c0.029 0.232 0.141 0.431 0.285 0.537 0.165 0.103 0.337 0.081 0.45-0.056s0.195-0.361 0.156-0.581z"></path>
<path fill="#de2010" d="M32.592 12.585c-0.047-0.218-0.178-0.417-0.329-0.499-0.174-0.088-0.343-0.051-0.444 0.096s-0.151 0.374-0.105 0.592c0.049 0.229 0.178 0.417 0.331 0.51 0.174 0.088 0.343 0.051 0.444-0.096s0.162-0.377 0.105-0.592z"></path>
<path fill="#de2010" d="M32.164 11.283c-0.101-0.199-0.279-0.358-0.445-0.399-0.19-0.041-0.345 0.038-0.405 0.206s-0.051 0.401 0.050 0.599c0.106 0.209 0.279 0.358 0.45 0.408 0.19 0.041 0.345-0.038 0.405-0.206s0.061-0.406-0.050-0.599z"></path>
<path fill="#de2010" d="M31.697 10.223c-0.101-0.199-0.279-0.358-0.445-0.399-0.19-0.041-0.345 0.038-0.405 0.206s-0.051 0.401 0.050 0.599c0.106 0.209 0.279 0.358 0.45 0.408 0.19 0.041 0.345-0.038 0.405-0.206s0.061-0.406-0.050-0.599z"></path>
<path fill="#de2010" d="M31.037 9.167c-0.117-0.189-0.308-0.333-0.477-0.359-0.193-0.024-0.34 0.067-0.386 0.239s-0.017 0.404 0.1 0.593c0.123 0.199 0.308 0.333 0.483 0.369 0.193 0.024 0.34-0.067 0.386-0.239s0.026-0.409-0.1-0.593z"></path>
<path fill="#de2010" d="M30.298 8.14c-0.135-0.177-0.339-0.302-0.51-0.312-0.195-0.006-0.332 0.099-0.361 0.275s0.022 0.403 0.157 0.58c0.142 0.186 0.339 0.302 0.516 0.32 0.195 0.006 0.332-0.099 0.361-0.275s-0.014-0.41-0.157-0.58z"></path>
<path fill="#de2010" d="M29.417 7.191c-0.159-0.156-0.379-0.249-0.549-0.234-0.193 0.023-0.314 0.146-0.317 0.325s0.080 0.396 0.24 0.551c0.167 0.163 0.379 0.249 0.557 0.242 0.193-0.023 0.314-0.146 0.317-0.325s-0.073-0.404-0.24-0.551z"></path>
<path fill="#de2010" d="M28.431 6.319c-0.173-0.14-0.4-0.213-0.569-0.183-0.19 0.040-0.299 0.175-0.286 0.353s0.116 0.387 0.289 0.527c0.182 0.147 0.4 0.213 0.577 0.19 0.19-0.040 0.299-0.175 0.286-0.353s-0.11-0.395-0.289-0.527z"></path>
<path fill="#de2010" d="M27.383 5.62c-0.194-0.11-0.43-0.144-0.591-0.086-0.181 0.071-0.266 0.222-0.224 0.395s0.179 0.362 0.373 0.472c0.204 0.115 0.43 0.144 0.601 0.091 0.181-0.071 0.266-0.222 0.224-0.395s-0.174-0.371-0.373-0.472z"></path>
<path fill="#de2010" d="M26.211 5c-0.203-0.092-0.442-0.104-0.596-0.032-0.174 0.088-0.245 0.245-0.187 0.414s0.211 0.344 0.414 0.436c0.213 0.096 0.442 0.104 0.607 0.036 0.174-0.088 0.245-0.245 0.187-0.414s-0.207-0.354-0.414-0.436z"></path>
<path fill="#de2010" d="M25.061 4.536c-0.209-0.078-0.448-0.074-0.597 0.008-0.168 0.099-0.228 0.261-0.158 0.425s0.234 0.329 0.443 0.407c0.219 0.082 0.448 0.074 0.608-0.004 0.168-0.099 0.228-0.261 0.158-0.425s-0.23-0.339-0.443-0.407z"></path>
<path fill="#de2010" d="M23.892 4.174c-0.214-0.062-0.452-0.040-0.595 0.054-0.16 0.112-0.207 0.278-0.125 0.436s0.258 0.311 0.472 0.372c0.225 0.065 0.452 0.040 0.606-0.051 0.16-0.112 0.207-0.278 0.125-0.436s-0.255-0.321-0.472-0.372z"></path>
<path fill="#de2010" d="M22.611 3.952c-0.221-0.028-0.453 0.030-0.579 0.145-0.14 0.135-0.162 0.306-0.057 0.45s0.303 0.267 0.524 0.295c0.232 0.029 0.453-0.030 0.591-0.143 0.14-0.135 0.162-0.306 0.057-0.45s-0.302-0.278-0.524-0.295z"></path>
<path fill="#de2010" d="M21.339 3.881c-0.223-0.009-0.449 0.069-0.565 0.194-0.128 0.146-0.135 0.319-0.018 0.454s0.325 0.24 0.547 0.249c0.234 0.009 0.449-0.069 0.576-0.193 0.128-0.146 0.135-0.319 0.018-0.454s-0.324-0.251-0.547-0.249z"></path>
<path fill="#de2010" d="M20.172 3.921c-0.223-0.009-0.449 0.069-0.565 0.194-0.128 0.146-0.135 0.319-0.018 0.454s0.325 0.24 0.547 0.249c0.234 0.009 0.449-0.069 0.576-0.193 0.128-0.146 0.135-0.319 0.018-0.454s-0.324-0.251-0.547-0.249z"></path>
<path fill="#de2010" d="M18.812 4.082c-0.217 0.050-0.415 0.184-0.495 0.335-0.086 0.175-0.047 0.343 0.101 0.443s0.376 0.147 0.593 0.097c0.228-0.052 0.415-0.184 0.506-0.337 0.086-0.175 0.047-0.343-0.101-0.443s-0.379-0.157-0.593-0.097z"></path>
<path fill="#de2010" d="M17.574 4.393c-0.212 0.067-0.398 0.217-0.465 0.375-0.071 0.181-0.019 0.346 0.137 0.433s0.387 0.115 0.599 0.048c0.223-0.071 0.398-0.217 0.476-0.378 0.071-0.181 0.019-0.346-0.137-0.433s-0.39-0.126-0.599-0.048z"></path>
<path fill="#de2010" d="M16.443 4.881c-0.203 0.092-0.37 0.263-0.417 0.427-0.049 0.188 0.023 0.346 0.188 0.413s0.398 0.068 0.601-0.024c0.213-0.097 0.37-0.263 0.428-0.432 0.049-0.188-0.023-0.346-0.188-0.413s-0.403-0.078-0.601 0.024z"></path>
<path fill="#de2010" d="M15.315 5.457c-0.194 0.109-0.346 0.294-0.379 0.461-0.033 0.192 0.052 0.343 0.222 0.396s0.402 0.034 0.597-0.075c0.204-0.115 0.346-0.294 0.389-0.467 0.033-0.192-0.052-0.343-0.222-0.396s-0.408-0.044-0.597 0.075z"></path>
<path fill="#de2010" d="M14.244 6.183c-0.181 0.13-0.312 0.33-0.327 0.5-0.012 0.194 0.089 0.335 0.264 0.369s0.404-0.010 0.585-0.139c0.19-0.136 0.312-0.33 0.336-0.506 0.012-0.194-0.089-0.335-0.264-0.369s-0.41 0.001-0.585 0.139z"></path>
<path fill="#de2010" d="M13.26 6.931c-0.17 0.144-0.283 0.355-0.284 0.526 0.005 0.195 0.117 0.326 0.294 0.346s0.402-0.044 0.571-0.188c0.178-0.152 0.283-0.355 0.292-0.533-0.005-0.195-0.117-0.326-0.294-0.346s-0.409 0.036-0.571 0.188z"></path>
<path fill="#de2010" d="M12.386 7.843c-0.159 0.156-0.257 0.374-0.245 0.545 0.019 0.194 0.14 0.317 0.318 0.324s0.397-0.073 0.556-0.229c0.167-0.164 0.257-0.374 0.253-0.553-0.019-0.194-0.14-0.317-0.318-0.324s-0.405 0.065-0.556 0.229z"></path>
<path fill="#de2010" d="M11.636 8.859c-0.145 0.169-0.225 0.394-0.199 0.563 0.035 0.192 0.166 0.304 0.344 0.296s0.39-0.106 0.535-0.275c0.152-0.177 0.225-0.394 0.206-0.572-0.035-0.192-0.166-0.304-0.344-0.296s-0.398 0.099-0.535 0.275z"></path>
<path fill="#de2010" d="M10.948 9.891c-0.126 0.184-0.181 0.416-0.138 0.581 0.055 0.187 0.198 0.285 0.374 0.257s0.376-0.147 0.503-0.33c0.133-0.193 0.181-0.416 0.144-0.59-0.055-0.187-0.198-0.285-0.374-0.257s-0.385 0.14-0.503 0.33z"></path>
<path fill="#de2010" d="M10.379 11.063c-0.093 0.202-0.107 0.441-0.036 0.596 0.086 0.174 0.244 0.247 0.413 0.189s0.346-0.209 0.438-0.412c0.098-0.213 0.107-0.441 0.040-0.606-0.086-0.174-0.244-0.247-0.413-0.189s-0.355 0.205-0.438 0.412z"></path>
<path fill="#de2010" d="M9.928 12.295c-0.074 0.21-0.067 0.449 0.019 0.597 0.102 0.166 0.265 0.223 0.428 0.151s0.325-0.24 0.399-0.45c0.078-0.221 0.067-0.449-0.015-0.608-0.102-0.166-0.265-0.223-0.428-0.151s-0.335 0.236-0.399 0.45z"></path>
<path fill="#de2010" d="M9.534 14.625c-0.021 0.178 0.045 0.362 0.164 0.46 0.139 0.109 0.312 0.122 0.452 0.034s0.257-0.25 0.277-0.428c0.022-0.187-0.045-0.362-0.163-0.469-0.139-0.109-0.312-0.122-0.452-0.034s-0.268 0.249-0.277 0.428z"></path>
<path fill="#de2010" d="M9.638 13.539c-0.050 0.217-0.015 0.454 0.087 0.591 0.12 0.153 0.289 0.191 0.443 0.101s0.296-0.275 0.345-0.492c0.052-0.228 0.015-0.454-0.085-0.602-0.12-0.153-0.289-0.191-0.443-0.101s-0.306 0.273-0.345 0.492z"></path>
<path fill="#ffe300" d="M32 12.98c0.147-0.153 0.28-0.2 0.447-0.14-0.067-0.407-0.187-0.547-0.347-0.493-0.153 0.047-0.227 0.253-0.1 0.633zM32.22 14.193c0.153-0.14 0.287-0.173 0.453-0.107-0.027-0.4-0.147-0.553-0.307-0.513-0.16 0.033-0.24 0.24-0.147 0.62zM31.7 11.86c0.1-0.18 0.22-0.253 0.4-0.247-0.167-0.373-0.32-0.473-0.467-0.387-0.133 0.087-0.147 0.307 0.067 0.64zM31.16 10.753c0.1-0.187 0.22-0.26 0.4-0.247-0.167-0.38-0.327-0.48-0.467-0.393-0.133 0.087-0.147 0.307 0.067 0.64zM29.86 8.72c0.067-0.2 0.173-0.293 0.347-0.307-0.22-0.347-0.393-0.42-0.513-0.313s-0.1 0.333 0.167 0.62zM29 7.833c0.067-0.2 0.16-0.293 0.333-0.32-0.227-0.333-0.4-0.4-0.52-0.293-0.12 0.113-0.093 0.333 0.187 0.613zM27.22 6.333c0-0.213 0.067-0.333 0.22-0.413-0.32-0.247-0.513-0.253-0.587-0.113s0.013 0.34 0.367 0.527zM28.153 7.033c0.027-0.207 0.113-0.32 0.287-0.367-0.28-0.3-0.46-0.347-0.56-0.22-0.1 0.133-0.047 0.34 0.267 0.587zM26.153 5.747c-0.020-0.207 0.033-0.333 0.18-0.433-0.347-0.213-0.533-0.2-0.6-0.053-0.060 0.153 0.053 0.34 0.427 0.487zM25.080 5.267c-0.053-0.2-0.020-0.333 0.113-0.453-0.373-0.16-0.56-0.127-0.6 0.033s0.1 0.327 0.487 0.42zM23.913 4.907c-0.073-0.2-0.053-0.333 0.073-0.467-0.387-0.127-0.567-0.073-0.6 0.087-0.020 0.16 0.133 0.32 0.527 0.38zM22.76 4.68c-0.080-0.187-0.067-0.333 0.047-0.467-0.4-0.1-0.573-0.033-0.587 0.133-0.020 0.16 0.147 0.307 0.54 0.333zM21.547 4.587c-0.107-0.18-0.107-0.32 0-0.467-0.407-0.060-0.58 0.027-0.573 0.187 0 0.167 0.18 0.293 0.573 0.28zM19.167 4.767c-0.147-0.147-0.18-0.287-0.12-0.453-0.4 0.040-0.547 0.16-0.507 0.32s0.247 0.24 0.627 0.133zM20.34 4.613c-0.127-0.167-0.147-0.307-0.060-0.467-0.407-0.013-0.567 0.087-0.547 0.253 0.020 0.16 0.213 0.267 0.6 0.213zM18.013 5.013c-0.16-0.127-0.22-0.253-0.18-0.427-0.4 0.1-0.52 0.24-0.46 0.387 0.067 0.153 0.28 0.2 0.64 0.040zM15.813 6.027c-0.187-0.093-0.267-0.207-0.26-0.387-0.373 0.173-0.467 0.333-0.373 0.467 0.087 0.133 0.307 0.147 0.633-0.080zM16.88 5.487c-0.18-0.113-0.24-0.24-0.213-0.413-0.393 0.12-0.507 0.267-0.433 0.413s0.293 0.187 0.64 0zM13.84 7.407c-0.2-0.053-0.307-0.153-0.333-0.333-0.333 0.253-0.387 0.427-0.273 0.54 0.12 0.113 0.333 0.080 0.6-0.207zM14.78 6.633c-0.2-0.067-0.293-0.173-0.307-0.347-0.347 0.213-0.42 0.387-0.313 0.513 0.107 0.12 0.333 0.1 0.62-0.167zM13 8.233c-0.2-0.040-0.313-0.127-0.36-0.3-0.307 0.273-0.347 0.46-0.22 0.56 0.127 0.107 0.333 0.047 0.58-0.267zM12.247 9.2c-0.213-0.013-0.333-0.087-0.387-0.253-0.28 0.3-0.307 0.48-0.173 0.573s0.34 0.013 0.56-0.32zM11.62 10.2c-0.213 0.013-0.333-0.047-0.427-0.2-0.227 0.34-0.227 0.533-0.080 0.6s0.34-0.040 0.507-0.4zM11.067 11.267c-0.2 0.040-0.333 0-0.447-0.147-0.18 0.367-0.153 0.553 0 0.6 0.153 0.053 0.333-0.080 0.447-0.46zM10.627 12.353c-0.2 0.073-0.333 0.053-0.467-0.067-0.12 0.387-0.067 0.567 0.1 0.593 0.16 0.020 0.313-0.133 0.367-0.533zM10.327 13.567c-0.187 0.087-0.327 0.080-0.467-0.033-0.093 0.4-0.027 0.567 0.133 0.58 0.167 0.020 0.313-0.147 0.333-0.547zM10.207 14.58c-0.173 0.093-0.313 0.107-0.467 0.033-0.047 0.327 0.040 0.453 0.2 0.44s0.287-0.16 0.267-0.473zM30.673 9.767c0.073-0.2 0.18-0.293 0.353-0.307-0.213-0.347-0.38-0.42-0.507-0.32-0.127 0.107-0.107 0.333 0.153 0.627zM32.353 15.433c0.153-0.147 0.293-0.18 0.453-0.107-0.027-0.407-0.147-0.553-0.307-0.52-0.153 0.040-0.24 0.24-0.147 0.627z"></path>
<path fill="#217900" d="M30.753 8.8s-0.467 0.46-0.38 1.013c0.080 0.553 0.433 1.24 0.367 1.82-0.067 0.573-0.167 0.953-0.167 0.953s0.533-0.607 0.533-1.2c0.013-0.58-0.36-1.353-0.36-1.78s0.020-0.813 0.007-0.8zM31.6 10.667s-0.353 0.267-0.32 0.867c0.033 0.607 0.667 1.72 0.667 1.72s0.453 0.933 0.433 1.18c-0.013 0.247 0.087-0.233 0.040-0.767s-0.733-1.72-0.733-1.72-0.147-0.24-0.133-0.647c0.013-0.4 0.053-0.627 0.053-0.633z"></path>
<path fill="#6b18b5" d="M20.867 3.16c0-0.12-0.147-0.227-0.32-0.227s-0.313 0.107-0.313 0.227 0.133 0.227 0.313 0.227 0.313-0.1 0.313-0.227zM21 3.693c0-0.12-0.147-0.22-0.333-0.22-0.173 0-0.32 0.093-0.32 0.213s0.147 0.22 0.327 0.22 0.32-0.1 0.32-0.22zM21.4 3.067s-0.373 0.273-0.22 0.387c0.153 0.113 0.573-0.24 0.573-0.24l-0.353-0.147zM32.287 9.427c0-0.080-0.033-0.153-0.093-0.193-0.028-0.020-0.063-0.032-0.1-0.032s-0.072 0.012-0.101 0.032l0.001-0c-0.060 0.040-0.093 0.113-0.093 0.193s0.033 0.153 0.093 0.193c0.028 0.020 0.063 0.032 0.1 0.032s0.072-0.012 0.101-0.032l-0.001 0c0.060-0.040 0.093-0.113 0.093-0.193zM32.147 8.893c0-0.133-0.093-0.233-0.2-0.233s-0.207 0.107-0.207 0.24 0.093 0.233 0.2 0.233 0.207-0.107 0.207-0.233zM32.247 9.973c0-0.067-0.040-0.12-0.080-0.12s-0.080 0.053-0.080 0.12 0.033 0.127 0.080 0.127 0.080-0.060 0.080-0.127zM32.573 9.013c0-0.080-0.040-0.14-0.080-0.14-0.047 0-0.080 0.060-0.080 0.133s0.033 0.147 0.080 0.147c0.040 0 0.080-0.067 0.080-0.14zM31.68 9.107c0-0.067-0.040-0.113-0.080-0.113s-0.080 0.053-0.080 0.113 0.033 0.12 0.080 0.12 0.080-0.053 0.080-0.12zM31.82 9.867c0-0.1-0.073-0.18-0.167-0.18s-0.167 0.080-0.167 0.18c0 0.107 0.067 0.187 0.167 0.187s0.167-0.080 0.167-0.187zM31.38 9.533c0-0.087-0.067-0.16-0.14-0.16-0.080 0-0.147 0.067-0.147 0.16s0.067 0.16 0.147 0.16c0.073 0 0.133-0.067 0.133-0.16zM31.313 9.080c-0.001-0.048-0.027-0.090-0.066-0.113l-0.001-0c-0.018-0.011-0.040-0.018-0.063-0.018s-0.045 0.007-0.064 0.018l0-0c-0.036 0.024-0.060 0.065-0.060 0.111 0 0.001 0 0.001 0 0.002v-0c-0 0.001-0 0.003-0 0.005 0 0.049 0.027 0.092 0.066 0.115l0.001 0c0.017 0.010 0.038 0.016 0.060 0.016s0.043-0.006 0.061-0.016l-0.001 0c0.040-0.027 0.067-0.067 0.067-0.12zM33.32 11.373c-0.18-0.24-0.473-0.34-0.653-0.227-0.173 0.113-0.173 0.4 0.013 0.647 0.18 0.24 0.467 0.34 0.647 0.227 0.18-0.12 0.18-0.4 0-0.647zM33.84 15.82c0.033-0.3-0.107-0.56-0.32-0.587-0.213-0.020-0.413 0.2-0.453 0.493-0.033 0.293 0.113 0.553 0.327 0.58s0.413-0.2 0.447-0.487zM33.947 18.407c0.067-0.293-0.060-0.567-0.267-0.613-0.213-0.040-0.433 0.16-0.493 0.453-0.060 0.287 0.067 0.56 0.267 0.6 0.213 0.047 0.433-0.153 0.493-0.447zM34.447 15.98c0-0.113-0.080-0.207-0.173-0.207s-0.18 0.093-0.18 0.207c0 0.12 0.080 0.213 0.18 0.213s0.173-0.093 0.173-0.213zM34.013 16.467l-0.36 0.413s-0.34 0.007-0.32 0.12c0.013 0.107 0.467 0.44 0.467 0.573-0.007 0.133 0.293-0.033 0.293-0.033l0.247-0.74s-0.013-0.513-0.147-0.507c-0.133 0.013-0.167 0.167-0.18 0.173zM10.187 16.307c0.002-0.010 0.003-0.022 0.003-0.034 0-0.096-0.078-0.173-0.173-0.173s-0.173 0.078-0.173 0.173c0 0.012 0.001 0.024 0.004 0.035l-0-0.001c0.016 0.080 0.086 0.14 0.17 0.14s0.154-0.059 0.17-0.138l0-0.001zM10.353 15.773c0-0.093-0.080-0.173-0.173-0.173s-0.173 0.080-0.173 0.18 0.080 0.18 0.173 0.18c0.097-0.004 0.173-0.083 0.173-0.18 0-0 0-0 0-0v0zM8.933 13.28c-0.067-0.147-0.2-0.227-0.3-0.18s-0.133 0.2-0.067 0.347 0.2 0.227 0.3 0.18c0.107-0.047 0.133-0.2 0.067-0.347zM9.367 14.84c-0.093-0.187-0.273-0.293-0.413-0.233s-0.18 0.26-0.093 0.447 0.267 0.293 0.413 0.233 0.18-0.26 0.093-0.447zM9.82 15.987c0.033-0.233-0.067-0.453-0.213-0.48-0.153-0.033-0.293 0.133-0.327 0.367-0.027 0.233 0.067 0.447 0.22 0.48 0.147 0.033 0.293-0.133 0.32-0.367zM9.087 16.153c0.093-0.22 0.060-0.453-0.073-0.52s-0.32 0.047-0.413 0.267-0.060 0.447 0.080 0.52 0.313-0.047 0.407-0.267z"></path>
<path fill="#6b18b5" d="M8.753 15.653c0-0.113-0.087-0.2-0.193-0.2s-0.193 0.093-0.193 0.2 0.087 0.2 0.2 0.2 0.187-0.087 0.187-0.2zM8.6 15.153c0-0.1-0.080-0.18-0.173-0.18-0.097 0.004-0.173 0.083-0.173 0.18 0 0.002 0 0.005 0 0.007v-0c0 0.093 0.080 0.18 0.173 0.18s0.173-0.087 0.173-0.187zM8.76 14.2c0-0.173-0.073-0.307-0.167-0.307s-0.167 0.133-0.167 0.307c0 0.167 0.073 0.307 0.167 0.307s0.167-0.133 0.167-0.307zM9.28 14.127c0.020-0.167-0.033-0.313-0.133-0.333-0.087-0.007-0.18 0.12-0.2 0.287-0.027 0.167 0.033 0.313 0.127 0.327 0.087 0.013 0.18-0.113 0.2-0.28zM12.947 6.793c0.073-0.24 0-0.48-0.153-0.533-0.153-0.060-0.333 0.087-0.4 0.327s0 0.48 0.153 0.533c0.153 0.060 0.333-0.087 0.4-0.327zM12.253 7.853c0.2-0.18 0.293-0.42 0.2-0.54-0.1-0.127-0.347-0.080-0.553 0.093s-0.287 0.413-0.193 0.533c0.1 0.127 0.347 0.087 0.547-0.087zM11.853 7.267c0.2-0.153 0.28-0.36 0.187-0.467s-0.333-0.067-0.533 0.080c-0.207 0.153-0.293 0.36-0.2 0.467s0.333 0.067 0.54-0.080zM13.42 6.233c0.133-0.107 0.193-0.253 0.133-0.327-0.067-0.067-0.233-0.047-0.373 0.060s-0.193 0.247-0.127 0.32c0.067 0.073 0.227 0.047 0.367-0.053z"></path>
<path fill="#6b18b5" d="M12.6 7.233c0.093-0.147 0.1-0.3 0.013-0.347s-0.233 0.027-0.327 0.173-0.1 0.3-0.013 0.347c0.087 0.047 0.233-0.033 0.327-0.173zM13.78 6.613c0.147-0.127 0.2-0.287 0.133-0.367-0.080-0.080-0.267-0.040-0.413 0.080s-0.2 0.287-0.127 0.367c0.080 0.080 0.26 0.040 0.407-0.080zM11.647 8.053c0.133 0 0.24-0.073 0.227-0.153 0-0.073-0.127-0.133-0.267-0.127-0.133 0.007-0.24 0.080-0.227 0.153 0.007 0.080 0.133 0.133 0.267 0.133zM14.227 5.847c0.093-0.147 0.1-0.3 0.013-0.347-0.080-0.047-0.227 0.027-0.32 0.173s-0.1 0.3-0.013 0.347c0.087 0.047 0.227-0.027 0.32-0.173z"></path>
<path fill="#ffd200" d="M29.787 10.227s0.427-0.673 0.267-1.313c-0.167-0.633-0.867-0.18-0.853 0.047 0.013 0.22 0.453 0.527 0.48 0.667 0.027 0.133-0.053 0.553 0.107 0.6z"></path>
<path fill="#217900" d="M21.66 4.62s1.533 0.060 1.54 1.053c0 0.153 0 0.333-0.053 0.78 0.307-0.167 0.507-0.62 0.467-0.913 0.007-1.007-1.367-1.7-1.953-0.92z"></path>
<path fill="#217900" d="M20.687 4.573s1.233-0.253 1.247 0.733c0.007 1-0.4 1.153-0.4 1.153s0.953-0.2 0.96-1.207c0-1.013-1.22-1.46-1.807-0.68z"></path>
<path fill="#f7df73" d="M24.887 26s5.787-1.64 7.533-8.733c-1.020 7.273-7.353 9.6-7.353 9.6l-0.187-0.867z"></path>
<path fill="#8c1800" d="M25.48 26.44c0.18 0 0.62-0.493 0.873-0.547s0.28-0.313-0.007-0.32c-0.293-0.013-0.547 0.333-0.547 0.333s-0.253 0.213-0.52 0.24c-0.267 0.027-0.093 0.36 0.2 0.293z"></path>
<path fill="#8c1800" d="M28.813 23.953s-0.6 0.347-0.52 0.433c0.087 0.087 0.62-0.333 0.633-0.333 0.007-0.013 0.227-0.28-0.113-0.1z"></path>
<path fill="#8c1800" d="M26.713 25.533s-0.18-0.067 0.28-0.24c0.467-0.18 0.433-0.387 0.587-0.473 0.147-0.087 0.467-0.313 0.533-0.18s-0.333 0.4-0.433 0.427c-0.093 0.027-0.553 0.453-0.687 0.487-0.133 0.040-0.227 0.020-0.28-0.020z"></path>
<path fill="#f7df73" d="M17.297 25.849s-5.738-1.667-7.46-8.9c1.004 7.426 7.283 9.773 7.283 9.773l0.177-0.873z"></path>
<path fill="#8c1800" d="M16.713 26.293c-0.18 0-0.613-0.5-0.867-0.553-0.253-0.060-0.28-0.32 0.007-0.333 0.293 0 0.54 0.34 0.54 0.34s0.253 0.22 0.513 0.253c0.267 0.027 0.093 0.36-0.193 0.293z"></path>
<path fill="#8c1800" d="M13.413 23.763s0.596 0.363 0.508 0.454c-0.077 0.079-0.607-0.34-0.618-0.351s-0.221-0.283 0.11-0.102z"></path>
<path fill="#8c1800" d="M15.493 25.373s0.173-0.067-0.28-0.247-0.433-0.4-0.58-0.48c-0.147-0.087-0.467-0.313-0.533-0.18s0.333 0.4 0.433 0.427c0.093 0.033 0.547 0.467 0.68 0.5 0.133 0.040 0.22 0.020 0.28-0.020z"></path>
<path fill="#217900" d="M32.693 15.953c0.033 0.447 0.467 0.867 0.293 1.647-0.213 0.887-0.987 2.98-0.853 3.347-0.227-0.313-0.187-0.6-0.2-1.040-0.027-0.433 0.627-2.060 0.687-2.607 0-0.493 0.047-1.167 0.073-1.347z"></path>
<path fill="#217900" d="M32.693 15.96s0.713 0.9 0.673 1.613c-0.033 0.713-0.433 1.547-0.3 1.913-0.192-0.243-0.308-0.554-0.308-0.892 0-0.019 0-0.038 0.001-0.057l-0 0.003c-0.020-0.433 0.353-0.92 0.273-1.393-0.073-0.467-0.347-1.187-0.333-1.187zM9.407 16.16c-0.027 0.447-0.36 0.847-0.187 1.62 0.213 0.887 1 2 0.867 3.28 0.233-0.313 0.3-0.667 0.32-1.1 0.013-0.433-0.867-1.9-0.92-2.453 0-0.493-0.053-1.167-0.080-1.347z"></path>
<path fill="#217900" d="M9.407 16.173s-0.693 0.867-0.653 1.58c0.007 0.473 0.88 2.453 0.747 2.827 0.233-0.313 0.293-0.273 0.287-0.747-0.253-1.22-0.713-1.993-0.633-2.467 0.073-0.473 0.267-1.2 0.253-1.2z"></path>
<path fill="#fff" d="M21.234 8.2l1.709 5.298h5.593l-4.505 3.279 1.717 5.298-4.505-3.271-4.505 3.271 1.709-5.298-4.513-3.279h5.577z"></path>
</svg>
