<!-- Generated by IcoMoon.io -->
<svg version="1.1" xmlns="http://www.w3.org/2000/svg" width="43" height="32" viewBox="0 0 43 32">
<title>mr</title>
<path fill="#cd2a3e" d="M0 0h42.667v32h-42.667z"></path>
<path fill="#006233" d="M0 4.8h42.667v22.4h-42.667z"></path>
<path fill="#ffc400" d="M31.333 10.307c0 5.523-4.477 10-10 10s-10-4.477-10-10v0c-0.212 0.781-0.333 1.678-0.333 2.603 0 0.004 0 0.008 0 0.011v-0.001c0 5.707 4.626 10.333 10.333 10.333s10.333-4.626 10.333-10.333v0c0-0.004 0-0.010 0-0.015 0-0.924-0.122-1.819-0.35-2.67l0.016 0.072z"></path>
<path fill="#ffc400" d="M21.333 6.253l-0.9 2.767h-2.9l2.353 1.707-0.9 2.76 2.353-1.707 2.353 1.707-0.9-2.76 2.353-1.707h-2.907z"></path>
</svg>
