<!-- Generated by IcoMoon.io -->
<svg version="1.1" xmlns="http://www.w3.org/2000/svg" width="43" height="32" viewBox="0 0 43 32">
<title>ms</title>
<path fill="#012169" d="M0 0h42.667v32h-42.667z"></path>
<path fill="#fff" d="M25.66 7.4h13.7l-0.020 9.753c0.113 3.913-2.327 6.347-6.82 7.447-3.193-0.8-6.867-2.433-6.88-7.333l0.020-9.867z"></path>
<path fill="#00a2bd" d="M25.96 7.693h13.093l-0.013 9.347c0.107 3.753-2.227 6.080-6.52 7.133-3.053-0.76-6.567-2.333-6.573-7.027l0.013-9.453z"></path>
<path fill="#a53d08" d="M38.953 18.147c-0.48 3.58-3.24 5.147-6.433 5.98-2.833-0.76-5.88-1.973-6.467-5.967l12.9-0.013z"></path>
<path fill="#000" d="M32 9.433l-0.020-1.173 0.933 0.007 0.007 1.167h2.547l0.007 0.913-2.553 0.013-0.020 10.76-0.907 0.007-0.013-10.78-2.533 0.013v-0.933z"></path>
<path fill="#ff9a08" d="M29.933 18.587l2.333 2.42c0.807-0.887 0.247-4.2-0.813-4.807-0.127 0.393-0.34 0.867-0.573 1.013-0.5 0.347-1.74 0.747-1.327 1 0.093-0.127 0.34-0.247 0.46 0.040 0.133 0.46-0.52 0.487-0.52 0.487s-0.413-0.053-0.487-0.467c-0.067-0.427 0.62-0.813 0.68-0.84 0.053-0.020 0.953-0.267 1.107-1.060 0.193-0.787 0.387-0.667 0.42-0.68 1.18 0.113 1.947 2.22 1.993 3.7 0.040 1.48-0.6 2.467-0.72 2.533-0.113 0.060-2.8-3.193-2.8-3.193l0.253-0.147z"></path>
<path fill="#ff9a08" d="M31.64 16.333l0.013 4.367"></path>
<path fill="#ff9a08" d="M31.373 16.42l0.020 3.96"></path>
<path fill="#ff9a08" d="M31.093 16.993l0.013 3.147"></path>
<path fill="#ff9a08" d="M30.86 17.213l0.013 2.607"></path>
<path fill="#ff9a08" d="M30.613 17.333v2.2"></path>
<path fill="#ff9a08" d="M30.347 17.507v1.74"></path>
<path fill="#ff9a08" d="M30.113 17.647v1.333"></path>
<path fill="#008021" d="M32.933 11.693c0.153-0.133 0.24-0.22 0.34-0.2 0.1 0.013 0.233 0 0.333-0.027 0.14-0.034 0.302-0.054 0.468-0.054 0.117 0 0.233 0.010 0.345 0.029l-0.012-0.002c0.067 0.013 0.167 0.047 0.307 0.167s0.347 0.333 0.28 0.907-0.047 0.82-0.080 1.147c-0.053 0.567-0.18 1.033-0.4 1 0.3 0.533 0.333 1 0.533 1.367s0.32 1.12 0.247 1.933c-0.080 0.82-0.293 2.647 0.353 3.88-0.107 0.073-0.367 0-0.6-0.247s-0.333-0.24-0.52-0.093c-0.587 0.447-1.133 0.987-1.94 0.447-0.187-0.12-0.24-0.267-0.107-0.647 0.333-0.933 0.5-2.227 0.447-2.827v-6.78z"></path>
<path fill="#ffe1cf" d="M33.484 11.117c0.025 0.065 0.039 0.141 0.039 0.22 0 0.084-0.016 0.164-0.046 0.238l0.002-0.004c-0.069 0.16-0.085 0.341 0.032 0.565 0.181-0.267 0.443-0.213 0.597-0.363 0.155-0.155 0.187-0.299 0.299-0.331-0.112-0.101-0.288-0.213-0.251-0.501 0.037-0.293 0.443-0.533 0.075-0.976-0.099-0.125-0.25-0.204-0.419-0.204-0.203 0-0.38 0.114-0.47 0.281l-0.001 0.003c-0.021 0.053 0.011 0.16-0.048 0.229-0.037 0.053-0.085 0.096-0.139 0.133-0.032 0.027-0.053 0.059-0.016 0.107 0.016 0.016 0.043 0.016 0.069 0.027l-0.053 0.096c-0.021 0.021-0.011 0.043 0.011 0.064-0.032 0.091 0.027 0.107-0.011 0.171-0.037 0.059-0.080 0.133 0.043 0.203 0.037 0.016 0.203 0.053 0.288 0.043z"></path>
<path fill="#ffe1cf" d="M31.985 12.653c-0.213 0.053-0.56-0.043-0.821-0.011-0.117 0.011-0.208-0.048-0.192-0.16 0.016-0.117 0.032-0.293 0.005-0.459 0.005-0.36 0.099-0.698 0.262-0.992l-0.006 0.011c0.127-0.225 0.217-0.488 0.255-0.767l0.001-0.011c0-0.123 0.011-0.256 0.117-0.325 0.080-0.053 0.096-0.101 0.123-0.144 0.064-0.096 0.128-0.117 0.133-0.059 0.005 0.032-0.005 0.064-0.037 0.107 0.069-0.053 0.187-0.123 0.213-0.139 0.027-0.021 0.16-0.117 0.171-0.027 0.053-0.027 0.091-0.027 0.107 0 0.011 0.037 0 0.048-0.021 0.069 0.037-0.005 0.080 0.059 0 0.123 0.043-0.016 0.085 0.053 0.011 0.112-0.069 0.064-0.16 0.107-0.181 0.16-0.027 0.053-0.213 0.192-0.283 0.219-0.075 0.032-0.080 0.075-0.080 0.181 0 1.184-0.139 1.088-0.139 1.376 0 0.075-0.016 0.144 0.059 0.123 0.080-0.027 0.192-0.059 0.304-0.059v0.667z"></path>
<path fill="#ffe1cf" d="M32.033 15.203c0.347-0.176 0.747-0.24 0.955-0.293 0.268-0.088 0.497-0.19 0.715-0.309l-0.021 0.011c0.165-0.085 0.299-0.203 0.389-0.229 0.112-0.035 0.202-0.112 0.255-0.211l0.001-0.002c0.251-0.418 0.416-0.914 0.458-1.444l0.001-0.012c0-0.267-0.069-0.571-0.331-0.357-0.266 0.231-0.469 0.528-0.583 0.866l-0.004 0.014c-0.107 0.427-0.197 0.523-0.219 0.608-0.027 0.085-0.112 0.085-0.213 0.107-0.352 0.056-0.661 0.208-0.908 0.428l0.002-0.002c-0.272 0.203-0.582 0.406-0.905 0.59l-0.045 0.023c-0.245 0.139-0.293 0.149-0.347 0.267-0.053 0.107-0.107 0.192-0.149 0.24-0.048 0.053-0.059 0.107-0.053 0.171 0.011 0.053-0.011 0.283-0.016 0.357 0 0.080 0.016 0.096 0.048 0.101 0.027 0 0.069-0.011 0.085-0.107-0.016 0.096 0.112 0.064 0.117-0.005 0 0.101 0.133 0.043 0.139-0.053 0 0.069 0.107 0.021 0.112-0.005 0.027-0.080 0.043-0.16 0.075-0.224 0.043-0.091 0.091-0.208 0.181-0.267 0.101-0.075 0.053-0.16 0.261-0.267z"></path>
<path fill="#ffe1cf" d="M34.524 21.501c0.021 0.085 0.064 0.181 0.080 0.24 0.016 0.053-0.011 0.075-0.027 0.107-0.082 0.17-0.145 0.367-0.18 0.574l-0.002 0.013c-0.005 0.080-0.064 0.16-0.091 0.213-0.032 0.053-0.016 0.096 0.053 0.149 0.027 0.021 0.133-0.011 0.144-0.064 0.043 0.037 0.107 0.027 0.139-0.032 0.037 0.032 0.096 0.011 0.133-0.048 0.032 0.021 0.085-0.021 0.107-0.053 0.053 0.027 0.107-0.005 0.107-0.107 0-0.027 0.016-0.064 0.032-0.085 0.016-0.027 0.021-0.075 0.021-0.117s0.021-0.128 0.059-0.187c0.037-0.059 0.101-0.165 0.075-0.267-0.027-0.091-0.064-0.085-0.101-0.213-0.085-0.091-0.197-0.213-0.32-0.224-0.117-0.005-0.187 0.075-0.229 0.101z"></path>
<path fill="#ffe1cf" d="M32.337 22.163c0.107 0.107 0.347 0.107 0.517-0.069-0.059-0.027-0.197-0.091-0.256-0.139-0.085 0.085-0.181 0.181-0.267 0.208z"></path>
<path fill="#870f00" d="M33.427 9.933c0.040-0.267 0.233-0.267 0.353-0.233 0.053 0.007 0.173 0.020 0.293-0.013 0.227-0.060 0.4 0.020 0.373 0.24 0.067 0.047 0.133 0.153 0.113 0.247-0.007 0.093 0.013 0.133 0.093 0.14 0.087 0.013 0.267 0.12 0.147 0.267 0.113 0.067 0.2 0.247 0.14 0.36-0.060 0.12-0.24 0.14-0.32 0.033-0.087 0.040-0.22 0.047-0.307-0.040-0.060 0.067-0.2 0.060-0.233 0-0.027-0.067-0.067-0.093-0.127-0.113s-0.067-0.187 0.027-0.207c-0.007-0.053 0-0.107 0.020-0.133s0-0.080-0.053-0.12c-0.053-0.047-0.1-0.2-0.047-0.293-0.093 0.033-0.293-0.060-0.333-0.12-0.047-0.067-0.107-0.067-0.14-0.013z"></path>
<path fill="#000" d="M33.367 10.179c0.053 0.069 0.112 0.064 0.123 0.107 0.011 0.053 0.016 0.053 0.027 0.069 0.011 0.011-0.027 0.011-0.043 0h-0.091c-0.027 0-0.059-0.037-0.043-0.037 0.021-0.005 0.021-0.011 0.016-0.027 0-0.016 0.011-0.037 0.021-0.043l-0.005-0.021c-0.011-0.021-0.021-0.064-0.005-0.053z"></path>
<path fill="#000" d="M33.399 10.109c0.089 0.012 0.168 0.051 0.23 0.107l-0-0c0.043 0.053 0.005 0.037-0.016 0.037s-0.069-0.011-0.091-0.043c-0.035-0.034-0.078-0.060-0.126-0.074l-0.002-0.001c-0.021-0.005-0.043-0.032 0.005-0.027z"></path>
<path fill="#012169" d="M0 0h21.333v16h-21.333z"></path>
<path fill="#fff" d="M2.5 0l8.133 6.033 8.1-6.033h2.6v2.067l-8 5.967 8 5.933v2.033h-2.667l-8-5.967-7.967 5.967h-2.7v-2l7.967-5.933-7.967-5.933v-2.133z"></path>
<path fill="#c8102e" d="M14.133 9.367l7.2 5.3v1.333l-9.033-6.633zM8 10.033l0.2 1.167-6.4 4.8h-1.8zM21.333 0v0.1l-8.3 6.267 0.067-1.467 6.567-4.9zM0 0l7.967 5.867h-2l-5.967-4.467z"></path>
<path fill="#fff" d="M8.033 0v16h5.333v-16zM0 5.333v5.333h21.333v-5.333z"></path>
<path fill="#c8102e" d="M0 6.433v3.2h21.333v-3.2zM9.1 0v16h3.2v-16z"></path>
</svg>
