<!-- Generated by IcoMoon.io -->
<svg version="1.1" xmlns="http://www.w3.org/2000/svg" width="43" height="32" viewBox="0 0 43 32">
<title>mt</title>
<path fill="#ce0000" d="M21.333 0h21.333v32h-21.333z"></path>
<path fill="#fff" d="M0 0h21.333v32h-21.333z"></path>
<path fill="#f1eeee" d="M10.342 9.457c0 0.096-0.096 0.16-0.213 0.16-0.128 0-0.213-0.064-0.213-0.149s0.085-0.16 0.213-0.16c0.117 0 0.213 0.075 0.213 0.16z"></path>
<path fill="#c00" d="M3.511 8.711v3.965h3.975c0 0.661 0.661 1.322 1.321 1.322v3.965h3.975v-3.965c0.661 0 1.322-0.661 1.322-1.322h3.965v-3.965h-3.975c0-0.661-0.661-1.322-1.322-1.322v-3.965h-3.965v3.965c-0.671 0-1.332 0.661-1.332 1.322h-3.965z"></path>
<path fill="#ffe600" d="M3.649 8.838v3.709h3.965c0 0.661 0.661 1.322 1.322 1.322v3.965h3.698v-3.954c0.661 0 1.322-0.661 1.322-1.322h3.975v-3.709h-3.965c0-0.661-0.661-1.322-1.322-1.322v-3.975h-3.709v3.965c-0.661 0-1.322 0.661-1.322 1.322h-3.965z"></path>
<path fill="#707070" d="M3.777 8.977v3.432h3.965c0 0.661 0.661 1.322 1.322 1.322v3.965h3.442v-3.965c0.661 0 1.322-0.661 1.322-1.322h3.965v-3.432h-3.965c0-0.661-0.661-1.322-1.322-1.322v-3.965h-3.442v3.954c-0.661 0-1.322 0.661-1.322 1.322h-3.965z"></path>
<path fill="#a0a0a0" d="M3.916 9.105v3.176h3.965c0 0.661 0.661 1.322 1.321 1.322v3.954h3.165v-3.965c0.661 0 1.322-0.661 1.322-1.322h3.965v-3.176h-3.965c0-0.661-0.661-1.322-1.322-1.322v-3.954h-3.165v3.965c-0.661 0-1.322 0.661-1.322 1.322h-3.975z"></path>
<path fill="#d0d0d0" d="M9.234 7.453c0.224 0.234 0.043 0.799-0.426 1.268s-1.023 0.639-1.258 0.426c-0.234-0.245-0.043-0.81 0.426-1.279s1.023-0.639 1.258-0.416z"></path>
<path fill="#808080" d="M8.946 7.73c0.234 0.234 0.171 0.671-0.139 0.991s-0.746 0.373-0.98 0.139c-0.234-0.234-0.171-0.671 0.139-0.98s0.746-0.373 0.98-0.149z"></path>
<path fill="#d0d0d0" d="M7.784 8.433l0.085-0.085 0.373 0.181-0.181-0.373 0.096-0.096 0.373 0.746-0.746-0.373zM8.339 7.879l0.107-0.107 0.554 0.575-0.096 0.085z"></path>
<path fill="#d0d0d0" d="M14.019 9.137c-0.234 0.234-0.799 0.043-1.258-0.426s-0.661-1.023-0.426-1.258c0.234-0.234 0.799-0.043 1.268 0.426s0.639 1.023 0.426 1.258z"></path>
<path fill="#808080" d="M13.742 8.86c-0.234 0.234-0.671 0.171-0.98-0.139s-0.373-0.746-0.149-0.98c0.234-0.234 0.682-0.171 0.991 0.139s0.373 0.746 0.139 0.98z"></path>
<path fill="#d0d0d0" d="M13.039 7.687l0.096 0.096-0.192 0.373 0.373-0.192 0.107 0.107-0.757 0.362 0.373-0.746zM13.603 8.252l0.085 0.085-0.554 0.565-0.096-0.096z"></path>
<path fill="#d0d0d0" d="M12.335 13.933c-0.234-0.234-0.043-0.799 0.426-1.268s1.023-0.65 1.258-0.426c0.234 0.234 0.043 0.799-0.426 1.268s-1.023 0.65-1.258 0.426z"></path>
<path fill="#808080" d="M12.623 13.645c-0.234-0.234-0.171-0.671 0.139-0.98s0.746-0.373 0.98-0.139c0.234 0.234 0.171 0.671-0.139 0.98s-0.746 0.373-0.991 0.139z"></path>
<path fill="#d0d0d0" d="M13.785 12.942l-0.096 0.107-0.373-0.192 0.192 0.373-0.096 0.085-0.373-0.746 0.746 0.373zM13.241 13.506l-0.107 0.096-0.554-0.565 0.096-0.096z"></path>
<path fill="#d0d0d0" d="M7.55 12.249c0.234-0.234 0.799-0.043 1.258 0.416s0.65 1.034 0.426 1.258c-0.234 0.234-0.799 0.053-1.268-0.416s-0.639-1.034-0.426-1.258z"></path>
<path fill="#808080" d="M7.827 12.526c0.234-0.234 0.671-0.171 0.98 0.139s0.373 0.746 0.139 0.98c-0.224 0.234-0.671 0.171-0.98-0.139s-0.373-0.746-0.139-0.98z"></path>
<path fill="#d0d0d0" d="M8.53 13.698l-0.096-0.107 0.192-0.362-0.373 0.181-0.107-0.096 0.757-0.373-0.373 0.746zM7.966 13.133l-0.085-0.096 0.554-0.554 0.096 0.085z"></path>
<path fill="#d0d0d0" d="M9.863 12.942c0 0.074-0.060 0.133-0.133 0.133s-0.133-0.060-0.133-0.133v0c0-0.074 0.060-0.133 0.133-0.133s0.133 0.060 0.133 0.133v0zM11.973 12.942c0 0.074-0.060 0.133-0.133 0.133s-0.133-0.060-0.133-0.133v0c0-0.074 0.060-0.133 0.133-0.133s0.133 0.060 0.133 0.133v0zM10.694 12.942v0.139h-0.171c-0.181 0-0.181 0.139 0 0.139h0.171v0.128c0 0.149 0.16 0.16 0.171 0.011v-0.149h0.181c0.181 0 0.181-0.128 0-0.128h-0.171v-0.139c0-0.139-0.181-0.139-0.181 0z"></path>
<path fill="#d0d0d0" d="M10.129 10.981v0.085s-0.043 0.053-0.309 0.075c-0.266 0.021-0.309 0-0.309 0 0.011 0.075 0.064 0.203 0.043 0.352 0.011 0.181-0.043 0.341-0.043 0.341 0 0.011-0.032 0.021-0.085 0.011 0.043-0.043 0.043-0.149 0.043-0.32 0-0.149-0.16-0.394-0.128-0.458s0.789-0.085 0.789-0.085zM11.174 10.704l0.693-0.011s0.107 0.213 0.096 0.32c0 0.107-0.043 0.213-0.085 0.16-0.053-0.053 0.021-0.043 0.032-0.16 0-0.128-0.085-0.245-0.085-0.245s-0.192 0.075-0.469 0.064c-0.277-0.021-0.149-0.128-0.181-0.128z"></path>
<path fill="#d0d0d0" d="M11.259 10.906c0.256-0.011 0.426 0.021 0.426 0.021s0.107 0.213 0.107 0.32c-0.011 0.107-0.043 0.213-0.096 0.16-0.043-0.043 0.021-0.032 0.032-0.16 0-0.117-0.085-0.245-0.085-0.245s-0.181 0.075-0.458 0.064c-0.277-0.021-0.192-0.032-0.224-0.043-0.032 0-0.043 0.085-0.458 0.096-0.426 0-0.639-0.096-0.639-0.096s-0.043 0.064-0.298 0.085h-0.32c0.011 0.064 0.064 0.192 0.053 0.352 0 0.171-0.053 0.341-0.053 0.341h-0.075c0.043-0.032 0.032-0.149 0.043-0.309 0-0.16-0.171-0.394-0.139-0.469 0.043-0.064 0.234 0 0.266-0.032 0.032-0.043-0.171-0.288-0.128-0.512 0.032-0.224 0.256-0.16 0.522-0.16 0.266 0.011 0.853 0.085 1.002 0 0.149-0.075 0.085-0.362 0.213-0.544 0.081-0.098 0.202-0.16 0.338-0.16 0.005 0 0.010 0 0.014 0l-0.001-0c0.096 0 0.213 0.32 0.213 0.394l-0.032 0.043h-0.043v0.032c-0.107 0.011-0.117-0.085-0.181-0.149-0.021 0.107 0.085 0.469 0.085 0.703 0 0.192-0.075 0.277-0.085 0.266z"></path>
<path fill="#d0d0d0" d="M10.417 10.565c0 0.075-0.33 0.256-0.362 0.32-0.021 0.075 0.085 0.107 0.053 0.149s-0.064 0.021-0.075 0.032l-0.128-0.266s0.32-0.149 0.309-0.213c-0.011-0.064-0.234-0.107-0.277-0.256s-0.021-0.458-0.053-0.522c-0.032-0.064-0.426-0.128-0.426-0.213 0-0.107 0.405-0.362 0.448-0.405s0.085 0.043 0.043 0.075c-0.043 0.043-0.352 0.288-0.352 0.32 0 0.043 0.256 0.085 0.341 0.085 0.096 0 0.139-0.043 0.139-0.085 0-0.032-0.096-0.032-0.096-0.107s0.053-0.128 0.139-0.128c0.043 0 0.128 0.053 0.128 0.117s-0.075 0.075-0.085 0.117c-0.011 0.053 0.085 0.085 0.171 0.085s0.384 0.224 0.426 0.266c0.053 0.032 0.096 0.032 0.053 0.075s-0.021 0.085-0.064 0.043c-0.020-0.020-0.035-0.045-0.042-0.073l-0-0.001c0-0.032-0.32-0.192-0.373-0.16-0.043 0.043 0 0.512 0 0.554 0 0.075 0.096 0.075 0.085 0.192z"></path>
<path fill="#a7a7a7" d="M9.863 9.659h0.533v0.544h-0.533z"></path>
<path fill="#808080" d="M9.809 8.995l1.749 2.625c0.016 0.024 0.021 0.049 0.011 0.054s-0.032-0.010-0.048-0.034l-1.749-2.625c-0.016-0.024-0.021-0.049-0.011-0.054s0.032 0.010 0.048 0.034z"></path>
<path fill="#d0d0d0" d="M10.001 9.232c0 0.043-0.039 0.078-0.088 0.078s-0.088-0.035-0.088-0.078v0c0-0.043 0.039-0.078 0.088-0.078s0.088 0.035 0.088 0.078v0z"></path>
<path fill="#808080" d="M11.525 9.936c0 0.032-0.213 0.075-0.437 0.075-0.234 0-0.437-0.043-0.437-0.075s0.203 0.053 0.426 0.053c0.245 0 0.448-0.085 0.448-0.053z"></path>
<path fill="#a7a7a7" d="M9.905 10.203h0.437v0.16h-0.426z"></path>
<path fill="#808080" d="M11.323 9.819c-0.043 0.085-0.075 0.139-0.085 0.128 0 0 0.021-0.085 0.064-0.16l0.085-0.128c0.011 0.011-0.021 0.085-0.064 0.16zM11.429 10.032l-0.085 0.053c0.023-0.038 0.051-0.070 0.084-0.095l0.001-0.001c0.053-0.043 0.096-0.064 0.096-0.053l-0.085 0.085z"></path>
<path fill="#808080" d="M11.387 9.925l0.053 0.128-0.085-0.107-0.053-0.128 0.085 0.107zM11.344 10.267s-0.128 0.021-0.298 0.021-0.309-0.011-0.309-0.021l0.309-0.021c0.171 0 0.298 0 0.298 0.021zM10.342 10.224c0 0.011-0.096 0.021-0.213 0.021-0.128 0-0.213 0-0.213-0.021 0 0 0.085-0.021 0.213-0.021 0.117 0 0.213 0.011 0.213 0.021z"></path>
<path fill="#d0d0d0" d="M9.383 11.588s0.075 0.171 0.384 0.171c0.298 0 0.405-0.053 0.288-0.139s-0.362-0.064-0.32 0.011c0.021 0.085-0.096 0.107-0.117 0.053-0.032-0.053-0.139-0.224 0.053-0.234 0.203-0.011 0.618-0.075 0.725 0.043s-0.117 0.213 0.053 0.245c0.16 0.021 0.192-0.032 0.48-0.043 0.288-0.021 0.405 0.053 0.501 0.043 0.107 0 0.085-0.181 0-0.213-0.075-0.053-0.224-0.064-0.266-0.107-0.032-0.053-0.139 0-0.128-0.064 0-0.053 0.149 0.032 0.149 0.011l0.021-0.021h-0.032l0.011-0.021-0.021 0.011 0.011-0.021s-0.032 0.021-0.032 0h-0.021c0.021-0.021 0.011-0.021 0-0.032h-0.032v-0.032c-0.021 0-0.021 0-0.032 0.021v-0.053c0-0.011 0.021-0.021 0.053-0.021 0.075 0 0.107 0.085 0.139 0.085 0.021 0 0.053-0.085 0.149-0.053l0.16 0.064c0.053 0.032-0.032 0.064 0 0.107s0.224 0.181 0.171 0.341c-0.053 0.149-0.213 0.171-0.213 0.234-0.021 0.064 0.458 0.043 0.575 0.064 0.084 0.016 0.155 0.062 0.202 0.127l0.001 0.001-0.213 0.011s-0.107-0.053-0.373-0.064c-0.266 0-0.362-0.107-0.469-0.128l-0.426 0.021-0.32-0.032c-0.064-0.011-0.448 0.171-0.448 0.213h-0.256s0.032-0.096 0.181-0.107c0.139-0.021 0.288-0.085 0.277-0.128l0.043-0.277c0-0.064 0.064-0.107 0.053-0.128-0.011-0.043-0.181-0.075-0.341-0.075s-0.33 0.011-0.362 0.043c-0.021 0.043 0 0.16 0.032 0.139 0.032 0-0.011-0.085 0.021-0.096 0.064-0.020 0.137-0.032 0.213-0.032 0 0 0 0 0 0v0c0.085 0 0.224 0.075 0.224 0.107 0 0.011 0.043 0.085-0.021 0.117-0.082 0.028-0.177 0.044-0.275 0.044-0.020 0-0.039-0.001-0.058-0.002l0.003 0c-0.118-0.006-0.227-0.037-0.324-0.087l0.004 0.002c-0.043-0.032-0.075-0.107-0.075-0.117z"></path>
<path fill="#000" d="M11.323 11.322c0 0.018-0.014 0.032-0.032 0.032s-0.032-0.014-0.032-0.032v0c0-0.018 0.014-0.032 0.032-0.032s0.032 0.014 0.032 0.032v0z"></path>
<path fill="#d0d0d0" d="M12.975 10.821l0.171 0.032 0.288-0.192-0.021 0.107-0.149 0.096-0.085 0.043 0.053 0.085 0.096 0.149-0.021 0.107-0.181-0.309-0.171-0.032 0.021-0.085zM12.687 9.563l0.32-0.149-0.085-0.192 0.043-0.021 0.213 0.469-0.032 0.021-0.096-0.203-0.32 0.16-0.043-0.085zM12.175 8.945l0.298-0.277 0.064 0.064v0.469l0.234-0.213 0.053 0.064-0.298 0.277-0.064-0.064v-0.469l-0.234 0.213-0.053-0.064zM10.854 8.412l0.053-0.405h0.085l-0.053 0.373 0.32 0.032v0.053l-0.405-0.053zM10.204 8.476l-0.075-0.405 0.085-0.021 0.064 0.362 0.32-0.064v0.053l-0.394 0.075zM8.999 9.062l-0.032-0.032 0.213-0.171 0.107 0.107c-0.024 0.049-0.053 0.091-0.086 0.129l0.001-0.001c-0.028 0.040-0.060 0.075-0.095 0.106l-0.001 0.001c-0.043 0.034-0.092 0.063-0.145 0.084l-0.004 0.001c-0.053 0.011-0.107 0.021-0.139 0-0.042-0.005-0.079-0.024-0.106-0.053l-0-0c-0.020-0.029-0.032-0.064-0.032-0.103 0-0.001 0-0.003 0-0.004v0c0-0.043 0.011-0.096 0.043-0.139 0.021-0.043 0.064-0.085 0.107-0.117 0.034-0.029 0.072-0.054 0.114-0.073l0.003-0.001 0.096-0.021c0.021 0 0.053 0 0.075 0.021l-0.043 0.053c-0.016-0.007-0.035-0.011-0.054-0.011-0.003 0-0.007 0-0.010 0l0-0-0.064 0.011c-0.028 0.015-0.053 0.033-0.075 0.053l0-0c-0.032 0.021-0.064 0.043-0.075 0.075-0.017 0.018-0.032 0.039-0.042 0.063l-0.001 0.001v0.053c0 0.032 0.011 0.064 0.032 0.085l0.075 0.053 0.107-0.011c0.099-0.042 0.177-0.117 0.223-0.211l0.001-0.003-0.043-0.064-0.149 0.117zM8.989 12.014l-0.341 0.245-0.256-0.362 0.043-0.032 0.213 0.288 0.096-0.075-0.171-0.245 0.032-0.021 0.181 0.245 0.149-0.107 0.053 0.064zM8.488 11.481c0.053-0.011 0.085-0.043 0.107-0.096v-0.16c-0.018-0.057-0.051-0.104-0.095-0.138l-0.001-0c-0.032-0.032-0.085-0.043-0.128-0.032-0.035 0.008-0.064 0.027-0.085 0.053l-0 0c-0.011 0.021-0.032 0.053-0.032 0.085l0.011 0.117c0.021 0.064 0.043 0.107 0.085 0.149 0.032 0.032 0.085 0.043 0.139 0.021zM8.52 11.567c-0.016 0.005-0.035 0.009-0.055 0.009-0.049 0-0.094-0.020-0.126-0.051l0 0c-0.055-0.050-0.096-0.115-0.117-0.189l-0.001-0.003c-0.021-0.064-0.021-0.107-0.021-0.171s0.021-0.085 0.043-0.117c0.024-0.037 0.062-0.064 0.105-0.074l0.001-0c0.011-0.003 0.024-0.004 0.037-0.004 0.025 0 0.049 0.005 0.070 0.015l-0.001-0c0.043 0.021 0.075 0.043 0.107 0.085 0.055 0.077 0.087 0.172 0.087 0.276 0 0.015-0.001 0.031-0.002 0.046l0-0.002c-0.004 0.044-0.020 0.084-0.043 0.118l0.001-0.001c-0.021 0.032-0.053 0.053-0.085 0.064zM8.552 10.735h-0.426v-0.298l0.021-0.128 0.043-0.075c0.015-0.013 0.035-0.022 0.057-0.022 0.003 0 0.005 0 0.008 0l-0-0c0.032 0 0.053 0.011 0.075 0.043 0.011 0.032 0.032 0.075 0.032 0.139 0.015-0.047 0.041-0.086 0.074-0.117l0-0 0.117-0.107v0.107l-0.085 0.075-0.064 0.064c-0.012 0.012-0.023 0.026-0.031 0.042l-0 0.001c-0.001 0.006-0.001 0.014-0.001 0.021s0.001 0.015 0.001 0.022l-0-0.001v0.043l-0.011 0.107h0.192v0.085zM8.317 10.64v-0.181c0.002-0.014 0.003-0.031 0.003-0.048s-0.001-0.034-0.003-0.050l0 0.002c-0.004-0.016-0.011-0.031-0.021-0.043l0 0c-0.008-0.011-0.019-0.018-0.032-0.021l-0-0c-0.021 0-0.043 0.011-0.053 0.032l-0.021 0.107v0.213h0.139zM9.458 8.838v-0.48l0.085-0.053 0.437 0.213-0.085 0.053-0.128-0.064-0.224 0.139v0.149l-0.085 0.043zM9.532 8.593l0.192-0.107-0.107-0.064c-0.038-0.018-0.069-0.036-0.099-0.055l0.003 0.002 0.011 0.085v0.139zM11.515 8.465l0.448-0.181 0.075 0.053-0.032 0.49-0.075-0.064 0.011-0.139-0.213-0.16-0.139 0.053-0.075-0.053zM11.77 8.444l0.181 0.128v-0.128c0.006-0.042 0.013-0.078 0.023-0.113l-0.001 0.006c-0.022 0.020-0.046 0.038-0.073 0.052l-0.002 0.001-0.128 0.053zM12.868 9.968l0.405-0.096 0.064 0.288 0.021 0.128-0.021 0.075c-0.011 0.021-0.030 0.036-0.053 0.043l-0.001 0c-0.032 0-0.064 0-0.085-0.021-0.034-0.035-0.060-0.078-0.074-0.126l-0.001-0.002c0.001 0.008 0.001 0.017 0.001 0.027s-0.001 0.019-0.001 0.028l0-0.001-0.043 0.085-0.085 0.128-0.021-0.107 0.064-0.107 0.043-0.064c0.013-0.024 0.021-0.052 0.021-0.083 0-0.001 0-0.002-0-0.003v0c-0.003-0.020-0.006-0.039-0.011-0.056l0.001 0.003-0.021-0.096-0.181 0.043-0.021-0.085zM13.113 10l0.043 0.181c0 0.032 0.021 0.064 0.032 0.085 0 0.021 0.021 0.032 0.032 0.043l0.043 0.011c0.011 0 0.032-0.021 0.032-0.043 0.004-0.016 0.006-0.034 0.006-0.053s-0.002-0.037-0.007-0.055l0 0.002-0.053-0.203-0.128 0.032z"></path>
</svg>
