<!-- Generated by IcoMoon.io -->
<svg version="1.1" xmlns="http://www.w3.org/2000/svg" width="43" height="32" viewBox="0 0 43 32">
<title>mw</title>
<path fill="#f41408" d="M0 0h42.667v32h-42.667z"></path>
<path fill="#21873b" d="M0 21.333h42.667v10.667h-42.667z"></path>
<path fill="#000" d="M0 0h42.667v10.667h-42.667z"></path>
<path fill="#f31509" d="M14.7 9.4c1.487-3.28 5.633-4.853 9.253-3.5 1.733 0.599 3.106 1.854 3.85 3.459l0.017 0.041h-13.12zM12.967 9.827c-1.291-0.090-2.485-0.274-3.644-0.55l0.151 0.030c-0.273-0.087-0.287-0.24-0.253-0.353s0.207-0.24 0.413-0.2c0.373 0.093 1.92 0.467 3.333 1.073zM21.273 4.1c-0.28-1.4-0.347-2.933-0.32-3.2 0.027-0.26 0.18-0.3 0.313-0.3s0.313 0.12 0.313 0.313c0 0.353-0.007 1.8-0.307 3.2zM22.047 4.133c-0.056-0.513-0.088-1.107-0.088-1.71 0-0.529 0.025-1.053 0.073-1.57l-0.005 0.066c0.053-0.26 0.213-0.293 0.34-0.28 0.133 0.007 0.3 0.14 0.28 0.333-0.033 0.353-0.173 1.793-0.6 3.16zM22.74 4.22c-0.013-1.42 0.2-2.953 0.273-3.2 0.073-0.26 0.24-0.28 0.367-0.26 0.133 0.020 0.287 0.167 0.253 0.353-0.067 0.353-0.347 1.773-0.893 3.107zM23.473 4.367c0.12-1.413 0.487-2.92 0.587-3.167s0.267-0.253 0.387-0.227c0.133 0.033 0.267 0.187 0.22 0.373-0.107 0.34-0.513 1.733-1.187 3.020zM24.2 4.58c0.26-1.4 0.767-2.873 0.887-3.113 0.127-0.233 0.287-0.233 0.413-0.193 0.12 0.040 0.247 0.213 0.18 0.387-0.448 1.125-0.945 2.086-1.522 2.991l0.042-0.071zM24.873 4.833c0.387-1.38 1.033-2.8 1.18-3.033 0.147-0.227 0.307-0.207 0.427-0.153 0.12 0.047 0.227 0.227 0.14 0.4-0.167 0.32-0.833 1.627-1.747 2.787zM25.54 5.147c0.443-1.128 0.936-2.091 1.509-2.999l-0.043 0.072c0.16-0.213 0.327-0.18 0.44-0.12 0.087 0.052 0.144 0.146 0.144 0.252 0 0.057-0.016 0.11-0.045 0.155l0.001-0.001c-0.2 0.307-0.993 1.56-2.007 2.64zM26.167 5.513c0.647-1.293 1.553-2.6 1.74-2.8s0.347-0.153 0.453-0.087c0.075 0.054 0.124 0.141 0.124 0.239 0 0.065-0.021 0.126-0.058 0.175l0.001-0.001c-0.233 0.293-1.147 1.473-2.267 2.467zM26.753 5.927c0.773-1.24 1.8-2.467 2.007-2.647 0.2-0.187 0.36-0.133 0.46-0.053 0.061 0.053 0.099 0.13 0.099 0.216 0 0.076-0.030 0.146-0.079 0.197l0-0c-0.253 0.273-1.273 1.38-2.487 2.287zM27.307 6.387c0.699-0.916 1.437-1.726 2.241-2.468l0.013-0.012c0.22-0.167 0.367-0.1 0.46-0.020 0.051 0.052 0.082 0.123 0.082 0.201 0 0.088-0.039 0.166-0.102 0.219l-0 0c-0.273 0.253-1.4 1.273-2.693 2.080zM27.813 6.887c0.753-0.831 1.564-1.581 2.437-2.255l0.043-0.032c0.24-0.153 0.38-0.073 0.467 0.020 0.080 0.087 0.1 0.293-0.067 0.413-0.838 0.651-1.78 1.265-2.772 1.8l-0.108 0.053zM28.247 7.407c0.802-0.748 1.68-1.439 2.612-2.054l0.074-0.046c0.247-0.133 0.38-0.040 0.453 0.060 0.080 0.093 0.073 0.3-0.093 0.407-0.32 0.2-1.62 1.040-3.047 1.633zM28.64 7.96c0.835-0.658 1.773-1.278 2.76-1.82l0.106-0.053c0.267-0.113 0.393-0.013 0.46 0.087 0.067 0.107 0.040 0.307-0.133 0.4-0.895 0.491-1.952 0.96-3.050 1.341l-0.15 0.045zM29 8.6c0.869-0.57 1.872-1.114 2.919-1.574l0.134-0.053c0.273-0.093 0.387 0.020 0.44 0.127 0.060 0.107 0.020 0.307-0.173 0.387-0.353 0.147-1.8 0.76-3.32 1.113zM29.28 9.213c0.896-0.492 1.953-0.96 3.050-1.341l0.15-0.045c0.28-0.067 0.38 0.053 0.427 0.167 0.040 0.107-0.020 0.307-0.213 0.367-0.367 0.127-1.867 0.62-3.413 0.853zM29.507 9.867c0.922-0.414 2.028-0.799 3.17-1.094l0.15-0.033c0.28-0.040 0.373 0.080 0.407 0.2 0.033 0.113-0.047 0.3-0.247 0.353-0.38 0.087-1.92 0.467-3.48 0.573zM20.52 4.133c-0.291-0.91-0.519-1.981-0.64-3.085l-0.007-0.075c0-0.26 0.153-0.32 0.28-0.333 0.133-0.007 0.333 0.1 0.347 0.287 0.033 0.353 0.173 1.793 0.027 3.207zM19.787 4.22c-0.379-0.877-0.708-1.912-0.934-2.984l-0.019-0.109c-0.027-0.267 0.12-0.333 0.247-0.353 0.133-0.020 0.333 0.067 0.373 0.253 0.198 0.953 0.319 2.055 0.333 3.182l0 0.011zM19.053 4.367c-0.465-0.853-0.891-1.851-1.22-2.891l-0.033-0.122c-0.053-0.26 0.087-0.34 0.213-0.373 0.127-0.027 0.333 0.040 0.393 0.227 0.1 0.34 0.513 1.733 0.64 3.153zM18.353 4.567c-0.548-0.83-1.057-1.784-1.477-2.784l-0.043-0.116c-0.073-0.253 0.053-0.347 0.173-0.387 0.127-0.040 0.34 0.013 0.413 0.187 0.133 0.333 0.68 1.693 0.933 3.093zM17.68 4.8c-0.643-0.807-1.24-1.713-1.753-2.67l-0.047-0.097c-0.093-0.247 0.027-0.353 0.147-0.4 0.12-0.053 0.333-0.013 0.427 0.16 0.167 0.32 0.833 1.633 1.227 3.007zM16.993 5.133c-0.742-0.78-1.423-1.634-2.024-2.545l-0.043-0.069c-0.113-0.233-0.007-0.347 0.107-0.407s0.333-0.040 0.44 0.127c0.2 0.307 1 1.553 1.52 2.893zM16.367 5.493c-0.835-0.747-1.589-1.547-2.27-2.407l-0.030-0.040c-0.14-0.227-0.047-0.347 0.067-0.42 0.1-0.067 0.333-0.067 0.447 0.093 0.227 0.287 1.14 1.467 1.787 2.767zM15.787 5.893c-0.934-0.703-1.759-1.444-2.517-2.25l-0.009-0.010c-0.16-0.213-0.073-0.333 0.027-0.413 0.055-0.034 0.122-0.055 0.193-0.055 0.102 0 0.194 0.041 0.26 0.108l0 0c0.253 0.267 1.28 1.38 2.047 2.62zM15.22 6.36c-1.029-0.646-1.922-1.32-2.752-2.063l0.019 0.017c-0.187-0.2-0.113-0.333-0.020-0.42 0.060-0.045 0.136-0.072 0.218-0.072 0.093 0 0.178 0.035 0.243 0.092l-0-0c0.28 0.247 1.4 1.267 2.293 2.44zM14.727 6.827c-1.115-0.579-2.069-1.185-2.964-1.864l0.051 0.037c-0.2-0.187-0.14-0.32-0.053-0.413 0.080-0.093 0.3-0.14 0.46-0.020 0.925 0.705 1.744 1.448 2.496 2.255l0.011 0.012zM14.26 7.373c-1.194-0.498-2.206-1.030-3.165-1.637l0.085 0.051c-0.22-0.167-0.173-0.313-0.1-0.407 0.073-0.1 0.287-0.167 0.46-0.060 0.32 0.207 1.62 1.033 2.72 2.053zM13.84 7.96c-1.48-0.467-2.993-1.173-3.227-1.327-0.24-0.147-0.2-0.293-0.14-0.4s0.267-0.187 0.453-0.093c0.333 0.18 1.72 0.9 2.913 1.82zM13.487 8.56c-1.52-0.353-3.087-0.933-3.34-1.067-0.247-0.133-0.233-0.28-0.173-0.387 0.053-0.107 0.247-0.207 0.44-0.133 0.353 0.153 1.8 0.76 3.073 1.587zM13.207 9.16c-1.311-0.204-2.466-0.487-3.581-0.858l0.155 0.045c-0.267-0.107-0.253-0.26-0.213-0.367 0.047-0.113 0.233-0.227 0.427-0.167 0.373 0.127 1.867 0.62 3.213 1.347z"></path>
<path fill="#f31509" d="M12.967 9.827c-1.291-0.090-2.485-0.274-3.644-0.55l0.151 0.030c-0.273-0.087-0.287-0.24-0.253-0.353s0.207-0.24 0.413-0.2c0.373 0.093 1.92 0.467 3.333 1.073z"></path>
<path fill="#000" d="M8.627 9.433h25.413v0.84h-25.413z"></path>
</svg>
