<!-- Generated by IcoMoon.io -->
<svg version="1.1" xmlns="http://www.w3.org/2000/svg" width="43" height="32" viewBox="0 0 43 32">
<title>my</title>
<path fill="#c00" d="M0 0h42.667v32h-42.667z"></path>
<path fill="#fff" d="M0.033 2.66h42.6v2.56h-42.6z"></path>
<path fill="#fff" d="M0.033 7.907h42.6v2.56h-42.6z"></path>
<path fill="#fff" d="M0.033 13.16h42.6v2.56h-42.6z"></path>
<path fill="#006" d="M0 0.033h21.333v18.667h-21.333z"></path>
<path fill="#fc0" d="M13.833 4.92l0.4 2.713 1.533-2.267-0.827 2.613 2.367-1.387-1.873 2 2.733-0.213-2.553 0.987 2.553 0.987-2.733-0.213 1.873 2-2.367-1.387 0.82 2.62-1.533-2.273-0.4 2.713-0.393-2.713-1.533 2.267 0.827-2.613-2.367 1.387 1.867-2-2.733 0.213 2.56-0.987-2.553-0.987 2.733 0.213-1.873-2 2.367 1.387-0.827-2.62 1.533 2.273zM11.613 5.033c-0.565-0.257-1.226-0.407-1.921-0.407-2.618 0-4.74 2.122-4.74 4.74s2.122 4.74 4.74 4.74c0.695 0 1.356-0.15 1.951-0.419l-0.030 0.012c-0.863 0.625-1.942 1-3.109 1-2.946 0-5.333-2.388-5.333-5.333s2.388-5.333 5.333-5.333c1.167 0 2.247 0.375 3.125 1.011l-0.016-0.011z"></path>
<path fill="#fff" d="M0.033 18.413h42.6v2.56h-42.6z"></path>
<path fill="#fff" d="M0.033 23.627h42.6v2.56h-42.6z"></path>
<path fill="#fff" d="M0 29.44h42.6v2.56h-42.6z"></path>
</svg>
