<!-- Generated by IcoMoon.io -->
<svg version="1.1" xmlns="http://www.w3.org/2000/svg" width="43" height="32" viewBox="0 0 43 32">
<title>mz</title>
<path fill="#009a00" d="M0 0h48v10h-48z"></path>
<path fill="#fff" d="M0 10h48v1h-48z"></path>
<path fill="#000" d="M0 11h48v10h-48z"></path>
<path fill="#fff" d="M0 21h48v1h-48z"></path>
<path fill="#ffca00" d="M0 22h48v10h-48z"></path>
<path fill="#f00" d="M0 0v32l21-16-21-16z"></path>
<path fill="#ffca00" d="M12.406 20.813l-3.2-2.344-3.2 2.344 1.244-3.769-3.219-2.319 3.969 0.012 1.206-3.775 1.213 3.781 3.969-0.019-3.219 2.319z"></path>
<path fill="#fff" d="M6.425 18.181h2.313c0.188 0.206 0.594 0.294 0.988 0 0.725-0.4 2.125 0 2.125 0l0.275-0.294-0.669-2.2-0.244-0.262s-0.519-0.313-1.5-0.206c-0.981 0.106-1.325-0.031-1.325-0.031s-0.856 0.1-1.1 0.225l-0.275 0.275-0.588 2.494z"></path>
<path fill="#000" d="M4.931 18.444l0.537 0.637c0.063 0.038 0.125 0.038 0.181 0l0.8-0.962 0.338-0.419c0.056-0.063 0.069-0.131 0.063-0.188l0.65-0.581 0.138 0.012c-0.063-0.012-0.106-0.044-0.063-0.113l0.15-0.113 0.112 0.144s-0.162 0.212-0.181 0.212h-0.175l-0.338 0.306 0.15 0.125 0.219 0.613 0.275-0.194-0.175-0.625 0.381-0.419-0.144-0.225 0.1-0.125s1.331 0.837 1.85 0.613c0.012 0 0.031-0.6 0.031-0.6s-1.387-0.144-1.419-0.419 0.313-0.313 0.313-0.313l-0.15-0.2 0.031-0.113 0.244 0.3 0.544-0.463 3.219 3.662c0.175-0.069 0.213-0.113 0.225-0.288l-3.15-3.619 0.238-0.256c0.050-0.056 0.063-0.075 0.063-0.162l0.375-0.319c0.1 0.035 0.182 0.101 0.236 0.186l0.001 0.002 1.025-0.856c0.025 0.025 0.106 0.050 0.162 0.025l1.681-1.619-1.831 1.294-0.063-0.044c0-0.056 0.063-0.063 0-0.162-0.075-0.088-0.181 0.081-0.194 0.081-0.019 0-0.269-0.088-0.325-0.2l-0.012 0.294-0.469 0.438-0.356-0.019-0.512 0.5-0.063 0.188 0.081 0.169s-0.275 0.238-0.275 0.225c0-0.019-0.056-0.075-0.063-0.081l0.238-0.213 0.031-0.144-0.075-0.125c-0.025 0.019-0.325 0.338-0.344 0.3l-0.875-0.969 0.050-0.181-0.544-0.594c-0.2-0.069-0.519-0.081-0.581 0.356-0.050 0.1-0.463 0.012-0.463 0.012l-0.225 0.050-1.275 1.794 0.706 0.85 1.45-1.831 0.044-0.519 0.3 0.338c0.106 0.012 0.2 0.019 0.294-0.031l0.856 0.956-0.144 0.144 0.125 0.137 0.15-0.1 0.056 0.081c-0.069 0.037-0.125 0.094-0.194 0.131-0.113-0.075-0.225-0.169-0.219-0.313l-0.481 0.4-0.019 0.075-1.431 1.188-0.125 0.019-0.031 0.375 0.931-0.775v-0.113l0.094 0.081 0.725-0.581s0.050 0.063 0.031 0.063-0.644 0.581-0.644 0.581l-0.013 0.063-0.112 0.1-0.063-0.050-0.875 0.775h-0.125l-0.481 0.481c-0.125 0.012-0.231 0.025-0.338 0.094l-0.862 0.762z"></path>
</svg>
