<!-- Generated by IcoMoon.io -->
<svg version="1.1" xmlns="http://www.w3.org/2000/svg" width="43" height="32" viewBox="0 0 43 32">
<title>na</title>
<path fill="#fff" d="M0 0h42.667v32h-42.667z"></path>
<path fill="#3662a2" d="M-1.76 0.013l0.053 23.040 35.873-23.053-35.927 0.013z"></path>
<path fill="#38a100" d="M44.427 31.973l-0.093-23.953-36.18 23.967 36.267-0.013z"></path>
<path fill="#c70000" d="M-1.733 24.787l0.027 7.213 7.833-0.007 38.233-25.633-0.047-6.273-7.733-0.067-38.313 24.76z"></path>
<path fill="#ffe700" d="M14.64 11.467l-1.453-0.88-0.84 1.473-0.813-1.48-1.467 0.86 0.040-1.693-1.693 0.013 0.88-1.453-1.473-0.833 1.48-0.82-0.853-1.467 1.693 0.040-0.007-1.7 1.447 0.88 0.84-1.473 0.813 1.48 1.467-0.86-0.040 1.693 1.693-0.013-0.88 1.453 1.473 0.833-1.48 0.82 0.853 1.467-1.693-0.040z"></path>
<path fill="#3662a2" d="M15.493 7.493c0 1.707-1.393 3.087-3.107 3.087s-3.107-1.38-3.107-3.087 1.387-3.080 3.107-3.080 3.107 1.38 3.107 3.080z"></path>
<path fill="#ffe700" d="M14.82 7.493c0 1.344-1.089 2.433-2.433 2.433s-2.433-1.089-2.433-2.433v0c0-1.344 1.089-2.433 2.433-2.433s2.433 1.089 2.433 2.433v0z"></path>
</svg>
