<!-- Generated by IcoMoon.io -->
<svg version="1.1" xmlns="http://www.w3.org/2000/svg" width="43" height="32" viewBox="0 0 43 32">
<title>nc</title>
<path fill="#009543" d="M0 0h42.667v32h-42.667z"></path>
<path fill="#ed4135" d="M0 0h42.667v21.333h-42.667z"></path>
<path fill="#0035ad" d="M0 0h42.667v10.667h-42.667z"></path>
<path fill="#fae600" d="M26.487 16c0 5.792-4.695 10.487-10.487 10.487s-10.487-4.695-10.487-10.487c0-5.792 4.695-10.487 10.487-10.487s10.487 4.695 10.487 10.487z"></path>
<path fill="#000" stroke="#000" stroke-linejoin="miter" stroke-linecap="butt" stroke-miterlimit="4" stroke-width="0.4267" d="M14.22 17.567h3.553M14.22 14.933h3.553M16 5.547v17.92"></path>
<path fill="#000" d="M11.773 25.627c4.28 1.753 8.293 0.113 8.293 0.113s-1.513-1.64-2.287-2.28c-0.76-0.627-2.987-0.6-3.747 0-0.807 0.705-1.544 1.412-2.246 2.152l-0.014 0.014z"></path>
<path fill="#000" d="M17.173 20.833c0 0.943-0.525 1.707-1.173 1.707s-1.173-0.764-1.173-1.707c0-0.943 0.525-1.707 1.173-1.707s1.173 0.764 1.173 1.707z"></path>
<path fill="#000" d="M17.42 16.247c0 0.497-0.636 0.9-1.42 0.9s-1.42-0.403-1.42-0.9c0-0.497 0.636-0.9 1.42-0.9s1.42 0.403 1.42 0.9z"></path>
<path fill="#000" d="M17.42 12.087c0 0.784-0.636 1.42-1.42 1.42s-1.42-0.636-1.42-1.42c0-0.784 0.636-1.42 1.42-1.42s1.42 0.636 1.42 1.42z"></path>
<path fill="#000" d="M17.707 6.793s0.12 0.2-0.133 0.667c-1.24 2.233-2.487 2.28-2.72 2.473-0.267 0.213-0.373 0.2-0.373 0.2 0.020-0.193 0.033-0.973 0.047-1.047 0.193-1.047 1.767-1.033 3-2.1 0.193-0.167 0.18-0.2 0.18-0.2zM13.547 11.593s0.287 0.8 0.32 1.6c0.067 1.28 1.293 1.313 2.133 1.313v-0.713c-0.633 0-1.18-0.093-1.633-1.027-0.258-0.445-0.529-0.828-0.83-1.186l0.010 0.012zM13.513 21.9s0.447-0.553 0.973-1.847c0.267-0.673 0.92-1.067 1.513-1.067v-1c-1.353 0-2 0.5-2.067 1.24-0.097 1.018-0.246 1.93-0.448 2.82l0.028-0.147z"></path>
<path fill="#000" d="M18.453 11.593s-0.287 0.8-0.32 1.6c-0.067 1.28-1.293 1.313-2.133 1.313v-0.707c0.633 0 1.18-0.093 1.633-1.033 0.24-0.413 0.513-0.807 0.82-1.173zM18.487 21.907s-0.447-0.56-0.973-1.853c-0.267-0.673-0.92-1.067-1.513-1.067v-0.987c1.353 0 2 0.5 2.067 1.24 0.098 1.016 0.246 1.925 0.448 2.814l-0.028-0.147z"></path>
</svg>
