<!-- Generated by IcoMoon.io -->
<svg version="1.1" xmlns="http://www.w3.org/2000/svg" width="43" height="32" viewBox="0 0 43 32">
<title>nf</title>
<path fill="#fff" d="M12.987 0h16.693v32h-16.693z"></path>
<path fill="#198200" d="M0 0h12.987v32h-12.987zM29.68 0h12.987v32h-12.987z"></path>
<path fill="#198200" d="M20.9 23.42v3.507l1.42 0.013s-0.453-3.053-0.207-3.467c0.247-0.4 0.48-0.347 0.48-0.347s0.927 0.28 1.027 0.233c0.1-0.040-0.013-0.347 0.48-0.307 0.16-0.060 0.073-0.333 0.22-0.347 0.147-0.020 2.967 0.787 3.58 0.027-0.16-0.427-0.713-0.033-0.86-0.013-0.133 0-0.687-0.267-1.007 0-0.293-0.22-1.627-0.367-1.627-0.367-0.173-0.173 3.173 0.087 3.367-0.047 0.393-0.393-0.733-0.347-0.907-0.22-0.145-0.089-0.321-0.142-0.51-0.142-0.159 0-0.309 0.038-0.442 0.105l0.006-0.003c-0.113-0.273-1.2-0.16-1.8-0.233-0.2-0.113-0.167-0.18-0.033-0.253 1.267 0.053 2.52 0.22 3.787 0.167 0.34-0.447-0.433-0.62-0.907-0.233-0.28-0.467-0.847-0.020-1.227-0.067-0.38-0.040-0.2-0.507 0.28-0.433 0.48 0.067 1.34-0.027 1.5-0.247s-0.093-0.447-0.887-0.233c-0.267-0.267-0.867 0-1.14 0.087-0.373-0.207-1.233-0.033-1.52 0.040-0.287-0.173 1.5-0.467 1.5-0.467 0.693-0.013 1.087-0.133 1.3-0.187 1.047-0.56-0.013-0.62-0.56-0.213-0.34-0.267-0.667 0.020-0.973 0.12-0.244 0.085-0.524 0.134-0.817 0.134-0.027 0-0.054-0-0.081-0.001l0.004 0c0-0.040 0.84-0.553 0.84-0.553s1.020-0.073 1.227-0.1c0.2-0.033 1.253-0.567-0.18-0.207-0.493 0.040-0.787 0.013-0.98 0.027-1.1-0.113 0.107-0.22 0.107-0.22s1.56-0.14 1.58-0.22c0.027-0.6-1.273-0.32-1.287-0.32 0-0.433-1.213 0.013-1.213 0-0.233-0.133 0.133-0.273 0.133-0.273 0.32-0.080 0.8-0.107 0.927-0.207 0 0 0.907-0.007 1.013-0.247-0.22-0.62-1.92 0.107-2.147 0.213-0.307 0 0.2-0.493 0.22-0.507 0.013-0.020 1.4-0.073 2.060-0.967 0.047-0.54-0.773 0.307-0.773 0.307-0.067-0.707-0.893 0.047-1.373 0.1-0.487 0.067-0.5-0.22-0.167-0.267 0.333-0.040 0.72-0.007 0.907-0.52 0.193-0.513 0.76 0.027 0.867-0.16 0.1-0.193-0.207-0.353-0.207-0.353s0.427-0.44-0.267-0.42c-0.68 0.013-1.573-0.093-1.573-0.093s0.713-0.273 1.387-0.267c0.667 0.020 0.307-0.473-0.333-0.473-0.647 0-0.98-0.22-0.98-0.22l1.093-0.413-0.067-0.307s0.64-0.513-0.267-0.393l-1.013 0.133-1.827 0.273c-0.013 0-0.493-0.147-0.027-0.267s2.12-0.447 2.367-0.36c0.247 0.087-0.027-0.613-0.907-0.7-0.873-0.087-1.42 0.22-1.42 0.22s-0.567-0.207-0.040-0.38c0.527-0.18 1.36 0.060 1.36 0.060s0.933-0.28 0.16-0.4c-0.773-0.113-1.020 0.107-1.373 0.12-0.14-0.18 1.213-0.22 1.3-0.367-0.147-0.267-0.987 0-1.48 0-0.2-0.087-0.22-0.233 0.020-0.32 0.5-0.020 0.973 0.007 1.473-0.013-0.013-0.267 0-0.58-0.013-0.853-0.64-0.113-1.387 0.087-1.74 0.067 0.093-0.287 1.467-0.367 1.62-0.447 0.32-0.4-1.34 0-1.36 0-0.287-0.040-0.267-0.227-0.087-0.333 0.427-0.047 1.373 0.067 1.307-0.227-0.053-0.267-0.667-0.127-0.907-0.067-0.253 0.060-0.62 0.013-0.62 0.013-0.153-0.213 1.433-0.127 1.42-0.293-0.020-0.187-1.007-0.053-1.347-0.040-0.26-0.18 1.267-0.3 1.287-0.32 0.060-0.487-1.020 0-1.227 0-0.2 0-0.1-0.307-0.1-0.307s0.42-0.193 0.407-0.22c-0.1-0.055-0.215-0.101-0.337-0.131l-0.010-0.002c-0.033 0 0-0.333 0-0.333s0.347-0.267 0.32-0.34c-0.033-0.073-0.413 0.060-0.413 0.060v-0.293s0.28-0.027 0.307-0.16c0.033-0.133-0.333-0.147-0.333-0.147l-0.147-1.533-0.133 1.433-0.48 0.067s0.333 0.193 0.4 0.387c0.053 0.187-0.413 0.133-0.413 0.133s0.38 0.32 0.407 0.433c0.033 0.12-0.527 0.147-0.527 0.147s0.467 0.333 0.5 0.527c0.027 0.187 0 0.293 0 0.293s-0.773-0.673-1.267-0.487c-0.267 0.133 0.587 0.2 1.147 0.687 0 0.113-1.367-0.333-1.413-0.053 0.027 0.073 1.46 0.28 1.56 0.467-0.52 0.020-1.6-0.113-1.56 0.060-0.113 0.2 1.013 0.087 1.487 0.247 0.14 0.16 0.127 0.293-0.113 0.307-0.46-0.22-1.473-0.38-1.48-0.1 0.007 0.067 1.053 0.027 1.433 0.273-0.507 0.12-2.227-0.233-2.233-0.067 0.047 0.087 0.32 0.433 0.787 0.42s1.553 0.187 1.627 0.333c0.067 0.147-1.407-0.307-1.96-0.040-0.56 0.267 1.593 0.1 1.94 0.42 0.353 0.327-0.7-0.027-0.7-0.027s-1.467-0.2-1.68-0.1c-0.22 0.1-0.467 0.333-0.467 0.333s0.147 0.293 0.293 0.233c0.147-0.060-0.047 0.18-0.047 0.18s2.047 0.493 2.5 0.933c0.453 0.44-2.6-0.687-2.6-0.687s-1.233 0.453 0.067 0.48c-0.147 0.22 0.080 0.353 0.080 0.353s2.16 0.453 2.38 0.8c0.22 0.353-1.473-0.333-1.86-0.527-0.38-0.187-1.46 0.12-1.447 0.193 0.020 0.067 0.533 0.173 0.54 0.307 0.020 0.133-0.627 0.173-0.627 0.293 0 0.113 2.733 0.687 3.467 1.3s-2.147-0.733-2.147-0.733 0.16 0.22 0 0.28c-0.167 0.060-0.733-0.82-1.667-0.28-0.173 0.227 0.813 0.4 1.067 0.427-0.087 0.22-0.16 0.293 0.187 0.513s-0.687-0.32-0.687-0.293l0.073 0.38c-0.32-0.267-0.713-0.34-1.080-0.073 0 0-0.013 0.267 0.367 0.427-0.207 0.42 0.233 0.287 0.933 0.687-1.040-0.273-1.127 0.233-0.38 0.347s2.793 0.193 3.273 0.82c0.487 0.627-0.687-0.24-0.82-0.267-0.027 0.020-0.053 0.327-0.053 0.327-0.313-0.18-0.6-0.347-0.973-0.42-0.033 0.060-0.020 0.14-0.053 0.2-0.333-0.247-0.633-0.413-1.127-0.44l-0.060 0.233s-0.407-0.513-1.213 0c-0.447 0.327 1.7 0.12 2.047 0.5 0.353 0.38 0.073 0.44 0.073 0.44l-0.873-0.327s-1.040-0.187-1.333 0.047 4.267 0.8 4.4 1.433c0.093 0.333-1.067-0.36-2.073-0.66l-0.12 0.333s-0.4-0.4-0.847-0.467c-0.013 0 0.087 0.4 0.087 0.4s-1.12-0.533-1.693-0.253c-0.567 0.28 1.987 0.427 2.22 0.687 0.233 0.267-0.773-0.173-0.867 0-0.080 0.18-1.327-0.32-1.307-0.087 0.013 0.233 0.173 0.367 0.173 0.367s2.587 0.247 2.673 0.553c0.087 0.307-1.433-0.173-1.433-0.173s-0.147 0.22-0.027 0.32c0.113 0.107-0.88-0.58-0.787-0.133-0.327-0.127-1.16-0.52-1.040-0.213 0.113 0.307 2.353 0.747 2.353 0.747s-0.98 0.067-0.933 0.32c-1.267-0.767-1.233-0.28-1.2-0.267 0.027 0.013-1.627-0.407-0.38 0.267s0.667 0.553 0.687 0.567c0.013 0.013 0.133 0.333 0.1 0.333-0.027 0-0.847-0.433-1.127-0.467-0.273-0.027-1.593 0.367-0.187 0.987s2.267-0.147 3.040-0.067c0.773 0.093 1.133 0.227 1.067 0.467-0.073 0.253-0.793-0.807-1.547 0.113-0.867-0.173-1.447-0.267-1 0.36-1.4-0.527-2.267 0.16-0.493 0.44 1.733 0.053 2.8-0.427 2.8-0.427s0.3 0.54 0.72 0.16c0.427-0.38 0.44 0.147 0.453 0.147l0.413-0.173h0.1z"></path>
<path fill="#fff" d="M21.067 21.347v-0.247s-0.547-0.1-0.82-0.047c-0.153-0.087-0.307-0.207-0.5-0.107-0.033 0.080 0.353 0.287 0.48 0.287 0.234 0.072 0.503 0.114 0.782 0.114 0.023 0 0.045-0 0.068-0.001l-0.003 0zM21.067 21.747s-0.553-0.207-0.773 0.027c0.033 0.247 0.647 0.367 0.78 0.3 0.127-0.067 0-0.32-0.007-0.333zM22 21.84v0.173s0.653 0.127 0.773-0.013c0.113-0.14-0.533-0.233-0.78-0.16zM21.967 21.16l0.020 0.193s0.573 0.127 0.793-0.187c0.22-0.313-0.5 0-0.813-0.007zM21.993 20.493v0.133s0.433 0.067 0.533-0.12c0.093-0.187-0.52 0-0.533-0.013zM21.1 20.093c-0.067-0.087-0.3-0.32-0.92-0.387-0.433 0 0.78 0.633 0.92 0.393zM21.98 19.447l-0.013 0.18s1.467-0.44 1.807-0.407c0.307-0.087 0.373-0.3 0.36-0.3-0.267-0.193-1.527 0.153-2.153 0.527zM22.013 18.927l-0.020 0.173s1.033-0.2 1.313-0.4c0.273-0.2-1.28 0.233-1.293 0.227zM21.973 18.42v0.173s0.687-0.027 0.833-0.16c0.087-0.14-0.613-0.020-0.833-0.013zM23.413 19.867s0.36 0.053 0.427-0.053c-0.013-0.187-0.427 0.067-0.427 0.053zM22 17.773l0.007 0.38s1.66-0.527 1.767-0.62c0.1-0.1 0.333-0.4-1.773 0.24zM21.953 17.247v0.28s0.667-0.053 0.973-0.3c0.307-0.253-0.973 0.027-0.973 0.020zM21.153 16.627l0.040 0.247-2.193-0.707c0.007 0-0.107-0.36 2.153 0.46zM21.187 15.74c0 0.027 0 0.24-0.013 0.233 0 0-1.52-0.633-1.58-0.58-0.2-0.467 1.6 0.36 1.6 0.347zM21.927 16.14l0.027 0.207s0.933-0.193 0.987-0.287c0.053-0.093-1.013 0.080-1.013 0.073zM21.947 16.633c0.013 0.047 0.027 0.22 0.027 0.22s0.373-0.033 0.433-0.12c0.053-0.087-0.46-0.1-0.46-0.1zM21.893 15.5v0.2s1.027-0.2 1.133-0.293c0.113-0.1-1.153 0.093-1.133 0.093zM21.893 14.933c0 0.013-0.033 0.207-0.007 0.207s1.24-0.2 1.433-0.38c0.187-0.167-1.4 0.193-1.42 0.173zM21.88 13.94v0.22s0.787-0.167 0.933-0.333c0.147-0.167-0.933 0.133-0.933 0.113zM21.747 12.5l0.013 0.32s1.067-0.147 1.213-0.32c0.153-0.18-1.233 0-1.227 0zM21.253 10.067v0.2s-0.5-0.020-0.38-0.107 0.38-0.073 0.38-0.093zM21.72 10.333l0.013 0.28s0.647-0.067 0.693-0.167c0.053-0.1-0.693-0.107-0.707-0.107zM21.68 10.733s0.013 0.173 0.027 0.173 0.26-0.020 0.313-0.087c0.053-0.067-0.313-0.067-0.333-0.087zM21.133 11.52c0 0.020 0.020 0.267 0 0.253s-1.413-0.407-1.547-0.4c-0.127 0-0.16-0.327 1.547 0.147zM21.247 11.98c0 0.047 0.033 0.307-0.020 0.293-0.047-0.013-0.953-0.3-0.86-0.387s0.88 0.113 0.88 0.093zM21.167 13.913l0.007 0.233s-1.58-0.48-1.633-0.56c-0.053-0.080-0.207-0.453 1.627 0.327zM21.233 14.48v0.22l-2.147-0.753s-0.173-0.56 2.14 0.533z"></path>
<path fill="#fff" d="M18.687 21.913l-0.013 0.233s-0.413-0.12-0.547-0.353c0.24-0.067 0.567 0.127 0.56 0.12z"></path>
</svg>
