<!-- Generated by IcoMoon.io -->
<svg version="1.1" xmlns="http://www.w3.org/2000/svg" width="43" height="32" viewBox="0 0 43 32">
<title>ni</title>
<path fill="#0067c6" d="M0 0h42.667v32h-42.667z"></path>
<path fill="#fff" d="M0 10.667h42.667v10.667h-42.667z"></path>
<path fill="#c8a400" d="M16.533 15.967l0.533 0.033v-0.080l-0.2-0.013 0.013-0.253 0.22-0.16 0.007-0.1-0.233 0.167c-0.007-0.053-0.040-0.113-0.093-0.133-0.053-0.013-0.107-0.013-0.153 0.020-0.053 0.040-0.067 0.107-0.067 0.167l-0.027 0.353zM16.613 15.893l0.020-0.267c0.007-0.040 0.013-0.093 0.053-0.12 0.010-0.007 0.023-0.011 0.037-0.011 0.029 0 0.054 0.018 0.063 0.044l0 0c0.027 0.067 0.013 0.14 0.007 0.213l-0.007 0.147-0.173-0.007zM16.6 15.147l0.52 0.12 0.12-0.507c-0.106-0.017-0.131-0.022-0.156-0.026l0.082 0.013-0.1 0.427-0.16-0.033 0.093-0.387-0.073-0.020-0.093 0.387-0.133-0.033 0.093-0.413-0.080-0.013-0.113 0.487zM16.787 14.447l0.507 0.18 0.027-0.073-0.2-0.067 0.080-0.233c0.013-0.067 0.027-0.133-0.007-0.2-0.031-0.041-0.079-0.067-0.133-0.067v0c-0.067 0-0.107 0.047-0.133 0.1-0.040 0.067-0.067 0.147-0.087 0.227l-0.053 0.133zM16.887 14.4l0.080-0.227c0.020-0.040 0.040-0.087 0.087-0.1 0.004-0.001 0.009-0.001 0.014-0.001 0.035 0 0.064 0.027 0.066 0.061l0 0c0.013 0.067-0.020 0.133-0.040 0.2l-0.047 0.127-0.16-0.060zM17.067 13.8l0.287 0.173c0.053 0.027 0.12 0.040 0.18 0.013 0.072-0.049 0.127-0.117 0.159-0.197l0.001-0.003c0.027-0.067 0.053-0.147 0.013-0.213s-0.113-0.093-0.18-0.133l-0.18-0.107-0.040 0.067 0.267 0.16c0.047 0.027 0.080 0.067 0.073 0.127-0.014 0.064-0.042 0.12-0.081 0.167l0.001-0.001c-0.027 0.040-0.080 0.073-0.133 0.067-0.053-0.013-0.1-0.053-0.147-0.080l-0.18-0.1-0.040 0.067zM17.453 13.18l0.42 0.32 0.2-0.253c0.040-0.060 0.067-0.133 0.047-0.2-0.025-0.051-0.074-0.087-0.133-0.093l-0.001-0c-0.033 0-0.067 0.020-0.080 0.027 0.013-0.060-0.033-0.113-0.080-0.127-0.067-0.020-0.133 0.020-0.173 0.067l-0.133 0.167-0.067 0.093zM17.56 13.16c0.047-0.067 0.093-0.133 0.147-0.187 0.027-0.027 0.067-0.067 0.1-0.040 0.033 0.013 0.047 0.060 0.027 0.087-0.027 0.060-0.067 0.1-0.107 0.153l-0.053 0.073-0.113-0.087zM17.733 13.293l0.153-0.2c0.027-0.027 0.067-0.067 0.107-0.053 0.040 0.007 0.067 0.047 0.053 0.087-0.020 0.067-0.073 0.12-0.12 0.18l-0.067 0.087-0.133-0.1zM17.933 12.613l0.367 0.387 0.313-0.3-0.053-0.053-0.253 0.24h-0.007l-0.313-0.333zM18.4 12.2l0.327 0.42 0.067-0.047-0.333-0.42zM18.88 11.873c-0.053 0.031-0.097 0.072-0.133 0.119l-0.001 0.001c-0.030 0.040-0.048 0.090-0.048 0.145 0 0.051 0.016 0.097 0.042 0.136l-0.001-0.001c0.026 0.042 0.062 0.076 0.105 0.099l0.001 0.001c0.032 0.017 0.071 0.028 0.112 0.028 0.008 0 0.015-0 0.022-0.001l-0.001 0c0.068-0.009 0.129-0.033 0.182-0.068l-0.002 0.001c0.056-0.032 0.101-0.078 0.132-0.132l0.001-0.002c0.027-0.053 0.033-0.107 0.020-0.16l-0.067 0.027c0.013 0.107-0.053 0.16-0.133 0.2-0.12 0.080-0.233 0.073-0.307-0.033-0.073-0.127 0-0.227 0.107-0.293 0.073-0.047 0.147-0.080 0.213-0.033l0.060-0.053c-0.035-0.025-0.078-0.040-0.125-0.040-0.003 0-0.006 0-0.009 0h0c-0.060 0-0.113 0.027-0.173 0.067zM19.513 11.56l-0.060 0.6 0.087-0.033 0.013-0.187 0.267-0.107 0.147 0.12 0.080-0.033-0.453-0.393-0.080 0.033zM19.58 11.627l0.18 0.147-0.2 0.080 0.020-0.233zM20.68 11.227l0.033 0.533 0.287-0.013c0.080-0.013 0.16-0.027 0.207-0.093 0.067-0.067 0.080-0.18 0.047-0.273-0.026-0.082-0.094-0.144-0.179-0.16l-0.001-0c-0.080-0.013-0.16 0-0.24 0l-0.153 0.013zM20.76 11.3l0.233-0.007c0.003-0 0.006-0 0.009-0 0.041 0 0.080 0.013 0.112 0.034l-0.001-0c0.053 0.040 0.087 0.1 0.080 0.167-0.006 0.077-0.060 0.14-0.132 0.16l-0.001 0c-0.040 0.013-0.087 0.013-0.127 0.020l-0.147 0.007-0.027-0.38zM21.427 11.2l-0.033 0.533 0.52 0.027v-0.073l-0.44-0.027 0.007-0.16 0.4 0.020v-0.073l-0.393-0.020 0.007-0.147 0.427 0.027v-0.080l-0.5-0.027zM22.813 11.42l-0.193 0.5 0.067 0.027 0.16-0.4v-0.013l0.013 0.020 0.187 0.533 0.087 0.033 0.193-0.5-0.067-0.027-0.153 0.4-0.007 0.013-0.013-0.020-0.18-0.533zM23.533 11.733l-0.247 0.467-0.067-0.033 0.24-0.473zM23.933 11.967c-0.046-0.031-0.099-0.054-0.157-0.066l-0.003-0.001c-0.020-0.006-0.042-0.009-0.066-0.009-0.084 0-0.158 0.043-0.201 0.108l-0.001 0.001c-0.025 0.040-0.040 0.088-0.040 0.14v0c0 0.047 0.007 0.093 0.040 0.14 0.027 0.047 0.067 0.087 0.133 0.133 0.051 0.035 0.112 0.059 0.178 0.066l0.002 0c0.002 0 0.004 0 0.007 0 0.053 0 0.102-0.018 0.141-0.047l-0.001 0-0.053-0.060c-0.093 0.067-0.167 0.020-0.24-0.027-0.12-0.080-0.167-0.187-0.093-0.3 0.080-0.12 0.207-0.087 0.313-0.020 0.067 0.047 0.133 0.1 0.12 0.18l0.067 0.027c0.002-0.011 0.003-0.024 0.003-0.037 0-0.035-0.009-0.069-0.024-0.098l0.001 0.001c-0.027-0.053-0.067-0.093-0.127-0.133zM24.44 12.347l-0.553 0.227 0.067 0.060 0.173-0.067 0.22 0.187-0.047 0.18 0.067 0.060 0.14-0.587-0.067-0.060zM24.42 12.44l-0.053 0.227-0.167-0.133 0.22-0.093zM24.847 12.72l-0.413 0.333 0.047 0.067 0.167-0.133 0.16 0.2-0.047 0.267 0.060 0.073 0.053-0.28c0.047 0.033 0.113 0.053 0.167 0.027 0.047-0.027 0.093-0.067 0.093-0.12 0-0.073-0.047-0.133-0.087-0.187l-0.2-0.247zM24.833 12.827l0.173 0.213c0.027 0.040 0.060 0.093 0.027 0.133-0.020 0.040-0.073 0.040-0.107 0.013-0.067-0.047-0.107-0.113-0.16-0.173l-0.067-0.073 0.133-0.113zM25.467 13.567l-0.6 0.027 0.047 0.080 0.187-0.007 0.147 0.253-0.107 0.153 0.047 0.080 0.327-0.507-0.047-0.080zM25.42 13.647l-0.133 0.2-0.1-0.187 0.233-0.013zM25.813 14.273c-0.033-0.087-0.087-0.18-0.18-0.227-0.031-0.015-0.068-0.023-0.106-0.023-0.078 0-0.147 0.035-0.193 0.090l-0 0c-0.067 0.067-0.067 0.167-0.047 0.26 0.020 0.1 0.067 0.2 0.133 0.273l-0.040 0.013 0.027 0.073 0.253-0.087-0.1-0.273-0.053 0.020 0.067 0.2-0.080 0.033c-0.070-0.066-0.12-0.153-0.14-0.25l-0-0.003c-0.020-0.073-0.020-0.16 0.033-0.213 0.067-0.067 0.173-0.087 0.247-0.033s0.113 0.14 0.133 0.227c0.020 0.060 0.013 0.127-0.027 0.173-0.013 0 0 0.020 0.007 0.027l0.020 0.033c0.044-0.034 0.073-0.087 0.073-0.147v-0c0-0.003 0-0.007 0-0.011 0-0.056-0.010-0.109-0.028-0.159l0.001 0.003zM25.967 14.693l-0.3 0.053c-0.048 0.007-0.091 0.026-0.127 0.054l0.001-0c-0.028 0.025-0.047 0.060-0.053 0.099l-0 0.001v0.16c0.020 0.067 0.040 0.113 0.067 0.153 0.020 0.040 0.047 0.067 0.080 0.067 0.020 0.005 0.043 0.008 0.067 0.008s0.047-0.003 0.069-0.009l-0.002 0 0.3-0.053-0.013-0.073-0.293 0.053c-0.133 0.027-0.173-0.040-0.2-0.16-0.020-0.12 0-0.2 0.127-0.22l0.293-0.060-0.013-0.073zM26.127 15.6l-0.553-0.24 0.007 0.093 0.173 0.067 0.020 0.293-0.16 0.1 0.007 0.087 0.513-0.313-0.007-0.087zM26.047 15.647l-0.2 0.127-0.013-0.213 0.213 0.087zM16.947 16.98l-0.080 0.020 0.087 0.327 0.080-0.020zM25.72 16.98l0.080 0.020-0.087 0.327-0.080-0.020zM17.773 18.347l-0.6 0.067 0.053 0.073 0.187-0.020 0.16 0.24-0.093 0.167 0.053 0.067 0.287-0.52-0.047-0.073zM17.727 18.433l-0.113 0.2-0.12-0.173 0.233-0.027zM18 18.673l-0.38 0.353 0.053 0.053 0.32-0.3-0.173 0.467 0.067 0.060 0.453-0.133-0.313 0.287 0.053 0.053 0.38-0.353-0.080-0.080-0.467 0.133 0.173-0.447zM18.553 19.233l-0.32 0.433 0.413 0.307 0.047-0.060-0.353-0.267 0.1-0.133 0.313 0.247 0.047-0.067-0.313-0.233 0.087-0.113 0.333 0.253 0.047-0.067-0.4-0.3zM19.073 19.62l-0.247 0.467 0.067 0.040 0.1-0.187 0.227 0.12 0.053 0.267 0.087 0.047-0.060-0.28c0.060 0.020 0.133 0.007 0.167-0.040 0.033-0.040 0.060-0.087 0.040-0.14-0.013-0.067-0.087-0.107-0.14-0.14l-0.293-0.153zM19.107 19.72l0.24 0.133c0.040 0.027 0.087 0.060 0.080 0.107 0 0.047-0.047 0.067-0.087 0.060-0.080-0.013-0.147-0.060-0.213-0.093l-0.1-0.053 0.080-0.153zM19.68 19.933l-0.2 0.493 0.067 0.033 0.2-0.493zM20.16 20.1c-0.046-0.017-0.098-0.027-0.153-0.027-0.007 0-0.014 0-0.021 0l0.001-0c-0.107 0.002-0.197 0.074-0.226 0.172l-0 0.002c-0.006 0.021-0.009 0.045-0.009 0.070s0.003 0.049 0.010 0.072l-0-0.002c0 0.053 0.027 0.093 0.067 0.133 0.044 0.039 0.098 0.069 0.157 0.086l0.003 0.001c0.036 0.013 0.077 0.021 0.121 0.021 0.026 0 0.051-0.003 0.075-0.008l-0.002 0c0.054-0.011 0.1-0.039 0.133-0.080l0-0-0.067-0.040c-0.067 0.087-0.153 0.067-0.24 0.033-0.133-0.047-0.207-0.133-0.167-0.267 0.047-0.133 0.18-0.133 0.293-0.1 0.080 0.027 0.153 0.067 0.16 0.14l0.080 0.013c-0.004-0.052-0.026-0.099-0.060-0.133l0 0c-0.042-0.040-0.093-0.070-0.151-0.086l-0.003-0.001zM20.693 20.22l-0.347 0.487 0.087 0.013 0.107-0.153 0.293 0.047 0.060 0.173 0.087 0.013-0.2-0.567-0.087-0.013zM20.727 20.307l0.080 0.227-0.213-0.033 0.133-0.193zM21.947 20.227c-0.067 0.007-0.113 0.027-0.16 0.060-0.072 0.042-0.119 0.119-0.119 0.207 0 0.019 0.002 0.037 0.006 0.054l-0-0.002c0.007 0.047 0.027 0.087 0.067 0.133 0.027 0.033 0.067 0.053 0.12 0.067 0.047 0.013 0.113 0.013 0.187 0 0.067-0.013 0.133-0.040 0.173-0.080 0.038-0.034 0.064-0.080 0.073-0.132l0-0.001h-0.080c-0.020 0.107-0.1 0.133-0.187 0.147-0.14 0.027-0.247-0.020-0.273-0.153-0.027-0.14 0.087-0.207 0.2-0.233 0.087-0.013 0.167-0.020 0.213 0.047l0.067-0.027c-0.025-0.040-0.062-0.070-0.105-0.086l-0.001-0c-0.027-0.007-0.058-0.011-0.090-0.011s-0.063 0.004-0.093 0.012l0.003-0.001zM22.3 20.16l0.153 0.513 0.5-0.147-0.027-0.073-0.42 0.127-0.047-0.16 0.38-0.113-0.020-0.067-0.38 0.107-0.040-0.133 0.4-0.12-0.020-0.073-0.48 0.14zM22.88 19.98l0.22 0.487 0.067-0.033-0.187-0.4 0.52 0.233h0.033l0.067-0.033-0.227-0.487-0.067 0.033 0.187 0.4-0.533-0.24-0.080 0.040zM23.467 19.707l0.040 0.067 0.187-0.133h0.013l0.247 0.38 0.067-0.047-0.247-0.373v-0.007l0.193-0.133-0.040-0.060zM24 19.333l0.36 0.4 0.060-0.060-0.14-0.153 0.187-0.173 0.267 0.040 0.080-0.067-0.287-0.040c0.033-0.047 0.047-0.12 0.013-0.173-0.027-0.047-0.067-0.087-0.127-0.080-0.067 0-0.133 0.053-0.18 0.093l-0.233 0.22zM24.107 19.34l0.2-0.187c0.040-0.027 0.093-0.060 0.133-0.033 0.047 0.020 0.047 0.073 0.020 0.107-0.040 0.067-0.1 0.113-0.16 0.173l-0.073 0.067-0.12-0.133zM24.62 18.713l0.24 0.553 0.053-0.067-0.067-0.173 0.18-0.227 0.18 0.040 0.060-0.067-0.587-0.133-0.060 0.073zM24.713 18.733l0.233 0.047-0.133 0.167-0.1-0.213zM24.853 18.413l0.447 0.287 0.233-0.36-0.067-0.040-0.18 0.287-0.007 0.013h-0.007l-0.38-0.253z"></path>
<path fill="#fff" d="M21.333 12.075l-1.68 2.907-0.821 1.424h5.003l-0.784-1.355-1.717-2.976z"></path>
<path fill="#17c0eb" opacity="0.6" d="M21.333 12.075l-0.128 0.213 0.128 2.933 0.128-2.933z"></path>
<path fill="#fff" d="M21.333 14.8h-0.005l0.005 0.16 0.005-0.16h-0.005z"></path>
<path fill="#17c0eb" opacity="0.6" d="M24.331 14.253l-0.242-0.056-2.75 1.028 2.829-0.785z"></path>
<path fill="#fff" d="M21.739 15.095l-0.002-0.005-0.151 0.055 0.154-0.044-0.002-0.005z"></path>
<path fill="#17c0eb" opacity="0.6" d="M23.186 17.777l-0.022-0.248-1.828-2.298 1.621 2.448z"></path>
<path fill="#fff" d="M21.584 15.572l0.004-0.003-0.098-0.126 0.090 0.133 0.004-0.003z"></path>
<path fill="#17c0eb" opacity="0.6" d="M19.481 17.777l0.229-0.097 1.621-2.448-1.828 2.298z"></path>
<path fill="#fff" d="M21.083 15.572l0.004 0.003 0.090-0.133-0.098 0.126 0.004 0.003z"></path>
<path fill="#17c0eb" opacity="0.6" d="M18.336 14.253l0.163 0.188 2.829 0.785-2.75-1.028z"></path>
<path fill="#fff" d="M20.928 15.095l-0.002 0.005 0.154 0.044-0.151-0.055-0.002 0.005z"></path>
<path fill="#17c0eb" opacity="0.6" d="M21.772 12.105l-0.156 0.193-0.282 2.923 0.535-2.887z"></path>
<path fill="#fff" d="M21.393 14.804l-0.005-0.001-0.017 0.159 0.028-0.158-0.005-0.001z"></path>
<path fill="#fff" d="M21.754 15.153l-0.001-0.005-0.157 0.033 0.159-0.023-0.001-0.005z"></path>
<path fill="#fff" d="M21.534 15.603l0.005-0.002-0.080-0.139 0.070 0.144 0.005-0.002z"></path>
<path fill="#fff" d="M21.037 15.534l0.004 0.004 0.107-0.119-0.115 0.111 0.004 0.004z"></path>
<path fill="#fff" d="M20.95 15.040l-0.002 0.005 0.146 0.065-0.141-0.075-0.002 0.005z"></path>
<path fill="#17c0eb" opacity="0.6" stroke="#17c0eb" stroke-linejoin="miter" stroke-linecap="butt" stroke-miterlimit="4" stroke-width="0.0067" d="M22.202 12.197l-0.182 0.17-0.686 2.855 0.932-2.784z"></path>
<path fill="#fff" d="M21.451 14.817l-0.005-0.001-0.039 0.155 0.049-0.152-0.005-0.001z"></path>
<path fill="#fff" d="M21.76 15.212l-0-0.005-0.16 0.011 0.16-0-0-0.005z"></path>
<path fill="#fff" d="M21.479 15.628l0.005-0.002-0.060-0.149 0.050 0.152 0.005-0.002z"></path>
<path fill="#fff" d="M20.997 15.489l0.003 0.004 0.123-0.103-0.129 0.094 0.003 0.004z"></path>
<path fill="#fff" d="M20.98 14.988l-0.003 0.004 0.136 0.085-0.13-0.094-0.003 0.004z"></path>
<path fill="#17c0eb" opacity="0.6" stroke="#17c0eb" stroke-linejoin="miter" stroke-linecap="butt" stroke-miterlimit="4" stroke-width="0.0067" d="M22.615 12.347l-0.204 0.143-1.076 2.732 1.31-2.628z"></path>
<path fill="#fff" d="M21.507 14.837l-0.005-0.002-0.060 0.148 0.070-0.144-0.005-0.002z"></path>
<path fill="#fff" d="M21.758 15.271l0.001-0.005-0.16-0.011 0.159 0.022 0.001-0.005z"></path>
<path fill="#fff" d="M21.422 15.644l0.005-0.001-0.038-0.155 0.028 0.158 0.005-0.001z"></path>
<path fill="#fff" d="M20.964 15.44l0.003 0.005 0.136-0.085-0.141 0.075 0.003 0.005z"></path>
<path fill="#fff" d="M21.016 14.941l-0.004 0.004 0.122 0.103-0.115-0.111-0.004 0.004z"></path>
<path fill="#17c0eb" opacity="0.6" stroke="#17c0eb" stroke-linejoin="miter" stroke-linecap="butt" stroke-miterlimit="4" stroke-width="0.0067" d="M23.004 12.554l-0.222 0.113-1.446 2.555 1.663-2.42z"></path>
<path fill="#fff" d="M21.559 14.865l-0.005-0.003-0.080 0.139 0.089-0.133-0.005-0.003z"></path>
<path fill="#fff" d="M21.747 15.33l0.001-0.005-0.157-0.034 0.154 0.044 0.001-0.005z"></path>
<path fill="#fff" d="M21.363 15.652l0.005-0-0.016-0.159 0.006 0.16 0.005-0z"></path>
<path fill="#fff" d="M20.938 15.386l0.002 0.005 0.146-0.065-0.15 0.055 0.002 0.005z"></path>
<path fill="#fff" d="M21.059 14.9l-0.004 0.003 0.107 0.119-0.099-0.126-0.004 0.003z"></path>
<path fill="#17c0eb" opacity="0.6" stroke="#17c0eb" stroke-linejoin="miter" stroke-linecap="butt" stroke-miterlimit="4" stroke-width="0.0067" d="M23.359 12.812l-0.235 0.081-1.787 2.329 1.984-2.165z"></path>
<path fill="#fff" d="M21.608 14.9l-0.004-0.003-0.099 0.126 0.107-0.119-0.004-0.003z"></path>
<path fill="#fff" d="M21.729 15.386l0.002-0.005-0.15-0.055 0.146 0.065 0.002-0.005z"></path>
<path fill="#fff" d="M21.304 15.652l0.005 0 0.006-0.16-0.016 0.159 0.005 0z"></path>
<path fill="#fff" d="M20.919 15.33l0.001 0.005 0.154-0.044-0.157 0.034 0.001 0.005z"></path>
<path fill="#fff" d="M21.107 14.865l-0.005 0.003 0.089 0.133-0.080-0.139-0.005 0.003z"></path>
<path fill="#17c0eb" opacity="0.6" stroke="#17c0eb" stroke-linejoin="miter" stroke-linecap="butt" stroke-miterlimit="4" stroke-width="0.0067" d="M23.676 13.118l-0.244 0.048-2.094 2.058 2.266-1.868z"></path>
<path fill="#fff" d="M21.65 14.941l-0.004-0.004-0.115 0.111 0.122-0.103-0.004-0.004z"></path>
<path fill="#fff" d="M21.703 15.44l0.003-0.005-0.141-0.075 0.136 0.085 0.003-0.005z"></path>
<path fill="#fff" d="M21.245 15.644l0.005 0.001 0.028-0.158-0.038 0.155 0.005 0.001z"></path>
<path fill="#fff" d="M20.909 15.271l0.001 0.005 0.159-0.022-0.16 0.011 0.001 0.005z"></path>
<path fill="#fff" d="M21.16 14.837l-0.005 0.002 0.070 0.144-0.060-0.148-0.005 0.002z"></path>
<path fill="#17c0eb" opacity="0.6" stroke="#17c0eb" stroke-linejoin="miter" stroke-linecap="butt" stroke-miterlimit="4" stroke-width="0.0067" d="M23.946 13.464l-0.248 0.013-2.36 1.746 2.503-1.534z"></path>
<path fill="#fff" d="M21.687 14.988l-0.003-0.004-0.13 0.094 0.136-0.085-0.003-0.004z"></path>
<path fill="#fff" d="M21.67 15.489l0.003-0.004-0.129-0.094 0.123 0.103 0.003-0.004z"></path>
<path fill="#fff" d="M21.187 15.628l0.005 0.002 0.050-0.152-0.060 0.149 0.005 0.002z"></path>
<path fill="#fff" d="M20.907 15.212l-0 0.005 0.16 0-0.16-0.011-0 0.005z"></path>
<path fill="#fff" d="M21.216 14.817l-0.005 0.001 0.049 0.152-0.039-0.155-0.005 0.001z"></path>
<path fill="#17c0eb" opacity="0.6" stroke="#17c0eb" stroke-linejoin="miter" stroke-linecap="butt" stroke-miterlimit="4" stroke-width="0.0067" d="M24.166 13.845l-0.248-0.022-2.58 1.401 2.693-1.171z"></path>
<path fill="#fff" d="M21.717 15.040l-0.002-0.005-0.141 0.075 0.146-0.065-0.002-0.005z"></path>
<path fill="#fff" d="M21.63 15.534l0.004-0.004-0.115-0.111 0.107 0.119 0.004-0.004z"></path>
<path fill="#fff" d="M21.133 15.603l0.005 0.002 0.070-0.144-0.080 0.139 0.005 0.002z"></path>
<path fill="#fff" d="M20.913 15.153l-0.001 0.005 0.159 0.023-0.157-0.033-0.001 0.005z"></path>
<path fill="#fff" d="M21.274 14.804l-0.005 0.001 0.028 0.158-0.017-0.159-0.005 0.001z"></path>
<path fill="#f00" d="M21.333 14.176c-0.001 0-0.002 0-0.003 0-0.592 0-1.133 0.218-1.547 0.578l0.003-0.002-0.779 1.355c-0.027 0.133-0.042 0.286-0.043 0.442v0h0.267c0.058-1.114 0.975-1.995 2.099-1.995s2.041 0.881 2.098 1.99l0 0.005h0.267c0-0.006 0-0.013 0-0.020 0-0.149-0.014-0.295-0.040-0.437l0.002 0.015-0.779-1.355c-0.412-0.358-0.953-0.576-1.546-0.576-0 0-0 0-0.001 0h0z"></path>
<path fill="#f60" d="M21.333 14.224c-0.001 0-0.003 0-0.005 0-0.626 0-1.194 0.248-1.612 0.651l0.001-0.001-0.64 1.115c-0.043 0.166-0.069 0.357-0.069 0.554v0h0.229c0.080-1.094 0.988-1.952 2.096-1.952s2.016 0.857 2.096 1.945l0 0.007h0.229c-0-0.199-0.026-0.392-0.073-0.576l0.004 0.016-0.64-1.109c-0.417-0.403-0.985-0.651-1.611-0.651-0.002 0-0.003 0-0.005 0h0z"></path>
<path fill="#ff0" d="M21.333 14.267c-0.002 0-0.004 0-0.006 0-0.675 0-1.282 0.294-1.699 0.76l-0.002 0.002-0.464 0.8c-0.068 0.206-0.107 0.443-0.107 0.689 0 0.011 0 0.021 0 0.032l-0-0.002h0.176c0.058-1.114 0.975-1.995 2.099-1.995s2.041 0.881 2.098 1.99l0 0.005h0.187c0-0.251-0.043-0.491-0.112-0.715l-0.469-0.805c-0.418-0.469-1.024-0.763-1.698-0.763-0.001 0-0.002 0-0.003 0h0z"></path>
<path fill="#0f0" d="M21.333 14.309c-0 0-0.001 0-0.001 0-0.772 0-1.452 0.39-1.855 0.984l-0.005 0.008-0.149 0.261c-0.145 0.287-0.229 0.626-0.229 0.985 0 0.001 0 0.001 0 0.002v-0h0.144c0.080-1.094 0.988-1.952 2.096-1.952s2.016 0.857 2.096 1.945l0 0.007h0.144c0-0.001 0-0.001 0-0.002 0-0.359-0.085-0.698-0.235-0.998l0.006 0.013-0.149-0.267c-0.408-0.602-1.088-0.992-1.86-0.992-0 0-0.001 0-0.001 0h0z"></path>
<path fill="#0cf" d="M21.333 14.347c0 0 0 0 0 0-1.214 0-2.197 0.984-2.197 2.197 0 0.002 0 0.004 0 0.006v-0h0.101c0.080-1.094 0.988-1.952 2.096-1.952s2.016 0.857 2.096 1.945l0 0.007h0.101c0-0.002 0-0.003 0-0.005 0-1.214-0.984-2.197-2.197-2.197 0 0 0 0 0 0v0z"></path>
<path fill="#00f" d="M21.333 14.389c-1.19 0-2.155 0.965-2.155 2.155v0h0.075c0-1.149 0.931-2.080 2.080-2.080s2.080 0.931 2.080 2.080v0h0.075c-0.006-1.185-0.968-2.144-2.155-2.144 0 0-0 0-0 0v0z"></path>
<path fill="#800080" d="M21.333 14.437c-0 0-0 0-0 0-1.166 0-2.112 0.946-2.112 2.112 0 0.013 0 0.026 0 0.039l-0-0.002h0.043v-0.043c0.012-1.134 0.934-2.048 2.069-2.048 1.143 0 2.069 0.927 2.069 2.069 0 0.008-0 0.015-0 0.022v-0.001h0.043v-0.043c0-1.166-0.946-2.112-2.112-2.112v0z"></path>
<path fill="#510000" d="M21.355 15.365c-0.037 0-0.064-0.027-0.096-0.032-0.024 0.022-0.040 0.053-0.040 0.088 0 0.008 0.001 0.017 0.003 0.025l-0-0.001c0.016 0.005 0.016 0.021 0.048 0.048s0.027 0.037 0.021 0.107c0 0.021 0.005 0.080 0.032 0.085s0.053-0.016 0.059-0.064c0.005-0.037 0.021-0.064 0.037-0.085 0.016-0.101-0.011-0.139-0.064-0.171z"></path>
<path fill="#f00" d="M21.184 15.12c-0.032 0-0.085 0.053-0.107 0.027-0.011-0.016-0.016-0.048 0-0.075 0.025-0.053 0.065-0.096 0.116-0.122l0.001-0.001c0.123-0.075 0.208-0.053 0.267 0.053 0.059 0.096 0.117 0.203 0.123 0.288 0 0.027 0.016 0.075-0.011 0.101-0.069 0.075-0.245-0.080-0.347-0.053-0.032 0.005-0.075 0.032-0.107 0.011-0.021-0.016 0-0.053 0.016-0.069 0.032-0.027 0.080-0.128 0.075-0.171 0-0.021 0 0.011-0.027 0.011z"></path>
<path fill="#000" d="M21.173 15.072c-0.064 0.021-0.053 0.053-0.085 0.080 0.011 0.005 0.043 0.016 0.075-0.016 0.011-0.011 0.027-0.016 0.037-0.016l-0.037 0.037c-0.031 0.026-0.056 0.058-0.074 0.094l-0.001 0.002c-0.016 0.043-0.021 0.091-0.016 0.096 0 0 0.021 0.043 0.080 0.064 0.107 0.043 0.128 0.133 0.24 0.133 0.085 0 0.075-0.059 0.144-0.048 0.053 0.011 0.091-0.037 0.032-0.064-0.043-0.009-0.093-0.014-0.144-0.014s-0.101 0.005-0.149 0.015l0.005-0.001c-0.021-0.213 0-0.139-0.005-0.235-0.005-0.091-0.037-0.096 0-0.176-0.027 0.053-0.064 0.043-0.107 0.043z"></path>
<path fill="#ff2a2a" d="M21.387 14.923l-0.005 0.032 0.016 0.053 0.011 0.053c0 0.016 0.021 0.021 0.037 0.032 0.021 0.016 0 0.053 0.016 0.059 0.011 0 0.027-0.053 0.027-0.064v-0.037c-0.011-0.021-0.019-0.036-0.029-0.052l0.002 0.004c-0.004-0.006-0.007-0.011-0.011-0.017l0 0.001c-0.012-0.018-0.026-0.034-0.042-0.048l-0-0c-0.004-0.003-0.010-0.007-0.015-0.010l-0.001-0.001-0.011-0.005z"></path>
<path fill="#000" d="M21.403 15.328l-0.107-0.037c-0.069-0.021-0.139-0.064-0.187-0.043-0.016 0.005-0.016 0.021-0.021 0.048 0 0.027-0.027 0.069 0 0.053 0.032-0.021 0.128 0.043 0.16 0.059 0.016 0.011 0.053 0.032 0.059 0.053 0.011 0.032 0 0.096 0 0.128 0 0.027 0.011 0.096 0.037 0.107 0.032 0.005 0.059-0.021 0.069-0.069 0.016-0.048 0.021-0.075 0.043-0.101s0.043-0.043 0.069-0.048c0.032 0 0.075 0.027 0.075-0.011 0-0.021-0.021-0.043-0.011-0.075 0.005-0.027-0.021-0.021-0.048-0.032l-0.144-0.032z"></path>
<path fill="#910000" d="M21.248 15.408c-0.021-0.011-0.123-0.080-0.16-0.053-0.016 0-0.021 0-0.021-0.016l0.011-0.048c0-0.016 0.011-0.043 0.027-0.053 0.037-0.032 0.123 0.027 0.165 0.043l-0.021 0.128z"></path>
<path fill="#ff3a3a" d="M21.429 15.541c0.048-0.085 0.080-0.075 0.139-0.075 0.021 0 0.027-0.016 0.021-0.037-0.016 0.032-0.091 0-0.133 0.016-0.080 0.037-0.064 0.197-0.107 0.213 0.043 0.037 0.059-0.091 0.080-0.117z"></path>
<path fill="#fff" d="M18.832 16.405l-0.533 0.923h6.075l-0.533-0.917h-5.003z"></path>
<path fill="#000" d="M18.651 17.141c-0.001 0-0.002 0-0.003 0-0.087 0-0.173 0.006-0.257 0.017l0.010-0.001-0.027 0.048c0.128-0.016 0.251-0.037 0.384-0.037 0.171 0 0.331 0.043 0.517 0.043h0.245c0.187 0 0.341-0.043 0.517-0.043s0.336 0.043 0.523 0.043h0.245c0.187 0 0.341-0.043 0.517-0.043s0.336 0.043 0.523 0.043h0.24c0.187 0 0.347-0.043 0.523-0.043s0.336 0.043 0.523 0.043h0.24c0.187 0 0.347-0.043 0.523-0.043 0.139 0 0.267 0.027 0.4 0.037l-0.027-0.053c-0.063-0.007-0.136-0.011-0.209-0.011-0.009 0-0.018 0-0.027 0h-0.239c-0.187 0-0.347 0.037-0.523 0.043-0.176 0-0.336-0.043-0.523-0.043h-0.24c-0.187 0-0.347 0.037-0.523 0.043-0.176 0-0.336-0.043-0.523-0.043h-0.235c-0.187 0-0.347 0.037-0.523 0.043-0.176 0-0.336-0.043-0.523-0.043h-0.24c-0.187 0-0.347 0.037-0.523 0.043-0.176 0-0.331-0.043-0.517-0.043h-0.245z"></path>
<path fill="#000" d="M18.651 17.083c-0.001 0-0.002 0-0.003 0-0.087 0-0.173 0.006-0.257 0.017l0.010-0.001-0.027 0.048c0.128-0.016 0.251-0.037 0.384-0.037 0.171 0 0.331 0.043 0.517 0.043h0.245c0.187 0 0.341-0.043 0.517-0.043s0.336 0.043 0.523 0.043h0.245c0.187 0 0.341-0.043 0.517-0.043s0.336 0.043 0.523 0.043h0.24c0.187 0 0.347-0.043 0.523-0.043s0.336 0.043 0.523 0.043h0.24c0.187 0 0.347-0.043 0.523-0.043 0.139 0 0.267 0.027 0.4 0.037l-0.027-0.053c-0.063-0.007-0.136-0.011-0.209-0.011-0.009 0-0.018 0-0.027 0h-0.239c-0.187 0-0.347 0.037-0.523 0.043-0.176 0-0.336-0.043-0.523-0.043h-0.24c-0.187 0-0.347 0.037-0.523 0.043-0.176 0-0.336-0.043-0.523-0.043h-0.235c-0.187 0-0.347 0.037-0.523 0.043-0.176 0-0.336-0.043-0.523-0.043h-0.24c-0.187 0-0.347 0.037-0.523 0.043-0.176 0-0.331-0.043-0.517-0.043h-0.245z"></path>
<path fill="#000" d="M18.651 17.024c-0.001 0-0.002 0-0.003 0-0.087 0-0.173 0.006-0.257 0.017l0.010-0.001-0.027 0.048c0.128-0.016 0.251-0.037 0.384-0.037 0.171 0 0.331 0.043 0.517 0.043h0.245c0.187 0 0.341-0.043 0.517-0.043s0.336 0.043 0.523 0.043h0.245c0.187 0 0.341-0.043 0.517-0.043s0.336 0.043 0.523 0.043h0.24c0.187 0 0.347-0.043 0.523-0.043s0.336 0.043 0.523 0.043h0.24c0.187 0 0.347-0.043 0.523-0.043 0.139 0 0.267 0.027 0.4 0.037l-0.027-0.053c-0.063-0.007-0.136-0.011-0.209-0.011-0.009 0-0.018 0-0.027 0h-0.239c-0.187 0-0.347 0.037-0.523 0.043-0.176 0-0.336-0.043-0.523-0.043h-0.24c-0.187 0-0.347 0.037-0.523 0.043-0.176 0-0.336-0.043-0.523-0.043h-0.235c-0.187 0-0.347 0.037-0.523 0.043-0.176 0-0.336-0.043-0.523-0.043h-0.24c-0.187 0-0.347 0.037-0.523 0.043-0.176 0-0.331-0.043-0.517-0.043h-0.245z"></path>
<path fill="#000" d="M18.651 16.965c-0.001 0-0.002 0-0.003 0-0.087 0-0.173 0.006-0.257 0.017l0.010-0.001-0.027 0.048c0.128-0.016 0.251-0.037 0.384-0.037 0.171 0 0.331 0.043 0.517 0.043h0.245c0.187 0 0.341-0.043 0.517-0.043s0.336 0.043 0.523 0.043h0.245c0.187 0 0.341-0.043 0.517-0.043s0.336 0.043 0.523 0.043h0.24c0.187 0 0.347-0.043 0.523-0.043s0.336 0.043 0.523 0.043h0.24c0.187 0 0.347-0.043 0.523-0.043 0.139 0 0.267 0.027 0.4 0.037l-0.027-0.053c-0.063-0.007-0.136-0.011-0.209-0.011-0.009 0-0.018 0-0.027 0h-0.239c-0.187 0-0.347 0.037-0.523 0.043-0.176 0-0.336-0.043-0.523-0.043h-0.24c-0.187 0-0.347 0.037-0.523 0.043-0.176 0-0.336-0.043-0.523-0.043h-0.235c-0.187 0-0.347 0.037-0.523 0.043-0.176 0-0.336-0.043-0.523-0.043h-0.24c-0.187 0-0.347 0.037-0.523 0.043-0.176 0-0.331-0.043-0.517-0.043h-0.245z"></path>
<path fill="#000" d="M18.651 16.848c-0.001 0-0.002 0-0.003 0-0.087 0-0.173 0.006-0.257 0.017l0.010-0.001-0.027 0.048c0.128-0.016 0.251-0.037 0.384-0.037 0.171 0 0.331 0.043 0.517 0.043h0.245c0.187 0 0.341-0.043 0.517-0.043s0.336 0.043 0.523 0.043h0.245c0.187 0 0.341-0.043 0.517-0.043s0.336 0.043 0.523 0.043h0.24c0.187 0 0.347-0.043 0.523-0.043s0.336 0.043 0.523 0.043h0.24c0.187 0 0.347-0.043 0.523-0.043 0.139 0 0.267 0.027 0.4 0.037l-0.027-0.053c-0.063-0.007-0.136-0.011-0.209-0.011-0.009 0-0.018 0-0.027 0h-0.239c-0.187 0-0.347 0.037-0.523 0.043-0.176 0-0.336-0.043-0.523-0.043h-0.24c-0.187 0-0.347 0.037-0.523 0.043-0.176 0-0.336-0.043-0.523-0.043h-0.235c-0.187 0-0.347 0.037-0.523 0.043-0.176 0-0.336-0.043-0.523-0.043h-0.24c-0.187 0-0.347 0.037-0.523 0.043-0.176 0-0.331-0.043-0.517-0.043h-0.245z"></path>
<path fill="#000" d="M18.651 16.731c-0.001 0-0.002 0-0.003 0-0.087 0-0.173 0.006-0.257 0.017l0.010-0.001-0.027 0.048c0.128-0.016 0.251-0.037 0.384-0.037 0.171 0 0.331 0.043 0.517 0.043h0.245c0.187 0 0.341-0.043 0.517-0.043s0.336 0.043 0.523 0.043h0.245c0.187 0 0.341-0.043 0.517-0.043s0.336 0.043 0.523 0.043h0.24c0.187 0 0.347-0.043 0.523-0.043s0.336 0.043 0.523 0.043h0.24c0.187 0 0.347-0.043 0.523-0.043 0.139 0 0.267 0.027 0.4 0.037l-0.027-0.053c-0.063-0.007-0.136-0.011-0.209-0.011-0.009 0-0.018 0-0.027 0h-0.239c-0.187 0-0.347 0.037-0.523 0.043-0.176 0-0.336-0.043-0.523-0.043h-0.24c-0.187 0-0.347 0.037-0.523 0.043-0.176 0-0.336-0.043-0.523-0.043h-0.235c-0.187 0-0.347 0.037-0.523 0.043-0.176 0-0.336-0.043-0.523-0.043h-0.24c-0.187 0-0.347 0.037-0.523 0.043-0.176 0-0.331-0.043-0.517-0.043h-0.245z"></path>
<path fill="#000" d="M18.651 16.784c-0.001 0-0.002 0-0.003 0-0.087 0-0.173 0.006-0.257 0.017l0.010-0.001-0.027 0.048c0.128-0.016 0.251-0.037 0.384-0.037 0.171 0 0.331 0.043 0.517 0.043h0.245c0.187 0 0.341-0.043 0.517-0.043s0.336 0.043 0.523 0.043h0.245c0.187 0 0.341-0.043 0.517-0.043s0.336 0.043 0.523 0.043h0.24c0.187 0 0.347-0.043 0.523-0.043s0.336 0.043 0.523 0.043h0.24c0.187 0 0.347-0.043 0.523-0.043 0.139 0 0.267 0.027 0.4 0.037l-0.027-0.053c-0.063-0.007-0.136-0.011-0.209-0.011-0.009 0-0.018 0-0.027 0h-0.239c-0.187 0-0.347 0.037-0.523 0.043-0.176 0-0.336-0.043-0.523-0.043h-0.24c-0.187 0-0.347 0.037-0.523 0.043-0.176 0-0.336-0.043-0.523-0.043h-0.235c-0.187 0-0.347 0.037-0.523 0.043-0.176 0-0.336-0.043-0.523-0.043h-0.24c-0.187 0-0.347 0.037-0.523 0.043-0.176 0-0.331-0.043-0.517-0.043h-0.245z"></path>
<path fill="#000" d="M18.651 16.667c-0.001 0-0.002 0-0.003 0-0.087 0-0.173 0.006-0.257 0.017l0.010-0.001-0.027 0.048c0.128-0.016 0.251-0.037 0.384-0.037 0.171 0 0.331 0.043 0.517 0.043h0.245c0.187 0 0.341-0.043 0.517-0.043s0.336 0.043 0.523 0.043h0.245c0.187 0 0.341-0.043 0.517-0.043s0.336 0.043 0.523 0.043h0.24c0.187 0 0.347-0.043 0.523-0.043s0.336 0.043 0.523 0.043h0.24c0.187 0 0.347-0.043 0.523-0.043 0.139 0 0.267 0.027 0.4 0.037l-0.027-0.053c-0.063-0.007-0.136-0.011-0.209-0.011-0.009 0-0.018 0-0.027 0h-0.239c-0.187 0-0.347 0.037-0.523 0.043-0.176 0-0.336-0.043-0.523-0.043h-0.24c-0.187 0-0.347 0.037-0.523 0.043-0.176 0-0.336-0.043-0.523-0.043h-0.235c-0.187 0-0.347 0.037-0.523 0.043-0.176 0-0.336-0.043-0.523-0.043h-0.24c-0.187 0-0.347 0.037-0.523 0.043-0.176 0-0.331-0.043-0.517-0.043h-0.245z"></path>
<path fill="#000" d="M18.651 16.549c-0.001 0-0.002 0-0.003 0-0.087 0-0.173 0.006-0.257 0.017l0.010-0.001-0.027 0.048c0.128-0.016 0.251-0.037 0.384-0.037 0.171 0 0.331 0.043 0.517 0.043h0.245c0.187 0 0.341-0.043 0.517-0.043s0.336 0.043 0.523 0.043h0.245c0.187 0 0.341-0.043 0.517-0.043s0.336 0.043 0.523 0.043h0.24c0.187 0 0.347-0.043 0.523-0.043s0.336 0.043 0.523 0.043h0.24c0.187 0 0.347-0.043 0.523-0.043 0.139 0 0.267 0.027 0.4 0.037l-0.027-0.053c-0.063-0.007-0.136-0.011-0.209-0.011-0.009 0-0.018 0-0.027 0h-0.239c-0.187 0-0.347 0.037-0.523 0.043-0.176 0-0.336-0.043-0.523-0.043h-0.24c-0.187 0-0.347 0.037-0.523 0.043-0.176 0-0.336-0.043-0.523-0.043h-0.235c-0.187 0-0.347 0.037-0.523 0.043-0.176 0-0.336-0.043-0.523-0.043h-0.24c-0.187 0-0.347 0.037-0.523 0.043-0.176 0-0.331-0.043-0.517-0.043h-0.245z"></path>
<path fill="#000" d="M18.837 16.4v0.011h4.997l-0.005-0.011h-4.992zM18.827 16.416l-0.005 0.016h5.019l-0.005-0.016h-5.013zM18.816 16.437l-0.011 0.016h5.056l-0.011-0.016h-5.035zM18.8 16.464l-0.016 0.027h5.099l-0.016-0.027h-5.067zM18.779 16.501l-0.016 0.027h5.141l-0.016-0.027h-5.109zM18.757 16.539l-0.011 0.021h5.173l-0.011-0.021h-5.152zM18.736 16.576l-0.011 0.021h5.221l-0.016-0.021h-5.195zM18.715 16.613l-0.016 0.032h5.269l-0.016-0.032h-5.232z"></path>
<path fill="#000" d="M19.061 16.656c0.181 0.037 0.197 0 0.197 0zM23.408 16.656s0.016 0.037 0.197 0z"></path>
<path fill="#000" d="M22.965 15.84c-0.091 0-0.117 0.048-0.117 0.048-0.144 0.565-0.629 1.136-1.205 1.136h-0.427v0.576h3.275l-0.331-0.587c-0.517-0.075-0.939-0.603-1.072-1.125 0 0-0.032-0.048-0.123-0.048z"></path>
<path fill="#97c924" d="M22.965 15.867c-0.043 0-0.064 0.005-0.080 0.016l-0.016 0.016c-0.085 0.307-0.24 0.572-0.448 0.784l0-0c-0.213 0.219-0.48 0.368-0.779 0.368h-0.411v0.528h3.248l-0.304-0.533c-0.251-0.037-0.48-0.171-0.661-0.363-0.208-0.212-0.363-0.477-0.445-0.771l-0.003-0.013-0.016-0.016c-0.020-0.011-0.044-0.017-0.069-0.017-0.006 0-0.011 0-0.017 0.001l0.001-0z"></path>
<path fill="#ede71f" d="M22.965 15.867h0.021v0.576c-0.006 0.127-0.044 0.244-0.108 0.344l0.002-0.003c-0.027 0.085-0.053 0.053-0.123 0.155-0.080 0.029-0.174 0.051-0.271 0.063l-0.007 0.001c-0.133 0.021-0.427 0.043-0.581 0.005 0.206-0.064 0.382-0.175 0.522-0.32l0-0c0.038-0.041 0.075-0.084 0.109-0.129l0.003-0.004c0.056-0.069 0.109-0.145 0.155-0.226l0.005-0.009 0.053-0.107c0.021-0.039 0.044-0.090 0.065-0.142l0.004-0.012c0.017-0.041 0.035-0.094 0.051-0.149l0.003-0.011 0.016-0.016 0.032-0.011 0.053-0.005z"></path>
<path fill="#c6cb24" d="M22.933 15.941c-0.027 0.32-0.123 0.704-0.357 0.949-0.085 0.069-0.197 0.139-0.299 0.123 0.357-0.293 0.576-0.747 0.651-1.072z"></path>
<path fill="#9ecb34" d="M22.64 16.496c-0.053 0.144-0.256 0.357-0.469 0.533h-0.155c0.133-0.011 0.443-0.267 0.624-0.533z"></path>
<path fill="#000" d="M22.149 15.84c-0.091 0-0.117 0.048-0.117 0.048-0.144 0.565-0.629 1.136-1.205 1.136h-0.427v0.576h3.275l-0.331-0.587c-0.517-0.075-0.939-0.603-1.072-1.125 0 0-0.032-0.048-0.123-0.048z"></path>
<path fill="#97c924" d="M22.149 15.867c-0.043 0-0.064 0.005-0.080 0.016l-0.016 0.016c-0.085 0.307-0.24 0.572-0.448 0.784l0-0c-0.213 0.219-0.48 0.368-0.779 0.368h-0.411v0.528h3.248l-0.304-0.533c-0.251-0.037-0.48-0.171-0.661-0.363-0.208-0.212-0.363-0.477-0.445-0.771l-0.003-0.013-0.016-0.016c-0.020-0.011-0.044-0.017-0.069-0.017-0.006 0-0.011 0-0.017 0.001l0.001-0z"></path>
<path fill="#ede71f" d="M22.149 15.867h0.021v0.576c-0.006 0.127-0.044 0.244-0.108 0.344l0.002-0.003c-0.027 0.085-0.053 0.053-0.123 0.155-0.080 0.029-0.174 0.051-0.271 0.063l-0.007 0.001c-0.133 0.021-0.427 0.043-0.581 0.005 0.206-0.064 0.382-0.175 0.522-0.32l0-0c0.038-0.041 0.075-0.084 0.109-0.129l0.003-0.004c0.056-0.069 0.109-0.145 0.155-0.226l0.005-0.009 0.053-0.107c0.021-0.039 0.044-0.090 0.065-0.142l0.004-0.012c0.017-0.041 0.035-0.094 0.051-0.149l0.003-0.011 0.016-0.016 0.032-0.011 0.053-0.005z"></path>
<path fill="#c6cb24" d="M22.117 15.941c-0.027 0.32-0.123 0.704-0.357 0.949-0.085 0.069-0.197 0.139-0.299 0.123 0.357-0.293 0.576-0.747 0.651-1.072z"></path>
<path fill="#9ecb34" d="M21.824 16.496c-0.053 0.144-0.256 0.357-0.469 0.533h-0.155c0.133-0.011 0.443-0.267 0.624-0.533z"></path>
<path fill="#000" d="M21.451 15.893c0.149 0.56 0.629 1.131 1.205 1.131h0.432v0.576h-3.509v-0.576h0.427c0.576 0 1.061-0.571 1.205-1.136 0 0 0.032-0.043 0.123-0.043s0.117 0.043 0.117 0.043z"></path>
<path fill="#97c924" d="M21.333 15.867c0.043 0 0.064 0.011 0.080 0.016l0.016 0.016c0.085 0.307 0.24 0.572 0.448 0.784l-0-0c0.213 0.219 0.48 0.368 0.779 0.368h0.411v0.528h-3.467v-0.533h0.411c0.293 0 0.565-0.144 0.779-0.363 0.206-0.213 0.359-0.477 0.44-0.771l0.003-0.013 0.016-0.016c0.021-0.011 0.045-0.017 0.071-0.017 0.005 0 0.010 0 0.015 0.001l-0.001-0z"></path>
<path fill="#ede71f" d="M21.296 15.867c-0.002-0-0.005-0-0.008-0s-0.006 0-0.008 0h0l-0.032 0.016-0.016 0.016c-0.018 0.065-0.036 0.119-0.057 0.17l0.004-0.010c-0.023 0.067-0.045 0.12-0.069 0.171l0.005-0.011c-0.022 0.044-0.039 0.078-0.058 0.11l0.005-0.009c-0.051 0.089-0.104 0.166-0.163 0.238l0.003-0.003c-0.037 0.047-0.074 0.089-0.112 0.128l0-0c-0.14 0.147-0.316 0.26-0.514 0.323l-0.009 0.002c0.149 0.037 0.213 0 0.347-0.021 0.107-0.016 0.224-0.032 0.32-0.064 0.080-0.107 0.053-0.069 0.080-0.155 0.064-0.117 0.16-0.224 0.181-0.357 0.085-0.16 0.101-0.459 0.101-0.544z"></path>
<path fill="#c6cb24" d="M21.296 15.941c-0.021 0.32-0.123 0.704-0.357 0.949-0.085 0.069-0.192 0.139-0.299 0.123 0.363-0.293 0.581-0.747 0.656-1.072z"></path>
<path fill="#9ecb34" d="M21.003 16.496c-0.119 0.213-0.277 0.391-0.465 0.53l-0.005 0.003h-0.149c0.133-0.011 0.437-0.267 0.619-0.533z"></path>
<path fill="#ede71f" d="M21.387 15.872l0.027 0.011 0.021 0.016c0.019 0.066 0.037 0.12 0.057 0.172l-0.004-0.012c0.023 0.067 0.045 0.119 0.069 0.171l-0.005-0.011 0.053 0.101c0.051 0.089 0.104 0.166 0.163 0.238l-0.003-0.003c0.037 0.047 0.074 0.089 0.112 0.128l-0-0c0.14 0.154 0.316 0.273 0.514 0.344l0.009 0.003c-0.389 0-0.555-0.032-0.693-0.213-0.098-0.103-0.174-0.228-0.222-0.366l-0.002-0.007c-0.027-0.107-0.107-0.347-0.101-0.571z"></path>
<path fill="#c6cb24" d="M21.413 15.941c0.021 0.32 0.117 0.64 0.352 0.885 0.085 0.075 0.192 0.139 0.299 0.123-0.328-0.24-0.563-0.591-0.649-0.997l-0.002-0.011z"></path>
<path fill="#000" d="M20.523 15.84c-0.096 0-0.123 0.048-0.123 0.048-0.133 0.523-0.629 1.189-1.147 1.269l-0.256 0.443h2.613v-0.603c-0.469-0.128-0.848-0.624-0.971-1.109 0 0-0.027-0.043-0.123-0.043z"></path>
<path fill="#97c924" d="M20.523 15.867c-0.043 0-0.069 0.011-0.085 0.016l-0.016 0.016c-0.096 0.308-0.244 0.575-0.435 0.804l0.003-0.004c-0.181 0.229-0.517 0.459-0.747 0.48l-0.229 0.4h2.56v-0.571c-0.2-0.067-0.37-0.177-0.506-0.32l-0-0c-0.208-0.214-0.364-0.48-0.445-0.777l-0.003-0.013-0.016-0.016c-0.020-0.010-0.044-0.016-0.069-0.016-0.004 0-0.008 0-0.011 0l0-0z"></path>
<path fill="#93bc30" d="M20.448 15.941c-0.032 0.48-0.299 1.093-0.603 1.195-0.101 0.037-0.272 0.048-0.331 0.053 0.469-0.264 0.811-0.708 0.936-1.235l0.003-0.013z"></path>
<path fill="#ede71f" d="M20.523 15.867h-0.027v0.576c0 0.123 0.048 0.224 0.107 0.341l0.011 0.027c0.027 0.059 0.043 0.080 0.123 0.144 0.189 0.136 0.426 0.218 0.682 0.218 0.038 0 0.075-0.002 0.112-0.005l-0.005 0c-0.059-0.048-0.123-0.091-0.181-0.128l0.24-0.027c-0.205-0.068-0.379-0.182-0.517-0.33l-0.001-0.001c-0.025-0.025-0.050-0.051-0.073-0.078l-0.002-0.002-0.032-0.043c-0.060-0.071-0.116-0.149-0.166-0.232l-0.005-0.008c-0.014-0.025-0.032-0.060-0.049-0.096l-0.005-0.011c-0.028-0.056-0.057-0.125-0.081-0.195l-0.004-0.013c-0.009-0.023-0.019-0.059-0.029-0.095l-0.003-0.012-0.016-0.016c-0.009-0.005-0.020-0.008-0.031-0.011l-0.001-0c-0.014-0.004-0.029-0.005-0.046-0.005-0.003 0-0.005 0-0.008 0h0z"></path>
<path fill="#ccd11e" d="M20.555 15.941c0.027 0.32 0.123 0.704 0.357 0.949 0.085 0.069 0.192 0.139 0.299 0.123-0.318-0.274-0.549-0.641-0.653-1.058l-0.003-0.014z"></path>
<path fill="#9ecb34" d="M20.779 16.389c0.176 0.34 0.443 0.612 0.769 0.79l0.010 0.005h0.133c-0.235-0.128-0.613-0.309-0.907-0.8z"></path>
<path fill="#000" d="M19.701 15.84c-0.096 0-0.123 0.048-0.123 0.048-0.133 0.523-0.629 1.189-1.147 1.269l-0.256 0.443h2.613v-0.603c-0.469-0.128-0.848-0.624-0.971-1.109 0 0-0.027-0.043-0.123-0.043z"></path>
<path fill="#97c924" d="M19.701 15.867c-0.043 0-0.069 0.011-0.085 0.016l-0.016 0.016c-0.096 0.308-0.244 0.575-0.435 0.804l0.003-0.004c-0.181 0.229-0.517 0.459-0.747 0.48l-0.229 0.4h2.56v-0.571c-0.2-0.067-0.37-0.177-0.506-0.32l-0-0c-0.208-0.214-0.364-0.48-0.445-0.777l-0.003-0.013-0.016-0.016c-0.020-0.010-0.044-0.016-0.069-0.016-0.004 0-0.008 0-0.011 0l0-0z"></path>
<path fill="#93bc30" d="M19.627 15.941c-0.032 0.48-0.299 1.093-0.603 1.195-0.101 0.037-0.272 0.048-0.331 0.053 0.469-0.264 0.811-0.708 0.936-1.235l0.003-0.013z"></path>
<path fill="#ede71f" d="M19.701 15.867h-0.027v0.576c0 0.123 0.048 0.224 0.107 0.341l0.011 0.027c0.027 0.059 0.043 0.080 0.123 0.144 0.189 0.136 0.426 0.218 0.682 0.218 0.038 0 0.075-0.002 0.112-0.005l-0.005 0c-0.059-0.048-0.123-0.091-0.181-0.128l0.24-0.027c-0.205-0.068-0.379-0.182-0.517-0.33l-0.001-0.001c-0.025-0.025-0.050-0.051-0.073-0.078l-0.002-0.002-0.032-0.043c-0.060-0.071-0.116-0.149-0.166-0.232l-0.005-0.008c-0.014-0.025-0.032-0.060-0.049-0.096l-0.005-0.011c-0.028-0.056-0.057-0.125-0.081-0.195l-0.004-0.013c-0.009-0.023-0.019-0.059-0.029-0.095l-0.003-0.012-0.016-0.016c-0.009-0.005-0.020-0.008-0.031-0.011l-0.001-0c-0.014-0.004-0.029-0.005-0.046-0.005-0.003 0-0.005 0-0.008 0h0z"></path>
<path fill="#ccd11e" d="M19.733 15.941c0.027 0.32 0.123 0.704 0.357 0.949 0.085 0.069 0.192 0.139 0.299 0.123-0.318-0.274-0.549-0.641-0.653-1.058l-0.003-0.014z"></path>
<path fill="#9ecb34" d="M19.957 16.389c0.176 0.34 0.443 0.612 0.769 0.79l0.010 0.005h0.133c-0.235-0.128-0.613-0.309-0.907-0.8z"></path>
<path fill="#fff" d="M24.347 17.317c-0.032 0.011-0.235-0.011-0.341 0l-0.069 0.016h-0.176c-0.192 0-0.357 0.053-0.539 0.053s-0.347-0.053-0.533-0.053h-0.181c-0.192 0-0.357 0.053-0.539 0.053s-0.347-0.053-0.533-0.053h-0.181c-0.192 0-0.357 0.053-0.533 0.053-0.187 0-0.347-0.053-0.539-0.053h-0.181c-0.192 0-0.352 0.053-0.533 0.053-0.187 0-0.347-0.053-0.539-0.053h-0.181c-0.149 0-0.331 0.032-0.475 0.043l-0.336 0.581h6.795z"></path>
<path fill="#000" d="M23.893 17.232h-0.032c-0.171 0.005-0.299 0.059-0.597 0.059s-0.331-0.053-0.672-0.043c-0.32 0-0.448 0.064-0.624 0.064-0.171 0-0.448-0.037-0.667-0.016-0.213 0.021-0.469 0.069-0.64 0.069-0.208 0-0.416-0.037-0.629-0.016-0.219 0.021-0.32 0.080-0.592 0.080-0.235 0-0.48-0.037-0.683-0.037-0.181 0-0.384 0.053-0.533 0.075l-0.048 0.080c0.123-0.016 0.459-0.069 0.576-0.069 0.128 0 0.571 0.027 0.816 0.016 0.251-0.005 0.277-0.064 0.571-0.064 0.203 0 0.352 0.021 0.56 0.021 0.133 0 0.251-0.064 0.448-0.064l0.149-0.005c0.165-0.027 0.448 0 0.64 0.011 0.176 0.011 0.293-0.032 0.48-0.037l0.235-0.005c0.187-0.011 0.341 0.032 0.517 0.032 0.171-0.011 0.341-0.053 0.523-0.053l0.24-0.011c0.123 0 0.315 0 0.443 0.027l-0.043-0.075c-0.128-0.005-0.283-0.037-0.437-0.037z"></path>
<path fill="#000" d="M18.683 17.856c-0.181 0-0.341 0.043-0.512 0.048-0.070-0.002-0.136-0.008-0.201-0.017l0.009 0.001-0.027 0.043h0.32c0.187 0 0.341-0.043 0.512-0.048 0.176 0.005 0.331 0.053 0.517 0.053h0.24c0.181 0 0.341-0.048 0.512-0.053 0.176 0.005 0.336 0.053 0.517 0.053h0.24c0.187 0 0.341-0.048 0.517-0.053 0.171 0.005 0.325 0.053 0.512 0.053h0.24c0.181 0 0.341-0.048 0.517-0.053 0.171 0.005 0.331 0.053 0.512 0.053h0.24c0.187 0 0.341-0.048 0.512-0.053 0.176 0.005 0.331 0.053 0.517 0.053h0.24l0.096-0.005-0.027-0.043c-0.053 0.005-0.112 0.016-0.171 0.016-0.176 0-0.331-0.053-0.517-0.053h-0.24c-0.181 0-0.341 0.053-0.512 0.053-0.176-0.005-0.331-0.053-0.517-0.053h-0.24c-0.181 0-0.341 0.053-0.512 0.053-0.176-0.005-0.331-0.053-0.517-0.053h-0.24c-0.187 0-0.341 0.053-0.512 0.053-0.176-0.005-0.331-0.053-0.517-0.053h-0.24c-0.181 0-0.341 0.053-0.512 0.053-0.176-0.005-0.331-0.053-0.517-0.053h-0.24z"></path>
<path fill="#000" d="M18.683 17.787c-0.181 0-0.341 0.043-0.512 0.048-0.070-0.002-0.136-0.008-0.201-0.017l0.009 0.001-0.027 0.043h0.32c0.187 0 0.341-0.043 0.512-0.048 0.176 0.005 0.331 0.053 0.517 0.053h0.24c0.181 0 0.341-0.048 0.512-0.053 0.176 0.005 0.336 0.053 0.517 0.053h0.24c0.187 0 0.341-0.048 0.517-0.053 0.171 0.005 0.325 0.053 0.512 0.053h0.24c0.181 0 0.341-0.048 0.517-0.053 0.171 0.005 0.331 0.053 0.512 0.053h0.24c0.187 0 0.341-0.048 0.512-0.053 0.176 0.005 0.331 0.053 0.517 0.053h0.24l0.096-0.005-0.027-0.043c-0.053 0.005-0.112 0.016-0.171 0.016-0.176 0-0.331-0.053-0.517-0.053h-0.24c-0.181 0-0.341 0.053-0.512 0.053-0.176-0.005-0.331-0.053-0.517-0.053h-0.24c-0.181 0-0.341 0.053-0.512 0.053-0.176-0.005-0.331-0.053-0.517-0.053h-0.24c-0.187 0-0.341 0.053-0.512 0.053-0.176-0.005-0.331-0.053-0.517-0.053h-0.24c-0.181 0-0.341 0.053-0.512 0.053-0.176-0.005-0.331-0.053-0.517-0.053h-0.24z"></path>
<path fill="#000" d="M18.683 17.717c-0.181 0-0.341 0.043-0.512 0.048-0.070-0.002-0.136-0.008-0.201-0.017l0.009 0.001-0.027 0.043h0.32c0.187 0 0.341-0.043 0.512-0.048 0.176 0.005 0.331 0.053 0.517 0.053h0.24c0.181 0 0.341-0.048 0.512-0.053 0.176 0.005 0.336 0.053 0.517 0.053h0.24c0.187 0 0.341-0.048 0.517-0.053 0.171 0.005 0.325 0.053 0.512 0.053h0.24c0.181 0 0.341-0.048 0.517-0.053 0.171 0.005 0.331 0.053 0.512 0.053h0.24c0.187 0 0.341-0.048 0.512-0.053 0.176 0.005 0.331 0.053 0.517 0.053h0.24l0.096-0.005-0.027-0.043c-0.053 0.005-0.112 0.016-0.171 0.016-0.176 0-0.331-0.053-0.517-0.053h-0.24c-0.181 0-0.341 0.053-0.512 0.053-0.176-0.005-0.331-0.053-0.517-0.053h-0.24c-0.181 0-0.341 0.053-0.512 0.053-0.176-0.005-0.331-0.053-0.517-0.053h-0.24c-0.187 0-0.341 0.053-0.512 0.053-0.176-0.005-0.331-0.053-0.517-0.053h-0.24c-0.181 0-0.341 0.053-0.512 0.053-0.176-0.005-0.331-0.053-0.517-0.053h-0.24z"></path>
<path fill="#000" d="M18.683 17.648c-0.181 0-0.341 0.043-0.512 0.048-0.070-0.002-0.136-0.008-0.201-0.017l0.009 0.001-0.027 0.043h0.32c0.187 0 0.341-0.043 0.512-0.048 0.176 0.005 0.331 0.053 0.517 0.053h0.24c0.181 0 0.341-0.048 0.512-0.053 0.176 0.005 0.336 0.053 0.517 0.053h0.24c0.187 0 0.341-0.048 0.517-0.053 0.171 0.005 0.325 0.053 0.512 0.053h0.24c0.181 0 0.341-0.048 0.517-0.053 0.171 0.005 0.331 0.053 0.512 0.053h0.24c0.187 0 0.341-0.048 0.512-0.053 0.176 0.005 0.331 0.053 0.517 0.053h0.24l0.096-0.005-0.027-0.043c-0.053 0.005-0.112 0.016-0.171 0.016-0.176 0-0.331-0.053-0.517-0.053h-0.24c-0.181 0-0.341 0.053-0.512 0.053-0.176-0.005-0.331-0.053-0.517-0.053h-0.24c-0.181 0-0.341 0.053-0.512 0.053-0.176-0.005-0.331-0.053-0.517-0.053h-0.24c-0.187 0-0.341 0.053-0.512 0.053-0.176-0.005-0.331-0.053-0.517-0.053h-0.24c-0.181 0-0.341 0.053-0.512 0.053-0.176-0.005-0.331-0.053-0.517-0.053h-0.24z"></path>
<path fill="#000" d="M18.683 17.509c-0.181 0-0.341 0.043-0.512 0.048-0.070-0.002-0.136-0.008-0.201-0.017l0.009 0.001-0.027 0.043h0.32c0.187 0 0.341-0.043 0.512-0.048 0.176 0.005 0.331 0.053 0.517 0.053h0.24c0.181 0 0.341-0.048 0.512-0.053 0.176 0.005 0.336 0.053 0.517 0.053h0.24c0.187 0 0.341-0.048 0.517-0.053 0.171 0.005 0.325 0.053 0.512 0.053h0.24c0.181 0 0.341-0.048 0.517-0.053 0.171 0.005 0.331 0.053 0.512 0.053h0.24c0.187 0 0.341-0.048 0.512-0.053 0.176 0.005 0.331 0.053 0.517 0.053h0.24l0.096-0.005-0.027-0.043c-0.053 0.005-0.112 0.016-0.171 0.016-0.176 0-0.331-0.053-0.517-0.053h-0.24c-0.181 0-0.341 0.053-0.512 0.053-0.176-0.005-0.331-0.053-0.517-0.053h-0.24c-0.181 0-0.341 0.053-0.512 0.053-0.176-0.005-0.331-0.053-0.517-0.053h-0.24c-0.187 0-0.341 0.053-0.512 0.053-0.176-0.005-0.331-0.053-0.517-0.053h-0.24c-0.181 0-0.341 0.053-0.512 0.053-0.176-0.005-0.331-0.053-0.517-0.053h-0.24z"></path>
<path fill="#000" d="M18.683 17.371c-0.181 0-0.341 0.043-0.512 0.048-0.070-0.002-0.136-0.008-0.201-0.017l0.009 0.001-0.027 0.043h0.32c0.187 0 0.341-0.043 0.512-0.048 0.176 0.005 0.331 0.053 0.517 0.053h0.24c0.181 0 0.341-0.048 0.512-0.053 0.176 0.005 0.336 0.053 0.517 0.053h0.24c0.187 0 0.341-0.048 0.517-0.053 0.171 0.005 0.325 0.053 0.512 0.053h0.24c0.181 0 0.341-0.048 0.517-0.053 0.171 0.005 0.331 0.053 0.512 0.053h0.24c0.187 0 0.341-0.048 0.512-0.053 0.176 0.005 0.331 0.053 0.517 0.053h0.24l0.096-0.005-0.027-0.043c-0.053 0.005-0.112 0.016-0.171 0.016-0.176 0-0.331-0.053-0.517-0.053h-0.24c-0.181 0-0.341 0.053-0.512 0.053-0.176-0.005-0.331-0.053-0.517-0.053h-0.24c-0.181 0-0.341 0.053-0.512 0.053-0.176-0.005-0.331-0.053-0.517-0.053h-0.24c-0.187 0-0.341 0.053-0.512 0.053-0.176-0.005-0.331-0.053-0.517-0.053h-0.24c-0.181 0-0.341 0.053-0.512 0.053-0.176-0.005-0.331-0.053-0.517-0.053h-0.24z"></path>
<path fill="#000" d="M18.683 17.445c-0.181 0-0.341 0.043-0.512 0.048-0.070-0.002-0.136-0.008-0.201-0.017l0.009 0.001-0.027 0.043h0.32c0.187 0 0.341-0.043 0.512-0.048 0.176 0.005 0.331 0.053 0.517 0.053h0.24c0.181 0 0.341-0.048 0.512-0.053 0.176 0.005 0.336 0.053 0.517 0.053h0.24c0.187 0 0.341-0.048 0.517-0.053 0.171 0.005 0.325 0.053 0.512 0.053h0.24c0.181 0 0.341-0.048 0.517-0.053 0.171 0.005 0.331 0.053 0.512 0.053h0.24c0.187 0 0.341-0.048 0.512-0.053 0.176 0.005 0.331 0.053 0.517 0.053h0.24l0.096-0.005-0.027-0.043c-0.053 0.005-0.112 0.016-0.171 0.016-0.176 0-0.331-0.053-0.517-0.053h-0.24c-0.181 0-0.341 0.053-0.512 0.053-0.176-0.005-0.331-0.053-0.517-0.053h-0.24c-0.181 0-0.341 0.053-0.512 0.053-0.176-0.005-0.331-0.053-0.517-0.053h-0.24c-0.187 0-0.341 0.053-0.512 0.053-0.176-0.005-0.331-0.053-0.517-0.053h-0.24c-0.181 0-0.341 0.053-0.512 0.053-0.176-0.005-0.331-0.053-0.517-0.053h-0.24z"></path>
<path fill="#000" d="M18.683 17.307c-0.181 0-0.341 0.043-0.512 0.048-0.070-0.002-0.136-0.008-0.201-0.017l0.009 0.001-0.027 0.043h0.32c0.187 0 0.341-0.043 0.512-0.048 0.176 0.005 0.331 0.053 0.517 0.053h0.24c0.181 0 0.341-0.048 0.512-0.053 0.176 0.005 0.336 0.053 0.517 0.053h0.24c0.187 0 0.341-0.048 0.517-0.053 0.171 0.005 0.325 0.053 0.512 0.053h0.24c0.181 0 0.341-0.048 0.517-0.053 0.171 0.005 0.331 0.053 0.512 0.053h0.24c0.187 0 0.341-0.048 0.512-0.053 0.176 0.005 0.331 0.053 0.517 0.053h0.24l0.096-0.005-0.027-0.043c-0.053 0.005-0.112 0.016-0.171 0.016-0.176 0-0.331-0.053-0.517-0.053h-0.24c-0.181 0-0.341 0.053-0.512 0.053-0.176-0.005-0.331-0.053-0.517-0.053h-0.24c-0.181 0-0.341 0.053-0.512 0.053-0.176-0.005-0.331-0.053-0.517-0.053h-0.24c-0.187 0-0.341 0.053-0.512 0.053-0.176-0.005-0.331-0.053-0.517-0.053h-0.24c-0.181 0-0.341 0.053-0.512 0.053-0.176-0.005-0.331-0.053-0.517-0.053h-0.24z"></path>
<path fill="#000" d="M18.683 17.168c-0.181 0-0.341 0.043-0.512 0.048-0.070-0.002-0.136-0.008-0.201-0.017l0.009 0.001-0.027 0.043h0.32c0.187 0 0.341-0.043 0.512-0.048 0.176 0.005 0.331 0.053 0.517 0.053h0.24c0.181 0 0.341-0.048 0.512-0.053 0.176 0.005 0.336 0.053 0.517 0.053h0.24c0.187 0 0.341-0.048 0.517-0.053 0.171 0.005 0.325 0.053 0.512 0.053h0.24c0.181 0 0.341-0.048 0.517-0.053 0.171 0.005 0.331 0.053 0.512 0.053h0.24c0.187 0 0.341-0.048 0.512-0.053 0.176 0.005 0.331 0.053 0.517 0.053h0.24l0.096-0.005-0.027-0.043c-0.053 0.005-0.112 0.016-0.171 0.016-0.176 0-0.331-0.053-0.517-0.053h-0.24c-0.181 0-0.341 0.053-0.512 0.053-0.176-0.005-0.331-0.053-0.517-0.053h-0.24c-0.181 0-0.341 0.053-0.512 0.053-0.176-0.005-0.331-0.053-0.517-0.053h-0.24c-0.187 0-0.341 0.053-0.512 0.053-0.176-0.005-0.331-0.053-0.517-0.053h-0.24c-0.181 0-0.341 0.053-0.512 0.053-0.176-0.005-0.331-0.053-0.517-0.053h-0.24z"></path>
<path fill="#97c924" d="M18.341 17.317l-0.133 0.224c0.155-0.027 0.379-0.091 0.571-0.091s0.427 0.048 0.661 0.053c0.267 0 0.373-0.064 0.587-0.085 0.219-0.021 0.427 0.027 0.64 0.032 0.165 0 0.421-0.059 0.64-0.080 0.213-0.027 0.411 0.016 0.667 0.016 0.261 0.005 0.304-0.064 0.619-0.069 0.341-0.005 0.373 0.048 0.672 0.048 0.224 0.011 0.421-0.048 0.624-0.059 0.203-0.016 0.293 0 0.443 0l-0.101-0.171-5.403 0.123z"></path>
<path fill="#fff" d="M24 17.312l0.213 0.016c0.029 0.004 0.082 0.010 0.136 0.015l0.019 0.001-0.021-0.027c-0.032 0.011-0.235-0.011-0.341 0z"></path>
<path fill="#c8a400" d="M21.333 11.993l-1.713 2.967-1.753 3.040h6.933l-1.713-2.973-1.753-3.027zM21.333 12.153l3.327 5.767h-6.653l1.68-2.92z"></path>
</svg>
