<!-- Generated by IcoMoon.io -->
<svg version="1.1" xmlns="http://www.w3.org/2000/svg" width="43" height="32" viewBox="0 0 43 32">
<title>np</title>
<path fill="#fff" d="M0 0h42.667v32h-42.667z"></path>
<path fill="#ce0000" stroke="#000063" stroke-linejoin="miter" stroke-linecap="butt" stroke-miterlimit="4" stroke-width="0.92" d="M0.406 31.594h23.675l-15.494-15.713 16.081 0.019-24.256-15.494v31.188z"></path>
<path fill="#fff" d="M11.294 23.238l-1.688 0.563 1.325 1.238-1.781-0.113 0.731 1.637-1.594-0.769 0.031 1.788-1.175-1.306-0.669 1.663-0.575-1.644-1.269 1.288 0.112-1.731-1.681 0.712 0.788-1.563-1.831 0.038 1.344-1.144-1.706-0.656 1.688-0.563-1.331-1.238 1.775 0.113-0.725-1.637 1.6 0.769-0.031-1.788 1.175 1.306 0.669-1.663 0.569 1.644 1.275-1.288-0.119 1.731 1.688-0.712-0.794 1.563 1.838-0.038-1.344 1.144zM9.269 11.694l-0.706 0.525 0.35 0.287c0.817-0.575 1.468-1.333 1.903-2.216l0.015-0.034c0.113 1.331-1.106 4.313-4.294 4.344-0.017 0-0.037 0-0.056 0-2.43 0-4.402-1.965-4.412-4.393v-0.001c0.625 1.137 1.013 1.688 2 2.281l0.294-0.275-0.663-0.556 0.856-0.225-0.463-0.775 0.9 0.063-0.112-0.9 0.787 0.463 0.25-0.844 0.563 0.675 0.531-0.644 0.287 0.875 0.737-0.512-0.094 0.894 0.887-0.106-0.419 0.825 0.856 0.25z"></path>
</svg>
