<!-- Generated by IcoMoon.io -->
<svg version="1.1" xmlns="http://www.w3.org/2000/svg" width="43" height="32" viewBox="0 0 43 32">
<title>nr</title>
<path fill="#002170" d="M-5.33 0h64v32h-64z"></path>
<path fill="#ffb20d" d="M-5.33 14.631h64v2.744h-64z"></path>
<path fill="#fff" d="M13.533 27.375l-2.063-2.063-0.656 2.837-0.75-2.813-1.994 2.125 0.756-2.813-2.781 0.844 2.063-2.063-2.838-0.663 2.813-0.75-2.125-1.988 2.813 0.75-0.85-2.781 2.063 2.063 0.662-2.837 0.75 2.813 1.988-2.125-0.75 2.813 2.781-0.844-2.063 2.063 2.837 0.656-2.813 0.75 2.125 2-2.813-0.762z"></path>
</svg>
