<!-- Generated by IcoMoon.io -->
<svg version="1.1" xmlns="http://www.w3.org/2000/svg" width="43" height="32" viewBox="0 0 43 32">
<title>nu</title>
<path fill="#fff" d="M0 0h42.972v21.34h-42.972z"></path>
<path fill="#c8102e" d="M0 0v1.6l10.253 5.281 3.862 0.112-14.115-6.993z"></path>
<path fill="#012169" d="M4.387 0l12.438 6.494v-6.494h-12.438z"></path>
<path fill="#c8102e" d="M18.484 0v8.292h-18.484v4.731h18.493v8.292h5.677v-8.292h18.493v-4.731h-18.493v-8.292h-5.677z"></path>
<path fill="#012169" d="M25.821 0v6.116l12.162-6.064-12.162-0.052z"></path>
<path fill="#c8102e" d="M26.208 6.786l3.423-0.026 13.28-6.709-3.527 0.052-13.169 6.692z"></path>
<path fill="#012169" d="M0 14.407v4.542l8.533-4.498-8.533-0.034z"></path>
<path fill="#c8102e" d="M32.849 14.596l-3.561-0.026 13.401 6.666-0.086-1.522-9.762-5.118zM3.329 21.357l12.567-6.606-3.294 0.026-12.601 6.563z"></path>
<path fill="#012169" d="M42.826 1.875l-10.15 5.032 10.012 0.043v7.492h-8.524l8.447 4.585 0.12 2.322-4.507-0.052-12.352-6.064v6.124h-9.014v-6.133l-11.586 6.107-5.238 0.017v21.314h85.291v-42.628l-42.405-0.034zM0.052 2.408l-0.052 4.421 8.98 0.112-8.937-4.533z"></path>
<path fill="#fedd00" d="M42.663 0h42.671v42.663h-42.663z"></path>
<path fill="#fedd00" d="M0 21.331h45.028v21.331h-45.028z"></path>
<path fill="#012169" d="M25.021 10.777c0.003 0.053 0.004 0.115 0.004 0.178 0 2.033-1.648 3.681-3.681 3.681s-3.681-1.648-3.681-3.681c0-0.063 0.002-0.125 0.005-0.187l-0 0.009c0.098-1.955 1.706-3.503 3.677-3.503s3.58 1.548 3.677 3.495l0 0.009z"></path>
<path fill="#fedd00" d="M20.66 9.831l0.705-2.116 0.705 2.116h2.297l-1.858 1.307 0.714 2.107-1.858-1.316-1.858 1.307 0.714-2.107-1.858-1.307zM33.433 10.175l0.353-0.989 0.344 0.998h1.144l-0.92 0.602 0.353 0.989-0.92-0.602-0.92 0.602 0.353-0.989-0.92-0.602zM20.996 17.547l0.344-0.989 0.353 0.989h1.135l-0.92 0.602 0.353 0.998-0.92-0.611-0.92 0.602 0.353-0.981-0.92-0.611zM20.996 3.183l0.344-0.998 0.353 0.989h1.135l-0.92 0.611 0.353 0.989-0.92-0.602-0.92 0.602 0.353-0.989-0.92-0.602zM8.507 10.167l0.353-0.989 0.344 0.989h1.144l-0.92 0.611 0.353 0.989-0.92-0.602-0.92 0.602 0.353-0.989-0.92-0.602z"></path>
</svg>
