<!-- Generated by IcoMoon.io -->
<svg version="1.1" xmlns="http://www.w3.org/2000/svg" width="43" height="32" viewBox="0 0 43 32">
<title>nz</title>
<path fill="#00247d" d="M0 0h42.667v32h-42.667z"></path>
<path fill="#fff" d="M32.695 7.146v1.011l2.023-1.011z"></path>
<path fill="#fff" d="M33.126 8.27l-0.594-0.818 2.231-0.371z"></path>
<path fill="#fff" d="M32.695 7.146v1.011l-2.023-1.011z"></path>
<path fill="#fff" d="M32.264 8.27l0.594-0.818-2.231-0.371z"></path>
<path fill="#fff" d="M33.272 7.565l-0.962 0.313 1.587 1.611z"></path>
<path fill="#fff" d="M32.336 8.322l0.594-0.818 1.042 2.007z"></path>
<path fill="#fff" d="M32.118 7.565l0.962 0.313-0.337-2.236z"></path>
<path fill="#fff" d="M33.32 7.503l-0.962 0.313 0.337-2.236z"></path>
<path fill="#fff" d="M32.118 7.565l0.962 0.313-1.587 1.611z"></path>
<path fill="#fff" d="M33.054 8.322l-0.594-0.818-1.042 2.007z"></path>
<path fill="#cc142b" d="M32.695 7.352v0.668l1.337-0.668z"></path>
<path fill="#cc142b" d="M32.98 8.094l-0.393-0.541 1.474-0.245z"></path>
<path fill="#cc142b" d="M32.695 7.352v0.668l-1.337-0.668z"></path>
<path fill="#cc142b" d="M32.41 8.094l0.393-0.541-1.474-0.245z"></path>
<path fill="#cc142b" d="M33.076 7.629l-0.636 0.207 1.049 1.065z"></path>
<path fill="#cc142b" d="M32.458 8.129l0.393-0.541 0.688 1.326z"></path>
<path fill="#cc142b" d="M32.314 7.629l0.636 0.207-0.223-1.478z"></path>
<path fill="#cc142b" d="M33.108 7.587l-0.636 0.207 0.223-1.478z"></path>
<path fill="#cc142b" d="M32.314 7.629l0.636 0.207-1.049 1.065z"></path>
<path fill="#cc142b" d="M32.932 8.129l-0.393-0.541-0.688 1.326z"></path>
<path fill="#fff" d="M37.995 11.813v0.9l1.8-0.9z"></path>
<path fill="#fff" d="M38.378 12.813l-0.529-0.728 1.985-0.33z"></path>
<path fill="#fff" d="M37.995 11.813v0.9l-1.8-0.9z"></path>
<path fill="#fff" d="M37.611 12.813l0.529-0.728-1.985-0.33z"></path>
<path fill="#fff" d="M38.508 12.186l-0.856 0.278 1.412 1.434z"></path>
<path fill="#fff" d="M37.675 12.86l0.529-0.728 0.927 1.786z"></path>
<path fill="#fff" d="M37.481 12.186l0.856 0.278-0.3-1.99z"></path>
<path fill="#fff" d="M38.551 12.131l-0.856 0.278 0.3-1.99z"></path>
<path fill="#fff" d="M37.481 12.186l0.856 0.278-1.412 1.434z"></path>
<path fill="#fff" d="M38.314 12.86l-0.529-0.728-0.927 1.786z"></path>
<path fill="#cc142b" d="M37.995 12.019v0.557l1.114-0.557z"></path>
<path fill="#cc142b" d="M38.232 12.638l-0.327-0.451 1.228-0.204z"></path>
<path fill="#cc142b" d="M37.995 12.019v0.557l-1.114-0.557z"></path>
<path fill="#cc142b" d="M37.757 12.638l0.327-0.451-1.228-0.204z"></path>
<path fill="#cc142b" d="M38.312 12.25l-0.53 0.172 0.874 0.887z"></path>
<path fill="#cc142b" d="M37.797 12.667l0.327-0.451 0.574 1.105z"></path>
<path fill="#cc142b" d="M37.677 12.25l0.53 0.172-0.185-1.231z"></path>
<path fill="#cc142b" d="M38.339 12.216l-0.53 0.172 0.185-1.231z"></path>
<path fill="#cc142b" d="M37.677 12.25l0.53 0.172-0.874 0.887z"></path>
<path fill="#cc142b" d="M38.192 12.667l-0.327-0.451-0.574 1.105z"></path>
<path fill="#fff" d="M26.522 13.361v1.011l2.023-1.011z"></path>
<path fill="#fff" d="M26.953 14.485l-0.594-0.818 2.231-0.371z"></path>
<path fill="#fff" d="M26.522 13.361v1.011l-2.023-1.011z"></path>
<path fill="#fff" d="M26.091 14.485l0.594-0.818-2.231-0.371z"></path>
<path fill="#fff" d="M27.099 13.78l-0.962 0.313 1.587 1.611z"></path>
<path fill="#fff" d="M26.164 14.537l0.594-0.818 1.042 2.007z"></path>
<path fill="#fff" d="M25.945 13.78l0.962 0.313-0.337-2.236z"></path>
<path fill="#fff" d="M27.147 13.718l-0.962 0.313 0.337-2.236z"></path>
<path fill="#fff" d="M25.945 13.78l0.962 0.313-1.587 1.611z"></path>
<path fill="#fff" d="M26.881 14.537l-0.594-0.818-1.042 2.007z"></path>
<path fill="#cc142b" d="M26.522 13.567v0.668l1.337-0.668z"></path>
<path fill="#cc142b" d="M26.807 14.309l-0.393-0.541 1.474-0.245z"></path>
<path fill="#cc142b" d="M26.522 13.567v0.668l-1.337-0.668z"></path>
<path fill="#cc142b" d="M26.238 14.309l0.393-0.541-1.474-0.245z"></path>
<path fill="#cc142b" d="M26.904 13.844l-0.636 0.207 1.049 1.065z"></path>
<path fill="#cc142b" d="M26.285 14.344l0.393-0.541 0.688 1.326z"></path>
<path fill="#cc142b" d="M26.141 13.844l0.636 0.207-0.223-1.478z"></path>
<path fill="#cc142b" d="M26.935 13.802l-0.636 0.207 0.223-1.478z"></path>
<path fill="#cc142b" d="M26.141 13.844l0.636 0.207-1.049 1.065z"></path>
<path fill="#cc142b" d="M26.759 14.344l-0.393-0.541-0.688 1.326z"></path>
<path fill="#fff" d="M32.695 23.117v1.123l2.245-1.123z"></path>
<path fill="#fff" d="M33.173 24.365l-0.66-0.908 2.476-0.412z"></path>
<path fill="#fff" d="M32.695 23.117v1.123l-2.245-1.123z"></path>
<path fill="#fff" d="M32.217 24.365l0.66-0.908-2.476-0.412z"></path>
<path fill="#fff" d="M33.336 23.582l-1.068 0.347 1.762 1.788z"></path>
<path fill="#fff" d="M32.297 24.423l0.66-0.908 1.157 2.228z"></path>
<path fill="#fff" d="M32.054 23.582l1.068 0.347-0.374-2.482z"></path>
<path fill="#fff" d="M33.389 23.513l-1.068 0.347 0.374-2.482z"></path>
<path fill="#fff" d="M32.054 23.582l1.068 0.347-1.762 1.788z"></path>
<path fill="#fff" d="M33.093 24.423l-0.66-0.908-1.157 2.228z"></path>
<path fill="#cc142b" d="M32.695 23.323v0.78l1.559-0.78z"></path>
<path fill="#cc142b" d="M33.027 24.189l-0.458-0.631 1.72-0.286z"></path>
<path fill="#cc142b" d="M32.695 23.323v0.78l-1.559-0.78z"></path>
<path fill="#cc142b" d="M32.363 24.189l0.458-0.631-1.72-0.286z"></path>
<path fill="#cc142b" d="M33.14 23.646l-0.741 0.241 1.223 1.242z"></path>
<path fill="#cc142b" d="M32.418 24.23l0.458-0.631 0.803 1.547z"></path>
<path fill="#cc142b" d="M32.25 23.646l0.741 0.241-0.26-1.724z"></path>
<path fill="#cc142b" d="M33.177 23.598l-0.741 0.241 0.26-1.724z"></path>
<path fill="#cc142b" d="M32.25 23.646l0.741 0.241-1.223 1.242z"></path>
<path fill="#cc142b" d="M32.972 24.23l-0.458-0.631-0.803 1.547z"></path>
<path fill="#012169" d="M0 0h21.333v16h-21.333z"></path>
<path fill="#fff" d="M2.5 0l8.133 6.033 8.1-6.033h2.6v2.067l-8 5.967 8 5.933v2.033h-2.667l-8-5.967-7.967 5.967h-2.7v-2l7.967-5.933-7.967-5.933v-2.133z"></path>
<path fill="#c8102e" d="M14.133 9.367l7.2 5.3v1.333l-9.033-6.633zM8 10.033l0.2 1.167-6.4 4.8h-1.8zM21.333 0v0.1l-8.3 6.267 0.067-1.467 6.567-4.9zM0 0l7.967 5.867h-2l-5.967-4.467z"></path>
<path fill="#fff" d="M8.033 0v16h5.333v-16zM0 5.333v5.333h21.333v-5.333z"></path>
<path fill="#c8102e" d="M0 6.433v3.2h21.333v-3.2zM9.1 0v16h3.2v-16z"></path>
</svg>
