<!-- Generated by IcoMoon.io -->
<svg version="1.1" xmlns="http://www.w3.org/2000/svg" width="43" height="32" viewBox="0 0 43 32">
<title>om</title>
<path fill="#ef2d29" d="M-0.22-1.44h46.82v36.867h-46.82z"></path>
<path fill="#009025" d="M11.64 21.153h35.713v13.847h-35.713z"></path>
<path fill="#fff" d="M11.64-2.36h37.66v12.667h-37.667z"></path>
<path fill="#fff" d="M7.804 4.639h1.53c0.083 0 0.15 0.063 0.15 0.14v0.726c0 0.077-0.067 0.14-0.15 0.14h-1.53c-0.083 0-0.15-0.063-0.15-0.14v-0.726c0-0.077 0.067-0.14 0.15-0.14z"></path>
<path fill="#fff" d="M7.843 4.682h1.452c0.078 0 0.142 0.058 0.142 0.129v0.665c0 0.071-0.063 0.129-0.142 0.129h-1.452c-0.078 0-0.142-0.058-0.142-0.129v-0.665c0-0.071 0.063-0.129 0.142-0.129z"></path>
<path fill="#fff" d="M8.509 4.932l0.087 0.003 0.004 0.040 0.072 0.037 0.056-0.046 0.068 0.037-0.063 0.040 0.015 0.055 0.079-0.003v0.073l-0.063-0.003-0.032 0.046 0.072 0.052-0.056 0.043-0.060-0.046-0.087 0.018 0.005 0.067-0.096 0.007-0.013-0.065-0.079-0.033-0.044 0.046-0.068-0.034 0.040-0.052-0.048-0.033h-0.068l-0.004-0.095 0.068 0.006 0.048-0.055-0.056-0.043 0.072-0.048 0.051 0.039 0.087-0.012 0.013-0.039z"></path>
<path fill="#fff" d="M8.63 5.132c0 0.045-0.043 0.082-0.097 0.082s-0.097-0.037-0.097-0.082c0-0.045 0.043-0.082 0.097-0.082s0.097 0.037 0.097 0.082z"></path>
<path fill="#fff" stroke="#ef2d28" stroke-linejoin="miter" stroke-linecap="butt" stroke-miterlimit="4" stroke-width="0.0933" d="M1.657 4.599h1.53c0.083 0 0.15 0.063 0.15 0.14v0.726c0 0.077-0.067 0.14-0.15 0.14h-1.53c-0.083 0-0.15-0.063-0.15-0.14v-0.726c0-0.077 0.067-0.14 0.15-0.14z"></path>
<path fill="#fff" stroke="#ef2d28" stroke-linejoin="miter" stroke-linecap="butt" stroke-miterlimit="4" stroke-width="0.0867" d="M1.697 4.642h1.452c0.078 0 0.142 0.058 0.142 0.129v0.665c0 0.071-0.063 0.129-0.142 0.129h-1.452c-0.078 0-0.142-0.058-0.142-0.129v-0.665c0-0.071 0.063-0.129 0.142-0.129z"></path>
<path fill="#fff" stroke="#ef2d28" stroke-linejoin="miter" stroke-linecap="butt" stroke-miterlimit="4" stroke-width="0.0867" d="M2.362 4.892l0.087 0.003 0.004 0.040 0.072 0.037 0.056-0.046 0.068 0.037-0.063 0.040 0.015 0.055 0.079-0.003v0.073l-0.063-0.003-0.032 0.046 0.072 0.052-0.056 0.043-0.060-0.046-0.087 0.018 0.005 0.067-0.096 0.007-0.013-0.065-0.079-0.033-0.044 0.046-0.068-0.034 0.040-0.052-0.048-0.033h-0.068l-0.004-0.095 0.068 0.006 0.048-0.055-0.056-0.043 0.072-0.048 0.051 0.039 0.087-0.012 0.013-0.039z"></path>
<path fill="#fff" stroke="#ef2d28" stroke-linejoin="miter" stroke-linecap="butt" stroke-miterlimit="4" stroke-width="0.0867" d="M2.483 5.092c0 0.045-0.043 0.082-0.097 0.082s-0.097-0.037-0.097-0.082c0-0.045 0.043-0.082 0.097-0.082s0.097 0.037 0.097 0.082z"></path>
<path fill="#fff" stroke="#ef2d28" stroke-linejoin="miter" stroke-linecap="butt" stroke-miterlimit="4" stroke-width="0.0867" d="M4.378 6.704c-2.275 2.231-3.246 2.513-2.79 2.693s1.921-0.972 3.445-2.501 2.457-2.89 2.001-3.070-0.236 0.506-2.657 2.877z"></path>
<path fill="#fff" stroke="#ef2d28" stroke-linejoin="miter" stroke-linecap="butt" stroke-miterlimit="4" stroke-width="0.0800" d="M2.466 8.328l0.798 0.209c-0.75 0.713-1.594 1.005-1.829 0.88s0.422-0.419 1.032-1.088z"></path>
<path fill="#fff" stroke="#ef2d28" stroke-linejoin="miter" stroke-linecap="butt" stroke-miterlimit="4" stroke-width="0.0867" d="M2.466 8.411l0.657 0.167c-0.731 0.686-1.454 0.88-1.641 0.796-0.188-0.083 0.391-0.319 0.983-0.963z"></path>
<path fill="none" stroke="#ef2d28" stroke-linejoin="miter" stroke-linecap="butt" stroke-miterlimit="4" stroke-width="0.12" d="M4.91 6.609c-0.002 0.011-0.007 0.059-0.012 0.078 0 0.026-0.003 0.046-0.006 0.067-0.007 0.018-0.007 0.035-0.029 0.041-0.010 0.016-0.027 0.029-0.046 0.036l-0.001 0c-0.017 0.012-0.036 0.023-0.057 0.031l-0.002 0.001c-0.013 0.005-0.027 0.008-0.043 0.008-0.010 0-0.019-0.001-0.028-0.003l0.001 0c-0.021-0.012-0.035-0.026-0.052-0.036-0.004-0.017-0.007-0.041-0.012-0.057 0.007 0.020 0.011 0.043 0.012 0.067v0c-0.002 0.025-0.012 0.036-0.023 0.056"></path>
<path fill="none" stroke="#ef2d28" stroke-linejoin="miter" stroke-linecap="butt" stroke-miterlimit="4" stroke-width="0.12" d="M4.698 6.955l-0.006-0.005c0.014 0.012 0.008 0.007-0.023-0.011-0.022-0.010-0.047-0.015-0.075-0.020h-0.082c-0.032 0-0.053 0.004-0.075 0.010-0.017 0.015-0.041 0.023-0.059 0.036-0.016 0.010-0.027 0.025-0.034 0.041l-0 0.001c-0.016 0.014-0.026 0.036-0.041 0.046-0.007 0.024-0.020 0.023-0.029 0.041 0.028 0.002 0.049 0.005 0.064 0.021 0.024 0.011-0.021-0.011-0.030-0.021-0.019-0.005-0.023-0.010-0.052-0.010-0.026-0.008-0.043 0.006-0.070 0.010-0.016 0.008-0.021 0.011-0.041 0.011"></path>
<path fill="none" stroke="#ef2d28" stroke-linejoin="miter" stroke-linecap="butt" stroke-miterlimit="4" stroke-width="0.12" d="M4.384 7.213c-0.012 0-0.066 0.009-0.088 0-0.024-0.006-0.037-0.017-0.052-0.036-0.007-0.014 0 0.025 0 0.041-0.003 0.031-0.013 0.031-0.030 0.051-0.017 0.010-0.034 0.023-0.052 0.031-0.015 0.011-0.032 0.020-0.051 0.025l-0.001 0c-0.019 0.008-0.038 0.015-0.052 0.026-0.020 0.012-0.019 0.027-0.030 0.047 0.003 0.025 0.007 0.040 0.023 0.051 0.007 0.017 0.022 0.035 0.035 0.046 0.014 0.025 0.031 0.036-0.006 0.041-0.021 0.008-0.032 0.002-0.053 0"></path>
<path fill="none" stroke="#ef2d28" stroke-linejoin="miter" stroke-linecap="butt" stroke-miterlimit="4" stroke-width="0.12" d="M4.015 7.573c-0.015-0.003-0.065-0.018-0.088-0.026h-0.082c-0.031 0.002-0.037 0.011-0.063 0.021-0.018 0.016-0.029 0.026-0.053 0.036-0.012 0.014-0.037 0.039-0.047 0.057-0.007 0.019-0.011 0.041-0.011 0.064 0 0.001 0 0.002 0 0.002v-0c0 0.031 0.009 0.036 0.011 0.063 0.007 0.024 0.019 0.045 0.036 0.062l-0-0c0.003 0.007 0.005 0.008 0.011 0.010"></path>
<path fill="none" stroke="#ef2d28" stroke-linejoin="miter" stroke-linecap="butt" stroke-miterlimit="4" stroke-width="0.1533" d="M3.74 7.93c-0.003 0-0.008 0.013-0.017 0.024-0.019 0.020-0.021 0.021-0.050 0.021-0.026-0.001-0.023-0.010-0.042-0.016-0.009-0.013-0.019-0.024-0.029-0.041-0.007-0.010-0.013-0.027-0.020-0.037-0.008-0.012-0.017-0.022-0.025-0.033-0.008-0.003-0.011-0.007-0.021-0.008 0.024 0.004 0.026 0.012 0.042 0.025 0.006 0.010 0.013 0.022 0.019 0.034l0.001 0.002c0.003 0.018 0.008 0.031 0.009 0.053 0 0.023 0 0.039-0.009 0.057-0.010 0.010-0.017 0.020-0.029 0.029-0.010 0.010-0.020 0.021-0.028 0.032l-0.001 0.001-0.038 0.024c-0.012 0.007-0.026 0.014-0.045 0.016-0.024-0.002-0.032-0.008-0.050-0.016-0.016-0.011-0.028-0.018-0.042-0.029-0.011-0.009-0.021-0.020-0.029-0.032l-0-0.001c-0.022-0.005-0.036-0.003-0.050 0.008-0.011 0.008-0.021 0.017-0.028 0.028l-0 0c-0.007 0.003-0.019 0.013-0.025 0.016"></path>
<path fill="none" stroke="#ef2d28" stroke-linejoin="miter" stroke-linecap="butt" stroke-miterlimit="4" stroke-width="0.1267" d="M3.283 8.103c0.007 0.002 0.031 0.020 0.041 0.025 0.007 0.022 0.017 0.033 0.021 0.057 0.006 0.021 0.006 0.046 0.006 0.071-0.006 0.026-0.016 0.045-0.026 0.065-0.016 0.011-0.025 0.020-0.046 0.031-0.021 0.003-0.041 0.006-0.067 0.006-0.016 0.005-0.046 0.007-0.062 0-0.023-0.003-0.040-0.012-0.057-0.020-0.019-0.011-0.030-0.021-0.051-0.031-0.011-0.015-0.026-0.029-0.041-0.046-0.013-0.017-0.022-0.027-0.031-0.046 0.008 0.021 0.019 0.041 0.026 0.061 0.012 0.021 0.019 0.029 0.021 0.055 0.008 0.021 0.006 0.047 0.006 0.072-0.002 0.016-0.003 0.047-0.011 0.061v0.015"></path>
<path fill="none" stroke="#ef2d28" stroke-linejoin="miter" stroke-linecap="butt" stroke-miterlimit="4" stroke-width="0.0800" d="M2.524 8.561v0.008c0-0.020 0-0.011 0.009 0.030 0.015 0.017 0.053 0.021 0.082 0.014 0.026-0.020 0.026-0.036 0.074-0.044 0.048 0.002 0.066 0.014 0.093 0.030 0.029 0.010 0.051 0.027 0.066 0.050l0 0.001c0.009 0.025 0.015 0.043-0.017 0.052-0.026 0.016-0.058 0.027-0.092 0.030l-0.001 0c-0.037 0-0.065-0.004-0.082 0.015-0.026 0.024-0.024 0.038-0.024 0.080-0.009 0.013-0.011 0.052-0.017 0.067-0.019 0.009-0.041 0.014-0.065 0.014-0.003 0-0.006-0-0.009-0l0 0c-0.009-0.024-0.019-0.064-0.025-0.089-0.007-0.026-0.008-0.064-0.025-0.082-0.015-0.021-0.034-0.038-0.056-0.052l-0.001-0c-0.013-0.013-0.030-0.023-0.050-0.028l-0.001-0c0.033 0.014 0.037 0.031 0.041 0.066-0.028 0.012-0.036 0.021-0.082 0.022-0.046-0.004-0.057-0.014-0.074-0.038-0.004 0.038-0.017 0.050-0.026 0.083-0.016 0.021-0.022 0.044-0.040 0.073 0.007 0.036 0.022 0.037 0.024 0.080 0.011 0.030 0.011 0.057 0.033 0.075 0.011 0.012 0.019 0.013 0.042 0.014-0.048 0-0.077-0.005-0.108-0.021-0.024-0.014-0.042-0.031-0.066-0.045-0.028-0.019-0.061-0.035-0.097-0.044l-0.002-0.001c-0.038 0-0.066-0.004-0.082 0.015-0.024 0.015-0.040 0.041-0.050 0.075-0.007 0.038-0.011 0.064 0.009 0.089 0.013 0.028 0.017 0.039 0 0.073-0.020 0.024-0.048 0.027-0.093 0.037-0.030-0.001-0.061-0.007-0.082-0.014"></path>
<path fill="#fff" stroke="#ef2d28" stroke-linejoin="miter" stroke-linecap="butt" stroke-miterlimit="4" stroke-width="0.0867" d="M6.977 4.692c1.009-1.747 1.678-3.235 1.496-3.319-0.184-0.085-1.153 1.265-2.162 3.012l0.666 0.307z"></path>
<path fill="#fff" stroke="#ef2d28" stroke-linejoin="miter" stroke-linecap="butt" stroke-miterlimit="4" stroke-width="0.0867" d="M6.91 4.662c0.973-1.685 1.644-3.109 1.498-3.177-0.147-0.068-1.057 1.246-2.031 2.931"></path>
<path fill="#fff" stroke="#ef2d28" stroke-linejoin="miter" stroke-linecap="butt" stroke-miterlimit="4" stroke-width="0.0867" d="M6.743 3.783c-0.119 0.197-0.244 0.422-0.366 0.633l0.534 0.247c0.121-0.21 0.255-0.432 0.366-0.633l-0.534-0.247z"></path>
<path fill="#fff" stroke="#ef2d28" stroke-linejoin="miter" stroke-linecap="butt" stroke-miterlimit="4" stroke-width="0.0867" d="M6.79 3.851c-0.119 0.198-0.201 0.348-0.323 0.559l0.399 0.184c0.121-0.21 0.212-0.359 0.323-0.559l-0.399-0.184z"></path>
<path fill="#fff" stroke="#ef2d28" stroke-linejoin="miter" stroke-linecap="butt" stroke-miterlimit="4" stroke-width="0.0867" d="M6.843 4.49l-0.267-0.123 0.237-0.41 0.267 0.123z"></path>
<path fill="#ef0000" stroke="#ef2d28" stroke-linejoin="miter" stroke-linecap="butt" stroke-miterlimit="4" stroke-width="0.0867" d="M8.192 1.754c0.009 0.036 0.050 0.057 0.091 0.047s0.067-0.048 0.058-0.084c-0.009-0.036-0.050-0.057-0.091-0.047s-0.067 0.048-0.058 0.084z"></path>
<path fill="#fff" stroke="#ef2d28" stroke-linejoin="miter" stroke-linecap="butt" stroke-miterlimit="4" stroke-width="0.0867" d="M6.582 6.664c2.275 2.232 3.246 2.513 2.79 2.694s-1.921-0.972-3.445-2.501-2.457-2.89-2.001-3.070 0.236 0.506 2.657 2.877z"></path>
<path fill="#fff" stroke="#ef2d28" stroke-linejoin="miter" stroke-linecap="butt" stroke-miterlimit="4" stroke-width="0.0800" d="M8.494 8.288l-0.798 0.209c0.75 0.713 1.594 1.005 1.829 0.88s-0.422-0.419-1.032-1.088z"></path>
<path fill="#fff" stroke="#ef2d28" stroke-linejoin="miter" stroke-linecap="butt" stroke-miterlimit="4" stroke-width="0.0867" d="M8.494 8.364l-0.657 0.167c0.731 0.686 1.454 0.88 1.641 0.796 0.188-0.083-0.391-0.319-0.983-0.963z"></path>
<path fill="none" stroke="#ef2d28" stroke-linejoin="miter" stroke-linecap="butt" stroke-miterlimit="4" stroke-width="0.12" d="M6.050 6.562c0.002 0.011 0.007 0.059 0.012 0.078 0 0.026 0.003 0.046 0.006 0.067 0.007 0.018 0.007 0.035 0.029 0.041 0.010 0.016 0.027 0.029 0.046 0.036l0.001 0c0.017 0.012 0.036 0.023 0.057 0.031l0.002 0.001c0.013 0.005 0.027 0.008 0.043 0.008 0.010 0 0.019-0.001 0.028-0.003l-0.001 0c0.021-0.012 0.035-0.026 0.052-0.036 0.004-0.017 0.007-0.041 0.012-0.057-0.007 0.020-0.011 0.043-0.012 0.067v0c0.002 0.025 0.012 0.036 0.023 0.056"></path>
<path fill="none" stroke="#ef2d28" stroke-linejoin="miter" stroke-linecap="butt" stroke-miterlimit="4" stroke-width="0.12" d="M6.262 6.908l0.006-0.005c-0.014 0.012-0.008 0.007 0.023-0.011 0.022-0.010 0.047-0.015 0.075-0.020h0.082c0.032 0 0.053 0.004 0.075 0.010 0.017 0.015 0.041 0.023 0.059 0.036 0.016 0.010 0.027 0.025 0.034 0.041l0 0.001c0.016 0.014 0.026 0.036 0.041 0.046 0.007 0.024 0.020 0.023 0.029 0.041-0.028 0.002-0.049 0.005-0.064 0.021-0.024 0.011 0.021-0.011 0.030-0.021 0.019-0.005 0.023-0.010 0.052-0.010 0.026-0.008 0.043 0.006 0.070 0.010 0.016 0.008 0.021 0.011 0.041 0.011"></path>
<path fill="none" stroke="#ef2d28" stroke-linejoin="miter" stroke-linecap="butt" stroke-miterlimit="4" stroke-width="0.12" d="M6.576 7.173c0.012 0 0.066 0.009 0.088 0 0.024-0.006 0.037-0.017 0.052-0.036 0.007-0.014 0 0.025 0 0.041 0.003 0.031 0.013 0.031 0.030 0.051 0.017 0.010 0.034 0.023 0.052 0.031 0.015 0.011 0.032 0.020 0.051 0.025l0.001 0c0.019 0.008 0.038 0.015 0.052 0.026 0.020 0.012 0.019 0.027 0.030 0.047-0.003 0.025-0.007 0.040-0.023 0.051-0.007 0.017-0.022 0.035-0.035 0.046-0.014 0.025-0.031 0.036 0.006 0.041 0.021 0.008 0.032 0.002 0.053 0"></path>
<path fill="none" stroke="#ef2d28" stroke-linejoin="miter" stroke-linecap="butt" stroke-miterlimit="4" stroke-width="0.12" d="M6.945 7.533c0.015-0.003 0.065-0.018 0.088-0.026h0.082c0.031 0.002 0.037 0.011 0.063 0.021 0.018 0.016 0.029 0.026 0.053 0.036 0.012 0.014 0.037 0.039 0.047 0.057 0.007 0.019 0.011 0.041 0.011 0.064 0 0.001 0 0.002 0 0.002v-0c0 0.031-0.009 0.036-0.011 0.063-0.007 0.024-0.019 0.045-0.036 0.062l0-0c-0.003 0.007-0.005 0.008-0.011 0.010"></path>
<path fill="none" stroke="#ef2d28" stroke-linejoin="miter" stroke-linecap="butt" stroke-miterlimit="4" stroke-width="0.1533" d="M7.227 7.89c0.003 0 0.008 0.013 0.017 0.024 0.019 0.020 0.021 0.021 0.050 0.021 0.026-0.001 0.023-0.010 0.042-0.016 0.009-0.013 0.019-0.024 0.029-0.041 0.007-0.010 0.013-0.027 0.020-0.037 0.008-0.012 0.017-0.022 0.025-0.033 0.008-0.003 0.011-0.007 0.021-0.008-0.024 0.004-0.026 0.012-0.042 0.025-0.006 0.010-0.013 0.022-0.019 0.034l-0.001 0.002c-0.003 0.018-0.008 0.031-0.009 0.053 0 0.023 0 0.039 0.009 0.058 0.010 0.010 0.017 0.020 0.029 0.029 0.010 0.010 0.020 0.021 0.028 0.032l0 0.001 0.038 0.024c0.012 0.007 0.026 0.014 0.045 0.016 0.024-0.002 0.032-0.008 0.050-0.016 0.016-0.011 0.028-0.018 0.042-0.029 0.011-0.009 0.021-0.020 0.029-0.032l0-0.001c0.022-0.005 0.036-0.003 0.050 0.008 0.011 0.008 0.021 0.017 0.028 0.028l0 0c0.007 0.003 0.019 0.013 0.025 0.016"></path>
<path fill="none" stroke="#ef2d28" stroke-linejoin="miter" stroke-linecap="butt" stroke-miterlimit="4" stroke-width="0.1267" d="M7.677 8.056c-0.007 0.002-0.031 0.020-0.041 0.025-0.007 0.022-0.017 0.033-0.021 0.057-0.006 0.021-0.006 0.046-0.006 0.071 0.006 0.026 0.016 0.045 0.026 0.065 0.016 0.011 0.025 0.020 0.046 0.031 0.021 0.003 0.041 0.006 0.067 0.006 0.016 0.005 0.046 0.007 0.062 0 0.023-0.003 0.040-0.012 0.057-0.020 0.019-0.011 0.030-0.021 0.051-0.031 0.011-0.015 0.026-0.029 0.041-0.046 0.013-0.017 0.022-0.027 0.031-0.046-0.008 0.021-0.019 0.041-0.026 0.061-0.012 0.021-0.019 0.029-0.021 0.055-0.008 0.021-0.006 0.047-0.006 0.072 0.002 0.016 0.003 0.047 0.011 0.061v0.015"></path>
<path fill="none" stroke="#ef2d28" stroke-linejoin="miter" stroke-linecap="butt" stroke-miterlimit="4" stroke-width="0.0800" d="M8.436 8.521v0.008c0-0.020 0-0.011-0.009 0.030-0.015 0.017-0.053 0.021-0.082 0.014-0.026-0.020-0.026-0.036-0.074-0.044-0.048 0.002-0.066 0.014-0.093 0.030-0.028 0.010-0.052 0.027-0.066 0.050l-0 0.001c-0.009 0.025-0.015 0.043 0.017 0.052 0.026 0.016 0.058 0.027 0.092 0.030l0.001 0c0.037 0 0.065-0.004 0.082 0.015 0.026 0.024 0.024 0.038 0.024 0.080 0.009 0.013 0.011 0.052 0.017 0.067 0.019 0.009 0.041 0.014 0.065 0.014 0.003 0 0.006-0 0.009-0l-0 0c0.009-0.024 0.019-0.064 0.025-0.089 0.007-0.026 0.008-0.064 0.025-0.082 0.015-0.021 0.034-0.038 0.056-0.052l0.001-0c0.013-0.013 0.030-0.023 0.050-0.028l0.001-0c-0.033 0.014-0.037 0.031-0.041 0.066 0.028 0.012 0.036 0.021 0.082 0.022 0.046-0.004 0.057-0.014 0.074-0.038 0.004 0.038 0.017 0.050 0.026 0.083 0.016 0.021 0.023 0.044 0.040 0.073-0.007 0.036-0.023 0.037-0.024 0.080-0.011 0.030-0.011 0.057-0.033 0.075-0.011 0.012-0.019 0.013-0.042 0.014 0.048 0 0.077-0.005 0.108-0.021 0.024-0.014 0.042-0.031 0.066-0.045 0.028-0.019 0.061-0.035 0.097-0.044l0.002-0.001c0.038 0 0.066-0.004 0.082 0.015 0.024 0.015 0.040 0.041 0.050 0.075 0.007 0.038 0.011 0.064-0.009 0.089-0.013 0.028-0.017 0.039 0 0.073 0.020 0.024 0.048 0.027 0.093 0.037 0.030-0.001 0.061-0.007 0.082-0.014"></path>
<path fill="#fff" stroke="#ef2d28" stroke-linejoin="miter" stroke-linecap="butt" stroke-miterlimit="4" stroke-width="0.0867" d="M3.983 4.652c-1.009-1.747-1.678-3.235-1.496-3.319 0.184-0.085 1.153 1.265 2.162 3.012l-0.666 0.307z"></path>
<path fill="#fff" stroke="#ef2d28" stroke-linejoin="miter" stroke-linecap="butt" stroke-miterlimit="4" stroke-width="0.0867" d="M4.050 4.622c-0.973-1.685-1.644-3.109-1.498-3.177 0.147-0.068 1.057 1.246 2.031 2.931"></path>
<path fill="#fff" stroke="#ef2d28" stroke-linejoin="miter" stroke-linecap="butt" stroke-miterlimit="4" stroke-width="0.0867" d="M4.217 3.743c0.119 0.197 0.244 0.422 0.366 0.633l-0.534 0.247c-0.121-0.21-0.255-0.432-0.366-0.633l0.534-0.247z"></path>
<path fill="#fff" stroke="#ef2d28" stroke-linejoin="miter" stroke-linecap="butt" stroke-miterlimit="4" stroke-width="0.0867" d="M4.17 3.811c0.119 0.198 0.201 0.348 0.323 0.559l-0.399 0.184c-0.121-0.21-0.212-0.359-0.323-0.559l0.399-0.184z"></path>
<path fill="#fff" stroke="#ef2d28" stroke-linejoin="miter" stroke-linecap="butt" stroke-miterlimit="4" stroke-width="0.0867" d="M4.117 4.45l0.267-0.123-0.237-0.41-0.267 0.123z"></path>
<path fill="#ef0000" stroke="#ef2d28" stroke-linejoin="miter" stroke-linecap="butt" stroke-miterlimit="4" stroke-width="0.0867" d="M2.768 1.714c-0.009 0.036-0.050 0.057-0.091 0.047s-0.067-0.048-0.058-0.084c0.009-0.036 0.050-0.057 0.091-0.047s0.067 0.048 0.058 0.084z"></path>
<path fill="#fff" stroke="#ef2d28" stroke-linejoin="miter" stroke-linecap="butt" stroke-miterlimit="4" stroke-width="0.0867" d="M4.79 3.762c0 1.467 0.009 2.019-0.099 2.095-0.102 0.082-2.948 0-2.948 0.419s2.343 0.84 3.047 0.84c0.939 0 1.406-0.42 1.406-1.259v-2.094h-1.406z"></path>
<path fill="#fff" stroke="#ef2d28" stroke-linejoin="miter" stroke-linecap="butt" stroke-miterlimit="4" stroke-width="0.0867" d="M4.79 4.18v0.209c0.211 0.033 0.454 0.052 0.703 0.052s0.491-0.019 0.728-0.056l-0.025 0.003v-0.209c-0.211 0.033-0.454 0.052-0.703 0.052s-0.491-0.019-0.728-0.056l0.025 0.003z"></path>
<path fill="#fff" stroke="#ef2d28" stroke-linejoin="miter" stroke-linecap="butt" stroke-miterlimit="4" stroke-width="0.0867" d="M4.79 3.762v0.209c0.211 0.033 0.454 0.052 0.703 0.052s0.491-0.019 0.728-0.056l-0.025 0.003v-0.209c-0.211 0.033-0.454 0.052-0.703 0.052s-0.491-0.019-0.728-0.056l0.025 0.003z"></path>
<path fill="#fff" stroke="#ef2d28" stroke-linejoin="miter" stroke-linecap="butt" stroke-miterlimit="4" stroke-width="0.0867" d="M4.79 3.971v0.209c0.211 0.033 0.454 0.052 0.703 0.052s0.491-0.019 0.728-0.056l-0.025 0.003v-0.209c-0.211 0.033-0.454 0.052-0.703 0.052s-0.491-0.019-0.728-0.056l0.025 0.003z"></path>
<path fill="#fff" stroke="#ef2d28" stroke-linejoin="miter" stroke-linecap="butt" stroke-miterlimit="4" stroke-width="0.0867" d="M4.79 4.39v0.209c0.211 0.033 0.454 0.052 0.703 0.052s0.491-0.019 0.728-0.056l-0.025 0.003v-0.209c-0.211 0.033-0.454 0.052-0.703 0.052s-0.491-0.019-0.728-0.056l0.025 0.003z"></path>
<path fill="#fff" stroke="#ef2d28" stroke-linejoin="miter" stroke-linecap="butt" stroke-miterlimit="4" stroke-width="0.2933" d="M4.918 4.090c0 0.025-0.029 0.045-0.064 0.045s-0.064-0.020-0.064-0.045c0-0.025 0.029-0.045 0.064-0.045s0.064 0.020 0.064 0.045z"></path>
<path fill="#fff" stroke="#ef2d28" stroke-linejoin="miter" stroke-linecap="butt" stroke-miterlimit="4" stroke-width="0.2933" d="M5.174 4.112c0 0.025-0.029 0.045-0.064 0.045s-0.064-0.020-0.064-0.045c0-0.025 0.029-0.045 0.064-0.045s0.064 0.020 0.064 0.045z"></path>
<path fill="#fff" stroke="#ef2d28" stroke-linejoin="miter" stroke-linecap="butt" stroke-miterlimit="4" stroke-width="0.2933" d="M5.43 4.135c0 0.025-0.029 0.045-0.064 0.045s-0.064-0.020-0.064-0.045c0-0.025 0.029-0.045 0.064-0.045s0.064 0.020 0.064 0.045z"></path>
<path fill="#fff" stroke="#ef2d28" stroke-linejoin="miter" stroke-linecap="butt" stroke-miterlimit="4" stroke-width="0.2933" d="M5.686 4.135c0 0.025-0.029 0.045-0.064 0.045s-0.064-0.020-0.064-0.045c0-0.025 0.029-0.045 0.064-0.045s0.064 0.020 0.064 0.045z"></path>
<path fill="#fff" stroke="#ef2d28" stroke-linejoin="miter" stroke-linecap="butt" stroke-miterlimit="4" stroke-width="0.2933" d="M5.941 4.112c0 0.025-0.029 0.045-0.064 0.045s-0.064-0.020-0.064-0.045c0-0.025 0.029-0.045 0.064-0.045s0.064 0.020 0.064 0.045z"></path>
<path fill="#fff" stroke="#ef2d28" stroke-linejoin="miter" stroke-linecap="butt" stroke-miterlimit="4" stroke-width="0.2933" d="M6.197 4.090c0 0.025-0.029 0.045-0.064 0.045s-0.064-0.020-0.064-0.045c0-0.025 0.029-0.045 0.064-0.045s0.064 0.020 0.064 0.045z"></path>
<path fill="#fff" stroke="#ef2d28" stroke-linejoin="miter" stroke-linecap="butt" stroke-miterlimit="4" stroke-width="0.0867" d="M4.79 4.6v0.209c0.211 0.033 0.454 0.052 0.703 0.052s0.491-0.019 0.728-0.056l-0.025 0.003v-0.209c-0.211 0.033-0.454 0.052-0.703 0.052s-0.491-0.019-0.728-0.056l0.025 0.003z"></path>
<path fill="#fff" stroke="#ef2d28" stroke-linejoin="miter" stroke-linecap="butt" stroke-miterlimit="4" stroke-width="0.2933" d="M4.918 4.719c0 0.025-0.029 0.045-0.064 0.045s-0.064-0.020-0.064-0.045c0-0.025 0.029-0.045 0.064-0.045s0.064 0.020 0.064 0.045z"></path>
<path fill="#fff" stroke="#ef2d28" stroke-linejoin="miter" stroke-linecap="butt" stroke-miterlimit="4" stroke-width="0.2933" d="M5.174 4.742c0 0.025-0.029 0.045-0.064 0.045s-0.064-0.020-0.064-0.045c0-0.025 0.029-0.045 0.064-0.045s0.064 0.020 0.064 0.045z"></path>
<path fill="#fff" stroke="#ef2d28" stroke-linejoin="miter" stroke-linecap="butt" stroke-miterlimit="4" stroke-width="0.2933" d="M5.43 4.763c0 0.025-0.029 0.045-0.064 0.045s-0.064-0.020-0.064-0.045c0-0.025 0.029-0.045 0.064-0.045s0.064 0.020 0.064 0.045z"></path>
<path fill="#fff" stroke="#ef2d28" stroke-linejoin="miter" stroke-linecap="butt" stroke-miterlimit="4" stroke-width="0.2933" d="M5.686 4.763c0 0.025-0.029 0.045-0.064 0.045s-0.064-0.020-0.064-0.045c0-0.025 0.029-0.045 0.064-0.045s0.064 0.020 0.064 0.045z"></path>
<path fill="#fff" stroke="#ef2d28" stroke-linejoin="miter" stroke-linecap="butt" stroke-miterlimit="4" stroke-width="0.2933" d="M5.941 4.742c0 0.025-0.029 0.045-0.064 0.045s-0.064-0.020-0.064-0.045c0-0.025 0.029-0.045 0.064-0.045s0.064 0.020 0.064 0.045z"></path>
<path fill="#fff" stroke="#ef2d28" stroke-linejoin="miter" stroke-linecap="butt" stroke-miterlimit="4" stroke-width="0.2933" d="M6.197 4.719c0 0.025-0.029 0.045-0.064 0.045s-0.064-0.020-0.064-0.045c0-0.025 0.029-0.045 0.064-0.045s0.064 0.020 0.064 0.045z"></path>
<path fill="#fff" stroke="#ef2d28" stroke-linejoin="miter" stroke-linecap="butt" stroke-miterlimit="4" stroke-width="0.0867" d="M4.695 5.858h-0.234c-0.037 0.189-0.059 0.406-0.059 0.628s0.021 0.439 0.062 0.651l-0.004-0.023h0.234c-0.037-0.189-0.059-0.406-0.059-0.628s0.021-0.439 0.062-0.651l-0.004 0.023z"></path>
<path fill="#fff" stroke="#ef2d28" stroke-linejoin="miter" stroke-linecap="butt" stroke-miterlimit="4" stroke-width="0.0867" d="M2.774 5.94l-0.282 0.042c-0.062 0.266-0.062 0.489 0 0.755l0.282 0.083c-0.062-0.265-0.062-0.614 0-0.88z"></path>
<path fill="#fff" stroke="#ef2d28" stroke-linejoin="miter" stroke-linecap="butt" stroke-miterlimit="4" stroke-width="0.0867" d="M6.196 3.845v-0.212c-0.212 0.002-0.353-0.124-0.353-0.251l-0.702 0.001c0 0.125-0.139 0.252-0.351 0.252v0.209h1.406z"></path>
<path fill="#fff" stroke="#ef2d28" stroke-linejoin="miter" stroke-linecap="butt" stroke-miterlimit="4" stroke-width="0.0933" d="M5.19 3.132h0.603v0.252h-0.603zM5.242 2.88h0.502v0.252h-0.503zM5.242 2.63h0.502v0.251h-0.503zM5.292 2.294h0.401v0.336h-0.401zM5.275 2h0.437v0.293h-0.437z"></path>
<path fill="#fff" stroke="#ef2d28" stroke-linejoin="miter" stroke-linecap="butt" stroke-miterlimit="4" stroke-width="0.0867" d="M6.097 1.728c0 0.22-0.26 0.399-0.581 0.399s-0.581-0.178-0.581-0.399c0-0.22 0.26-0.399 0.581-0.399s0.581 0.178 0.581 0.399z"></path>
<path fill="#fff" stroke="#ef2d28" stroke-linejoin="miter" stroke-linecap="butt" stroke-miterlimit="4" stroke-width="0.0867" d="M5.807 1.707c0 0.11 0.145 0.293 0.145 0.293-0.105 0.073-0.276 0.127-0.436 0.127s-0.36-0.031-0.436-0.127c0 0 0.145-0.182 0.145-0.292s-0.145-0.252-0.145-0.252c0.121-0.078 0.273-0.125 0.437-0.125h0c0.159 0 0.328 0.053 0.435 0.125 0 0-0.145 0.142-0.145 0.252z"></path>
<path fill="#fff" stroke="#ef2d28" stroke-linejoin="miter" stroke-linecap="butt" stroke-miterlimit="4" stroke-width="0.0867" d="M5.71 1.707c0 0.11 0.145 0.336 0.145 0.336-0.105 0.071-0.178 0.083-0.339 0.083s-0.263 0.013-0.339-0.083c0 0 0.145-0.225 0.145-0.336s-0.145-0.293-0.145-0.293c0.105-0.071 0.178-0.083 0.339-0.083 0.16 0 0.234 0.012 0.339 0.083 0 0-0.145 0.183-0.145 0.293z"></path>
<path fill="#fff" stroke="#ef2d28" stroke-linejoin="miter" stroke-linecap="butt" stroke-miterlimit="4" stroke-width="0.0867" d="M5.079 1.748c0 0.069-0.065 0.125-0.145 0.125s-0.145-0.056-0.145-0.125c0-0.069 0.065-0.125 0.145-0.125s0.145 0.056 0.145 0.125z"></path>
<path fill="#fff" stroke="#ef2d28" stroke-linejoin="miter" stroke-linecap="butt" stroke-miterlimit="4" stroke-width="0.0867" d="M6.243 1.748c0 0.069-0.065 0.125-0.145 0.125s-0.145-0.056-0.145-0.125c0-0.069 0.065-0.125 0.145-0.125s0.145 0.056 0.145 0.125z"></path>
<path fill="#fff" stroke="#ef2d28" stroke-linejoin="miter" stroke-linecap="butt" stroke-miterlimit="4" stroke-width="0.0867" d="M5.662 1.748c0 0.069-0.065 0.125-0.145 0.125s-0.145-0.056-0.145-0.125c0-0.069 0.065-0.125 0.145-0.125s0.145 0.056 0.145 0.125z"></path>
<path fill="#fff" stroke="#ef2d28" stroke-linejoin="miter" stroke-linecap="butt" stroke-miterlimit="4" stroke-width="0.0867" d="M5.662 1.33c0 0.069-0.065 0.125-0.145 0.125s-0.145-0.056-0.145-0.125c0-0.069 0.065-0.125 0.145-0.125s0.145 0.056 0.145 0.125z"></path>
<path fill="#fff" stroke="#ef2d28" stroke-linejoin="miter" stroke-linecap="butt" stroke-miterlimit="4" stroke-width="0.0867" d="M5.242 3.719c0 0.069-0.067 0.125-0.15 0.125s-0.15-0.056-0.15-0.125c0-0.069 0.067-0.125 0.15-0.125s0.15 0.056 0.15 0.125z"></path>
<path fill="#fff" stroke="#ef2d28" stroke-linejoin="miter" stroke-linecap="butt" stroke-miterlimit="4" stroke-width="0.0867" d="M6.044 3.719c0 0.069-0.067 0.125-0.15 0.125s-0.15-0.056-0.15-0.125c0-0.069 0.067-0.125 0.15-0.125s0.15 0.056 0.15 0.125z"></path>
<path fill="#fff" stroke="#ef2d28" stroke-linejoin="miter" stroke-linecap="butt" stroke-miterlimit="4" stroke-width="0.0867" d="M5.141 3.383h0.702l-0.351 0.377-0.351-0.377z"></path>
<path fill="#fff" stroke="#ef2d28" stroke-linejoin="miter" stroke-linecap="butt" stroke-miterlimit="4" stroke-width="0.0867" d="M5.692 3.676c0 0.092-0.090 0.167-0.2 0.167s-0.2-0.075-0.2-0.167c0-0.092 0.090-0.167 0.2-0.167s0.2 0.075 0.2 0.167z"></path>
<path fill="#fff" stroke="#ef2d28" stroke-linejoin="miter" stroke-linecap="butt" stroke-miterlimit="4" stroke-width="0.0800" d="M4.78 4.93h0.965c0.031 0 0.057 0.020 0.057 0.044v0.164c0 0.024-0.025 0.044-0.057 0.044h-0.965c-0.031 0-0.057-0.020-0.057-0.044v-0.164c0-0.024 0.025-0.044 0.057-0.044z"></path>
<path fill="#fff" stroke="#ef2d28" stroke-linejoin="miter" stroke-linecap="butt" stroke-miterlimit="4" stroke-width="0.0800" d="M6.129 4.721h0c0.13 0.002 0.234 0.096 0.234 0.213 0 0.003-0 0.005-0 0.007v0.189c0 0.002 0 0.004 0 0.006 0 0.116-0.104 0.211-0.234 0.213h-0c-0.13-0.002-0.234-0.097-0.234-0.213 0-0.002 0-0.004 0-0.006v-0.19c0-0.121 0.105-0.219 0.234-0.219zM6.129 4.803c-0.078 0-0.14 0.079-0.14 0.176v0.11c0 0.097 0.062 0.175 0.14 0.175s0.14-0.078 0.14-0.175v-0.11c0-0.097-0.062-0.175-0.14-0.175zM4.911 4.761c0.078 0 0.14 0.078 0.14 0.176v0.195c0 0.097-0.062 0.175-0.14 0.175s-0.14-0.078-0.14-0.175v-0.194c0-0.098 0.061-0.176 0.14-0.176zM4.911 4.679c-0.13 0.002-0.234 0.097-0.234 0.213 0 0.002 0 0.004 0 0.006v-0 0.274c-0 0.002-0 0.004-0 0.006 0 0.116 0.104 0.211 0.234 0.213h0c0.13 0 0.234-0.098 0.234-0.219v-0.274c0-0.002 0-0.005 0-0.007 0-0.116-0.104-0.211-0.234-0.213h-0z"></path>
<path fill="#fff" stroke="#ef2d28" stroke-linejoin="miter" stroke-linecap="butt" stroke-miterlimit="4" stroke-width="0.0800" d="M4.535 4.846c0.078 0 0.142 0.078 0.142 0.175v0.046c0 0.097-0.062 0.175-0.142 0.175-0.078 0-0.14-0.078-0.14-0.175v-0.046c0-0.097 0.062-0.175 0.14-0.175zM4.535 4.763c-0.13 0.002-0.234 0.097-0.234 0.213 0 0.002 0 0.004 0 0.006v-0 0.125c-0 0.002-0 0.004-0 0.006 0 0.116 0.104 0.211 0.234 0.213h0c0.13 0 0.236-0.098 0.236-0.219v-0.125c0-0.002 0-0.005 0-0.007 0-0.117-0.105-0.212-0.236-0.213h-0z"></path>
<path fill="#fff" stroke="#ef2d28" stroke-linejoin="miter" stroke-linecap="butt" stroke-miterlimit="4" stroke-width="0.0600" d="M3.974 4.73c0.138 0 0.252 0.087 0.252 0.196v0.217c0 0.11-0.114 0.197-0.252 0.197-0.141 0-0.255-0.089-0.255-0.196v-0.218c0-0.108 0.112-0.196 0.255-0.196zM3.974 4.638c-0.235 0.001-0.424 0.107-0.424 0.238 0 0.002 0 0.004 0 0.006v-0 0.307c-0 0.002-0 0.005-0 0.008 0 0.13 0.188 0.236 0.421 0.238h0c0.236 0 0.424-0.11 0.424-0.246v-0.307c0-0.002 0-0.004 0-0.007 0-0.13-0.188-0.236-0.421-0.238h-0z"></path>
<path fill="#fff" stroke="#ef2d28" stroke-linejoin="miter" stroke-linecap="butt" stroke-miterlimit="4" stroke-width="0.0600" d="M7.021 4.772c0.138 0 0.252 0.087 0.252 0.196v0.217c0 0.11-0.114 0.197-0.252 0.197-0.141 0-0.255-0.089-0.255-0.196v-0.218c0-0.108 0.112-0.196 0.255-0.196zM7.021 4.679c-0.235 0.001-0.424 0.107-0.424 0.238 0 0.002 0 0.004 0 0.006v-0 0.307c-0 0.002-0 0.005-0 0.008 0 0.13 0.188 0.236 0.421 0.238h0c0.236 0 0.424-0.11 0.424-0.246v-0.307c0-0.002 0-0.004 0-0.007 0-0.13-0.188-0.236-0.421-0.238h-0z"></path>
<path fill="#fff" stroke="#ef2d28" stroke-linejoin="miter" stroke-linecap="butt" stroke-miterlimit="4" stroke-width="0.0800" d="M6.254 4.93h0.502c0.017 0 0.030 0.020 0.030 0.044v0.164c0 0.024-0.014 0.044-0.030 0.044h-0.502c-0.017 0-0.030-0.020-0.030-0.044v-0.164c0-0.024 0.014-0.044 0.030-0.044z"></path>
<path fill="#fff" stroke="#ef2d28" stroke-linejoin="miter" stroke-linecap="butt" stroke-miterlimit="4" stroke-width="0.0800" d="M5.724 4.889h0.294c0.010 0 0.017 0.026 0.017 0.058v0.22c0 0.032-0.008 0.058-0.017 0.058h-0.294c-0.010 0-0.017-0.026-0.017-0.058v-0.22c0-0.032 0.008-0.058 0.017-0.058z"></path>
<path fill="#fff" stroke="#ef2d28" stroke-linejoin="miter" stroke-linecap="butt" stroke-miterlimit="4" stroke-width="0.0800" d="M4.178 4.889h0.294c0.010 0 0.017 0.026 0.017 0.058v0.22c0 0.032-0.008 0.058-0.017 0.058h-0.294c-0.010 0-0.017-0.026-0.017-0.058v-0.22c0-0.032 0.008-0.058 0.017-0.058z"></path>
<path fill="#fff" stroke="#ef2d28" stroke-linejoin="miter" stroke-linecap="butt" stroke-miterlimit="4" stroke-width="0.0800" d="M3.163 4.846h0.587c0.019 0 0.034 0.032 0.034 0.072v0.274c0 0.040-0.015 0.072-0.034 0.072h-0.587c-0.019 0-0.034-0.032-0.034-0.072v-0.274c0-0.040 0.015-0.072 0.034-0.072z"></path>
<path fill="#fff" stroke="#ef2d28" stroke-linejoin="miter" stroke-linecap="butt" stroke-miterlimit="4" stroke-width="0.0800" d="M7.241 4.889h0.544c0.018 0 0.033 0.032 0.033 0.072v0.274c0 0.040-0.015 0.072-0.033 0.072h-0.544c-0.018 0-0.033-0.032-0.033-0.072v-0.274c0-0.040 0.015-0.072 0.033-0.072z"></path>
</svg>
