<!-- Generated by IcoMoon.io -->
<svg version="1.1" xmlns="http://www.w3.org/2000/svg" width="43" height="32" viewBox="0 0 43 32">
<title>pa</title>
<path fill="#fff" d="M0 0h42.667v32h-42.667z"></path>
<path fill="#fff" d="M6.167 0h31.813v32h-31.82z"></path>
<path fill="#db0000" d="M21.533 0.24h23.867v14.78h-23.867z"></path>
<path fill="#0000ab" d="M0.213 15.020h21.327v16.98h-21.327zM14.32 11.847l-2.8-1.96-2.78 1.973 1.033-3.2-2.773-1.993 3.44-0.027 1.067-3.2 1.087 3.193h3.44l-2.767 2 1.060 3.2z"></path>
<path fill="#d80000" d="M34.46 27.593l-2.827-1.847-2.807 1.867 1.040-3.040-2.8-1.867 3.467-0.033 1.080-3.027 1.093 3.020h3.467l-2.787 1.9 1.067 3.027z"></path>
</svg>
