<!-- Generated by IcoMoon.io -->
<svg version="1.1" xmlns="http://www.w3.org/2000/svg" width="43" height="32" viewBox="0 0 43 32">
<title>pf</title>
<path fill="#fff" d="M0 0h42.667v32h-42.667z"></path>
<path fill="#fff" d="M5.333 0h32v32h-32z"></path>
<path fill="#083d9c" d="M18.487 22.72s0.72-0.587 1.427-0.587 0.893 0.487 1.387 0.527c0.487 0.040 0.893-0.487 1.5-0.507s1.367 0.427 1.367 0.427l-2.653 0.8-3.027-0.667zM16.96 21.853l9.027 0.047s-0.78-0.847-1.7-0.867c-0.92-0.013-0.667 0.4-1.367 0.453-0.707 0.060-0.88-0.427-1.527-0.413-0.64 0.020-1.013 0.413-1.5 0.433-0.493 0.020-1.113-0.487-1.487-0.467s-1.7 0.58-1.7 0.58l0.253 0.24zM15.807 20.787l11.133 0.033c0.18-0.253-0.547-0.86-1.207-0.913-0.547 0.020-0.933 0.567-1.387 0.587s-0.96-0.567-1.467-0.547c-0.507 0.020-1.033 0.547-1.54 0.547-0.513 0-0.88-0.567-1.527-0.567s-0.933 0.62-1.427 0.587c-0.487-0.040-0.92-0.627-1.387-0.627s-1.247 0.7-1.4 0.667c-0.16-0.047 0.193 0.287 0.207 0.227z"></path>
<path fill="#f00" d="M20.087 14.593l2.56 0.68v-3.653c-1.173 0.067-2.147-2.227-0.080-2.38-2.033-0.293-2.267 0.233-2.5 0.8l0.020 4.553z"></path>
<path fill="#083d9c" d="M18.467 17.247l5.78 0.020"></path>
<path fill="#ef7d08" d="M14.58 17.307l2.46 0.020v-1.54l-2.813-0.14 0.353 1.66zM14.46 15.173l2.62 0.26-0.020-1.093-2.56-1.020-0.040 1.86zM14.993 12.993l2.007 0.973 0.287-0.3s-0.187-0.127-0.173-0.247c0-0.113 0.187-0.133 0.187-0.267 0-0.113-0.2-0.133-0.207-0.247-0.013-0.133 0.16-0.267 0.16-0.267l-1.813-1.58-0.453 1.933zM28.193 17.327h-2.6l-0.020-1.507 2.853-0.213-0.233 1.72zM25.613 15.467l3.087-0.373-0.667-1.78-2.44 1.040 0.020 1.113zM27.86 12.827l-2.227 1.173c-0.033-0.133-0.060-0.253-0.213-0.353 0 0 0.133-0.080 0.133-0.213s-0.173-0.16-0.173-0.233 0.16-0.147 0.173-0.327c-0.020-0.12-0.173-0.293-0.147-0.327l1.733-1.32 0.72 1.6zM23.033 15.433l1.113-0.047 0.020-0.447-1.133 0.493zM19.633 15.4l-1.167-0.033v-0.467l1.173 0.5zM19.633 15.267l-1.167-0.6v-0.787s-0.133 0.020-0.12-0.133c0.007-0.327 0.86 0.593 1.293 0.893l-0.007 0.627zM23.033 15.193v-0.513s1.053-0.947 1.273-1.127c0 0.2-0.12 0.347-0.12 0.347v0.747l-1.153 0.547zM16.2 10.92l1.187 1.313c0.027-0.12 0.3-0.14 0.573-0.12 0.267 0.020 0.487-0.020 0.487 0.173s-0.133 0.167-0.133 0.307 0.2 0.127 0.2 0.3-0.147 0.14-0.147 0.273c0 0.113 0.16 0.12 0.16 0.12l1.107 1.073v-1.147l-2.28-3.58-1.153 1.287zM18.027 9.56l1.553 3.167s0.013-2.92 0.273-3.073l-0.433-0.8-1.393 0.707zM24.76 9.687l-1.733 3.080v-1.3s0.147-0.213-0.080-0.2c-0.227 0.020-0.5-0.013-0.5-0.013l0.693-2.44 1.62 0.867zM26.533 11c-0.020 0.033-1.167 1.2-1.167 1.2-0.053-0.133-0.4-0.067-0.733-0.067-0.327 0-0.373 0.107-0.353 0.193 0.033 0.22 0.147 0.053 0.147 0.267 0 0.207-0.16 0.133-0.18 0.28 0.020 0.18 0.253 0.133 0.113 0.267l-1.327 1.28v-1.213l2.473-3.84 1.027 1.633z"></path>
<path fill="#f00" d="M20.653 17.893c-0.553 0.92-2.040 0.647-2.393 0-0.1-0.027-0.040-3.967-0.040-3.967s-0.167-0.073-0.173-0.2c-0.007-0.12 0.227-0.133 0.227-0.287s-0.24-0.093-0.247-0.253c0-0.147 0.26-0.133 0.247-0.267-0.013-0.16-0.287-0.133-0.3-0.28 0-0.113 0.2-0.213 0.253-0.267-0.028 0.001-0.061 0.001-0.093 0.001s-0.066-0-0.098-0.001l0.005 0-0.427 0.007c-0.307 0 0 0.067 0 0.24 0 0.113-0.153 0.193-0.167 0.287-0.007 0.107 0.213 0.173 0.22 0.3 0 0.107-0.22 0.113-0.213 0.22 0.013 0.167 0.2 0.207 0.193 0.313 0 0.1-0.24 0.14-0.247 0.22 0.013 0.16 0.040 4.053 0.040 4.053 0.38 1.987 2.587 2.487 3.213-0.12zM22.113 17.893c0.553 0.92 2.040 0.647 2.387 0 0.107-0.027 0.047-3.967 0.047-3.967s0.167-0.073 0.173-0.2c0.007-0.12-0.213-0.133-0.213-0.287s0.227-0.093 0.227-0.253c0-0.147-0.233-0.133-0.22-0.28 0.013-0.153 0.2-0.133 0.207-0.28 0.007-0.127-0.113-0.2-0.173-0.253h0.18l0.427 0.007c0.3 0 0 0.067 0 0.24 0 0.113 0.153 0.193 0.167 0.287 0 0.107-0.213 0.173-0.22 0.3 0 0.107 0.22 0.113 0.213 0.22-0.013 0.167-0.2 0.207-0.2 0.313 0.007 0.1 0.247 0.14 0.247 0.22l-0.033 4.053c-0.38 1.987-2.593 2.487-3.213-0.12z"></path>
<path fill="#083d9c" d="M20.113 19.707h2.487c0.020-0.020-0.56-0.867-1.24-0.8-0.767 0.020-1.287 0.8-1.247 0.8zM28.040 19.64h-3.4s0.44-0.253 0.56-0.493c0.22 0.12 0.16 0.24 0.6 0.26s0.86-0.5 1.28-0.48c0.42 0.020 0.96 0.733 0.96 0.72zM14.64 19.64h3.4s-0.44-0.253-0.56-0.493c-0.22 0.12-0.16 0.24-0.6 0.26s-0.867-0.5-1.28-0.48c-0.42 0.020-0.96 0.733-0.96 0.72zM14.893 18.573l2.42 0.020s-0.153-0.333-0.173-0.74c-0.627-0.213-1.133 0.467-1.587 0.487-0.447 0.020-0.913-0.487-0.913-0.487l0.253 0.72zM27.827 18.573l-2.427 0.020s0.153-0.333 0.173-0.74c0.627-0.213 1.133 0.467 1.587 0.487 0.447 0.020 0.913-0.487 0.913-0.487l-0.253 0.72zM20.733 18.6l1.227-0.033s0.020-0.373-0.62-0.373-0.587 0.427-0.607 0.407zM19.987 18.073c0.236-0.105 0.425-0.281 0.544-0.501l0.003-0.006-0.84 0.020s-0.387 0.233-0.58 0.487h0.873zM22.707 18.073c-0.236-0.105-0.425-0.281-0.544-0.501l-0.003-0.006 0.84 0.020s0.387 0.233 0.58 0.487h-0.873z"></path>
<path fill="#de2010" d="M-2.667 24h48v8h-48zM-2.667 0h48v8h-48z"></path>
</svg>
