<!-- Generated by IcoMoon.io -->
<svg version="1.1" xmlns="http://www.w3.org/2000/svg" width="43" height="32" viewBox="0 0 43 32">
<title>pg</title>
<path fill="#000" d="M0.107 0l-0.033 32h42.667l-42.633-32z"></path>
<path fill="#f00" d="M42.707 32l0.033-32h-42.667l42.633 32z"></path>
<path fill="#fc0" d="M26.416 7.963l-0.562-0.029c-0.178-0.413-0.666-0.56-0.977-0.383-0.003 0-0.006 0-0.009 0-0.601 0-1.199-0.011-1.794-0.032l0.086 0.002 1.051 0.457c0.281 0.723 1.169 0.87 1.169 0.87-0.089 1.298-1.317-0.162-2.353 0.575-0.74 0.442-0.74 0.959-1.14 1.814-0.133 0.236-0.651 0.855-0.651 0.855l0.873-0.074-0.281 0.369 1.036-0.147-0.222 0.206c0.148 0.030 1.184-0.251 1.184-0.251l-0.074 0.339 1.184-0.428s0.237 0.192 0.444 0.28l0.148-0.59 0.592 0.147 0.148-0.59c0.888 1.18 1.184 2.359 2.812 2.654l-0.148-0.59c0.674 0.288 1.097 0.486 1.516 0.691l-0.228-0.101 0.133-0.251c0.71 0.501 1.288 0.487 1.687 0.546l-0.296-0.737 0.296 0.147-0.444-1.18 0.444 0.147-0.592-0.885 0.222-0.147-0.074-0.442c0.888 0.295 2.072 0.737 2.22 1.77 0.148 1.622-1.628 2.064-2.812 1.917 0.888 0.737 2.516 0.442 3.256-0.295 0.296-0.295 0.444-0.737 0.592-1.18 0.148 0.442 0.444 1.032 0.444 1.622-0.148 1.327-1.924 1.77-3.108 1.917 1.332 0.737 3.7-0.147 3.848-2.064 0-1.622-1.036-2.359-1.48-3.097l-0.148-0.796 0.444 0.206s-0.266-0.487-0.296-0.59c0 0-0.459-1.253-0.622-1.534l0.326 0.059-1.214-1.519 0.34-0.029s-1.406-1.106-1.791-1.253l0.444-0.147c-0.888-0.442-1.924-0.147-2.812 0.442l0.148-0.442-0.266 0.029v-0.516l0.266-0.398-0.444-0.147 0.296-0.737-0.444 0.147 0.148-0.737s-0.326 0.147-0.533 0.133c0.065-0.119 0.144-0.284 0.218-0.452l0.019-0.049c-0.148-0.221 0-0.664 0-0.664-1.036 0.147-1.184 0.295-1.776 1.18-0.888 1.622-0.592 2.359-0.444 3.982z"></path>
<path fill="#f00" d="M32.010 10.381c0.074 0.133 0.918 0.531 1.539 0.885-0.163-0.678-1.391-0.826-1.539-0.885z"></path>
<path fill="#fff" d="M11.667 26.6l-0.947-0.6-1.267 0.607 0.287-1.080-0.967-1.007 1.113-0.067 0.667-1.227 0.407 1.033 1.38 0.253-0.867 0.707zM14.080 21.333l-0.44-0.2-0.42 0.24 0.067-0.48-0.36-0.327 0.473-0.087 0.2-0.44 0.233 0.427 0.48 0.053-0.333 0.347zM16.213 18.32l-0.967-0.467-0.927 0.52 0.153-1.047-0.787-0.72 1.047-0.187 0.44-0.96 0.507 0.933 1.053 0.12-0.733 0.767zM11.827 14.12l-1.133-0.567-1.1 0.607 0.187-1.24-0.92-0.867 1.247-0.2 0.533-1.133 0.58 1.113 1.253 0.153-0.887 0.893zM7.773 18.48l-1.133-0.667-1.133 0.687 0.287-1.287-1.007-0.867 1.313-0.12 0.513-1.22 0.527 1.213 1.32 0.107-0.993 0.867z"></path>
</svg>
