<!-- Generated by IcoMoon.io -->
<svg version="1.1" xmlns="http://www.w3.org/2000/svg" width="43" height="32" viewBox="0 0 43 32">
<title>pk</title>
<path fill="#0c590b" d="M-2.671 0h48v32h-48z"></path>
<path fill="#fff" d="M-2.671 0h12.031v32h-12.031z"></path>
<path fill="#fff" d="M28.498 14.088l-1.95-0.412-1.025 1.706-0.212-1.975-1.938-0.45 1.813-0.813-0.169-1.981 1.337 1.475 1.831-0.775-0.994 1.725 1.313 1.5z"></path>
<path fill="#fff" d="M29.229 19.125c-1.226 2.63-3.847 4.419-6.886 4.419-1.16 0-2.258-0.261-3.241-0.726l0.046 0.020c-2.634-1.241-4.425-3.874-4.425-6.925 0-1.163 0.26-2.266 0.726-3.253l-0.020 0.046c0.866-1.903 2.457-3.349 4.41-4.004l0.052-0.015c-0.266 0.223-0.507 0.445-0.736 0.679l-0.002 0.002c-1.122 1.239-1.809 2.891-1.809 4.704 0 3.876 3.142 7.019 7.019 7.019 1.893 0 3.611-0.75 4.874-1.968l-0.002 0.002z"></path>
</svg>
