<!-- Generated by IcoMoon.io -->
<svg version="1.1" xmlns="http://www.w3.org/2000/svg" width="43" height="32" viewBox="0 0 43 32">
<title>pn</title>
<path fill="#00247d" d="M0 0h42.667v32h-42.667z"></path>
<path fill="#012169" d="M0 0h21.333v16h-21.333z"></path>
<path fill="#fff" d="M2.5 0l8.133 6.033 8.1-6.033h2.6v2.067l-8 5.967 8 5.933v2.033h-2.667l-8-5.967-7.967 5.967h-2.7v-2l7.967-5.933-7.967-5.933v-2.133z"></path>
<path fill="#c8102e" d="M14.133 9.367l7.2 5.3v1.333l-9.033-6.633zM8 10.033l0.2 1.167-6.4 4.8h-1.8zM21.333 0v0.1l-8.3 6.267 0.067-1.467 6.567-4.9zM0 0l7.967 5.867h-2l-5.967-4.467z"></path>
<path fill="#fff" d="M8.033 0v16h5.333v-16zM0 5.333v5.333h21.333v-5.333z"></path>
<path fill="#c8102e" d="M0 6.433v3.2h21.333v-3.2zM9.1 0v16h3.2v-16z"></path>
<path fill="#f7e017" d="M27.34 16.82c-0.59 0.469-1.032 1.1-1.259 1.827l-0.007 0.027c-0.38 1.82-0.887 2.227-1.667 1.833 0 0.98 0.86 1.053 1.233 0.487 0 0.913 0.333 1.707 1.080 2.387 0.32 0.287 0.38 0.093 0.227-0.227-0.147-0.313-0.147-1.333-0.447-1.92 0.48 0.34 1.187 0.147 1.133-0.8-0.62 0.36-1.233 0.347-1.3-0.513-0.073-1 0.313-2.467 1.007-3.1z"></path>
<path fill="#f7e017" d="M26.607 9.58c0.047-0.367-0.033-0.733-0.3-0.967-0.507-0.447-1.007-0.3-1.38 0.067-0.553-0.307-0.853 0.76-1.48 0.58 0.1 0.347 0.267 0.493 0.587 0.373-0.333 0.3 0 0.667-0.393 1.027 0.707 0.227 1.080-0.167 1.053-0.847 0.114 0.105 0.266 0.169 0.434 0.169 0.191 0 0.362-0.083 0.479-0.215l0.001-0.001c-0.373-0.12-0.373-0.447-0.227-0.747 0.227-0.453 1.287-0.433 1.227 0.56z"></path>
<path fill="#337321" d="M28.24 14.807c-0.8 0.427-2.253 0.247-2.393-0.8-0.133-1.033 0.873-1.5 1.147-1.633 0.42-0.213 0.753 0.167 0.613 0.6 0.467-0.16 0.573-0.707 0.347-1.020 0.62 0.047 1.187-0.42 1.427-1.080-0.213 0.2-0.8 0.067-1.287 0.033 0.147-0.167 0.147-0.487 0.1-0.653-0.507 0.527-1.247 0.287-2.22 1.8 0.118-0.341 0.338-1.17 0.543-2.005l0.097-0.468c0.053-1-1-1.013-1.227-0.56 0.247 0.28 0.113 0.6 0.027 1.1-0.107 0.58-0.333 1.933-0.527 2.387-0.060-0.707-0.527-0.753-0.613-1.1-0.133 0.093-0.213 0.333-0.18 0.5-0.167-0.18-0.74 0.047-0.953-0.227-0.22 0.447 0.133 0.9 0.513 1.1-0.22 0.013-0.267 0.273-0.513 0.273 0.327 0.38 0.66 0.533 1.040 0.56 0.387 0.027 0.667 0.173 0.9 0.64 0.38 0.753 1.813 1.24 3.16 0.553z"></path>
<path fill="#f7e017" d="M30.227 13.893c-0.453 1.247-1.687 2.133-2.24 2.267-0.947 0.233-2.88 1.173-3.4 1.653-0.081-0.016-0.152-0.046-0.216-0.088l0.002 0.001c-0.253-0.18-0.467-0.767-0.013-1.267 1.413-1.32 2.933-0.747 3.88-1.653-0.8 0.42-2.253 0.24-2.387-0.8 0.277 0.075 0.595 0.118 0.922 0.118 1.073 0 2.038-0.461 2.708-1.195l0.003-0.003c0.264 0.287 0.506 0.603 0.717 0.94l0.016 0.027z"></path>
<path fill="#337321" d="M27.34 16.82c-0.713 0.6-1.080 2.093-1.007 3.1 0.020 0.28 0.1 0.467 0.22 0.587 0.053-0.573 0.447-2.047 1.467-2.707 0.853-0.553 2.193-1.8 2.687-3.233-0.098-0.265-0.284-0.479-0.521-0.61l-0.006-0.003c-0.493 1.347-1.807 1.993-2.84 2.867z"></path>
<path fill="#316d3a" d="M29.767 13.313c-0.354 0.488-0.825 0.871-1.372 1.112l-0.021 0.008c0.101-0.123 0.164-0.28 0.167-0.453v-0.001c-0.422 0.125-0.906 0.197-1.408 0.197-0.457 0-0.9-0.060-1.321-0.172l0.036 0.008c0.278 0.076 0.598 0.119 0.928 0.119 1.073 0 2.039-0.461 2.71-1.196l0.003-0.003c0.112 0.108 0.205 0.233 0.276 0.372l0.004 0.008z"></path>
<path fill="#337321" d="M24.36 16.467c-1.147 1.067-0.387 2.013 0.067 2.22-0.127 0.753 0.58 0.667 0.567 1.293 0.287-0.16 0.36-0.6 0.313-0.947 0.367 0.393 1.28-0.047 1.473 0.68 0.127-0.8-0.493-1.6-1.26-1.52 0.32-0.287 0.133-0.753-0.167-0.873-0.060 0.587-0.72 0.587-0.973 0.4-0.26-0.173-0.467-0.76-0.020-1.26z"></path>
<path fill="#f7e017" d="M26.847 23.307c-0.12 0.067-0.113 0.233-0.033 0.333 0.153 0.213-0.113 0.693 0.4 0.793 0.147 0.033 0.267-0.067 0.32-0.233 0.16-0.473-0.347-0.527-0.393-0.753-0.040-0.227-0.187-0.2-0.293-0.14z"></path>
<path fill="#f7e017" d="M27.28 24.193c-0.167 0.080-0.32 0.187-0.247 0.733 0.027 0.22 0.013 0.76-0.187 0.767 0.12 0.067 0.38 0.133 0.487-0.013 0.1 0.173 0.333 0.12 0.42-0.087 0.12 0.093 0.287-0.067 0.287-0.213 0.1 0.067 0.313-0.027 0.26-0.353 0.133 0.047 0.293-0.047 0.353-0.127-0.187-0.040-0.667-0.293-0.773-0.493-0.113-0.207-0.4-0.307-0.6-0.213z"></path>
<path fill="#f7e017" d="M35.233 16.48c1.847 1.547 1.967 2.78 1.687 3.5-0.153-0.673-0.92-1.727-1.72-2z"></path>
<path fill="#337321" d="M31.927 15.6h3.427v4.067c0 3.46-1.92 5.5-3.88 6.587-2.322-1.232-3.876-3.634-3.876-6.399 0-0.066 0.001-0.132 0.003-0.198l-0 0.010v-4.067h2.4c0 0.213 0.027 0.533 0.267 0.847 0.573-0.053 1.213-0.48 1.66-0.84z"></path>
<path fill="#006ec7" d="M35.353 15.6v4.067c0 1.040-0.173 1.96-0.467 2.753l-3.42-6.247-3.4 6.247c-0.3-0.8-0.473-1.713-0.473-2.753v-4.067z"></path>
<path fill="#f7e017" d="M34.987 22.127c-0.092 0.28-0.177 0.501-0.273 0.716l0.020-0.049-3.267-6.060-3.247 6.067c-0.087-0.187-0.193-0.487-0.253-0.667l3.513-6.507z"></path>
<path fill="#f7e017" d="M33.020 24.353l0.333 0.153c0.115-0.27 0.181-0.585 0.181-0.915 0-0.143-0.013-0.283-0.037-0.42l0.002 0.014c-0.193 0.493-0.853 0.48-1.033 0.78 0.107 0.053 0.213 0.133 0.3 0.193-0.227 0.227-0.753 0.6-1.053 0.693v-3.227c0-0.227-0.080-0.413-0.080-0.6v-0.667c0-0.153-0.027-0.373-0.16-0.373s-0.167 0.22-0.167 0.373v0.667c0 0.187-0.073 0.4-0.073 0.6v3.227c-0.167-0.48-0.813-0.32-1.113-0.8 0.064-0.016 0.138-0.025 0.214-0.025 0.052 0 0.102 0.004 0.151 0.012l-0.005-0.001c-0.227-0.767-0.847-0.827-0.96-1.053 0 0.32-0.133 1.053 0.073 1.373 0.047-0.060 0.12-0.12 0.2-0.167 0.26 0.553 1.407 0.553 1.68 1.473 0.22-0.333 1-0.733 1.547-1.313z"></path>
<path fill="#f7e017" d="M31.473 21.667c0.253 0 1.067-0.080 1.36-0.080 0.080 0 0.14-0.12 0.14-0.26 0-0.133-0.060-0.253-0.133-0.253-0.3 0-1.107-0.080-1.367-0.080-0.253 0-1.067 0.080-1.36 0.080-0.080 0-0.14 0.113-0.14 0.253s0.067 0.26 0.133 0.26c0.3 0 1.113 0.080 1.367 0.080z"></path>
<path fill="#f7e017" d="M31.307 20.347c-0.053-0.047-0.12-0.067-0.2-0.067-0.173 0-0.313 0.12-0.313 0.273 0 0.16 0.14 0.287 0.313 0.287 0.167 0 0.307-0.133 0.307-0.287 0-0.12 0.173-0.12 0.173 0 0 0.247-0.213 0.447-0.48 0.447s-0.487-0.2-0.487-0.447c0-0.24 0.22-0.44 0.487-0.44 0.080 0.002 0.156 0.021 0.223 0.055l-0.003-0.001c0 0.040-0.020 0.113-0.020 0.18z"></path>
<path fill="#f7e017" d="M30.113 21.587c0.073 0 0.133-0.12 0.133-0.26 0-0.133-0.060-0.253-0.133-0.253"></path>
<path fill="#f7e017" d="M30.227 21.587c0.073 0 0.133-0.12 0.133-0.26 0-0.133-0.060-0.253-0.133-0.253"></path>
<path fill="#f7e017" d="M30.967 21.633c0.093 0 0.167-0.133 0.167-0.307 0-0.167-0.067-0.307-0.167-0.307"></path>
<path fill="#f7e017" d="M31.14 21.647c0.1 0 0.173-0.14 0.173-0.32s-0.073-0.32-0.173-0.32"></path>
<path fill="#f7e017" d="M31.72 21.653c0.1 0 0.173-0.147 0.173-0.327s-0.080-0.327-0.173-0.327"></path>
<path fill="#f7e017" d="M31.9 21.64c0.093 0 0.173-0.133 0.173-0.313 0-0.173-0.080-0.313-0.173-0.313"></path>
<path fill="#f7e017" d="M32.707 21.587c0.080 0 0.14-0.113 0.14-0.26s-0.060-0.267-0.133-0.267"></path>
<path fill="#f7e017" d="M29.8 24.193c0.087-0.060 0.2-0.107 0.32-0.133"></path>
<path fill="#f7e017" d="M32.86 24.22l-0.093-0.067"></path>
<path fill="#f7e017" d="M33.020 24.353c0.213-0.227 0.387-0.487 0.487-0.78"></path>
<path fill="#fff" d="M30.787 18.48c0-0.080 0.060-0.107 0.133-0.16 0.080-0.067 0.113-0.093 0.193-0.093h0.987c0.067 0 0.087 0.020 0.087 0.087v1.333c0 0.067-0.013 0.093-0.087 0.093h-1.313v-1.28"></path>
<path fill="#e5e5e5" d="M31.853 19.853c0.133 0 0.107 0 0.2-0.093s0.087-0.087 0.087-0.173v-1.227c0-0.067-0.020-0.080-0.087-0.080h-0.913c-0.067 0-0.1 0.027-0.18 0.087-0.067 0.053-0.12 0.080-0.12 0.147v1.34z"></path>
<path fill="#fff" d="M31.953 19.827c0 0.067-0.020 0.087-0.093 0.087h-0.987c-0.073 0-0.087-0.020-0.087-0.087v-1.34c0-0.067 0.013-0.087 0.087-0.087h0.987c0.073 0 0.093 0.020 0.093 0.087z"></path>
<path fill="#96877d" d="M33.867 14.82c0.187 0.213 0.253 0.5 0.147 0.787h-0.28c0.12-0.367 0.047-0.707-0.467-0.753-0.76-0.067-1.653 1.413-2.993 1.593-0.387-0.467-0.367-1.353 0.133-1.773-0.273-0.741-0.674-1.376-1.182-1.909l0.002 0.002c-0.179-0.031-0.385-0.049-0.595-0.049-0.042 0-0.083 0.001-0.124 0.002l0.006-0c0.2-0.427 0.753-0.867 1.207-1.047 0.083-0.117 0.157-0.215 0.234-0.31l-0.008 0.010c0.047-0.58 2.8-0.313 3.38 0.047 0 0.653 0.26 2.813 0.547 3.4z"></path>
<path fill="#000" d="M30.533 15.213c-0.067-1-0.473-1.827-1.047-2.387 0.109 0.027 0.234 0.043 0.363 0.043 0.311 0 0.6-0.090 0.844-0.246l-0.006 0.004c0.5-0.333 1.8-0.907 2.267-0.66 0.040 0.087 0.067 0.267 0.033 0.393-0.113-0.3-1.36 0.16-1.713 0.307-0.333 0.153-0.487 0.367-0.367 0.84-0.2-0.167-0.133-0.32-0.333-0.44 0.080 0.193 0.147 0.547 0.173 0.833-0.080-0.2-0.213-0.64-0.507-0.9 0.246 0.568 0.389 1.229 0.389 1.923 0 0.14-0.006 0.278-0.017 0.415l0.001-0.018c0.2 0 0.653-0.2 0.827-0.333-0.153 0.22-0.613 0.38-0.9 0.44-0.138 0.22-0.22 0.487-0.22 0.773 0 0.005 0 0.010 0 0.015v-0.001c-0.020-0.28 0.067-0.953 0.207-1z"></path>
<path fill="#000" d="M33.867 14.82c-0.253-0.28-0.713-0.427-1.307-0.267 0.131-0.066 0.282-0.118 0.441-0.151l0.012-0.002c-0.020-0.153-0.16-0.833-0.187-1l0.167-0.067c0.087 0.407 0.187 0.873 0.253 1.067 0.053 0.007 0.173 0.033 0.28 0.087-0.047-0.16-0.3-1.293-0.293-1.413l0.227-0.12c0.076 0.695 0.217 1.327 0.419 1.932l-0.019-0.065z"></path>
<path fill="#96877d" d="M33.733 15.6c0.113-0.353 0.040-0.7-0.467-0.747-0.4-0.033-0.827 0.353-1.333 0.753z"></path>
<path fill="#96877d" d="M30.407 12.367c-0.058 0.004-0.126 0.006-0.195 0.006-0.282 0-0.554-0.039-0.813-0.111l0.021 0.005c0.013-0.067 0.040-0.133 0.073-0.213-0.214 0.135-0.4 0.285-0.566 0.453l-0 0c0.36 0.080 1.107 0.113 1.48-0.14z"></path>
<path fill="#337321" d="M35.233 16.48c1.267 0.867 2.2 1.713 2.467 3.067s0.78 1.713 1.413 1.353c-0.147 0.78-0.933 0.867-1.593 0.267 0.067 0.907-0.3 1.987-1.233 2.38-0.060-0.54 0.3-0.973 0.2-1.413-0.047-0.2-0.067-0.647 0.193-0.86-0.5 0.167-1.28-0.147-1.353-0.887 0.573 0.267 1.307 0.313 1.593-0.407 0.28-0.72 0.16-1.953-1.687-3.5z"></path>
<path fill="#337321" d="M36.827 9.44c0.393-1.020 1.413-0.913 1.76-0.48 1.007-0.573 1.147 0.72 2 0.467-0.013 0.24-0.3 0.467-0.613 0.447 0.333 0.3-0.133 0.753 0.567 1.027-0.6 0.3-1.44-0.013-1.667-0.847-0.2 0.393-0.9 0.393-1.187 0.080 0.613-0.167 0.573-0.733 0.227-0.967-0.353-0.227-0.967-0.133-1.087 0.273z"></path>
<path fill="#337321" d="M33.78 11.693c0.306 0.919 0.818 1.699 1.483 2.317l0.004 0.003c0.72 0.667 1.807 0.493 2.42-0.133 0.013 1.253-1.293 1.353-2.013 0.96-0.32-0.173-0.58-0.087-0.273 0.2 0.467 0.413 1.487 0.733 2.693 0.987 2.1 0.453 1.353 2.12 0.733 2.107 0.18 0 0.327-0.193 0.067-0.42-1.827-1.647-5.533-1-5.48-4.667-0.387 0.967-2 0.587-1.247-0.553 0.24 0.193 0.667 0.207 0.78-0.093 0.093-0.233 0.033-0.64-0.387-0.993 0.067 0 0.22 0 0.2-0.173 0.020 0.107 0.113 0.253 0.353 0.2 0.067 0.113 0.133 0.18 0.233 0.14 0.020 0 0.073-0.033 0.053-0.14 0.013 0.2 0.253 0.273 0.38 0.26z"></path>
<path fill="#f7e017" d="M35.667 14.84c0.873 0.567 1.867 0.567 2.767-0.48 0.287-0.333 0.733-0.62 1.053-0.647 0.32-0.033 0.3-0.333 0.54-0.4-0.147-0.040-0.207-0.22-0.433-0.2 0.567-0.193 0.4-0.647 0.673-0.867-0.227 0.087-0.573-0.247-0.9 0.18 0.087-0.2-0.033-0.427-0.113-0.52 0.033 0.227-0.44 0.267-0.533 0.84-0.047 0.32-0.227 0.307-0.253-0.193-0.020-0.36-0.2-1.367-0.4-1.88-0.213-0.507-0.267-1.213 0.020-1.313-0.042-0.077-0.101-0.139-0.171-0.185l-0.002-0.001c-0.353-0.227-0.967-0.133-1.087 0.267-0.387 1.027 0.707 1.613 0.62 2.727-0.167-0.827-1.507-1.040-1.493-1.853-0.433 0.2-0.373 0.56-0.207 0.847-0.267-0.42-0.887 0.267-1.413-0.3-0.067 0.753 0.6 1.033 1.14 1.067-0.267 0.48 0.093 0.887 0.453 1.020 0.013-0.84 1.74-0.5 1.76 0.947 0.013 1.233-1.313 1.333-2.020 0.947z"></path>
<path fill="#f7e017" d="M38.093 16.027c2.1 0.453 1.353 2.12 0.733 2.107-0.393-0.013-0.767-0.34-0.787-0.627-0.453 0.24-0.333 0.713 0.013 0.9-0.947-0.107-1.347 0.513-1.367 1.2 0.173-0.32 0.693-0.333 0.893-0.267s0.7 0.1 0.9-0.133c-0.167 0.147 0.107 0.48-0.133 0.733 0.8-0.027 1.14-0.767 1-1.087 1.027-0.933 0.833-2.453-1.253-2.827z"></path>
<path fill="#f7e017" d="M36.487 23.173c0.133 0.080 0.12 0.267 0.027 0.38-0.187 0.227 0.093 0.767-0.48 0.867-0.167 0.020-0.293-0.087-0.347-0.28-0.16-0.533 0.407-0.573 0.467-0.82 0.067-0.253 0.22-0.22 0.333-0.147z"></path>
<path fill="#f7e017" d="M35.973 24.14c0.18 0.093 0.34 0.227 0.247 0.827-0.047 0.247-0.053 0.853 0.167 0.867-0.133 0.067-0.427 0.127-0.533-0.033-0.127 0.187-0.38 0.12-0.467-0.12-0.147 0.107-0.32-0.087-0.313-0.247-0.12 0.067-0.353-0.047-0.28-0.4-0.147 0.040-0.327-0.067-0.387-0.16 0.207-0.040 0.747-0.3 0.887-0.52 0.133-0.227 0.467-0.32 0.68-0.213z"></path>
<path fill="#f7e017" d="M33.413 13.053c-0.027 1.533 0.613 2.32 1.507 2.827-0.333-0.2-0.187-0.873-0.633-1.093 0.107-0.007 0.267 0.14 0.533 0.080-0.133-0.28-0.333-0.72-0.827-0.78 0.133-0.013 0.4 0.033 0.587-0.033-0.253-0.4-0.933-0.207-1.167-1z"></path>
<path fill="#f7e017" d="M33.253 11.587c-0.053-0.020-0.1-0.073-0.14-0.147-0.24 0.053-0.333-0.1-0.353-0.2 0.020 0.173-0.133 0.167-0.2 0.173 0.42 0.347 0.48 0.753 0.387 0.987-0.12 0.3-0.533 0.287-0.78 0.093-0.033 0.64 0.8 0.847 1.1 0.047 0 0.133 0.173 0.12 0.213 0.3 0.213-0.347 0.053-0.847-0.227-1.253z"></path>
<path fill="#337321" d="M31.933 8.533c-0.325-0.322-0.528-0.767-0.533-1.259v-0.001c0.013-0.333 0.147-0.687 0.633-0.533-0.153 0-0.047 0.293-0.2 0.327 0.12 0.047 0.293-0.060 0.32-0.133 0.027 0.107 0.227 0.080 0.24 0.2 0.073-0.060-0.007-0.353-0.12-0.413 0.080-0.047 0.133-0.28 0.093-0.393-0.080 0.013-0.193 0.12-0.213 0.273 0.040-0.12-0.007-0.42-0.22-0.467-0.060 0.080-0.073 0.287 0.007 0.4-0.193-0.047-0.48 0.080-0.547 0.247 0.013-0.2 0.040-0.487 0.167-0.667 0.040-0.053-0.067-0.16-0.14-0.020-0.147-0.287-0.533-0.433-0.713-0.293-0.173 0.147-0.4-0.067-0.547 0.16-0.14 0.227-0.627 0.247-0.6 0.487 0.013 0.147-0.020 0.367-0.093 0.447-0.173 0.193 0.087 0.333 0.133 0.507-0.033-0.567 0.873-1.68 1.787-1.247-0.106 0.227-0.171 0.491-0.18 0.77l-0 0.003c-0.040 0.513 0.040 1.233 0.533 1.66z"></path>
<path fill="#c8102e" d="M32.2 6.74c0-0.133 0.233-0.313 0.547-0.307 0.38 0 0.667 0.347 0.973 0.313s0.16 0.133 0.093 0.187c-0.067 0.040-0.1 0.107-0.080 0.193 0.020 0.080-0.013 0.133-0.133 0.060-0.273-0.173-0.547 0.067-0.907-0.067-0.3-0.113-0.48-0.18-0.493-0.38z"></path>
<path fill="#96877d" d="M30.653 10.293c-0.205-0.478-0.552-0.862-0.988-1.107l-0.012-0.006-0.013-0.253c0.256-0.147 0.477-0.315 0.674-0.507l-0.001 0.001c1.133 0.533 2.667-0.227 3.373-1.020l0.267 0.16-0.133 0.18-0.14-0.073c-0.311 0.341-0.642 0.651-0.996 0.933l-0.017 0.013c0.26 0.067 0.62 0.113 0.72 0.107 0.627-0.453 1.127-0.86 1.367-0.887l0.2 0.267-0.18 0.133-0.14-0.087c-0.746 0.71-1.339 1.572-1.729 2.538l-0.017 0.049c-0.42-0.093-1.927-0.033-2.233-0.44z"></path>
<path fill="#337321" d="M31.267 6.953c-0.173-0.24-0.653-0.32-0.753 0-0.047 0.147-0.113 0.3-0.227 0.367s-0.087 0.273-0.040 0.36c0.12 0.22 0.013 0.433 0.247 0.573 0-0.173 0.26-0.353 0.473-0.4 0.22-0.040 0.553-0.24 0.6-0.453 0.040-0.227 0.12-0.4-0.3-0.447z"></path>
<path fill="#96877d" d="M30.18 9.12h0.067v0.407l0.033 0.020 0.353-0.2 0.033 0.047-0.36 0.207v0.040l0.36 0.2-0.033 0.053-0.36-0.2c-0.007 0.007-0.020 0.020-0.033 0.020v0.413h-0.060v-0.413c-0.013-0.005-0.024-0.012-0.034-0.020l0 0-0.353 0.207-0.033-0.053 0.353-0.2v-0.047l-0.353-0.2 0.033-0.053 0.353 0.2 0.033-0.020z"></path>
<path fill="#96877d" d="M30.713 10.12c-0.129 0.131-0.309 0.212-0.508 0.212-0.394 0-0.713-0.319-0.713-0.713s0.319-0.713 0.713-0.713c0.231 0 0.436 0.11 0.566 0.28l0.001 0.002c-0.039 0.111-0.068 0.24-0.080 0.374l-0 0.006c-0.025-0.248-0.232-0.44-0.484-0.44-0.269 0-0.487 0.218-0.487 0.487s0.217 0.485 0.484 0.487h0c0.227 0 0.42-0.153 0.48-0.36 0 0.093 0 0.307 0.027 0.38z"></path>
<path fill="#337321" d="M29.907 10.8c-0.040-0.053-0.127-0.2-0.113-0.3 0.098 0.003 0.186 0.040 0.254 0.1l-0-0c-0.007-0.080-0.040-0.24-0.020-0.32 0.080 0.033 0.253 0.133 0.313 0.24-0.013-0.073-0.047-0.267-0.013-0.387 0.087 0.053 0.24 0.193 0.267 0.293 0.013-0.153 0.067-0.4 0.107-0.467 0.067 0.067 0.173 0.133 0.24 0.227 0.013-0.127 0.080-0.267 0.167-0.3 0.067 0.067 0.173 0.247 0.2 0.44 0.067-0.020 0.153-0.133 0.193-0.2 0.033 0.067 0.073 0.167 0.047 0.3 0.087-0.080 0.187-0.18 0.2-0.273 0.067 0.047 0.18 0.16 0.207 0.28-0.013-0.1 0-0.273-0.033-0.373 0.107 0.067 0.2 0.167 0.22 0.28 0.033-0.107 0.1-0.293 0.16-0.333 0.060 0.12 0.12 0.267 0.113 0.38 0.040-0.073 0.093-0.213 0.153-0.24 0.053 0.080 0.047 0.267 0.033 0.36 0.053-0.073 0.153-0.167 0.213-0.2 0 0.053 0.013 0.14 0 0.207 0.093-0.096 0.166-0.211 0.211-0.34l0.002-0.007c0.107 0.053 0.213 0.233 0.22 0.327 0.080-0.033 0.227-0.167 0.267-0.24 0 0.053 0.027 0.2 0 0.307 0.047-0.047 0.087-0.133 0.113-0.173 0.027 0.073 0 0.253-0.027 0.353 0.061-0.055 0.139-0.091 0.225-0.1l0.002-0c-0.021 0.194-0.080 0.37-0.17 0.526l0.003-0.006c-0.72-0.2-2.233-0.273-3.753-0.36z"></path>
<path fill="#f7e017" d="M32.427 6.82c0-0.060 0.12-0.18 0.34-0.18 0.267 0 0.513 0.2 0.727 0.18 0.213-0.013 0.107 0.060 0.067 0.073-0.053 0.020-0.073 0.047-0.067 0.080 0.020 0.040 0 0.060-0.093 0.027-0.187-0.067-0.38 0.027-0.627-0.027-0.213-0.047-0.34-0.067-0.347-0.153z"></path>
<path fill="#f7e017" d="M30.14 11.253c-0.22 0.267-0.447 0.227-0.493 0.053s0.12-0.253 0.060-0.407 0.1-0.22 0.173-0.153 0.32-0.147 0.42 0.080c0.107 0.227 0.187 0.38 0.133 0.467-0.067 0.093-0.247 0.047-0.293-0.040z"></path>
<path fill="#f7e017" d="M31.113 10.847c-0.040-0.1 0.193-0.293 0.313-0.153 0.12 0.133 0.307-0.147 0.413 0.067s0.133 0.327 0.193 0.447c0.047 0.12-0.287 0.18-0.393 0.080 0.013 0.067-0.293 0.127-0.373-0.080l-0.153-0.36z"></path>
<path fill="#f7e017" d="M32.673 10.973c-0.053-0.107 0.22-0.26 0.367-0.067 0.033-0.080 0.307-0.093 0.327 0.133l0.033 0.46c0.007 0.087-0.167 0.173-0.287-0.060-0.227 0.047-0.327-0.080-0.353-0.207-0.027-0.133-0.053-0.2-0.087-0.267z"></path>
<path fill="#337321" d="M30.287 10.82c-0.033-0.073 0.2-0.227 0.347-0.113 0.153 0.113 0.367-0.093 0.467 0.107 0.18 0.413 0.187 0.44 0.133 0.52s-0.3 0.047-0.36-0.067c-0.007 0.080-0.22 0.067-0.327 0.007-0.12-0.067-0.207-0.32-0.26-0.453z"></path>
<path fill="#337321" d="M31.867 10.84c-0.047-0.12 0.307-0.22 0.467-0.013 0.073-0.073 0.247-0.080 0.34 0.147 0.1 0.22 0.113 0.34 0.047 0.4-0.053 0.040-0.233 0.067-0.293-0.033-0.087 0.053-0.34 0.007-0.4-0.133-0.053-0.14-0.1-0.267-0.153-0.367z"></path>
<path fill="#337321" d="M33.367 11.067c0-0.113 0.187-0.16 0.26 0 0.067 0.147 0.3 0.007 0.32 0.267 0 0.047-0.027 0.233-0.1 0.327-0.067 0.087-0.42 0-0.447-0.193l-0.033-0.4z"></path>
</svg>
