<!-- Generated by IcoMoon.io -->
<svg version="1.1" xmlns="http://www.w3.org/2000/svg" width="43" height="32" viewBox="0 0 43 32">
<title>pt</title>
<path fill="#f00" d="M17.067 0h25.6v32h-25.6z"></path>
<path fill="#060" d="M0 0h17.067v32h-17.067z"></path>
<path fill="#ff0" d="M22.633 20.413c-2.153-0.067-12-6.213-12.067-7.2l0.54-0.9c0.98 1.42 11.047 7.4 12.040 7.187l-0.513 0.913"></path>
<path fill="#ff0" d="M10.993 12.187c-0.193 0.52 2.573 2.227 5.893 4.253 3.327 2.020 6.193 3.267 6.4 3.093l0.1-0.187c-0.040 0.067-0.133 0.087-0.287 0.040-0.9-0.26-3.24-1.333-6.14-3.093-2.907-1.76-5.427-3.38-5.82-4.067-0.026-0.053-0.041-0.115-0.041-0.181 0-0.009 0-0.018 0.001-0.027l-0 0.001h-0.013l-0.080 0.147-0.013 0.020zM22.68 20.44c-0.033 0.067-0.107 0.067-0.233 0.053-0.8-0.087-3.24-1.273-6.127-3-3.36-2.013-6.133-3.84-5.827-4.32l0.080-0.147 0.013 0.007c-0.267 0.813 5.473 4.093 5.813 4.307 3.32 2.053 6.12 3.26 6.367 2.947l-0.087 0.153z"></path>
<path fill="#ff0" d="M17.080 13.813c2.147-0.020 4.8-0.293 6.333-0.907l-0.333-0.533c-0.9 0.5-3.567 0.833-6.020 0.88-2.893-0.027-4.94-0.3-5.967-0.987l-0.307 0.573c1.88 0.8 3.813 0.967 6.293 0.973"></path>
<path fill="#ff0" d="M23.5 12.92c-0.053 0.087-1.053 0.427-2.52 0.68-1.144 0.183-2.464 0.287-3.808 0.287-0.035 0-0.070-0-0.104-0l0.005 0c-0.031 0-0.067 0-0.104 0-1.284 0-2.548-0.087-3.787-0.256l0.144 0.016c-1.54-0.24-2.333-0.573-2.633-0.693l0.073-0.147c0.847 0.333 1.647 0.533 2.58 0.68 1.103 0.157 2.376 0.247 3.671 0.247 0.017 0 0.035-0 0.052-0h-0.003c0.008 0 0.018 0 0.027 0 1.362 0 2.699-0.104 4.005-0.305l-0.146 0.018c1.5-0.247 2.32-0.56 2.44-0.7l0.107 0.18zM23.207 12.38c-0.16 0.133-0.973 0.42-2.4 0.647-1.114 0.17-2.398 0.267-3.706 0.267-0.005 0-0.010 0-0.015 0h0.001c-1.467 0-2.673-0.107-3.587-0.24-1.453-0.187-2.227-0.533-2.507-0.627l0.087-0.147c0.22 0.113 0.96 0.413 2.433 0.62 1.024 0.145 2.206 0.227 3.408 0.227 0.058 0 0.117-0 0.175-0.001l-0.009 0c0.002 0 0.005 0 0.008 0 1.3 0 2.578-0.097 3.826-0.284l-0.141 0.017c1.433-0.2 2.207-0.56 2.327-0.653l0.1 0.173z"></path>
<path fill="#ff0" d="M24.187 16.3v0.167c-0.187 0.227-1.347 0.56-2.8 0.8-1.237 0.187-2.664 0.294-4.117 0.294-0.086 0-0.171-0-0.256-0.001l0.013 0c-0.068 0.001-0.147 0.001-0.227 0.001-1.378 0-2.732-0.105-4.054-0.306l0.148 0.019c-1.097-0.13-2.098-0.412-3.026-0.826l0.066 0.026v-0.193c0.647 0.427 2.393 0.747 2.98 0.84 1.053 0.16 2.407 0.28 4.113 0.28 1.793 0 3.227-0.127 4.333-0.293 1.047-0.153 2.533-0.547 2.827-0.807zM24.187 15.7v0.167c-0.187 0.22-1.347 0.553-2.8 0.793-1.25 0.191-2.693 0.301-4.16 0.301-0.070 0-0.14-0-0.21-0.001l0.011 0c-0.048 0-0.105 0-0.162 0-1.401 0-2.778-0.104-4.123-0.306l0.152 0.019c-1.097-0.13-2.098-0.412-3.026-0.826l0.066 0.026v-0.2c0.647 0.433 2.4 0.747 2.98 0.84 1.185 0.183 2.551 0.287 3.942 0.287 0.060 0 0.12-0 0.18-0.001l-0.009 0c1.793 0 3.233-0.133 4.333-0.3 1.047-0.147 2.533-0.54 2.827-0.8z"></path>
<path fill="#ff0" d="M22.993 19.82c-0.081 0.121-0.143 0.208-0.205 0.293l0.019-0.027c-0.667 0.24-1.733 0.493-2.173 0.56-1.075 0.21-2.313 0.331-3.578 0.333h-0.002c-2.693-0.040-4.9-0.567-5.933-1.020l-0.087-0.14 0.013-0.027 0.14 0.060c1.753 0.6 3.773 0.953 5.873 0.967l0.006 0c1.253 0 2.5-0.14 3.507-0.32 1.547-0.313 2.173-0.547 2.367-0.653l0.047-0.027zM23.347 19.233c-0.093 0.171-0.137 0.247-0.182 0.323l0.049-0.090c-0.36 0.133-1.333 0.413-2.753 0.613-0.933 0.127-1.513 0.253-3.373 0.287-2.246-0.023-4.404-0.363-6.444-0.976l0.164 0.042-0.073-0.167c1.894 0.545 4.077 0.882 6.331 0.933l0.029 0.001c1.7-0.033 2.427-0.16 3.353-0.287 1.653-0.253 2.487-0.533 2.733-0.607 0-0.002 0-0.004 0-0.007s-0-0.005-0-0.007v0l0.173-0.067z"></path>
<path fill="#ff0" d="M23.387 15.84c0.007 2-1.020 3.8-1.84 4.587-1.168 1.14-2.758 1.852-4.515 1.88l-0.005 0c-2.020 0.033-3.92-1.28-4.433-1.86-1.108-1.173-1.8-2.749-1.833-4.487l-0-0.007c0.12-2.187 0.98-3.707 2.22-4.753 1.138-0.942 2.612-1.514 4.22-1.514 0.021 0 0.042 0 0.063 0l-0.003-0c1.909 0.095 3.59 0.994 4.725 2.362l0.009 0.011c0.833 1.013 1.2 2.113 1.393 3.78z"></path>
<path fill="#ff0" d="M17.060 8.967c3.88 0 7.040 3.16 7.040 7.040s-3.16 7.040-7.033 7.040-7.040-3.16-7.040-7.040c0-3.88 3.16-7.040 7.040-7.040zM10.173 16c0 3.787 3.113 6.887 6.887 6.887s6.887-3.1 6.887-6.887-3.113-6.887-6.887-6.887-6.887 3.1-6.887 6.887z"></path>
<path fill="#ff0" d="M17.067 9.553c3.556 0.011 6.435 2.891 6.447 6.446v0.001c-0.011 3.557-2.89 6.438-6.445 6.453h-0.001c-3.533 0-6.447-2.907-6.447-6.453 0.015-3.554 2.892-6.432 6.445-6.447h0.001zM10.773 16c0 3.467 2.84 6.293 6.293 6.293s6.293-2.833 6.293-6.293c0-3.467-2.84-6.293-6.293-6.293-3.47 0.015-6.278 2.824-6.293 6.292v0.001z"></path>
<path fill="#ff0" d="M17.353 8.933h-0.607v14.153h0.6z"></path>
<path fill="#ff0" d="M17.287 8.853h0.153v14.313h-0.147v-14.313zM16.687 8.853h0.16v14.313h-0.153v-14.313z"></path>
<path fill="#ff0" d="M24.107 16.28v-0.52l-0.427-0.4-2.42-0.64-3.48-0.353-4.2 0.213-2.987 0.707-0.6 0.447v0.527l1.527-0.687 3.627-0.567h3.487l2.56 0.28 1.773 0.427z"></path>
<path fill="#ff0" d="M17.067 14.92c1.66 0 3.267 0.153 4.553 0.4 1.32 0.267 2.247 0.6 2.567 0.967v0.187c-0.387-0.467-1.633-0.8-2.6-1-1.267-0.24-2.867-0.4-4.527-0.4-1.74 0-3.367 0.173-4.62 0.413-1 0.2-2.34 0.6-2.507 0.987v-0.193c0.087-0.267 1.087-0.667 2.487-0.953 1.26-0.247 2.887-0.407 4.64-0.407zM17.067 14.313c0.015-0 0.033-0 0.051-0 1.591 0 3.148 0.146 4.659 0.424l-0.157-0.024c1.32 0.267 2.247 0.6 2.567 0.973v0.18c-0.387-0.46-1.633-0.8-2.6-0.993-1.267-0.247-2.867-0.4-4.527-0.4-0.024-0-0.051-0-0.079-0-1.603 0-3.171 0.15-4.69 0.438l0.156-0.025c-0.967 0.18-2.36 0.593-2.513 0.98v-0.187c0.093-0.267 1.107-0.687 2.487-0.953 1.267-0.247 2.887-0.413 4.647-0.413z"></path>
<path fill="#ff0" d="M17.067 11.78c0.118-0.002 0.258-0.003 0.398-0.003 1.302 0 2.58 0.105 3.825 0.308l-0.136-0.018c1.067 0.2 2.087 0.493 2.233 0.653l0.113 0.2c-0.353-0.227-1.24-0.487-2.373-0.7s-2.58-0.287-4.067-0.28c-1.687-0.007-3 0.080-4.12 0.28-0.828 0.119-1.576 0.359-2.262 0.706l0.042-0.019 0.113-0.207c0.4-0.2 1.020-0.447 2.073-0.64 1.167-0.213 2.493-0.273 4.16-0.28zM17.067 11.18c1.427-0.013 2.84 0.067 3.94 0.267 0.763 0.116 1.449 0.349 2.074 0.683l-0.034-0.017 0.167 0.267c-0.28-0.313-1.333-0.613-2.273-0.773-1.093-0.193-2.447-0.267-3.873-0.28-0.064-0.001-0.139-0.001-0.215-0.001-1.325 0-2.624 0.107-3.891 0.313l0.139-0.019c-0.736 0.105-1.401 0.318-2.011 0.624l0.037-0.017 0.147-0.22c0.387-0.2 1.013-0.387 1.8-0.54 1.122-0.188 2.416-0.295 3.734-0.295 0.091 0 0.182 0.001 0.273 0.002l-0.014-0z"></path>
<path fill="#ff0" d="M17.040 18.593c1.213 0.020 2.4 0.067 3.553 0.28l-0.080 0.147c-1.067-0.2-2.213-0.267-3.467-0.267-1.62-0.013-3.247 0.14-4.667 0.547-0.447 0.127-1.187 0.413-1.267 0.653l-0.080-0.133c0.027-0.147 0.467-0.44 1.307-0.667 1.627-0.467 3.147-0.553 4.7-0.56zM17.093 17.98c0.007 0 0.014 0 0.022 0 1.342 0 2.656 0.121 3.931 0.354l-0.133-0.020-0.087 0.153c-1.081-0.208-2.325-0.327-3.596-0.327-0.048 0-0.096 0-0.144 0l0.007-0c-1.613 0-3.327 0.12-4.887 0.573-0.5 0.147-1.373 0.467-1.4 0.713l-0.080-0.147c0.013-0.227 0.767-0.527 1.447-0.72 1.567-0.46 3.287-0.573 4.92-0.58z"></path>
<path fill="#ff0" d="M23.293 19.367l-0.52 0.82-1.513-1.34-3.907-2.633-4.413-2.42-2.287-0.78 0.487-0.907 0.167-0.087 1.42 0.353 4.693 2.42 2.707 1.707 2.273 1.633 0.927 1.067z"></path>
<path fill="#ff0" d="M10.573 13.033c0.4-0.267 3.347 1.040 6.44 2.907 3.073 1.867 6.020 3.973 5.753 4.367l-0.087 0.14-0.040 0.033c0.007-0.007 0.053-0.067 0-0.207-0.133-0.433-2.227-2.1-5.687-4.193-3.38-2.007-6.193-3.22-6.467-2.873l0.087-0.173zM23.4 19.36c0.253-0.507-2.48-2.567-5.873-4.573-3.467-1.967-5.973-3.127-6.433-2.78l-0.093 0.193c0 0.007 0-0.013 0.027-0.033 0.080-0.067 0.22-0.067 0.28-0.067 0.787 0.013 3.033 1.047 6.187 2.853 1.387 0.8 5.84 3.667 5.82 4.467 0 0.067 0.007 0.080-0.020 0.12l0.113-0.173z"></path>
<path fill="#fff" d="M12.843 16.785c0.002 1.161 0.478 2.21 1.244 2.965l0.001 0c0.758 0.769 1.809 1.247 2.972 1.252h0.001c1.166-0 2.222-0.473 2.987-1.237v0c0.764-0.759 1.237-1.811 1.237-2.972v-5.632l-8.441-0.014v5.639z"></path>
<path fill="#f00" d="M12.999 16.792c0.003 1.113 0.46 2.119 1.194 2.844l0 0c0.731 0.735 1.741 1.19 2.858 1.195h0.001c0.001 0 0.001 0 0.002 0 1.115 0 2.125-0.451 2.857-1.181l-0 0c0.732-0.726 1.186-1.732 1.188-2.844v-5.476h-8.085v5.461M19.485 12.973v3.477l-0.007 0.363c0 0.005 0 0.012 0 0.018 0 0.662-0.272 1.26-0.711 1.688l-0 0c-0.436 0.438-1.040 0.709-1.706 0.711h-0c-0.668 0-1.259-0.284-1.7-0.725-0.438-0.436-0.709-1.040-0.711-1.706v-3.84l4.836 0.014z"></path>
<path fill="#ff0" d="M13.525 12.76c0.007-0.391 0.284-0.484 0.284-0.484 0.007 0 0.306 0.1 0.306 0.491h-0.59z"></path>
<path fill="#ff0" d="M13.284 12.283l-0.050 0.448h0.299c0-0.37 0.284-0.427 0.284-0.427 0.007 0 0.284 0.078 0.292 0.427h0.299l-0.057-0.455h-1.067zM13.213 12.738h1.209c0.021 0 0.043 0.021 0.043 0.050 0 0.036-0.021 0.057-0.043 0.057h-1.209c-0.021 0-0.043-0.021-0.043-0.057 0-0.028 0.021-0.050 0.050-0.050z"></path>
<path fill="#ff0" d="M13.653 12.731c0-0.235 0.164-0.299 0.164-0.299s0.164 0.071 0.164 0.299h-0.327M13.241 12.091h1.159c0.021 0 0.043 0.028 0.043 0.057 0 0.021-0.021 0.043-0.043 0.043h-1.159c-0.021 0-0.043-0.021-0.043-0.050 0-0.021 0.021-0.043 0.043-0.043zM13.269 12.198h1.095c0.021 0 0.043 0.021 0.043 0.050s-0.021 0.050-0.043 0.050h-1.102c-0.028 0-0.043-0.021-0.043-0.050s0.014-0.050 0.043-0.050zM13.625 11.444h0.085v0.057h0.064v-0.057h0.092v0.064h0.064v-0.071h0.085v0.142c0 0.028-0.014 0.043-0.036 0.043h-0.313c-0.021 0-0.043-0.014-0.043-0.036v-0.142zM13.952 11.636l0.021 0.455h-0.306l0.021-0.462h0.263"></path>
<path fill="#ff0" d="M13.582 11.849v0.242h-0.284v-0.242h0.284z"></path>
<path fill="#ff0" d="M14.336 11.849v0.242h-0.284v-0.242h0.284z"></path>
<path fill="#ff0" d="M13.248 11.664h0.085v0.071h0.064v-0.071h0.085v0.071h0.064v-0.071h0.085v0.142c0 0.028-0.014 0.043-0.036 0.043h-0.306c-0.024 0-0.043-0.019-0.043-0.043v0-0.142z"></path>
<path fill="#ff0" d="M14.002 11.664h0.085v0.071h0.064v-0.071h0.085v0.071h0.064v-0.071h0.085v0.142c0 0.028-0.014 0.043-0.036 0.043h-0.306c-0.024 0-0.043-0.019-0.043-0.043v0-0.142z"></path>
<path fill="#000" d="M13.789 11.778c0-0.043 0.064-0.043 0.064 0v0.114h-0.064v-0.114z"></path>
<path fill="#000" d="M13.412 11.935c0-0.043 0.057-0.043 0.057 0v0.085h-0.057v-0.085z"></path>
<path fill="#000" d="M14.165 11.935c0-0.043 0.057-0.043 0.057 0v0.085h-0.057v-0.085z"></path>
<path fill="#ff0" d="M13.525 16.052c0.007-0.391 0.284-0.484 0.284-0.484 0.007 0 0.306 0.1 0.306 0.491h-0.59z"></path>
<path fill="#ff0" d="M13.284 15.576l-0.050 0.448h0.299c0-0.37 0.284-0.427 0.284-0.427 0.007 0 0.284 0.078 0.292 0.427h0.299l-0.057-0.455h-1.067zM13.213 16.031h1.209c0.021 0 0.043 0.021 0.043 0.050 0 0.036-0.021 0.057-0.043 0.057h-1.209c-0.021 0-0.043-0.021-0.043-0.057 0-0.028 0.021-0.050 0.050-0.050z"></path>
<path fill="#ff0" d="M13.653 16.024c0-0.235 0.164-0.299 0.164-0.299s0.164 0.071 0.164 0.299h-0.327M13.241 15.384h1.159c0.021 0 0.043 0.028 0.043 0.057 0 0.021-0.021 0.043-0.043 0.043h-1.159c-0.021 0-0.043-0.021-0.043-0.050 0-0.021 0.021-0.043 0.043-0.043zM13.269 15.49h1.095c0.021 0 0.043 0.021 0.043 0.050s-0.021 0.050-0.043 0.050h-1.102c-0.028 0-0.043-0.021-0.043-0.050s0.014-0.050 0.043-0.050zM13.625 14.736h0.085v0.057h0.064v-0.057h0.092v0.064h0.064v-0.071h0.085v0.142c0 0.028-0.014 0.043-0.036 0.043h-0.313c-0.021 0-0.043-0.014-0.043-0.036v-0.142zM13.952 14.928l0.021 0.455h-0.306l0.021-0.462h0.263"></path>
<path fill="#ff0" d="M13.582 15.142v0.242h-0.284v-0.242h0.284z"></path>
<path fill="#ff0" d="M15.090 15.142v0.242h-0.284v-0.242h0.284z"></path>
<path fill="#ff0" d="M13.248 14.957h0.085v0.071h0.064v-0.071h0.085v0.071h0.064v-0.071h0.085v0.142c0 0.028-0.014 0.043-0.036 0.043h-0.306c-0.024 0-0.043-0.019-0.043-0.043v0-0.142z"></path>
<path fill="#ff0" d="M14.756 14.957h0.085v0.071h0.064v-0.071h0.085v0.071h0.064v-0.071h0.085v0.142c0 0.028-0.014 0.043-0.036 0.043h-0.306c-0.024 0-0.043-0.019-0.043-0.043v0-0.142z"></path>
<path fill="#000" d="M13.789 15.071c0-0.043 0.064-0.043 0.064 0v0.114h-0.064v-0.114z"></path>
<path fill="#000" d="M13.412 15.227c0-0.043 0.057-0.043 0.057 0v0.085h-0.057v-0.085z"></path>
<path fill="#000" d="M14.919 15.227c0-0.043 0.057-0.043 0.057 0v0.085h-0.057v-0.085z"></path>
<path fill="#ff0" d="M14.809 19.483c-0.273-0.281-0.143-0.543-0.143-0.543 0.005-0.005 0.286-0.147 0.564 0.129l-0.416 0.419z"></path>
<path fill="#ff0" d="M14.3 19.319l0.283 0.351 0.21-0.212c-0.262-0.261-0.102-0.502-0.102-0.502 0.005-0.005 0.256-0.147 0.508 0.094l0.21-0.212-0.363-0.28-0.752 0.757zM14.573 19.691l0.852-0.858c0.015-0.015 0.045-0.015 0.065 0.005 0.025 0.025 0.025 0.055 0.010 0.070l-0.852 0.858c-0.015 0.015-0.045 0.015-0.070-0.010-0.020-0.020-0.020-0.050-0-0.070z"></path>
<path fill="#ff0" d="M14.879 19.373c-0.166-0.165-0.097-0.326-0.097-0.326s0.166-0.066 0.327 0.094l-0.23 0.232M14.134 19.214l0.817-0.822c0.015-0.015 0.050-0.010 0.070 0.010 0.015 0.015 0.015 0.045 0 0.060l-0.817 0.822c-0.015 0.015-0.045 0.015-0.065-0.005-0.015-0.015-0.015-0.045-0-0.060zM14.23 19.269l0.772-0.777c0.015-0.015 0.045-0.015 0.065 0.005s0.020 0.050 0.005 0.065l-0.777 0.782c-0.020 0.020-0.045 0.015-0.065-0.005s-0.025-0.045-0.005-0.065zM13.945 18.486l0.060-0.061 0.040 0.040 0.045-0.045-0.040-0.040 0.065-0.066 0.045 0.045 0.045-0.045-0.050-0.050 0.060-0.061 0.101 0.1c0.020 0.020 0.020 0.040 0.005 0.055l-0.22 0.222c-0.015 0.015-0.040 0.020-0.055 0.005l-0.101-0.1zM14.312 18.389l0.338 0.306-0.215 0.217-0.313-0.341 0.185-0.187"></path>
<path fill="#ff0" d="M14.203 18.802l0.172 0.17-0.2 0.202-0.172-0.17 0.2-0.202z"></path>
<path fill="#ff0" d="M15.265 17.732l0.172 0.17-0.2 0.202-0.172-0.17 0.2-0.202z"></path>
<path fill="#ff0" d="M13.836 18.909l0.060-0.061 0.050 0.050 0.045-0.045-0.050-0.050 0.060-0.061 0.050 0.050 0.045-0.045-0.050-0.050 0.060-0.061 0.101 0.1c0.020 0.020 0.020 0.040 0.005 0.055l-0.215 0.217c-0.017 0.017-0.044 0.017-0.060 0v0l-0.101-0.1z"></path>
<path fill="#ff0" d="M14.899 17.839l0.060-0.061 0.050 0.050 0.045-0.045-0.050-0.050 0.060-0.061 0.050 0.050 0.045-0.045-0.050-0.050 0.060-0.061 0.101 0.1c0.020 0.020 0.020 0.040 0.005 0.055l-0.215 0.217c-0.017 0.017-0.044 0.017-0.060 0v0l-0.101-0.1z"></path>
<path fill="#000" d="M14.298 18.605c-0.030-0.030 0.015-0.075 0.045-0.045l0.081 0.080-0.045 0.045-0.081-0.080z"></path>
<path fill="#000" d="M14.143 18.983c-0.030-0.030 0.010-0.070 0.040-0.040l0.061 0.060-0.040 0.040-0.061-0.060z"></path>
<path fill="#000" d="M15.206 17.913c-0.030-0.030 0.010-0.070 0.040-0.040l0.061 0.060-0.040 0.040-0.061-0.060z"></path>
<path fill="#ff0" d="M16.775 12.76c0.007-0.391 0.284-0.484 0.284-0.484 0.007 0 0.306 0.1 0.306 0.491h-0.59z"></path>
<path fill="#ff0" d="M16.533 12.283l-0.050 0.448h0.299c0-0.37 0.284-0.427 0.284-0.427 0.007 0 0.284 0.078 0.292 0.427h0.299l-0.057-0.455h-1.067zM16.462 12.738h1.209c0.021 0 0.043 0.021 0.043 0.050 0 0.036-0.021 0.057-0.043 0.057h-1.209c-0.021 0-0.043-0.021-0.043-0.057 0-0.028 0.021-0.050 0.050-0.050z"></path>
<path fill="#ff0" d="M16.903 12.731c0-0.235 0.164-0.299 0.164-0.299s0.164 0.071 0.164 0.299h-0.327M16.491 12.091h1.159c0.021 0 0.043 0.028 0.043 0.057 0 0.021-0.021 0.043-0.043 0.043h-1.159c-0.021 0-0.043-0.021-0.043-0.050 0-0.021 0.021-0.043 0.043-0.043zM16.519 12.198h1.095c0.021 0 0.043 0.021 0.043 0.050s-0.021 0.050-0.043 0.050h-1.102c-0.028 0-0.043-0.021-0.043-0.050s0.014-0.050 0.043-0.050zM16.875 11.444h0.085v0.057h0.064v-0.057h0.092v0.064h0.064v-0.071h0.085v0.142c0 0.028-0.014 0.043-0.036 0.043h-0.313c-0.021 0-0.043-0.014-0.043-0.036v-0.142zM17.202 11.636l0.021 0.455h-0.306l0.021-0.462h0.263"></path>
<path fill="#ff0" d="M16.832 11.849v0.242h-0.284v-0.242h0.284z"></path>
<path fill="#ff0" d="M18.34 11.849v0.242h-0.284v-0.242h0.284z"></path>
<path fill="#ff0" d="M16.498 11.664h0.085v0.071h0.064v-0.071h0.085v0.071h0.064v-0.071h0.085v0.142c0 0.028-0.014 0.043-0.036 0.043h-0.306c-0.024 0-0.043-0.019-0.043-0.043v0-0.142z"></path>
<path fill="#ff0" d="M18.005 11.664h0.085v0.071h0.064v-0.071h0.085v0.071h0.064v-0.071h0.085v0.142c0 0.028-0.014 0.043-0.036 0.043h-0.306c-0.024 0-0.043-0.019-0.043-0.043v0-0.142z"></path>
<path fill="#000" d="M17.038 11.778c0-0.043 0.064-0.043 0.064 0v0.114h-0.064v-0.114z"></path>
<path fill="#000" d="M16.661 11.935c0-0.043 0.057-0.043 0.057 0v0.085h-0.057v-0.085z"></path>
<path fill="#000" d="M18.169 11.935c0-0.043 0.057-0.043 0.057 0v0.085h-0.057v-0.085z"></path>
<path fill="#ff0" d="M20.594 12.76c-0.007-0.391-0.284-0.484-0.284-0.484-0.007 0-0.306 0.1-0.306 0.491h0.59z"></path>
<path fill="#ff0" d="M20.836 12.283l0.050 0.448h-0.299c0-0.37-0.284-0.427-0.284-0.427-0.007 0-0.284 0.078-0.292 0.427h-0.299l0.057-0.455h1.067zM20.907 12.738h-1.209c-0.021 0-0.043 0.021-0.043 0.050 0 0.036 0.021 0.057 0.043 0.057h1.209c0.021 0 0.043-0.021 0.043-0.057 0-0.028-0.021-0.050-0.050-0.050z"></path>
<path fill="#ff0" d="M20.466 12.731c0-0.235-0.164-0.299-0.164-0.299s-0.164 0.071-0.164 0.299h0.327M20.878 12.091h-1.159c-0.021 0-0.043 0.028-0.043 0.057 0 0.021 0.021 0.043 0.043 0.043h1.159c0.021 0 0.043-0.021 0.043-0.050 0-0.021-0.021-0.043-0.043-0.043zM20.85 12.198h-1.095c-0.021 0-0.043 0.021-0.043 0.050s0.021 0.050 0.043 0.050h1.102c0.028 0 0.043-0.021 0.043-0.050s-0.014-0.050-0.043-0.050zM20.494 11.444h-0.085v0.057h-0.064v-0.057h-0.092v0.064h-0.064v-0.071h-0.085v0.142c0 0.028 0.014 0.043 0.036 0.043h0.313c0.021 0 0.043-0.014 0.043-0.036v-0.142zM20.167 11.636l-0.021 0.455h0.306l-0.021-0.462h-0.263"></path>
<path fill="#ff0" d="M20.537 11.849v0.242h0.284v-0.242h-0.284z"></path>
<path fill="#ff0" d="M19.029 11.849v0.242h0.284v-0.242h-0.284z"></path>
<path fill="#ff0" d="M20.871 11.664h-0.085v0.071h-0.064v-0.071h-0.085v0.071h-0.064v-0.071h-0.085v0.142c0 0.028 0.014 0.043 0.036 0.043h0.306c0.024 0 0.043-0.019 0.043-0.043v0-0.142z"></path>
<path fill="#ff0" d="M19.364 11.664h-0.085v0.071h-0.064v-0.071h-0.085v0.071h-0.064v-0.071h-0.085v0.142c0 0.028 0.014 0.043 0.036 0.043h0.306c0.024 0 0.043-0.019 0.043-0.043v0-0.142z"></path>
<path fill="#000" d="M20.331 11.778c0-0.043-0.064-0.043-0.064 0v0.114h0.064v-0.114z"></path>
<path fill="#000" d="M20.708 11.935c0-0.043-0.057-0.043-0.057 0v0.085h0.057v-0.085z"></path>
<path fill="#000" d="M19.2 11.935c0-0.043-0.057-0.043-0.057 0v0.085h0.057v-0.085z"></path>
<path fill="#ff0" d="M20.537 18.434v0.242h0.284v-0.242h-0.284z"></path>
<path fill="#ff0" d="M19.364 18.249h-0.085v0.071h-0.064v-0.071h-0.085v0.071h-0.064v-0.071h-0.085v0.142c0 0.028 0.014 0.043 0.036 0.043h0.306c0.024 0 0.043-0.019 0.043-0.043v0-0.142z"></path>
<path fill="#000" d="M20.331 18.363c0-0.043-0.064-0.043-0.064 0v0.114h0.064v-0.114z"></path>
<path fill="#000" d="M20.708 18.52c0-0.043-0.057-0.043-0.057 0v0.085h0.057v-0.085z"></path>
<path fill="#000" d="M19.2 18.52c0-0.043-0.057-0.043-0.057 0v0.085h0.057v-0.085z"></path>
<path fill="#ff0" d="M19.916 18.802l-0.172 0.17 0.2 0.202 0.172-0.17-0.2-0.202z"></path>
<path fill="#ff0" d="M19.221 17.839l-0.060-0.061-0.050 0.050-0.045-0.045 0.050-0.050-0.060-0.061-0.050 0.050-0.045-0.045 0.050-0.050-0.060-0.061-0.101 0.1c-0.020 0.020-0.020 0.040-0.005 0.055l0.215 0.217c0.017 0.017 0.044 0.017 0.060 0v0l0.101-0.1z"></path>
<path fill="#000" d="M19.821 18.605c0.030-0.030-0.015-0.075-0.045-0.045l-0.081 0.080 0.045 0.045 0.081-0.080z"></path>
<path fill="#000" d="M19.976 18.983c0.030-0.030-0.010-0.070-0.040-0.040l-0.061 0.060 0.040 0.040 0.061-0.060z"></path>
<path fill="#000" d="M18.914 17.913c0.030-0.030-0.010-0.070-0.040-0.040l-0.061 0.060 0.040 0.040 0.061-0.060z"></path>
<path fill="#039" d="M16.541 16.173c0 0.002-0 0.003-0 0.005 0 0.155 0.059 0.295 0.157 0.401l-0-0c0.093 0.104 0.227 0.169 0.377 0.171h0c0.149 0 0.284-0.071 0.377-0.171 0.097-0.105 0.156-0.246 0.156-0.4 0-0.002 0-0.004-0-0.005v0-0.768h-1.067v0.768z"></path>
<path fill="#fff" d="M16.896 15.697c0 0.059-0.048 0.107-0.107 0.107s-0.107-0.048-0.107-0.107c0-0.059 0.048-0.107 0.107-0.107s0.107 0.048 0.107 0.107z"></path>
<path fill="#fff" d="M17.486 15.697c0 0.059-0.048 0.107-0.107 0.107s-0.107-0.048-0.107-0.107c0-0.059 0.048-0.107 0.107-0.107s0.107 0.048 0.107 0.107z"></path>
<path fill="#fff" d="M17.188 15.981c0 0.059-0.048 0.107-0.107 0.107s-0.107-0.048-0.107-0.107c0-0.059 0.048-0.107 0.107-0.107s0.107 0.048 0.107 0.107z"></path>
<path fill="#fff" d="M16.896 16.28c0 0.059-0.048 0.107-0.107 0.107s-0.107-0.048-0.107-0.107c0-0.059 0.048-0.107 0.107-0.107s0.107 0.048 0.107 0.107z"></path>
<path fill="#fff" d="M17.486 16.28c0 0.059-0.048 0.107-0.107 0.107s-0.107-0.048-0.107-0.107c0-0.059 0.048-0.107 0.107-0.107s0.107 0.048 0.107 0.107z"></path>
<path fill="#039" d="M16.541 14.324c0 0.002-0 0.003-0 0.005 0 0.155 0.059 0.295 0.157 0.401l-0-0c0.093 0.104 0.227 0.169 0.377 0.171h0c0.149 0 0.284-0.071 0.377-0.171 0.097-0.105 0.156-0.246 0.156-0.4 0-0.002 0-0.004-0-0.005v0-0.768h-1.067v0.768z"></path>
<path fill="#fff" d="M16.896 13.848c0 0.059-0.048 0.107-0.107 0.107s-0.107-0.048-0.107-0.107c0-0.059 0.048-0.107 0.107-0.107s0.107 0.048 0.107 0.107z"></path>
<path fill="#fff" d="M17.486 13.848c0 0.059-0.048 0.107-0.107 0.107s-0.107-0.048-0.107-0.107c0-0.059 0.048-0.107 0.107-0.107s0.107 0.048 0.107 0.107z"></path>
<path fill="#fff" d="M17.188 14.132c0 0.059-0.048 0.107-0.107 0.107s-0.107-0.048-0.107-0.107c0-0.059 0.048-0.107 0.107-0.107s0.107 0.048 0.107 0.107z"></path>
<path fill="#fff" d="M16.896 14.431c0 0.059-0.048 0.107-0.107 0.107s-0.107-0.048-0.107-0.107c0-0.059 0.048-0.107 0.107-0.107s0.107 0.048 0.107 0.107z"></path>
<path fill="#fff" d="M17.486 14.431c0 0.059-0.048 0.107-0.107 0.107s-0.107-0.048-0.107-0.107c0-0.059 0.048-0.107 0.107-0.107s0.107 0.048 0.107 0.107z"></path>
<path fill="#039" d="M15.061 16.173c0 0.002-0 0.003-0 0.005 0 0.155 0.059 0.295 0.157 0.401l-0-0c0.093 0.104 0.227 0.169 0.377 0.171h0c0.149 0 0.284-0.071 0.377-0.171 0.097-0.105 0.156-0.246 0.156-0.4 0-0.002 0-0.004-0-0.005v0-0.768h-1.067v0.768z"></path>
<path fill="#fff" d="M15.417 15.697c0 0.059-0.048 0.107-0.107 0.107s-0.107-0.048-0.107-0.107c0-0.059 0.048-0.107 0.107-0.107s0.107 0.048 0.107 0.107z"></path>
<path fill="#fff" d="M16.007 15.697c0 0.059-0.048 0.107-0.107 0.107s-0.107-0.048-0.107-0.107c0-0.059 0.048-0.107 0.107-0.107s0.107 0.048 0.107 0.107z"></path>
<path fill="#fff" d="M15.709 15.981c0 0.059-0.048 0.107-0.107 0.107s-0.107-0.048-0.107-0.107c0-0.059 0.048-0.107 0.107-0.107s0.107 0.048 0.107 0.107z"></path>
<path fill="#fff" d="M15.417 16.28c0 0.059-0.048 0.107-0.107 0.107s-0.107-0.048-0.107-0.107c0-0.059 0.048-0.107 0.107-0.107s0.107 0.048 0.107 0.107z"></path>
<path fill="#fff" d="M16.007 16.28c0 0.059-0.048 0.107-0.107 0.107s-0.107-0.048-0.107-0.107c0-0.059 0.048-0.107 0.107-0.107s0.107 0.048 0.107 0.107z"></path>
<path fill="#039" d="M18.020 16.173c0 0.002-0 0.003-0 0.005 0 0.155 0.059 0.295 0.157 0.401l-0-0c0.093 0.104 0.227 0.169 0.377 0.171h0c0.149 0 0.284-0.071 0.377-0.171 0.097-0.105 0.156-0.246 0.156-0.4 0-0.002 0-0.004-0-0.005v0-0.768h-1.067v0.768z"></path>
<path fill="#fff" d="M18.375 15.697c0 0.059-0.048 0.107-0.107 0.107s-0.107-0.048-0.107-0.107c0-0.059 0.048-0.107 0.107-0.107s0.107 0.048 0.107 0.107z"></path>
<path fill="#fff" d="M18.965 15.697c0 0.059-0.048 0.107-0.107 0.107s-0.107-0.048-0.107-0.107c0-0.059 0.048-0.107 0.107-0.107s0.107 0.048 0.107 0.107z"></path>
<path fill="#fff" d="M18.667 15.981c0 0.059-0.048 0.107-0.107 0.107s-0.107-0.048-0.107-0.107c0-0.059 0.048-0.107 0.107-0.107s0.107 0.048 0.107 0.107z"></path>
<path fill="#fff" d="M18.375 16.28c0 0.059-0.048 0.107-0.107 0.107s-0.107-0.048-0.107-0.107c0-0.059 0.048-0.107 0.107-0.107s0.107 0.048 0.107 0.107z"></path>
<path fill="#fff" d="M18.965 16.28c0 0.059-0.048 0.107-0.107 0.107s-0.107-0.048-0.107-0.107c0-0.059 0.048-0.107 0.107-0.107s0.107 0.048 0.107 0.107z"></path>
<path fill="#039" d="M16.541 18.008c0 0.002-0 0.003-0 0.005 0 0.155 0.059 0.295 0.157 0.401l-0-0c0.093 0.104 0.227 0.169 0.377 0.171h0c0.149 0 0.284-0.071 0.377-0.171 0.097-0.105 0.156-0.246 0.156-0.4 0-0.002 0-0.004-0-0.005v0-0.768h-1.067v0.768z"></path>
<path fill="#fff" d="M16.896 17.531c0 0.059-0.048 0.107-0.107 0.107s-0.107-0.048-0.107-0.107c0-0.059 0.048-0.107 0.107-0.107s0.107 0.048 0.107 0.107z"></path>
<path fill="#fff" d="M17.486 17.531c0 0.059-0.048 0.107-0.107 0.107s-0.107-0.048-0.107-0.107c0-0.059 0.048-0.107 0.107-0.107s0.107 0.048 0.107 0.107z"></path>
<path fill="#fff" d="M17.188 17.816c0 0.059-0.048 0.107-0.107 0.107s-0.107-0.048-0.107-0.107c0-0.059 0.048-0.107 0.107-0.107s0.107 0.048 0.107 0.107z"></path>
<path fill="#fff" d="M16.896 18.114c0 0.059-0.048 0.107-0.107 0.107s-0.107-0.048-0.107-0.107c0-0.059 0.048-0.107 0.107-0.107s0.107 0.048 0.107 0.107z"></path>
<path fill="#fff" d="M17.486 18.114c0 0.059-0.048 0.107-0.107 0.107s-0.107-0.048-0.107-0.107c0-0.059 0.048-0.107 0.107-0.107s0.107 0.048 0.107 0.107z"></path>
</svg>
