<!-- Generated by IcoMoon.io -->
<svg version="1.1" xmlns="http://www.w3.org/2000/svg" width="43" height="32" viewBox="0 0 43 32">
<title>py</title>
<path fill="#0038a8" d="M0 21.313h42.667v10.687h-42.667z"></path>
<path fill="#fff" d="M0 10.667h42.667v10.667h-42.667z"></path>
<path fill="#d52b1e" d="M0 0h42.667v10.667h-42.667z"></path>
<path fill="#000" d="M19.153 17.58l-0.473 0.28-0.147-0.247c-0.019-0.031-0.035-0.066-0.046-0.104l-0.001-0.003c-0.003-0.010-0.004-0.022-0.004-0.034 0-0.019 0.004-0.037 0.011-0.054l-0 0.001c0.013-0.027 0.033-0.047 0.067-0.067 0.027-0.013 0.047-0.020 0.073-0.020 0.003-0 0.007-0 0.010-0 0.023 0 0.045 0.005 0.064 0.014l-0.001-0 0.053 0.040v-0.087l0.020-0.033 0.1-0.153 0.093 0.167-0.093 0.16-0.020 0.053 0.007 0.040 0.007 0.013 0.2-0.113zM18.787 17.6l-0.040-0.067-0.027-0.033c-0.008-0.008-0.020-0.013-0.033-0.013-0 0-0 0-0.001 0h0c-0.002-0-0.004-0-0.007-0-0.010 0-0.019 0.003-0.027 0.007l0-0-0.027 0.040c0 0.013 0.007 0.033 0.027 0.060l0.033 0.067zM18.34 17.233l-0.147-0.433 0.113-0.040 0.087 0.273 0.087-0.027-0.087-0.253 0.107-0.033 0.087 0.247 0.1-0.033-0.093-0.28 0.12-0.033 0.147 0.44zM18.147 16.587l-0.027-0.28c-0.013-0.067 0-0.107 0.027-0.14 0.027-0.040 0.067-0.060 0.12-0.067 0.053 0 0.1 0.007 0.133 0.040 0.033 0.027 0.053 0.080 0.067 0.147l0.007 0.093 0.2-0.027 0.027 0.173zM18.367 16.387l-0.007-0.040c0-0.033-0.013-0.053-0.027-0.067-0.009-0.009-0.022-0.014-0.036-0.014-0.004 0-0.007 0-0.011 0.001l0-0c-0.017 0.004-0.031 0.013-0.040 0.026l-0 0c-0.013 0.007-0.013 0.033-0.013 0.067l0.007 0.047zM18.133 15.553l0.020-0.173 0.32 0.040c0.035 0.004 0.066 0.013 0.095 0.027l-0.002-0.001c0.027 0.013 0.053 0.027 0.067 0.053 0.027 0.020 0.033 0.047 0.040 0.067 0.013 0.040 0.013 0.080 0.007 0.127l-0.013 0.087c-0.007 0.033-0.020 0.053-0.033 0.073-0.027 0.043-0.069 0.074-0.119 0.086l-0.001 0h-0.093l-0.327-0.033 0.020-0.167 0.333 0.033c0.027 0 0.053 0 0.067-0.013 0.027-0.013 0.033-0.040 0.040-0.067 0-0.003 0-0.005 0-0.008 0-0.022-0.008-0.042-0.021-0.058l0 0c-0.013-0.027-0.040-0.033-0.067-0.040zM18.2 15.153l0.113-0.307c0.013-0.053 0.040-0.087 0.073-0.1 0.020-0.012 0.043-0.019 0.068-0.019 0.014 0 0.027 0.002 0.039 0.006l-0.001-0c0.033 0.013 0.053 0.033 0.067 0.060 0.013 0.020 0.020 0.040 0.020 0.067 0.020-0.033 0.047-0.053 0.073-0.067 0.014-0.005 0.030-0.008 0.047-0.008s0.033 0.003 0.048 0.009l-0.001-0c0.053 0.018 0.092 0.063 0.1 0.119l0 0.001v0.067l-0.020 0.067-0.1 0.28zM18.467 15.060l0.027-0.073c0-0.027 0.007-0.047 0-0.053 0-0.013-0.013-0.027-0.027-0.033-0.006-0.003-0.013-0.005-0.020-0.005s-0.014 0.002-0.020 0.005l0-0c-0.013 0.013-0.027 0.027-0.033 0.053l-0.027 0.067zM18.667 15.127l0.033-0.080c0.007-0.027 0.013-0.047 0-0.067-0.005-0.012-0.015-0.021-0.026-0.027l-0-0c-0.007-0.004-0.015-0.006-0.023-0.006s-0.017 0.002-0.024 0.006l0-0-0.033 0.060-0.027 0.080zM18.467 14.487l0.087-0.147 0.36 0.213 0.133-0.227 0.12 0.067-0.227 0.373zM18.8 13.98l0.107-0.133 0.427 0.353-0.107 0.133zM19.54 13.693l0.147-0.067c0.020 0.040 0.027 0.080 0.033 0.113 0 0.003 0 0.007 0 0.011 0 0.032-0.007 0.063-0.021 0.091l0.001-0.001c-0.020 0.040-0.047 0.073-0.079 0.1l-0.001 0c-0.035 0.036-0.081 0.062-0.132 0.073l-0.002 0c-0.020 0.006-0.043 0.010-0.067 0.010s-0.047-0.004-0.068-0.010l0.002 0c-0.055-0.023-0.1-0.060-0.133-0.106l-0.001-0.001c-0.067-0.067-0.093-0.133-0.087-0.207 0.008-0.079 0.048-0.147 0.106-0.193l0.001-0c0.041-0.036 0.094-0.060 0.152-0.067l0.001-0c0.047-0.007 0.1 0 0.153 0.033l-0.093 0.127c-0.011-0.009-0.025-0.015-0.039-0.020l-0.001-0c-0.007-0.002-0.015-0.003-0.023-0.003s-0.016 0.001-0.024 0.003l0.001-0c-0.016 0.006-0.029 0.015-0.040 0.027l-0 0c-0.025 0.018-0.041 0.048-0.041 0.081 0 0.005 0 0.009 0.001 0.013l-0-0.001c0 0.027 0.027 0.060 0.053 0.093 0.040 0.047 0.073 0.073 0.107 0.080 0.027 0 0.053 0 0.080-0.027 0.027-0.020 0.040-0.040 0.040-0.067s-0.007-0.053-0.027-0.087zM20.127 13.48l-0.167 0.093 0.020 0.093-0.153 0.080-0.080-0.58 0.167-0.087 0.44 0.387-0.16 0.087zM20.040 13.393l-0.147-0.147 0.040 0.2zM20.56 12.827l0.253-0.040c0.018-0.004 0.039-0.006 0.060-0.006s0.042 0.002 0.062 0.006l-0.002-0c0.033 0.007 0.067 0.020 0.087 0.047s0.047 0.047 0.060 0.080c0.013 0.027 0.027 0.067 0.027 0.1 0.013 0.060 0.013 0.107 0.007 0.133-0.007 0.036-0.021 0.067-0.040 0.094l0-0.001c-0.017 0.025-0.039 0.046-0.066 0.060l-0.001 0c-0.029 0.014-0.062 0.026-0.097 0.033l-0.003 0-0.247 0.040zM20.753 12.92l0.053 0.3 0.040-0.007c0.033-0.007 0.060-0.013 0.067-0.027 0.020-0.007 0.027-0.027 0.033-0.047v-0.093c-0.013-0.060-0.033-0.093-0.053-0.113s-0.053-0.027-0.1-0.020zM21.273 12.733l0.453 0.020v0.12l-0.287-0.013-0.007 0.087 0.267 0.013-0.007 0.113-0.267-0.013v0.107l0.293 0.013-0.007 0.127-0.467-0.020zM21.94 12.787l0.16 0.040-0.1 0.4 0.267 0.067-0.040 0.133-0.42-0.107zM22.82 13.080l0.247 0.147c0.053 0.027 0.087 0.067 0.093 0.107 0.013 0.040 0 0.087-0.020 0.133-0.023 0.044-0.064 0.076-0.112 0.086l-0.001 0c-0.040 0.007-0.093 0-0.153-0.040l-0.080-0.047-0.107 0.173-0.147-0.087zM22.847 13.373l0.040 0.020 0.067 0.020c0.017-0.002 0.032-0.012 0.040-0.026l0-0c0.003-0.007 0.004-0.015 0.004-0.023s-0.002-0.016-0.004-0.024l0 0c0-0.020-0.013-0.033-0.040-0.053l-0.040-0.020zM23.327 14.013l-0.14-0.133-0.080 0.047-0.133-0.113 0.533-0.267 0.133 0.133-0.227 0.54-0.133-0.12zM23.38 13.9l0.093-0.187-0.18 0.107zM23.447 14.267l0.46-0.313 0.153 0.233 0.067 0.113-0.007 0.080c-0.014 0.031-0.037 0.057-0.066 0.073l-0.001 0c-0.020 0.020-0.047 0.027-0.067 0.027-0.005 0.001-0.010 0.001-0.016 0.001-0.023 0-0.045-0.005-0.065-0.015l0.001 0c-0.013 0-0.033-0.020-0.053-0.033l0.013 0.047-0.013 0.040c-0.004 0.015-0.008 0.029-0.014 0.041l0.001-0.001-0.087 0.153-0.107-0.153 0.087-0.173 0.020-0.047c0-0.002 0-0.004 0-0.006 0-0.015-0.005-0.029-0.014-0.041l0 0-0.007-0.013-0.187 0.133zM23.813 14.227l0.047 0.060 0.027 0.027c0.013 0.013 0.020 0.013 0.033 0.013 0.002 0 0.004 0 0.007 0 0.010 0 0.019-0.003 0.027-0.007l-0 0c0.012-0.010 0.019-0.024 0.020-0.040v-0c0-0.013 0-0.033-0.020-0.060l-0.047-0.060zM23.987 15.053l-0.067-0.187-0.1 0.013-0.067-0.167 0.593-0.007 0.067 0.173-0.433 0.4-0.067-0.173zM24.087 14.973l0.16-0.133-0.207 0.020zM24.227 15.573l0.113-0.013 0.040 0.26-0.233 0.033c-0.033-0.035-0.062-0.074-0.085-0.117l-0.001-0.003c-0.019-0.039-0.033-0.084-0.040-0.131l-0-0.002c-0.005-0.021-0.008-0.045-0.008-0.070 0-0.034 0.005-0.067 0.015-0.099l-0.001 0.002c0.020-0.043 0.049-0.079 0.086-0.106l0.001-0.001c0.041-0.030 0.091-0.052 0.145-0.060l0.002-0c0.016-0.003 0.034-0.004 0.053-0.004 0.038 0 0.075 0.006 0.109 0.018l-0.002-0.001c0.047 0.019 0.086 0.051 0.113 0.092l0.001 0.001c0.027 0.040 0.040 0.087 0.053 0.147v0.133c-0.006 0.033-0.020 0.063-0.040 0.087l0-0c-0.020 0.027-0.047 0.040-0.080 0.060l-0.053-0.16c0.020-0.007 0.033-0.020 0.047-0.040s0.007-0.040 0-0.067c-0.004-0.033-0.021-0.062-0.046-0.080l-0-0c-0.027-0.020-0.067-0.027-0.133-0.013-0.044 0.004-0.083 0.021-0.114 0.047l0-0c-0.027 0.027-0.033 0.067-0.027 0.1 0 0.020 0.007 0.040 0.020 0.053l0.033 0.053h0.053zM24.587 16.373l-0.013 0.173-0.333-0.027c-0.032-0.005-0.062-0.014-0.088-0.027l0.002 0.001c-0.026-0.013-0.049-0.031-0.066-0.053l-0-0c-0.018-0.020-0.031-0.045-0.040-0.072l-0-0.001c-0.009-0.029-0.014-0.062-0.014-0.097 0-0.008 0-0.016 0.001-0.024l-0 0.001 0.013-0.087 0.033-0.080c0.014-0.021 0.032-0.039 0.053-0.053l0.001-0c0.019-0.013 0.041-0.022 0.066-0.026l0.001-0c0.028-0.008 0.059-0.013 0.092-0.013 0 0 0.001 0 0.001 0h-0l0.333 0.033-0.020 0.167-0.333-0.027c-0.033 0-0.060 0-0.073 0.020-0.019 0.016-0.032 0.040-0.033 0.066v0c0 0.027 0 0.053 0.020 0.067 0.013 0.020 0.033 0.033 0.067 0.033zM23.98 16.96l0.060-0.187-0.080-0.053 0.053-0.167 0.467 0.373-0.067 0.173-0.587 0.027 0.060-0.167zM24.107 16.96l0.2 0.007-0.167-0.12zM24.307 17.413l-0.1 0.16h-0.22l0.1 0.193-0.093 0.16-0.167-0.347-0.2-0.12 0.093-0.147 0.2 0.12z"></path>
<path fill="#009b3a" d="M21.873 14.087s1.56 0.673 1.287 2.060c-0.267 1.387-1.133 1.373-1.48 1.533-0.333 0.147-0.573 0.367-0.707 0.333-0.133-0.027-0.313-0.133-0.313-0.133s-0.013 0.233 0.26 0.267c0.273 0.047 0.633-0.353 0.8-0.4 0.173-0.040 1.233-0.16 1.493-1.567 0.3-1.507-1.333-2.047-1.333-2.093z"></path>
<path fill="#009b3a" d="M22.66 14.387c0.008 0.067 0.003 0.114-0.017 0.12-0.022 0.006-0.055-0.044-0.083-0.118l-0-0.001c-0.008-0.021-0.016-0.046-0.023-0.073-0.030-0.114-0.032-0.212-0.003-0.22s0.076 0.079 0.106 0.192c0.010 0.036 0.016 0.071 0.020 0.101l-0-0.001z"></path>
<path fill="#009b3a" d="M22.607 14.4c0.056 0.112 0.081 0.212 0.058 0.224s-0.091-0.071-0.148-0.185c-0.001-0.002-0.002-0.004-0.003-0.006l0 0c-0.056-0.112-0.081-0.212-0.058-0.224s0.091 0.071 0.148 0.185c0.001 0.002 0.002 0.004 0.003 0.006l-0-0zM22.453 14.5c0.103 0.033 0.177 0.080 0.169 0.107-0.008 0.025-0.086 0.024-0.181-0l-0.001-0c-0.103-0.033-0.177-0.080-0.169-0.107 0.008-0.025 0.086-0.024 0.181 0l0.001 0z"></path>
<path fill="#009b3a" d="M22.473 14.447c0.001 0.001 0.003 0.002 0.004 0.003 0.105 0.072 0.179 0.148 0.163 0.17s-0.11-0.017-0.214-0.086l-0-0c-0.001-0.001-0.003-0.002-0.004-0.003-0.105-0.072-0.179-0.148-0.163-0.17s0.11 0.017 0.214 0.086l0 0z"></path>
<path fill="#009b3a" d="M22.54 14.42c0 0 0 0 0.001 0.001 0.085 0.089 0.139 0.175 0.12 0.193s-0.102-0.039-0.187-0.127l-0-0c-0-0-0-0-0.001-0.001-0.085-0.089-0.139-0.175-0.12-0.193s0.102 0.039 0.187 0.127l0 0z"></path>
<path fill="#009b3a" d="M22.647 14.613l-0.067 0.040c-0.020 0-0.040-0.020-0.080 0s-0.067 0.060-0.073 0.080c-0.007 0.020 0.013 0.033 0.060 0.007 0.047-0.020 0.060-0.060 0.080-0.073l0.087-0.047 0.053-0.087c0.020-0.027 0.080-0.067 0.107-0.12 0.020-0.040 0.013-0.073-0.013-0.060-0.035 0.020-0.062 0.050-0.079 0.085l-0.001 0.001c-0.013 0.027 0 0.067-0.020 0.093l-0.053 0.080zM23.133 14.773c0.003 0.185-0.025 0.332-0.064 0.333-0.040 0.001-0.077-0.155-0.083-0.348-0-0.007-0-0.013-0-0.020l0 0.001c-0.003-0.185 0.025-0.332 0.064-0.333 0.040-0.001 0.077 0.155 0.083 0.348 0 0.007 0 0.013 0 0.020l-0-0.001z"></path>
<path fill="#009b3a" d="M23.053 14.767c0.041 0.19 0.043 0.348 0.005 0.357s-0.106-0.142-0.149-0.338c-0.001-0.004-0.002-0.009-0.003-0.013l0 0.001c-0.038-0.178-0.040-0.326-0.004-0.334 0.037-0.008 0.1 0.135 0.141 0.319 0.001 0.005 0.002 0.010 0.003 0.016l-0-0.001z"></path>
<path fill="#009b3a" d="M22.8 14.847c0.006 0.004 0.012 0.008 0.019 0.013 0.142 0.1 0.239 0.207 0.216 0.241-0.022 0.032-0.145-0.016-0.28-0.107l-0.001-0.001c-0.006-0.004-0.012-0.008-0.019-0.013-0.142-0.1-0.239-0.207-0.216-0.241 0.022-0.032 0.145 0.016 0.28 0.107l0.001 0.001z"></path>
<path fill="#009b3a" d="M22.853 14.773c0.002 0.003 0.005 0.006 0.008 0.009 0.122 0.15 0.196 0.291 0.166 0.315s-0.148-0.073-0.267-0.217l-0-0c-0.002-0.002-0.004-0.005-0.006-0.007-0.118-0.145-0.19-0.282-0.161-0.306s0.144 0.072 0.26 0.213l0 0z"></path>
<path fill="#009b3a" d="M22.953 14.767c0 0 0 0.001 0 0.001 0.091 0.17 0.138 0.323 0.105 0.341s-0.134-0.105-0.225-0.275l-0-0c-0-0-0-0.001-0-0.001-0.091-0.17-0.138-0.323-0.105-0.341s0.134 0.105 0.225 0.275l0 0z"></path>
<path fill="#009b3a" d="M23.040 15.093l-0.12 0.027c-0.020 0-0.040-0.047-0.1-0.033s-0.113 0.053-0.133 0.080c-0.013 0.027 0.007 0.053 0.080 0.040 0.080-0.013 0.107-0.067 0.147-0.067 0.033-0.013 0.093-0.027 0.133-0.027 0.013-0.027 0.067-0.080 0.1-0.107 0.033-0.033 0.133-0.067 0.18-0.12s0.047-0.107 0-0.1c-0.053 0.018-0.098 0.048-0.133 0.086l-0 0c-0.033 0.040-0.027 0.1-0.060 0.133l-0.093 0.087zM23.38 15.42c-0.030 0.176-0.081 0.31-0.118 0.304-0.039-0.006-0.047-0.162-0.019-0.348 0.001-0.008 0.002-0.016 0.004-0.024l-0 0.001c0.030-0.176 0.081-0.31 0.118-0.304 0.039 0.006 0.047 0.162 0.019 0.348-0.001 0.008-0.002 0.016-0.004 0.024l0-0.001z"></path>
<path fill="#009b3a" d="M23.307 15.4c0 0.006 0.001 0.014 0.001 0.021 0.006 0.184-0.018 0.334-0.055 0.335s-0.072-0.147-0.078-0.331c-0.001-0.016-0.001-0.032-0.001-0.048l0 0.002c-0-0.006-0.001-0.014-0.001-0.021-0.006-0.184 0.018-0.334 0.055-0.335s0.072 0.147 0.078 0.331c0.001 0.016 0.001 0.032 0.001 0.048l-0-0.002z"></path>
<path fill="#009b3a" d="M23.047 15.427c0.025 0.021 0.052 0.048 0.080 0.076 0.12 0.124 0.194 0.248 0.165 0.276s-0.15-0.050-0.27-0.174c-0.015-0.015-0.029-0.031-0.043-0.046l0.001 0.002c-0.025-0.021-0.052-0.048-0.080-0.076-0.12-0.124-0.194-0.248-0.165-0.276s0.15 0.050 0.27 0.174c0.015 0.015 0.029 0.031 0.043 0.046l-0.001-0.002z"></path>
<path fill="#009b3a" d="M23.113 15.367c0.002 0.003 0.004 0.007 0.005 0.010 0.092 0.171 0.139 0.325 0.104 0.344s-0.132-0.101-0.223-0.267l-0-0.001c-0.002-0.003-0.004-0.007-0.005-0.010-0.092-0.171-0.139-0.325-0.104-0.344s0.132 0.101 0.223 0.267l0 0.001z"></path>
<path fill="#009b3a" d="M23.207 15.38c0 0.001 0.001 0.002 0.001 0.003 0.057 0.181 0.075 0.337 0.039 0.348s-0.11-0.125-0.167-0.304l-0-0c-0-0.001-0-0.001-0.001-0.002-0.060-0.19-0.078-0.353-0.041-0.365s0.115 0.131 0.175 0.32l0 0z"></path>
<path fill="#009b3a" d="M23.233 15.72h-0.113c-0.020 0-0.033-0.053-0.093-0.053-0.054 0.001-0.103 0.021-0.14 0.054l0-0c-0.027 0.027-0.007 0.053 0.067 0.053s0.113-0.033 0.153-0.040h0.133l0.12-0.080c0.040-0.027 0.14-0.040 0.2-0.087 0.047-0.040 0.060-0.093 0.020-0.093-0.058 0.007-0.11 0.029-0.154 0.061l0.001-0.001c-0.033 0.027-0.040 0.087-0.080 0.113-0.027 0.013-0.107 0.073-0.113 0.067M23.4 16.14c-0.092 0.147-0.189 0.247-0.22 0.228-0.033-0.020 0.018-0.164 0.114-0.321 0.004-0.007 0.009-0.014 0.013-0.021l-0.001 0.001c0.092-0.147 0.189-0.247 0.22-0.228 0.033 0.020-0.018 0.164-0.114 0.321-0.004 0.007-0.009 0.014-0.013 0.021l0.001-0.001"></path>
<path fill="#009b3a" d="M23.34 16.087c-0.067 0.173-0.147 0.3-0.182 0.287s-0.010-0.169 0.057-0.348c0.002-0.004 0.003-0.009 0.005-0.013l-0 0.001c0.067-0.173 0.147-0.3 0.182-0.287s0.010 0.169-0.057 0.348c-0.002 0.004-0.003 0.009-0.005 0.013l0-0.001M23.093 16.007c0.003 0.007 0.006 0.016 0.009 0.025 0.067 0.184 0.090 0.344 0.052 0.358-0.036 0.013-0.115-0.111-0.181-0.281l-0-0.001c-0.003-0.007-0.006-0.016-0.009-0.025-0.067-0.184-0.090-0.344-0.052-0.358 0.036-0.013 0.115 0.111 0.181 0.281l0 0.001"></path>
<path fill="#009b3a" d="M23.173 15.98c0 0.003 0.001 0.007 0.001 0.011 0.016 0.19-0.001 0.348-0.038 0.351s-0.079-0.143-0.096-0.328l-0-0.001c-0-0.003-0.001-0.007-0.001-0.011-0.016-0.191 0.001-0.348 0.038-0.351s0.079 0.143 0.096 0.328l0 0.001"></path>
<path fill="#009b3a" d="M23.267 16.027c-0 0.001-0 0.002-0 0.003-0.018 0.191-0.063 0.342-0.1 0.339s-0.051-0.159-0.033-0.348v-0c0-0.001 0-0.002 0-0.003 0.018-0.191 0.063-0.342 0.1-0.339s0.051 0.159 0.033 0.348v0"></path>
<path fill="#009b3a" d="M23.153 16.353s-0.093-0.033-0.107-0.047c-0.020-0.013-0.007-0.053-0.067-0.087-0.022-0.009-0.047-0.013-0.073-0.013s-0.052 0.005-0.075 0.014l0.001-0c-0.033 0-0.027 0.040 0.040 0.067 0.067 0.040 0.12 0.013 0.153 0.027l0.12 0.060c0.033-0.013 0.107-0.020 0.147-0.027s0.14 0.027 0.213 0c0.060-0.020 0.087-0.067 0.047-0.080-0.023-0.006-0.049-0.010-0.077-0.010s-0.054 0.004-0.079 0.010l0.002-0c-0.047 0.007-0.073 0.067-0.12 0.067-0.033 0-0.127 0.027-0.133 0.020M23.213 16.867c-0.012 0.012-0.027 0.025-0.042 0.039-0.152 0.134-0.3 0.214-0.332 0.178s0.066-0.174 0.217-0.308c0.029-0.026 0.058-0.049 0.086-0.070l-0.002 0.002c0.018-0.018 0.040-0.039 0.063-0.059 0.152-0.134 0.3-0.214 0.332-0.178s-0.066 0.174-0.217 0.308c-0.039 0.034-0.077 0.065-0.114 0.091l0.002-0.001"></path>
<path fill="#009b3a" d="M23.153 16.793c-0.127 0.161-0.253 0.268-0.287 0.242-0.035-0.027 0.042-0.187 0.173-0.357 0.005-0.006 0.010-0.012 0.014-0.019l-0.001 0.001c0.127-0.161 0.253-0.268 0.287-0.242 0.035 0.027-0.042 0.187-0.173 0.357-0.005 0.006-0.010 0.012-0.014 0.019l0.001-0.001"></path>
<path fill="#009b3a" d="M22.913 16.613c0.007 0.042 0.013 0.092 0.016 0.144 0.012 0.202-0.016 0.368-0.064 0.371s-0.097-0.159-0.109-0.361c-0.002-0.031-0.003-0.061-0.003-0.090l0 0.003c-0.007-0.042-0.013-0.092-0.016-0.144-0.012-0.202 0.016-0.368 0.064-0.371s0.097 0.159 0.109 0.361c0.002 0.031 0.003 0.061 0.003 0.090l-0-0.003"></path>
<path fill="#009b3a" d="M23.007 16.613c-0.043 0.161-0.097 0.273-0.133 0.265-0.034-0.007-0.041-0.122-0.021-0.276l0-0.003c0.005-0.041 0.013-0.087 0.023-0.136 0.044-0.213 0.114-0.378 0.157-0.369s0.043 0.189-0.001 0.401c-0.008 0.040-0.017 0.078-0.027 0.113l0.001-0.003"></path>
<path fill="#009b3a" d="M23.087 16.693c-0.013 0.040-0.029 0.086-0.049 0.134-0.083 0.205-0.184 0.357-0.225 0.34s-0.007-0.196 0.076-0.401c0.019-0.046 0.038-0.090 0.058-0.129l-0.001 0.002c0.013-0.040 0.029-0.086 0.049-0.134 0.083-0.205 0.184-0.357 0.225-0.34s0.007 0.196-0.076 0.401c-0.019 0.046-0.038 0.090-0.058 0.129l0.001-0.002"></path>
<path fill="#009b3a" d="M22.867 17.020c-0.039-0.030-0.074-0.061-0.107-0.093l0 0c-0.013-0.020 0.007-0.067-0.047-0.12s-0.12-0.067-0.16-0.067c-0.040 0.007-0.040 0.047 0.020 0.107 0.067 0.067 0.133 0.053 0.16 0.080 0.040 0.027 0.093 0.073 0.113 0.107l0.173 0.027c0.047 0 0.147 0.073 0.233 0.073 0.067 0 0.12-0.033 0.080-0.067-0.048-0.036-0.108-0.060-0.172-0.067l-0.002-0c-0.053 0-0.1 0.053-0.147 0.040l-0.153-0.020M22.707 17.507c-0.207 0.034-0.376 0.023-0.385-0.026-0.009-0.051 0.16-0.124 0.378-0.163 0.009-0.002 0.019-0.003 0.028-0.005l-0.001 0c0.207-0.034 0.376-0.023 0.385 0.026 0.009 0.051-0.16 0.124-0.378 0.163-0.009 0.002-0.019 0.003-0.028 0.005l0.001-0"></path>
<path fill="#009b3a" d="M22.7 17.4c-0.214 0.082-0.397 0.113-0.414 0.070-0.018-0.045 0.146-0.151 0.366-0.237 0.005-0.002 0.011-0.004 0.016-0.006l-0.001 0c0.221-0.085 0.411-0.117 0.429-0.072 0.018 0.046-0.151 0.156-0.379 0.246-0.006 0.002-0.011 0.004-0.017 0.007l0.001-0"></path>
<path fill="#009b3a" d="M22.56 17.093c-0.092 0.172-0.192 0.288-0.235 0.267-0.038-0.019-0.017-0.144 0.047-0.298l0.001-0.003c0.012-0.030 0.028-0.064 0.045-0.099 0.098-0.198 0.214-0.34 0.26-0.318s0.005 0.202-0.093 0.4c-0.009 0.018-0.018 0.035-0.027 0.052l0.001-0.002"></path>
<path fill="#009b3a" d="M22.66 17.147c-0.003 0.003-0.006 0.007-0.009 0.010-0.167 0.186-0.332 0.31-0.369 0.277s0.064-0.205 0.225-0.387l0-0.001c0.003-0.003 0.006-0.007 0.009-0.010 0.167-0.186 0.332-0.31 0.369-0.277s-0.064 0.205-0.225 0.387l-0 0.001"></path>
<path fill="#009b3a" d="M22.687 17.273c-0.018 0.015-0.039 0.031-0.061 0.048-0.19 0.145-0.368 0.232-0.397 0.194s0.102-0.186 0.292-0.332c0.021-0.016 0.041-0.031 0.061-0.045l-0.002 0.002c0.168-0.119 0.312-0.184 0.338-0.15s-0.074 0.154-0.23 0.282l-0.002 0.002"></path>
<path fill="#009b3a" d="M22.293 17.447c-0.016-0.039-0.032-0.088-0.045-0.138l-0.002-0.008c-0.007-0.027 0.040-0.053 0.020-0.133-0.023-0.066-0.068-0.119-0.125-0.153l-0.001-0.001c-0.033-0.020-0.060 0.013-0.033 0.107s0.093 0.127 0.113 0.173l0.053 0.16 0.147 0.127c0.040 0.033 0.1 0.16 0.18 0.207 0.067 0.047 0.133 0.033 0.12-0.013-0.031-0.065-0.076-0.119-0.132-0.159l-0.001-0.001c-0.047-0.040-0.12-0.020-0.167-0.053-0.027-0.033-0.133-0.107-0.133-0.113"></path>
<path fill="#009b3a" d="M22.053 17.867c-0.179-0.010-0.31-0.055-0.311-0.111s0.131-0.106 0.308-0.122l0.003-0c0.179 0.010 0.31 0.055 0.311 0.111s-0.131 0.106-0.308 0.122l-0.003 0"></path>
<path fill="#009b3a" d="M22 17.5c-0.144 0.187-0.302 0.306-0.352 0.267s0.026-0.223 0.17-0.412c0.001-0.001 0.001-0.002 0.002-0.003l-0 0c0.141-0.182 0.294-0.298 0.343-0.26s-0.025 0.218-0.167 0.402c-0.001 0.001-0.002 0.003-0.003 0.004l0-0"></path>
<path fill="#009b3a" d="M22.053 17.687c-0.213 0.092-0.405 0.118-0.431 0.060s0.128-0.183 0.344-0.277c0.002-0.001 0.005-0.002 0.007-0.003l-0 0c0.213-0.092 0.405-0.118 0.431-0.060s-0.128 0.183-0.344 0.277c-0.002 0.001-0.005 0.002-0.007 0.003l0-0M22.167 14.127c0.088 0.083 0.142 0.159 0.125 0.179-0.019 0.022-0.12-0.034-0.225-0.125l-0-0c-0-0-0.001-0.001-0.001-0.001-0.105-0.092-0.175-0.185-0.156-0.207s0.121 0.034 0.226 0.126c0.011 0.010 0.022 0.020 0.032 0.029l-0.001-0.001M22.040 14.227c0.119 0.022 0.204 0.056 0.2 0.082-0.003 0.023-0.078 0.032-0.178 0.025l-0.002-0c-0.025-0.002-0.055-0.005-0.085-0.009-0.142-0.020-0.254-0.061-0.25-0.090s0.123-0.036 0.265-0.016c0.018 0.003 0.035 0.005 0.051 0.008l-0.002-0"></path>
<path fill="#009b3a" d="M22.093 14.16c0.141 0.072 0.244 0.149 0.232 0.174s-0.139-0.013-0.282-0.085c-0.001-0.001-0.003-0.001-0.004-0.002l0 0c-0.141-0.072-0.244-0.149-0.232-0.174s0.139 0.013 0.282 0.085c0.001 0.001 0.003 0.001 0.004 0.002l-0-0M20.247 17.467s0.34 0.073 0.64 0.18c0.3 0.113 0.753 0.48 0.873 0.507 0.133 0 0.327-0.047 0.4-0.24-0.213 0.053-0.333 0.14-0.533 0.033-0.073-0.027-0.307-0.24-0.567-0.353-0.253-0.113-0.767-0.24-0.767-0.24l-0.047 0.113M20.613 14.367l0.393-0.207-0.433 0.113-0.053 0.073 0.093 0.020"></path>
<path fill="#009b3a" d="M20.987 14.467c-0.153-0.033-0.387-0.087-0.533-0.093 0.1-0.113 0.24-0.313 0.333-0.427-0.067 0.113-0.153 0.267-0.187 0.367 0.1 0.060 0.267 0.107 0.387 0.147"></path>
<path fill="#009b3a" d="M20.54 14.393c0.071-0.058 0.186-0.148 0.302-0.236l0.051-0.037-0.407 0.18-0.040 0.087h0.093"></path>
<path fill="#009b3a" d="M20.913 14.46c-0.153-0.033-0.387-0.087-0.533-0.1 0.093-0.113 0.233-0.313 0.32-0.44-0.053 0.12-0.147 0.273-0.18 0.387 0.107 0.060 0.273 0.107 0.4 0.153"></path>
<path fill="#009b3a" d="M20.487 14.413l0.407-0.173-0.44 0.073-0.060 0.067 0.087 0.033"></path>
<path fill="#009b3a" d="M20.867 14.467c-0.153-0.020-0.4-0.047-0.547-0.040 0.087-0.133 0.2-0.353 0.273-0.487-0.040 0.127-0.113 0.293-0.133 0.407 0.113 0.053 0.287 0.080 0.407 0.113"></path>
<path fill="#009b3a" d="M20.44 14.413l0.28-0.333-0.353 0.26-0.020 0.087 0.093-0.013"></path>
<path fill="#009b3a" d="M20.867 14.487c-0.167 0-0.427-0.020-0.587 0 0.080-0.153 0.18-0.4 0.24-0.553-0.027 0.14-0.087 0.333-0.093 0.46 0.12 0.040 0.307 0.067 0.44 0.093"></path>
<path fill="#009b3a" d="M20.387 14.493l0.333-0.327-0.407 0.233-0.027 0.093h0.1"></path>
<path fill="#009b3a" d="M20.793 14.493c-0.18 0-0.453-0.007-0.633 0.013 0.12-0.167 0.28-0.44 0.373-0.607-0.067 0.153-0.16 0.36-0.2 0.5 0.127 0.047 0.32 0.067 0.46 0.093"></path>
<path fill="#009b3a" d="M20.267 14.52l0.44-0.367-0.493 0.26-0.053 0.107h0.107"></path>
<path fill="#009b3a" d="M20.733 14.507c-0.18 0.027-0.46 0.053-0.627 0.1 0.087-0.18 0.207-0.467 0.28-0.647-0.040 0.16-0.113 0.373-0.133 0.52 0.133 0.027 0.333 0.020 0.473 0.027"></path>
<path fill="#009b3a" d="M20.213 14.593l0.333-0.467-0.42 0.38-0.020 0.113 0.107-0.027"></path>
<path fill="#009b3a" d="M20.627 14.56c-0.173 0.020-0.453 0.033-0.627 0.067 0.1-0.173 0.233-0.453 0.32-0.627-0.053 0.153-0.133 0.367-0.16 0.513 0.133 0.033 0.333 0.033 0.467 0.047"></path>
<path fill="#009b3a" d="M20.153 14.64l0.427-0.367-0.487 0.26-0.047 0.107h0.107"></path>
<path fill="#009b3a" d="M20.58 14.58c-0.18 0.040-0.46 0.087-0.627 0.14 0.080-0.18 0.187-0.473 0.253-0.653-0.033 0.16-0.093 0.373-0.107 0.52 0.133 0.020 0.333 0 0.48-0.007"></path>
<path fill="#009b3a" d="M20.080 14.667l0.267-0.513-0.36 0.44-0.007 0.113 0.1-0.047"></path>
<path fill="#009b3a" d="M20.58 14.607c-0.2 0.053-0.493 0.12-0.667 0.187 0.067-0.207 0.14-0.533 0.193-0.74-0.020 0.18-0.060 0.42-0.053 0.587 0.153 0.013 0.367-0.020 0.52-0.033"></path>
<path fill="#009b3a" d="M20.027 14.78l0.347-0.507-0.44 0.407-0.020 0.133 0.113-0.033"></path>
<path fill="#009b3a" d="M20.5 14.667c-0.187 0.060-0.48 0.14-0.653 0.22 0.053-0.213 0.12-0.54 0.16-0.747-0.007 0.18-0.033 0.42-0.020 0.58 0.147 0.007 0.36-0.040 0.513-0.053"></path>
<path fill="#009b3a" d="M19.96 14.853l0.26-0.56-0.373 0.48v0.133l0.113-0.053"></path>
<path fill="#009b3a" d="M20.427 14.747c-0.187 0.040-0.487 0.1-0.667 0.16 0.073-0.2 0.167-0.533 0.227-0.733-0.027 0.18-0.073 0.427-0.073 0.58 0.147 0.020 0.36-0.007 0.513-0.013"></path>
<path fill="#009b3a" d="M19.893 14.907l0.427-0.44-0.5 0.327-0.040 0.12 0.113-0.007"></path>
<path fill="#009b3a" d="M20.347 14.82c-0.193 0.027-0.487 0.053-0.667 0.1 0.087-0.2 0.2-0.52 0.267-0.72-0.040 0.18-0.1 0.42-0.113 0.58 0.147 0.033 0.36 0.027 0.513 0.040"></path>
<path fill="#009b3a" d="M19.813 14.867l0.287-0.553-0.393 0.467v0.127l0.107-0.047"></path>
<path fill="#009b3a" d="M20.367 14.753c-0.2 0.087-0.533 0.2-0.727 0.307 0.067-0.247 0.133-0.633 0.173-0.873 0 0.207-0.033 0.493-0.020 0.673 0.167 0 0.4-0.073 0.573-0.107"></path>
<path fill="#009b3a" d="M19.773 15.027l0.347-0.627-0.46 0.533-0.013 0.147 0.127-0.053"></path>
<path fill="#009b3a" d="M20.287 14.833c-0.2 0.093-0.52 0.227-0.707 0.34 0.053-0.24 0.1-0.633 0.133-0.867 0 0.2-0.013 0.487 0.007 0.667 0.167-0.020 0.4-0.1 0.567-0.14"></path>
<path fill="#009b3a" d="M19.7 15.12l0.253-0.673-0.38 0.6 0.013 0.153 0.113-0.080"></path>
<path fill="#009b3a" d="M20.2 14.887c-0.2 0.1-0.52 0.233-0.707 0.353 0.047-0.247 0.093-0.633 0.127-0.873 0 0.2-0.013 0.487 0.013 0.667 0.167-0.020 0.4-0.107 0.567-0.147"></path>
<path fill="#009b3a" d="M19.647 15.2l0.387-0.593-0.493 0.487-0.020 0.147 0.127-0.040"></path>
<path fill="#009b3a" d="M20.18 14.853c-0.18 0.147-0.467 0.36-0.627 0.52 0-0.253-0.033-0.633-0.053-0.867 0.040 0.193 0.087 0.467 0.153 0.633 0.16-0.060 0.367-0.2 0.533-0.28"></path>
<path fill="#009b3a" d="M19.667 15.233l0.040-0.713-0.187 0.693 0.053 0.133 0.093-0.113"></path>
<path fill="#009b3a" d="M20.133 14.92c-0.187 0.147-0.467 0.353-0.633 0.513 0-0.247-0.033-0.633-0.053-0.867 0.047 0.2 0.087 0.467 0.153 0.633 0.16-0.053 0.367-0.2 0.533-0.28"></path>
<path fill="#009b3a" d="M19.62 15.353l0.18-0.7-0.313 0.64 0.020 0.147 0.113-0.087"></path>
<path fill="#009b3a" d="M20.107 14.933c-0.167 0.173-0.44 0.427-0.593 0.6-0.027-0.247-0.1-0.64-0.147-0.88 0.067 0.2 0.14 0.473 0.227 0.633 0.153-0.073 0.36-0.24 0.513-0.347"></path>
<path fill="#009b3a" d="M19.62 15.44l0.033-0.74-0.18 0.72 0.053 0.133 0.093-0.113"></path>
<path fill="#009b3a" d="M20.053 15.067c-0.18 0.147-0.467 0.367-0.64 0.533 0-0.253-0.047-0.653-0.067-0.9 0.047 0.2 0.1 0.487 0.167 0.66 0.167-0.067 0.38-0.207 0.54-0.3"></path>
<path fill="#009b3a" d="M19.567 15.527l0.253-0.7-0.387 0.62 0.013 0.153 0.12-0.073"></path>
<path fill="#009b3a" d="M20.053 15.067c-0.167 0.167-0.42 0.427-0.567 0.607-0.027-0.253-0.1-0.653-0.14-0.893 0.067 0.2 0.133 0.48 0.213 0.64 0.153-0.080 0.34-0.247 0.493-0.353"></path>
<path fill="#009b3a" d="M19.573 15.56l-0.027-0.733-0.12 0.733 0.067 0.127 0.080-0.127"></path>
<path fill="#009b3a" d="M19.973 15.12c-0.16 0.173-0.407 0.433-0.547 0.62-0.033-0.267-0.12-0.653-0.167-0.9 0.067 0.2 0.153 0.48 0.233 0.64 0.147-0.080 0.333-0.253 0.48-0.36"></path>
<path fill="#009b3a" d="M19.533 15.633l0.080-0.747-0.22 0.707 0.047 0.147 0.093-0.107"></path>
<path fill="#009b3a" d="M19.933 15.147c-0.133 0.193-0.367 0.467-0.493 0.667-0.053-0.253-0.167-0.633-0.233-0.867 0.087 0.187 0.187 0.453 0.28 0.607 0.14-0.093 0.313-0.28 0.453-0.4"></path>
<path fill="#009b3a" d="M19.533 15.707l-0.053-0.753-0.093 0.747 0.067 0.133 0.073-0.133"></path>
<path fill="#009b3a" d="M19.927 15.193c-0.133 0.2-0.353 0.487-0.467 0.693-0.067-0.253-0.2-0.633-0.28-0.867 0.093 0.187 0.207 0.453 0.313 0.6 0.133-0.1 0.3-0.3 0.433-0.427"></path>
<path fill="#009b3a" d="M19.573 15.773l0.080-0.753-0.213 0.707 0.040 0.153 0.093-0.107"></path>
<path fill="#009b3a" d="M19.893 15.267c-0.113 0.207-0.3 0.533-0.4 0.753-0.087-0.24-0.253-0.6-0.353-0.827 0.113 0.173 0.247 0.42 0.367 0.56 0.127-0.12 0.267-0.347 0.387-0.493"></path>
<path fill="#009b3a" d="M19.553 15.84l-0.213-0.72 0.067 0.753 0.1 0.107 0.040-0.14"></path>
<path fill="#009b3a" d="M19.893 15.347c-0.12 0.213-0.32 0.533-0.42 0.753-0.087-0.24-0.253-0.6-0.36-0.82 0.113 0.173 0.253 0.42 0.373 0.553 0.133-0.12 0.28-0.34 0.4-0.487"></path>
<path fill="#009b3a" d="M19.56 15.973l-0.080-0.753-0.067 0.753 0.073 0.133 0.073-0.133"></path>
<path fill="#009b3a" d="M19.907 15.413c-0.127 0.207-0.333 0.527-0.433 0.74-0.087-0.24-0.247-0.6-0.347-0.827 0.113 0.173 0.247 0.427 0.367 0.56 0.133-0.113 0.287-0.333 0.413-0.473"></path>
<path fill="#009b3a" d="M19.553 16.033l-0.14-0.733-0.007 0.747 0.087 0.12 0.060-0.133"></path>
<path fill="#009b3a" d="M19.853 15.52c-0.133 0.2-0.353 0.5-0.467 0.713-0.073-0.247-0.22-0.627-0.307-0.853 0.1 0.18 0.227 0.44 0.333 0.587 0.14-0.107 0.307-0.313 0.44-0.447"></path>
<path fill="#009b3a" d="M19.487 16.113l0.067-0.753-0.207 0.713 0.047 0.147 0.093-0.107"></path>
<path fill="#009b3a" d="M19.86 15.533c-0.113 0.22-0.307 0.553-0.4 0.773-0.093-0.233-0.267-0.587-0.38-0.8 0.12 0.16 0.267 0.4 0.387 0.533 0.133-0.127 0.267-0.353 0.393-0.5"></path>
<path fill="#009b3a" d="M19.467 16.18l-0.233-0.707 0.087 0.747 0.1 0.107 0.040-0.147"></path>
<path fill="#009b3a" d="M19.827 15.593c-0.080 0.24-0.213 0.6-0.267 0.847-0.133-0.213-0.367-0.52-0.507-0.713 0.14 0.14 0.327 0.347 0.467 0.447 0.107-0.153 0.213-0.4 0.307-0.58"></path>
<path fill="#009b3a" d="M19.667 16.233l-0.247-0.693 0.107 0.747 0.1 0.093 0.040-0.147"></path>
<path fill="#009b3a" d="M19.827 15.667c-0.080 0.24-0.213 0.607-0.267 0.847-0.133-0.213-0.36-0.513-0.507-0.7 0.14 0.133 0.327 0.333 0.467 0.44 0.107-0.153 0.213-0.407 0.307-0.587"></path>
<path fill="#009b3a" d="M19.667 16.353l-0.32-0.647 0.187 0.72 0.113 0.080 0.027-0.153"></path>
<path fill="#009b3a" d="M19.8 15.727c-0.047 0.247-0.133 0.633-0.167 0.88-0.153-0.193-0.42-0.467-0.58-0.627 0.153 0.113 0.36 0.293 0.513 0.367 0.087-0.167 0.16-0.433 0.233-0.62"></path>
<path fill="#009b3a" d="M19.693 16.453l-0.173-0.727 0.027 0.753 0.093 0.113 0.053-0.133"></path>
<path fill="#009b3a" d="M19.8 15.8c-0.027 0.26-0.080 0.653-0.080 0.9-0.173-0.167-0.46-0.4-0.633-0.54 0.16 0.093 0.38 0.24 0.54 0.293 0.067-0.173 0.12-0.453 0.173-0.647"></path>
<path fill="#009b3a" d="M19.7 16.507l-0.46-0.52 0.347 0.633 0.133 0.040-0.020-0.153"></path>
<path fill="#009b3a" d="M19.813 15.893c-0.027 0.253-0.080 0.647-0.087 0.893-0.173-0.167-0.46-0.4-0.633-0.547 0.167 0.093 0.387 0.247 0.54 0.3 0.073-0.173 0.12-0.453 0.18-0.647"></path>
<path fill="#009b3a" d="M19.753 16.627l-0.353-0.627 0.22 0.713 0.113 0.073 0.020-0.153"></path>
<path fill="#009b3a" d="M19.833 16c-0.020 0.253-0.053 0.647-0.053 0.9-0.194-0.169-0.407-0.335-0.628-0.49l-0.025-0.017c0.173 0.080 0.4 0.22 0.553 0.267 0.067-0.18 0.107-0.467 0.153-0.667"></path>
<path fill="#009b3a" d="M19.8 16.747l-0.44-0.553 0.32 0.653 0.12 0.053v-0.153"></path>
<path fill="#009b3a" d="M19.84 16.12c-0.020 0.253-0.053 0.647-0.047 0.9-0.18-0.16-0.473-0.373-0.66-0.507 0.173 0.087 0.4 0.22 0.56 0.267 0.067-0.18 0.1-0.467 0.147-0.667"></path>
<path fill="#009b3a" d="M19.833 16.84l-0.3-0.667 0.167 0.733 0.107 0.087 0.027-0.153"></path>
<path fill="#009b3a" d="M19.847 16.193c0.013 0.26 0.013 0.653 0.040 0.907-0.187-0.126-0.414-0.263-0.647-0.39l-0.047-0.023c0.173 0.060 0.407 0.16 0.573 0.187 0.047-0.193 0.053-0.473 0.080-0.68"></path>
<path fill="#009b3a" d="M19.887 16.813l-0.553-0.38 0.467 0.52 0.133 0.007-0.047-0.147"></path>
<path fill="#009b3a" d="M19.867 16.22c0.020 0.26 0.047 0.653 0.087 0.9-0.2-0.127-0.52-0.287-0.72-0.387 0.18 0.053 0.42 0.147 0.587 0.167 0.033-0.193 0.027-0.473 0.047-0.68"></path>
<path fill="#009b3a" d="M19.953 16.953l-0.467-0.533 0.353 0.64 0.127 0.047-0.020-0.153"></path>
<path fill="#009b3a" d="M19.907 16.32c0.033 0.253 0.067 0.647 0.127 0.893-0.2-0.113-0.533-0.253-0.733-0.34 0.18 0.040 0.427 0.12 0.587 0.133 0.027-0.2 0.013-0.48 0.020-0.687"></path>
<path fill="#009b3a" d="M20.040 17.047l-0.553-0.393 0.467 0.533 0.133 0.007-0.047-0.147"></path>
<path fill="#009b3a" d="M19.927 16.427c0.047 0.253 0.113 0.647 0.18 0.887-0.207-0.1-0.547-0.207-0.753-0.273 0.187 0.020 0.433 0.080 0.6 0.067 0.013-0.193-0.020-0.467-0.027-0.68"></path>
<path fill="#009b3a" d="M20.107 17.127l-0.467-0.547 0.347 0.647 0.133 0.053-0.013-0.153"></path>
<path fill="#009b3a" d="M19.953 16.493c0.073 0.247 0.173 0.633 0.267 0.867-0.22-0.067-0.56-0.133-0.773-0.173 0.187 0 0.433 0.020 0.6-0.007 0-0.2-0.067-0.473-0.093-0.68"></path>
<path fill="#009b3a" d="M20.133 17.127l-0.647-0.133 0.607 0.3 0.127-0.047-0.093-0.12"></path>
<path fill="#009b3a" d="M20 16.573c0.067 0.247 0.167 0.627 0.253 0.86-0.213-0.067-0.553-0.133-0.767-0.173 0.187 0 0.433 0.020 0.6 0 0-0.2-0.067-0.48-0.087-0.687"></path>
<path fill="#009b3a" d="M20.233 17.193l-0.613-0.3 0.547 0.447 0.133-0.013-0.067-0.133"></path>
<path fill="#009b3a" d="M19.967 16.613c0.12 0.227 0.3 0.58 0.433 0.78-0.227-0.013-0.573 0-0.787 0 0.18-0.033 0.427-0.067 0.58-0.133-0.047-0.193-0.16-0.447-0.227-0.647"></path>
<path fill="#009b3a" d="M20.333 17.26l-0.64-0.173 0.6 0.333 0.12-0.033-0.087-0.133"></path>
<path fill="#009b3a" d="M20.027 16.713c0.127 0.22 0.307 0.573 0.447 0.773-0.227-0.013-0.573 0-0.787 0.013 0.173-0.047 0.427-0.080 0.573-0.147-0.040-0.193-0.16-0.447-0.227-0.64"></path>
<path fill="#009b3a" d="M20.407 17.313l-0.593-0.353 0.52 0.493h0.133l-0.060-0.14"></path>
<path fill="#009b3a" d="M20.080 16.767c0.14 0.207 0.353 0.533 0.507 0.727-0.291 0.024-0.555 0.064-0.813 0.121l0.040-0.007c0.173-0.067 0.413-0.133 0.56-0.22-0.067-0.187-0.207-0.433-0.293-0.62"></path>
<path fill="#009b3a" d="M20.453 17.367l-0.64-0.020 0.633 0.193 0.113-0.073-0.107-0.1M20.827 14.26l0.46-0.073-0.46 0.007-0.080 0.040 0.080 0.027"></path>
<path fill="#009b3a" d="M21.080 14.36c-0.133-0.040-0.333-0.107-0.473-0.133l0.493-0.233c-0.1 0.067-0.253 0.147-0.333 0.213 0.080 0.053 0.22 0.107 0.313 0.153"></path>
<path fill="#009b3a" d="M20.8 14.273l0.453-0.12-0.467 0.060-0.067 0.047 0.087 0.013"></path>
<path fill="#009b3a" d="M21.1 14.393c-0.16-0.020-0.4-0.047-0.553-0.047 0.12-0.107 0.28-0.273 0.38-0.38-0.067 0.1-0.173 0.227-0.22 0.32 0.107 0.047 0.273 0.073 0.393 0.107"></path>
<path fill="#009b3a" d="M20.64 14.307l0.467-0.053-0.453-0.013-0.087 0.040 0.067 0.027"></path>
<path fill="#009b3a" d="M20.98 14.407l-0.5-0.087 0.46-0.253c-0.093 0.067-0.227 0.16-0.293 0.227 0.087 0.040 0.233 0.080 0.333 0.113"></path>
<path fill="#009b3a" d="M20.6 14.307l0.407-0.18-0.447 0.12-0.053 0.053h0.093"></path>
<path fill="#009b3a" d="M20.967 14.46c-0.113-0.047-0.3-0.133-0.413-0.167l0.293-0.32c-0.053 0.087-0.133 0.2-0.173 0.293 0.080 0.067 0.2 0.133 0.293 0.193"></path>
<path fill="#009b3a" d="M20.62 14.333l0.32-0.133-0.347 0.040-0.040 0.067 0.067 0.027M20.353 17.307h-0.653l0.667 0.167 0.107-0.067-0.12-0.1"></path>
<path fill="#009b3a" d="M20.473 17.347l-0.667-0.153 0.64 0.313 0.133-0.040-0.107-0.12"></path>
<path fill="#009b3a" d="M20.587 17.393l-0.667-0.033 0.667 0.2 0.113-0.067-0.113-0.1"></path>
<path fill="#009b3a" d="M20.167 16.927c0.167 0.187 0.427 0.493 0.607 0.66-0.22 0.033-0.553 0.12-0.76 0.18 0.16-0.080 0.4-0.173 0.533-0.267-0.093-0.173-0.267-0.4-0.38-0.573"></path>
<path fill="#009b3a" d="M20.673 17.427l-0.667-0.22 0.627 0.373 0.133-0.027-0.093-0.133"></path>
<path fill="#009b3a" d="M20.227 16.967c0.187 0.173 0.467 0.447 0.667 0.6-0.213 0.060-0.533 0.187-0.733 0.267 0.153-0.093 0.373-0.213 0.493-0.333-0.107-0.16-0.3-0.367-0.427-0.533"></path>
<path fill="#009b3a" d="M20.733 17.467l-0.633 0.127 0.667 0.040 0.093-0.087-0.133-0.080"></path>
<path fill="#009b3a" d="M20.6 17.427l-0.653 0.053 0.673 0.113 0.107-0.080-0.133-0.087"></path>
<path fill="#009b3a" d="M20.72 17.467l-0.68-0.113 0.667 0.267 0.12-0.047-0.107-0.113z"></path>
<path fill="#009b3a" d="M20.833 17.5l-0.667 0.013 0.68 0.153 0.107-0.073-0.12-0.093z"></path>
<path fill="#009b3a" d="M20.38 17.067c0.187 0.173 0.467 0.453 0.66 0.613-0.22 0.047-0.553 0.16-0.753 0.227 0.16-0.087 0.387-0.193 0.513-0.3-0.107-0.167-0.293-0.38-0.42-0.547z"></path>
<path fill="#009b3a" d="M20.927 17.527l-0.68-0.173 0.653 0.333 0.127-0.040-0.1-0.12z"></path>
<path fill="#009b3a" d="M20.44 17.1c0.2 0.16 0.507 0.413 0.713 0.547-0.213 0.073-0.52 0.233-0.707 0.327 0.147-0.113 0.353-0.247 0.467-0.367-0.12-0.16-0.333-0.353-0.467-0.507z"></path>
<path fill="#009b3a" d="M20.987 17.56l-0.62 0.173h0.667l0.087-0.1-0.133-0.067z"></path>
<path fill="#fedf00" d="M21.84 16.633l-0.507-0.353-0.507 0.353 0.193-0.56-0.447-0.347h0.573l0.187-0.56 0.187 0.56h0.573l-0.447 0.347 0.193 0.56z"></path>
</svg>
