<!-- Generated by IcoMoon.io -->
<svg version="1.1" xmlns="http://www.w3.org/2000/svg" width="43" height="32" viewBox="0 0 43 32">
<title>rw</title>
<path fill="#20603d" d="M0 0h42.667v32h-42.667z"></path>
<path fill="#fad201" d="M0 0h42.667v24h-42.667z"></path>
<path fill="#00a1de" d="M0 0h42.667v16h-42.667z"></path>
<path fill="#e5be01" d="M39.227 8.36l-3.573 0.209 3.396 1.129-3.502-0.724 2.991 1.964-3.2-1.609 2.373 2.68-2.671-2.378 1.609 3.2-1.969-2.991 0.72 3.498-1.124-3.391-0.209 3.573-0.044-5.204z"></path>
<path fill="#e5be01" d="M39.227 8.36l-3.573-0.209 3.396-1.129-3.502 0.724 2.991-1.964-3.2 1.609 2.373-2.68-2.671 2.378 1.609-3.2-1.969 2.991 0.72-3.498-1.124 3.391-0.209-3.573-0.044 5.204z"></path>
<path fill="#e5be01" d="M28.907 8.36l3.573 0.209-3.396 1.129 3.502-0.724-2.991 1.964 3.2-1.609-2.373 2.68 2.671-2.378-1.609 3.2 1.969-2.991-0.72 3.498 1.124-3.391 0.209 3.573 0.044-5.204z"></path>
<path fill="#e5be01" d="M28.907 8.36l3.573-0.209-3.396-1.129 3.502 0.724-2.991-1.964 3.2 1.609-2.373-2.68 2.671 2.378-1.609-3.2 1.969 2.991-0.72-3.498 1.124 3.391 0.209-3.573 0.044 5.204z"></path>
<path fill="#e5be01" d="M35.591 8.36c0 0.842-0.683 1.524-1.524 1.524s-1.524-0.683-1.524-1.524c0-0.842 0.683-1.524 1.524-1.524s1.524 0.683 1.524 1.524z"></path>
</svg>
