<!-- Generated by IcoMoon.io -->
<svg version="1.1" xmlns="http://www.w3.org/2000/svg" width="43" height="32" viewBox="0 0 43 32">
<title>sa</title>
<path fill="#199d00" d="M-2.667 0h48v32h-48z"></path>
<path fill="#fff" d="M9.427 9.069c-0.050 0.75-0.125 2.063 0.519 2.2 0.769 0.075 0.344-1.3 0.625-1.55 0.050-0.125 0.144-0.125 0.15 0.031v1.169c0 0.375 0.25 0.488 0.438 0.563 0.2-0.012 0.338 0 0.412 0.188l0.1 2.019s0.463 0.137 0.488-1.131c0.019-0.75-0.15-1.369-0.050-1.512 0-0.144 0.188-0.15 0.313-0.081 0.2 0.137 0.287 0.313 0.6 0.25 0.475-0.137 0.762-0.369 0.769-0.731-0.010-0.376-0.090-0.732-0.226-1.057l0.007 0.019c0.025-0.063-0.088-0.231-0.063-0.294 0.081 0.137 0.213 0.125 0.238 0-0.081-0.262-0.206-0.519-0.406-0.625-0.169-0.15-0.419-0.125-0.5 0.188-0.050 0.356 0.125 0.775 0.381 1.125 0.056 0.131 0.131 0.356 0.1 0.556-0.137 0.081-0.275 0.044-0.394-0.075 0 0-0.375-0.281-0.375-0.35 0.1-0.637 0.019-0.713-0.037-0.894-0.037-0.244-0.156-0.325-0.25-0.488-0.094-0.1-0.219-0.1-0.281 0-0.169 0.287-0.088 0.906 0.031 1.188 0.088 0.256 0.219 0.419 0.156 0.419-0.050 0.144-0.156 0.106-0.238-0.063-0.084-0.312-0.132-0.669-0.132-1.038 0-0.017 0-0.035 0-0.052l-0 0.003c-0.031-0.287-0.069-0.9-0.262-1.063-0.113-0.15-0.281-0.075-0.344 0.063-0.006 0.091-0.009 0.197-0.009 0.304 0 0.188 0.010 0.374 0.030 0.556l-0.002-0.023c0.125 0.463 0.169 0.875 0.231 1.344 0.019 0.631-0.363 0.275-0.344-0.044 0.036-0.169 0.057-0.364 0.057-0.564 0-0.23-0.028-0.454-0.080-0.668l0.004 0.019c-0.063-0.162-0.131-0.2-0.287-0.175-0.119 0-0.425 0.331-0.512 0.894 0 0-0.075 0.287-0.106 0.544-0.044 0.287-0.231 0.5-0.369-0.037-0.113-0.394-0.188-1.35-0.375-1.125z"></path>
<path fill="#fff" d="M11.521 12.137l-2 0.963c0.019-0.456 0.944-1.275 1.581-1.281 0.406 0.006 0.306 0.156 0.412 0.319z"></path>
<path fill="#fff" d="M11.165 12.762c-1.050 2.719 2.469 3.1 2.862 0.113 0.037-0.125 0.188-0.244 0.213-0.044-0.081 2.706-2.725 2.887-3.175 2.037-0.099-0.265-0.156-0.572-0.156-0.891 0-0.007 0-0.015 0-0.022v0.001c-0.063-0.531-0.344-0.325-0.387 0.2-0.044 0.294-0.031 0.375-0.031 0.656 0.137 2.138 3.544 1.219 4.1-0.544 0.294-0.975-0.050-1.694 0.106-1.694 0.338 0.363 0.813 0.050 0.919-0.075 0.044-0.063 0.156-0.106 0.231-0.025 0.263 0.188 0.725 0.1 0.825-0.231 0.056-0.331 0.1-0.669 0.113-1.012-0.219 0.063-0.375 0.106-0.394 0.2l-0.044 0.287c-0.019 0.094-0.2 0.094-0.212-0.025-0.081-0.375-0.419-0.419-0.625 0.156-0.131 0.113-0.381 0.137-0.406-0.031 0.031-0.387-0.125-0.438-0.438-0.256l-0.3-2.262c0.125 0 0.25 0.094 0.369-0.056-0.125-0.406-0.406-1.231-0.563-1.294-0.069-0.088-0.131-0.031-0.231-0.006-0.162 0.050-0.313 0.188-0.262 0.462 0.188 1.175 0.313 2.069 0.506 3.25 0.031 0.131-0.081 0.313-0.231 0.294-0.25-0.169-0.313-0.512-0.75-0.5-0.313 0-0.662 0.344-0.706 0.669-0.056 0.262-0.075 0.544 0 0.769 0.219 0.262 0.481 0.238 0.713 0.181 0.188-0.081 0.344-0.269 0.412-0.225 0.044 0.056 0.006 0.681-0.894 1.156-0.544 0.25-0.981 0.3-1.213-0.144-0.144-0.281 0.012-1.338-0.35-1.094z"></path>
<path fill="#fff" d="M15.646 10c0.206-0.075 1.206-1.225 1.206-1.225l-0.15-0.125c-0.056-0.044-0.050-0.094 0-0.137 0.25-0.15 0.169-0.463 0.044-0.612-0.078-0.039-0.169-0.061-0.266-0.061-0.102 0-0.197 0.025-0.281 0.069l0.003-0.002c-0.175 0.169-0.213 0.437-0.075 0.6 0.131 0.063 0.262 0.2 0.175 0.275-0.412 0.438-1.531 1.194-1.4 1.219 0.025 0.037 0.719 0.037 0.738 0zM9.583 14.063c-0.375 0.6-0.406 1.494-0.2 1.762 0.113 0.125 0.294 0.181 0.425 0.137 0.238-0.1 0.344-0.581 0.287-0.75-0.081-0.125-0.144-0.144-0.225-0.044-0.162 0.338-0.231 0.106-0.25-0.081-0.004-0.074-0.007-0.16-0.007-0.246 0-0.248 0.021-0.492 0.060-0.729l-0.004 0.026c0.044-0.262 0-0.188-0.088-0.075zM25.652 13.106c-0.363-0.787-0.869-1.563-1.025-1.856-0.566-0.893-1.077-1.626-1.614-2.338l0.064 0.088c-0.387-0.463 0.637 0.194-0.125-0.731l-0.556-0.469c-0.125-0.088-0.425-0.25-0.475 0.013-0.025 0.237-0.012 0.362 0.025 0.556 0.031 0.125 0.219 0.344 0.313 0.469 1.197 1.569 2.314 3.34 3.27 5.207l0.093 0.199c0.163-0.081 0.125-1.006 0.031-1.137z"></path>
<path fill="#fff" d="M24.058 15.719c-0.075 0.081 0.175 0.425 0.5 0.425 0.538-0.063 1.012-0.363 1.45-1.162 0.17-0.252 0.288-0.553 0.33-0.877l0.001-0.010c0.008-0.206 0.012-0.448 0.012-0.691 0-1.357-0.136-2.681-0.396-3.961l0.022 0.127c-0.019-0.125 0-0.275 0.012-0.313 0.038-0.044 0.156 0 0.219-0.106 0.094-0.094-0.25-0.875-0.438-1.169-0.063-0.138-0.094-0.225-0.206 0.013-0.119 0.225-0.189 0.493-0.189 0.776 0 0.026 0.001 0.052 0.002 0.077l-0-0.004c0.256 1.781 0.337 3.338 0.5 5.119 0.019 0.175-0.006 0.425-0.125 0.525-0.464 0.515-1.028 0.931-1.662 1.218l-0.032 0.013zM31.34 15.713c-0.387 0.225-0.387 0.481-0.075 0.487 0.538-0.063 1.175-0.106 1.613-0.769 0.148-0.291 0.242-0.632 0.262-0.993l0-0.007c0.017-0.298 0.026-0.646 0.026-0.996 0-1.226-0.116-2.424-0.339-3.585l0.019 0.119c-0.013-0.125-0.069-0.419-0.050-0.456 0.038-0.088 0.212 0.006 0.275-0.094 0.087-0.094-0.456-0.794-0.65-1.094-0.063-0.137-0.087-0.225-0.206 0.012-0.085 0.175-0.135 0.381-0.135 0.599 0 0.089 0.008 0.176 0.024 0.26l-0.001-0.009c0.288 1.938 0.5 3.387 0.544 5.1-0.025 0.162-0.031 0.25-0.106 0.456-0.169 0.213-0.356 0.488-0.531 0.619-0.175 0.125-0.55 0.25-0.669 0.35z"></path>
<path fill="#fff" d="M31.627 13.981c0-0.456 0.006-0.844-0.006-1.188-0.004-0.307-0.073-0.596-0.193-0.857l0.005 0.013c-0.113-0.256-0.044-0.463-0.1-0.738-0.050-0.275-0.038-0.688-0.113-1.006-0.025-0.125-0.087-0.531-0.069-0.575 0.031-0.088 0.15 0 0.212-0.1 0.087-0.094-0.313-1.125-0.512-1.419-0.069-0.131-0.206-0.088-0.363 0.125-0.156 0.144-0.1 0.463-0.038 0.769 0.381 2.019 0.675 3.85 0.613 5.769-0.025 0.162 0.563-0.488 0.563-0.794zM28.771 11.481c-0.244-0.012-0.75-0.481-0.9-0.75-0.020-0.052-0.032-0.112-0.032-0.175 0-0.085 0.021-0.164 0.058-0.234l-0.001 0.003c0.094-0.063 0.231-0.125 0.337-0.063 0 0 0.106 0.15 0.087 0.169 0.125 0.063 0.188 0.031 0.2-0.025 0.006-0.094-0.038-0.15-0.038-0.25 0.056-0.287 0.375-0.331 0.5-0.15 0.087 0.113 0.125 0.344 0.131 0.5 0 0.081-0.125-0.012-0.206 0-0.069 0.025-0.087 0.113-0.094 0.188-0.012 0.206-0.038 0.537-0.044 0.781zM24.283 14.481c0.063-0.613-0.025-1.706-0.031-2.069-0.038-1.029-0.121-1.992-0.248-2.941l0.017 0.153c-0.075-0.525 0.212 0.056 0.175-0.25-0.094-0.519-0.381-0.875-0.725-1.344-0.106-0.156-0.106-0.188-0.275 0.037-0.188 0.419-0.025 0.713 0.025 1.044 0.244 1.075 0.387 2.063 0.456 3.044 0.039 0.518 0.061 1.122 0.061 1.732 0 0.468-0.013 0.933-0.039 1.395l0.003-0.064c0.188 0.006 0.475-0.294 0.581-0.738z"></path>
<path fill="#fff" d="M32.458 13.5c-0.431-0.725-1.075-1.5-1.25-1.794-0.654-0.911-1.253-1.68-1.878-2.427l0.053 0.065c-0.531-0.563 0.25-0.094-0.1-0.531-0.294-0.319-0.375-0.425-0.631-0.619-0.125-0.081-0.2-0.237-0.25 0.031-0.012 0.133-0.019 0.287-0.019 0.442 0 0.091 0.002 0.181 0.007 0.27l-0-0.013c0 0.106 0.113 0.313 0.212 0.438 1.294 1.594 2.712 3.219 3.85 5.263 0.163-0.081 0.106-1 0-1.125z"></path>
<path fill="#1ba400" d="M12.996 12.169c-0.031 0.056-0.1 0.125-0.075 0.194 0.044 0.063 0.088 0.081 0.162 0.081 0.069 0 0.169 0.019 0.188-0.019 0.037-0.044 0.063-0.125 0.037-0.206-0.075-0.188-0.275-0.113-0.313-0.050z"></path>
<path fill="#fff" d="M27.471 22.656c0.575 0.025 0.95 0.031 1.456 0.087l0.6-0.063c0.663-0.063 0.688 0.944 0.688 0.944 0 0.594-0.231 0.625-0.525 0.688-0.169 0.025-0.25-0.1-0.344-0.225-0.080 0.026-0.172 0.042-0.267 0.042-0.060 0-0.119-0.006-0.176-0.018l0.006 0.001c-0.244-0.012-0.481-0.012-0.719-0.031-0.25-0.019-0.387 0.031-0.644 0.006-0.050 0.081-0.125 0.194-0.275 0.163-0.125-0.019-0.281-0.375-0.238-0.656 0.094-0.2 0.063-0.131 0.063-0.219-2.35-0.063-4.719-0.169-7.019-0.137-1.8 0.006-3.575 0.081-5.356 0.156-0.95-0.012-1.675-0.163-2.175-0.894 0.050 0 2.425 0.131 3.119 0.087 1.281-0.012 2.456-0.119 3.763-0.156 2.575 0.044 5.131 0.044 7.706 0.225-0.25-0.169-0.25-0.563 0.125-0.663 0.031-0.025 0.050 0.194 0.106 0.188 0.306-0.019 0.169 0.394 0.106 0.475zM17.121 8.456c-0.387 1.113 0.225 2.338 0.65 2.219 0.313 0.125 0.5-0.463 0.625-1.1 0.094-0.181 0.156-0.2 0.2-0.106-0.012 0.85 0.063 1.044 0.281 1.3 0.488 0.375 0.894 0.050 0.925 0.019l0.375-0.381c0.087-0.094 0.2-0.094 0.319-0.019 0.119 0.106 0.1 0.287 0.35 0.412 0.212 0.088 0.656 0.025 0.762-0.156 0.137-0.244 0.175-0.325 0.238-0.412 0.1-0.131 0.269-0.075 0.269-0.031-0.019 0.075-0.119 0.144-0.050 0.281 0.125 0.088 0.15 0.031 0.219 0.012 0.25-0.125 0.438-0.662 0.438-0.662 0.006-0.2-0.106-0.188-0.181-0.137l-0.194 0.131c-0.125 0.019-0.356 0.1-0.475-0.081-0.119-0.213-0.119-0.519-0.206-0.738 0-0.012-0.163-0.344-0.012-0.363 0.075 0.012 0.231 0.056 0.256-0.075 0.075-0.131-0.163-0.5-0.331-0.688-0.144-0.156-0.344-0.175-0.538-0.013-0.137 0.125-0.119 0.263-0.144 0.394-0.012 0.045-0.019 0.097-0.019 0.15 0 0.15 0.054 0.288 0.144 0.395l-0.001-0.001c0.137 0.262 0.381 0.606 0.3 1.094 0 0-0.144 0.225-0.394 0.194-0.106-0.019-0.275-0.063-0.363-0.738-0.069-0.5 0.012-1.213-0.2-1.544-0.081-0.206-0.137-0.4-0.325-0.056-0.050 0.138-0.269 0.344-0.113 0.763 0.098 0.243 0.155 0.525 0.155 0.821 0 0.13-0.011 0.256-0.032 0.38l0.002-0.013c-0.094 0.137-0.113 0.181-0.231 0.313-0.163 0.188-0.344 0.137-0.481 0.069-0.125-0.081-0.225-0.125-0.288-0.406 0.012-0.438 0.038-1.156-0.044-1.306-0.119-0.238-0.313-0.15-0.394-0.075-0.359 0.398-0.614 0.898-0.716 1.45l-0.003 0.018c-0.113 0.363-0.231 0.256-0.313 0.113-0.2-0.188-0.219-1.669-0.462-1.425z"></path>
<path fill="#fff" d="M18.296 10.881c0.181-0.125 0.1-0.213 0.363 0.050 0.324 0.563 0.532 1.231 0.574 1.944l0.001 0.012c-0.012 0.162 0.1 0.262 0.156 0.225 0.025-0.375 0.944-0.9 1.788-0.975 0.125-0.031 0.063-0.275 0.081-0.4-0.050-0.469 0.262-0.894 0.7-0.925 0.6 0.088 0.8 0.406 0.813 0.887-0.069 0.938-1.044 1.094-1.587 1.169-0.081 0.031-0.119 0.069 0 0.113l2.288 0.012 0.119 0.063c0.012 0.063-0.038 0.012-0.125 0.162-0.12 0.207-0.202 0.451-0.231 0.711l-0.001 0.008c-0.681 0.225-1.387 0.313-2.1 0.406-0.25 0.125-0.375 0.294-0.325 0.481 0.087 0.206 0.637 0.419 0.637 0.425 0.106 0.063 0.225 0.219-0.031 0.537-1.113-0.050-1.981-0.525-2.281-1.194-0.087-0.069-0.188 0-0.25 0.088-0.438 0.563-0.863 1.063-1.606 1.337-0.438 0.113-0.894-0.069-1.106-0.356-0.144-0.169-0.137-0.35-0.188-0.387-0.244 0.106-2.306 0.981-2.044 0.569 0.5-0.531 1.375-0.931 2.137-1.456 0.056-0.181 0.156-0.781 0.456-0.975 0.019 0-0.044 0.35-0.038 0.5 0 0.125-0.012 0.169 0.012 0.137 0.056-0.031 0.981-0.762 1.063-0.988 0.087-0.125 0.019-0.45 0.019-0.463-0.175-0.45-0.419-0.488-0.506-0.713-0.081-0.294-0.044-0.631 0.125-0.731 0.15-0.131 0.325-0.119 0.494 0.031 0.188 0.169 0.35 0.5 0.4 0.744-0.031 0.094-0.25-0.063-0.313-0.019 0.116 0.133 0.198 0.299 0.23 0.481l0.001 0.006c0.125 0.512 0.087 0.713-0.038 1.044-0.413 0.869-0.938 1.125-1.4 1.45-0.012 0-0.019 0.219 0.15 0.338 0.063 0.063 0.306 0.094 0.587 0 0.602-0.339 1.080-0.837 1.385-1.437l0.009-0.019c0.013-0.108 0.020-0.233 0.020-0.359 0-0.368-0.062-0.722-0.177-1.050l0.007 0.022c-0.181-0.419-0.394-1.012-0.394-1.025-0.006-0.262 0.012-0.35 0.125-0.481zM12.308 8.469c0.262 0.125 0.762 0.069 0.738-0.356l-0.012-0.194c-0.050-0.125-0.2-0.094-0.231 0.031-0.012 0.044 0.019 0.113-0.019 0.131-0.025 0.025-0.106 0.012-0.106-0.106 0-0.037-0.025-0.075-0.044-0.1-0.012-0.013-0.025-0.013-0.056-0.013-0.037 0-0.037 0.006-0.056 0.037-0.006 0.031-0.019 0.063-0.019 0.1 0 0.044-0.025 0.056-0.050 0.063-0.037 0-0.031 0-0.063-0.012-0.012-0.019-0.031-0.025-0.031-0.063l-0.019-0.1c-0.012-0.019-0.037-0.031-0.063-0.037-0.144 0-0.156 0.169-0.144 0.231-0.012 0.012-0.019 0.306 0.175 0.387z"></path>
<path fill="#fff" d="M20.027 11.731c0.262 0.125 0.894 0.056 0.738-0.35l-0.012-0.2c-0.056-0.125-0.2-0.094-0.231 0.037-0.012 0.037 0.019 0.106-0.025 0.125-0.019 0.025-0.106 0.012-0.1-0.1 0-0.037-0.025-0.081-0.044-0.106-0.019-0.006-0.025-0.012-0.063-0.012-0.031 0-0.031 0.012-0.050 0.044-0.012 0.031-0.019 0.063-0.019 0.1-0.006 0.037-0.025 0.050-0.056 0.063-0.031 0-0.025 0-0.050-0.019-0.019-0.019-0.038-0.025-0.038-0.056l-0.019-0.1c-0.012-0.019-0.038-0.031-0.063-0.037-0.144 0-0.156 0.162-0.15 0.225-0.006 0.012-0.012 0.313 0.188 0.387zM24.527 10.381c0.262 0.125 0.756 0.069 0.738-0.35l-0.012-0.2c-0.056-0.125-0.2-0.094-0.231 0.031-0.012 0.044 0.019 0.113-0.025 0.137-0.019 0.019-0.106 0.006-0.1-0.113 0-0.037-0.025-0.075-0.044-0.1-0.019-0.012-0.025-0.012-0.063-0.012-0.031 0-0.031 0.012-0.050 0.044l-0.019 0.094c-0.006 0.044-0.025 0.063-0.056 0.063s-0.025 0-0.050-0.012c-0.019-0.019-0.038-0.025-0.038-0.056s-0.006-0.081-0.019-0.106c-0.012-0.019-0.038-0.025-0.063-0.031-0.144 0-0.156 0.162-0.15 0.225-0.006 0.012-0.012 0.306 0.188 0.387zM26.858 13.775c-0.456 0.519-0.256 1.375-0.15 1.563 0.15 0.3 0.269 0.494 0.563 0.644 0.269 0.194 0.481 0.075 0.594-0.063 0.269-0.281 0.275-1 0.4-1.137 0.087-0.262 0.313-0.219 0.419-0.1 0.1 0.14 0.23 0.253 0.382 0.329l0.006 0.003c0.25 0.219 0.55 0.262 0.85 0.063 0.2-0.119 0.331-0.262 0.45-0.556 0.125-0.35 0.063-1.975 0.031-2.938l-0.262-1.344c0-0.012-0.031-0.637-0.063-0.781 0-0.063-0.019-0.081 0.044-0.075 0.069 0.063 0.075 0.063 0.125 0.081 0.063 0.012 0.125-0.106 0.081-0.206l-0.625-1.162c-0.050-0.050-0.119-0.1-0.2 0.012-0.092 0.084-0.15 0.204-0.15 0.338 0 0.002 0 0.004 0 0.006v-0c0.019 0.275 0.063 0.556 0.081 0.831l0.25 1.412c0.081 1 0.1 1.825 0.181 2.831-0.012 0.425-0.144 0.794-0.269 0.85 0 0-0.188 0.106-0.313-0.012-0.094-0.037-0.462-0.619-0.462-0.619-0.188-0.169-0.313-0.125-0.444 0-0.375 0.363-0.538 1.025-0.794 1.488-0.063 0.106-0.25 0.188-0.45-0.006-0.512-0.706-0.212-1.706-0.275-1.45zM24.646 7.919c0.238 0.094 0.4 0.575 0.35 0.812-0.050 0.281-0.175 0.594-0.262 0.556-0.1-0.037 0.063-0.287-0.031-0.55-0.050-0.175-0.375-0.488-0.337-0.575-0.063-0.194 0.137-0.281 0.281-0.25z"></path>
<path fill="#fff" d="M27.621 14.063c0.044-0.575-0.038-0.925-0.050-1.262s-0.381-2.912-0.456-3.162c-0.094-0.488 0.356-0.063 0.306-0.35-0.156-0.35-0.538-0.869-0.656-1.175-0.075-0.125-0.044-0.25-0.206-0.031-0.101 0.269-0.16 0.581-0.16 0.906 0 0.104 0.006 0.206 0.018 0.306l-0.001-0.012c0.387 2.019 0.781 3.694 0.719 5.613 0.188 0 0.394-0.419 0.488-0.831zM31.646 8.731c0.219 0.106 0.344 0.706 0.319 0.875-0.044 0.313-0.156 0.65-0.238 0.606-0.094-0.037 0.019-0.463-0.025-0.594-0.050-0.188-0.344-0.525-0.313-0.625-0.063-0.213 0.125-0.3 0.256-0.262zM15.665 12.975c0.206 0.081 0.331 0.519 0.313 0.644-0.050 0.231-0.156 0.481-0.238 0.444-0.081-0.025 0.019-0.338-0.019-0.438-0.019-0.231-0.306-0.356-0.3-0.456-0.050-0.188 0.125-0.219 0.25-0.194z"></path>
<path fill="#1b9d00" d="M20.64 13.637c0.262 0.012 0.394 0.225 0.15 0.313-0.25 0.081-0.481 0.15-0.488 0.5 0.094 0.5-0.125 0.325-0.25 0.262-0.15-0.113-0.575-0.375-0.637-0.938-0.006-0.131 0.1-0.25 0.269-0.25 0.25 0.069 0.625 0.075 0.956 0.113z"></path>
<path fill="#fff" d="M10.171 7.775c0.3 0.088 0.319 0.537 0.3 0.669-0.044 0.238-0.15 0.494-0.225 0.463-0.088-0.031 0-0.356-0.044-0.456-0.044-0.137-0.3-0.4-0.275-0.475-0.056-0.156 0.125-0.231 0.244-0.2zM16.165 9.875c-0.238 0.125-0.325 0.5-0.181 0.725 0.138 0.188 0.35 0.119 0.375 0.119 0.231 0.025 0.369-0.431 0.369-0.431s0.006-0.125-0.262 0.119c-0.119 0.019-0.125-0.025-0.156-0.088-0.010-0.040-0.016-0.085-0.016-0.132 0-0.081 0.017-0.159 0.048-0.228l-0.001 0.004c0.044-0.113-0.044-0.162-0.175-0.088zM17.915 7.6c-0.125 0.081-0.356 0.325-0.363 0.6-0.006 0.156-0.038 0.156 0.063 0.25 0.081 0.113 0.15 0.106 0.3 0.025 0.074-0.047 0.127-0.123 0.143-0.211l0-0.002c0.038-0.175-0.188 0.088-0.212-0.113-0.050-0.188 0.094-0.263 0.231-0.438 0-0.125 0-0.206-0.169-0.112zM19.315 7.85c-0.052 0.204-0.087 0.441-0.1 0.685l-0 0.009c-0.038 0.175 0.188 0.25 0.281 0.025 0.15-0.406 0.15-0.581 0.163-0.75-0.044-0.269-0.225-0.263-0.344 0.031zM28.19 12.369c0.025-0.031 1.25-0.9 1.25-0.9 0.125-0.044 0.094 0.45 0.038 0.444-0.369 0.356-0.796 0.655-1.265 0.881l-0.029 0.013c-0.063 0.044-0.119-0.331 0-0.438zM29.296 12.356c0.219 0.106 0.306 0.738 0.281 0.906 0 0.338-0.206 0.6-0.294 0.563-0.087-0.044 0.012-0.419-0.031-0.55-0.050-0.188-0.231-0.531-0.2-0.631-0.063-0.213 0.113-0.325 0.25-0.287zM22.046 15.069c0.101-0.117 0.216-0.219 0.344-0.302l0.006-0.004c0.125-0.063 0.238 0.050 0.231 0.044 0.019 0.125-0.075 0.231-0.044 0.394 0.025 0.063 0.044 0.137 0.163 0.113 0.194-0.156 0.375-0.169 0.563-0.175 0.156 0.006 0.163 0.262 0.063 0.262-0.356 0.075-0.512 0.175-0.769 0.269-0.125 0.075-0.225-0.019-0.225-0.025s-0.069-0.069-0.025-0.231c0.012-0.125-0.038-0.2-0.15-0.188-0.075 0.050-0.15 0.075-0.188-0.019-0.019-0.063-0.025-0.1 0.031-0.137zM30.583 15.406c0.050 0.063 0.087 0.125-0.006 0.238l-0.231 0.2c-0.038 0.063-0.063 0.175 0.063 0.206 0.225 0.063 0.75-0.281 0.75-0.287 0.087-0.063 0.063-0.188 0.050-0.188-0.050-0.056-0.163-0.019-0.238-0.031-0.038 0-0.156-0.012-0.1-0.125 0.040-0.052 0.074-0.112 0.098-0.176l0.002-0.005c0.031-0.075 0-0.125-0.125-0.169-0.131-0.025-0.188-0.012-0.331 0-0.075 0.012-0.1 0.050-0.119 0.144 0.006 0.144 0.094 0.137 0.188 0.188z"></path>
<path fill="#259f00" d="M22.090 11.856c-0.031 0.063-0.144 0.063-0.25 0s-0.169-0.162-0.131-0.219 0.144-0.056 0.25 0 0.163 0.162 0.131 0.219zM16.527 8.506c-0.063 0.019-0.15-0.037-0.188-0.125s-0.019-0.162 0.044-0.181 0.144 0.044 0.188 0.125 0.019 0.169-0.050 0.188z"></path>
<path fill="#209000" d="M27.533 23.438c0.587 0.025 1.137 0 1.719 0.031 0.106 0.094 0.031 0.313-0.038 0.3l-0.488-0.019c-0.006-0.188-0.481-0.156-0.469 0.006-0.256 0.031-0.488-0.006-0.75-0.019-0.075-0.094-0.063-0.262 0.025-0.3z"></path>
</svg>
