<!-- Generated by IcoMoon.io -->
<svg version="1.1" xmlns="http://www.w3.org/2000/svg" width="43" height="32" viewBox="0 0 43 32">
<title>sb</title>
<path fill="#0000d6" d="M0 31.7l61.712-31.7h-61.712v31.7z"></path>
<path fill="#006000" d="M64 0l-62.3 32h62.3v-32z"></path>
<path fill="#fc0" d="M64 0h-3.431l-60.569 30.337v1.663h3.431l60.569-30.275v-1.725z"></path>
<path fill="#fff" d="M4.463 0.569l0.737 2.156h2.406l-1.944 1.319 0.744 2.15-1.944-1.319-1.944 1.325 0.744-2.15-1.944-1.331h2.4zM16.406 0.569l0.744 2.156h2.406l-1.95 1.325 0.75 2.15-1.956-1.325-1.938 1.331 0.744-2.15-1.95-1.331h2.406zM16.406 9.6l0.744 2.156h2.406l-1.95 1.325 0.75 2.15-1.95-1.331-1.938 1.331 0.744-2.15-1.95-1.331h2.406zM10.469 5.138l0.744 2.15h2.4l-1.938 1.331 0.738 2.15-1.938-1.331-1.95 1.331 0.75-2.15-1.95-1.331h2.406zM4.463 9.6l0.737 2.156h2.406l-1.944 1.325 0.744 2.15-1.944-1.331-1.944 1.331 0.75-2.15-1.956-1.331h2.4z"></path>
</svg>
