<!-- Generated by IcoMoon.io -->
<svg version="1.1" xmlns="http://www.w3.org/2000/svg" width="43" height="32" viewBox="0 0 43 32">
<title>sg</title>
<path fill="#fff" d="M-1.333 0h48v32h-48z"></path>
<path fill="#df0000" d="M-1.333 0h48v16h-48z"></path>
<path fill="#fff" d="M9.733 2.68c-2.559 0.564-4.444 2.812-4.444 5.501 0 2.708 1.913 4.969 4.461 5.506l0.037 0.006c-0.477 0.143-1.026 0.226-1.594 0.226-2.606 0-4.806-1.738-5.503-4.119l-0.010-0.041c-0.137-0.466-0.215-1.002-0.215-1.557 0-2.602 1.733-4.799 4.108-5.5l0.041-0.010c1.067-0.307 2.053-0.313 3.127-0.013z"></path>
<path fill="#fff" d="M8.867 7.333l0.327 1-0.867-0.613-0.853 0.627 0.313-1.013-0.853-0.62 1.060-0.013 0.333-1 0.333 1h1.053zM10.033 10.8l0.333 1.007-0.867-0.613-0.86 0.62 0.32-1.007-0.853-0.627 1.060-0.007 0.327-1.007 0.333 1h1.067zM13.933 10.773l0.327 1.013-0.867-0.62-0.853 0.62 0.313-1.007-0.853-0.62 1.060-0.013 0.333-1 0.333 1h1.053zM15.093 7.333l0.327 1.007-0.867-0.613-0.853 0.62 0.32-1.007-0.86-0.627 1.067-0.007 0.32-1.007 0.333 1h1.067zM12.007 5.047l0.333 1.013-0.867-0.62-0.86 0.627 0.32-1.013-0.853-0.627 1.053-0.007 0.333-1.007 0.333 1h1.067z"></path>
</svg>
