<!-- Generated by IcoMoon.io -->
<svg version="1.1" xmlns="http://www.w3.org/2000/svg" width="43" height="32" viewBox="0 0 43 32">
<title>si</title>
<path fill="#fff" d="M-2.935 0h64v32h-64z"></path>
<path fill="#d50000" d="M-2.935 21.331h64v10.669h-64z"></path>
<path fill="#0000bf" d="M-2.935 10.669h64v10.662h-64z"></path>
<path fill="#d50000" d="M15.215 5.813c-0.25 3.85-0.4 5.963-0.981 6.938-0.637 1.050-1.25 1.819-3.731 2.75-2.475-0.931-3.088-1.7-3.725-2.75-0.588-0.975-0.731-3.088-0.981-6.938l0.362-0.125c0.737-0.225 1.287-0.406 1.694-0.487 0.581-0.125 1.081-0.263 2.644-0.294 1.563 0.025 2.063 0.175 2.644 0.3 0.4 0.088 0.975 0.25 1.706 0.481l0.369 0.125z"></path>
<path fill="#0000bf" d="M14.852 5.688c-0.238 3.844-0.438 5.606-0.75 6.45-0.6 1.45-1.55 2.244-3.6 3-2.050-0.756-3-1.55-3.606-3-0.313-0.85-0.5-2.606-0.737-6.456 0.725-0.225 1.287-0.4 1.694-0.481 0.581-0.125 1.081-0.269 2.644-0.294 1.563 0.025 2.063 0.169 2.644 0.294 0.704 0.16 1.277 0.326 1.837 0.519l-0.125-0.037z"></path>
<path fill="#ffdf00" d="M10.502 6.862l0.094 0.231 0.438 0.063-0.281 0.169 0.269 0.181-0.394 0.063-0.125 0.213-0.125-0.219-0.375-0.050 0.25-0.188-0.262-0.169 0.419-0.063 0.094-0.231z"></path>
<path fill="#fff" d="M13.959 11.225l-0.244-0.188-0.169-0.287-0.338-0.294-0.181-0.294-0.338-0.306-0.162-0.294-0.188-0.144-0.113-0.119-0.313 0.269-0.162 0.294-0.206 0.188-0.231-0.181-0.813-1.444-0.813 1.444-0.231 0.181-0.206-0.188-0.169-0.294-0.306-0.269-0.119 0.113-0.181 0.15-0.162 0.294-0.338 0.306-0.181 0.294-0.338 0.294-0.169 0.287-0.244 0.188c0.146 0.895 0.563 1.673 1.162 2.269l0 0c0.644 0.553 1.405 0.991 2.24 1.268l0.047 0.014c0.888-0.284 1.655-0.722 2.308-1.288l-0.008 0.007c0.363-0.375 1.037-1.206 1.162-2.269z"></path>
<path fill="#ffdf00" d="M11.527 5.244l0.1 0.231 0.438 0.063-0.287 0.169 0.275 0.181-0.394 0.063-0.125 0.213-0.125-0.219-0.375-0.050 0.25-0.188-0.262-0.169 0.412-0.063 0.1-0.231zM9.465 5.244l0.1 0.231 0.438 0.056-0.281 0.169 0.269 0.181-0.394 0.063-0.125 0.213-0.125-0.213-0.375-0.056 0.25-0.188-0.262-0.169 0.419-0.063 0.094-0.231z"></path>
<path fill="#0000bf" d="M13.421 12.688h-0.463l-0.438-0.031-0.519-0.25h-0.588l-0.506 0.25-0.406 0.037-0.4-0.037-0.506-0.25h-0.594l-0.525 0.25-0.431 0.037-0.475-0.006-0.225-0.387 0.006-0.012 0.7 0.119 0.431-0.031 0.519-0.256h0.588l0.512 0.25 0.4 0.037 0.406-0.037 0.506-0.25h0.588l0.525 0.25 0.431 0.037 0.675-0.125 0.012 0.025-0.231 0.381zM8.021 13.281l0.463-0.031 0.519-0.25h0.588l0.512 0.25 0.4 0.031 0.4-0.031 0.512-0.25h0.588l0.519 0.25 0.469 0.031 0.3-0.375h-0.006l-0.325 0.088-0.431-0.031-0.519-0.25h-0.588l-0.512 0.25-0.4 0.037-0.406-0.037-0.506-0.25h-0.594l-0.525 0.25-0.431 0.037-0.313-0.081v0.012l0.281 0.35z"></path>
</svg>
