<!-- Generated by IcoMoon.io -->
<svg version="1.1" xmlns="http://www.w3.org/2000/svg" width="43" height="32" viewBox="0 0 43 32">
<title>sk</title>
<path fill="#ee1c25" d="M0 0h42.667v32h-42.667z"></path>
<path fill="#0b4ea2" d="M0 0h42.667v21.333h-42.667z"></path>
<path fill="#fff" d="M0 0h42.667v10.667h-42.667z"></path>
<path fill="#fff" d="M15.533 24.72c-2.867-1.38-6.973-4.127-6.973-9.547 0-5.427 0.267-7.893 0.267-7.893h13.42s0.26 2.467 0.26 7.893-4.107 8.16-6.973 9.547z"></path>
<path fill="#ee1c25" d="M15.533 24c-2.633-1.267-6.4-3.787-6.4-8.76s0.24-7.24 0.24-7.24h12.32s0.233 2.267 0.233 7.24c0.007 4.98-3.76 7.493-6.393 8.76z"></path>
<path fill="#fff" d="M16.093 13.933c0.713 0.013 2.107 0.040 3.34-0.373 0 0-0.027 0.447-0.027 0.96s0.033 0.96 0.033 0.96c-1.133-0.38-2.54-0.387-3.347-0.38v2.747h-1.12v-2.747c-0.8-0.007-2.207 0-3.34 0.38 0 0 0.033-0.447 0.033-0.96 0-0.52-0.033-0.96-0.033-0.96 1.233 0.413 2.627 0.387 3.333 0.373v-1.727c-0.647 0-1.58 0.027-2.64 0.38 0 0 0.033-0.44 0.033-0.96 0-0.513-0.033-0.96-0.033-0.96 1.060 0.353 1.993 0.387 2.64 0.38-0.033-1.093-0.353-2.467-0.353-2.467s0.66 0.047 0.92 0.047c0.267 0 0.92-0.047 0.92-0.047s-0.32 1.373-0.353 2.467c0.647 0.007 1.58-0.027 2.64-0.38 0 0-0.033 0.447-0.033 0.96 0 0.52 0.033 0.96 0.033 0.96-0.727-0.243-1.565-0.383-2.435-0.383-0.075 0-0.149 0.001-0.223 0.003l0.011-0v1.733z"></path>
<path fill="#0b4ea2" d="M15.533 17.553c-1.327 0-2.033 1.833-2.033 1.833s-0.4-0.867-1.48-0.867c-0.733 0-1.267 0.647-1.613 1.253 1.333 2.113 3.46 3.42 5.127 4.227 1.667-0.8 3.8-2.113 5.127-4.227-0.347-0.6-0.88-1.253-1.613-1.253-1.080 0-1.48 0.867-1.48 0.867s-0.7-1.833-2.033-1.833z"></path>
</svg>
