<!-- Generated by IcoMoon.io -->
<svg version="1.1" xmlns="http://www.w3.org/2000/svg" width="43" height="32" viewBox="0 0 43 32">
<title>sm</title>
<path fill="#19b6ef" d="M0 16h42.667v16h-42.667z"></path>
<path fill="#fff" d="M0 0h42.667v16h-42.667z"></path>
<path fill="#fd0" d="M21.133 22.613c3.507-2.613 7.267-7.947 2.86-10.76-0.82-0.16-1.733-0.113-2.18 0.24-0.233-0.133-0.42-0.12-0.653 0.127-0.167-0.2-0.333-0.293-0.667-0.193-0.372-0.204-0.816-0.324-1.288-0.324-0.29 0-0.569 0.045-0.832 0.129l0.019-0.005c-3.86 2.293-1.5 7.773 2.74 10.78z"></path>
<path fill="#4fd46b" d="M27.6 16.673s0.4-0.533 0.413-0.533c0.393-0.227 0.433-0.527 0.433-0.527 0.393-0.12 0.267-0.447 0.3-0.487 0.079-0.078 0.128-0.185 0.128-0.305 0-0.061-0.013-0.119-0.036-0.171l0.001 0.003c0-0.053 0.133-0.56-0.053-0.627 0.007-0.533-0.32-0.487-0.587-0.133-0.28 0.080-0.34 0.313-0.24 0.567-0.367 0-0.38 0.533-0.273 0.827-0.487-0.013-0.22 0.533-0.233 0.56-0.16 0.080 0.127 0.853 0.153 0.827zM24.533 21.22l0.24 0.147c0.053 0.187 0.227 0.307 0.353 0.273 0.067 0.287 0.373 0.247 0.6 0.080 0.18 0.267 0.4 0.267 0.707 0.18 0.267 0.2 0.62 0.113 0.853-0.093 0.247 0.2 0.413 0.053 0.54-0.167 0.2 0.053 0.347 0.020 0.42-0.173 0.38-0.033 0.193-0.393-0.12-0.547 0.247-0.213 0.527-0.667 0.133-0.733-0.12-0.087-0.353-0.067-0.527 0.013-0.047-0.2-0.32-0.247-0.627-0.027-0.1-0.22-0.467-0.113-0.633 0.040-0.22-0.187-0.48-0.187-0.86 0.027l-1.080 0.98zM24.533 20.64c0.040-0.253-0.133-0.707 0.133-0.747-0.047-0.42 0.020-0.887 0.5-0.847 0.080-0.393 0.067-0.76 0.52-0.813 0 0 0.367-1.273 0.747-0.393 0.147 0.26 0.12 0.68-0.18 0.6 0.060 0.313-0.047 0.593-0.393 0.58 0.153 0.227 0.107 0.527-0.067 0.667l-1.267 0.953zM26.74 19.047l0.4-0.080c0.4-0.267 0.567-0.38 0.767-0.080 0.34-0.067 0.667-0.040 0.653 0.227 0.4 0.033 0.4 0.287 0.353 0.493 0.067 0.353-0.093 0.82-0.333 0.253-0.793-0.48-1.24-0.413-2.487-0.133l0.647-0.68zM26.947 18.653c0.013-0.013 1.167-0.313 1.047-0.667 0.327-0.053 0.393-0.38 0.4-0.38 0.687-0.213 0.647-0.607 0.647-0.607 0.193-0.207 0.533-0.42 0.46-0.787 0.020-0.42 0.060-0.68-0.507-0.407-0.42-0.040-0.567 0.2-0.687 0.567-0.2-0.233-0.52 0.14-0.56 0.473 0 0-0.513 0.507-0.513 0.52l-0.433 0.8 0.147 0.487z"></path>
<path fill="#4fd46b" d="M26.967 17.76c-0.273-0.207-0.427-0.46-0.38-0.707-0.18-0.247-0.307-0.393-0.133-0.613l-0.133-0.5c-0.36-0.133-0.207-0.433-0.113-0.54-0.167-0.233-0.173-0.48-0.013-0.693 0-0.433 0.307-0.267 0.553 0 0 0 0.427 0.3 0.113 0.567 0.313 0.113 0.4 0.38 0.227 0.493 0.273 0.12 0.313 0.367 0.167 0.533 0.273 0.213 0.173 0.493 0.253 0.74l-0.54 0.72z"></path>
<path fill="#4fd46b" d="M27.453 15.733c-0.013-0.007-0.46-0.58-0.333-0.62-0.033-0.173-0.167-0.367-0.087-0.54-0.22-0.227-0.227-0.487-0.053-0.693-0.147-0.2-0.080-0.473 0.12-0.653-0.067-0.333 0.173-0.413 0.38-0.473 0.153-0.533 0.4-0.4 0.547 0.013 0.213 0.187 0.18 0.467 0.107 0.68 0.253 0.167 0.1 0.38-0.013 0.467l-0.667 1.827z"></path>
<path fill="#4fd46b" d="M27.387 12.873l-0.38-0.38c0.1-0.2 0.18-0.553-0.107-0.72-0.16-0.38-0.947-0.86-1.073 0.053-0.12-0.273-0.373-0.547-0.553-0.227-0.413-0.353-0.633-0.247-0.42 0.2 0 0-0.193 0.3 0.307 0.533 0.040 0.040-0.16 0.54 0.44 0.553-0.113 0.173 0.067 0.413 0.307 0.4-0.167 0.207 0.12 0.433 0.3 0.347-0.073 0.233-0.067 0.347 0.26 0.38l0.367 0.42 0.3 0.407 0.253-1.967z"></path>
<path fill="#65c7ff" d="M21.127 22.227c-2.52-2.373-5.1-6.827-2.533-9.080 0.453 0.253 0.993 0.027 1.733-0.267 0.227 0.247 0.513 0.307 0.8 0.12 0.077 0.039 0.168 0.062 0.265 0.062 0.178 0 0.338-0.078 0.448-0.201l0.001-0.001c0.733 0.42 1.66 0.64 1.88 0.22 2.52 2.4-0.040 6.88-2.6 9.153z"></path>
<path fill="#8fc753" d="M21.133 22.16c-1.125-1.089-2.067-2.357-2.783-3.76l-0.037-0.080c0.133-0.113 0.193-0.147 0.26-0.333 0.387 0.053 0.593 0.067 1.1-0.027 0.107 0.387 0.127 0.707 0.367 1.027l0.513-1c0.165 0.044 0.355 0.069 0.55 0.069s0.385-0.025 0.566-0.072l-0.016 0.003c0.213 0.28 0.133 0.713 0.513 1.040 0.227-0.667 0.447-0.707 0.673-1.067 0.333 0.12 0.547 0.067 0.82-0.020 0.133 0.167 0.067 0.16 0.333 0.4-0.739 1.487-1.695 2.753-2.844 3.812l-0.009 0.008z"></path>
<path fill="#fff" d="M18.173 10.953c0.002 0.012 0.003 0.025 0.003 0.039 0 0.125-0.101 0.227-0.227 0.227s-0.227-0.101-0.227-0.227c0-0.014 0.001-0.027 0.004-0.040l-0 0.001c0-0.125 0.101-0.227 0.227-0.227s0.227 0.101 0.227 0.227v0zM17.94 10.44c0.004 0.016 0.007 0.035 0.007 0.055 0 0.125-0.101 0.227-0.227 0.227s-0.227-0.101-0.227-0.227c0-0.019 0.002-0.038 0.007-0.056l-0 0.002c0.019-0.107 0.112-0.188 0.223-0.188s0.204 0.081 0.223 0.187l0 0.001zM17.673 9.967c0.002 0.012 0.003 0.025 0.003 0.039 0 0.125-0.101 0.227-0.227 0.227s-0.227-0.101-0.227-0.227c0-0.014 0.001-0.027 0.004-0.040l-0 0.001c0.019-0.107 0.112-0.188 0.223-0.188s0.204 0.081 0.223 0.187l0 0.001zM17.487 9.5c0.002 0.012 0.003 0.025 0.003 0.039 0 0.125-0.101 0.227-0.227 0.227s-0.227-0.101-0.227-0.227c0-0.014 0.001-0.027 0.004-0.040l-0 0.001c0.019-0.107 0.112-0.188 0.223-0.188s0.204 0.081 0.223 0.187l0 0.001zM17.52 8.993c0.002 0.012 0.003 0.025 0.003 0.039 0 0.125-0.101 0.227-0.227 0.227s-0.227-0.101-0.227-0.227c0-0.014 0.001-0.027 0.004-0.040l-0 0.001c0.019-0.107 0.112-0.188 0.223-0.188s0.204 0.081 0.223 0.187l0 0.001zM18.693 8.16c0.002 0.012 0.003 0.025 0.003 0.039 0 0.125-0.101 0.227-0.227 0.227s-0.227-0.101-0.227-0.227c0-0.014 0.001-0.027 0.004-0.040l-0 0.001c0.019-0.107 0.112-0.188 0.223-0.188s0.204 0.081 0.223 0.187l0 0.001z"></path>
<path fill="#fff" d="M18.253 8.24c0.002 0.012 0.003 0.025 0.003 0.039 0 0.125-0.101 0.227-0.227 0.227s-0.227-0.101-0.227-0.227c0-0.014 0.001-0.027 0.004-0.040l-0 0.001c0.019-0.107 0.112-0.188 0.223-0.188s0.204 0.081 0.223 0.187l0 0.001zM17.767 8.527c0.002 0.012 0.003 0.025 0.003 0.039 0 0.125-0.101 0.227-0.227 0.227s-0.227-0.101-0.227-0.227c0-0.014 0.001-0.027 0.004-0.040l-0 0.001c0.019-0.107 0.112-0.188 0.223-0.188s0.204 0.081 0.223 0.187l0 0.001zM19.26 8.167c0.004 0.016 0.007 0.035 0.007 0.055 0 0.125-0.101 0.227-0.227 0.227s-0.227-0.101-0.227-0.227c0-0.019 0.002-0.038 0.007-0.056l-0 0.002c0.025-0.1 0.114-0.172 0.22-0.172s0.195 0.072 0.22 0.171l0 0.002zM19.887 8.22c0.002 0.012 0.003 0.025 0.003 0.039 0 0.125-0.101 0.227-0.227 0.227s-0.227-0.101-0.227-0.227c0-0.014 0.001-0.027 0.004-0.040l-0 0.001c0.019-0.107 0.112-0.188 0.223-0.188s0.204 0.081 0.223 0.187l0 0.001zM20.433 8.187c0.004 0.016 0.007 0.035 0.007 0.055 0 0.125-0.101 0.227-0.227 0.227s-0.227-0.101-0.227-0.227c0-0.019 0.002-0.038 0.007-0.056l-0 0.002c0.019-0.107 0.112-0.188 0.223-0.188s0.204 0.081 0.223 0.187l0 0.001z"></path>
<path fill="#fd0" d="M21.727 7.833c0 0.317-0.257 0.573-0.573 0.573s-0.573-0.257-0.573-0.573v0c0-0.317 0.257-0.573 0.573-0.573s0.573 0.257 0.573 0.573v0z"></path>
<path fill="#fff" d="M22.333 8.18c0 0.125-0.101 0.227-0.227 0.227s-0.227-0.101-0.227-0.227v0c0.019-0.107 0.112-0.188 0.223-0.188s0.204 0.081 0.223 0.187l0 0.001zM22.907 8.227c0.004 0.016 0.007 0.035 0.007 0.055 0 0.125-0.101 0.227-0.227 0.227s-0.227-0.101-0.227-0.227c0-0.019 0.002-0.038 0.007-0.056l-0 0.002c0.019-0.107 0.112-0.188 0.223-0.188s0.204 0.081 0.223 0.187l0 0.001zM23.473 8.2c0.002 0.012 0.003 0.025 0.003 0.039 0 0.125-0.101 0.227-0.227 0.227s-0.227-0.101-0.227-0.227c0-0.014 0.001-0.027 0.004-0.040l-0 0.001c0.019-0.107 0.112-0.188 0.223-0.188s0.204 0.081 0.223 0.187l0 0.001zM23.947 8.18c0.002 0.012 0.003 0.025 0.003 0.039 0 0.125-0.101 0.227-0.227 0.227s-0.227-0.101-0.227-0.227c0-0.014 0.001-0.027 0.004-0.040l-0 0.001c0.019-0.107 0.112-0.188 0.223-0.188s0.204 0.081 0.223 0.187l0 0.001zM24.54 8.247c0.002 0.012 0.003 0.025 0.003 0.039 0 0.125-0.101 0.227-0.227 0.227s-0.227-0.101-0.227-0.227c0-0.014 0.001-0.027 0.004-0.040l-0 0.001c0.019-0.107 0.112-0.188 0.223-0.188s0.204 0.081 0.223 0.187l0 0.001zM25.007 8.54c0.002 0.012 0.003 0.025 0.003 0.039 0 0.125-0.101 0.227-0.227 0.227s-0.227-0.101-0.227-0.227c0-0.014 0.001-0.027 0.004-0.040l-0 0.001c0.019-0.107 0.112-0.188 0.223-0.188s0.204 0.081 0.223 0.187l0 0.001z"></path>
<path fill="#e40000" d="M17.96 10.113l0.573 1.1h5.28l0.613-1.060c-0.36-0.247-0.6-0.433-1.113-0.32-0.287-0.413-0.6-0.487-1.067-0.447-0.14-0.14-0.267-0.227-0.507-0.267l-1.107 0.033c-0.293 0.027-0.52 0.253-0.533 0.253-0.467-0.060-0.9-0.047-1.013 0.413-0.433-0.107-0.733 0.013-1.127 0.293z"></path>
<path fill="#fff" d="M25.2 9.020c0.002 0.012 0.003 0.025 0.003 0.039 0 0.125-0.101 0.227-0.227 0.227s-0.227-0.101-0.227-0.227c0-0.014 0.001-0.027 0.004-0.040l-0 0.001c0.019-0.107 0.112-0.188 0.223-0.188s0.204 0.081 0.223 0.187l0 0.001zM25.24 9.553c0.002 0.012 0.003 0.025 0.003 0.039 0 0.125-0.101 0.227-0.227 0.227s-0.227-0.101-0.227-0.227c0-0.014 0.001-0.027 0.004-0.040l-0 0.001c0.019-0.107 0.112-0.188 0.223-0.188s0.204 0.081 0.223 0.187l0 0.001zM25.073 10.033c0.002 0.012 0.003 0.025 0.003 0.039 0 0.125-0.101 0.227-0.227 0.227s-0.227-0.101-0.227-0.227c0-0.014 0.001-0.027 0.004-0.040l-0 0.001c0.019-0.107 0.112-0.188 0.223-0.188s0.204 0.081 0.223 0.187l0 0.001zM24.873 10.433c0 0.125-0.101 0.227-0.227 0.227s-0.227-0.101-0.227-0.227v0c0.019-0.107 0.112-0.188 0.223-0.188s0.204 0.081 0.223 0.187l0 0.001zM24.627 10.933c0.002 0.012 0.003 0.025 0.003 0.039 0 0.125-0.101 0.227-0.227 0.227s-0.227-0.101-0.227-0.227c0-0.014 0.001-0.027 0.004-0.040l-0 0.001c0.019-0.107 0.112-0.188 0.223-0.188s0.204 0.081 0.223 0.187l0 0.001zM21.507 10.293c0 0.184-0.149 0.333-0.333 0.333s-0.333-0.149-0.333-0.333v0c0-0.184 0.149-0.333 0.333-0.333s0.333 0.149 0.333 0.333v0z"></path>
<path fill="#fff" d="M21.573 9.533c0 0.221-0.179 0.4-0.4 0.4s-0.4-0.179-0.4-0.4v0c0-0.221 0.179-0.4 0.4-0.4s0.4 0.179 0.4 0.4v0z"></path>
<path fill="#fff" d="M21.513 8.8c0 0.199-0.161 0.36-0.36 0.36s-0.36-0.161-0.36-0.36v0c0-0.199 0.161-0.36 0.36-0.36s0.36 0.161 0.36 0.36v0z"></path>
<path fill="#fd0" d="M21.033 7.267v-0.28l-0.24-0.007 0.013-0.213h0.2v-0.187h0.3v0.167h0.233l-0.007 0.227h-0.24v0.3h-0.267z"></path>
<path fill="#fd0" d="M18.487 11.807c0.792-0.077 1.713-0.12 2.643-0.12s1.851 0.044 2.759 0.129l-0.116-0.009 0.207-0.6c-1.847-0.333-3.12-0.373-5.533-0.040l0.040 0.64z"></path>
<path fill="#c76e2e" d="M20.94 21.96l0.040-0.28c0.193 0.053 0.333 0.033 0.493-0.027l0.16-0.247-0.12-0.14c-0.107 0.020-0.2 0.12-0.267 0.207-0.107 0.007-0.2-0.047-0.307-0.067l-0.1-0.427c-0.1-0.12-0.313-0.113-0.267 0.1l0.020 0.167c0.040 0.1 0.060 0.24 0.127 0.313v0.173l0.22 0.227zM21.020 20.74c-0.133 0.067-0.307-0.053-0.487-0.127-0.167-0.007-0.293 0.133-0.493 0.087 0.040-0.107 0.127-0.127 0.187-0.187-0.047-0.273 0.1-0.367 0.14-0.367s0.207 0.040 0.207 0.040l0.16 0.020c0.1 0.18 0.233 0.333 0.287 0.533z"></path>
<path fill="#ffe100" d="M20.053 24.4c0.467-0.76 3.747-2.293 6.827-5.613-3.133 3.020-5.093 3.76-7.653 5.6l0.827 0.020z"></path>
<path fill="#9d4916" d="M24.56 20.88c0 0.133-0.107 0.24-0.24 0.24s-0.24-0.107-0.24-0.24v0c0-0.133 0.107-0.24 0.24-0.24s0.24 0.107 0.24 0.24v0zM26.853 18.553c0 0.149-0.121 0.27-0.27 0.27s-0.27-0.121-0.27-0.27v0c0-0.147 0.119-0.267 0.267-0.267s0.267 0.119 0.267 0.267v0zM27.613 16.58c0.002 0.012 0.003 0.026 0.003 0.040 0 0.133-0.107 0.24-0.24 0.24s-0.24-0.107-0.24-0.24c0-0.014 0.001-0.028 0.004-0.041l-0 0.001c0.020-0.114 0.118-0.2 0.237-0.2s0.217 0.086 0.236 0.199l0 0.001zM26.867 14.020c0.002 0.012 0.003 0.026 0.003 0.040 0 0.133-0.107 0.24-0.24 0.24s-0.24-0.107-0.24-0.24c0-0.014 0.001-0.028 0.004-0.041l-0 0.001c0.020-0.114 0.118-0.2 0.237-0.2s0.217 0.086 0.236 0.199l0 0.001z"></path>
<path fill="#fff" d="M18.607 17.973v-1.013l-0.1-0.080v-0.24l0.187-0.020 0.033-1.133-0.12-0.067-0.013-0.187s0.133 0.053 0.133 0.020l0.033-0.227s-0.087-0.013-0.087-0.047 0.107-0.12 0.107-0.12-0.053-0.053-0.067-0.087l-0.053-0.187 0.053-0.193-0.033-0.1-0.087-0.153 0.12-0.12-0.033-0.187c0.024-0.074 0.058-0.138 0.101-0.195l-0.001 0.002c0.020-0.013 0.153-0.2 0.153-0.2l0.293-0.067 0.34 0.047 0.187 0.12 0.033 0.307s-0.033 0.187-0.047 0.187l-0.153 0.067s-0.173 0.020-0.193 0 0.053 0.213 0.053 0.213v0.2l-0.013 0.26s0 0.12-0.020 0.133-0.053 0.067-0.053 0.067l-0.013 0.267 0.267 0.067-0.013 0.153-0.187 0.013 0.033 1.047 0.273 0.047v0.293l-0.12 0.067-0.033 1.047h-0.96zM22.767 17.993v-1.013l-0.1-0.087v-0.24l0.187-0.013 0.033-1.133-0.12-0.067-0.013-0.187s0.133 0.047 0.133 0.013l0.033-0.22s-0.087-0.020-0.087-0.053 0.107-0.12 0.107-0.12-0.053-0.047-0.067-0.087l-0.053-0.187 0.053-0.187-0.040-0.1-0.080-0.153 0.12-0.12-0.040-0.193c0.027-0.072 0.063-0.133 0.108-0.188l-0.001 0.001 0.153-0.2 0.293-0.073 0.34 0.053 0.187 0.12 0.033 0.307s-0.033 0.187-0.047 0.187l-0.153 0.067s-0.173 0.020-0.193 0 0.053 0.207 0.053 0.207v0.207l-0.020 0.26s0 0.113-0.013 0.133l-0.053 0.067-0.013 0.26 0.267 0.067-0.013 0.153-0.187 0.020 0.033 1.040 0.273 0.053v0.293l-0.12 0.067-0.033 1.047h-0.96zM20.66 18.027v-1.013l-0.1-0.080v-0.247l0.187-0.013 0.033-1.133-0.12-0.067-0.013-0.187s0.133 0.053 0.133 0.020l0.033-0.227s-0.080-0.013-0.080-0.047 0.1-0.127 0.1-0.127-0.053-0.047-0.067-0.080l-0.053-0.193 0.053-0.187-0.033-0.1-0.087-0.153 0.12-0.12-0.033-0.193c0.024-0.072 0.058-0.134 0.101-0.188l-0.001 0.001c0.020-0.013 0.153-0.2 0.153-0.2l0.293-0.067 0.34 0.047 0.187 0.12 0.040 0.307s-0.040 0.187-0.053 0.187l-0.153 0.067s-0.173 0.020-0.187 0 0.047 0.207 0.047 0.207v0.207l-0.013 0.26s0 0.12-0.020 0.133l-0.053 0.067-0.013 0.26 0.267 0.067-0.013 0.153-0.187 0.020 0.033 1.047 0.273 0.047v0.293l-0.12 0.067-0.033 1.047h-0.953z"></path>
<path fill="#000" d="M18.867 17.967v-0.8h0.44v0.833l-0.447-0.033zM20.96 18.033l0.020-0.813h0.4v0.793l-0.42 0.013zM23.027 18.013l-0.027-0.767 0.433-0.013v0.8l-0.4-0.020zM18.973 15.613h0.253v0.407h-0.253zM20.993 15.627h0.353v0.4h-0.353zM23.060 15.66h0.307v0.38h-0.3z"></path>
<path fill="#b97700" d="M18.813 12.933c0.8-0.26-0.187-0.773-0.353 0-0.253 0.047-0.287 0.233-0.847 0.153-1.36 2.2-0.353 5.767 3.607 9.453-7.093-6.040-4.213-10.507-2.247-10.333 1.067 0.067 0.533 1.4-0.16 0.733z"></path>
<path fill="#c76e2e" d="M20.040 20.127c0.013 0 0.253-0.047 0.253-0.16 0.12-0.080 0.033-0.3 0.033-0.3l-0.227-0.040-0.307-0.347c-0.013-0.107 0.020-0.207-0.047-0.32-0.213 0.053-0.333 0.233-0.4 0.433 0.047 0.067 0.053 0.133 0.153 0.193 0.1 0.013 0.167-0.047 0.26-0.027 0.047 0.087 0.033 0.16 0.053 0.24 0.127 0.087 0.153 0.213 0.227 0.327zM19.767 18.647v-0.413l-0.293-0.013c-0.040 0.067-0.107 0.093-0.147 0.147l-0.207 0.107c0.087 0.1 0.193 0.16 0.253 0.213 0.153 0.040 0.273 0.040 0.393-0.040zM18.847 19.253l-0.16-0.267c0.038-0.011 0.082-0.017 0.128-0.017 0.067 0 0.131 0.014 0.189 0.038l-0.003-0.001s0.067 0.167 0.020 0.227c-0.027 0.060-0.18 0.033-0.173 0.020zM21.28 19.527c0.092-0.040 0.159-0.12 0.18-0.218l0-0.002-0.3-0.34-0.267-0.007c-0.067-0.067-0.16-0.080-0.24-0.080 0 0 0.080 0.133 0.187 0.153 0.080 0.173 0.413 0.493 0.44 0.493zM21.567 19.567c0-0.007 0.267-0.093 0.4-0.087-0.007-0.107 0.2-0.353 0.2-0.353l0.373 0.487c-0.067 0.053-0.187 0.040-0.28 0.053 0 0-0.18 0.173-0.2 0.18s-0.347 0.087-0.507-0.013c-0.067-0.133 0.020-0.287 0.013-0.267zM21.78 18.713c0.022-0.076 0.035-0.163 0.035-0.253s-0.013-0.177-0.037-0.26l0.002 0.007h-0.427l-0.28 0.133s0.087 0.28 0.2 0.253c0.047 0.14 0.193 0.107 0.267 0.16l0.24-0.040zM23.44 18.287c-0.067 0.18-0.093 0.367-0.013 0.533 0.080 0.020 0.173 0.067 0.24 0.053l0.34-0.613c-0.233-0.073-0.427-0.067-0.573 0.027z"></path>
<path fill="#b97700" d="M23.54 12.88c-0.8-0.26 0.187-0.78 0.353 0 0.26 0.040 0.293 0.233 0.853 0.153 1.353 2.2 0.347 5.767-3.613 9.453 7.1-6.040 4.213-10.507 2.247-10.34-1.067 0.067-0.533 1.4 0.16 0.733z"></path>
<path fill="#c76e2e" d="M23.62 18.98c-0.013 0-0.2 0.133-0.2 0.133l-0.28 0.113-0.293 0.007-0.067-0.2 0.227-0.2c-0.187-0.033-0.38 0.047-0.533 0.187 0 0 0 0.22 0.133 0.333 0.073 0.093 0.3 0.267 0.3 0.267 0.031 0.007 0.066 0.011 0.102 0.011 0.096 0 0.186-0.029 0.26-0.079l-0.002 0.001 0.353-0.573zM22.073 20.987c0.093 0.027 0.753-0.847 0.753-0.847-0.061-0.158-0.177-0.284-0.323-0.358l-0.004-0.002s-0.32 0.38-0.327 0.507c-0.053 0.113-0.2 0.553-0.133 0.613-0.007 0.013-0.033 0.193 0.033 0.087z"></path>
<path fill="#006800" d="M17.76 21.16c-0.987-0.86-2.32-1.333-4.18-0.687 0.5 0.213 1.040 0.287 1.5 0.527l2.68 0.16z"></path>
<path fill="#006800" d="M17.8 21.267c-0.587 0.107-1.387 0.667-1.627 0.647-0.633-0.073-1.233-0.333-1.847-0.533-0.253-0.080-0.513 0-0.773 0 2.187-1.033 2.933-0.893 4.247-0.12z"></path>
<path fill="#006800" d="M16.36 19.733s-0.733 0.107-1.060 0.127c-0.32-0.020-0.8-0.32-1.32-0.867-0.267-0.307-0.893-0.267-0.893-0.267 1.373-0.293 2.447-0.013 3.267 1.013zM15.36 18.32c-0.993-0.067-2.233-0.953-2.513-2.013 0 0.013 0.367 0.233 0.307 0.287 1.627 0.413 1.733 0.747 2.207 1.727zM17.027 20.020c0.14-0.9 0.18-1.493-0.24-2.027-0.353-0.4-0.44-0.647-0.693-1.22-0.073 1.187-0.333 2.167 0.933 3.247zM15.467 17.533c0.733-1.073 0.867-1.887 0.747-3.167-0.020 0.1-0.267 0.733-0.28 0.733-1.1 0.687-0.613 1.767-0.467 2.433z"></path>
<path fill="#006800" d="M14.813 12.333c0.733 1.073 0.627 2.087 0.507 3.367-0.020-0.1-0.267-0.733-0.28-0.733-1.1-0.687-0.367-1.967-0.227-2.633z"></path>
<path fill="#006800" d="M15.42 14c1.787-0.907 1.1-2.047 1.427-2.933-1.24 0.927-1.4 1.907-1.42 2.933z"></path>
<path fill="#006800" d="M15.22 17.1c-1-0.067-2.067-1.42-2.353-2.473 0 0.013 0.367 0.227 0.307 0.28 1.427 0.64 1.573 1.213 2.047 2.193zM14.927 16.167c-0.733-1.073-0.867-1.887-0.753-3.167 0.020 0.1 0.267 0.733 0.287 0.733 1.093 0.687 0.607 1.767 0.467 2.433zM15.587 14.28c1.847-0.82 1.28-1.68 1.827-2.58-1.24 0.92-1.807 1.56-1.827 2.58z"></path>
<path fill="#ffe100" d="M22.24 24.427l0.893 0.013c-2.98-2.8-8.7-4.013-7.907-9.16-0.82 5.58 4.673 6.1 7.013 9.147z"></path>
<path fill="#9d4916" d="M15.693 14.18c0 0.158-0.128 0.287-0.287 0.287s-0.287-0.128-0.287-0.287v0c0-0.158 0.128-0.287 0.287-0.287s0.287 0.128 0.287 0.287v0zM15.52 15.753c0 0.149-0.121 0.27-0.27 0.27s-0.27-0.121-0.27-0.27v0c0-0.147 0.119-0.267 0.267-0.267s0.267 0.119 0.267 0.267v0zM15.773 18c0 0.133-0.107 0.24-0.24 0.24s-0.24-0.107-0.24-0.24v0c0-0.133 0.107-0.24 0.24-0.24s0.24 0.107 0.24 0.24v0zM17.86 20.48c0 0.133-0.107 0.24-0.24 0.24s-0.24-0.107-0.24-0.24v0c0-0.133 0.107-0.24 0.24-0.24s0.24 0.107 0.24 0.24v0zM18.16 21.193c0 0.133-0.107 0.24-0.24 0.24s-0.24-0.107-0.24-0.24v0c0-0.133 0.107-0.24 0.24-0.24s0.24 0.107 0.24 0.24v0z"></path>
<path fill="#fff" d="M19.213 23.267c-0.136-0.101-0.244-0.23-0.317-0.381l-0.003-0.006-0.933-0.1-0.013 0.533 1.267-0.047z"></path>
<path fill="#fff" d="M12.353 22.64c0.547 0.1 1.367-0.053 1.633 0.3 0.32 0.36-1.007 0.927-0.82 1.24 0.413 0.433 0.833 0.253 1.293 0.013 0.113-0.233 0.2-0.653 0.253-0.78-0.167-0.38-0.62-0.573-0.5-1.153 0.753-0.28 2.213-0.26 2.373-0.147 0.12 0.24 0.007 0.347 0.033 0.54-0.127 0.247-0.447 0.653-0.447 0.873 0.8 0.28 1-0.040 1.72-0.027 0.84 0.013 1.347 0.24 1.533-0.093-0.133-0.293-0.9-0.053-1.187-0.24-0.147-0.047-0.24-0.167-0.367-0.293s-0.48-0.133-0.533-0.46c0.147-0.68 1.133-0.573 1.287-0.68l2.56 0.18c0.467-0.013 0.733 0.82 0.1 1.067-0.627 0.253-2.473-0.367-3.28 0.060-0.040-0.173-0.62-0.44-0.66-0.447-0.247 0.067-0.727 0.047-0.727 0.047-0.113 0.213-0.253 0.373-0.367 0.593-0.533-0.233-1.033 0.18-1.613 0.060l-0.907 0.1-0.573-0.053-0.88 0.253 0.627-0.553-0.553-0.4z"></path>
<path fill="#fff" d="M12.313 22.533c0 0.133-0.107 0.24-0.24 0.24s-0.24-0.107-0.24-0.24v0c0-0.133 0.107-0.24 0.24-0.24s0.24 0.107 0.24 0.24v0zM12.247 23.733c0 0.133-0.107 0.24-0.24 0.24s-0.24-0.107-0.24-0.24v0c0-0.134 0.109-0.243 0.243-0.243s0.243 0.109 0.243 0.243v0z"></path>
<path fill="#fff" d="M23.087 23.273c0.153-0.14 0.253-0.233 0.313-0.387l0.933-0.107 0.020 0.533-1.267-0.040z"></path>
<path fill="#fff" d="M29.94 22.64c-0.54 0.1-1.36-0.047-1.627 0.3-0.327 0.367 1 0.933 0.813 1.24-0.413 0.44-0.833 0.26-1.293 0.020-0.107-0.233-0.193-0.653-0.253-0.78 0.173-0.387 0.62-0.573 0.507-1.153-0.76-0.287-2.22-0.267-2.373-0.153-0.127 0.247-0.013 0.353-0.040 0.547 0.133 0.24 0.453 0.653 0.453 0.867-0.8 0.287-1.007-0.040-1.72-0.020-0.84 0.013-1.353 0.233-1.533-0.1 0.127-0.287 0.893-0.053 1.187-0.233 0.147-0.053 0.24-0.167 0.367-0.3s0.48-0.133 0.533-0.453c-0.147-0.68-1.133-0.58-1.293-0.68l-2.56 0.173c-0.467-0.013-0.727 0.82-0.1 1.073s2.48-0.373 3.28 0.053c0.047-0.173 0.62-0.433 0.667-0.447 0.24 0.073 0.72 0.047 0.72 0.047 0.12 0.22 0.253 0.38 0.373 0.6 0.533-0.24 1.033 0.18 1.613 0.053l0.9 0.1 0.58-0.047 0.88 0.247-0.627-0.547 0.547-0.4z"></path>
<path fill="#fff" d="M29.98 22.533c0 0.134 0.109 0.243 0.243 0.243s0.243-0.109 0.243-0.243v0c0-0.134-0.109-0.243-0.243-0.243s-0.243 0.109-0.243 0.243v0zM30.047 23.733c0 0.133 0.107 0.24 0.24 0.24s0.24-0.107 0.24-0.24v0c0-0.133-0.107-0.24-0.24-0.24s-0.24 0.107-0.24 0.24v0z"></path>
<path fill="#fff" d="M21.133 21.953c-0.213-0.040-0.293-0.027-0.44-0.040l-0.34 1.053c0.533 0.047 1.020 0.047 1.020 0.047-0.32-0.067-0.247-1.053-0.24-1.060z"></path>
</svg>
