<!-- Generated by IcoMoon.io -->
<svg version="1.1" xmlns="http://www.w3.org/2000/svg" width="43" height="32" viewBox="0 0 43 32">
<title>st</title>
<path fill="#12ad2b" d="M0 0h42.667v32h-42.667z"></path>
<path fill="#ffce00" d="M0 9.14h42.667v13.727h-42.667z"></path>
<path fill="#d21034" d="M0 0v32l16-16z"></path>
<path fill="#000" d="M23.44 11.429l-1.413 4.348 2.174 0.706z"></path>
<path fill="#000" d="M23.44 11.429l1.413 4.348-2.174 0.706z"></path>
<path fill="#000" d="M27.788 14.587h-4.571v2.286z"></path>
<path fill="#000" d="M27.788 14.587l-3.698 2.687-1.344-1.849z"></path>
<path fill="#000" d="M26.127 19.698l-1.413-4.348-2.174 0.706z"></path>
<path fill="#000" d="M26.127 19.698l-3.698-2.687 1.344-1.849z"></path>
<path fill="#000" d="M20.753 19.698l3.698-2.687-1.344-1.849z"></path>
<path fill="#000" d="M20.753 19.698l1.413-4.348 2.174 0.706z"></path>
<path fill="#000" d="M19.092 14.587l3.698 2.687 1.344-1.849z"></path>
<path fill="#000" d="M19.092 14.587h4.571v2.286z"></path>
<path fill="#000" d="M11.787-13.333l-4.12 12.681 6.34 2.060z"></path>
<path fill="#000" d="M11.787-13.333l4.12 12.681-6.34 2.060z"></path>
<path fill="#000" d="M24.467-4.12l-10.787 7.837-3.919-5.393z"></path>
<path fill="#000" d="M19.624 10.787l-10.787-7.837 3.919-5.393z"></path>
<path fill="#000" d="M3.95 10.787l4.12-12.681 6.34 2.060z"></path>
<path fill="#000" d="M-0.894-4.12h13.333v6.667z"></path>
</svg>
