<!-- Generated by IcoMoon.io -->
<svg version="1.1" xmlns="http://www.w3.org/2000/svg" width="43" height="32" viewBox="0 0 43 32">
<title>sv</title>
<path fill="#0f47af" d="M0 0h42.667v32h-42.667z"></path>
<path fill="#fff" d="M0 10.667h42.667v10.667h-42.667z"></path>
<path fill="#fff" d="M21.287 18.848c0.080 0 0.171 0 0.539-0.091 0.373-0.091 0.677-0.315 0.747-0.347 0.075-0.032 0.176-0.021 0.176-0.021-0.077-0.086-0.186-0.142-0.308-0.149l-0.001-0c-0.16 0-0.101 0-0.235 0.059-0.139 0.053-0.427 0.229-0.907 0.229h-0.005c-0.48 0-0.784-0.171-0.917-0.229-0.139-0.053-0.075-0.053-0.235-0.053s-0.272 0.101-0.32 0.144c0 0 0.107-0.011 0.181 0.021s0.379 0.256 0.747 0.347c0.373 0.091 0.459 0.091 0.539 0.091z"></path>
<path fill="#fff" d="M19.868 18.528c0.037-0.021-0.011-0.085-0.011-0.085l0.144-0.032c-0.069-0.032-0.176-0.021-0.176-0.021-0.027 0.021-0.021 0.048-0.027 0.069 0 0.021 0 0.053 0.011 0.069 0.016 0.016 0.053 0 0.053 0z"></path>
<path fill="#fff" d="M20.007 18.411l-0.149 0.032s0.048 0.064 0.011 0.091l0.256-0.053-0.123-0.069zM22.711 18.528c-0.037-0.021 0.005-0.085 0.005-0.085l-0.144-0.032c0.075-0.032 0.176-0.021 0.176-0.021 0.032 0.021 0.027 0.048 0.032 0.069 0 0.021 0 0.053-0.016 0.069s-0.053 0-0.053 0z"></path>
<path fill="#fff" d="M22.572 18.411l0.144 0.032s-0.043 0.064-0.005 0.091l-0.256-0.053 0.117-0.069z"></path>
<path fill="#000" d="M20.263 18.309l-0.064 0.16 0.032 0.016c0.048 0.016 0.096 0.005 0.117-0.048s-0.005-0.096-0.053-0.112l-0.032-0.016zM20.279 18.341c0.043 0.021 0.064 0.048 0.048 0.091s-0.053 0.043-0.091 0.027h-0.005l0.048-0.117z"></path>
<path fill="#000" d="M20.359 18.539l-0.021-0.005 0.075-0.16 0.016 0.005-0.069 0.16z"></path>
<path fill="#000" d="M20.497 18.416c-0.032 0-0.064 0.021-0.080 0.053-0.021 0.053 0 0.101 0.043 0.123 0.043 0.016 0.096 0 0.117-0.053 0.004-0.010 0.007-0.022 0.007-0.034 0-0.037-0.022-0.069-0.054-0.083l-0.001-0c-0.009-0.003-0.018-0.005-0.029-0.005-0.001 0-0.002 0-0.003 0h0zM20.497 18.443h0.027c0.032 0.016 0.043 0.053 0.027 0.085-0.011 0.032-0.053 0.053-0.080 0.037s-0.043-0.053-0.027-0.085c0.011-0.021 0.027-0.037 0.053-0.037z"></path>
<path fill="#000" d="M20.689 18.528c0-0.016-0.005-0.021-0.016-0.027-0.016-0.005-0.032 0-0.037 0.011l0.011 0.032 0.016 0.011c0.016 0.016 0.027 0.037 0.016 0.064-0.008 0.021-0.027 0.036-0.050 0.036-0.007 0-0.013-0.001-0.019-0.004l0 0c-0.020-0.008-0.034-0.027-0.034-0.050 0-0.005 0.001-0.010 0.002-0.015l-0 0h0.021c-0.005 0.021 0 0.037 0.021 0.048 0.016 0 0.032-0.005 0.037-0.021 0.011-0.021 0-0.032-0.011-0.043l-0.011-0.011c-0.016-0.011-0.027-0.027-0.016-0.053 0.005-0.027 0.037-0.032 0.053-0.027 0.021 0.011 0.032 0.021 0.037 0.043h-0.021zM20.817 18.533l-0.027 0.101c-0.005 0.027-0.005 0.053 0.021 0.064 0.032 0.005 0.048-0.016 0.053-0.043l0.032-0.101 0.016 0.011-0.027 0.101c-0.011 0.037-0.043 0.059-0.080 0.053-0.037-0.016-0.053-0.053-0.037-0.085l0.032-0.107 0.016 0.005zM21.052 18.773l-0.096-0.16-0.027 0.128h-0.021l0.037-0.181 0.096 0.16 0.021-0.128h0.021zM21.095 18.773l0.021-0.171h0.016l-0.021 0.171z"></path>
<path fill="#000" d="M21.244 18.608c-0.002-0-0.003-0-0.005-0-0.047 0-0.085 0.038-0.085 0.085 0 0 0 0 0 0v0c0 0.053 0.037 0.091 0.085 0.096 0.043 0 0.085-0.037 0.085-0.091 0-0.048-0.037-0.091-0.080-0.091zM21.244 18.635c0.032 0 0.053 0.032 0.053 0.064 0 0.002 0 0.003 0 0.005 0 0.032-0.026 0.059-0.059 0.059-0 0-0 0-0 0v0c-0.032 0-0.059-0.032-0.059-0.069 0-0.032 0.027-0.064 0.059-0.064z"></path>
<path fill="#000" d="M21.5 18.779l-0.128-0.123 0.005 0.128h-0.021l-0.011-0.181 0.133 0.128-0.011-0.128h0.021zM21.612 18.752l-0.032-0.171h0.021l0.032 0.149 0.048-0.011v0.021zM21.708 18.736l-0.043-0.171h0.021l0.037 0.165z"></path>
<path fill="#000" d="M21.761 18.544h-0.021l-0.021 0.011 0.048 0.165 0.037-0.005c0.027-0.011 0.053-0.032 0.043-0.064-0.005-0.021-0.021-0.037-0.043-0.032l0.005-0.043c-0.011-0.027-0.027-0.032-0.053-0.032zM21.761 18.565c0.011 0 0.021 0 0.027 0.021 0.011 0.021-0.005 0.027-0.021 0.032h-0.005l-0.016-0.053h0.005c0.002-0 0.003-0 0.005-0s0.004 0 0.006 0l-0-0zM21.788 18.635c0.016 0 0.032 0 0.032 0.021 0.011 0.021-0.005 0.027-0.021 0.032l-0.016 0.005-0.016-0.053h0.021z"></path>
<path fill="#000" d="M21.937 18.56l0.011 0.016-0.064 0.021 0.021 0.064 0.064-0.027 0.005 0.021-0.080 0.032-0.059-0.165 0.085-0.032v0.016l-0.059 0.027 0.016 0.043z"></path>
<path fill="#000" d="M22.012 18.464c-0.016 0-0.027 0-0.043 0.011l-0.021 0.005 0.064 0.16h0.016l-0.021-0.075 0.075 0.048 0.027-0.005-0.080-0.053c0.021-0.011 0.032-0.037 0.021-0.059-0.006-0.017-0.020-0.029-0.037-0.032l-0-0zM22.012 18.485l0.016 0.016c0.011 0.027-0.011 0.037-0.027 0.043l-0.027-0.053h0.005l0.027-0.005z"></path>
<path fill="#000" d="M22.044 18.443l0.091-0.043 0.011 0.016-0.037 0.016 0.064 0.144-0.016 0.005-0.064-0.139-0.037 0.016z"></path>
<path fill="#000" d="M22.204 18.357l0.011 0.197 0.021-0.011v-0.043l0.069-0.037 0.032 0.032 0.021-0.016-0.155-0.123zM22.225 18.405l0.053 0.043-0.043 0.027-0.005-0.069zM22.369 18.288l-0.053 0.016-0.027 0.016 0.091 0.149 0.027-0.016c0.048-0.027 0.069-0.075 0.037-0.123-0.021-0.032-0.048-0.043-0.075-0.043zM22.38 18.315c0.016 0 0.032 0.011 0.043 0.027 0.021 0.043 0 0.069-0.032 0.091l-0.069-0.101h0.005l0.053-0.016z"></path>
<path fill="#e60000" d="M19.687 18.944c0.032 0 0.053-0.021 0.053-0.053-0.003-0.024-0.023-0.043-0.048-0.043-0.002 0-0.004 0-0.006 0l0-0c-0.021 0-0.043 0.021-0.043 0.048s0.021 0.048 0.048 0.048zM19.42 19.28c0.027 0 0.048-0.021 0.048-0.053-0.005-0.025-0.027-0.043-0.052-0.043-0 0-0.001 0-0.001 0h0c-0.025 0.003-0.046 0.023-0.048 0.048l-0 0c0 0.027 0.027 0.048 0.053 0.048zM18.78 18.219c0.027 0 0.053-0.021 0.053-0.048-0.003-0.027-0.026-0.048-0.053-0.048-0 0-0 0-0 0v0c-0.024 0.003-0.043 0.023-0.043 0.048 0 0.002 0 0.004 0 0.006l-0-0c0 0.021 0.016 0.043 0.048 0.043zM18.391 18.416c0.027 0 0.053-0.021 0.053-0.053 0-0.027-0.027-0.053-0.053-0.053-0.029 0-0.053 0.024-0.053 0.053v0c0 0.032 0.021 0.053 0.053 0.053zM18.316 17.227c0.029 0 0.053-0.024 0.053-0.053v0c0-0.027-0.021-0.053-0.053-0.053-0.029 0-0.053 0.024-0.053 0.053v0c0 0.029 0.024 0.053 0.053 0.053v0zM17.985 17.323c0.029 0 0.053-0.024 0.053-0.053v0c0-0.029-0.024-0.053-0.053-0.053v0c-0.029 0-0.053 0.024-0.053 0.053v0c0 0.029 0.024 0.053 0.053 0.053v0zM18.156 16.267c0.029 0 0.053-0.024 0.053-0.053v0c0-0.029-0.024-0.053-0.053-0.053v0c-0.029 0-0.053 0.024-0.053 0.053v0c0 0.027 0.021 0.053 0.053 0.053zM17.863 15.291c0.027 0 0.053-0.021 0.053-0.053 0-0.029-0.024-0.053-0.053-0.053v0c-0.029 0-0.053 0.024-0.053 0.053v0c0 0.032 0.021 0.053 0.053 0.053zM18.236 15.387c0.029 0 0.053-0.024 0.053-0.053v0c0-0.027-0.021-0.053-0.053-0.053-0.029 0-0.053 0.024-0.053 0.053v0c0 0.029 0.024 0.053 0.053 0.053v0zM18.609 14.576c0.027 0 0.053-0.021 0.053-0.053 0-0.027-0.027-0.053-0.053-0.053-0.029 0-0.053 0.024-0.053 0.053s0.024 0.053 0.053 0.053v0zM18.327 14.352c0.029 0 0.053-0.024 0.053-0.053v0c0-0.029-0.024-0.053-0.053-0.053v0c-0.029 0-0.053 0.024-0.053 0.053v0c0 0.029 0.024 0.053 0.053 0.053v0zM18.887 13.803c0.029 0 0.053-0.024 0.053-0.053v0c0-0.029-0.024-0.053-0.053-0.053v0c-0.029 0-0.053 0.024-0.053 0.053v0c0 0.029 0.024 0.053 0.053 0.053v0zM17.74 16.272c0.032 0 0.053-0.021 0.053-0.053s-0.021-0.053-0.053-0.053c-0.029 0-0.053 0.024-0.053 0.053v0c0 0.032 0.027 0.053 0.053 0.053z"></path>
<path fill="#1f601a" d="M22.236 20.176l-0.24-0.016c-0.032 0-0.107-0.144-0.139-0.165-0.032-0.027-0.576-0.293-0.933-0.347-0.385-0.080-0.724-0.19-1.046-0.333l0.032 0.013c-0.539-0.265-0.999-0.608-1.384-1.021l-0.003-0.003c-0.155-0.224-0.32-0.747-0.384-1.024-0.037-0.133-0.213-0.661-0.213-1.024-0-0.005-0-0.010-0-0.016 0-0.361 0.043-0.713 0.124-1.049l-0.006 0.031c0.221-0.546 0.495-1.018 0.826-1.443l-0.010 0.013s-0.64 0.997-0.757 1.381c-0.085 0.32-0.134 0.688-0.134 1.068 0 0.028 0 0.055 0.001 0.083l-0-0.004c0.005 0.224 0.192 1.045 0.464 1.648 0.219 0.48 0.411 0.544 0.747 0.811 0.16 0.128 0.469 0.331 0.725 0.459s0.8 0.293 0.949 0.315c0.144 0.027 0.875 0.24 0.971 0.288 0.096 0.053 0.347 0.267 0.411 0.336z"></path>
<path fill="#1f601a" d="M18.572 18.315c0.016-0.075 0.021-0.128 0.053-0.149 0.046-0.054 0.086-0.115 0.115-0.182l0.002-0.005c0.016-0.064 0-0.117 0-0.149l0.021-0.144s-0.037-0.133-0.069-0.16c-0.032-0.021-0.117-0.139-0.133-0.171 0 0 0.011 0.069-0.016 0.101-0.020 0.045-0.032 0.097-0.032 0.151 0 0.003 0 0.006 0 0.009v-0c0 0.048 0.016 0.16 0 0.213-0.016 0.064-0.037 0.117-0.021 0.187l0.080 0.299zM18.545 18.235s-0.181-0.235-0.181-0.331c0-0.096-0.016-0.155-0.032-0.176s-0.123-0.144-0.027-0.299c0.043-0.064 0.053-0.053 0.075-0.128 0.032-0.085 0.096-0.085 0.107-0.176 0 0 0.021 0.107 0.027 0.192 0.011 0.091-0.005 0.123-0.011 0.171-0.011 0.048 0.021 0.107 0.021 0.176 0 0.075-0.011 0.101-0.011 0.144 0 0.021-0.027 0.331 0.032 0.427zM20.604 19.488l-0.213-0.027c-0.037 0-0.133-0.027-0.187-0.048-0.085-0.033-0.157-0.084-0.213-0.149l-0.001-0.001c-0.149-0.16-0.133-0.24-0.16-0.245-0.053-0.011 0.080-0.021 0.149-0.016 0.059 0.011 0.149 0.053 0.203 0.107 0.064 0.059 0.16 0.123 0.187 0.144 0.032 0.027 0.053 0.037 0.091 0.080 0.037 0.053 0.032 0.080 0.144 0.16z"></path>
<path fill="#1f601a" d="M20.817 19.6s-0.384-0.171-0.427-0.203c-0.055-0.044-0.103-0.089-0.149-0.138l-0.001-0.001c-0.037-0.043-0.203-0.128-0.229-0.181-0.016-0.037-0.123-0.176-0.181-0.288-0.027-0.053 0.261 0.016 0.261 0.016 0.235 0.096 0.128 0.032 0.256 0.128 0.080 0.059 0.133 0.107 0.155 0.155 0.032 0.069 0.064 0.187 0.101 0.251 0.032 0.064 0.091 0.144 0.213 0.267z"></path>
<path fill="#1f601a" d="M21.031 19.648s-0.32-0.080-0.469-0.277c-0.107-0.139-0.107-0.096-0.144-0.144-0.053-0.053-0.139-0.123-0.213-0.24 0.011 0.016-0.085-0.315-0.085-0.352 0-0.021 0.123 0.016 0.224 0.053 0.080 0.037 0.128 0.107 0.203 0.149 0.085 0.053 0.096 0.197 0.133 0.261 0.053 0.096 0.064 0.144 0.064 0.187 0 0.075 0.043 0.096 0.064 0.16 0.027 0.069 0.112 0.053 0.224 0.203zM20.519 19.541l-0.315-0.128c-0.043-0.005-0.053-0.032-0.112-0.048-0.048-0.011-0.091-0.048-0.203-0.021-0.048 0.011-0.245 0.053-0.293 0.032-0.053-0.027 0.069 0.133 0.123 0.165 0.059 0.037 0.155 0.053 0.235 0.043h0.235c0.037 0 0.064 0.011 0.123-0.005 0.053-0.016 0.069-0.043 0.208-0.037z"></path>
<path fill="#1f601a" d="M20.7 19.541s-0.304-0.075-0.357-0.075l-0.256 0.021c-0.053 0.011-0.24-0.011-0.293 0.021-0.053 0.021-0.299 0.053-0.363 0.043-0.064-0.016 0.128 0.171 0.208 0.192 0.245 0.069 0.171 0.059 0.331 0.021 0.096-0.027 0.235-0.032 0.288-0.043 0.048-0.005 0.037-0.037 0.107-0.064 0.059-0.027 0.171-0.096 0.336-0.117z"></path>
<path fill="#1f601a" d="M20.951 19.669s-0.304-0.128-0.544-0.059l-0.224 0.053c-0.075 0.005-0.139-0.032-0.267 0.021-0.064 0.021-0.331 0.133-0.4 0.128s0.213 0.176 0.288 0.165c0.245-0.032 0.48 0.053 0.587 0l0.213-0.080c0.053-0.021 0.080-0.064 0.112-0.091 0.032-0.021 0.053-0.085 0.235-0.139zM19.319 18.971s-0.176-0.192-0.213-0.219l-0.16-0.128c-0.032-0.032-0.069-0.107-0.181-0.133-0.053-0.011-0.165-0.032-0.203-0.075-0.032-0.043 0.005 0.16 0.043 0.213 0.050 0.060 0.115 0.106 0.189 0.132l0.003 0.001c0.080 0.027 0.176 0.080 0.213 0.101 0.032 0.016 0.053 0.032 0.107 0.043 0.059 0.011 0.085 0 0.203 0.064z"></path>
<path fill="#1f601a" d="M19.489 19.051s-0.304-0.213-0.347-0.235l-0.187-0.069c-0.059-0.016-0.213-0.123-0.267-0.123-0.064 0-0.176-0.005-0.229-0.043-0.053-0.043-0.005 0.144 0.053 0.197 0.192 0.171 0.059 0.117 0.219 0.149l0.272 0.091c0.053 0.016 0.053-0.016 0.123-0.011 0.069 0 0.203-0.011 0.363 0.043z"></path>
<path fill="#1f601a" d="M19.559 19.109s-0.123-0.085-0.368-0.128c-0.16-0.027-0.16-0.032-0.219-0.053-0.075-0.021-0.091-0.021-0.229-0.027-0.064-0.005-0.331 0.080-0.395 0.043-0.053-0.032 0.069 0.080 0.139 0.107 0.107 0.043 0.096 0.107 0.213 0.149 0.117 0.037 0.251 0.085 0.32 0.075 0.053-0.011 0.096-0.037 0.176-0.043 0.075-0.011 0.213-0.123 0.363-0.128zM19.585 19.045s0.059-0.293 0.005-0.363c-0.035-0.042-0.059-0.095-0.064-0.154l-0-0.001c-0.013-0.086-0.043-0.164-0.087-0.232l0.001 0.002c-0.032-0.043-0.096-0.224-0.080-0.272 0 0-0.171 0.165-0.16 0.272v0.128c-0.011 0.048 0.037 0.208 0.069 0.256 0.032 0.053 0.016 0.192 0.053 0.224 0.027 0.032 0.219 0.16 0.261 0.139z"></path>
<path fill="#1f601a" d="M19.559 19.109c0.016 0.005-0.107-0.096-0.16-0.123-0.053-0.021-0.283-0.085-0.299-0.144-0.016-0.053-0.197-0.245-0.208-0.299 0-0.032-0.037-0.107-0.032-0.149 0.011-0.037 0.027-0.139 0.053-0.192 0.021-0.059 0.075-0.192 0.133-0.213l0.064 0.203c0.016 0.053 0.032 0.123 0.053 0.155 0.027 0.032 0.107 0.181 0.112 0.24l0.059 0.283c0.005 0.037 0.16 0.203 0.224 0.235zM18.567 18.315c0.005 0.043-0.123-0.043-0.187-0.043s-0.256 0.027-0.304-0.021c-0.048-0.053-0.117-0.139-0.144-0.155s-0.112-0.16-0.139-0.24c-0.021-0.080-0.192-0.224-0.213-0.24 0 0 0.229-0.048 0.373 0.048s0.16 0.075 0.187 0.085c0.032 0.016 0.283 0.229 0.299 0.309s0.117 0.213 0.128 0.256z"></path>
<path fill="#1f601a" d="M18.572 18.315s-0.208-0.144-0.256-0.139c-0.053 0.011-0.277-0.16-0.288-0.267-0.011-0.053-0.117-0.133-0.139-0.165-0.053-0.096-0.091-0.315-0.171-0.373l0.277 0.069c0.107 0.016 0.192 0.032 0.229 0.117 0.043 0.091 0.075 0.16 0.107 0.171s0.080 0.123 0.096 0.235c0.039 0.135 0.088 0.251 0.148 0.361l-0.004-0.009zM18.177 17.221c0.037 0.053 0.032-0.32 0.048-0.363 0.024-0.057 0.055-0.106 0.091-0.15l-0.001 0.001c0.032-0.032 0.032-0.144 0.048-0.176s0.005-0.251-0.016-0.309l-0.101 0.096c-0.032 0.037-0.091 0.053-0.107 0.107-0.016 0.043-0.048 0.043-0.069 0.096-0.023 0.041-0.036 0.090-0.036 0.142 0 0.017 0.002 0.035 0.004 0.051l-0-0.002c0.016 0.064 0.005 0.085 0.005 0.144 0 0.053 0.080 0.299 0.128 0.368z"></path>
<path fill="#1f601a" d="M18.188 17.253s-0.016-0.107 0.021-0.144c0.043-0.043 0.080-0.043 0.096-0.064 0.016-0.027 0.011-0.053 0.027-0.091 0.016-0.032 0.053-0.085 0.053-0.107 0.016-0.091 0.069-0.192 0.027-0.283 0 0-0.091 0.027-0.112 0.043-0.027 0.016-0.096 0.085-0.107 0.149-0.005 0.069-0.016 0.080-0.037 0.117-0.027 0.043-0.053 0.16-0.016 0.235 0.024 0.042 0.041 0.090 0.048 0.142l0 0.002zM17.953 16.027s-0.016-0.235 0.048-0.309c0.064-0.069 0.080-0.208 0.224-0.283v0.101c0.011 0.037 0.027 0.149 0 0.192-0.021 0.037-0.107 0.107-0.107 0.144 0 0.032-0.053 0.112-0.091 0.128l-0.075 0.027z"></path>
<path fill="#1f601a" d="M17.953 16.149s0-0.16 0.048-0.213c0.048-0.048 0.075-0.075 0.096-0.107 0.027-0.027 0.053-0.107 0.107-0.144 0.053-0.032 0.149-0.112 0.16-0.144 0 0 0.021 0.203-0.032 0.309s-0.053 0.16-0.123 0.181c-0.064 0.027-0.075 0.043-0.096 0.053-0.027 0.021-0.064 0.043-0.096 0.043s-0.064 0.021-0.064 0.021zM18.14 17.248c0.005 0.043 0.037-0.107-0.128-0.107-0.171 0-0.309-0.064-0.363-0.123l-0.112-0.123c-0.041-0.046-0.074-0.101-0.095-0.162l-0.001-0.003c-0.011-0.048-0.053-0.224-0.053-0.256 0 0 0.091 0.016 0.133 0.048 0.037 0.032 0.107 0.032 0.149 0.053 0.043 0.027 0.075 0.091 0.101 0.112 0.021 0.027 0.091 0.027 0.123 0.075s0.091 0.155 0.101 0.203c0 0.048 0.064 0.096 0.107 0.117 0.032 0.027 0.027 0.123 0.032 0.16z"></path>
<path fill="#1f601a" d="M18.119 17.179s-0.107-0.133-0.165-0.133c-0.053 0-0.203-0.144-0.213-0.213 0-0.059-0.053-0.181-0.085-0.208-0.049-0.035-0.081-0.092-0.081-0.157 0-0.007 0-0.014 0.001-0.020l-0 0.001c0.011-0.096 0.011-0.256 0.011-0.256s0.032 0.096 0.080 0.123c0.048 0.021 0.133 0.053 0.149 0.085s0.080 0.032 0.107 0.133c0.027 0.091 0.027 0.085 0.043 0.117s0.053 0.075 0.069 0.139c0.016 0.064 0.107 0.229 0.091 0.389zM17.959 16.293c-0.011 0.043 0.059-0.085-0.091-0.128-0.125-0.033-0.229-0.109-0.297-0.211l-0.001-0.002-0.069-0.139c-0.023-0.053-0.037-0.116-0.037-0.181v-0c0-0.048 0.011-0.219 0.027-0.245 0 0 0.075 0.037 0.107 0.075 0.021 0.043 0.091 0.064 0.123 0.096 0.027 0.032 0.037 0.101 0.053 0.133 0.016 0.027 0.080 0.048 0.096 0.096 0.016 0.053 0.037 0.165 0.032 0.213-0.005 0.043 0.032 0.107 0.064 0.139 0.027 0.032-0.005 0.117-0.011 0.16z"></path>
<path fill="#1f601a" d="M17.959 16.229s-0.069-0.155-0.117-0.171c-0.053-0.016-0.133-0.144-0.139-0.208s-0.016-0.181-0.037-0.213c-0.027-0.032-0.069-0.128-0.032-0.213l0.085-0.197 0.069 0.112c0.043 0.085 0.085 0.091 0.091 0.123 0.005 0.037 0.053 0.053 0.075 0.123 0.027 0.091 0 0.085 0 0.123 0.011 0.032 0.037 0.080 0.032 0.144 0 0.059 0.032 0.24-0.027 0.379zM18.081 15.259c0.005-0.021 0.053-0.048 0.112-0.064 0.053-0.016 0.144-0.144 0.187-0.176 0.037-0.032 0.053-0.085 0.107-0.112 0.048-0.027 0.075-0.128 0.091-0.224l-0.176 0.037c-0.059 0.021-0.109 0.054-0.149 0.096l-0 0c-0.032 0.043-0.064 0.107-0.101 0.123-0.032 0.016-0.069 0.112-0.069 0.176v0.144z"></path>
<path fill="#1f601a" d="M18.076 15.189l-0.011-0.139c0-0.048-0.032-0.176 0.037-0.283 0.053-0.069 0.229-0.208 0.277-0.213 0 0 0.032 0.128 0.021 0.165-0.005 0.043-0.053 0.203-0.085 0.219-0.037 0.016-0.128 0.208-0.24 0.251z"></path>
<path fill="#1f601a" d="M18.033 15.259c-0.021 0.037-0.005-0.117-0.053-0.16-0.053-0.037-0.053-0.096-0.053-0.16s0.011-0.107 0.016-0.155c0.011-0.037 0.133-0.208 0.123-0.256l0.091 0.203c0.021 0.053-0.016 0.112-0.011 0.16 0.011 0.048 0.048 0.139 0.016 0.187l-0.128 0.176zM18.46 14.432s0.011-0.021 0.080-0.021 0.176-0.005 0.208-0.043c0.032-0.032 0.085-0.075 0.123-0.091 0.042-0.029 0.075-0.069 0.095-0.116l0.001-0.002c0.005-0.032 0.064-0.096 0.085-0.096 0 0-0.085-0.011-0.181 0.016s-0.235 0.075-0.267 0.139c-0.032 0.064-0.144 0.213-0.144 0.213z"></path>
<path fill="#1f601a" d="M18.487 14.416c0.016 0.053 0.149-0.053 0.181-0.096l0.176-0.235c0.053-0.085 0.037-0.245 0.016-0.229-0.035 0.023-0.079 0.047-0.124 0.070l-0.009 0.004c-0.027 0-0.075 0.021-0.091 0.059-0.016 0.043-0.032 0.096-0.053 0.123-0.027 0.027-0.171 0.107-0.096 0.304z"></path>
<path fill="#1f601a" d="M18.439 14.416s0.107-0.080 0.149-0.123c0.053-0.043 0.027-0.107 0.053-0.139 0.016-0.032 0.075-0.107 0.059-0.16l-0.048-0.181-0.096 0.096c-0.043 0.043-0.048 0.075-0.064 0.123s-0.053 0.080-0.064 0.117c-0.016 0.043 0 0.123 0.011 0.171v0.096z"></path>
<path fill="#e60000" d="M22.887 18.944c-0.032 0-0.053-0.021-0.053-0.053 0.003-0.024 0.023-0.043 0.048-0.043 0.002 0 0.004 0 0.006 0l-0-0c0.021 0 0.043 0.021 0.043 0.048s-0.021 0.048-0.048 0.048zM23.153 19.28c-0.027 0-0.048-0.021-0.048-0.053 0.005-0.025 0.027-0.043 0.052-0.043 0 0 0.001 0 0.001 0h-0c0.025 0.003 0.046 0.023 0.048 0.048l0 0c0 0.027-0.027 0.048-0.053 0.048zM23.793 18.219c-0.027 0-0.053-0.021-0.053-0.048 0.003-0.027 0.026-0.048 0.053-0.048 0 0 0 0 0 0v0c0.024 0.003 0.043 0.023 0.043 0.048 0 0.002-0 0.004-0 0.006l0-0c0 0.021-0.016 0.043-0.048 0.043zM24.183 18.416c-0.027 0-0.053-0.021-0.053-0.053 0-0.027 0.027-0.053 0.053-0.053 0.029 0 0.053 0.024 0.053 0.053v0c0 0.032-0.021 0.053-0.053 0.053zM24.257 17.227c-0.029 0-0.053-0.024-0.053-0.053v0c0-0.027 0.021-0.053 0.053-0.053 0.029 0 0.053 0.024 0.053 0.053v0c0 0.029-0.024 0.053-0.053 0.053v0zM24.588 17.323c-0.029 0-0.053-0.024-0.053-0.053v0c0-0.029 0.024-0.053 0.053-0.053v0c0.029 0 0.053 0.024 0.053 0.053v0c0 0.029-0.024 0.053-0.053 0.053v0zM24.417 16.267c-0.029 0-0.053-0.024-0.053-0.053v0c0-0.029 0.024-0.053 0.053-0.053v0c0.029 0 0.053 0.024 0.053 0.053v0c0 0.027-0.021 0.053-0.053 0.053zM24.711 15.291c-0.027 0-0.053-0.021-0.053-0.053 0-0.029 0.024-0.053 0.053-0.053v0c0.029 0 0.053 0.024 0.053 0.053v0c0 0.032-0.021 0.053-0.053 0.053zM24.337 15.387c-0.029 0-0.053-0.024-0.053-0.053v0c0-0.027 0.021-0.053 0.053-0.053 0.029 0 0.053 0.024 0.053 0.053v0c0 0.029-0.024 0.053-0.053 0.053v0zM23.964 14.576c-0.027 0-0.053-0.021-0.053-0.053 0-0.027 0.027-0.053 0.053-0.053 0.029 0 0.053 0.024 0.053 0.053s-0.024 0.053-0.053 0.053v0zM24.247 14.352c-0.029 0-0.053-0.024-0.053-0.053v0c0-0.029 0.024-0.053 0.053-0.053v0c0.029 0 0.053 0.024 0.053 0.053v0c0 0.029-0.024 0.053-0.053 0.053v0zM23.687 13.803c-0.029 0-0.053-0.024-0.053-0.053v0c0-0.029 0.024-0.053 0.053-0.053v0c0.029 0 0.053 0.024 0.053 0.053v0c0 0.029-0.024 0.053-0.053 0.053v0zM24.833 16.272c-0.032 0-0.053-0.021-0.053-0.053s0.021-0.053 0.053-0.053c0.029 0 0.053 0.024 0.053 0.053v0c0 0.032-0.027 0.053-0.053 0.053z"></path>
<path fill="#1f601a" d="M20.337 20.176l0.24-0.016c0.032 0 0.107-0.144 0.139-0.165 0.032-0.027 0.576-0.293 0.933-0.347 0.385-0.080 0.724-0.19 1.046-0.333l-0.032 0.013c0.539-0.265 0.999-0.608 1.384-1.021l0.003-0.003c0.155-0.224 0.32-0.747 0.384-1.024 0.037-0.133 0.213-0.661 0.213-1.024 0-0.005 0-0.010 0-0.016 0-0.361-0.043-0.713-0.124-1.049l0.006 0.031c-0.221-0.546-0.495-1.018-0.826-1.443l0.010 0.013s0.64 0.997 0.757 1.381c0.085 0.32 0.134 0.688 0.134 1.068 0 0.028-0 0.055-0.001 0.083l0-0.004c-0.005 0.224-0.192 1.045-0.464 1.648-0.219 0.48-0.411 0.544-0.747 0.811-0.16 0.128-0.469 0.331-0.725 0.459s-0.8 0.293-0.949 0.315c-0.144 0.027-0.875 0.24-0.971 0.288-0.096 0.053-0.347 0.267-0.411 0.336z"></path>
<path fill="#1f601a" d="M24.001 18.315c-0.016-0.075-0.021-0.128-0.053-0.149-0.046-0.054-0.086-0.115-0.115-0.182l-0.002-0.005c-0.016-0.064 0-0.117 0-0.149l-0.021-0.144s0.037-0.133 0.069-0.16c0.032-0.021 0.117-0.139 0.133-0.171 0 0-0.011 0.069 0.016 0.101 0.020 0.045 0.032 0.097 0.032 0.151 0 0.003-0 0.006-0 0.009v-0c0 0.048-0.016 0.16 0 0.213 0.016 0.064 0.037 0.117 0.021 0.187l-0.080 0.299zM24.028 18.235s0.181-0.235 0.181-0.331c0-0.096 0.016-0.155 0.032-0.176s0.123-0.144 0.027-0.299c-0.043-0.064-0.053-0.053-0.075-0.128-0.032-0.085-0.096-0.085-0.107-0.176 0 0-0.021 0.107-0.027 0.192-0.011 0.091 0.005 0.123 0.011 0.171 0.011 0.048-0.021 0.107-0.021 0.176 0 0.075 0.011 0.101 0.011 0.144 0 0.021 0.027 0.331-0.032 0.427zM21.969 19.488l0.213-0.027c0.037 0 0.133-0.027 0.187-0.048 0.085-0.033 0.157-0.084 0.213-0.149l0.001-0.001c0.149-0.16 0.133-0.24 0.16-0.245 0.053-0.011-0.080-0.021-0.149-0.016-0.059 0.011-0.149 0.053-0.203 0.107-0.064 0.059-0.16 0.123-0.187 0.144-0.032 0.027-0.053 0.037-0.091 0.080-0.037 0.053-0.032 0.080-0.144 0.16z"></path>
<path fill="#1f601a" d="M21.756 19.6s0.384-0.171 0.427-0.203c0.055-0.044 0.103-0.089 0.149-0.138l0.001-0.001c0.037-0.043 0.203-0.128 0.229-0.181 0.016-0.037 0.123-0.176 0.181-0.288 0.027-0.053-0.261 0.016-0.261 0.016-0.235 0.096-0.128 0.032-0.256 0.128-0.080 0.059-0.133 0.107-0.155 0.155-0.032 0.069-0.064 0.187-0.101 0.251-0.032 0.064-0.091 0.144-0.213 0.267z"></path>
<path fill="#1f601a" d="M21.543 19.648s0.32-0.080 0.469-0.277c0.107-0.139 0.107-0.096 0.144-0.144 0.053-0.053 0.139-0.123 0.213-0.24-0.011 0.016 0.085-0.315 0.085-0.352 0-0.021-0.123 0.016-0.224 0.053-0.080 0.037-0.128 0.107-0.203 0.149-0.085 0.053-0.096 0.197-0.133 0.261-0.053 0.096-0.064 0.144-0.064 0.187 0 0.075-0.043 0.096-0.064 0.16-0.027 0.069-0.112 0.053-0.224 0.203zM22.055 19.541l0.315-0.128c0.043-0.005 0.053-0.032 0.112-0.048 0.048-0.011 0.091-0.048 0.203-0.021 0.048 0.011 0.245 0.053 0.293 0.032 0.053-0.027-0.069 0.133-0.123 0.165-0.059 0.037-0.155 0.053-0.235 0.043h-0.235c-0.037 0-0.064 0.011-0.123-0.005-0.053-0.016-0.069-0.043-0.208-0.037z"></path>
<path fill="#1f601a" d="M21.873 19.541s0.304-0.075 0.357-0.075l0.256 0.021c0.053 0.011 0.24-0.011 0.293 0.021 0.053 0.021 0.299 0.053 0.363 0.043 0.064-0.016-0.128 0.171-0.208 0.192-0.245 0.069-0.171 0.059-0.331 0.021-0.096-0.027-0.235-0.032-0.288-0.043-0.048-0.005-0.037-0.037-0.107-0.064-0.059-0.027-0.171-0.096-0.336-0.117z"></path>
<path fill="#1f601a" d="M21.623 19.669s0.304-0.128 0.544-0.059l0.224 0.053c0.075 0.005 0.139-0.032 0.267 0.021 0.064 0.021 0.331 0.133 0.4 0.128s-0.213 0.176-0.288 0.165c-0.245-0.032-0.48 0.053-0.587 0l-0.213-0.080c-0.053-0.021-0.080-0.064-0.112-0.091-0.032-0.021-0.053-0.085-0.235-0.139zM23.255 18.971s0.176-0.192 0.213-0.219l0.16-0.128c0.032-0.032 0.069-0.107 0.181-0.133 0.053-0.011 0.165-0.032 0.203-0.075 0.032-0.043-0.005 0.16-0.043 0.213-0.050 0.060-0.115 0.106-0.189 0.132l-0.003 0.001c-0.080 0.027-0.176 0.080-0.213 0.101-0.032 0.016-0.053 0.032-0.107 0.043-0.059 0.011-0.085 0-0.203 0.064z"></path>
<path fill="#1f601a" d="M23.084 19.051s0.304-0.213 0.347-0.235l0.187-0.069c0.059-0.016 0.213-0.123 0.267-0.123 0.064 0 0.176-0.005 0.229-0.043 0.053-0.043 0.005 0.144-0.053 0.197-0.192 0.171-0.059 0.117-0.219 0.149l-0.272 0.091c-0.053 0.016-0.053-0.016-0.123-0.011-0.069 0-0.203-0.011-0.363 0.043z"></path>
<path fill="#1f601a" d="M23.015 19.109s0.123-0.085 0.368-0.128c0.16-0.027 0.16-0.032 0.219-0.053 0.075-0.021 0.091-0.021 0.229-0.027 0.064-0.005 0.331 0.080 0.395 0.043 0.053-0.032-0.069 0.080-0.139 0.107-0.107 0.043-0.096 0.107-0.213 0.149-0.117 0.037-0.251 0.085-0.32 0.075-0.053-0.011-0.096-0.037-0.176-0.043-0.075-0.011-0.213-0.123-0.363-0.128zM22.988 19.045s-0.059-0.293-0.005-0.363c0.035-0.042 0.059-0.095 0.064-0.154l0-0.001c0.013-0.086 0.043-0.164 0.087-0.232l-0.001 0.002c0.032-0.043 0.096-0.224 0.080-0.272 0 0 0.171 0.165 0.16 0.272v0.128c0.011 0.048-0.037 0.208-0.069 0.256-0.032 0.053-0.016 0.192-0.053 0.224-0.027 0.032-0.219 0.16-0.261 0.139z"></path>
<path fill="#1f601a" d="M23.015 19.109c-0.016 0.005 0.107-0.096 0.16-0.123 0.053-0.021 0.283-0.085 0.299-0.144 0.016-0.053 0.197-0.245 0.208-0.299 0-0.032 0.037-0.107 0.032-0.149-0.011-0.037-0.027-0.139-0.053-0.192-0.021-0.059-0.075-0.192-0.133-0.213l-0.064 0.203c-0.016 0.053-0.032 0.123-0.053 0.155-0.027 0.032-0.107 0.181-0.112 0.24l-0.059 0.283c-0.005 0.037-0.16 0.203-0.224 0.235zM24.007 18.315c-0.005 0.043 0.123-0.043 0.187-0.043s0.256 0.027 0.304-0.021c0.048-0.053 0.117-0.139 0.144-0.155s0.112-0.16 0.139-0.24c0.021-0.080 0.192-0.224 0.213-0.24 0 0-0.229-0.048-0.373 0.048s-0.16 0.075-0.187 0.085c-0.032 0.016-0.283 0.229-0.299 0.309s-0.117 0.213-0.128 0.256z"></path>
<path fill="#1f601a" d="M24.001 18.315s0.208-0.144 0.256-0.139c0.053 0.011 0.277-0.16 0.288-0.267 0.011-0.053 0.117-0.133 0.139-0.165 0.053-0.096 0.091-0.315 0.171-0.373l-0.277 0.069c-0.107 0.016-0.192 0.032-0.229 0.117-0.043 0.091-0.075 0.16-0.107 0.171s-0.080 0.123-0.096 0.235c-0.039 0.135-0.088 0.251-0.148 0.361l0.004-0.009zM24.396 17.221c-0.037 0.053-0.032-0.32-0.048-0.363-0.024-0.057-0.055-0.106-0.091-0.15l0.001 0.001c-0.032-0.032-0.032-0.144-0.048-0.176s-0.005-0.251 0.016-0.309l0.101 0.096c0.032 0.037 0.091 0.053 0.107 0.107 0.016 0.043 0.048 0.043 0.069 0.096 0.023 0.041 0.036 0.090 0.036 0.142 0 0.017-0.002 0.035-0.004 0.051l0-0.002c-0.016 0.064-0.005 0.085-0.005 0.144 0 0.053-0.080 0.299-0.128 0.368z"></path>
<path fill="#1f601a" d="M24.385 17.253s0.016-0.107-0.021-0.144c-0.043-0.043-0.080-0.043-0.096-0.064-0.016-0.027-0.011-0.053-0.027-0.091-0.016-0.032-0.053-0.085-0.053-0.107-0.016-0.091-0.069-0.192-0.027-0.283 0 0 0.091 0.027 0.112 0.043 0.027 0.016 0.096 0.085 0.107 0.149 0.005 0.069 0.016 0.080 0.037 0.117 0.027 0.043 0.053 0.16 0.016 0.235-0.024 0.042-0.041 0.090-0.048 0.142l-0 0.002zM24.62 16.027s0.016-0.235-0.048-0.309c-0.064-0.069-0.080-0.208-0.224-0.283v0.101c-0.011 0.037-0.027 0.149 0 0.192 0.021 0.037 0.107 0.107 0.107 0.144 0 0.032 0.053 0.112 0.091 0.128l0.075 0.027z"></path>
<path fill="#1f601a" d="M24.62 16.149s0-0.16-0.048-0.213c-0.048-0.048-0.075-0.075-0.096-0.107-0.027-0.027-0.053-0.107-0.107-0.144-0.053-0.032-0.149-0.112-0.16-0.144 0 0-0.021 0.203 0.032 0.309s0.053 0.16 0.123 0.181c0.064 0.027 0.075 0.043 0.096 0.053 0.027 0.021 0.064 0.043 0.096 0.043s0.064 0.021 0.064 0.021zM24.433 17.248c-0.005 0.043-0.037-0.107 0.128-0.107 0.171 0 0.309-0.064 0.363-0.123l0.112-0.123c0.041-0.046 0.074-0.101 0.095-0.162l0.001-0.003c0.011-0.048 0.053-0.224 0.053-0.256 0 0-0.091 0.016-0.133 0.048-0.037 0.032-0.107 0.032-0.149 0.053-0.043 0.027-0.075 0.091-0.101 0.112-0.021 0.027-0.091 0.027-0.123 0.075s-0.091 0.155-0.101 0.203c0 0.048-0.064 0.096-0.107 0.117-0.032 0.027-0.027 0.123-0.032 0.16z"></path>
<path fill="#1f601a" d="M24.455 17.179s0.107-0.133 0.165-0.133c0.053 0 0.203-0.144 0.213-0.213 0-0.059 0.053-0.181 0.085-0.208 0.049-0.035 0.081-0.092 0.081-0.157 0-0.007-0-0.014-0.001-0.020l0 0.001c-0.011-0.096-0.011-0.256-0.011-0.256s-0.032 0.096-0.080 0.123c-0.048 0.021-0.133 0.053-0.149 0.085s-0.080 0.032-0.107 0.133c-0.027 0.091-0.027 0.085-0.043 0.117s-0.053 0.075-0.069 0.139c-0.016 0.064-0.107 0.229-0.091 0.389zM24.615 16.293c0.011 0.043-0.059-0.085 0.091-0.128 0.125-0.033 0.229-0.109 0.297-0.211l0.001-0.002 0.069-0.139c0.023-0.053 0.037-0.116 0.037-0.181v-0c0-0.048-0.011-0.219-0.027-0.245 0 0-0.075 0.037-0.107 0.075-0.021 0.043-0.091 0.064-0.123 0.096-0.027 0.032-0.037 0.101-0.053 0.133-0.016 0.027-0.080 0.048-0.096 0.096-0.016 0.053-0.037 0.165-0.032 0.213 0.005 0.043-0.032 0.107-0.064 0.139-0.027 0.032 0.005 0.117 0.011 0.16z"></path>
<path fill="#1f601a" d="M24.615 16.229s0.069-0.155 0.117-0.171c0.053-0.016 0.133-0.144 0.139-0.208s0.016-0.181 0.037-0.213c0.027-0.032 0.069-0.128 0.032-0.213l-0.085-0.197-0.069 0.112c-0.043 0.085-0.085 0.091-0.091 0.123-0.005 0.037-0.053 0.053-0.075 0.123-0.027 0.091 0 0.085 0 0.123-0.011 0.032-0.037 0.080-0.032 0.144 0 0.059-0.032 0.24 0.027 0.379zM24.492 15.259c-0.005-0.021-0.053-0.048-0.112-0.064-0.053-0.016-0.144-0.144-0.187-0.176-0.037-0.032-0.053-0.085-0.107-0.112-0.048-0.027-0.075-0.128-0.091-0.224l0.176 0.037c0.059 0.021 0.109 0.054 0.149 0.096l0 0c0.032 0.043 0.064 0.107 0.101 0.123 0.032 0.016 0.069 0.112 0.069 0.176v0.144z"></path>
<path fill="#1f601a" d="M24.497 15.189l0.011-0.139c0-0.048 0.032-0.176-0.037-0.283-0.053-0.069-0.229-0.208-0.277-0.213 0 0-0.032 0.128-0.021 0.165 0.005 0.043 0.053 0.203 0.085 0.219 0.037 0.016 0.128 0.208 0.24 0.251z"></path>
<path fill="#1f601a" d="M24.54 15.259c0.021 0.037 0.005-0.117 0.053-0.16 0.053-0.037 0.053-0.096 0.053-0.16s-0.011-0.107-0.016-0.155c-0.011-0.037-0.133-0.208-0.123-0.256l-0.091 0.203c-0.021 0.053 0.016 0.112 0.011 0.16-0.011 0.048-0.048 0.139-0.016 0.187l0.128 0.176zM24.113 14.432s-0.011-0.021-0.080-0.021-0.176-0.005-0.208-0.043c-0.032-0.032-0.085-0.075-0.123-0.091-0.042-0.029-0.075-0.069-0.095-0.116l-0.001-0.002c-0.005-0.032-0.064-0.096-0.085-0.096 0 0 0.085-0.011 0.181 0.016s0.235 0.075 0.267 0.139c0.032 0.064 0.144 0.213 0.144 0.213z"></path>
<path fill="#1f601a" d="M24.087 14.416c-0.016 0.053-0.149-0.053-0.181-0.096l-0.176-0.235c-0.053-0.085-0.037-0.245-0.016-0.229 0.035 0.023 0.079 0.047 0.124 0.070l0.009 0.004c0.027 0 0.075 0.021 0.091 0.059 0.016 0.043 0.032 0.096 0.053 0.123 0.027 0.027 0.171 0.107 0.096 0.304z"></path>
<path fill="#1f601a" d="M24.135 14.416s-0.107-0.080-0.149-0.123c-0.053-0.043-0.027-0.107-0.053-0.139-0.016-0.032-0.075-0.107-0.059-0.16l0.048-0.181 0.096 0.096c0.043 0.043 0.048 0.075 0.064 0.123s0.053 0.080 0.064 0.117c0.016 0.043 0 0.123-0.011 0.171v0.096z"></path>
<path fill="#00209f" d="M21.265 19.525s0.037-0.096 0.117-0.005c0 0 0.101 0.224 0.027 0.229-0.075 0.011-0.144 0.027-0.155-0.016-0.005-0.037 0.011-0.208 0.011-0.208z"></path>
<path fill="#00209f" d="M21.367 19.493s0.027-0.341 0.075-0.357c0.048-0.016 0.192-0.096 0.283-0.027 0.085 0.075 0 0.427-0.027 0.464-0.032 0.032-0.080 0.133-0.267 0.107l-0.021-0.085s0.096-0.011 0.16-0.043c0.064-0.032 0.085-0.064 0.080-0.096-0.011-0.048 0-0.224-0.053-0.24l-0.123-0.043-0.091 0.347-0.016-0.027z"></path>
<path fill="#00209f" d="M21.255 19.733s-0.331 0.197-0.16 0.48l-0.112-0.069s-0.064 0.117-0.005 0.181c0 0-0.229-0.203-0.053-0.443 0.181-0.245 0.32-0.229 0.32-0.229l0.011 0.080z"></path>
<path fill="#00209f" d="M21.255 19.573s-0.144-0.096-0.352-0.037c0 0-0.091-0.299-0.053-0.395 0.011-0.043 0.043-0.048 0.043-0.048s-0.107-0.064-0.069 0.213c0.032 0.288 0.085 0.363 0.085 0.363s0.277 0.016 0.341-0.016l0.005-0.075z"></path>
<path fill="#00209f" d="M21.255 19.573s-0.288-0.48-0.363-0.48c0 0-0.080-0.011 0.107-0.032 0.064-0.005 0.171 0 0.213 0.091 0.053 0.085 0.091 0.293 0.107 0.325 0 0-0.053 0.016-0.064 0.101z"></path>
<path fill="#011322" d="M21.255 19.573s-0.192-0.085-0.213-0.107c-0.027-0.027-0.064-0.299-0.043-0.283 0 0-0.080-0.091-0.107-0.091-0.016 0-0.069 0.043-0.053 0.139s0.037 0.24 0.064 0.304c0 0 0.155-0.064 0.352 0.043z"></path>
<path fill="#00209f" d="M21.431 19.733s0.107 0.069 0.107 0.187c0 0.123 0.048 0.341 0.144 0.389 0 0 0.027-0.091 0.053-0.107 0 0 0.101 0.112 0.133 0.112 0 0-0.053-0.107-0.053-0.155s-0.053-0.229-0.107-0.277c-0.043-0.053-0.139-0.16-0.277-0.203v0.053z"></path>
<path fill="#011322" d="M21.473 19.173l-0.091 0.347 0.027 0.075s0.032-0.011 0.048-0.053c0.016-0.037 0.064-0.336 0.091-0.347l-0.075-0.021z"></path>
<path fill="#011d33" d="M21.255 19.696s-0.16 0.053-0.219 0.171c0 0-0.021-0.080 0.213-0.192v0.021zM21.436 19.696s0.107 0.043 0.139 0.107l-0.139-0.080v-0.027zM21.255 19.605s-0.245 0.037-0.299 0.027c0 0 0.069 0.016 0.299 0v-0.027zM21.649 19.456s0.027 0.123 0.048 0.117c0.021-0.011 0.064-0.208 0.064-0.299s-0.037-0.112-0.075-0.107c-0.037 0-0.053 0.080-0.053 0.117 0.004 0.067 0.010 0.126 0.017 0.184l-0.001-0.013z"></path>
<path fill="#011d33" d="M21.383 19.52s0.101 0.219 0.027 0.235c-0.075 0.011 0.032 0.005-0.021-0.144-0.021-0.059-0.053-0.133-0.069-0.133 0 0 0.059 0.021 0.064 0.043z"></path>
<path fill="#00209f" d="M21.009 13.648c-0.021-0.053-0.021-0.395-0.021-0.448 0.057-0.231 0.127-0.43 0.212-0.62l-0.009 0.023c0.032-0.053 0.027-0.064 0.037-0.096l0.048-0.064c0.036 0.063 0.060 0.137 0.069 0.216l0 0.003s-0.032 0.219-0.059 0.32c-0.021 0.091-0.085 0.229-0.096 0.256-0.032 0.064-0.027 0.128-0.011 0.133l-0.171 0.277z"></path>
<path fill="#fff" d="M21.287 13.189l0.027 0.032c0.069-0.080 0.075-0.24 0.075-0.24l-0.048-0.32s-0.027 0.213-0.053 0.32c-0.021 0.091-0.085 0.229-0.096 0.256-0.048 0.117-0.011 0.128-0.011 0.133l0.107-0.176z"></path>
<path fill="#00209f" d="M21.313 13.221c0.069-0.080 0.075-0.24 0.075-0.24s0.053 0.267 0.021 0.32c-0.027 0.053-0.027 0.037-0.021 0.069l-0.075-0.149z"></path>
<path fill="#fc0" d="M21.287 12.485l-0.011-0.069c0-0.011 0.032 0.048 0.053 0.037 0.048 0.016 0.101 0.080 0.112 0.096-0.021 0.027-0.069 0.085-0.107 0.075-0.027-0.011-0.021-0.053-0.027-0.080-0.005-0.016-0.021-0.032-0.021-0.053z"></path>
<path fill="#fc0" d="M21.233 12.448l0.069-0.032c0.005 0-0.037 0.043-0.021 0.064 0 0.048-0.037 0.117-0.053 0.133-0.032-0.005-0.064-0.005-0.096-0.059-0.011-0.021 0.021-0.043 0.043-0.059 0.011-0.011 0.037-0.043 0.064-0.048z"></path>
<path fill="#fc0" d="M21.308 12.416c0.032-0.037 0.091-0.075 0.123-0.053l0.032 0.032c0.011 0.016 0.011 0.027 0 0.043-0.016 0.043-0.075 0.021-0.107 0-0.011 0-0.032-0.021-0.043-0.016l-0.016 0.005 0.016 0.005 0.096 0.048c0.027 0.011 0.080-0.027 0.075-0.053 0-0.027-0.048-0.080-0.069-0.080-0.053 0-0.096 0.032-0.133 0.075 0.011-0.011 0.021 0 0.027 0z"></path>
<path fill="#fc0" d="M21.281 12.416c-0.032-0.037-0.091-0.075-0.117-0.053l-0.032 0.032c-0.016 0.016-0.016 0.027-0.005 0.043 0.016 0.043 0.075 0.021 0.107 0 0.011 0 0.032-0.021 0.043-0.016l0.021 0.005-0.021 0.005-0.096 0.048c-0.027 0.011-0.075-0.027-0.075-0.053 0-0.032 0.053-0.080 0.075-0.080 0.053 0 0.091 0.032 0.128 0.075-0.005-0.011-0.021 0-0.027 0z"></path>
<path fill="#fc0" d="M21.287 12.395c-0.011-0.005-0.027 0.005-0.032 0.016 0 0.011 0.005 0.032 0.021 0.032 0.016 0.011 0.043 0 0.048-0.016 0-0.021-0.016-0.027-0.032-0.032z"></path>
<path fill="#fc0" d="M21.287 12.069s0.021 0.128 0.085 0.213c0.064 0.096-0.075 0.085-0.085 0.117 0 0-0.043-0.091-0.085-0.117 0 0 0.069-0.107 0.085-0.213z"></path>
<path fill="#fff" d="M21.287 18.373l-0.016-0.011c-0.021-0.011-0.064-0.011-0.069-0.027-0.053-0.059-0.021-0.181 0-0.256 0.053-0.139 0.053-0.267 0.085-0.395 0.032 0.128 0.037 0.256 0.085 0.395 0.021 0.075 0.059 0.197 0.005 0.256-0.011 0.016-0.048 0.016-0.069 0.027l-0.021 0.011z"></path>
<path fill="#00209f" d="M21.287 17.68c0.032 0.133 0.037 0.267 0.085 0.405 0.021 0.069 0.053 0.181 0.016 0.24 0.021 0 0.037-0.005 0.053-0.016 0.011 0 0.016 0 0.021-0.011l0.021-0.027c0.016-0.011 0.032 0 0.048-0.011l0.005-0.011c0.032-0.016 0.053-0.032 0.069-0.059 0.005-0.021 0.011-0.048 0-0.069 0-0.016 0-0.027-0.011-0.043l-0.027-0.059-0.032-0.064c-0.005-0.010-0.010-0.019-0.016-0.027l0 0-0.016-0.032-0.021-0.021-0.021-0.016s-0.016-0.005-0.011-0.011l-0.016-0.005-0.053-0.107c-0.007-0.017-0.011-0.037-0.011-0.057 0-0 0-0.001 0-0.001v0h-0.085zM21.287 17.68c-0.027 0.133-0.037 0.267-0.085 0.405-0.016 0.069-0.053 0.181-0.011 0.24-0.021 0-0.037-0.005-0.059-0.016-0.005 0-0.016 0-0.016-0.011-0.007-0.011-0.016-0.020-0.026-0.026l-0-0c-0.011-0.011-0.027 0-0.043-0.011l-0.011-0.011c-0.027-0.016-0.053-0.032-0.064-0.059-0.005-0.013-0.008-0.029-0.008-0.045 0-0.009 0.001-0.017 0.002-0.026l-0 0.001 0.011-0.043 0.032-0.059 0.032-0.064c0-0.011 0.005-0.021 0.016-0.027l0.016-0.032 0.021-0.021 0.021-0.016 0.011-0.011 0.011-0.005 0.053-0.107c0.011-0.011 0.011-0.043 0.011-0.059h0.085z"></path>
<path fill="#fff" d="M19.815 15.659c-0.080-0.197-0.16-0.603-0.16-0.693 0.016-0.379 0.011-0.496 0.048-0.88l0.389 0.443c-0.011 0.149-0.011 0.197 0 0.293 0.005 0.037 0.027 0.208 0.053 0.272l-0.331 0.565z"></path>
<path fill="#00209f" d="M20.145 15.093c-0.027-0.069-0.048-0.24-0.053-0.272-0.011-0.096-0.011-0.144 0-0.293l0.24 0.267-0.187 0.299zM19.153 15.467c-0.007-0.064-0.012-0.145-0.016-0.227l-0-0.008c0-0.272-0.032-0.427 0-0.715 0.021-0.224 0.080-0.523 0.069-0.768-0.005-0.069 0.005-0.139 0.011-0.208l0.48 0.539c-0.032 0.389-0.027 0.507-0.043 0.885 0 0.091 0.080 0.496 0.16 0.693l-0.107 0.171-0.555-0.368zM19.489 16.197c-0.032-0.053-0.053-0.208-0.064-0.24-0.016-0.080-0.016-0.123-0.011-0.267l0.267 0.176-0.192 0.331zM18.727 17.477c-0.042-0.029-0.075-0.069-0.095-0.116l-0.001-0.002c-0.037-0.096-0.027-0.091-0.053-0.192-0.011-0.059-0.011-0.123-0.027-0.181-0.011-0.064-0.096-0.256-0.096-0.331-0.011-0.256-0.096-0.427-0.075-0.704 0.016-0.213 0.064-0.501 0.037-0.72l0.005-0.192 0.549 0.357c-0.021 0.363-0.011 0.469-0.011 0.821 0 0.085 0.069 0.432 0.16 0.587l-0.395 0.672zM19.633 17.68c0.101 0.091 0.288 0.139 0.32 0.16 0.064 0.053 0.16 0.123 0.336 0.128 0.123 0.011 0.176-0.021 0.304-0.037 0.149-0.016-0.016 0.005 0.123-0.027 0.075-0.016 0.075-0.027 0.171-0.053 0.069-0.016 0.144-0.032 0.187-0.096 0.016-0.021 0.032-0.037 0.032-0.075h0.096c0.011 0.027-0.016 0.080-0.027 0.096l-0.027 0.037c-0.011 0.032-0.011 0.021-0.037 0.048l-0.043 0.032c-0.021 0.016-0.037 0.032-0.059 0.037-0.096 0.016-0.133 0.037-0.224 0.059-0.085 0.027-0.037 0.021-0.107 0.037l-0.128 0.037-0.128 0.032c-0.155 0.037-0.304 0.027-0.459 0.016-0.059 0-0.213-0.037-0.267-0.075-0.096-0.064-0.304-0.091-0.395-0.155-0.016-0.011-0.075-0.037-0.085-0.053-0.091-0.069-0.16-0.091-0.256-0.149h0.672z"></path>
<path fill="#00209f" d="M20.364 17.68h0.747c-0.005 0.037-0.021 0.053-0.037 0.080-0.043 0.053-0.117 0.075-0.187 0.091-0.075 0.021-0.155-0.021-0.235-0.021-0.197-0.059-0.219-0.123-0.288-0.149z"></path>
<path fill="#fff" d="M20.364 17.68c0.069 0.032 0.107 0.091 0.288 0.149 0.069 0 0.149 0.032 0.213 0.032-0.080 0.016-0.080 0.027-0.149 0.043-0.139 0.032 0.027 0.011-0.123 0.027-0.128 0.016-0.181 0.053-0.304 0.043-0.129-0.009-0.245-0.058-0.337-0.134l0.001 0.001c-0.032-0.021-0.219-0.069-0.32-0.16h0.731z"></path>
<path fill="#fc0" d="M19.681 15.872l0.032-0.043-1.28-0.832-0.021 0.032zM18.417 14.981c-0.011-0.053 0-0.112 0.037-0.123 0 0 0.027-0.005 0.043 0 0.021 0 0.027 0 0.037 0.021 0.016 0.043-0.037 0.069-0.075 0.085-0.011 0-0.032 0.005-0.037 0.016l-0.005 0.021 0.016-0.016 0.091-0.037c0.032-0.016 0.037-0.075 0.016-0.091-0.021-0.021-0.096-0.016-0.107 0-0.037 0.037-0.043 0.091-0.032 0.144 0-0.011 0.016-0.005 0.016-0.021z"></path>
<path fill="#fc0" d="M18.396 15.003c-0.053 0-0.112 0.021-0.117 0.053v0.048c0 0.021 0.011 0.027 0.032 0.032 0.043 0.011 0.064-0.043 0.075-0.085 0-0.005 0-0.032 0.011-0.037l0.021-0.011-0.016 0.016-0.027 0.101c-0.011 0.032-0.069 0.043-0.085 0.021-0.027-0.016-0.032-0.091-0.016-0.107 0.037-0.037 0.091-0.053 0.144-0.053-0.011 0.005-0.011 0.027-0.021 0.021z"></path>
<path fill="#fc0" d="M18.385 14.987c-0.016 0-0.016 0.021-0.005 0.032 0 0.011 0.027 0.016 0.032 0.011 0.021-0.011 0.032-0.032 0.021-0.053-0.011-0.016-0.032 0-0.048 0.005z"></path>
<path fill="#fc0" d="M18.119 14.816s0.133 0.053 0.24 0.053c0 0 0.005 0.096 0.027 0.123 0 0-0.096-0.016-0.139 0 0 0-0.059-0.128-0.128-0.176z"></path>
<path fill="#fc0" d="M18.396 15.088l0.032-0.059c0-0.011 0 0.053 0.021 0.053 0.027 0.043 0.037 0.123 0.037 0.144-0.037 0.011-0.069 0.032-0.123 0.011-0.016-0.016 0-0.053 0-0.075 0.011-0.016 0.016-0.053 0.032-0.075z"></path>
<path fill="#fc0" d="M20.332 14.795l0.037-0.032-1.141-1.264-0.021 0.027z"></path>
<path fill="#fc0" d="M19.239 13.493c0-0.048 0.032-0.107 0.064-0.107l0.048 0.005c0.016 0.005 0.021 0.016 0.027 0.032 0.005 0.048-0.053 0.064-0.091 0.069l-0.043 0.005-0.011 0.016 0.016-0.005c0.032-0.011 0.064-0.011 0.107-0.016 0.027-0.005 0.048-0.069 0.032-0.085-0.016-0.027-0.085-0.043-0.107-0.027-0.043 0.027-0.053 0.080-0.064 0.133 0-0.011 0.021-0.005 0.021-0.016z"></path>
<path fill="#fc0" d="M19.212 13.515c-0.048-0.016-0.112-0.011-0.123 0.027l-0.011 0.043c0 0.021 0 0.027 0.021 0.037 0.037 0.021 0.075-0.027 0.091-0.064 0-0.011 0.011-0.032 0.021-0.037h0.021l-0.016 0.011-0.053 0.091c-0.011 0.027-0.075 0.027-0.091 0-0.016-0.021 0-0.091 0.016-0.107 0.043-0.032 0.096-0.027 0.149-0.011-0.011 0-0.016 0.016-0.027 0.011z"></path>
<path fill="#fc0" d="M19.207 13.493c-0.016 0-0.016 0.021-0.016 0.032s0.021 0.021 0.032 0.016c0.021-0.005 0.037-0.021 0.032-0.043s-0.032-0.011-0.048-0.005z"></path>
<path fill="#fc0" d="M18.993 13.264s0.107 0.085 0.213 0.107c0 0-0.016 0.101 0 0.128 0 0-0.091-0.037-0.139-0.027 0 0-0.021-0.139-0.080-0.213z"></path>
<path fill="#fc0" d="M19.191 13.595l0.053-0.053c0-0.005-0.021 0.053 0 0.069 0.021 0.043 0.005 0.123 0 0.144-0.037 0-0.069 0.016-0.107-0.021-0.021-0.016 0-0.048 0.016-0.069 0-0.016 0.021-0.053 0.037-0.069z"></path>
<path fill="#fff" d="M22.759 15.659c0.080-0.197 0.16-0.603 0.16-0.693-0.016-0.379-0.011-0.496-0.048-0.88l-0.389 0.443c0.011 0.149 0.011 0.197 0 0.293-0.005 0.037-0.027 0.208-0.053 0.272l0.331 0.565z"></path>
<path fill="#00209f" d="M22.428 15.093c0.027-0.069 0.048-0.24 0.053-0.272 0.011-0.096 0.011-0.144 0-0.293l-0.24 0.267 0.187 0.299zM23.42 15.467c0.007-0.064 0.012-0.145 0.016-0.227l0-0.008c0-0.272 0.032-0.427 0-0.715-0.021-0.224-0.080-0.523-0.069-0.768 0.005-0.069-0.005-0.139-0.011-0.208l-0.48 0.539c0.032 0.389 0.027 0.507 0.043 0.885 0 0.091-0.080 0.496-0.16 0.693l0.107 0.171 0.555-0.368zM23.084 16.197c0.032-0.053 0.053-0.208 0.064-0.24 0.016-0.080 0.016-0.123 0.011-0.267l-0.267 0.176 0.192 0.331zM23.847 17.477c0.042-0.029 0.075-0.069 0.095-0.116l0.001-0.002c0.037-0.096 0.027-0.091 0.053-0.192 0.011-0.059 0.011-0.123 0.027-0.181 0.011-0.064 0.096-0.256 0.096-0.331 0.011-0.256 0.096-0.427 0.075-0.704-0.016-0.213-0.064-0.501-0.037-0.72l-0.005-0.192-0.549 0.357c0.021 0.363 0.011 0.469 0.011 0.821 0 0.085-0.069 0.432-0.16 0.587l0.395 0.672zM22.94 17.68c-0.101 0.091-0.288 0.139-0.32 0.16-0.064 0.053-0.16 0.123-0.336 0.128-0.123 0.011-0.176-0.021-0.304-0.037-0.149-0.016 0.016 0.005-0.123-0.027-0.075-0.016-0.075-0.027-0.171-0.053-0.069-0.016-0.144-0.032-0.187-0.096-0.016-0.021-0.032-0.037-0.032-0.075h-0.096c-0.011 0.027 0.016 0.080 0.027 0.096l0.027 0.037c0.011 0.032 0.011 0.021 0.037 0.048l0.043 0.032c0.021 0.016 0.037 0.032 0.059 0.037 0.096 0.016 0.133 0.037 0.224 0.059 0.085 0.027 0.037 0.021 0.107 0.037l0.128 0.037 0.128 0.032c0.155 0.037 0.304 0.027 0.459 0.016 0.059 0 0.213-0.037 0.267-0.075 0.096-0.064 0.304-0.091 0.395-0.155 0.016-0.011 0.075-0.037 0.085-0.053 0.091-0.069 0.16-0.091 0.256-0.149h-0.672z"></path>
<path fill="#00209f" d="M22.209 17.68h-0.747c0.005 0.037 0.021 0.053 0.037 0.080 0.043 0.053 0.117 0.075 0.187 0.091 0.075 0.021 0.155-0.021 0.235-0.021 0.197-0.059 0.219-0.123 0.288-0.149z"></path>
<path fill="#fff" d="M22.209 17.68c-0.069 0.032-0.107 0.091-0.288 0.149-0.069 0-0.149 0.032-0.213 0.032 0.080 0.016 0.080 0.027 0.149 0.043 0.139 0.032-0.027 0.011 0.123 0.027 0.128 0.016 0.181 0.053 0.304 0.043 0.129-0.009 0.245-0.058 0.337-0.134l-0.001 0.001c0.032-0.021 0.219-0.069 0.32-0.16h-0.731z"></path>
<path fill="#fc0" d="M22.892 15.872l-0.032-0.043 1.28-0.832 0.021 0.032zM24.156 14.981c0.011-0.053 0-0.112-0.037-0.123 0 0-0.027-0.005-0.043 0-0.021 0-0.027 0-0.037 0.021-0.016 0.043 0.037 0.069 0.075 0.085 0.011 0 0.032 0.005 0.037 0.016l0.005 0.021-0.016-0.016-0.091-0.037c-0.032-0.016-0.037-0.075-0.016-0.091 0.021-0.021 0.096-0.016 0.107 0 0.037 0.037 0.043 0.091 0.032 0.144 0-0.011-0.016-0.005-0.016-0.021z"></path>
<path fill="#fc0" d="M24.177 15.003c0.053 0 0.112 0.021 0.117 0.053v0.048c0 0.021-0.011 0.027-0.032 0.032-0.043 0.011-0.064-0.043-0.075-0.085 0-0.005 0-0.032-0.011-0.037l-0.021-0.011 0.016 0.016 0.027 0.101c0.011 0.032 0.069 0.043 0.085 0.021 0.027-0.016 0.032-0.091 0.016-0.107-0.037-0.037-0.091-0.053-0.144-0.053 0.011 0.005 0.011 0.027 0.021 0.021z"></path>
<path fill="#fc0" d="M24.188 14.987c0.016 0 0.016 0.021 0.005 0.032 0 0.011-0.027 0.016-0.032 0.011-0.021-0.011-0.032-0.032-0.021-0.053 0.011-0.016 0.032 0 0.048 0.005z"></path>
<path fill="#fc0" d="M24.455 14.816s-0.133 0.053-0.24 0.053c0 0-0.005 0.096-0.027 0.123 0 0 0.096-0.016 0.139 0 0 0 0.059-0.128 0.128-0.176z"></path>
<path fill="#fc0" d="M24.177 15.088l-0.032-0.059c0-0.011 0 0.053-0.021 0.053-0.027 0.043-0.037 0.123-0.037 0.144 0.037 0.011 0.069 0.032 0.123 0.011 0.016-0.016 0-0.053 0-0.075-0.011-0.016-0.016-0.053-0.032-0.075z"></path>
<path fill="#fc0" d="M22.241 14.795l-0.037-0.032 1.141-1.264 0.021 0.027z"></path>
<path fill="#fc0" d="M23.335 13.493c0-0.048-0.032-0.107-0.064-0.107l-0.048 0.005c-0.016 0.005-0.021 0.016-0.027 0.032-0.005 0.048 0.053 0.064 0.091 0.069l0.043 0.005 0.011 0.016-0.016-0.005c-0.032-0.011-0.064-0.011-0.107-0.016-0.027-0.005-0.048-0.069-0.032-0.085 0.016-0.027 0.085-0.043 0.107-0.027 0.043 0.027 0.053 0.080 0.064 0.133 0-0.011-0.021-0.005-0.021-0.016z"></path>
<path fill="#fc0" d="M23.361 13.515c0.048-0.016 0.112-0.011 0.123 0.027l0.011 0.043c0 0.021 0 0.027-0.021 0.037-0.037 0.021-0.075-0.027-0.091-0.064 0-0.011-0.011-0.032-0.021-0.037h-0.021l0.016 0.011 0.053 0.091c0.011 0.027 0.075 0.027 0.091 0 0.016-0.021 0-0.091-0.016-0.107-0.043-0.032-0.096-0.027-0.149-0.011 0.011 0 0.016 0.016 0.027 0.011z"></path>
<path fill="#fc0" d="M23.367 13.493c0.016 0 0.016 0.021 0.016 0.032s-0.021 0.021-0.032 0.016c-0.021-0.005-0.037-0.021-0.032-0.043s0.032-0.011 0.048-0.005z"></path>
<path fill="#fc0" d="M23.58 13.264s-0.107 0.085-0.213 0.107c0 0 0.016 0.101 0 0.128 0 0 0.091-0.037 0.139-0.027 0 0 0.021-0.139 0.080-0.213z"></path>
<path fill="#fc0" d="M23.383 13.595l-0.053-0.053c0-0.005 0.021 0.053 0 0.069-0.021 0.043-0.005 0.123 0 0.144 0.037 0 0.069 0.016 0.107-0.021 0.021-0.016 0-0.048-0.016-0.069 0-0.016-0.021-0.053-0.037-0.069z"></path>
<path fill="#fc0" d="M21.287 13.193l-2.68 4.487h5.367z"></path>
<path fill="#fff" d="M21.287 13.487l-2.42 4.047h4.847z"></path>
<path fill="#007e93" d="M19.587 16.333l-0.72 1.2h4.847l-0.727-1.2z"></path>
<path fill="#fff" d="M21.287 15.52c0.18 0 0.327-0.146 0.327-0.327v0c-0.004-0.178-0.149-0.32-0.327-0.32-0 0-0 0-0 0v0c-0 0-0 0-0 0-0.178 0-0.323 0.142-0.327 0.32v0c0 0 0 0 0 0 0 0.18 0.146 0.327 0.327 0.327 0.002 0 0.005-0 0.007-0h-0z"></path>
<path fill="#e60000" d="M21.473 15.347s-0.047-0.027-0.067-0.027l-0.2 0.007c-0.033 0.007-0.053 0.033-0.053 0.033s0.033 0.033 0.093 0.040c0.067 0 0.113 0 0.147-0.013l0.080-0.040z"></path>
<path fill="#e60000" d="M21.16 15.3s0.007-0.093 0.067-0.2l-0.027 0.053s-0.040 0.020-0.060 0c-0.020-0.027-0.007-0.033 0.007-0.067 0.013-0.027 0.013-0.053 0.033-0.067 0.013-0.020 0.027-0.020 0.067-0.020 0.047 0 0.080 0 0.113 0.053l0.067 0.113c0.040 0.053 0.040 0.127 0.040 0.127l0.013 0.053s-0.047-0.027-0.073-0.027l-0.2 0.007-0.053 0.033s-0.020-0.040 0.007-0.067z"></path>
<path fill="#fc0" d="M21.28 15.807v-0.48s0.013-0.013 0.053 0v0.473s0.013 0.367-0.027 0.367c-0.047 0-0.027-0.087-0.027-0.36z"></path>
<path fill="#e60000" d="M20.787 15.4l0.007 0.020-0.093 0.040 0.013 0.033h-0.013c-0.007-0.013-0.013-0.020-0.040-0.020v-0.013l0.127-0.053zM20.687 15.367c-0.010-0.006-0.017-0.015-0.020-0.026l-0-0c0-0.027 0.007-0.047 0.040-0.053 0.013-0.007 0.047-0.007 0.060 0.033 0 0.020 0 0.047-0.033 0.053v-0.013c0.013-0.007 0.020-0.020 0.013-0.040 0-0.013-0.020-0.020-0.040-0.020-0.020 0.007-0.027 0.020-0.020 0.040 0.003 0.009 0.011 0.017 0.020 0.020l0 0v0.013l-0.080 0.007-0.013-0.067h0.020l0.013 0.053h0.040zM20.647 15.1c-0.020 0-0.033 0.020-0.033 0.040 0 0.013 0 0.033 0.020 0.033s0.020-0.007 0.027-0.013l0.013-0.040c0-0.020 0.013-0.033 0.040-0.033 0.033 0 0.040 0.040 0.033 0.067l-0.013 0.040c-0.013 0.007-0.027 0.013-0.040 0.007v-0.013c0.027 0 0.040-0.020 0.040-0.040 0-0.013 0-0.033-0.020-0.040-0.020 0-0.020 0-0.027 0.027l-0.013 0.033c0 0.007-0.007 0.027-0.033 0.027s-0.047-0.020-0.040-0.053c0-0.053 0.033-0.053 0.047-0.053v0.020zM20.647 15.013l0.033 0.013 0.027-0.073h0.020l-0.027 0.080 0.047 0.020 0.027-0.087h0.013l-0.027 0.107-0.14-0.047 0.033-0.1 0.013 0.007z"></path>
<path fill="#e60000" d="M20.733 14.8c-0.012 0.005-0.022 0.014-0.027 0.026l-0 0-0.033 0.053 0.127 0.073 0.007-0.013-0.053-0.033 0.027-0.040c0.013-0.027 0-0.047-0.013-0.060-0.005-0.002-0.011-0.004-0.017-0.004s-0.012 0.001-0.017 0.004l0-0zM20.747 14.827c0.001-0 0.002-0 0.003-0s0.002 0 0.003 0h-0c0.013 0.013 0.013 0.020 0.007 0.040l-0.020 0.027-0.040-0.020 0.020-0.033c0.007-0.013 0.013-0.020 0.027-0.013z"></path>
<path fill="#e60000" d="M20.907 14.807l-0.013 0.013-0.093-0.087-0.033 0.033-0.013-0.007 0.080-0.087 0.013 0.013-0.033 0.033zM20.953 14.767l-0.087-0.113 0.013-0.013 0.087 0.113zM20.953 14.613l0.020 0.040 0.067-0.033 0.013 0.013-0.067 0.040 0.013 0.040 0.080-0.040 0.007 0.013-0.093 0.053-0.067-0.133 0.093-0.047 0.007 0.013zM21.22 14.653l-0.020-0.080v-0.040l-0.020 0.133h-0.020l-0.067-0.107 0.013 0.033 0.013 0.087h-0.013l-0.033-0.14h0.027l0.067 0.107 0.013-0.133h0.027l0.033 0.133-0.020 0.007z"></path>
<path fill="#e60000" d="M21.267 14.507v0.147h0.053c0.033 0 0.053-0.013 0.053-0.040 0-0.020-0.013-0.027-0.027-0.033 0.020-0.007 0.020-0.020 0.020-0.033 0-0.020-0.007-0.033-0.033-0.040h-0.067zM21.287 14.527h0.033c0.020 0 0.027 0.013 0.027 0.027s-0.007 0.020-0.027 0.013h-0.033v-0.040zM21.287 14.587h0.033c0.013 0 0.033 0.007 0.033 0.027 0 0.013-0.013 0.027-0.033 0.027l-0.033-0.007v-0.047zM21.427 14.52l-0.033 0.14 0.013 0.007 0.020-0.060 0.047 0.013c0.020 0.007 0.020 0.020 0.013 0.033v0.033l0.020 0.007v-0.047c0.007-0.013 0-0.020 0-0.027 0 0 0.020-0.007 0.020-0.027 0.013-0.033-0.007-0.047-0.033-0.053l-0.067-0.020zM21.447 14.547l0.040 0.013c0.013 0 0.027 0 0.020 0.027 0 0.020-0.020 0.020-0.033 0.013l-0.040-0.007 0.013-0.047z"></path>
<path fill="#e60000" d="M21.6 14.6l-0.020 0.040 0.067 0.040-0.007 0.013-0.067-0.033-0.027 0.040 0.073 0.040-0.007 0.013-0.093-0.053 0.067-0.12 0.1 0.053-0.013 0.013z"></path>
<path fill="#e60000" d="M21.773 14.713l-0.107 0.087 0.040 0.047c0.027 0.033 0.067 0.020 0.093 0 0.033-0.027 0.040-0.067 0.013-0.093l-0.033-0.047zM21.773 14.74l0.020 0.027c0.020 0.020 0.020 0.040-0.007 0.067-0.027 0.020-0.053 0.020-0.067 0l-0.020-0.027 0.073-0.067z"></path>
<path fill="#e60000" d="M21.88 14.867l-0.047 0.027 0.040 0.067-0.020 0.013-0.033-0.073-0.040 0.020 0.040 0.080h-0.020l-0.047-0.087 0.133-0.067 0.047 0.093-0.020 0.007zM21.827 15.133v-0.020l0.1-0.013-0.007-0.033h0.013c0 0.020 0.007 0.027 0.033 0.033v0.013l-0.14 0.020z"></path>
<path fill="#e60000" d="M21.867 15.173l-0.027 0.013c-0.007 0.009-0.012 0.021-0.013 0.033v0c0 0.033 0.020 0.053 0.040 0.053 0.013 0 0.027 0 0.040-0.020 0 0 0.007 0.013 0.027 0.013s0.040 0 0.040-0.040c0-0.033-0.020-0.047-0.040-0.047-0.013 0-0.020 0.007-0.027 0.027 0-0.020-0.020-0.027-0.033-0.033zM21.867 15.2c0.013 0 0.027 0.007 0.027 0.027 0 0.013-0.007 0.027-0.027 0.027s-0.020-0.020-0.020-0.033c0-0.020 0.013-0.020 0.027-0.020zM21.933 15.2c0.013 0 0.020 0.007 0.020 0.027s-0.013 0.027-0.020 0.027c-0.012-0.003-0.020-0.013-0.020-0.026 0-0 0-0.001 0-0.001v0c0-0.013 0.007-0.020 0.020-0.020z"></path>
<path fill="#e60000" d="M21.913 15.3c0.047 0.013 0.040 0.047 0.040 0.067-0.007 0.020-0.027 0.033-0.053 0.027-0.027 0-0.033-0.020-0.040-0.047v-0.013c0-0.027-0.013-0.033-0.020-0.033l-0.020 0.073h-0.020l0.027-0.093c0.027 0.007 0.040 0.020 0.047 0.047v0.020c0.013 0.013 0.013 0.027 0.033 0.033 0.007 0 0.027 0 0.033-0.027 0-0.020-0.020-0.027-0.027-0.033v-0.020zM21.773 15.44l0.007-0.020 0.093 0.047 0.013-0.033 0.013 0.007c-0.007 0.027-0.013 0.033 0.007 0.047v0.013l-0.133-0.060z"></path>
<path fill="#fc0" d="M19.4 16.633c0.027 0 0.080-0.040 0.1-0.053s0.033-0.047 0.053-0.067l0.1-0.067c0.093-0.052 0.171-0.122 0.232-0.205l0.001-0.002c0.101-0.142 0.227-0.258 0.374-0.344l0.006-0.003c0.053-0.027 0.127-0.020 0.18 0l0.053 0.047c0.067 0.047 0.153 0.087 0.26 0.12 0.1 0.027 0.127 0.093 0.2 0.167 0.047 0.033 0.087 0.067 0.133 0.087l0.027 0.027 0.133 0.093c0.075 0.068 0.145 0.136 0.212 0.205l0.001 0.001 0.027 0.047c0.053 0.047 0.107 0.1 0.173 0.133l0.18 0.107c-0.613 0.027-1.18-0.013-1.8 0h-0.113l-0.12 0.007h-0.587l0.18-0.3z"></path>
<path fill="#fc0" d="M21.82 16.913l-0.153-0.093c-0.067-0.033-0.12-0.087-0.173-0.133l-0.027-0.047c-0.069-0.071-0.138-0.138-0.21-0.203l-0.004-0.003-0.133-0.093-0.020-0.027c-0.051-0.024-0.095-0.053-0.134-0.087l0.001 0.001-0.127-0.133c0.025-0.017 0.053-0.033 0.083-0.045l0.003-0.001c0.040-0.027 0.1-0.020 0.147 0l0.047 0.033c0.053 0.047 0.127 0.073 0.213 0.1s0.107 0.080 0.173 0.14c0.033 0.033 0.067 0.053 0.107 0.073l0.020 0.020 0.113 0.087 0.18 0.167 0.020 0.040c0.047 0.040 0.087 0.087 0.14 0.107l0.153 0.093h-0.413z"></path>
<path fill="#fc0" d="M21.273 16.16l0.060 0.020c0.087 0.027 0.107 0.080 0.173 0.14 0.033 0.033 0.067 0.053 0.107 0.073l0.020 0.020 0.113 0.087c0.065 0.057 0.124 0.111 0.181 0.167l-0.001-0.001 0.020 0.040c0.047 0.040 0.087 0.087 0.14 0.107 0.047 0.020 0.087 0.053 0.133 0.080l0.333-0.007c-0.040-0.027-0.080-0.067-0.133-0.087-0.047-0.020-0.087-0.067-0.127-0.1l-0.020-0.033-0.16-0.153-0.107-0.073-0.013-0.020c-0.038-0.018-0.071-0.041-0.1-0.067l0 0c-0.067-0.053-0.080-0.107-0.16-0.133-0.073-0.019-0.138-0.048-0.195-0.088l0.002 0.001c-0.013-0.007-0.027-0.027-0.040-0.027-0.040-0.020-0.1-0.027-0.133 0-0.036 0.017-0.067 0.035-0.096 0.055l0.002-0.001z"></path>
<path fill="#fc0" d="M21.84 16.293l0.053 0.060 0.1 0.067 0.013 0.020 0.107 0.067 0.16 0.16 0.020 0.033c0.040 0.040 0.080 0.080 0.133 0.1l0.087 0.053h0.4c-0.040-0.027-0.067-0.053-0.113-0.067l-0.1-0.087-0.020-0.027c-0.042-0.041-0.085-0.082-0.129-0.123l-0.004-0.004-0.080-0.060-0.013-0.013c-0.031-0.015-0.057-0.033-0.080-0.054l0 0c-0.047-0.047-0.067-0.087-0.127-0.107-0.061-0.014-0.114-0.037-0.162-0.068l0.002 0.001-0.027-0.027c-0.040-0.013-0.080-0.020-0.113 0-0.041 0.020-0.076 0.042-0.108 0.068l0.001-0.001v0.007z"></path>
<path fill="#fc0" d="M22.887 16.833c-0.025-0.020-0.054-0.037-0.084-0.052l-0.003-0.001-0.1-0.080-0.020-0.027c-0.040-0.047-0.080-0.087-0.133-0.127l-0.080-0.060-0.013-0.013c-0.030-0.015-0.057-0.033-0.080-0.054l0 0c-0.040-0.040-0.060-0.067-0.1-0.093 0.020-0.017 0.041-0.032 0.065-0.046l0.002-0.001c0.033-0.013 0.067 0 0.1 0l0.027 0.027c0.033 0.027 0.080 0.047 0.133 0.067 0.060 0.013 0.067 0.047 0.113 0.087 0.020 0.013 0.040 0.033 0.067 0.040l0.013 0.020 0.067 0.047 0.113 0.107 0.013 0.027 0.087 0.067 0.1 0.060h-0.287z"></path>
<path fill="#fc0" d="M19.173 19.907l0.040 0.3c-0.073-0.027-0.147 0.013-0.18 0.080-0.060 0.113-0.007 0.2 0.1 0.247l0.14 0.080 0.267-0.52-0.107-0.053-0.107 0.207-0.027-0.273-0.127-0.067zM19.213 20.3l0.060 0.020h0.007l-0.067 0.147-0.020-0.007c-0.047-0.027-0.080-0.060-0.053-0.113 0.020-0.040 0.047-0.053 0.073-0.047z"></path>
<path fill="#fc0" d="M18.713 20.18l0.067-0.107-0.153-0.107 0.053-0.080 0.153 0.107 0.093-0.133-0.167-0.107 0.060-0.087 0.253 0.18-0.32 0.48-0.26-0.173 0.053-0.080z"></path>
<path fill="#fc0" d="M18.6 19.5l-0.133 0.167-0.047-0.040c-0.093-0.080-0.187-0.080-0.267 0.013-0.087 0.1-0.053 0.193 0.040 0.273l0.127 0.107 0.373-0.447-0.087-0.073zM18.307 19.687c0.020 0 0.047 0.020 0.067 0.040l0.020 0.013-0.107 0.12-0.013-0.013c-0.047-0.040-0.067-0.067-0.027-0.127 0.027-0.027 0.040-0.033 0.067-0.033z"></path>
<path fill="#fc0" d="M17.893 19.64l-0.080-0.087 0.24-0.22c0.053-0.047 0.127-0.12 0.060-0.2-0.067-0.067-0.153 0-0.2 0.040l-0.247 0.227-0.080-0.087 0.26-0.233c0.107-0.093 0.227-0.12 0.333 0 0.113 0.12 0.073 0.24-0.033 0.333l-0.253 0.233z"></path>
<path fill="#fc0" d="M17.673 18.54c-0.033 0-0.067 0.007-0.1 0.033-0.053 0.033-0.093 0.1-0.060 0.167-0.040-0.020-0.087 0-0.127 0.020-0.093 0.067-0.093 0.147-0.027 0.24l0.087 0.12 0.48-0.333-0.107-0.147c-0.040-0.053-0.087-0.093-0.147-0.1zM17.673 18.667c0.033 0 0.067 0.027 0.087 0.060l0.013 0.020-0.12 0.080-0.013-0.013c-0.027-0.040-0.060-0.093 0-0.133l0.033-0.013zM17.507 18.833c0.020 0 0.040 0.013 0.053 0.040l0.007 0.013-0.113 0.080v-0.013c-0.033-0.040-0.040-0.067 0.007-0.1l0.047-0.020z"></path>
<path fill="#fc0" d="M17.64 18.353l-0.513 0.28-0.053-0.107 0.42-0.227-0.073-0.147 0.080-0.047zM16.88 18.12l0.533-0.233 0.040 0.107-0.533 0.233zM16.813 17.487c-0.017 0.027-0.027 0.060-0.027 0.096 0 0.018 0.003 0.036 0.008 0.052l-0-0.001c0.040 0.1 0.153 0.133 0.247 0.1 0.093-0.027 0.167-0.12 0.133-0.227-0.018-0.048-0.054-0.086-0.099-0.106l-0.001-0 0.127-0.040c0.033 0.033 0.067 0.067 0.073 0.12 0.008 0.026 0.013 0.057 0.013 0.088 0 0.132-0.086 0.245-0.204 0.284l-0.002 0.001c-0.16 0.047-0.333-0.020-0.387-0.187-0.010-0.030-0.016-0.064-0.016-0.099 0-0.014 0.001-0.029 0.003-0.043l-0 0.002 0.133-0.040z"></path>
<path fill="#fc0" d="M17.093 16.707l-0.547 0.333 0.013 0.087 0.627 0.133-0.020-0.127-0.133-0.027-0.033-0.207 0.113-0.067-0.020-0.127zM16.913 16.947l0.027 0.14-0.22-0.027 0.193-0.113zM16.78 15.62c-0.147 0-0.267 0.107-0.28 0.267l-0.013 0.173 0.58 0.047 0.013-0.167c0.001-0.010 0.002-0.022 0.002-0.034 0-0.152-0.118-0.276-0.268-0.286l-0.001-0h-0.027zM16.76 15.753c0.006-0.001 0.013-0.001 0.020-0.001s0.014 0 0.021 0.001l-0.001-0c0.107 0.007 0.173 0.067 0.16 0.2v0.013l-0.347-0.027v-0.020c0.007-0.107 0.060-0.16 0.147-0.167z"></path>
<path fill="#fc0" d="M16.68 15.3l0.127 0.027 0.040-0.187 0.093 0.020-0.040 0.187 0.153 0.033 0.040-0.193 0.1 0.020-0.067 0.307-0.567-0.12 0.067-0.307 0.093 0.020zM16.9 14.54l0.12 0.040 0.067-0.173 0.093 0.040-0.067 0.173 0.147 0.053 0.067-0.18 0.093 0.033-0.113 0.293-0.54-0.207 0.113-0.293 0.093 0.033zM17.493 14.387l-0.52-0.267 0.053-0.1 0.427 0.22 0.080-0.147 0.087 0.040zM17.62 13.327c-0.040 0-0.067 0.013-0.093 0.047-0.014 0.012-0.023 0.030-0.023 0.050s0.009 0.038 0.023 0.050l0 0c0.087 0.053 0.2-0.16 0.353-0.047 0.093 0.067 0.113 0.18 0.040 0.28-0.053 0.067-0.127 0.087-0.2 0.080l-0.013-0.107c0.047 0.020 0.1 0.007 0.133-0.033 0.027-0.040 0.013-0.087-0.027-0.113-0.047-0.033-0.093 0-0.133 0.027-0.067 0.047-0.133 0.067-0.207 0.013-0.044-0.032-0.072-0.083-0.072-0.14 0-0.037 0.012-0.072 0.032-0.1l-0 0.001c0.037-0.050 0.090-0.086 0.152-0.1l0.002-0 0.033 0.093z"></path>
<path fill="#fc0" d="M17.873 12.82l-0.067 0.067 0.267 0.58 0.087-0.093-0.047-0.113 0.14-0.153 0.12 0.053 0.087-0.093-0.58-0.253zM17.967 12.98l0.187 0.087-0.093 0.093-0.093-0.18z"></path>
<path fill="#fc0" d="M18.553 13l-0.367-0.453 0.093-0.073 0.3 0.373 0.133-0.107 0.067 0.080zM18.853 12.067l0.107-0.067 0.12 0.633-0.053 0.033-0.52-0.38 0.107-0.067 0.333 0.253z"></path>
<path fill="#fc0" d="M19.373 11.787l-0.087 0.040 0.033 0.64 0.113-0.047v-0.133l0.187-0.093 0.093 0.093 0.113-0.047-0.453-0.453zM19.393 11.98l0.147 0.147-0.12 0.053-0.020-0.2zM20.020 11.58l-0.093 0.020-0.16 0.047 0.167 0.553 0.16-0.040c0.124-0.033 0.214-0.145 0.214-0.277 0-0.032-0.005-0.063-0.015-0.091l0.001 0.002c-0.040-0.127-0.14-0.207-0.267-0.207zM20.020 11.707c0.067 0 0.12 0.047 0.147 0.133 0.027 0.093 0 0.18-0.133 0.213l-0.013 0.007-0.1-0.333 0.020-0.007 0.080-0.013zM20.72 11.42h-0.033c-0.146 0.018-0.257 0.142-0.257 0.291 0 0.017 0.002 0.034 0.004 0.051l-0-0.002c0.013 0.151 0.139 0.27 0.292 0.27 0.014 0 0.029-0.001 0.043-0.003l-0.002 0c0.149-0.019 0.263-0.145 0.263-0.298 0-0.015-0.001-0.030-0.003-0.044l0 0.002c-0.017-0.151-0.144-0.267-0.298-0.267-0.003 0-0.006 0-0.009 0h0zM20.707 11.547c0.093-0.013 0.167 0.067 0.18 0.153 0.013 0.073-0.047 0.187-0.133 0.2-0.093 0.007-0.173-0.080-0.187-0.16-0.007-0.087 0.047-0.18 0.14-0.193zM21.2 11.387v0.587h0.113v-0.24l0.147 0.233h0.14l-0.167-0.247c0.080-0.007 0.127-0.080 0.127-0.16 0-0.12-0.080-0.173-0.2-0.173h-0.16zM21.32 11.493h0.020c0.053 0 0.1 0.013 0.093 0.080 0 0.067-0.040 0.080-0.1 0.080h-0.013v-0.16z"></path>
<path fill="#fc0" d="M22.44 11.62l-0.033 0.133 0.18 0.040-0.020 0.093-0.187-0.047-0.033 0.153 0.187 0.053-0.027 0.093-0.3-0.080 0.14-0.56 0.3 0.073-0.020 0.1zM22.88 11.62l0.080 0.033 0.14 0.5 0.147-0.367 0.113 0.047-0.22 0.553-0.080-0.033-0.147-0.5-0.147 0.367-0.107-0.040zM23.5 12.573l0.313-0.493 0.1 0.067-0.26 0.4 0.14 0.093-0.053 0.080z"></path>
<path fill="#fc0" d="M24.36 12.44l-0.56 0.313 0.093 0.080 0.12-0.067 0.16 0.133-0.040 0.133 0.1 0.073 0.2-0.607-0.073-0.060zM24.273 12.607l-0.067 0.2-0.107-0.087 0.173-0.113zM25.227 13.353l-0.613 0.153 0.067 0.1 0.133-0.027 0.12 0.167-0.067 0.113 0.067 0.1 0.353-0.533-0.060-0.080zM25.107 13.487l-0.12 0.173-0.073-0.107 0.193-0.067z"></path>
<path fill="#fc0" d="M25.027 14.127l-0.053-0.107 0.58-0.18 0.040 0.073-0.273 0.307 0.4-0.040 0.040 0.073-0.487 0.353-0.060-0.107 0.307-0.207-0.4 0.040-0.013-0.033 0.267-0.287zM25.8 14.68l-0.12 0.040 0.067 0.18-0.1 0.033-0.060-0.18-0.147 0.047 0.067 0.187-0.1 0.033-0.1-0.3 0.553-0.18 0.1 0.293-0.093 0.033z"></path>
<path fill="#fc0" d="M26.020 15.047l-0.573 0.12 0.027 0.12 0.227-0.053-0.2 0.2 0.040 0.133 0.2-0.213c0.023 0.052 0.075 0.087 0.134 0.087 0.016 0 0.032-0.003 0.047-0.008l-0.001 0c0.127-0.020 0.16-0.113 0.133-0.227l-0.033-0.16zM25.947 15.187v0.013c0.013 0.060 0.007 0.107-0.053 0.113-0.067 0.020-0.087-0.020-0.1-0.080v-0.013l0.153-0.033z"></path>
<path fill="#fc0" d="M26.133 15.733l-0.573 0.067-0.013-0.113 0.58-0.067zM26.013 16.367c0.032-0.035 0.053-0.082 0.053-0.133v-0c0-0.113-0.1-0.18-0.2-0.173-0.1 0-0.2 0.067-0.193 0.173 0 0.053 0.027 0.1 0.067 0.133h-0.133c-0.022-0.038-0.036-0.084-0.040-0.132l-0-0.001c0-0 0-0 0-0 0-0.163 0.131-0.296 0.293-0.3h0c0.167 0 0.313 0.113 0.32 0.293-0 0.049-0.013 0.095-0.034 0.135l0.001-0.002h-0.133z"></path>
<path fill="#fc0" d="M25.58 16.473l-0.013 0.127 0.12 0.060-0.027 0.207-0.133 0.033-0.013 0.12 0.62-0.147 0.013-0.093-0.567-0.307zM25.78 16.713l0.18 0.080-0.2 0.047 0.020-0.133z"></path>
<path fill="#fc0" d="M25.6 18.14c0.048-0.018 0.086-0.054 0.106-0.099l0-0.001c0.047-0.107-0.027-0.2-0.12-0.24-0.087-0.033-0.2-0.007-0.247 0.093-0.006 0.017-0.009 0.037-0.009 0.058 0 0.033 0.008 0.063 0.023 0.090l-0-0.001-0.133-0.047c-0.001-0.007-0.001-0.016-0.001-0.025 0-0.041 0.008-0.081 0.022-0.117l-0.001 0.002c0.046-0.111 0.153-0.187 0.278-0.187 0.039 0 0.076 0.008 0.111 0.021l-0.002-0.001c0.16 0.060 0.247 0.227 0.187 0.393-0.020 0.045-0.050 0.083-0.086 0.113l-0.001 0-0.127-0.053zM25.507 18.453l-0.113-0.060-0.087 0.167-0.087-0.047 0.087-0.167-0.133-0.073-0.1 0.173-0.087-0.047 0.153-0.28 0.507 0.28-0.147 0.273-0.087-0.047zM25.393 18.88l-0.047 0.067-0.513 0.020 0.313 0.233-0.067 0.093-0.487-0.347 0.053-0.067 0.513-0.020-0.32-0.233 0.073-0.093zM24.793 19.46l0.080-0.087 0.067 0.067-0.247 0.267-0.067-0.067 0.080-0.093-0.347-0.333 0.080-0.087z"></path>
<path fill="#fc0" d="M24.187 19.38l-0.093 0.073 0.153 0.187-0.267-0.087-0.107 0.093 0.287 0.073c-0.053 0.067-0.040 0.147 0.013 0.2 0.073 0.1 0.173 0.087 0.267 0.013l0.12-0.107-0.373-0.447zM24.3 19.713l0.1 0.12-0.013 0.007c-0.040 0.033-0.080 0.053-0.12 0-0.047-0.047-0.020-0.087 0.027-0.12l0.007-0.013zM23.827 19.687l-0.107 0.067 0.020 0.127-0.18 0.107-0.1-0.073-0.107 0.067 0.513 0.38 0.073-0.047-0.113-0.633zM23.76 19.987l0.053 0.2h-0.007l-0.16-0.133 0.113-0.067z"></path>
<path fill="#fc0" d="M23.247 20.020l0.253 0.533-0.107 0.047-0.2-0.433-0.16 0.067-0.040-0.087z"></path>
</svg>
