<!-- Generated by IcoMoon.io -->
<svg version="1.1" xmlns="http://www.w3.org/2000/svg" width="43" height="32" viewBox="0 0 43 32">
<title>sx</title>
<path fill="#ed2939" d="M0 0h48v16h-26.669l-21.331-16z"></path>
<path fill="#002395" d="M0 32h48v-16h-26.669l-21.331 16z"></path>
<path fill="#fff" d="M0 0l21.331 16-21.331 16v-32z"></path>
<path fill="#ff0" d="M10.769 12.075l0.006-0.25s-0.131-0.213 0.025-0.438c0 0-0.331-0.175-0.25-0.45 0 0-0.3-0.075-0.281-0.4 0 0-0.313-0.019-0.35-0.294 0 0-0.319 0.050-0.463-0.213 0 0-0.313 0.063-0.4-0.156 0 0-0.306 0.1-0.481-0.156 0 0-0.325 0.131-0.456-0.113-0.131 0.244-0.456 0.113-0.456 0.113-0.175 0.256-0.481 0.15-0.481 0.15-0.088 0.219-0.394 0.156-0.394 0.156-0.144 0.269-0.463 0.213-0.463 0.213-0.031 0.275-0.35 0.3-0.35 0.3 0.001 0.011 0.002 0.025 0.002 0.038 0 0.172-0.116 0.317-0.274 0.361l-0.003 0.001c0.081 0.269-0.25 0.444-0.25 0.444 0.162 0.231 0.031 0.438 0.031 0.438l-0.006 0.231 5.294 0.025z"></path>
<path fill="#f00" d="M10.644 11.762c-0.831-0.081-1.787-0.281-2.525 0.137-0.5-0.294-1.188-0.275-1.775-0.219-0.319 0.063-0.694 0.063-1.031 0.113l-0.050 0.006c-0.606 0.044-1.156-0.137-1.688-0.375 0.175 0.95 0.356 1.919 0.45 2.912 0.2 1.475-0.694 2.706-0.337 4.163 0.219 0.7 0.988 1.106 1.687 1.188 0.743 0.048 1.432 0.148 2.102 0.298l-0.090-0.017c0.133 0.033 0.247 0.074 0.356 0.124l-0.012-0.005c0.162 0.072 0.299 0.171 0.412 0.293l0.001 0.001c0.375-0.394 0.938-0.506 1.481-0.563 0.988-0.119 2.206-0.056 2.813-0.95v-0.050c0.331-0.5 0.287-1.25 0.144-1.813-0.012-0.194-0.063-0.369-0.094-0.556-0.6-1.594-0.081-3.387 0.175-5-0.296 0.153-0.64 0.272-1.001 0.34l-0.024 0.004c-0.281 0.037-0.594 0.025-0.875 0.006l-0.125-0.031z"></path>
<path fill="#80cfe1" d="M11.887 16.344c0 0.1 0.056 0.188 0.075 0.281 0.119 0.7 0.225 1.625-0.488 2.056-0.8 0.5-1.838 0.288-2.756 0.556-0.188 0.050-0.438 0.219-0.563 0.337-0.088-0.056-0.169-0.137-0.275-0.188-0.756-0.4-1.744-0.269-2.594-0.488-0.431-0.131-0.875-0.469-0.987-0.906-0.275-1.15 0.388-2.131 0.313-3.275-0.050-0.875-0.2-1.706-0.4-2.525 0.669 0.313 1.438 0.363 2.188 0.213 0.175-0.034 0.376-0.053 0.582-0.053 0.411 0 0.803 0.077 1.165 0.217l-0.022-0.008c0.287-0.125 0.625-0.181 0.938-0.213 0.581 0.063 1.213 0.162 1.819 0.162 0.406-0.025 0.775-0.137 1.125-0.294-0.206 1.35-0.613 2.762-0.119 4.125z"></path>
<path fill="#fff" d="M10.688 16.613v-1.275h0.15l-1.938-1.25-0.006-0.656h0.188l-0.975-0.688-0.963 0.688h0.188v0.656l-1.931 1.25h0.156v1.269h5.131z"></path>
<path fill="#fff" d="M11.287 18.281v0.394h-6.256v-0.4h6.25z"></path>
<path fill="#fff" d="M5.444 18.256v-1.344h0.25l-0.013 1.356 0.013-1.35-0.362-0.006v-0.294l5.587 0.012v0.281h-0.338v1.363l-0.006-1.363h0.25l0.012 1.35z"></path>
<path fill="#fff" d="M9.231 16.113l0.012 2.163h-2.181l-0.006-2.163h2.169z"></path>
<path fill="#fff" d="M10.713 12.625c0.181 0 0.225 0.75 0.225 1.125 0.162 0.050 0.506 0.269 0.662 0.463h-1.762c0.15-0.194 0.494-0.412 0.65-0.456 0-0.375 0.037-1.137 0.225-1.125z"></path>
<path fill="#ff0" d="M8.156 21.050c0.813 0 1.813-0.169 2.281-0.406l1.031-0.094 0.025 1.256c-0.875 0.481-2.888 0.587-3.331 0.581-0.444 0-2.481-0.1-3.362-0.581l0.013-1.262 1.031 0.094c0.656 0.262 1.416 0.413 2.212 0.413 0.035 0 0.071-0 0.106-0.001l-0.005 0z"></path>
<path fill="#ff0" d="M2.15 15.688l0.906 0.287-0.275 1.469-0.856 0.137s-0.144-0.775 0.225-1.894z"></path>
<path fill="#7e7e7e" d="M2.781 17.431l-0.856 0.15 0.544-0.775 0.313 0.625z"></path>
<path fill="#ff0" d="M1.606 16.75l0.875 0.063c0.019 0.738 0.112 3.563 3.487 3.719l-0.106 1.031c-4.106 0.038-4.419-3.469-4.25-4.813z"></path>
<path fill="#ff0" d="M14.088 15.7l-0.9 0.287 0.287 1.463 0.863 0.137s0.137-0.769-0.25-1.887z"></path>
<path fill="#7e7e7e" d="M13.475 17.438l0.856 0.156-0.55-0.775-0.313 0.619z"></path>
<path fill="#ff0" d="M14.644 16.756l-0.875 0.063c-0.012 0.738-0.081 3.563-3.456 3.719l0.125 1.025c4.106 0.050 4.387-3.462 4.213-4.806z"></path>
<path fill="#009fc5" d="M7.612 21.669c-0.025 0.012-0.063 0.019-0.094 0.012l-0.162-0.006 0.013-0.206 0.162 0.012c0.031 0 0.063 0.006 0.075 0.019 0.031 0.012 0.044 0.044 0.044 0.087 0 0.038-0.019 0.063-0.044 0.081zM7.338 21.981l0.013-0.244 0.188 0.012c0.063 0.006 0.112-0.012 0.144-0.044 0.031-0.025 0.050-0.063 0.050-0.113 0.001-0.007 0.002-0.014 0.002-0.022 0-0.040-0.015-0.076-0.039-0.103l0 0c-0.033-0.032-0.076-0.053-0.124-0.056l-0.001-0-0.275-0.019-0.037 0.587h0.081zM7.925 21.5h0.2l0.069 0.012c0.031 0.019 0.044 0.044 0.044 0.087 0 0.038-0.006 0.063-0.031 0.081-0.022 0.012-0.048 0.019-0.076 0.019-0.004 0-0.008-0-0.012-0l0.001 0h-0.194v-0.2zM7.925 22.012v-0.25l0.188 0.006c0.031 0 0.063 0 0.075 0.012 0.025 0.012 0.044 0.038 0.044 0.075v0.144l0.012 0.019h0.1v-0.012c-0.012-0.006-0.021-0.018-0.025-0.031l-0-0c-0.004-0.015-0.006-0.032-0.006-0.050v-0.081c0-0.038-0.012-0.063-0.025-0.075-0.012-0.017-0.029-0.030-0.049-0.037l-0.001-0c0.025-0.012 0.050-0.031 0.063-0.050 0.012-0.025 0.025-0.050 0.025-0.087 0-0.063-0.031-0.113-0.088-0.137-0.033-0.015-0.072-0.024-0.112-0.025h-0.282v0.587h0.081zM8.55 21.894c-0.036-0.044-0.059-0.1-0.062-0.162l-0-0.001c0-0.081 0.012-0.144 0.050-0.188 0.036-0.039 0.086-0.063 0.143-0.063 0.003 0 0.005 0 0.008 0h-0c0.006-0.001 0.014-0.001 0.021-0.001 0.050 0 0.095 0.020 0.129 0.051l-0-0c0.044 0.038 0.063 0.094 0.069 0.163 0.001 0.007 0.001 0.016 0.001 0.025 0 0.055-0.014 0.107-0.039 0.152l0.001-0.002c-0.031 0.050-0.081 0.081-0.156 0.081s-0.125-0.012-0.169-0.056zM8.45 21.525c-0.032 0.054-0.050 0.119-0.050 0.188 0 0.006 0 0.013 0.001 0.019l-0-0.001c0.006 0.087 0.031 0.163 0.088 0.212 0.052 0.051 0.123 0.082 0.201 0.082 0.008 0 0.017-0 0.025-0.001l-0.001 0c0.090-0.001 0.169-0.045 0.218-0.112l0.001-0.001c0.039-0.058 0.063-0.13 0.063-0.208 0-0.006-0-0.012-0-0.018l0 0.001c-0.002-0.074-0.030-0.142-0.075-0.194l0 0c-0.056-0.063-0.137-0.094-0.244-0.087-0.1 0-0.175 0.044-0.225 0.119zM11.2 20.681c0.063-0.006 0.113-0.006 0.156 0.006 0.063 0.025 0.106 0.069 0.137 0.144l-0.081 0.012c-0.014-0.036-0.041-0.064-0.074-0.081l-0.001-0c-0.025-0.010-0.053-0.017-0.083-0.017-0.015 0-0.029 0.001-0.043 0.004l0.001-0c-0.052 0.009-0.097 0.039-0.125 0.081l-0 0.001c-0.031 0.044-0.044 0.106-0.031 0.188 0.007 0.063 0.034 0.119 0.075 0.163l-0-0c0.037 0.038 0.094 0.050 0.162 0.044 0.050-0.007 0.094-0.032 0.125-0.068l0-0c0.037-0.038 0.044-0.087 0.031-0.156l-0.188 0.031-0.006-0.063 0.262-0.044 0.050 0.313h-0.056l-0.031-0.063-0.063 0.063c-0.031 0.031-0.075 0.044-0.125 0.056-0.014 0.003-0.030 0.004-0.047 0.004-0.057 0-0.11-0.018-0.154-0.048l0.001 0.001c-0.065-0.051-0.109-0.126-0.119-0.211l-0-0.001c-0.006-0.022-0.009-0.048-0.009-0.075 0-0.065 0.020-0.126 0.053-0.177l-0.001 0.001c0.043-0.060 0.11-0.1 0.187-0.106l0.001-0zM11.794 20.637l0.188-0.069c0.025-0.012 0.050-0.012 0.069-0.012 0.037 0 0.063 0.025 0.075 0.063s0.012 0.069 0 0.094c-0.019 0.019-0.044 0.038-0.081 0.050l-0.175 0.063-0.075-0.188zM11.981 21.119l-0.088-0.231 0.175-0.063c0.020-0.010 0.043-0.017 0.068-0.019l0.001-0c0.031 0.006 0.056 0.025 0.075 0.063l0.056 0.131 0.012 0.019 0.094-0.038v-0.012c-0.019 0-0.031-0.006-0.037-0.025-0.012-0.006-0.019-0.025-0.025-0.044l-0.031-0.075c-0.012-0.031-0.031-0.050-0.044-0.063-0.018-0.008-0.038-0.013-0.060-0.013-0.001 0-0.002 0-0.003 0h0l0.037-0.075c0-0.025 0-0.056-0.012-0.087-0.025-0.063-0.063-0.1-0.125-0.1-0.005-0-0.011-0-0.017-0-0.037 0-0.072 0.007-0.104 0.020l0.002-0.001-0.262 0.094 0.213 0.55 0.075-0.025zM12.669 20.831l-0.331-0.488 0.363-0.238 0.044 0.063-0.3 0.188 0.1 0.15 0.281-0.175 0.037 0.056-0.281 0.175 0.113 0.169 0.313-0.2 0.037 0.063-0.375 0.238zM12.963 19.969l0.094-0.106c0.050-0.050 0.094-0.069 0.144-0.063 0.056 0 0.106 0.031 0.162 0.081 0.039 0.033 0.069 0.075 0.087 0.123l0.001 0.002c0.012 0.038 0.006 0.069 0 0.1-0.012 0.024-0.027 0.045-0.044 0.063l0-0-0.094 0.1-0.35-0.3zM13.469 20.194c0.069-0.075 0.081-0.15 0.044-0.25-0.027-0.052-0.063-0.095-0.106-0.131l-0.001-0.001c-0.051-0.048-0.118-0.080-0.192-0.087l-0.001-0c-0.075-0.006-0.137 0.019-0.194 0.081l-0.162 0.175 0.45 0.394 0.162-0.175zM13.819 19.744l-0.519-0.313 0.044-0.063 0.519 0.306-0.044 0.063zM14.025 19.387l-0.563-0.225 0.162-0.394 0.069 0.025-0.131 0.325 0.169 0.063 0.125-0.294 0.063 0.025-0.125 0.3 0.188 0.075 0.144-0.325 0.063 0.025-0.162 0.4zM14.275 18.7l-0.588-0.125 0.025-0.094 0.544-0.188-0.481-0.106 0.019-0.069 0.588 0.125-0.019 0.087-0.544 0.188 0.481 0.106-0.019 0.075zM14.231 17.95l0.006-0.075c0.037 0 0.063 0 0.088-0.012 0.044-0.025 0.063-0.069 0.075-0.131 0.001-0.008 0.002-0.018 0.002-0.028 0-0.021-0.003-0.042-0.008-0.062l0 0.002c-0.012-0.044-0.037-0.075-0.081-0.075-0.037-0.006-0.063 0-0.075 0.019-0.019 0.019-0.031 0.050-0.044 0.094l-0.031 0.075c-0.012 0.050-0.031 0.087-0.050 0.106-0.025 0.038-0.063 0.050-0.113 0.044-0.050-0.003-0.095-0.026-0.125-0.062l-0-0c-0.037-0.038-0.050-0.094-0.044-0.163 0.006-0.063 0.025-0.113 0.063-0.15 0.031-0.038 0.081-0.063 0.15-0.050l-0.006 0.075c-0.031 0-0.063 0-0.075 0.019-0.037 0.019-0.056 0.063-0.063 0.119 0 0.044 0 0.075 0.025 0.1 0.019 0.025 0.037 0.038 0.063 0.038 0.031 0 0.056 0 0.069-0.025l0.044-0.106 0.025-0.081c0.012-0.038 0.031-0.063 0.050-0.087 0.031-0.031 0.075-0.044 0.125-0.044 0.069 0.006 0.119 0.038 0.137 0.087 0.025 0.050 0.037 0.1 0.031 0.169-0.004 0.064-0.032 0.121-0.075 0.162l-0 0c-0.044 0.038-0.094 0.050-0.162 0.044zM2.006 17.913l0.019 0.075c-0.038 0.006-0.063 0.019-0.081 0.038-0.031 0.031-0.044 0.081-0.031 0.15 0.005 0.028 0.013 0.053 0.026 0.076l-0.001-0.001c0.025 0.044 0.063 0.063 0.106 0.056 0.031-0.006 0.050-0.019 0.063-0.044l0.019-0.1v-0.081c0-0.050 0.013-0.094 0.019-0.113 0.019-0.038 0.056-0.063 0.106-0.075 0.050-0.006 0.1 0 0.138 0.038 0.044 0.025 0.069 0.075 0.081 0.137 0.004 0.016 0.006 0.035 0.006 0.054 0 0.039-0.009 0.077-0.025 0.11l0.001-0.001c-0.025 0.050-0.063 0.075-0.131 0.087l-0.013-0.069c0.024-0.009 0.045-0.022 0.063-0.038l-0 0c0.031-0.031 0.038-0.075 0.031-0.131-0.013-0.050-0.025-0.081-0.050-0.094-0.016-0.013-0.036-0.020-0.058-0.020-0.006 0-0.012 0.001-0.017 0.002l0.001-0c-0.001-0-0.002-0-0.003-0-0.028 0-0.051 0.018-0.060 0.043l-0 0-0.006 0.113-0.006 0.081c-0 0.037-0.010 0.071-0.026 0.101l0.001-0.001c-0.021 0.041-0.060 0.069-0.106 0.075l-0.001 0c-0.063 0.012-0.125-0.006-0.156-0.050-0.037-0.041-0.063-0.092-0.075-0.148l-0-0.002c-0.004-0.016-0.006-0.034-0.006-0.053 0-0.047 0.014-0.092 0.038-0.129l-0.001 0.001c0.031-0.045 0.080-0.076 0.137-0.081l0.001-0zM1.969 18.688l0.581-0.175 0.131 0.406-0.069 0.025-0.112-0.331-0.175 0.050 0.106 0.313-0.069 0.019-0.1-0.313-0.2 0.063 0.112 0.337-0.063 0.019-0.144-0.413zM2.225 19.394l0.531-0.281 0.063 0.1-0.369 0.381 0.531-0.087 0.056 0.094-0.531 0.281-0.038-0.063 0.313-0.169 0.056-0.025 0.081-0.044-0.531 0.094-0.038-0.069 0.362-0.387-0.019 0.012-0.063 0.031c-0.016 0.011-0.034 0.021-0.054 0.030l-0.003 0.001-0.313 0.163-0.038-0.063zM3.212 20.175c-0.025-0.006-0.050-0.025-0.075-0.050l-0.112-0.113 0.15-0.137 0.112 0.113c0.018 0.017 0.033 0.038 0.043 0.061l0 0.001c0.013 0.031 0 0.063-0.031 0.094-0.031 0.025-0.063 0.038-0.087 0.031zM2.788 20.225l0.188-0.169 0.125 0.131c0.050 0.044 0.094 0.063 0.138 0.063 0.048-0.001 0.092-0.020 0.125-0.050l-0 0c0.030-0.033 0.049-0.077 0.050-0.125v-0c0-0.038-0.019-0.081-0.056-0.119l-0.188-0.188-0.438 0.4 0.063 0.063zM3.319 20.7l0.319-0.5 0.375 0.225-0.038 0.063-0.313-0.188-0.094 0.156 0.281 0.169-0.031 0.063-0.288-0.175-0.106 0.169 0.313 0.188-0.038 0.063-0.381-0.231zM4.256 20.6l0.194 0.063 0.063 0.031c0.025 0.025 0.031 0.056 0.013 0.094-0.013 0.038-0.025 0.063-0.056 0.069l-0.094-0.006-0.181-0.063 0.063-0.188zM4.094 21.094l0.081-0.238 0.175 0.056c0.031 0.006 0.063 0.019 0.069 0.031 0.019 0.019 0.025 0.050 0.019 0.087l-0.031 0.094-0.006 0.044v0.019l0.094 0.031v-0.012l-0.013-0.044 0.013-0.044 0.025-0.075c0.006-0.038 0.013-0.063 0-0.075 0-0.019-0.019-0.038-0.037-0.056 0.031 0 0.063-0.012 0.081-0.031s0.037-0.044 0.044-0.075c0.025-0.063 0.013-0.119-0.037-0.156-0.028-0.024-0.062-0.043-0.098-0.056l-0.002-0.001-0.269-0.081-0.188 0.556 0.081 0.025z"></path>
<path fill="#bc715f" d="M4.906 10.975c0.063-0.169 0.706-0.625 2.8-0.425 0 0 0.356 0.219 0.563 0.188 0.125-0.012-0.063 0.012-0.225-0.119-0.156-0.125-0.188-0.394 0.169-0.381 0.363 0.006 1.706 0.081 1.731 0.206 0.025 0.119-0.713 0.169-0.981 0.162-0.275-0.006-0.25 0.131 0.025 0.125 0.856-0.037 1.787-0.338 2.769 0.363 0.119 0.081-0.294 0.094-0.613-0.037 0 0-0.875 0.044-1.25-0.019 0 0-0.281 0.238-0.662 0.213 0.050 0.125-0.137 0.575-1.313 0.231-0.2 0.063-0.906 0.181-0.831-0.031-0.188 0-0.513 0.063-0.563-0.044s0.575-0.262 0.688-0.375c0 0-1.325 0.012-1.575-0.081 0 0-0.781 0.175-0.731 0.025z"></path>
<path fill="#008737" d="M5.331 12.825c0.025-0.037 0.037-0.113 0.1-0.106 0.125 0.031 0.219 0.275 0.375 0.119 0.063-0.012 0.081 0.063 0.125 0.075 0.031 0.131 0.144-0.031 0.219-0.019 0.175-0.075 0.381-0.094 0.588-0.063 0 0.137-0.1 0.281-0.225 0.356 0 0.125 0.125 0.213 0.119 0.344-0.019 0.050 0 0.125-0.075 0.144-0.1-0.019-0.188-0.025-0.269-0.081-0.013-0.006-0.019-0.025-0.037-0.019-0.013 0.044 0.063 0.088 0.088 0.131-0.050 0.081-0.125 0.006-0.194 0.006-0.019 0.050 0 0.106-0.050 0.137-0.081 0-0.1-0.094-0.15-0.137-0.056 0.056 0.037 0.088 0.050 0.131-0.037 0.175-0.031 0.344-0.2 0.456l-0.119 0.056c-0.031-0.088-0.013-0.219-0.031-0.313-0.063 0.113-0.125 0.213-0.219 0.306-0.125-0.037-0.188-0.175-0.213-0.294-0.016-0.039-0.025-0.084-0.025-0.131 0-0.1 0.040-0.191 0.106-0.256v0c-0.031-0.063-0.156-0.050-0.175-0.15-0.188-0.125-0.281 0.206-0.4 0.037-0.008-0.035-0.013-0.075-0.013-0.116 0-0.138 0.052-0.264 0.138-0.36l-0 0c-0.031-0.063-0.119-0.050-0.169-0.088-0.112-0.1-0.281-0.2-0.269-0.375 0.089-0.033 0.191-0.052 0.298-0.052 0.243 0 0.462 0.099 0.621 0.258l0 0z"></path>
<path fill="#ff0" d="M5.494 12.806c-0.006 0.144 0.094 0.037 0.175 0.125-0.063-0.025-0.106 0.106-0.169 0.031l-0.037 0.037c0.025 0.050 0.063 0.056 0.025 0.113-0.063 0.025-0.081-0.063-0.112-0.094 0-0.012 0.013-0.037-0.013-0.050-0.037 0.031-0.075 0.044-0.125 0.037-0.013-0.025-0.044-0.063-0.013-0.088 0.050-0.063 0.125 0.025 0.162-0.019 0.006-0.044-0.031-0.094 0.019-0.125 0.031 0.006 0.075-0.012 0.088 0.031zM5.881 12.925c0.006 0.025-0.013 0.063 0.025 0.088 0.050-0.025 0.1-0.006 0.125 0.037 0 0.025 0.006 0.063-0.025 0.075l-0.075-0.019c0.006-0.012-0.019-0.019-0.025-0.037-0.031-0.006-0.056 0.019-0.075 0.037 0.019 0.025 0.063 0.044 0.050 0.075-0.044 0.044-0.063-0.037-0.112-0.012-0.037-0.012 0.006-0.081-0.044-0.106-0.063 0-0.019 0.1-0.1 0.063-0.025-0.031-0.050-0.075-0.025-0.106 0.015-0.009 0.032-0.014 0.051-0.014 0.026 0 0.050 0.010 0.068 0.027l-0-0c0.050-0.056 0.050-0.256 0.169-0.106zM5.4 13.131c0.031 0.050-0.013 0.113 0.031 0.162 0.063-0.125 0.125 0.025 0.2 0.012 0.025 0.031 0.006 0.069 0.013 0.1-0.094 0.025-0.206 0.056-0.287-0.019l-0.025 0.025c0.050 0.044 0.094 0.1 0.056 0.175-0.069 0.012-0.181 0.019-0.213-0.056-0.019-0.063 0.044-0.1-0.025-0.15-0.044 0.063-0.044 0.137-0.138 0.081-0.037-0.021-0.062-0.060-0.062-0.104 0-0.019 0.004-0.037 0.012-0.053l-0 0.001c0.063-0.1 0.175 0 0.237-0.044 0.013-0.088-0.019-0.162 0.063-0.206 0.063-0.012 0.094 0.037 0.138 0.075z"></path>
<path fill="#fff" d="M5.662 13.188c-0.031 0.144-0.138-0.006-0.188-0.012 0.063-0.125 0.106 0.037 0.188 0.012zM6 13.344c-0.075 0.019-0.063-0.075-0.1-0.113l0.031-0.025c0.025 0.031 0.044 0.094 0.069 0.137z"></path>
<path fill="#ff0" d="M5.9 13.313c0.019 0.050-0.050 0.094 0.013 0.125l0.050-0.044c0.056 0.012 0.112 0.025 0.15 0.075 0.037 0.106-0.069 0.106-0.125 0.137h-0.063c0.013-0.037-0.031-0.050-0.037-0.063-0.006-0.002-0.013-0.004-0.021-0.004-0.019 0-0.036 0.009-0.048 0.022l-0 0c0.013 0.063 0.094 0.125 0.013 0.181-0.075 0-0.188 0.025-0.181-0.075-0.025-0.063 0.075-0.144-0.031-0.15-0.037 0.081-0.075 0.15-0.169 0.081l0.013-0.113c0.088 0 0.194 0.019 0.231-0.081 0.025-0.069-0.044-0.137 0.019-0.188 0.094-0.025 0.144 0.037 0.188 0.094z"></path>
<path fill="#000" d="M5.838 13.475c0.019 0.056-0.037 0.063-0.069 0.088-0.037 0-0.063-0.012-0.088-0.037-0.019-0.063 0.031-0.075 0.063-0.1 0.044-0.019 0.063 0.031 0.094 0.050z"></path>
<path fill="#fff" d="M5.781 13.512c-0.006 0.012-0.025 0.006-0.037 0.012l-0.013-0.063c0.031 0 0.063 0.006 0.050 0.050z"></path>
</svg>
