<!-- Generated by IcoMoon.io -->
<svg version="1.1" xmlns="http://www.w3.org/2000/svg" width="43" height="32" viewBox="0 0 43 32">
<title>sy</title>
<path fill="#fff" d="M0 10.667h42.667v10.667h-42.667v-10.667z"></path>
<path fill="#000" d="M0 21.333h42.667v10.667h-42.667v-10.667z"></path>
<path fill="#f00" d="M0 0h42.667v10.667h-42.667z"></path>
<path fill="#090" d="M13.46 18.733l-1.92-1.393-1.913 1.407 0.713-2.28-1.913-1.413 2.36-0.020 0.733-2.273 0.753 2.267h2.36l-1.9 1.433 0.727 2.28zM33.967 18.733l-1.92-1.393-1.913 1.407 0.713-2.28-1.907-1.413 2.36-0.020 0.733-2.273 0.747 2.267h2.36l-1.9 1.427 0.733 2.28z"></path>
</svg>
