<!-- Generated by IcoMoon.io -->
<svg version="1.1" xmlns="http://www.w3.org/2000/svg" width="43" height="32" viewBox="0 0 43 32">
<title>sz</title>
<path fill="#3e5eb9" d="M-2.667 0h48v32h-48z"></path>
<path fill="#ffd900" d="M-2.667 5.713h48v20.575h-48z"></path>
<path fill="#b10c0c" d="M-2.667 8h48v16h-48z"></path>
<path fill="#ffd900" d="M2.483 15.656h38.131c0.2 0 0.362 0.162 0.362 0.363v-0.037c0 0.2-0.162 0.362-0.362 0.362h-38.131c-0.2 0-0.362-0.162-0.362-0.363v0.038c0-0.2 0.162-0.363 0.362-0.363z"></path>
<path fill="#fff" d="M36.761 12.342l-1.943 0.685 1.943 0.685 1.943-0.685-1.943-0.685z"></path>
<path fill="#ffd900" d="M7.426 12.798h28.041c0.146 0 0.264 0.11 0.264 0.245v-0.032c0 0.135-0.118 0.245-0.264 0.245h-28.041c-0.146 0-0.264-0.11-0.264-0.245v0.032c0-0.135 0.118-0.245 0.264-0.245z"></path>
<path fill="#fff" d="M34.93 13.711l-1.943 0.685 1.943 0.685 1.943-0.685-1.943-0.685z"></path>
<path fill="#ffd900" d="M5.595 14.167h28.041c0.146 0 0.264 0.11 0.264 0.245v-0.032c0 0.135-0.118 0.245-0.264 0.245h-28.041c-0.146 0-0.264-0.11-0.264-0.245v0.032c0-0.135 0.118-0.245 0.264-0.245z"></path>
<path fill="#3d5da7" d="M38.24 15.731c-0.342 0.598 0.267-0.198 1.765 0.805 0.273 0.183 0.516 0.675 0.516 1.017-0.068-0.048-0.124-0.145-0.199-0.217-0.112 0.111 0.106 0.607 0.137 0.843-0.236-0.13-0.211-0.193-0.292-0.357 0.019 0.193-0.037 0.733 0.056 0.935-0.186-0.048-0.174-0.198-0.267-0.231 0.062 0.236-0.062 0.487-0.025 0.752-0.112-0.106-0.224-0.193-0.273-0.236-0.006 0.125-0.205 0.453-0.211 0.574-0.093-0.058-0.118-0.145-0.13-0.202-0.112 0.145-0.516 0.675-0.541 0.829-0.311-0.275-1.106-0.94-1.212-1.297-0.093 0.202-0.224 0.27-0.485 0.419-0.106-0.564-0.497-1.195-0.286-1.677-0.15 0.094-0.283 0.187-0.41 0.285l0-0c0.191-0.942 0.878-1.738 1.843-2.234l0.016-0.008z"></path>
<path fill="#a70000" d="M36.952 18.7c0.144-0.288 0.275-0.375 0.369-0.563 0.163-0.325 0.188-0.587 0.331-0.55s0.144 0.175-0.044 0.494c-0.188 0.313-0.275 0.387-0.656 0.619zM37.921 19.387c-0.019-0.225 0.050-0.313 0.038-0.456-0.019-0.25-0.125-0.419 0.006-0.431s0.194 0.075 0.194 0.325-0.038 0.313-0.237 0.563zM38.658 19.813c-0.056-0.313-0.013-0.438-0.050-0.637-0.063-0.35-0.188-0.575-0.063-0.606 0.119-0.031 0.188 0.081 0.237 0.431 0.044 0.35 0.019 0.45-0.125 0.813zM39.427 17.669c-0.181-0.131-0.288-0.144-0.4-0.231-0.206-0.156-0.313-0.319-0.375-0.238s-0.019 0.169 0.194 0.313c0.219 0.144 0.288 0.156 0.581 0.156zM39.302 18.688c-0.094-0.2-0.194-0.25-0.256-0.375-0.112-0.225-0.112-0.419-0.225-0.369-0.125 0.050-0.125 0.15 0 0.369 0.125 0.212 0.188 0.25 0.481 0.375z"></path>
<path fill="#3d5da7" d="M3.797 16.308c-0.021-0.177 0.021-0.197-0.092-0.328 0.156 0.066 0.163 0.243 0.355 0.118 0.071-0.039 0.099-0.039 0.014-0.23 0.199 0 0.853 0.23 0.952 0.236 0.277 0.013 0.775-0.289 1.116 0.079 0.334 0.335 0.22 0.682 0.22 1.148-0.128-0.066-0.071-0.092-0.213-0.262 0.114 0.407 0 1.141 0 1.574-0.057-0.105-0.050-0.066-0.099-0.171-0.142 0.394-0.313 0.479-0.313 0.938-0.050-0.177 0-0.144-0.057-0.236-0.142 0.295-1.066 0.551-0.711 0.853-0.313-0.184-0.455-0.164-0.604-0.335-0.064 0.039-0.114 0.118-0.171 0.223-0.569-0.262-0.355-0.82-0.803-1.194-0.071 0.157-0.043 0.131-0.128 0.387-0.085-0.354-0.114-0.584-0.213-0.84-0.085 0.144-0.071 0.085-0.235 0.308-0.071-0.433-0.171-0.538-0.128-0.82-0.171 0.118-0.057 0.066-0.227 0.216 0.156-1.115 0.846-1.928 1.336-1.666z"></path>
<path fill="#a70000" d="M3.102 18.113c0.144-0.356 0.275-0.469 0.375-0.7 0.163-0.4 0.188-0.725 0.325-0.675 0.144 0.050 0.138 0.212-0.050 0.613-0.131 0.323-0.357 0.585-0.643 0.759l-0.007 0.004zM3.652 19.006c0.063-0.319 0.15-0.438 0.188-0.644 0.063-0.363 0.031-0.631 0.163-0.619 0.125 0.019 0.156 0.15 0.069 0.512s-0.144 0.444-0.419 0.75zM4.308 19.625c0.019-0.313 0.094-0.431 0.1-0.625 0.019-0.356-0.044-0.606 0.075-0.606 0.125 0 0.169 0.125 0.131 0.475s-0.081 0.438-0.306 0.75zM5.727 17.6c-0.275-0.269-0.438-0.319-0.612-0.5-0.306-0.3-0.456-0.587-0.563-0.481-0.112 0.1-0.044 0.25 0.281 0.544 0.325 0.288 0.438 0.325 0.894 0.438zM5.558 18.637c-0.175-0.262-0.3-0.337-0.412-0.512-0.2-0.306-0.269-0.569-0.375-0.5-0.125 0.063-0.094 0.2 0.125 0.5 0.213 0.294 0.3 0.344 0.669 0.512z"></path>
<path fill="#fff" d="M32.762 16.001c-2.284 2.284-5.333 6.858-11.431 6.858-5.333 0-9.143-4.571-11.426-6.858 2.284-2.284 6.094-6.854 11.426-6.854 6.098 0 9.143 4.567 11.431 6.854z"></path>
<path fill="#000" d="M20.533 11.525c0.613 0.688 0.1 0.963 0.75 1.006 0.675 0.050 0.288 0.725 0.863 0.75 0.4 0.012-0.044 1.606 0.344 2.137 0.394 0.544 0.719 0.156 0.725 0.556 0.006 0.406-1.063 0.369-1.081 1.625-0.031 0.731-0.906 0.781-0.95 1.25-0.050 0.438 1.719 0.688 1.7 1.081-0.025 0.394-1.919 0.331-2 0.775-0.038 0.406 2.6 0.738 2.813 1.9-0.394 0.125-1.519 0.25-2.363 0.25-5.331 0-9.144-4.569-11.431-6.856 2.287-2.287 6.1-6.856 11.431-6.856 0 0-1.581 1.444-0.8 2.387z"></path>
<path fill="#fff" d="M14.171 13.563h0.556v1.825h-0.556zM14.171 16.613h0.556v1.825h-0.556zM15.277 13.563h0.556v1.825h-0.556zM15.277 16.613h0.556v1.825h-0.556zM16.396 13.563h0.55v1.825h-0.55zM16.396 16.613h0.55v1.825h-0.55zM17.502 13.563h0.556v1.825h-0.556zM17.502 16.613h0.556v1.825h-0.556zM18.608 13.563h0.556v1.825h-0.556zM18.608 16.613h0.556v1.825h-0.556zM19.721 13.563h0.55v1.825h-0.55zM19.721 16.613h0.55v1.825h-0.55z"></path>
<path fill="#000" d="M22.552 13.563h0.556v1.825h-0.556zM22.552 16.613h0.556v1.825h-0.556zM23.658 13.563h0.556v1.825h-0.556zM23.658 16.613h0.556v1.825h-0.556zM24.771 13.563h0.55v1.825h-0.55zM24.771 16.613h0.55v1.825h-0.55zM25.877 13.563h0.556v1.825h-0.563zM25.877 16.613h0.556v1.825h-0.563zM26.983 13.563h0.556v1.825h-0.556zM26.983 16.613h0.556v1.825h-0.556zM28.096 13.563h0.55v1.825h-0.55zM28.096 16.613h0.55v1.825h-0.55z"></path>
<path fill="#3d5da7" d="M17.632 10.362c-0.313 0.61 0.557-0.202 1.921 0.822 0.33 0.355 0.553 0.795 0.618 1.278l0.001 0.012c-0.29-0.059-0.807-0.345-0.807-0.345s0.602 0.6 0.602 1.299c-0.21-0.133-0.318-0.113-0.387-0.276 0 0.221 0.188 0.369 0.188 0.719-0.124-0.101-0.259-0.193-0.404-0.275l-0.011-0.006c0.199 0.349-0.369 1.029-0.085 1.255-0.494-0.074-1.006-0.394-1.205-0.738-0.108 0.069-0.114 0.182-0.125 0.305 0.017 0.010-0.756-0.576-0.682-0.802-0.108 0.148-0.119 0.226-0.142 0.394-0.293-0.25-0.515-0.561-0.638-0.91l-0.005-0.015-0.261 0.33c-0.091-0.576-0.091-0.556 0.097-1.048-0.137 0.096-0.259 0.191-0.375 0.291l0-0c0.174-0.963 0.802-1.775 1.685-2.281l0.014-0.008z"></path>
<path fill="#a70000" d="M16.858 13.35c0.050-0.419 0.156-0.581 0.188-0.85 0.063-0.481-0.006-0.825 0.163-0.819s0.219 0.188 0.137 0.662c-0.087 0.475-0.156 0.594-0.488 1.006zM17.74 14.125c-0.031-0.356 0.031-0.506 0.012-0.738-0.038-0.4-0.163-0.675-0.019-0.7 0.15-0.025 0.225 0.106 0.238 0.519 0.019 0.406-0.019 0.512-0.231 0.919zM19.121 14.75c-0.15-0.3-0.281-0.394-0.375-0.594-0.175-0.35-0.206-0.631-0.337-0.581-0.137 0.050-0.125 0.2 0.063 0.544 0.188 0.338 0.281 0.406 0.65 0.637zM19.596 12c-0.375-0.206-0.575-0.206-0.825-0.338-0.431-0.225-0.688-0.481-0.775-0.344-0.087 0.144 0.031 0.281 0.481 0.488 0.444 0.206 0.581 0.219 1.125 0.188zM19.74 13.15c-0.281-0.231-0.444-0.269-0.625-0.419-0.313-0.256-0.475-0.512-0.581-0.412-0.1 0.106-0.031 0.244 0.3 0.488 0.331 0.25 0.444 0.281 0.906 0.344z"></path>
</svg>
