<!-- Generated by IcoMoon.io -->
<svg version="1.1" xmlns="http://www.w3.org/2000/svg" width="43" height="32" viewBox="0 0 43 32">
<title>tc</title>
<path fill="#006" d="M42.667 32v-32h-42.667v32h42.667z"></path>
<path fill="#006" d="M0 0h24.913v15.48h-24.913z"></path>
<path fill="#fff" d="M0 0v1.733l22.127 13.747h2.787v-1.733l-22.133-13.747h-2.78zM24.913 0v1.733l-22.133 13.747h-2.78v-1.733l22.127-13.747h2.787z"></path>
<path fill="#fff" d="M10.38 0v15.48h4.153v-15.48h-4.153zM0 5.16v5.16h24.913v-5.16h-24.913z"></path>
<path fill="#c00" d="M0 6.193v3.093h24.913v-3.093h-24.913zM11.213 0v15.48h2.487v-15.48h-2.493zM0 15.48l8.307-5.16h1.853l-8.307 5.16h-1.853zM0 0l8.307 5.16h-1.86l-6.447-4.007v-1.153zM14.753 5.16l8.3-5.16h1.86l-8.313 5.16h-1.853zM24.913 15.48l-8.313-5.16h1.867l6.447 4v1.16z"></path>
<path fill="#fff" d="M40.833 14.16v5.333c0 4.373-1.713 8.373-6.813 10.807-5.087-2.433-6.813-6.433-6.813-10.813v-5.32h13.633z"></path>
<path fill="#fdc300" d="M40.38 14.707v4.96c0 4.080-1.6 7.813-6.353 10.087-4.753-2.267-6.36-6-6.36-10.087v-4.967h12.713z"></path>
<path fill="#ff9e3d" d="M31.077 16.894c-0.090-0.080-0.208-0.129-0.338-0.13h-0c0.026-0.339-0.208-0.469-0.391-0.521-0.182-0.078-0.261-0.156-0.261-0.287-0.026-0.13-0.13-0.235-0.287-0.261-0.156-0.052-0.313-0.209-0.365-0.287s-0.078-0.078-0.13 0.052-0.235 0.391-0.052 0.391c-0.13 0.104-0.208 0.208-0.13 0.365-0.078 0.078-0.13 0.182-0.026 0.209l0.156 0.104c-0.104 0-0.13 0.209 0.104 0.261-0.052 0-0.078 0.156 0.026 0.156-0.13 0-0.261 0.209-0.417 0.209-0.182 0-0.261 0.052-0.261 0.13l-0.156 0.209c0.13 0 0.208 0 0.261-0.052s0.182-0.078 0.261 0c0.078 0.052 0.261 0.078 0.313 0.052-0.156 0.13-0.261 0.261-0.287 0.417 0 0.156-0.13 0.313-0.261 0.365-0.078 0.052-0.261 0.156-0.287 0.313 0.13 0.365 0.339 0.443 0.547 0.547 0.365 0.156 0.599 0.287 0.756 0.469 0.156 0.156 0.208 0.026 0.443 0.339 0.235 0.261 0.443 0.834 0.678 0.912 0.235 0.104 0.521 0.052 0.678-0.261 0.182-0.261 0.261-3.232-0.573-3.727z"></path>
<path fill="#ff927f" d="M31.468 15.643c-0.235 0.261-0.521 0.469-0.443 0.886s0.078 1.095-0.313 1.303c-0.365 0.261-0.547 0.834-0.104 1.173 0.469 0.339 0.495 0.756 0.547 1.121 0.078 0.391 0.287 0.704 0.599 0.443 0.313 0.052 0.469-0.078 0.469-0.339s0-0.365 0.261-0.443c0.208-0.078 0.261-0.156 0.391-0.365 0.104-0.209 0.156-0.313 0.104-0.417-0.047-0.109-0.074-0.236-0.074-0.37 0-0.072 0.008-0.142 0.023-0.21l-0.001 0.006c0.052-0.182-0.052-0.261-0.104-0.391-0.042-0.071-0.066-0.156-0.066-0.247 0-0.042 0.005-0.082 0.015-0.121l-0.001 0.003c0-0.156-0.052-0.261-0.156-0.339s-0.156-0.156-0.13-0.261c0-0.13-0.078-0.209-0.208-0.313s-0.182-0.209-0.182-0.391-0.365-0.599-0.625-0.73z"></path>
<path fill="#ff9ee1" d="M31.546 20.647c0.521-0.13 0.469-0.964 0.391-1.303-0.078-0.365-0.261-0.86-0.13-1.277 0.208-0.547-0.261-1.095-0.13-1.303 0.13-0.235 0.104-0.339 0.078-0.417 0-0.052-0.13-0.104-0.13 0.026 0 0.156-0.052 0.209-0.13 0.287s-0.078 0.313 0 0.521c0.052 0.235 0.208 0.573 0 1.016-0.261 0.443-0.156 0.625-0.078 0.834 0.156 0.339 0.469 1.459 0.13 1.616z"></path>
<path fill="#00a728" d="M35.194 22.341c0.078 0.104 0 0.261 0.13 0.313 0.182 0.052 0.026 0.261 0.235 0.365 0.182 0.078 0 0.261 0.182 0.391 0.182 0.078 0 0.261 0.208 0.391 0.261 0.13-0.052 0.391 0.13 0.495s-0.052 0.365 0.156 0.469c0.182 0.104-0.104 0.287 0.104 0.443 0.182 0.13-0.052 0.365 0.13 0.495s-0.104 0.313 0.078 0.495c0.156 0.13-0.052 0.261 0.052 0.521 0.078 0.13-0.078 0.704-0.469 0.652-0.156 0.261-0.704 0.469-0.912 0.391-0.208 0.156-0.86 0.339-1.199 0.026-0.339 0.313-0.99 0.13-1.199 0-0.208 0.052-0.782-0.182-0.912-0.417-0.417 0.052-0.547-0.521-0.469-0.678 0.104-0.209-0.104-0.365 0.052-0.521 0.182-0.156-0.13-0.339 0.078-0.469s-0.052-0.365 0.13-0.521c0.208-0.13-0.104-0.339 0.104-0.417 0.208-0.104-0.026-0.365 0.156-0.469 0.156-0.104-0.104-0.365 0.13-0.495 0.235-0.104 0-0.313 0.208-0.391 0.182-0.104 0-0.313 0.182-0.391 0.208-0.078 0.052-0.313 0.235-0.365 0.156-0.078 0.052-0.209 0.13-0.339 0.443 0.182 1.772 0.313 2.345 0z"></path>
<path fill="#fdc300" d="M33.031 23.097c0 0.052 0 0.13-0.052 0.209-0.13 0.156 0.052 0.261-0.104 0.443-0.13 0.182 0.026 0.313-0.13 0.469s0.026 0.313-0.13 0.469c-0.156 0.182 0.026 0.313-0.13 0.469s0.026 0.339-0.13 0.495c-0.156 0.156 0.026 0.365-0.13 0.521-0.182 0.209 0 0.365-0.13 0.521-0.13 0.13 0 0.261-0.104 0.365 0.156-0.13 0.156-0.339 0.287-0.417 0.13-0.104-0.026-0.261 0.052-0.339s0-0.365 0.13-0.521 0-0.443 0.13-0.521 0.026-0.417 0.182-0.521 0-0.339 0.104-0.469c0.13-0.13 0-0.339 0.13-0.521 0.104-0.13 0-0.287 0.078-0.417 0.052-0.052 0.052-0.469-0.052-0.261zM33.448 23.279c-0.104 0.182 0.078 0.235-0.052 0.417s0.078 0.339-0.078 0.521 0.078 0.287-0.052 0.469c-0.13 0.209 0.052 0.313-0.052 0.443-0.13 0.156 0.078 0.287-0.052 0.469-0.156 0.182 0.052 0.313-0.078 0.469-0.104 0.156 0.052 0.339-0.052 0.469s0.078 0.313-0.078 0.495 0.026 0.261-0.052 0.391c0.182-0.052 0.104-0.287 0.182-0.339 0.052-0.052-0.026-0.391 0.078-0.469 0.104-0.104-0.078-0.365 0-0.469 0.182-0.209 0.052-0.339 0.13-0.495 0.104-0.156-0.026-0.339 0.052-0.443 0.13-0.182-0.052-0.339 0.026-0.469 0.13-0.182 0-0.313 0.078-0.443 0.13-0.182 0-0.365 0.026-0.469 0.078-0.078 0.156-0.495 0-0.547zM34.022 23.436c-0.104 0.261 0.078 0.339 0 0.547-0.052 0.209 0.078 0.365 0 0.573-0.078 0.235 0.104 0.391 0 0.678s0.078 0.365 0 0.652c-0.078 0.313 0.13 0.495 0 0.73-0.156 0.235 0.156 0.313 0 0.547-0.052 0.13 0 0.417 0.13 0.052 0.13-0.339-0.078-0.391 0-0.521 0.13-0.156 0-0.521 0.026-0.756 0.052-0.182-0.104-0.469 0-0.678 0.078-0.235-0.156-0.469-0.052-0.652 0.078-0.182-0.052-0.417 0.052-0.573 0.078-0.156-0.078-0.365-0.052-0.443 0.052-0.078-0.026-0.417-0.104-0.156z"></path>
<path fill="#ef072d" d="M35.116 22.497c0-1.642-0.261-2.215-1.095-2.215-0.86 0-1.095 0.573-1.095 2.215h2.189z"></path>
<path fill="#000" d="M32.927 22.497c0-1.642 0.261-2.215 1.095-2.215-0.391 0-0.625 0.313-0.704 0.521s-0.026 0.182 0.052 0.104 0.052 0.104 0 0.182c-0.078 0.104-0.156 0.365-0.052 0.261 0.104-0.052 0.182 0.026 0.052 0.182s-0.182 0.521-0.078 0.391c0.104-0.13 0.13 0.078 0.052 0.182-0.052 0.104-0.052 0.182 0 0.156 0.078-0.052 0.052 0.156 0 0.261h-0.417zM34.934 22.419c0-1.303-0.156-1.694-0.469-1.824-0.182-0.078-0.182-0.052-0.104 0.078s0.078 0.261 0 0.156-0.104-0.13-0.156-0.078l0.208 0.521c0.078 0.156 0 0.261-0.104 0.078s-0.104-0.026 0 0.13c0.13 0.182 0.104 0.756 0.104 0.99l0.521-0.052z"></path>
<path fill="#ef072d" d="M34.022 22.732c0.339 0 0.704-0.052 0.964-0.156 0.287-0.104 0.313-0.209 0.208-0.339-0.078-0.104-0.235-0.052-0.391 0.026-0.234 0.068-0.504 0.107-0.782 0.107s-0.547-0.039-0.802-0.112l0.021 0.005c-0.156-0.052-0.313-0.13-0.391-0.026-0.104 0.13-0.104 0.235 0.208 0.339 0.261 0.104 0.625 0.156 0.964 0.156z"></path>
<path fill="#b95a1e" stroke="#000" stroke-linejoin="miter" stroke-linecap="butt" stroke-miterlimit="4" stroke-width="0.4267" d="M37.329 20.569l0.388 0.668c0.164 0.282 0.297 0.346 0.416 0.262s0.018-0.313-0.077-0.422c-0.095-0.109-0.619-0.62-0.619-0.62l-0.108 0.112z"></path>
<path fill="#b95a1e" stroke="#000" stroke-linejoin="miter" stroke-linecap="butt" stroke-miterlimit="4" stroke-width="0.4267" d="M37.277 20.594l0.154 0.766c0.066 0.323 0.171 0.431 0.309 0.394s0.116-0.289 0.061-0.425c-0.055-0.136-0.387-0.802-0.387-0.802l-0.137 0.067z"></path>
<path fill="#b95a1e" stroke="#000" stroke-linejoin="miter" stroke-linecap="butt" stroke-miterlimit="4" stroke-width="0.4267" d="M37.183 20.608v0.783c0 0.331 0.082 0.459 0.225 0.453s0.17-0.257 0.143-0.402c-0.027-0.146-0.22-0.87-0.22-0.87l-0.148 0.036z"></path>
<path fill="#b95a1e" stroke="#000" stroke-linejoin="miter" stroke-linecap="butt" stroke-miterlimit="4" stroke-width="0.54" d="M37.184 20.601c0.41-0.006 0.456-0.155 0.456-0.155s0.091-0.31 0.045-0.387c-0.045-0.077-0.501-0.077-0.501-0.077v0.619z"></path>
<path fill="#b95a1e" stroke="#000" stroke-linejoin="miter" stroke-linecap="butt" stroke-miterlimit="4" stroke-width="0.4267" d="M37.184 20.295c0.441 0 0.514-0.155 0.514-0.155s0.147-0.31 0.074-0.387c-0.073-0.077-0.588-0.077-0.588-0.077v0.619z"></path>
<path fill="#b95a1e" stroke="#000" stroke-linejoin="miter" stroke-linecap="butt" stroke-miterlimit="4" stroke-width="0.4267" d="M37.184 19.981c0.367 0 0.588-0.155 0.588-0.155s0.147-0.31 0.073-0.387c-0.073-0.077-0.661-0.077-0.661-0.077v0.619z"></path>
<path fill="#b95a1e" stroke="#000" stroke-linejoin="miter" stroke-linecap="butt" stroke-miterlimit="4" stroke-width="0.38" d="M37.429 17.129s0.364-0.387 1.002-0.774c0.638-0.387 1.099-0.685 1.184-0.619 0 0.077-0.547 0.465-1.003 0.774-0.455 0.309-1.002 0.774-1.002 0.774l-0.182-0.155z"></path>
<path fill="#b95a1e" stroke="#000" stroke-linejoin="miter" stroke-linecap="butt" stroke-miterlimit="4" stroke-width="0.38" d="M37.476 17.436s0.36-0.227 1.051-0.542c0.68-0.28 1.64-0.232 1.64-0.155-0.092 0.078-0.911 0.078-1.458 0.31-0.522 0.222-1.052 0.542-1.052 0.542l-0.182-0.155z"></path>
<path fill="#b95a1e" stroke="#000" stroke-linejoin="miter" stroke-linecap="butt" stroke-miterlimit="4" stroke-width="0.38" d="M37.482 17.969s0.317-0.153 1.051-0.387c0.729-0.232 1.696-0.077 1.696 0-0.091 0.077-0.876 0.031-1.423 0.155-0.566 0.122-1.142 0.387-1.142 0.387l-0.183-0.155z"></path>
<path fill="#b95a1e" stroke="#000" stroke-linejoin="miter" stroke-linecap="butt" stroke-miterlimit="4" stroke-width="0.38" d="M37.509 18.516s0.365-0.31 1.144-0.387c0.783-0.077 1.421 0.387 1.421 0.465-0.091 0.077-0.82-0.341-1.366-0.281-0.579 0.060-1.016 0.358-1.016 0.358l-0.183-0.155z"></path>
<path fill="#b95a1e" stroke="#000" stroke-linejoin="miter" stroke-linecap="butt" stroke-miterlimit="4" stroke-width="0.4267" d="M37.184 19.595c0.661-0.006 0.661-0.199 0.661-0.199s0.147-0.309 0.073-0.387c-0.073-0.077-0.734-0.033-0.734-0.033v0.619z"></path>
<path fill="#b95a1e" stroke="#000" stroke-linejoin="miter" stroke-linecap="butt" stroke-miterlimit="4" stroke-width="0.4267" d="M37.184 19.288c0.661-0.006 0.734-0.155 0.734-0.155s0.147-0.31 0.073-0.387c-0.073-0.077-0.808-0.077-0.808-0.077v0.619z"></path>
<path fill="#b95a1e" stroke="#000" stroke-linejoin="miter" stroke-linecap="butt" stroke-miterlimit="4" stroke-width="0.4267" d="M37.184 18.901c0.661-0.006 0.808-0.155 0.808-0.155s0.146-0.31 0.073-0.387c-0.073-0.077-0.881-0.077-0.881-0.077v0.619z"></path>
<path fill="#b95a1e" stroke="#000" stroke-linejoin="miter" stroke-linecap="butt" stroke-miterlimit="4" stroke-width="0.4267" d="M37.184 18.515c0.661-0.006 0.881-0.155 0.881-0.155s0.073-0.31 0-0.387c-0.073-0.077-0.881-0.077-0.881-0.077v0.619z"></path>
<path fill="#b95a1e" stroke="#000" stroke-linejoin="miter" stroke-linecap="butt" stroke-miterlimit="4" stroke-width="0.38" d="M37.329 16.809s0.587-0.387 0.587-0.697c0-0.309-0.259-0.619-0.332-0.774 0.147 0 0.479 0.465 0.479 0.774 0 0.339-0.552 0.852-0.552 0.852l-0.182-0.155z"></path>
<path fill="#b95a1e" stroke="#000" stroke-linejoin="miter" stroke-linecap="butt" stroke-miterlimit="4" stroke-width="0.38" d="M37.329 16.809s-0.074-0.232-0.074-0.697c0.001-0.386 0.168-0.738 0.443-1.008l-0.002 0.002c0.030 0.12-0.294 0.542-0.294 1.007 0 0.339 0.108 0.852 0.108 0.852l-0.182-0.155z"></path>
<path fill="#b95a1e" stroke="#000" stroke-linejoin="miter" stroke-linecap="butt" stroke-miterlimit="4" stroke-width="0.4267" d="M37.184 18.128c0.661-0.006 0.881-0.155 0.881-0.155s0-0.31-0.073-0.387c-0.073-0.077-0.808-0.077-0.808-0.077v0.619z"></path>
<path fill="#b95a1e" stroke="#000" stroke-linejoin="miter" stroke-linecap="butt" stroke-miterlimit="4" stroke-width="0.4267" d="M37.184 17.735c0.661-0.006 0.808-0.155 0.808-0.155s0-0.31-0.074-0.387c-0.073-0.077-0.734-0.077-0.734-0.077v0.619z"></path>
<path fill="#b95a1e" stroke="#fdc301" stroke-linejoin="miter" stroke-linecap="butt" stroke-miterlimit="4" stroke-width="1.0733" d="M39.092 22.38c-0.228-0.534-0.294-1.471-0.294-1.626 0-0.436 0.137-2.557 0.147-3.407s-0.514-1.316-1.028-1.316c-0.441 0-0.734 0.31-0.734 0.774h0.22c-0-0.004-0-0.009-0-0.013 0-0.292 0.224-0.529 0.501-0.529 0.004 0 0.009 0 0.013 0h-0.001c0.441 0 0.779 0.366 0.808 1.084 0.031 0.83-0.089 2.985-0.074 3.562s0.212 1.091 0.441 1.471z"></path>
<path fill="#b95a1e" stroke="#000" stroke-linejoin="miter" stroke-linecap="butt" stroke-miterlimit="4" stroke-width="0.4267" d="M37.038 20.569l-0.388 0.668c-0.164 0.282-0.297 0.346-0.416 0.262s-0.018-0.313 0.077-0.422c0.095-0.109 0.619-0.62 0.619-0.62l0.108 0.112z"></path>
<path fill="#b95a1e" stroke="#000" stroke-linejoin="miter" stroke-linecap="butt" stroke-miterlimit="4" stroke-width="0.4267" d="M37.184 16.764c0.515 0 0.737 0.448 0.736 0.438l-0.148 0.146c-0.079 0.078-0.588 0.078-0.581 0.077l-0.007-0.661z"></path>
<path fill="#b95a1e" stroke="#000" stroke-linejoin="miter" stroke-linecap="butt" stroke-miterlimit="4" stroke-width="0.4267" d="M37.089 20.594l-0.154 0.766c-0.066 0.323-0.171 0.431-0.309 0.394s-0.116-0.289-0.061-0.425c0.055-0.136 0.387-0.802 0.387-0.802l0.137 0.067z"></path>
<path fill="#b95a1e" stroke="#000" stroke-linejoin="miter" stroke-linecap="butt" stroke-miterlimit="4" stroke-width="0.4267" d="M37.184 20.608v0.783c-0 0.331-0.082 0.459-0.225 0.453s-0.17-0.257-0.143-0.402c0.027-0.146 0.22-0.87 0.22-0.87l0.148 0.036z"></path>
<path fill="#b95a1e" stroke="#000" stroke-linejoin="miter" stroke-linecap="butt" stroke-miterlimit="4" stroke-width="0.54" d="M37.182 20.601c-0.41-0.006-0.456-0.155-0.456-0.155s-0.091-0.31-0.045-0.387c0.045-0.077 0.501-0.077 0.501-0.077v0.619z"></path>
<path fill="#b95a1e" stroke="#000" stroke-linejoin="miter" stroke-linecap="butt" stroke-miterlimit="4" stroke-width="0.4267" d="M37.183 20.295c-0.441 0-0.514-0.155-0.514-0.155s-0.147-0.31-0.074-0.387c0.073-0.077 0.588-0.077 0.588-0.077v0.619z"></path>
<path fill="#b95a1e" stroke="#000" stroke-linejoin="miter" stroke-linecap="butt" stroke-miterlimit="4" stroke-width="0.4267" d="M37.183 19.981c-0.367 0-0.588-0.155-0.588-0.155s-0.147-0.31-0.073-0.387c0.073-0.077 0.661-0.077 0.661-0.077v0.619z"></path>
<path fill="#b95a1e" stroke="#000" stroke-linejoin="miter" stroke-linecap="butt" stroke-miterlimit="4" stroke-width="0.38" d="M36.938 17.129s-0.364-0.387-1.002-0.774c-0.638-0.387-1.099-0.685-1.184-0.619 0 0.077 0.547 0.465 1.003 0.774 0.455 0.309 1.002 0.774 1.002 0.774l0.182-0.155z"></path>
<path fill="#b95a1e" stroke="#000" stroke-linejoin="miter" stroke-linecap="butt" stroke-miterlimit="4" stroke-width="0.38" d="M36.891 17.436s-0.36-0.227-1.051-0.542c-0.68-0.28-1.64-0.232-1.64-0.155 0.092 0.078 0.911 0.078 1.458 0.31 0.522 0.222 1.052 0.542 1.052 0.542l0.182-0.155z"></path>
<path fill="#b95a1e" stroke="#000" stroke-linejoin="miter" stroke-linecap="butt" stroke-miterlimit="4" stroke-width="0.38" d="M36.891 17.969s-0.317-0.153-1.051-0.387c-0.729-0.232-1.696-0.077-1.696 0 0.091 0.077 0.876 0.031 1.423 0.155 0.566 0.122 1.142 0.387 1.142 0.387l0.183-0.155z"></path>
<path fill="#b95a1e" stroke="#000" stroke-linejoin="miter" stroke-linecap="butt" stroke-miterlimit="4" stroke-width="0.38" d="M36.851 18.516s-0.365-0.31-1.144-0.387c-0.783-0.077-1.421 0.387-1.421 0.465 0.091 0.077 0.82-0.341 1.366-0.281 0.579 0.060 1.016 0.358 1.016 0.358l0.183-0.155z"></path>
<path fill="#b95a1e" stroke="#000" stroke-linejoin="miter" stroke-linecap="butt" stroke-miterlimit="4" stroke-width="0.4267" d="M37.183 19.595c-0.661-0.006-0.661-0.199-0.661-0.199s-0.147-0.309-0.073-0.387c0.073-0.077 0.734-0.033 0.734-0.033v0.619z"></path>
<path fill="#b95a1e" stroke="#000" stroke-linejoin="miter" stroke-linecap="butt" stroke-miterlimit="4" stroke-width="0.4267" d="M37.183 19.288c-0.661-0.006-0.734-0.155-0.734-0.155s-0.147-0.31-0.073-0.387c0.073-0.077 0.808-0.077 0.808-0.077v0.619z"></path>
<path fill="#b95a1e" stroke="#000" stroke-linejoin="miter" stroke-linecap="butt" stroke-miterlimit="4" stroke-width="0.4267" d="M37.183 18.901c-0.661-0.006-0.808-0.155-0.808-0.155s-0.146-0.31-0.073-0.387c0.073-0.077 0.881-0.077 0.881-0.077v0.619z"></path>
<path fill="#b95a1e" stroke="#000" stroke-linejoin="miter" stroke-linecap="butt" stroke-miterlimit="4" stroke-width="0.4267" d="M37.183 18.515c-0.661-0.006-0.881-0.155-0.881-0.155s-0.073-0.31 0-0.387c0.073-0.077 0.881-0.077 0.881-0.077v0.619z"></path>
<path fill="#b95a1e" stroke="#000" stroke-linejoin="miter" stroke-linecap="butt" stroke-miterlimit="4" stroke-width="0.38" d="M37.038 16.809s-0.587-0.387-0.587-0.697c0-0.309 0.259-0.619 0.332-0.774-0.147 0-0.479 0.465-0.479 0.774 0 0.339 0.552 0.852 0.552 0.852l0.182-0.155z"></path>
<path fill="#b95a1e" stroke="#000" stroke-linejoin="miter" stroke-linecap="butt" stroke-miterlimit="4" stroke-width="0.38" d="M37.038 16.809s0.074-0.232 0.074-0.697c-0.001-0.386-0.168-0.738-0.443-1.008l0.002 0.002c-0.030 0.12 0.294 0.542 0.294 1.007 0 0.339-0.108 0.852-0.108 0.852l0.182-0.155z"></path>
<path fill="#b95a1e" stroke="#000" stroke-linejoin="miter" stroke-linecap="butt" stroke-miterlimit="4" stroke-width="0.4267" d="M37.183 18.128c-0.661-0.006-0.881-0.155-0.881-0.155s0-0.31 0.073-0.387c0.073-0.077 0.808-0.077 0.808-0.077v0.619z"></path>
<path fill="#b95a1e" stroke="#000" stroke-linejoin="miter" stroke-linecap="butt" stroke-miterlimit="4" stroke-width="0.4267" d="M37.183 17.735c-0.661-0.006-0.808-0.155-0.808-0.155s0-0.31 0.074-0.387c0.073-0.077 0.734-0.077 0.734-0.077v0.619z"></path>
<path fill="#b95a1e" stroke="#fdc301" stroke-linejoin="miter" stroke-linecap="butt" stroke-miterlimit="4" stroke-width="1.0733" d="M35.275 22.38c0.228-0.534 0.294-1.471 0.294-1.626 0-0.436-0.137-2.557-0.147-3.407s0.514-1.316 1.028-1.316c0.441 0 0.734 0.31 0.734 0.774h-0.22c0-0.004 0-0.009 0-0.013 0-0.292-0.224-0.529-0.501-0.529-0.004 0-0.009 0-0.013 0h0.001c-0.441 0-0.779 0.366-0.808 1.084-0.031 0.83 0.089 2.985 0.074 3.562s-0.212 1.091-0.441 1.471z"></path>
<path fill="#b95a1e" stroke="#000" stroke-linejoin="miter" stroke-linecap="butt" stroke-miterlimit="4" stroke-width="0.4267" d="M37.183 16.764c-0.515 0-0.737 0.448-0.736 0.438l0.148 0.146c0.079 0.078 0.588 0.078 0.581 0.077l0.007-0.661z"></path>
</svg>
