<!-- Generated by IcoMoon.io -->
<svg version="1.1" xmlns="http://www.w3.org/2000/svg" width="43" height="32" viewBox="0 0 43 32">
<title>tf</title>
<path fill="#002395" d="M0 0h42.667v32h-42.667z"></path>
<path fill="#fff" d="M0 0h19.52v13.12h-19.52z"></path>
<path fill="#002395" d="M0 0h6.4v12.8h-6.4z"></path>
<path fill="#ed2939" d="M12.8 0h6.4v12.8h-6.4z"></path>
<path fill="#fff" d="M28.4 14.64l1.027 1.64h2.933v5.72l-2.2-3.44-2.96 4.72h1.44l1.52-2.72 3.12 5.6 3.12-5.6 1.52 2.72h1.44l-2.96-4.72-2.2 3.44v-3.16h1.32l0.98-1.56h-2.3v-1h2.933l1.027-1.64h-9.76zM31.84 21.64h-3.2v1.12h3.2zM37.92 21.64h-3.2v1.12h3.2z"></path>
<path fill="#000" d="M27.733 22.453l0.984 3.040-2.584-1.88h3.2l-2.584 1.88z"></path>
<path fill="#000" d="M24.733 20.187l0.984 3.040-2.584-1.88h3.2l-2.584 1.88z"></path>
<path fill="#000" d="M30.733 20.187l0.984 3.040-2.584-1.88h3.2l-2.584 1.88z"></path>
<path fill="#000" d="M22.2 13.453l0.984 3.040-2.584-1.88h3.2l-2.584 1.88z"></path>
<path fill="#000" d="M33.267 13.453l0.984 3.040-2.584-1.88h3.2l-2.584 1.88z"></path>
</svg>
