<!-- Generated by IcoMoon.io -->
<svg version="1.1" xmlns="http://www.w3.org/2000/svg" width="43" height="32" viewBox="0 0 43 32">
<title>tg</title>
<path fill="#ffe300" d="M0 0h47.975v32h-47.975z"></path>
<path fill="#118600" d="M0 13.006h47.975v6.431h-47.975zM0 0.013h47.975v6.431h-47.975z"></path>
<path fill="#d80000" d="M0 0.019h19.156v19.413h-19.156z"></path>
<path fill="#fff" d="M8.4 8.025c0-0.050 1.181-3.313 1.181-3.313l1.063 3.263s3.588 0.106 3.588 0.050-2.831 2.144-2.831 2.144 1.338 3.75 1.281 3.637c-0.050-0.106-3.1-2.25-3.1-2.25s-3.106 2.144-3.050 2.144c0.050 0 1.175-3.531 1.175-3.531l-2.781-2.088 3.475-0.056z"></path>
<path fill="#118600" d="M0 25.575h47.975v6.425h-47.975z"></path>
</svg>
