<!-- Generated by IcoMoon.io -->
<svg version="1.1" xmlns="http://www.w3.org/2000/svg" width="43" height="32" viewBox="0 0 43 32">
<title>tj</title>
<path fill="#060" d="M0 0h42.667v32h-42.667z"></path>
<path fill="#fff" d="M0 0h42.667v22.86h-42.667z"></path>
<path fill="#c00" d="M0 0h42.667v9.14h-42.667z"></path>
<path fill="#f8c300" d="M20.053 15.573c0.102-0.17 0.285-0.282 0.494-0.282 0.308 0 0.559 0.243 0.573 0.548l0 0.001v2.293h0.427v-2.287c0.014-0.306 0.265-0.549 0.573-0.549 0.209 0 0.392 0.112 0.492 0.28l0.001 0.003c0.042-0.125 0.067-0.269 0.067-0.418 0-0.744-0.603-1.347-1.347-1.347s-1.347 0.603-1.347 1.347c0 0.15 0.024 0.293 0.069 0.428l-0.003-0.009z"></path>
<path fill="#fff" d="M20.36 14.98c0.056-0.012 0.119-0.019 0.185-0.019 0.334 0 0.627 0.18 0.786 0.448l0.002 0.004c0.161-0.272 0.454-0.452 0.788-0.452 0.065 0 0.129 0.007 0.191 0.020l-0.006-0.001c-0.059-0.49-0.472-0.866-0.973-0.866s-0.914 0.376-0.973 0.861l-0 0.005z"></path>
<path fill="#f8c300" d="M21.12 17.22c-0.080 0.89-0.823 1.583-1.727 1.583-0.463 0-0.883-0.181-1.194-0.477l0.001 0.001c-0.27 0.675-0.918 1.143-1.676 1.143-0.397 0-0.765-0.129-1.062-0.347l0.005 0.004c0.167 1.667 2.667 1.327 2.853-0.293 0.78 1.38 2.507 0.98 3.013-0.707z"></path>
<path fill="#f8c300" d="M21.547 17.22c0.080 0.89 0.823 1.583 1.727 1.583 0.463 0 0.883-0.181 1.194-0.477l-0.001 0.001c0.27 0.675 0.918 1.143 1.676 1.143 0.397 0 0.765-0.129 1.062-0.347l-0.005 0.004c-0.167 1.667-2.667 1.327-2.853-0.293-0.78 1.38-2.507 0.98-3.013-0.707z"></path>
<path fill="#f8c300" d="M19.453 20.173c-0.353 0.753-1.047 0.88-1.653 0.273 0 0 0.24-0.173 0.507-0.22-0.053-0.207 0.047-0.5 0.193-0.653 0.192 0.127 0.335 0.314 0.405 0.533l0.002 0.007c0.367-0.047 0.547 0.067 0.547 0.067z"></path>
<path fill="#f8c300" d="M22.187 20.089c-0.472 0.686-1.176 0.697-1.676-0 0 0 0.265-0.132 0.536-0.134-0.019-0.213 0.128-0.486 0.297-0.613 0.168 0.157 0.279 0.364 0.312 0.592l0.001 0.007c0.369 0.014 0.528 0.155 0.528 0.155z"></path>
<path fill="#f8c300" d="M24.868 20.446c-0.576 0.6-1.274 0.498-1.654-0.271 0 0 0.283-0.087 0.55-0.046 0.016-0.213 0.204-0.459 0.393-0.557 0.141 0.182 0.217 0.404 0.212 0.635l-0 0.007c0.362 0.073 0.496 0.238 0.496 0.238z"></path>
<path fill="none" stroke="#f8c300" stroke-linejoin="miter" stroke-linecap="butt" stroke-miterlimit="4" stroke-width="0.7333" d="M16.9 21.853c1.327-0.41 2.853-0.646 4.433-0.646s3.106 0.236 4.543 0.675l-0.11-0.029"></path>
<path fill="#f8c300" d="M22.023 11.923l-1.807-1.313h2.233l-1.807 1.313 0.69-2.124z"></path>
<path fill="#f8c300" d="M18.823 12.783l-1.807-1.313h2.233l-1.807 1.313 0.69-2.124z"></path>
<path fill="#f8c300" d="M16.483 15.123l-1.807-1.313h2.233l-1.807 1.313 0.69-2.124z"></path>
<path fill="#f8c300" d="M15.623 18.323l-1.807-1.313h2.233l-1.807 1.313 0.69-2.124z"></path>
</svg>
