<!-- Generated by IcoMoon.io -->
<svg version="1.1" xmlns="http://www.w3.org/2000/svg" width="43" height="32" viewBox="0 0 43 32">
<title>tk</title>
<path fill="#00247d" d="M0 0h42.667v32h-42.667z"></path>
<path fill="#fed100" d="M7.207 23.64c-0.447-0.007 4.187-2.467 8.060-5.627 5.080-4.14 16.020-10.76 19.24-11.84 0.333-0.113-0.687 0.573-0.82 0.793-3.433 4.067-0.693 11.733 3.6 15.593 1.293 0.987 1.227 1.040 3.62 1.133v0.227l-33.7-0.28zM6.927 24.087s-0.327 0.233-0.327 0.407c0 0.193 0.367 0.447 0.367 0.447l33.233 0.367 0.613-0.407-0.853-0.527-33.033-0.287z"></path>
<path fill="#fff" d="M7.12 7.273l-0.267 0.813 0.693-0.5 0.687 0.5-0.26-0.813 0.687-0.5h-0.853l-0.26-0.813-0.267 0.813h-0.853zM12.327 11.1l0.573-0.42h-0.713l-0.22-0.673-0.22 0.673h-0.707l0.573 0.42-0.22 0.673 0.573-0.42 0.58 0.42zM2.647 11.967l-0.267-0.813-0.26 0.813h-0.853l0.687 0.5-0.26 0.813 0.687-0.5 0.693 0.5-0.267-0.813 0.693-0.5zM7.853 20.12l-0.307-0.947-0.307 0.947h-1l0.807 0.58-0.307 0.953 0.807-0.587 0.807 0.587-0.313-0.953 0.807-0.58z"></path>
</svg>
