<!-- Generated by IcoMoon.io -->
<svg version="1.1" xmlns="http://www.w3.org/2000/svg" width="43" height="32" viewBox="0 0 43 32">
<title>tm</title>
<path fill="#00843d" d="M-2.667 0h48v32h-48z"></path>
<path fill="#fff" d="M13.79 8.594c1.744 0.838 3.819 0 4.569-1.162 0.775-1.088 0.869-2.906-0.462-4.575 2.063 1.712 2.525 3.656 1.494 5.256-1.375 1.831-4.412 1.775-5.6 0.481z"></path>
<path fill="#fff" d="M16.883 4.338l0.35 0.006-0.275 0.219 0.106 0.35-0.294-0.206-0.281 0.206 0.094-0.344-0.281-0.219 0.35-0.006 0.119-0.344zM15.152 6.513h0.35l-0.275 0.225 0.106 0.344-0.294-0.206-0.287 0.213 0.1-0.35-0.281-0.213 0.35-0.013 0.113-0.344zM15.265 4.8h0.356l-0.281 0.225 0.106 0.344-0.287-0.206-0.287 0.213 0.1-0.35-0.281-0.219 0.35-0.006 0.113-0.344zM15.265 3.081h0.356l-0.287 0.231 0.106 0.344-0.287-0.2-0.287 0.206 0.1-0.344-0.281-0.219 0.35-0.006 0.113-0.344zM13.346 5.256h0.35l-0.281 0.225 0.106 0.344-0.287-0.206-0.287 0.213 0.1-0.35-0.281-0.213 0.35-0.013 0.113-0.344z"></path>
<path fill="#ca3745" d="M0.302 0h10.287v32h-10.287z"></path>
<path fill="#faae29" d="M0.302 8.344v-0.231l0.425-0.569-0.081-0.119 0.25-0.338-0.081-0.119-0.169 0.231-0.088-0.112 0.6-0.8 0.087 0.112-0.087 0.112 0.175 0.237 0.425-0.575-0.431-0.556-0.169 0.213 0.087 0.119-0.087 0.112-0.6-0.8 0.088-0.112 0.169 0.225 0.088-0.112-0.256-0.344 0.081-0.112-0.425-0.575v-0.231l0.6 0.8-0.088 0.112 0.256 0.344-0.169 0.231 0.169 0.225 0.262-0.338 0.606 0.813-0.606 0.787-0.25-0.344-0.175 0.231 0.169 0.231-0.25 0.338 0.081 0.119-0.6 0.8z"></path>
<path fill="#faae29" d="M0.302 5.487l0.087 0.225v0.35h0.256l0.175 0.112-0.175 0.119h-0.25v0.338l-0.088 0.231v-1.375z"></path>
<path fill="#faae29" d="M0.302 13.831v-0.231l0.425-0.569-0.081-0.119 0.25-0.344-0.081-0.113-0.169 0.231-0.088-0.119 0.6-0.8 0.087 0.119-0.087 0.113 0.175 0.231 0.425-0.575-0.431-0.556-0.169 0.213 0.087 0.119-0.087 0.113-0.6-0.8 0.088-0.119 0.169 0.225 0.088-0.113-0.256-0.344 0.081-0.113-0.425-0.575v-0.225l0.6 0.8-0.088 0.113 0.256 0.344-0.169 0.225 0.169 0.231 0.256-0.344 0.606 0.813-0.606 0.787-0.25-0.344-0.175 0.231 0.169 0.225-0.25 0.344 0.081 0.119-0.6 0.8z"></path>
<path fill="#faae29" d="M0.302 10.969l0.087 0.231v0.344h0.256l0.175 0.113-0.175 0.113h-0.25v0.344l-0.088 0.231v-1.375z"></path>
<path fill="#faae29" d="M0.302 19.313v-0.225l0.425-0.575-0.081-0.113 0.25-0.344-0.081-0.113-0.169 0.225-0.088-0.113 0.6-0.8 0.087 0.113-0.087 0.119 0.175 0.231 0.425-0.575-0.431-0.563-0.169 0.219 0.087 0.113-0.087 0.113-0.6-0.8 0.088-0.113 0.169 0.231 0.088-0.119-0.256-0.338 0.081-0.119-0.425-0.569v-0.231l0.6 0.8-0.088 0.119 0.256 0.337-0.169 0.231 0.169 0.231 0.262-0.344 0.6 0.813-0.606 0.788-0.25-0.344-0.175 0.225 0.169 0.231-0.25 0.344 0.081 0.113-0.6 0.8z"></path>
<path fill="#faae29" d="M0.302 16.456l0.094 0.231v0.344h0.25l0.175 0.113-0.175 0.106h-0.25v0.344l-0.088 0.231v-1.375z"></path>
<path fill="#faae29" d="M0.302 24.456v-0.231l0.425-0.569-0.081-0.113 0.25-0.344-0.081-0.113-0.169 0.225-0.088-0.113 0.6-0.8 0.087 0.113-0.087 0.113 0.175 0.231 0.425-0.569-0.431-0.563-0.169 0.219 0.087 0.113-0.087 0.113-0.6-0.8 0.088-0.113 0.169 0.231 0.088-0.119-0.256-0.344 0.081-0.113-0.425-0.569v-0.231l0.6 0.8-0.088 0.113 0.256 0.344-0.169 0.231 0.169 0.225 0.262-0.337 0.6 0.813-0.606 0.788-0.25-0.344-0.175 0.225 0.169 0.231-0.25 0.344 0.081 0.113-0.6 0.8z"></path>
<path fill="#faae29" d="M0.302 21.6l0.087 0.225v0.344h0.256l0.175 0.119-0.175 0.113h-0.25v0.344l-0.088 0.225v-1.375z"></path>
<path fill="#faae29" d="M10.59 8.344v-0.231l-0.425-0.569 0.088-0.119-0.256-0.338 0.081-0.119 0.175 0.231 0.088-0.112-0.6-0.8-0.088 0.112 0.088 0.112-0.181 0.231-0.419-0.575 0.425-0.556 0.175 0.213-0.088 0.119 0.081 0.112 0.6-0.8-0.081-0.112-0.175 0.225-0.081-0.112 0.25-0.344-0.081-0.112 0.425-0.575v-0.225l-0.594 0.8 0.081 0.112-0.25 0.344 0.169 0.231-0.175 0.225-0.256-0.344-0.606 0.813 0.606 0.787 0.256-0.344 0.175 0.231-0.175 0.231 0.256 0.338-0.081 0.119 0.594 0.8z"></path>
<path fill="#faae29" d="M10.59 5.487l-0.088 0.225v0.35h-0.25l-0.175 0.112 0.169 0.119h0.256v0.338l0.088 0.231v-1.375z"></path>
<path fill="#faae29" d="M10.621 13.831v-0.231l-0.425-0.569 0.081-0.119-0.25-0.344 0.081-0.113 0.169 0.231 0.088-0.119-0.6-0.8-0.088 0.119 0.088 0.113-0.175 0.231-0.425-0.575 0.431-0.556 0.169 0.213-0.088 0.113 0.088 0.119 0.6-0.8-0.088-0.119-0.169 0.231-0.088-0.113 0.256-0.344-0.081-0.113 0.425-0.575v-0.225l-0.6 0.8 0.088 0.113-0.256 0.344 0.169 0.225-0.169 0.231-0.256-0.344-0.606 0.813 0.606 0.787 0.25-0.344 0.175 0.231-0.169 0.225 0.25 0.344-0.081 0.113 0.6 0.8z"></path>
<path fill="#faae29" d="M10.621 10.969l-0.088 0.231v0.344h-0.262l-0.175 0.113 0.175 0.113h0.25v0.344l0.094 0.231v-1.375z"></path>
<path fill="#faae29" d="M10.59 19.313v-0.225l-0.425-0.575 0.088-0.113-0.256-0.344 0.081-0.113 0.175 0.225 0.088-0.113-0.6-0.8-0.088 0.113 0.088 0.119-0.181 0.231-0.419-0.575 0.425-0.563 0.175 0.219-0.088 0.113 0.081 0.113 0.6-0.8-0.081-0.113-0.175 0.231-0.081-0.119 0.25-0.338-0.081-0.119 0.425-0.569v-0.231l-0.594 0.8 0.081 0.119-0.25 0.337 0.169 0.231-0.175 0.231-0.256-0.344-0.606 0.813 0.606 0.788 0.256-0.344 0.175 0.225-0.175 0.231 0.256 0.344-0.081 0.113 0.588 0.8z"></path>
<path fill="#faae29" d="M10.59 16.456l-0.088 0.231v0.344h-0.25l-0.175 0.113 0.169 0.113h0.256v0.344l0.088 0.231v-1.375z"></path>
<path fill="#faae29" d="M10.59 24.456v-0.231l-0.425-0.569 0.088-0.113-0.256-0.344 0.081-0.113 0.175 0.225 0.088-0.113-0.6-0.8-0.088 0.113 0.088 0.113-0.181 0.231-0.419-0.569 0.425-0.563 0.175 0.219-0.088 0.113 0.081 0.113 0.6-0.794-0.081-0.113-0.175 0.231-0.081-0.119 0.25-0.344-0.081-0.113 0.425-0.569v-0.231l-0.594 0.8 0.081 0.113-0.25 0.344 0.169 0.231-0.175 0.225-0.256-0.337-0.606 0.813 0.606 0.788 0.256-0.344 0.175 0.225-0.175 0.231 0.256 0.344-0.081 0.113 0.594 0.8z"></path>
<path fill="#faae29" d="M10.59 21.6l-0.088 0.225v0.344h-0.25l-0.175 0.119 0.169 0.113h0.256v0.344l0.088 0.225v-1.375z"></path>
<path fill="#faae29" d="M0.302 2.169v-0.225l0.425-0.575-0.081-0.113 0.25-0.344-0.081-0.113-0.169 0.231-0.088-0.119 0.6-0.8 0.087 0.119-0.087 0.113 0.175 0.231 0.425-0.575h0.175l-0.6 0.8-0.262-0.344-0.169 0.231 0.169 0.225-0.25 0.344 0.075 0.119-0.594 0.8zM0.302 0h0.519l-0.175 0.113h-0.25v0.344l-0.1 0.231v-0.688zM10.59 2.169v-0.225l-0.425-0.575 0.088-0.113-0.256-0.344 0.081-0.113 0.175 0.231 0.081-0.119-0.6-0.8-0.081 0.119 0.081 0.113-0.175 0.231-0.425-0.575h-0.175l0.606 0.8 0.256-0.344 0.175 0.231-0.175 0.225 0.256 0.344-0.081 0.113 0.594 0.8zM10.59 0h-0.512l0.169 0.113h0.256v0.344l0.088 0.231v-0.688z"></path>
<path fill="#faae29" d="M4.59 31.544s0.375-0.65 1.3-0.844c0.931-0.2 1.094 0.431 1.625 0.431s1.375-0.438 1.375-0.438-0.844 0.831-1.5 0.813c-0.644-0.019-0.862-0.438-1.531-0.375-0.662 0.063-1.269 0.431-1.269 0.413z"></path>
<path fill="#faae29" d="M6.383 31.544s-0.369-0.65-1.294-0.844c-0.938-0.2-1.094 0.431-1.625 0.431s-1.375-0.438-1.375-0.438 0.844 0.831 1.494 0.813c0.65-0.019 0.875-0.438 1.531-0.375 0.669 0.063 1.269 0.431 1.269 0.413z"></path>
<path fill="#faae29" d="M3.346 30.469c-0.081-0.169-0.288-0.919-0.181-1.012 0.169-0.063 0.606 0.706 0.563 1.387-0.288 0.156-1.25-0.063-1.244-0.262 0.069-0.281 0.619-0.188 0.863-0.113z"></path>
<path fill="#faae29" d="M2.758 29.813c-0.050-0.188-0.138-0.975-0.013-1.038 0.169-0.012 0.475 0.856 0.331 1.512-0.306 0.075-1.219-0.406-1.175-0.6 0.113-0.25 0.625-0.012 0.856 0.125z"></path>
<path fill="#faae29" d="M2.283 29.087c-0.038-0.2-0.050-1 0.075-1.038 0.169 0.012 0.4 0.925 0.2 1.556-0.313 0.025-1.175-0.6-1.113-0.781 0.125-0.238 0.625 0.081 0.838 0.262z"></path>
<path fill="#faae29" d="M1.908 28.313c-0.012-0.206 0.063-1 0.194-1.012 0.169 0.044 0.288 0.994 0.013 1.575-0.306-0.038-1.087-0.831-1-1 0.15-0.206 0.606 0.212 0.794 0.438z"></path>
<path fill="#faae29" d="M1.646 27.494c0.012-0.206 0.175-0.969 0.306-0.962 0.156 0.081 0.175 1.038-0.156 1.563-0.3-0.1-0.994-1.031-0.894-1.188 0.181-0.175 0.581 0.331 0.75 0.587z"></path>
<path fill="#faae29" d="M1.721 26.563c-0.019 0.813-0.169 0.825-0.438 0.225-0.125-0.231-0.137-1.169-0.031-1.206 0.156 0 0.463 0.669 0.469 0.981z"></path>
<path fill="#faae29" d="M7.583 30.563c0.081-0.175 0.287-0.925 0.181-1.019-0.169-0.063-0.6 0.7-0.563 1.387 0.287 0.156 1.256-0.063 1.244-0.262-0.069-0.281-0.612-0.188-0.862-0.113z"></path>
<path fill="#faae29" d="M8.171 29.9c0.056-0.188 0.137-0.975 0.019-1.038-0.169-0.012-0.481 0.85-0.331 1.512 0.3 0.075 1.219-0.406 1.169-0.6-0.106-0.256-0.625-0.012-0.856 0.125z"></path>
<path fill="#faae29" d="M8.646 29.175c0.037-0.2 0.050-1-0.075-1.038-0.169 0.012-0.4 0.919-0.194 1.55 0.313 0.025 1.175-0.594 1.113-0.781-0.137-0.238-0.625 0.087-0.844 0.269z"></path>
<path fill="#faae29" d="M9.021 28.394c0.012-0.2-0.063-0.994-0.194-1.006-0.169 0.044-0.287 0.994-0.012 1.575 0.313-0.038 1.088-0.831 1.006-1-0.156-0.212-0.606 0.212-0.8 0.431z"></path>
<path fill="#faae29" d="M9.283 27.575c-0.006-0.2-0.175-0.969-0.3-0.956-0.162 0.075-0.181 1.038 0.156 1.563 0.3-0.1 0.988-1.031 0.887-1.188-0.181-0.175-0.581 0.331-0.75 0.581z"></path>
<path fill="#faae29" d="M9.208 26.65c0.025 0.813 0.169 0.819 0.438 0.219 0.125-0.225 0.137-1.169 0.031-1.2-0.156 0-0.463 0.669-0.469 0.981z"></path>
<path fill="#ca3745" d="M8.995 20.557h-0.512v0.343h-0.493v0.343h-1.972l-0.335 0.353 0.167 0.177h0.828l0.158-0.177h-0.819l0.158-0.177h1.153l-0.493 0.52h-1.144l-0.326-0.167-0.335 0.167h-1.153l-0.493-0.52h1.153l0.167 0.177h-0.828l0.167 0.177h0.828l0.158-0.177-0.326-0.353h-1.814v-0.343h-0.493v-0.343h-0.493v-1.569h0.493v-0.343h0.493v-0.353h1.814l0.326-0.343-0.158-0.177h-0.828l-0.167 0.177h0.828l-0.167 0.167h-1.153l0.493-0.52h1.163l0.335 0.177 0.326-0.177h1.153l0.493 0.52h-1.153l-0.158-0.167h0.819l-0.167-0.177h-0.819l-0.177 0.177 0.335 0.343h1.972v0.353h0.493v0.343h0.502v1.569z"></path>
<path fill="#00843d" d="M2.073 19.171v1.216h0.493v0.343h0.493v0.343h1.651l0.66 0.525 0.656-0.52h1.814v-0.343l0.493-0.005v-0.343h0.502v-1.221h-0.498v-0.343h-0.493v-0.353h-1.814l-0.656-0.52-0.66 0.52h-1.651v0.353h-0.493v0.343h-0.493z"></path>
<path fill="#ca3745" d="M4.378 18.64l-0.987 0.87v-0.87h0.987zM6.353 18.64l0.994 0.87v-0.87h-0.994zM4.378 20.902l-0.987-0.87v0.87h0.987zM6.353 20.902l0.994-0.87v0.87h-0.994zM6.684 19.162l-0.331 0.348h0.662l-0.331-0.348zM4.047 19.162l-0.325 0.348h0.656l-0.331-0.348zM4.047 20.38l-0.325-0.348h0.656l-0.331 0.348zM6.684 20.38l-0.331-0.348h0.662l-0.331 0.348z"></path>
<path fill="#faae29" d="M5.365 21.25l-0.331-0.348h0.662l-0.331 0.348zM5.365 19.51l-0.331-0.348h0.662l-0.331 0.348zM5.365 18.292l-0.331 0.356h0.662l-0.331-0.356zM5.365 20.032l-0.331 0.348h0.662l-0.331-0.348z"></path>
<path fill="#faae29" d="M6.356 19.514h0.665v0.172h-0.66z"></path>
<path fill="#c00" d="M3.887 19.686h0.326v0.177h-0.326zM6.524 19.686h0.326v0.177h-0.326z"></path>
<path fill="#900" d="M5.040 18.647h0.656v0.172h-0.656zM5.040 18.99h0.656v0.177h-0.656z"></path>
<path fill="#900" d="M4.873 18.818h0.991v0.177h-0.991zM5.040 20.387h0.656v0.167h-0.656zM5.040 20.73h0.656v0.172h-0.656zM4.873 20.558h0.991v0.172h-0.991z"></path>
<path fill="#faae29" d="M6.356 19.862h0.665v0.172h-0.66zM3.719 19.514h0.66v0.172h-0.66zM3.719 19.857h0.66v0.177h-0.66zM3.557 19.686h0.326v0.177h-0.326zM4.217 19.686h0.326v0.177h-0.326zM6.193 19.686h0.326v0.177h-0.326zM6.854 19.686h0.326v0.177h-0.326z"></path>
<path fill="#fff" d="M5.005 20.636c0 0.024-0.019 0.044-0.042 0.044s-0.042-0.020-0.042-0.044c0-0.024 0.019-0.044 0.042-0.044s0.042 0.020 0.042 0.044z"></path>
<path fill="#fff" d="M5.411 20.636c0 0.024-0.019 0.044-0.042 0.044s-0.042-0.020-0.042-0.044c0-0.024 0.019-0.044 0.042-0.044s0.042 0.020 0.042 0.044z"></path>
<path fill="#fff" d="M5.824 20.636c0 0.024-0.019 0.044-0.042 0.044s-0.042-0.020-0.042-0.044c0-0.024 0.019-0.044 0.042-0.044s0.042 0.020 0.042 0.044z"></path>
<path fill="#fff" d="M5.168 20.47c0 0.024-0.019 0.044-0.042 0.044s-0.042-0.020-0.042-0.044c0-0.024 0.019-0.044 0.042-0.044s0.042 0.020 0.042 0.044z"></path>
<path fill="#fff" d="M5.655 20.47c0 0.024-0.019 0.044-0.042 0.044s-0.042-0.020-0.042-0.044c0-0.024 0.019-0.044 0.042-0.044s0.042 0.020 0.042 0.044z"></path>
<path fill="#fff" d="M5.162 20.81c0 0.024-0.019 0.044-0.042 0.044s-0.042-0.020-0.042-0.044c0-0.024 0.019-0.044 0.042-0.044s0.042 0.020 0.042 0.044z"></path>
<path fill="#fff" d="M5.655 20.818c0 0.024-0.019 0.044-0.042 0.044s-0.042-0.020-0.042-0.044c0-0.024 0.019-0.044 0.042-0.044s0.042 0.020 0.042 0.044z"></path>
<path fill="#fff" d="M6.311 19.766c0 0.024-0.019 0.044-0.042 0.044s-0.042-0.020-0.042-0.044c0-0.024 0.019-0.044 0.042-0.044s0.042 0.020 0.042 0.044z"></path>
<path fill="#fff" d="M6.724 19.766c0 0.024-0.019 0.044-0.042 0.044s-0.042-0.020-0.042-0.044c0-0.024 0.019-0.044 0.042-0.044s0.042 0.020 0.042 0.044z"></path>
<path fill="#fff" d="M7.136 19.766c0 0.024-0.019 0.044-0.042 0.044s-0.042-0.020-0.042-0.044c0-0.024 0.019-0.044 0.042-0.044s0.042 0.020 0.042 0.044z"></path>
<path fill="#fff" d="M6.48 19.592c0 0.024-0.019 0.044-0.042 0.044s-0.042-0.020-0.042-0.044c0-0.024 0.019-0.044 0.042-0.044s0.042 0.020 0.042 0.044z"></path>
<path fill="#fff" d="M6.967 19.592c0 0.024-0.019 0.044-0.042 0.044s-0.042-0.020-0.042-0.044c0-0.024 0.019-0.044 0.042-0.044s0.042 0.020 0.042 0.044z"></path>
<path fill="#fff" d="M6.474 19.932c0 0.024-0.019 0.044-0.042 0.044s-0.042-0.020-0.042-0.044c0-0.024 0.019-0.044 0.042-0.044s0.042 0.020 0.042 0.044z"></path>
<path fill="#fff" d="M6.967 19.94c0 0.024-0.019 0.044-0.042 0.044s-0.042-0.020-0.042-0.044c0-0.024 0.019-0.044 0.042-0.044s0.042 0.020 0.042 0.044z"></path>
<path fill="#fff" d="M4.999 18.904c0 0.024-0.019 0.044-0.042 0.044s-0.042-0.020-0.042-0.044c0-0.024 0.019-0.044 0.042-0.044s0.042 0.020 0.042 0.044z"></path>
<path fill="#fff" d="M5.411 18.904c0 0.024-0.019 0.044-0.042 0.044s-0.042-0.020-0.042-0.044c0-0.024 0.019-0.044 0.042-0.044s0.042 0.020 0.042 0.044z"></path>
<path fill="#fff" d="M5.824 18.896c0 0.024-0.019 0.044-0.042 0.044s-0.042-0.020-0.042-0.044c0-0.024 0.019-0.044 0.042-0.044s0.042 0.020 0.042 0.044z"></path>
<path fill="#fff" d="M5.162 18.73c0 0.024-0.019 0.044-0.042 0.044s-0.042-0.020-0.042-0.044c0-0.024 0.019-0.044 0.042-0.044s0.042 0.020 0.042 0.044z"></path>
<path fill="#fff" d="M5.655 18.73c0 0.024-0.019 0.044-0.042 0.044s-0.042-0.020-0.042-0.044c0-0.024 0.019-0.044 0.042-0.044s0.042 0.020 0.042 0.044z"></path>
<path fill="#fff" d="M5.162 19.070c0 0.024-0.019 0.044-0.042 0.044s-0.042-0.020-0.042-0.044c0-0.024 0.019-0.044 0.042-0.044s0.042 0.020 0.042 0.044z"></path>
<path fill="#fff" d="M5.655 19.078c0 0.024-0.019 0.044-0.042 0.044s-0.042-0.020-0.042-0.044c0-0.024 0.019-0.044 0.042-0.044s0.042 0.020 0.042 0.044z"></path>
<path fill="#fff" d="M3.68 19.782c0 0.024-0.019 0.044-0.042 0.044s-0.042-0.020-0.042-0.044c0-0.024 0.019-0.044 0.042-0.044s0.042 0.020 0.042 0.044z"></path>
<path fill="#fff" d="M4.093 19.782c0 0.024-0.019 0.044-0.042 0.044s-0.042-0.020-0.042-0.044c0-0.024 0.019-0.044 0.042-0.044s0.042 0.020 0.042 0.044z"></path>
<path fill="#fff" d="M4.505 19.774c0 0.024-0.019 0.044-0.042 0.044s-0.042-0.020-0.042-0.044c0-0.024 0.019-0.044 0.042-0.044s0.042 0.020 0.042 0.044z"></path>
<path fill="#fff" d="M3.849 19.608c0 0.024-0.019 0.044-0.042 0.044s-0.042-0.020-0.042-0.044c0-0.024 0.019-0.044 0.042-0.044s0.042 0.020 0.042 0.044z"></path>
<path fill="#fff" d="M4.337 19.608c0 0.024-0.019 0.044-0.042 0.044s-0.042-0.020-0.042-0.044c0-0.024 0.019-0.044 0.042-0.044s0.042 0.020 0.042 0.044z"></path>
<path fill="#fff" d="M3.843 19.948c0 0.024-0.019 0.044-0.042 0.044s-0.042-0.020-0.042-0.044c0-0.024 0.019-0.044 0.042-0.044s0.042 0.020 0.042 0.044z"></path>
<path fill="#fff" d="M4.337 19.956c0 0.024-0.019 0.044-0.042 0.044s-0.042-0.020-0.042-0.044c0-0.024 0.019-0.044 0.042-0.044s0.042 0.020 0.042 0.044z"></path>
<path fill="#fff" d="M6.015 15.988l0.281-0.137 0.287 0.137h-0.569zM5.165 15.988l0.281-0.137 0.287 0.137h-0.569zM4.315 15.988l0.281-0.137 0.287 0.137h-0.569zM6.015 12.925l0.281 0.137 0.287-0.131h-0.569zM5.165 12.925l0.281 0.137 0.287-0.131h-0.569zM4.315 12.925l0.281 0.137 0.287-0.131h-0.569z"></path>
<path fill="#00843d" d="M5.777 16.381l-0.331 0.269-0.331-0.269-0.331 0.269-0.331-0.269v0.137l0.225 0.125-0.112 0.137v0.131h0.112l0.106-0.125 0.112 0.125h0.112v-0.125l-0.112-0.137 0.219-0.131 0.225 0.125-0.112 0.137v0.131h0.112l0.106-0.125 0.112 0.125h0.106v-0.125l-0.106-0.137 0.219-0.131 0.219 0.125-0.106 0.137v0.131h0.106l0.112-0.125 0.112 0.125h0.106v-0.125l-0.106-0.137 0.219-0.131v-0.144l-0.331 0.269-0.331-0.269zM5.777 12.531l-0.331-0.269-0.331 0.269-0.331-0.269-0.331 0.269v-0.131l0.225-0.137-0.112-0.125v-0.137h0.112l0.106 0.131 0.112-0.131h0.112v0.131l-0.112 0.137 0.219 0.125 0.225-0.125-0.112-0.137v-0.131h0.112l0.106 0.131 0.112-0.131h0.106v0.131l-0.106 0.137 0.219 0.125 0.219-0.125-0.106-0.137v-0.131h0.106l0.112 0.131 0.112-0.131h0.106v0.131l-0.106 0.137 0.219 0.125v0.137l-0.331-0.269-0.331 0.269zM8.277 14.744l0.363-0.287-0.356-0.287 0.356-0.287-0.356-0.287h0.175l0.181 0.188 0.175-0.094h0.175v0.1l-0.175 0.094 0.175 0.094v0.1h-0.175l-0.175-0.1-0.181 0.194 0.181 0.188 0.175-0.088h0.175v0.094l-0.175 0.094 0.175 0.094v0.1h-0.175l-0.175-0.1-0.181 0.194 0.181 0.188 0.175-0.094h0.175v0.1l-0.175 0.094 0.175 0.1v0.094h-0.175l-0.175-0.094-0.181 0.188h-0.175l0.356-0.287-0.356-0.287zM2.615 14.744l-0.356-0.287 0.356-0.287-0.356-0.287 0.356-0.287h-0.181l-0.175 0.188-0.175-0.094h-0.188v0.1l0.188 0.088-0.181 0.094v0.1h0.181l0.175-0.1 0.175 0.194-0.175 0.188-0.175-0.088h-0.188v0.094l0.181 0.094-0.181 0.094v0.1h0.188l0.175-0.1 0.175 0.194-0.175 0.194-0.175-0.094h-0.188v0.094l0.181 0.094-0.181 0.1v0.094h0.188l0.175-0.094 0.175 0.188h0.181l-0.356-0.287 0.356-0.287z"></path>
<path fill="#00843d" d="M8.418 15.723h0.144v0.127h-0.144zM8.274 15.851h0.144v0.135h-0.136zM7.57 16.518h0.144v0.135h-0.144zM7.714 16.383h0.136v0.135h-0.136zM3.035 16.383h0.144v0.135h-0.152zM2.323 15.723h0.144v0.127h-0.144zM2.467 15.851h0.144v0.135h-0.144zM2.467 12.927h0.144v0.135h-0.144zM2.323 13.062h0.144v0.135h-0.144zM3.179 12.267h0.136v0.135h-0.128zM3.035 12.402h0.144v0.135h-0.152zM7.57 12.267h0.144v0.135h-0.144zM7.714 12.402h0.136v0.135h-0.136zM8.274 12.927h0.144v0.135h-0.136zM8.418 13.069h0.144v0.127h-0.144zM3.187 16.518h0.136v0.135h-0.136z"></path>
<path fill="#fff" d="M5.015 14.456h-0.419v-0.262h0.281v-0.244h0.275v-0.225h0.281v0.281c-0.231 0-0.419 0.188-0.419 0.45z"></path>
<path fill="#faae29" d="M5.852 14.456h0.419v-0.262h-0.281v-0.244h-0.281v-0.225h-0.275v0.281c0.231 0 0.419 0.188 0.419 0.45z"></path>
<path fill="#fff" d="M5.852 14.456h0.419v0.262h-0.281v0.244h-0.281v0.225h-0.275v-0.281c0.231 0 0.419-0.188 0.419-0.45z"></path>
<path fill="#faae29" d="M5.015 14.456h-0.419v0.262h0.281v0.244h0.275v0.225h0.281v-0.281c-0.231 0-0.419-0.188-0.419-0.45z"></path>
<path fill="#00843d" d="M5.852 14.456h-0.419v-0.45c0.231 0 0.419 0.206 0.419 0.45z"></path>
<path fill="#ca3745" d="M5.852 14.456h-0.419v0.45c0.231 0 0.419-0.2 0.419-0.45z"></path>
<path fill="#00843d" d="M5.015 14.456h0.419v0.45c-0.231 0-0.419-0.2-0.419-0.45z"></path>
<path fill="#ca3745" d="M5.015 14.456h0.419v-0.45c-0.231 0-0.419 0.206-0.419 0.45z"></path>
<path fill="#00843d" d="M5.871 16.119l-0.425-0.269-0.425 0.269-0.425-0.269-0.425 0.269v-0.131l0.281-0.137-0.138-0.131v-0.131h0.138l0.144 0.131 0.144-0.131h0.144v0.131l-0.144 0.131 0.281 0.137 0.287-0.137-0.144-0.131v-0.131h0.144l0.138 0.131 0.144-0.131h0.144v0.131l-0.144 0.131 0.281 0.137 0.287-0.137-0.144-0.131v-0.131h0.144l0.138 0.131 0.144-0.131h0.144v0.131l-0.144 0.131 0.281 0.137v0.125l-0.425-0.262-0.425 0.269zM5.871 12.8l-0.425 0.262-0.425-0.262-0.425 0.262-0.425-0.262v0.125l0.281 0.137-0.138 0.131v0.137h0.138l0.144-0.137 0.144 0.137h0.144v-0.144l-0.144-0.125 0.281-0.137 0.287 0.131-0.144 0.131v0.137h0.144l0.138-0.137 0.144 0.137h0.144v-0.137l-0.144-0.125 0.281-0.137 0.287 0.131-0.144 0.131v0.137h0.144l0.138-0.137 0.144 0.137h0.144v-0.137l-0.144-0.125 0.281-0.137v-0.131l-0.425 0.262-0.425-0.262zM7.433 14.787l-0.213-0.331 0.213-0.331-0.213-0.331 0.213-0.331h-0.106l-0.106 0.219-0.106-0.113h-0.106v0.113l0.106 0.113-0.106 0.113v0.106h0.106l0.106-0.106 0.106 0.219-0.106 0.219-0.106-0.106h-0.106v0.106l0.106 0.113-0.106 0.113v0.113h0.106l0.106-0.113 0.106 0.219-0.106 0.225-0.106-0.113h-0.106v0.113l0.106 0.106-0.106 0.113v0.113h0.106l0.106-0.113 0.106 0.225h0.106l-0.213-0.338 0.213-0.331z"></path>
<path fill="#00843d" d="M4.173 12.934h2.552l0.568 0.532v1.994l-0.56 0.525h-2.56l-0.56-0.532v-1.994l0.56-0.525zM4.029 12.53l-1.416 1.334v1.2l1.424 1.319h2.832l1.416-1.327v-1.2l-1.416-1.327h-2.832z"></path>
<path fill="#faae29" d="M4.762 16.116l0.224 0.27 0.23-0.27h-0.461z"></path>
<path fill="#faae29" d="M4.762 12.797l0.224-0.27 0.23 0.27h-0.461z"></path>
<path fill="#faae29" d="M5.675 12.797l0.224-0.27 0.23 0.27h-0.461z"></path>
<path fill="#faae29" d="M5.675 16.116l0.224 0.27 0.23-0.27h-0.461z"></path>
<path fill="#ca3745" d="M4.312 12.797l0.224-0.27 0.23 0.27h-0.461z"></path>
<path fill="#ca3745" d="M5.218 12.797l0.224-0.27 0.23 0.27h-0.461z"></path>
<path fill="#ca3745" d="M6.125 12.797l0.224-0.27 0.23 0.27h-0.461z"></path>
<path fill="#ca3745" d="M3.752 15.719l0.42 0.394h-0.42v-0.394z"></path>
<path fill="#00843d" d="M3.458 14.787l0.219-0.331-0.219-0.331 0.212-0.331-0.212-0.331h0.106l0.106 0.219 0.106-0.113h0.106v0.113l-0.106 0.113 0.106 0.113v0.106h-0.106l-0.106-0.106-0.106 0.219 0.106 0.219 0.106-0.106h0.106v0.106l-0.106 0.113 0.106 0.113v0.113h-0.106l-0.106-0.113-0.106 0.219 0.106 0.225 0.106-0.113h0.106v0.113l-0.106 0.106 0.106 0.113v0.113h-0.106l-0.106-0.113-0.106 0.225h-0.106l0.212-0.338-0.212-0.331z"></path>
<path fill="#ca3745" d="M7.57 14.098h0.568l0.144 0.121-0.144 0.121h-0.56v-0.25z"></path>
<path fill="#ca3745" d="M3.749 13.197l-0.288 0.27v1.987l0.288 0.27h-0.424v-2.526h0.424z"></path>
<path fill="#ca3745" d="M4.312 16.116l0.224 0.27 0.23-0.27h-0.461z"></path>
<path fill="#ca3745" d="M5.218 16.116l0.224 0.27 0.23-0.27h-0.461z"></path>
<path fill="#ca3745" d="M6.125 16.116l0.224 0.27 0.23-0.27h-0.461z"></path>
<path fill="#ca3745" d="M7.143 13.197l0.288 0.27v1.987l-0.288 0.27h0.424v-2.526h-0.424z"></path>
<path fill="#ca3745" d="M7.146 15.719l-0.42 0.394h0.42v-0.394z"></path>
<path fill="#ca3745" d="M7.146 13.194l-0.42-0.394h0.42v0.394z"></path>
<path fill="#ca3745" d="M3.752 13.194l0.42-0.394h-0.42v0.394z"></path>
<path fill="#00843d" d="M4.173 12.934h2.552l0.568 0.532v1.994l-0.56 0.525h-2.56l-0.56-0.532v-1.994l0.56-0.525zM4.173 12.8l-0.704 0.66v1.994l0.704 0.667h2.56l0.704-0.667v-1.994l-0.712-0.66h-2.552z"></path>
<path fill="#faae29" d="M7.57 14.336h0.568l0.144 0.121-0.144 0.121h-0.56v-0.25z"></path>
<path fill="#ca3745" d="M7.57 14.573h0.568l0.144 0.121-0.144 0.121h-0.56v-0.25z"></path>
<path fill="#faae29" d="M7.57 14.811h0.568l0.144 0.121-0.144 0.121h-0.56v-0.25z"></path>
<path fill="#faae29" d="M7.57 13.855h0.568l0.144 0.121-0.144 0.121h-0.56v-0.25z"></path>
<path fill="#ca3745" d="M3.322 14.098h-0.568l-0.144 0.121 0.144 0.121h0.56v-0.25z"></path>
<path fill="#faae29" d="M3.322 14.336h-0.568l-0.144 0.121 0.144 0.121h0.56v-0.25z"></path>
<path fill="#ca3745" d="M3.322 14.573h-0.568l-0.144 0.121 0.144 0.121h0.56v-0.25z"></path>
<path fill="#faae29" d="M3.322 14.811h-0.568l-0.144 0.121 0.144 0.121h0.56v-0.25z"></path>
<path fill="#faae29" d="M3.322 13.855h-0.568l-0.144 0.121 0.144 0.121h0.56v-0.25z"></path>
<path fill="#970000" d="M2.467 13.069h0.712v-0.66h4.535v0.66h0.704v2.774h-0.704v0.667h-4.535v-0.667h-0.712v-2.774zM2.611 13.197v2.526h0.704v0.66h4.255v-0.66h0.712v-2.526h-0.712v-0.652h-4.255v0.66h-0.704z"></path>
<path fill="#ca3745" d="M8.987 2.688l-0.424-0.512v-0.382l-0.424-0.382h-0.848l-0.712-0.382h-2.264l-0.712 0.382h-0.848l-0.424 0.382v0.382l-0.424 0.505v1.031l0.424 0.505v0.389l0.424 0.382h0.848l0.712 0.382h2.264l0.712-0.382h0.848l0.432-0.382v-0.382l0.424-0.512v-1.031z"></path>
<path fill="#faae29" d="M2.046 3.2v0.381l0.425 0.512v0.381l0.425 0.388h0.85l0.713 0.375h0.987v-2.031h-3.4z"></path>
<path fill="#ca3745" d="M4.252 4.094l-0.519 0.331h-0.313l0.106 0.106-0.206 0.219 0.106 0.112 0.313-0.112 0.1 0.112 0.044-0.294 0.575-0.35-0.206-0.125z"></path>
<path fill="#ca3745" d="M3.683 3.837l-0.519 0.331h-0.306l0.1 0.106-0.2 0.219 0.1 0.112 0.313-0.112 0.1 0.112 0.050-0.294 0.569-0.344-0.206-0.125zM3.402 3.325l-0.519 0.331h-0.313l0.106 0.112-0.206 0.219 0.106 0.106 0.313-0.112 0.1 0.112 0.044-0.294 0.575-0.344-0.206-0.125z"></path>
<path fill="#faae29" d="M8.846 3.2v-0.381l-0.425-0.512v-0.381l-0.425-0.387h-0.85l-0.706-0.381h-0.994v2.044h3.4z"></path>
<path fill="#ca3745" d="M5.446 5.244h-0.263l-0.3-0.256h-0.487l-0.263-0.125 0.131-0.125 0.263 0.125h0.263l0.263-0.388 0.394 0.125v0.263h-0.394l0.394 0.375z"></path>
<path fill="#fff" d="M2.046 3.2v-0.381l0.425-0.512v-0.381l0.425-0.387h0.85l0.713-0.381h0.987v2.044h-3.4z"></path>
<path fill="#ca3745" d="M5.446 1.156h-0.263l-0.3 0.25h-0.487l-0.263 0.131 0.131 0.125 0.263-0.125h0.263l0.263 0.387 0.394-0.125v-0.262h-0.394l0.394-0.381z"></path>
<path fill="#ca3745" d="M5.446 1.156h0.263l0.306 0.25h0.481l0.263 0.131-0.125 0.125-0.269-0.125h-0.263l-0.263 0.387-0.394-0.125v-0.262h0.394l-0.394-0.381z"></path>
<path fill="#fff" d="M8.846 3.2v0.381l-0.425 0.512v0.381l-0.425 0.388h-0.85l-0.706 0.375h-0.994v-2.031h3.4z"></path>
<path fill="#ca3745" d="M5.446 5.244h0.263l0.306-0.256h0.481l0.263-0.125-0.125-0.125-0.269 0.125h-0.263l-0.263-0.388-0.394 0.125v0.263h0.394l-0.394 0.375zM3.683 2.556l-0.519-0.325h-0.306l0.1-0.106-0.2-0.219 0.1-0.113 0.313 0.113 0.1-0.113 0.050 0.294 0.569 0.344-0.206 0.125zM6.646 2.306l0.513-0.331h0.313l-0.106-0.106 0.206-0.219-0.1-0.113-0.313 0.113-0.1-0.113-0.050 0.294-0.569 0.35 0.206 0.125z"></path>
<path fill="#ca3745" d="M4.252 2.306l-0.519-0.331h-0.313l0.106-0.106-0.206-0.219 0.106-0.113 0.313 0.113 0.1-0.113 0.044 0.294 0.575 0.344-0.206 0.125zM3.396 3.075l-0.519-0.331h-0.313l0.106-0.112-0.206-0.219 0.119-0.1 0.313 0.112 0.1-0.112 0.044 0.294 0.575 0.344-0.206 0.125z"></path>
<path fill="#fff" d="M2.302 3.2h0.125l0.131 0.125 0.131-0.125h2.756v1.788h-0.125l0.125 0.125v0.138l-0.394-0.381v-0.125h0.131v0.125h0.131v-0.125l-1.063-0.563h-0.9v-0.563l-0.394-0.281h-0.263l-0.131 0.125 0.125 0.125h-0.125l-0.263-0.375z"></path>
<path fill="#faae29" d="M2.302 3.2h0.125l0.131-0.125 0.131 0.125h2.756v-1.788h-0.125l0.125-0.125v-0.131l-0.394 0.381v0.125h0.131v-0.125h0.131v0.125l-1.063 0.569h-0.9v0.556l-0.394 0.288h-0.263l-0.131-0.125 0.125-0.131h-0.125l-0.263 0.381z"></path>
<path fill="#00843d" d="M2.896 3.2h2.55v1.531l-1.131-0.638h-0.85v-0.513l-0.563-0.381z"></path>
<path fill="#ca3745" d="M7.208 2.563l0.519-0.331h0.313l-0.106-0.106 0.206-0.219-0.1-0.113-0.313 0.113-0.1-0.113-0.050 0.294-0.569 0.344 0.2 0.125zM7.496 3.075l0.519-0.331h0.306l-0.106-0.112 0.206-0.219-0.1-0.106-0.313 0.112-0.1-0.112-0.050 0.294-0.569 0.344 0.206 0.125z"></path>
<path fill="#fff" d="M8.596 3.2h-0.131l-0.131-0.125-0.131 0.125h-2.756v-1.788h0.131l-0.131-0.125v-0.131l0.394 0.381v0.125h-0.131v-0.125h-0.131v0.125l1.063 0.569h0.9v0.556l0.4 0.288h0.263l0.125-0.125-0.125-0.131h0.125l0.269 0.381z"></path>
<path fill="#00843d" d="M7.996 3.2h-2.55v-1.531l1.138 0.638h0.85v0.513l0.569 0.381z"></path>
<path fill="#ca3745" d="M6.646 4.094l0.513 0.331h0.313l-0.106 0.106 0.206 0.219-0.1 0.112-0.313-0.112-0.1 0.112-0.050-0.294-0.569-0.35 0.206-0.125z"></path>
<path fill="#ca3745" d="M7.208 3.837l0.519 0.331h0.313l-0.106 0.106 0.206 0.219-0.1 0.112-0.313-0.112-0.1 0.112-0.050-0.294-0.569-0.344 0.2-0.125zM7.496 3.325l0.519 0.331h0.306l-0.106 0.106 0.206 0.219-0.1 0.112-0.313-0.112-0.1 0.112-0.050-0.294-0.569-0.344 0.206-0.125z"></path>
<path fill="#faae29" d="M8.596 3.2h-0.131l-0.131 0.125-0.131-0.125h-2.756v1.788h0.131l-0.131 0.125v0.138l0.394-0.381v-0.125h-0.131v0.125h-0.131v-0.125l1.063-0.563h0.9v-0.563l0.4-0.281h0.263l0.125 0.125-0.125 0.125h0.125l0.269-0.375z"></path>
<path fill="#ca3745" d="M7.996 3.2h-2.55v1.531l1.138-0.638h0.85v-0.513l0.569-0.381zM2.896 3.2h2.55v-1.531l-1.131 0.638h-0.85v0.513l-0.563 0.381z"></path>
<path fill="#ca3745" d="M5.727 3.2l0.713-0.381h0.425l-0.144-0.125 0.287-0.263-0.144-0.125-0.425 0.125-0.144-0.125-0.063 0.344-0.787 0.4 0.281 0.15zM5.165 3.2l-0.706 0.381h-0.425l0.138 0.125-0.281 0.263 0.144 0.125 0.425-0.125 0.138 0.125 0.063-0.344 0.787-0.4-0.281-0.15z"></path>
<path fill="#00843d" d="M5.165 3.2l-0.706-0.381h-0.425l0.144-0.125-0.281-0.263 0.144-0.125 0.425 0.125 0.138-0.125 0.063 0.344 0.787 0.4-0.281 0.15zM5.727 3.2l0.713 0.381h0.425l-0.144 0.125 0.287 0.263-0.144 0.125-0.425-0.125-0.144 0.125-0.063-0.344-0.787-0.4 0.281-0.15z"></path>
<path fill="#fff" d="M4.596 3.2l0.85-0.638 0.85 0.638-0.85 0.638-0.85-0.638z"></path>
<path fill="#ca3745" d="M2.69 3.456l0.131 0.125-0.125 0.125h-0.138l-0.394-0.506h0.131l0.263 0.381h0.131l-0.125-0.125 0.125-0.125h0.269v0.125h-0.263z"></path>
<path fill="#ca3745" d="M2.69 2.944l0.131-0.125-0.125-0.125h-0.138l-0.394 0.506h0.131l0.263-0.381h0.131l-0.125 0.125 0.125 0.125h0.269v-0.125h-0.263zM8.202 3.456l-0.125 0.125 0.125 0.125h0.131l0.394-0.506h-0.125l-0.269 0.381h-0.125l0.125-0.125-0.125-0.125h-0.269v0.125h0.263z"></path>
<path fill="#ca3745" d="M8.208 2.944l-0.137-0.125 0.131-0.125h0.131l0.394 0.506h-0.125l-0.269-0.381h-0.125l0.125 0.125-0.125 0.125h-0.269v-0.125h0.263zM5.315 2.694h0.263v1.019h-0.263z"></path>
<path fill="#ca3745" d="M4.921 2.944h1.050v0.512h-1.050z"></path>
<path fill="#00843d" d="M4.247 22.612l-2.355 1.298v2.116l2.377 1.298h2.355l2.355-1.298v-2.116l-2.355-1.274h-2.355z"></path>
<path fill="#c00" d="M2.783 24.769h0.138v-0.269h0.288v0.262h0.144v-0.613h-0.144v0.262h-0.281v-0.262h-0.144v0.613zM6.402 26.806h0.144v-0.262h0.281v0.262h0.144v-0.619h-0.138v0.262h-0.287v-0.262h-0.138v0.613zM4.115 23.744h0.144v-0.256h0.287v0.262h0.138v-0.613h-0.138v0.262h-0.287v-0.262h-0.144v0.613zM6.208 23.744h0.144v-0.256h0.287v0.262h0.144v-0.613h-0.144v0.262h-0.287v-0.262h-0.144v0.613zM7.546 24.769h0.138v-0.269h0.287v0.262h0.144v-0.613h-0.144v0.262h-0.287v-0.262h-0.138v0.613zM7.546 25.788h0.138v-0.262h0.287v0.262h0.144v-0.613h-0.144v0.262h-0.287v-0.262h-0.138v0.613z"></path>
<path fill="#faae29" d="M5.446 27.212v-2.244h3.431v1.019l-2.294 1.225h-1.144zM5.446 22.731v2.238h-3.425v-1.019l2.281-1.219h1.144z"></path>
<path fill="#fff" d="M5.446 22.731v2.238h3.431v-1.019l-2.294-1.219h-1.144zM5.446 27.212v-2.244h-3.425v1.019l2.281 1.225h1.144z"></path>
<path fill="#faae29" d="M7.278 24.058h1.374l-1.374-0.61v0.61zM8.878 23.954v1.018h-2.167v-0.811h-0.458l-0.574-0.305v-0.713l0.348-0.311h-0.458v1.023h-0.116v-1.121h1.142l2.284 1.219z"></path>
<path fill="#ca3745" d="M4.302 24.256v1.431h0.344l0.8 0.413 0.8-0.413h0.344v-1.425h-0.344l-0.8-0.406-0.8 0.406h-0.344z"></path>
<path fill="#faae29" d="M3.62 25.886h-1.374l1.374 0.61v-0.61zM2.020 25.99v-1.018h2.167v0.811h0.458l0.574 0.305v0.713l-0.348 0.311h0.458v-1.023h0.116v1.121h-1.142l-2.284-1.219z"></path>
<path fill="#fff" d="M3.62 24.058h-1.374l1.374-0.61v0.61zM2.020 23.954v1.018h2.167v-0.811h0.458l0.574-0.305v-0.713l-0.348-0.311h0.458v1.023h0.116v-1.121h-1.142l-2.284 1.219z"></path>
<path fill="#fff" d="M7.278 25.886h1.374l-1.374 0.61v-0.61zM8.878 25.99v-1.018h-2.167v0.811h-0.458l-0.574 0.305v0.713l0.348 0.311h-0.458v-1.023h-0.116v1.121h1.142l2.284-1.219z"></path>
<path fill="#ca3745" d="M2.708 25.788h0.138v-0.313h0.288v0.313h0.144v-0.712h-0.144v0.306h-0.288v-0.313h-0.138v0.719zM4.077 26.806h0.144v-0.313h0.281v0.313h0.144v-0.712h-0.144v0.306h-0.281v-0.313h-0.144v0.725zM2.702 24.156h0.144v0.306h0.288v-0.313h0.144v0.725h-0.144v-0.313h-0.288v0.306h-0.138v-0.712zM4.077 23.137h0.144v0.306h0.281v-0.313h0.144v0.719h-0.144v-0.306h-0.281v0.313h-0.144v-0.719zM6.246 26.806h0.144v-0.313h0.287v0.313h0.144v-0.712h-0.144v0.306h-0.287v-0.313h-0.144v0.725zM7.621 24.869h0.144v-0.306h0.281v0.313h0.144v-0.719h-0.144v0.306h-0.275v-0.313h-0.144v0.725z"></path>
<path fill="#ca3745" d="M6.246 26.806h0.144v-0.313h0.287v0.313h0.144v-0.712h-0.144v0.306h-0.287v-0.313h-0.144v0.725z"></path>
<path fill="#ca3745" d="M6.246 26.806h0.144v-0.313h0.287v0.313h0.144v-0.712h-0.144v0.306h-0.287v-0.313h-0.144v0.725zM7.621 25.788h0.144v-0.313h0.281v0.313h0.144v-0.712h-0.144v0.3h-0.275v-0.306h-0.144v0.719zM6.246 23.85h0.144v-0.306h0.287v0.313h0.144v-0.719h-0.144v0.306h-0.287v-0.313h-0.144v0.719z"></path>
<path fill="#fff" d="M5.565 24.969l0.456-0.375h0.225v0.188h-0.225v0.094h0.344v-0.369h-0.344v-0.281h-0.456v0.281h0.112v-0.188h0.225v0.188l-0.456 0.375-0.456-0.375v-0.188h0.231v0.188h0.112v-0.281h-0.456v0.281h-0.344v0.375h0.344v-0.094h-0.231v-0.188h0.231l0.456 0.375-0.456 0.369h-0.231v-0.188h0.231v-0.094h-0.344v0.375h0.344v0.275h0.456v-0.275h-0.112v0.188h-0.231v-0.188l0.456-0.375 0.456 0.375v0.188h-0.225v-0.188h-0.112v0.275h0.456v-0.275h0.344v-0.375h-0.344v0.094h0.225v0.188h-0.225l-0.456-0.375z"></path>
<path fill="#ca3745" d="M2.244 9.182l0.219-0.228h1.329l0.993-1h1.329l0.993 1.006h1.329l0.219 0.222-0.219 0.222h-1.335l-0.993 1.006h-1.329l-0.987-1.006h-1.335l-0.219-0.222z"></path>
<path fill="#ca3745" d="M2.357 9.2l0.12-0.109h1.369l1.027-1.056h1.141l1.033 1.062h1.369l0.114 0.109-0.114 0.103h-1.369l-0.919 0.953h-1.369l-0.913-0.953h-1.375l-0.114-0.109z"></path>
<path fill="#faae29" d="M5.992 9.296l-0.439 0.443 0.439 0.449v0.108h-0.11l-0.439-0.443-0.445 0.443h-0.11v-0.108l0.439-0.449-0.439-0.443-0.445 0.443 0.226 0.222 0.11-0.108h0.123v0.108l-0.11 0.114h-0.226l-0.219-0.222v-0.228l0.445-0.443-0.445-0.449v-0.222l0.219-0.222h0.226l0.11 0.108v0.114h-0.11l-0.11-0.114-0.226 0.228 0.445 0.443 0.439-0.443-0.439-0.449v-0.114h0.11l0.445 0.449 0.439-0.449h0.11v0.114l-0.439 0.449 0.439 0.443 0.445-0.443-0.219-0.228-0.116 0.114h-0.11v-0.114l0.11-0.108h0.226l0.219 0.222v0.222l-0.445 0.449 0.445 0.443v0.228l-0.219 0.222h-0.226l-0.11-0.114v-0.108h0.103l0.116 0.108 0.219-0.222-0.439-0.443zM5.45 8.733l-0.445 0.449 0.445 0.443 0.439-0.443-0.439-0.449zM4.786 10.41v0.898l0.11-0.12 0.11 0.12 0.11-0.12 0.11 0.12 0.116-0.12 0.11 0.12 0.11-0.12 0.11 0.12 0.11-0.12 0.11 0.12 0.11-0.12 0.116 0.12v-0.898h-1.335zM6.115 7.954v-0.898l-0.116 0.12-0.11-0.12-0.11 0.12-0.11-0.12-0.11 0.12-0.11-0.12-0.116 0.12-0.11-0.12-0.11 0.12-0.11-0.12-0.11 0.12-0.11-0.12v0.898h1.329zM7.985 8.96v-0.898l-0.103 0.12-0.11-0.12-0.11 0.12-0.116-0.12-0.11 0.12-0.11-0.12-0.11 0.12-0.11-0.12v0.898h0.884zM3.792 8.96v-0.898l-0.116 0.12-0.11-0.12-0.11 0.12-0.11-0.12-0.11 0.12-0.11-0.12-0.116 0.12-0.11-0.12v0.898h0.884zM7.992 9.404v0.898l-0.11-0.12-0.11 0.12-0.11-0.12-0.116 0.12-0.11-0.12-0.11 0.12-0.11-0.12-0.11 0.12v-0.898h0.884zM3.786 9.404v0.898l-0.11-0.12-0.11 0.12-0.11-0.12-0.11 0.12-0.11-0.12-0.11 0.12-0.116-0.12-0.11 0.12v-0.898h0.884z"></path>
<path fill="#00843d" d="M6.108 10.41v0.557l0.116-0.114 0.11 0.12 0.11-0.12 0.11 0.12 0.11-0.12 0.11 0.12 0.116-0.12 0.11 0.12 0.11-0.12v-1.45l-1 1.006zM4.786 10.41v0.557l-0.116-0.114-0.11 0.12-0.11-0.12-0.11 0.12-0.11-0.12-0.11 0.12-0.11-0.12-0.11 0.12-0.116-0.12v-1.45l1 1.006zM4.786 7.954v-0.557l-0.116 0.108-0.11-0.108-0.11 0.108-0.11-0.108-0.11 0.108-0.11-0.108-0.11 0.108-0.11-0.108-0.116 0.108v1.456l1-1.006zM6.108 7.954v-0.557l0.116 0.108 0.11-0.108 0.11 0.108 0.11-0.108 0.11 0.108 0.11-0.108 0.11 0.108 0.116-0.108 0.11 0.108v1.456l-1-1.006zM2.902 10.074l-0.11-0.114-0.11 0.12-0.11-0.12-0.11 0.12-0.11-0.12-0.116 0.12-0.11-0.12-0.11 0.12v-1.797l0.11 0.12 0.11-0.12 0.116 0.12 0.11-0.12 0.11 0.12 0.11-0.12 0.11 0.12 0.11-0.12v0.677h-0.439l-0.226 0.222 0.226 0.222h0.439v0.671zM7.992 10.074l0.11-0.114 0.11 0.12 0.11-0.12 0.116 0.12 0.11-0.12 0.11 0.12 0.11-0.12 0.11 0.12v-1.797l-0.11 0.12-0.11-0.12-0.11 0.12-0.11-0.12-0.116 0.12-0.11-0.12-0.11 0.12-0.11-0.12v0.677h0.445l0.219 0.222-0.219 0.222h-0.445v0.671z"></path>
<path fill="#fff" d="M4.237 10.482s-0.090 0.084-0.090 0.132c0 0.042 0.097 0.132 0.142 0.132 0.052 0 0.135-0.090 0.135-0.132s-0.090-0.132-0.090-0.132v-0.18s0.194 0.305 0.194 0.174c0-0.096-0.194-0.258-0.194-0.258h-0.097s-0.194 0.192-0.194 0.258c0 0.132 0.194-0.174 0.194-0.174v0.18z"></path>
<path fill="#ca3745" d="M5.392 10.823s-0.11 0.12-0.11 0.18 0.116 0.192 0.168 0.192c0.064 0 0.161-0.126 0.161-0.186s-0.11-0.186-0.11-0.186v-0.252s0.194 0.407 0.194 0.222c0-0.12-0.194-0.341-0.194-0.341h-0.11s-0.226 0.276-0.194 0.341c0 0.186 0.194-0.222 0.194-0.222v0.252z"></path>
<path fill="#00843d" d="M4.448 9.175c0 0.063-0.098 0.114-0.218 0.114s-0.218-0.051-0.218-0.114c0-0.063 0.098-0.114 0.218-0.114s0.218 0.051 0.218 0.114z"></path>
<path fill="#00843d" d="M5.667 9.175c0 0.063-0.098 0.114-0.218 0.114s-0.218-0.051-0.218-0.114c0-0.063 0.098-0.114 0.218-0.114s0.218 0.051 0.218 0.114z"></path>
<path fill="#00843d" d="M6.879 9.175c0 0.063-0.098 0.114-0.218 0.114s-0.218-0.051-0.218-0.114c0-0.063 0.098-0.114 0.218-0.114s0.218 0.051 0.218 0.114z"></path>
<path fill="#fff" d="M4.218 7.894s-0.090-0.090-0.090-0.132c0-0.042 0.097-0.138 0.135-0.138 0.052 0 0.135 0.090 0.135 0.132 0 0.048-0.090 0.138-0.090 0.138v0.18s0.2-0.311 0.2-0.18c0 0.096-0.194 0.264-0.194 0.264h-0.097s-0.2-0.192-0.2-0.258c0-0.132 0.194 0.168 0.194 0.168v-0.18z"></path>
<path fill="#ca3745" d="M5.366 7.547s-0.11-0.12-0.11-0.18 0.123-0.186 0.168-0.186c0.064 0 0.168 0.12 0.168 0.18s-0.11 0.192-0.11 0.192v0.24s0.194-0.401 0.194-0.216c0 0.12-0.194 0.347-0.194 0.347h-0.123s-0.226-0.282-0.194-0.347c0-0.18 0.194 0.222 0.194 0.222v-0.252z"></path>
<path fill="#fff" d="M6.592 10.482s-0.090 0.084-0.090 0.132c0 0.042 0.097 0.132 0.142 0.132 0.052 0 0.135-0.090 0.135-0.132s-0.090-0.132-0.090-0.132v-0.18s0.194 0.305 0.194 0.174c0-0.096-0.194-0.258-0.194-0.258h-0.103s-0.194 0.192-0.194 0.258c0 0.132 0.194-0.174 0.194-0.174v0.18zM6.573 7.894s-0.090-0.090-0.090-0.138c0-0.036 0.097-0.132 0.135-0.132 0.052 0 0.135 0.090 0.135 0.132 0 0.048-0.090 0.138-0.090 0.138v0.18s0.2-0.311 0.2-0.18c0 0.096-0.194 0.264-0.194 0.264h-0.097s-0.2-0.192-0.2-0.258c0-0.132 0.194 0.168 0.194 0.168v-0.18z"></path>
<path fill="#ca3745" d="M3.276 9.859s-0.123 0.084-0.123 0.12c0 0.042 0.129 0.132 0.187 0.126 0.064 0 0.181-0.078 0.181-0.12s-0.123-0.126-0.123-0.126v-0.168s0.219 0.27 0.219 0.15c0-0.084-0.219-0.234-0.219-0.234h-0.123s-0.252 0.192-0.213 0.234c0 0.12 0.213-0.15 0.213-0.15v0.168zM3.251 8.595s-0.123-0.084-0.123-0.126c0-0.042 0.129-0.126 0.187-0.12 0.065 0 0.181 0.078 0.181 0.12s-0.123 0.12-0.123 0.12v0.168s0.219-0.27 0.219-0.144c0 0.078-0.219 0.228-0.219 0.228h-0.123s-0.252-0.186-0.213-0.228c0-0.12 0.213 0.144 0.213 0.144v-0.162zM7.527 9.829s-0.129 0.084-0.129 0.126c0 0.042 0.135 0.126 0.194 0.126 0.064 0 0.181-0.084 0.181-0.12 0-0.048-0.129-0.132-0.129-0.132v-0.162s0.219 0.27 0.219 0.144c0-0.078-0.213-0.228-0.213-0.228h-0.129s-0.245 0.186-0.213 0.228c0 0.126 0.219-0.144 0.219-0.144v0.168zM7.501 8.571s-0.129-0.084-0.129-0.126c0-0.042 0.135-0.126 0.194-0.126 0.064 0 0.181 0.084 0.181 0.12 0 0.048-0.129 0.126-0.129 0.126v0.168s0.219-0.27 0.219-0.15c0 0.084-0.213 0.234-0.213 0.234h-0.129s-0.245-0.186-0.213-0.228c0-0.126 0.219 0.144 0.219 0.144v-0.168z"></path>
<path fill="#fff" d="M2.373 9.847c-0.039-0.078-0.026-0.114-0.026-0.156s0.11-0.12 0.148-0.12c0.052 0 0.135 0.084 0.135 0.132 0 0.042 0 0.078-0.019 0.156l-0.052-0.126c-0.071 0.18-0.077 0.18-0.116-0.006l-0.065 0.12zM2.373 8.559c-0.032 0.078-0.026 0.114-0.026 0.156s0.11 0.12 0.155 0.12c0.052 0 0.135-0.084 0.135-0.132 0-0.042 0-0.078-0.019-0.156l-0.058 0.126c-0.065-0.18-0.071-0.18-0.116 0.006l-0.064-0.12zM8.34 9.829c-0.039-0.078-0.032-0.114-0.032-0.156s0.116-0.12 0.155-0.12c0.052 0 0.135 0.090 0.135 0.132s0 0.084-0.019 0.156l-0.058-0.126c-0.065 0.18-0.071 0.186-0.116 0l-0.065 0.114zM8.34 8.547c-0.039 0.072-0.026 0.108-0.026 0.156 0 0.036 0.11 0.12 0.148 0.12 0.052 0 0.142-0.090 0.142-0.132 0-0.048 0-0.084-0.019-0.162l-0.065 0.132c-0.065-0.186-0.065-0.192-0.11 0l-0.065-0.12z"></path>
<path fill="#ca3745" d="M4.773 11.326h1.368v-0.317h1.032v-0.635h0.91v-0.21h0.8v-1.911h-0.806v-0.216h-0.91v-0.635h-1.032v-0.317h-1.368v0.317h-1.032v0.635h-0.916v0.21h-0.8v1.917h0.8v0.21h0.916v0.635h1.032v0.323zM4.65 11.434v-0.317h-1.032v-0.635h-0.91v-0.216h-0.8v-2.12h0.8v-0.21h0.91v-0.641h1.032v-0.317h1.6v0.317h1.032v0.641h0.91v0.21h0.8v2.12h-0.8v0.216h-0.916v0.635h-1.032v0.317h-1.593z"></path>
</svg>
