<!-- Generated by IcoMoon.io -->
<svg version="1.1" xmlns="http://www.w3.org/2000/svg" width="43" height="32" viewBox="0 0 43 32">
<title>tn</title>
<path fill="#e70013" d="M-2.667 0h48v32h-48z"></path>
<path fill="#fff" d="M29.446 15.988c0 4.456-3.613 8.069-8.069 8.069s-8.069-3.613-8.069-8.069v0c0-4.456 3.612-8.069 8.069-8.069s8.069 3.613 8.069 8.069v0z"></path>
<path fill="#e70013" d="M21.377 21.337c-2.878-0.101-5.173-2.459-5.173-5.353s2.295-5.252 5.164-5.353l0.009-0c0.738 0 1.581 0.175 2.15 0.594-3.913 0.144-4.906 3.469-4.906 4.806s0.631 4.319 4.906 4.762c-0.488 0.313-1.413 0.544-2.15 0.544z"></path>
<path fill="#e70013" d="M26.090 18.238l-2.431-0.887-1.606 2.025 0.094-2.581-2.425-0.906 2.488-0.713 0.106-2.581 1.45 2.144 2.488-0.688-1.594 2.031z"></path>
</svg>
