<!-- Generated by IcoMoon.io -->
<svg version="1.1" xmlns="http://www.w3.org/2000/svg" width="43" height="32" viewBox="0 0 43 32">
<title>tr</title>
<path fill="#e30a17" d="M0 0h42.667v32h-42.667z"></path>
<path fill="#fff" d="M27.133 16.5c0 4.413-3.64 7.993-8.133 7.993s-8.133-3.58-8.133-8 3.64-7.987 8.133-7.987 8.133 3.58 8.133 7.993z"></path>
<path fill="#e30a17" d="M27.533 16.5c0 3.533-2.907 6.393-6.5 6.393s-6.507-2.867-6.507-6.4 2.913-6.387 6.507-6.387 6.507 2.86 6.507 6.393z"></path>
<path fill="#fff" d="M28.713 12.767l-0.067 2.953-2.753 0.747 2.72 0.967-0.067 2.713 1.767-2.12 2.68 0.933-1.547-2.273 1.887-2.26-2.9 0.8-1.72-2.467z"></path>
</svg>
