<!-- Generated by IcoMoon.io -->
<svg version="1.1" xmlns="http://www.w3.org/2000/svg" width="43" height="32" viewBox="0 0 43 32">
<title>tv</title>
<path fill="#009fca" d="M0 0h42.667v32h-42.667z"></path>
<path fill="#fff40d" d="M39.553 8.18h1.847l-1.487 1.013 0.567 1.647-1.487-1.020-1.48 1.020 0.567-1.647-1.487-1.013h1.833l0.567-1.647zM34.94 21.3h1.84l-1.487 1.013 0.567 1.647-1.487-1.020-1.487 1.020 0.573-1.647-1.487-1.013h1.827l0.567-1.647zM39.553 18.327h1.847l-1.487 1.013 0.567 1.647-1.487-1.020-1.48 1.020 0.567-1.647-1.487-1.013h1.833l0.567-1.647zM19.72 27.847h1.84l-1.493 1.007 0.573 1.64-1.487-1.013-1.487 1.013 0.573-1.64-1.493-1.020h1.84l0.567-1.64zM23.893 22.747h-1.84l1.487-1.020-0.567-1.64 1.487 1.013 1.487-1.013-0.573 1.64 1.487 1.020h-1.833l-0.567 1.64zM29.313 15.247h-1.847l1.487-1.013-0.567-1.647 1.487 1.020 1.487-1.020-0.573 1.647 1.487 1.013h-1.833l-0.567 1.647zM33.867 13.693h-1.84l1.493-1.020-0.573-1.64 1.487 1.013 1.487-1.013-0.573 1.64 1.493 1.020h-1.84l-0.567 1.64zM29.313 26.667h-1.847l1.487-1.013-0.553-1.653 1.487 1.013 1.487-1.013-0.573 1.647 1.487 1.013h-1.833l-0.567 1.647zM23.893 27.993h-1.84l1.487-1.013-0.567-1.647 1.487 1.013 1.487-1.013-0.573 1.64 1.493 1.027h-1.833l-0.567 1.647z"></path>
<path fill="#012169" d="M0 0h21.333v16h-21.333z"></path>
<path fill="#fff" d="M2.5 0l8.133 6.033 8.1-6.033h2.6v2.067l-8 5.967 8 5.933v2.033h-2.667l-8-5.967-7.967 5.967h-2.7v-2l7.967-5.933-7.967-5.933v-2.133z"></path>
<path fill="#c8102e" d="M14.133 9.367l7.2 5.3v1.333l-9.033-6.633zM8 10.033l0.2 1.167-6.4 4.8h-1.8zM21.333 0v0.1l-8.3 6.267 0.067-1.467 6.567-4.9zM0 0l7.967 5.867h-2l-5.967-4.467z"></path>
<path fill="#fff" d="M8.033 0v16h5.333v-16zM0 5.333v5.333h21.333v-5.333z"></path>
<path fill="#c8102e" d="M0 6.433v3.2h21.333v-3.2zM9.1 0v16h3.2v-16z"></path>
</svg>
