<!-- Generated by IcoMoon.io -->
<svg version="1.1" xmlns="http://www.w3.org/2000/svg" width="43" height="32" viewBox="0 0 43 32">
<title>tw</title>
<path fill="#f00" d="M0 0h48v32h-48z"></path>
<path fill="#000095" d="M0 0h24v16h-24z"></path>
<path fill="#fff" d="M10.267 8.46l-0.167 0.64 0.627 0.173-0.12-0.473zM13.393 8.8l-0.12 0.473 0.627-0.173-0.167-0.64zM10.607 7.2l-0.34 0.34 0.127 0.46z"></path>
<path fill="#fff" d="M10.393 8l-0.127 0.46 0.34 0.34z"></path>
<path fill="#fff" d="M10.267 7.54l-0.46 0.46 0.46 0.46 0.127-0.46zM11.2 9.393l0.34 0.34 0.46-0.127zM12.46 9.733l0.64 0.167 0.173-0.627-0.473 0.12z"></path>
<path fill="#fff" d="M12.8 9.393l0.473-0.12 0.12-0.473zM10.727 9.273l0.173 0.627 0.64-0.167-0.34-0.34zM12 9.607l0.46 0.127 0.34-0.34z"></path>
<path fill="#fff" d="M11.54 9.733l0.46 0.46 0.46-0.46-0.46-0.127zM10.727 6.727l-0.627 0.173 0.167 0.64 0.34-0.34zM10.607 8.8l0.12 0.473 0.473 0.12zM13.607 8l0.127-0.46-0.34-0.34z"></path>
<path fill="#fff" d="M11.2 6.607l-0.473 0.12-0.12 0.473zM13.393 7.2l-0.12-0.473-0.473-0.12zM13.733 8.46l0.46-0.46-0.46-0.46-0.127 0.46z"></path>
<path fill="#fff" d="M13.393 7.2l-0.593-0.593-0.8-0.213-0.8 0.213-0.593 0.593-0.213 0.8 0.213 0.8 0.593 0.593 0.8 0.213 0.8-0.213 0.593-0.593 0.213-0.8z"></path>
<path fill="#fff" d="M13.393 8.8l0.34-0.34-0.127-0.46zM13.733 7.54l0.167-0.64-0.627-0.173 0.12 0.473zM13.273 6.727l-0.173-0.627-0.64 0.167 0.34 0.34zM11.54 6.267l-0.64-0.167-0.173 0.627 0.473-0.12zM12 6.393l-0.46-0.127-0.34 0.34z"></path>
<path fill="#fff" d="M12.46 6.267l-0.46-0.46-0.46 0.46 0.46 0.127z"></path>
<path fill="#fff" d="M12.8 6.607l-0.34-0.34-0.46 0.127zM11.54 9.733l-0.64 0.167 0.3 1.107 0.8-0.813zM11.2 11.007l0.8 2.993 0.8-2.993-0.8-0.813zM10.727 9.273l-0.627-0.173-0.293 1.093 1.093-0.293z"></path>
<path fill="#fff" d="M9.807 10.193l-0.8 3.007 2.193-2.193-0.3-1.107zM9.007 8.8l-2.207 2.207 3.007-0.813 0.293-1.093z"></path>
<path fill="#fff" d="M10.267 8.46l-0.46-0.46-0.8 0.8 1.093 0.3zM10.267 7.54l-0.167-0.64-1.093 0.3 0.8 0.8z"></path>
<path fill="#fff" d="M9.007 7.2l-3.007 0.8 3.007 0.8 0.8-0.8zM15.007 8.8l-1.107 0.3 0.293 1.093 3.007 0.813z"></path>
<path fill="#fff" d="M13.273 9.273l-0.173 0.627 1.093 0.293-0.293-1.093zM12.46 9.733l-0.46 0.46 0.8 0.813 0.3-1.107zM13.733 8.46l0.167 0.64 1.107-0.3-0.813-0.8z"></path>
<path fill="#fff" d="M12.8 11.007l2.207 2.193-0.813-3.007-1.093-0.293zM13.273 6.727l0.627 0.173 0.293-1.093-1.093 0.293z"></path>
<path fill="#fff" d="M15.007 7.2l2.193-2.193-3.007 0.8-0.293 1.093zM14.193 5.807l0.813-3.007-2.207 2.207 0.3 1.093zM15.007 8.8l2.993-0.8-2.993-0.8-0.813 0.8z"></path>
<path fill="#fff" d="M13.733 7.54l0.46 0.46 0.813-0.8-1.107-0.3zM11.2 5.007l-2.193-2.207 0.8 3.007 1.093 0.293z"></path>
<path fill="#fff" d="M10.727 6.727l0.173-0.627-1.093-0.293 0.293 1.093z"></path>
<path fill="#fff" d="M9.807 5.807l-3.007-0.8 2.207 2.193 1.093-0.3zM12.46 6.267l0.64-0.167-0.3-1.093-0.8 0.8z"></path>
<path fill="#fff" d="M12.8 5.007l-0.8-3.007-0.8 3.007 0.8 0.8z"></path>
<path fill="#fff" d="M11.54 6.267l0.46-0.46-0.8-0.8-0.3 1.093z"></path>
<path fill="#000095" d="M15.407 8c0 1.881-1.525 3.407-3.407 3.407s-3.407-1.525-3.407-3.407c0-1.881 1.525-3.407 3.407-3.407s3.407 1.525 3.407 3.407z"></path>
<path fill="#fff" d="M15.007 8c0 1.661-1.346 3.007-3.007 3.007s-3.007-1.346-3.007-3.007c0-1.661 1.346-3.007 3.007-3.007s3.007 1.346 3.007 3.007z"></path>
</svg>
