<!-- Generated by IcoMoon.io -->
<svg version="1.1" xmlns="http://www.w3.org/2000/svg" width="43" height="32" viewBox="0 0 43 32">
<title>ug</title>
<path fill="#ffe700" d="M-2.667 21.337h48v5.331h-48z"></path>
<path fill="#000" d="M-2.667 16h48v5.331h-48z"></path>
<path fill="#de3908" d="M-2.667 10.669h48v5.331h-48z"></path>
<path fill="#ffe700" d="M-2.667 5.338h48v5.331h-48z"></path>
<path fill="#000" d="M-2.667 0h48v5.331h-48z"></path>
<path fill="#fffdff" d="M26.315 16c0 2.751-2.23 4.981-4.981 4.981s-4.981-2.23-4.981-4.981v0c0-2.751 2.23-4.981 4.981-4.981s4.981 2.23 4.981 4.981v0z"></path>
<path fill="#de3108" d="M20.458 12.181l-0.325-0.594c0.125-0.125 0.331-0.225 0.669-0.225l-0.038 0.656-0.313 0.162z"></path>
<path fill="#ffe700" d="M20.771 12.019l0.044-0.656s0.669-0.037 1.031 0.4l-0.356 0.512-0.725-0.25z"></path>
<path fill="#de3108" d="M21.496 12.269l0.331-0.512c0.219 0.231 0.313 0.394 0.344 0.644 0.006 0.006-0.519 0.131-0.519 0.125l-0.156-0.256z"></path>
<path fill="#000" d="M20.621 20.694s0.619-0.706 1.819-0.556c-0.181-0.294-0.769-0.256-0.769-0.256s-0.175-1.375-0.038-1.45 0.75 0.006 0.75 0.006c0.075 0 0.212-0.212 0.1-0.35-0.106-0.137-0.425-0.656-0.294-0.762 0.131-0.1 0.837 0.063 0.837 0.063l-2-2.563s-0.206-0.969 0.206-1.438c0.494-0.406 0.438-0.85 0.425-0.844-0.069-0.45-0.75-0.769-1.212-0.356-0.269 0.325-0.087 0.575-0.087 0.575s-0.719 0.194-0.744 0.319c-0.031 0.125 0.806-0.019 0.806-0.019l-0.081 0.569s-1.625 1.475-0.375 2.75l0.038-0.050s0.438 0.538 0.894 0.656c0.438 0.438 0.394 0.375 0.394 0.375s0.081 0.694 0 0.831c-0.106-0.031-1.206-0.075-1.369-0.012-0.15 0.050-0.712 0.019-0.575 0.944l0.206-0.469s-0.019 0.331 0.119 0.45c-0.025-0.35 0.131-0.587 0.131-0.587s0.025 0.387 0.113 0.438c0.087 0.063 0.087-0.625 0.563-0.563 0.462 0.056 0.806 0.038 0.806 0.038s0.156 1.337 0.106 1.462c-0.337-0.081-1.15 0.031-1.2 0.238 0.475-0.031 0.694 0.025 0.694 0.025s-0.381 0.344-0.262 0.538z"></path>
<path fill="#9ca69c" d="M20.808 13.425s-1.181 1.3-0.669 2.294c0.025-0.137 0.012-0.225 0.031-0.219-0.031-0.019 0.144 0.119 0.131 0.094 0-0.075-0.050-0.231-0.050-0.231l0.156 0.044-0.094-0.175 0.231 0.025s-0.081-0.213-0.056-0.213l0.188 0.012c-0.337-0.6-0.019-1.1 0.131-1.637z"></path>
<path fill="#9ca69c" d="M21.221 12.306s0.063 0.45-0.188 0.575c-0.031 0.031-0.188 0.081-0.163 0.175 0.025 0.125 0.094 0.1 0.188 0.075 0.256-0.044 0.556-0.588 0.163-0.825z"></path>
<path fill="#fff" d="M20.783 12.688c0 0.052-0.042 0.094-0.094 0.094s-0.094-0.042-0.094-0.094v0c0-0.052 0.042-0.094 0.094-0.094s0.094 0.042 0.094 0.094v0z"></path>
<path fill="#de3108" d="M20.402 13.063c-0.063 0.056-0.387 0.394-0.063 0.519 0.331-0.088 0.238-0.15 0.313-0.225 0-0.156-0.163-0.194-0.25-0.287z"></path>
<path fill="#9ca69c" d="M21.121 16.281c-0.019 0.075-0.094 0.35 0.006 0.563 0.288-0.125 0.419-0.087 0.512-0.025-0.231-0.188-0.325-0.269-0.519-0.538z"></path>
<path fill="#fff" d="M21.608 17.569l0.012 0.637s0.225 0.038 0.325 0 0-0.438-0.337-0.637z"></path>
<path fill="#9ca69c" d="M23.208 17.65s-0.406-0.988-1.45-1.238-0.906-1.363-0.825-1.431c0.050-0.094 0.081-0.244 0.381-0.1s1.688 0.838 1.887 0.875 0.025 1.919 0.012 1.894z"></path>
<path fill="#de3108" d="M22.221 16.406c-0.019 0.012 1.394 0.837 0.969 1.544 0.4-0.269 0.275-0.731 0.275-0.731s0.325 0.856-0.475 1.275c0.087 0.075 0.144 0.063 0.144 0.063l-0.137 0.131s-0.063 0.106 0.475-0.156c-0.144 0.119-0.156 0.206-0.156 0.206s0.038 0.113 0.387-0.194c-0.281 0.306-0.344 0.462-0.344 0.456 0.769-0.063 2.438-2.563-0.525-3.294l0.131 0.137-0.75 0.563z"></path>
<path fill="#fff" d="M22.283 16.163c0.188 0.137 0.256 0.188 0.281 0.25-0.175-0.038-0.331-0.025-0.331-0.025s-0.381-0.363-0.45-0.394c-0.050 0-0.35-0.188-0.35-0.188-0.144-0.075-0.281-0.581 0.262-0.438 0.173 0.093 0.385 0.19 0.604 0.274l0.040 0.013 0.669 0.213 0.387 0.431s-0.688-0.338-0.775-0.344c0.188 0.15 0.294 0.363 0.294 0.363-0.219-0.063-0.406-0.125-0.631-0.156z"></path>
<path fill="#de3908" d="M-2.667 26.669h48v5.331h-48z"></path>
</svg>
