<!-- Generated by IcoMoon.io -->
<svg version="1.1" xmlns="http://www.w3.org/2000/svg" width="43" height="32" viewBox="0 0 43 32">
<title>um</title>
<path fill="#bd3d44" d="M0 0h60.8v2.462h-60.8zM0 4.925h60.8v2.462h-60.8zM0 9.844h60.8v2.469h-60.8zM0 14.769h60.8v2.462h-60.8zM0 19.694h60.8v2.462h-60.8zM0 24.613h60.8v2.462h-60.8zM0 29.538h60.8v2.462h-60.8z"></path>
<path fill="#fff" d="M0 2.462h60.8v2.462h-60.8zM0 7.388h60.8v2.456h-60.8zM0 12.306h60.8v2.463h-60.8zM0 17.231h60.8v2.462h-60.8zM0 22.156h60.8v2.462h-60.8zM0 27.075h60.8v2.462h-60.8z"></path>
<path fill="#192f5d" d="M0 0h24.319v17.231h-24.319z"></path>
<path fill="#fff" d="M2.025 0.738l0.225 0.681h0.712l-0.575 0.419 0.219 0.688-0.581-0.425-0.575 0.419 0.219-0.681-0.581-0.419h0.725zM6.081 0.738l0.219 0.681h0.719l-0.581 0.419 0.219 0.688-0.575-0.425-0.581 0.419 0.219-0.681-0.575-0.419h0.713zM10.131 0.738l0.225 0.681h0.706l-0.575 0.419 0.219 0.688-0.581-0.425-0.575 0.419 0.219-0.681-0.581-0.419h0.719zM14.188 0.738l0.219 0.681h0.719l-0.581 0.419 0.225 0.688-0.581-0.425-0.581 0.419 0.225-0.681-0.581-0.419h0.713zM18.238 0.738l0.225 0.681h0.712l-0.575 0.419 0.219 0.688-0.581-0.425-0.575 0.419 0.219-0.681-0.575-0.419h0.712zM22.294 0.738l0.219 0.681h0.719l-0.581 0.419 0.225 0.688-0.581-0.425-0.581 0.419 0.225-0.681-0.581-0.419h0.719zM4.056 2.462l0.219 0.681h0.719l-0.581 0.419 0.213 0.681-0.563-0.419-0.581 0.419 0.206-0.681-0.563-0.419h0.712zM8.106 2.462l0.225 0.681h0.713l-0.581 0.419 0.225 0.681-0.581-0.419-0.581 0.419 0.225-0.681-0.581-0.419h0.719zM12.162 2.462l0.219 0.681h0.719l-0.581 0.419 0.219 0.681-0.575-0.419-0.581 0.419 0.219-0.681-0.575-0.419h0.713zM16.212 2.462l0.225 0.681h0.712l-0.581 0.419 0.225 0.681-0.581-0.419-0.575 0.419 0.219-0.681-0.581-0.419h0.725zM20.269 2.462l0.219 0.681h0.719l-0.581 0.419 0.219 0.681-0.575-0.419-0.581 0.419 0.219-0.681-0.575-0.419h0.712zM2.025 4.181l0.225 0.694h0.712l-0.575 0.419 0.219 0.681-0.581-0.425-0.575 0.425 0.219-0.688-0.581-0.419h0.725zM6.081 4.181l0.219 0.688h0.719l-0.581 0.419 0.219 0.681-0.575-0.425-0.581 0.425 0.219-0.688-0.575-0.419h0.713zM10.131 4.181l0.225 0.688h0.706l-0.575 0.419 0.219 0.681-0.581-0.425-0.575 0.425 0.219-0.688-0.581-0.419h0.719zM14.188 4.181l0.219 0.688h0.719l-0.581 0.419 0.225 0.681-0.581-0.425-0.581 0.425 0.225-0.688-0.581-0.419h0.713zM18.238 4.181l0.225 0.688h0.712l-0.575 0.419 0.219 0.681-0.581-0.425-0.575 0.425 0.219-0.688-0.575-0.419h0.712zM22.294 4.181l0.219 0.688h0.719l-0.581 0.419 0.225 0.681-0.581-0.425-0.581 0.425 0.225-0.688-0.581-0.419h0.719zM4.056 5.906l0.219 0.681h0.719l-0.581 0.419 0.219 0.688-0.575-0.425-0.581 0.419 0.219-0.681-0.575-0.419h0.712zM8.106 5.906l0.225 0.681h0.713l-0.581 0.419 0.225 0.688-0.581-0.425-0.581 0.419 0.225-0.681-0.581-0.419h0.719zM12.162 5.906l0.219 0.681h0.719l-0.581 0.419 0.219 0.688-0.575-0.425-0.581 0.419 0.219-0.681-0.575-0.419h0.713zM16.212 5.906l0.225 0.681h0.712l-0.575 0.419 0.219 0.688-0.581-0.425-0.575 0.419 0.219-0.681-0.581-0.419h0.725zM20.269 5.906l0.219 0.681h0.719l-0.581 0.419 0.219 0.688-0.575-0.425-0.581 0.419 0.219-0.681-0.575-0.419h0.712zM2.025 7.631l0.225 0.681h0.712l-0.575 0.419 0.219 0.688-0.581-0.425-0.575 0.419 0.219-0.681-0.581-0.419h0.725zM6.081 7.631l0.219 0.681h0.719l-0.581 0.419 0.219 0.681-0.575-0.419-0.581 0.419 0.219-0.681-0.575-0.419h0.713zM10.131 7.631l0.225 0.681h0.706l-0.575 0.419 0.219 0.688-0.581-0.425-0.575 0.419 0.219-0.681-0.581-0.419h0.719zM14.188 7.631l0.219 0.681h0.719l-0.581 0.419 0.225 0.688-0.581-0.425-0.581 0.419 0.225-0.681-0.581-0.419h0.713zM18.238 7.631l0.225 0.681h0.712l-0.575 0.419 0.219 0.688-0.581-0.425-0.575 0.419 0.219-0.681-0.575-0.419h0.712zM22.294 7.631l0.219 0.681h0.719l-0.581 0.419 0.225 0.688-0.581-0.425-0.581 0.419 0.225-0.681-0.581-0.419h0.719zM4.056 9.356l0.219 0.681h0.719l-0.581 0.419 0.219 0.681-0.575-0.425-0.581 0.425 0.219-0.688-0.575-0.419h0.712zM8.106 9.356l0.225 0.681h0.713l-0.581 0.419 0.225 0.681-0.581-0.425-0.581 0.425 0.225-0.688-0.581-0.419h0.719zM12.162 9.356l0.219 0.681h0.719l-0.581 0.419 0.219 0.681-0.575-0.425-0.581 0.425 0.219-0.688-0.575-0.419h0.713zM16.212 9.356l0.225 0.681h0.712l-0.575 0.419 0.219 0.681-0.581-0.425-0.575 0.425 0.219-0.688-0.581-0.419h0.725zM20.269 9.356l0.219 0.681h0.719l-0.581 0.419 0.219 0.681-0.575-0.425-0.581 0.425 0.219-0.688-0.575-0.419h0.712zM2.025 11.075l0.225 0.688h0.712l-0.575 0.419 0.219 0.675-0.581-0.419-0.575 0.419 0.219-0.681-0.581-0.419h0.725zM6.081 11.075l0.219 0.688h0.719l-0.581 0.419 0.225 0.675-0.581-0.419-0.581 0.419 0.225-0.681-0.581-0.419h0.713zM10.131 11.075l0.225 0.688h0.706l-0.575 0.419 0.219 0.675-0.581-0.419-0.575 0.419 0.219-0.681-0.581-0.419h0.719zM14.188 11.075l0.219 0.688h0.719l-0.581 0.419 0.225 0.675-0.581-0.419-0.581 0.419 0.225-0.681-0.581-0.419h0.713zM18.238 11.075l0.225 0.688h0.712l-0.575 0.419 0.219 0.675-0.581-0.419-0.575 0.419 0.219-0.681-0.575-0.419h0.712zM22.294 11.075l0.219 0.688h0.719l-0.581 0.419 0.225 0.675-0.581-0.419-0.581 0.419 0.225-0.681-0.581-0.419h0.719zM4.056 12.8l0.219 0.681h0.719l-0.581 0.419 0.219 0.688-0.575-0.425-0.581 0.419 0.219-0.681-0.575-0.419h0.712zM8.106 12.8l0.225 0.681h0.713l-0.581 0.419 0.225 0.688-0.581-0.425-0.581 0.419 0.225-0.681-0.581-0.419h0.719zM12.162 12.8l0.219 0.681h0.719l-0.581 0.419 0.219 0.688-0.575-0.425-0.581 0.419 0.219-0.681-0.575-0.419h0.713zM16.212 12.8l0.225 0.681h0.712l-0.575 0.419 0.219 0.688-0.581-0.425-0.575 0.419 0.219-0.681-0.581-0.419h0.725zM20.269 12.8l0.219 0.681h0.719l-0.581 0.419 0.219 0.688-0.575-0.425-0.581 0.419 0.219-0.681-0.575-0.419h0.712zM2.025 14.525l0.225 0.681h0.712l-0.575 0.419 0.219 0.681-0.581-0.419-0.575 0.419 0.219-0.688-0.581-0.419h0.725zM6.081 14.525l0.219 0.681h0.719l-0.581 0.419 0.225 0.681-0.581-0.419-0.581 0.419 0.225-0.688-0.581-0.419h0.713zM10.131 14.525l0.225 0.681h0.706l-0.563 0.419 0.219 0.681-0.581-0.419-0.575 0.419 0.219-0.688-0.581-0.419h0.719zM14.188 14.525l0.219 0.681h0.719l-0.581 0.419 0.225 0.681-0.581-0.419-0.581 0.419 0.225-0.688-0.581-0.419h0.713zM18.238 14.525l0.225 0.681h0.712l-0.575 0.419 0.219 0.681-0.581-0.419-0.575 0.419 0.219-0.688-0.575-0.419h0.712zM22.294 14.525l0.219 0.681h0.719l-0.581 0.419 0.225 0.681-0.581-0.419-0.581 0.419 0.225-0.688-0.581-0.419h0.719z"></path>
</svg>
