<!-- Generated by IcoMoon.io -->
<svg version="1.1" xmlns="http://www.w3.org/2000/svg" width="43" height="32" viewBox="0 0 43 32">
<title>un</title>
<path fill="#4b92db" d="M0 0h42.667v32h-42.667z"></path>
<path fill="#fff" d="M23.849 23.48c-0.115 0.125-0.239 0.238-0.373 0.339l-0.007 0.005c-0.848-0.88-1.848-1.848-2.796-1.848-0.588 0-1.008 0.448-1.504 0.76-0.684 0.44-1.624 0.688-2.428 0.364-0.469-0.163-0.863-0.439-1.165-0.796l-0.003-0.004c0.382 0.242 0.848 0.386 1.346 0.386 0.344 0 0.671-0.068 0.971-0.192l-0.017 0.006c0.788-0.328 1.596-0.764 2.496-0.764 1.328 0 2.592 0.9 3.48 1.744zM14.025 20.72c0.88 1 2.316 0.68 3.488 0.928 0.164 0.040 0.32 0.092 0.496 0.064-0.14-0.088-0.328-0.1-0.488-0.16-0.912-0.344-1.052-1.32-1.552-1.988 0.64 0.424 1.164 1 1.76 1.548 0.403 0.335 0.903 0.566 1.452 0.646l0.016 0.002c-0.128 0.048-0.296 0.040-0.44 0.072-0.96 0.24-2.024 0.616-3.048 0.28-0.725-0.247-1.311-0.74-1.672-1.377l-0.008-0.015zM12.617 18.4c0.548 1.244 1.928 1.344 2.84 2.104 0.157 0.14 0.334 0.262 0.526 0.361l0.014 0.007 0.012-0.008c-0.225-0.196-0.423-0.413-0.596-0.649l-0.008-0.011c-0.524-0.76-0.352-1.8-0.756-2.608 0.362 0.402 0.671 0.861 0.909 1.362l0.015 0.034c0.34 0.808 0.456 1.732 1.22 2.348-0.828-0.272-1.78-0.22-2.52-0.704-0.784-0.512-1.508-1.32-1.656-2.232zM12.029 15.888c0.080 1.096 1.24 1.68 1.8 2.58 0.12 0.192 0.24 0.392 0.412 0.544-0.028-0.116-0.12-0.22-0.176-0.332-0.142-0.305-0.225-0.662-0.225-1.039 0-0.089 0.005-0.177 0.014-0.264l-0.001 0.011c0.052-0.56 0.284-1.080 0.196-1.668 0.48 1.036 0.324 2.328 0.6 3.444 0.064 0.248 0.212 0.464 0.304 0.7-0.468-0.36-1.084-0.68-1.6-1.080-0.509-0.369-0.907-0.863-1.152-1.438l-0.008-0.022c-0.115-0.326-0.181-0.703-0.181-1.095 0-0.12 0.006-0.239 0.018-0.356l-0.001 0.015zM12.061 13.872c0.056-0.244 0.1-0.496 0.204-0.72-0.2 1.032 0.488 1.776 0.72 2.672 0.088 0.336 0.12 0.692 0.256 1.008 0.012 0.004 0.024-0.008 0.032-0.016-0.34-0.952 0.16-1.832 0.64-2.58 0.111-0.19 0.197-0.411 0.246-0.646l0.002-0.014c0.052 0.432-0.040 0.928-0.12 1.372-0.1 0.572-0.296 1.108-0.452 1.66-0.044 0.179-0.069 0.384-0.069 0.594 0 0.177 0.018 0.351 0.052 0.518l-0.003-0.017-0.052-0.040c-0.36-0.664-1.072-1.184-1.284-1.912-0.135-0.389-0.213-0.837-0.213-1.304 0-0.203 0.015-0.403 0.043-0.598l-0.003 0.022zM12.441 12.76c0.014-0.767 0.299-1.465 0.763-2.004l-0.003 0.004c0.012-0.008 0.024-0.020 0.040-0.016-0.504 0.76-0.044 1.728-0.112 2.596l-0.064 0.888c0.008 0.008 0.008 0.036 0.032 0.024 0.032-0.1 0.040-0.204 0.056-0.308 0.12-0.72 0.752-1.216 1.284-1.72 0.12-0.114 0.215-0.253 0.277-0.408l0.003-0.008c-0.044 0.36-0.144 0.724-0.304 1.048-0.412 0.832-1.204 1.504-1.348 2.452-0.068-0.908-0.624-1.584-0.624-2.548zM13.761 10.124c0.226-0.271 0.525-0.474 0.867-0.581l0.013-0.004c-0.66 0.452-0.624 1.256-0.824 1.928-0.072 0.244-0.18 0.476-0.24 0.728l0.020 0.016c0.124-0.313 0.308-0.579 0.539-0.795l0.001-0.001c0.46-0.432 1.152-0.696 1.38-1.332-0.012 0.884-0.764 1.556-1.452 2.076-0.304 0.231-0.549 0.522-0.721 0.858l-0.007 0.014c0.024-0.24 0.040-0.448 0.016-0.684-0.072-0.772-0.12-1.64 0.412-2.224zM16.421 8.64c-0.484 0.428-0.808 0.976-1.184 1.468-0.308 0.412-0.736 0.664-1.1 1.008 0.2-0.408 0.232-0.88 0.484-1.276 0.428-0.68 1.14-0.944 1.8-1.2z"></path>
<path fill="#fff" d="M18.825 23.48c0.115 0.125 0.239 0.238 0.373 0.339l0.007 0.005c0.848-0.88 1.848-1.848 2.796-1.848 0.588 0 1.008 0.448 1.504 0.76 0.684 0.44 1.624 0.688 2.428 0.364 0.469-0.163 0.863-0.439 1.165-0.796l0.003-0.004c-0.382 0.242-0.848 0.386-1.346 0.386-0.344 0-0.671-0.068-0.971-0.192l0.017 0.006c-0.788-0.328-1.596-0.764-2.496-0.764-1.328 0-2.592 0.9-3.48 1.744zM28.649 20.72c-0.88 1-2.316 0.68-3.488 0.928-0.164 0.040-0.32 0.092-0.496 0.064 0.14-0.088 0.328-0.1 0.488-0.16 0.912-0.344 1.052-1.32 1.552-1.988-0.64 0.424-1.164 1-1.76 1.548-0.403 0.335-0.903 0.566-1.452 0.646l-0.016 0.002c0.128 0.048 0.296 0.040 0.44 0.072 0.96 0.24 2.024 0.616 3.048 0.28 0.725-0.247 1.311-0.74 1.672-1.377l0.008-0.015zM30.057 18.4c-0.548 1.244-1.928 1.344-2.84 2.104-0.157 0.14-0.334 0.262-0.526 0.361l-0.014 0.007-0.012-0.008c0.225-0.196 0.423-0.413 0.596-0.649l0.008-0.011c0.524-0.76 0.352-1.8 0.756-2.608-0.362 0.402-0.671 0.861-0.909 1.362l-0.015 0.034c-0.34 0.808-0.456 1.732-1.22 2.348 0.828-0.272 1.78-0.22 2.52-0.704 0.784-0.512 1.508-1.32 1.656-2.232zM30.645 15.888c-0.080 1.096-1.24 1.68-1.8 2.58-0.12 0.192-0.24 0.392-0.412 0.544 0.028-0.116 0.12-0.22 0.176-0.332 0.142-0.305 0.225-0.662 0.225-1.039 0-0.089-0.005-0.177-0.014-0.264l0.001 0.011c-0.052-0.56-0.284-1.080-0.196-1.668-0.48 1.036-0.324 2.328-0.6 3.444-0.064 0.248-0.212 0.464-0.304 0.7 0.468-0.36 1.084-0.68 1.6-1.080 0.509-0.369 0.907-0.863 1.152-1.438l0.008-0.022c0.115-0.326 0.181-0.703 0.181-1.095 0-0.12-0.006-0.239-0.018-0.356l0.001 0.015zM30.613 13.872c-0.056-0.244-0.1-0.496-0.204-0.72 0.2 1.032-0.488 1.776-0.72 2.672-0.088 0.336-0.12 0.692-0.256 1.008-0.012 0.004-0.024-0.008-0.032-0.016 0.34-0.952-0.16-1.832-0.64-2.58-0.111-0.19-0.197-0.411-0.246-0.646l-0.002-0.014c-0.052 0.432 0.040 0.928 0.12 1.372 0.1 0.572 0.296 1.108 0.452 1.66 0.044 0.179 0.069 0.384 0.069 0.594 0 0.177-0.018 0.351-0.052 0.518l0.003-0.017 0.052-0.040c0.36-0.664 1.072-1.184 1.284-1.912 0.135-0.389 0.213-0.837 0.213-1.304 0-0.203-0.015-0.403-0.043-0.598l0.003 0.022zM30.233 12.76c-0.014-0.767-0.299-1.465-0.763-2.004l0.003 0.004c-0.012-0.008-0.024-0.020-0.040-0.016 0.504 0.76 0.044 1.728 0.112 2.596l0.064 0.888c-0.008 0.008-0.008 0.036-0.032 0.024-0.032-0.1-0.040-0.204-0.056-0.308-0.12-0.72-0.752-1.216-1.284-1.72-0.12-0.114-0.215-0.253-0.277-0.408l-0.003-0.008c0.044 0.36 0.144 0.724 0.304 1.048 0.412 0.832 1.204 1.504 1.348 2.452 0.068-0.908 0.624-1.584 0.624-2.548zM28.913 10.124c-0.226-0.271-0.525-0.474-0.867-0.581l-0.013-0.004c0.66 0.452 0.624 1.256 0.824 1.928 0.072 0.244 0.18 0.476 0.24 0.728l-0.020 0.016c-0.124-0.313-0.308-0.579-0.539-0.795l-0.001-0.001c-0.46-0.432-1.152-0.696-1.38-1.332 0.012 0.884 0.764 1.556 1.452 2.076 0.304 0.231 0.549 0.522 0.721 0.858l0.007 0.014c-0.024-0.24-0.040-0.448-0.016-0.684 0.072-0.772 0.12-1.64-0.412-2.224zM26.253 8.64c0.484 0.428 0.808 0.976 1.184 1.468 0.308 0.412 0.736 0.664 1.1 1.008-0.2-0.408-0.232-0.88-0.484-1.276-0.428-0.68-1.14-0.944-1.8-1.2z"></path>
<path fill="#fff" d="M27.267 17.467l-0.14-0.080c-0.321 0.652-0.72 1.21-1.194 1.694l0.001-0.001-0.833-0.84c0.392-0.404 0.72-0.873 0.966-1.388l0.014-0.032-0.14-0.080c-0.254 0.534-0.576 0.992-0.961 1.388l0.001-0.001-0.76-0.76c0.313-0.323 0.573-0.7 0.763-1.115l0.010-0.025-0.14-0.080c-0.193 0.427-0.444 0.793-0.748 1.108l0.001-0.001-0.833-0.833c0.222-0.236 0.403-0.515 0.527-0.822l0.006-0.018-0.14-0.080c-0.124 0.31-0.295 0.575-0.508 0.801l0.001-0.001-0.767-0.76c0.208-0.23 0.341-0.531 0.36-0.863l0-0.004h1.080c-0.009 0.299-0.069 0.582-0.173 0.844l0.006-0.017 0.14 0.080c0.11-0.268 0.177-0.578 0.187-0.903l0-0.004h1.187c-0.013 0.536-0.135 1.041-0.343 1.497l0.010-0.024 0.147 0.080c0.209-0.456 0.335-0.989 0.347-1.549l0-0.004h1.080c-0.013 0.753-0.189 1.462-0.493 2.097l0.013-0.030 0.14 0.080c0.302-0.629 0.483-1.365 0.493-2.143l0-0.004h1.193c-0.012 0.989-0.247 1.921-0.657 2.751l0.017-0.037 0.14 0.080c0.418-0.837 0.664-1.823 0.667-2.866v-0.001c0-0.002 0-0.004 0-0.006 0-0.889-0.176-1.737-0.496-2.511l0.016 0.044-0.147 0.067c0.286 0.688 0.456 1.486 0.467 2.323l0 0.004h-1.193c-0.008-0.674-0.142-1.314-0.379-1.902l0.013 0.035-0.147 0.067c0.218 0.532 0.35 1.149 0.36 1.796l0 0.004h-1.093c-0.008-0.496-0.105-0.967-0.276-1.4l0.009 0.027-0.147 0.067c0.153 0.387 0.245 0.835 0.253 1.303l0 0.004h-1.173c-0.008-0.304-0.066-0.591-0.166-0.858l0.006 0.018-0.147 0.067c0.085 0.229 0.138 0.494 0.147 0.77l0 0.004h-1.080c-0.019-0.335-0.152-0.636-0.361-0.868l0.001 0.001 0.767-0.767c0.225 0.238 0.404 0.522 0.521 0.836l0.006 0.017 0.147-0.060c-0.131-0.352-0.321-0.654-0.561-0.908l0.001 0.001 0.84-0.84c0.344 0.357 0.619 0.783 0.804 1.254l0.009 0.026 0.147-0.067c-0.205-0.515-0.494-0.956-0.854-1.328l0.001 0.001 0.767-0.76c0.451 0.466 0.814 1.019 1.061 1.633l0.012 0.034 0.147-0.067c-0.27-0.666-0.646-1.235-1.114-1.714l0.001 0.001 0.84-0.84c0.572 0.583 1.034 1.276 1.351 2.044l0.016 0.043 0.147-0.067c-0.351-0.852-0.843-1.579-1.453-2.186l-0-0c-0.611-0.614-1.343-1.109-2.156-1.444l-0.044-0.016-0.053 0.153c0.81 0.331 1.503 0.791 2.088 1.361l-0.001-0.001-0.84 0.84c-0.47-0.456-1.028-0.826-1.645-1.081l-0.035-0.013-0.067 0.147c0.634 0.261 1.176 0.621 1.634 1.068l-0.001-0.001-0.76 0.76c-0.355-0.344-0.776-0.623-1.24-0.817l-0.026-0.010-0.053 0.147c0.465 0.195 0.863 0.461 1.201 0.788l-0.001-0.001-0.833 0.84c-0.226-0.214-0.491-0.389-0.783-0.513l-0.017-0.007-0.060 0.153c0.288 0.121 0.536 0.283 0.748 0.481l-0.001-0.001-0.773 0.76c-0.23-0.208-0.531-0.341-0.863-0.36l-0.004-0v-1.080c0.322 0.011 0.626 0.081 0.903 0.2l-0.016-0.006 0.060-0.147c-0.279-0.121-0.602-0.196-0.942-0.207l-0.004-0v-1.187c0.499 0.008 0.972 0.11 1.405 0.289l-0.026-0.009 0.060-0.147c-0.425-0.178-0.919-0.285-1.437-0.293l-0.003-0v-1.080c0.663 0.011 1.292 0.147 1.867 0.386l-0.034-0.012 0.053-0.147c-0.558-0.232-1.205-0.37-1.883-0.38l-0.004-0v-1.193c0.841 0.010 1.639 0.181 2.369 0.482l-0.043-0.016 0.053-0.153c-0.721-0.295-1.557-0.467-2.434-0.467-0.009 0-0.018 0-0.027 0h0.001c-0.004 0-0.008 0-0.013 0-1.069 0-2.079 0.256-2.971 0.711l0.037-0.017 0.067 0.133c0.816-0.414 1.779-0.659 2.798-0.667h0.002v1.187c-0.82 0.010-1.592 0.209-2.277 0.554l0.030-0.014 0.073 0.133c0.634-0.319 1.38-0.51 2.17-0.52l0.003-0v1.080c-0.608 0.012-1.18 0.158-1.69 0.41l0.023-0.010 0.067 0.14c0.467-0.231 1.016-0.37 1.597-0.38l0.003-0v1.187c-0.383 0.013-0.741 0.105-1.063 0.26l0.016-0.007 0.067 0.133c0.287-0.135 0.623-0.218 0.977-0.227l0.003-0v1.080c-0.171 0.010-0.33 0.048-0.476 0.11l0.009-0.004 0.067 0.133c0.137-0.055 0.295-0.087 0.461-0.087 0.007 0 0.013 0 0.020 0h-0.001c0.001 0 0.003 0 0.005 0 0.347 0 0.661 0.14 0.889 0.367l-0-0c0.231 0.228 0.373 0.545 0.373 0.895 0 0.004-0 0.008-0 0.012v-0.001c0 0.7-0.567 1.267-1.267 1.267v0c-0.349-0.001-0.665-0.143-0.893-0.373l-0-0c-0.23-0.228-0.373-0.544-0.373-0.893v-0c0-0.001 0-0.003 0-0.005 0-0.35 0.143-0.667 0.373-0.895l0-0c0.115-0.114 0.253-0.207 0.405-0.27l0.008-0.003-0.073-0.14c-0.154 0.066-0.286 0.151-0.401 0.254l0.001-0.001-0.76-0.767c0.189-0.178 0.406-0.327 0.645-0.44l0.015-0.006-0.073-0.133c-0.269 0.125-0.5 0.281-0.702 0.468l0.002-0.002-0.84-0.84c0.282-0.271 0.608-0.501 0.964-0.677l0.023-0.010-0.067-0.133c-0.394 0.194-0.733 0.432-1.028 0.715l0.001-0.001-0.767-0.78c0.369-0.357 0.793-0.66 1.257-0.893l0.029-0.013-0.067-0.133c-0.512 0.254-0.951 0.566-1.335 0.935l0.002-0.002-0.84-0.847c0.464-0.451 0.998-0.834 1.583-1.13l0.037-0.017-0.073-0.14c-1.292 0.659-2.315 1.689-2.949 2.949l-0.017 0.038 0.133 0.067c0.318-0.636 0.71-1.181 1.174-1.654l-0.001 0.001 0.847 0.847c-0.384 0.394-0.707 0.849-0.953 1.349l-0.014 0.031 0.133 0.073c0.252-0.518 0.566-0.963 0.941-1.348l-0.001 0.001 0.767 0.76c-0.302 0.313-0.554 0.676-0.743 1.076l-0.010 0.024 0.133 0.073c0.193-0.409 0.439-0.759 0.734-1.061l-0.001 0.001 0.84 0.84c-0.212 0.222-0.387 0.483-0.513 0.77l-0.007 0.017 0.14 0.080c0.122-0.291 0.286-0.541 0.488-0.755l-0.001 0.001 0.767 0.76c-0.209 0.232-0.342 0.536-0.36 0.87l-0 0.004h-1.080c0.009-0.319 0.077-0.621 0.193-0.896l-0.006 0.016-0.133-0.080c-0.125 0.282-0.202 0.611-0.213 0.956l-0 0.004h-1.187c0.010-0.556 0.137-1.079 0.357-1.55l-0.010 0.024-0.133-0.067c-0.223 0.466-0.36 1.012-0.373 1.589l-0 0.005h-1.080c0.013-0.771 0.196-1.496 0.513-2.143l-0.013 0.030-0.14-0.073c-0.314 0.639-0.503 1.39-0.513 2.183l-0 0.004h-1.193c0.013-1.005 0.255-1.95 0.677-2.79l-0.017 0.037-0.14-0.073c-0.429 0.848-0.68 1.848-0.68 2.907v0c0 0 0 0.001 0 0.001 0 0.663 0.097 1.302 0.279 1.906l-0.012-0.047 0.153-0.040c-0.158-0.519-0.253-1.117-0.26-1.736l-0-0.004h1.193c0.006 0.518 0.086 1.015 0.23 1.484l-0.010-0.037 0.153-0.040c-0.132-0.419-0.212-0.902-0.22-1.403l-0-0.004h1.087c0.007 0.412 0.075 0.805 0.195 1.175l-0.008-0.028 0.16-0.040c-0.11-0.329-0.178-0.709-0.187-1.102l-0-0.004h1.173c0.009 0.294 0.065 0.572 0.159 0.832l-0.006-0.019 0.153-0.040c-0.085-0.229-0.138-0.494-0.147-0.77l-0-0.004h1.080c0.019 0.335 0.152 0.636 0.361 0.868l-0.001-0.001-0.767 0.767c-0.225-0.24-0.404-0.526-0.521-0.843l-0.006-0.017-0.153 0.040c0.132 0.363 0.327 0.674 0.574 0.934l-0.001-0.001-0.847 0.84c-0.39-0.407-0.692-0.903-0.872-1.453l-0.008-0.027-0.16 0.040c0.199 0.607 0.519 1.127 0.934 1.554l-0.001-0.001-0.76 0.767c-0.544-0.561-0.959-1.25-1.197-2.018l-0.010-0.036-0.153 0.040c0.254 0.832 0.684 1.546 1.248 2.128l-0.001-0.001-0.833 0.84c-0.712-0.728-1.253-1.626-1.555-2.628l-0.012-0.045-0.16 0.040c0.33 1.101 0.906 2.043 1.666 2.8l0 0c0.516 0.518 1.117 0.951 1.781 1.276l0.039 0.017 0.080-0.14c-0.668-0.321-1.24-0.725-1.735-1.208l0.001 0.001 0.84-0.84c0.418 0.403 0.905 0.739 1.441 0.987l0.032 0.013 0.080-0.133c-0.556-0.255-1.032-0.584-1.441-0.981l0.001 0.001 0.76-0.76c0.342 0.329 0.744 0.599 1.187 0.79l0.026 0.010 0.080-0.14c-0.457-0.193-0.848-0.454-1.181-0.775l0.001 0.001 0.84-0.84c0.26 0.244 0.571 0.437 0.915 0.561l0.018 0.006 0.073-0.14c-0.347-0.122-0.645-0.306-0.895-0.541l0.001 0.001 0.767-0.767c0.23 0.208 0.531 0.341 0.863 0.36l0.004 0v1.080c-0.265-0.008-0.516-0.056-0.751-0.139l0.018 0.005-0.087 0.133c0.243 0.092 0.523 0.149 0.815 0.16l0.005 0v1.187c-0.51-0.009-0.992-0.116-1.432-0.303l0.025 0.009-0.080 0.133c0.438 0.192 0.947 0.308 1.482 0.32l0.004 0v1.080c-0.734-0.011-1.427-0.177-2.051-0.466l0.031 0.013-0.080 0.133c0.616 0.291 1.336 0.466 2.095 0.48l0.005 0v1.187c-0.976-0.011-1.896-0.238-2.718-0.637l0.038 0.017-0.080 0.133c0.83 0.408 1.807 0.646 2.84 0.647h0c1.053 0 2.067-0.247 2.973-0.707l-0.080-0.147c-0.818 0.425-1.785 0.68-2.809 0.693l-0.004 0v-1.193c0.828-0.012 1.607-0.215 2.296-0.567l-0.030 0.014-0.067-0.14c-0.641 0.328-1.396 0.524-2.197 0.533l-0.003 0v-1.067c0.625-0.015 1.21-0.171 1.729-0.437l-0.022 0.010-0.073-0.14c-0.476 0.242-1.036 0.389-1.63 0.4l-0.004 0v-1.187c0.397-0.011 0.77-0.109 1.102-0.274l-0.015 0.007-0.067-0.147c-0.297 0.149-0.647 0.242-1.016 0.253l-0.004 0v-1.080c0.335-0.019 0.636-0.152 0.868-0.361l-0.001 0.001 0.767 0.767c-0.178 0.165-0.382 0.305-0.605 0.413l-0.015 0.007 0.073 0.147c0.253-0.124 0.47-0.275 0.661-0.455l-0.001 0.001 0.84 0.833c-0.274 0.264-0.588 0.489-0.931 0.663l-0.022 0.010 0.067 0.14c0.384-0.191 0.713-0.425 1.001-0.701l-0.001 0.001 0.76 0.76c-0.363 0.353-0.781 0.653-1.238 0.887l-0.029 0.013 0.080 0.14c0.499-0.254 0.927-0.563 1.301-0.928l-0.001 0.001 0.833 0.84c-0.457 0.447-0.982 0.827-1.557 1.123l-0.036 0.017 0.080 0.147c0.649-0.334 1.205-0.743 1.686-1.226l0-0c0.508-0.508 0.934-1.098 1.256-1.748l0.017-0.039z"></path>
<path fill="#fff" d="M21.713 13.067h-0.040v0.047h0.040zM21.613 13h0.053v0.040h-0.053zM21.52 12.987l0.040 0.007 0.007-0.040h-0.047zM21.48 12.973h-0.047v-0.047l0.053 0.007zM21.093 12.92h0.053v0.040h-0.053zM20.98 13l0.047 0.007v-0.040h-0.040zM20.98 13.067l-0.047-0.020v-0.040l0.060 0.020zM20.887 13.113v-0.040l0.033-0.007 0.007 0.040zM15.647 17.22v-0.033h-0.033v0.067h0.053v0.087h0.040v-0.1zM16.147 17.82l-0.067-0.067-0.060-0.073-0.027-0.067-0.047-0.12 0.1 0.053 0.033 0.093 0.047 0.033 0.047 0.1zM17.527 19.627l-0.007-0.060-0.060-0.080 0.087 0.013 0.080 0.073 0.040 0.087-0.053 0.027-0.020-0.040zM21.127 13.5h-0.067l-0.020-0.147 0.040-0.027v-0.073h-0.233v-0.073l0.027-0.020-0.053-0.020-0.040 0.053-0.013 0.060-0.067 0.013v0.033h-0.047v0.087l-0.187 0.153-0.373-0.013c-0.020 0.067-0.087 0-0.087 0-0.020-0.047-0.107 0-0.107 0 0 0.067-0.133-0.040-0.133-0.040l-0.227-0.167c-0.133-0.12-0.333 0.033-0.34 0.067 0 0.093-0.153 0.020-0.153 0.020s-0.133-0.040-0.153 0.013c-0.020 0.053-0.107 0.040-0.107 0.040l-0.013 0.027-0.067 0.013-0.013 0.040-0.080 0.013h0.2c0.053-0.013-0.020 0.113-0.053 0.107h-0.093l-0.033 0.040h-0.087l-0.040 0.053-0.127-0.007s-0.067 0.060-0.067 0.080c0.007 0.020-0.013 0.080-0.033 0.080s-0.060 0.067-0.047 0.080c0.013 0.020-0.040 0.087-0.040 0.087l-0.013 0.067-0.040 0.020v0.18l-0.080 0.053v0.080l-0.12 0.133 0.013 0.1-0.1 0.113 0.013 0.107-0.060 0.020-0.013 0.047-0.027 0.14 0.067 0.007c0.033-0.013 0.027 0.087 0 0.107-0.027 0.013-0.1 0.040-0.060 0.067s-0.107 0.020-0.107-0.020c0-0.047-0.080-0.080-0.1-0.067s-0.053-0.060-0.053-0.060c-0.067-0.067-0.293 0.007-0.293 0.007l-0.033 0.113c-0.073 0.007-0.12 0.133-0.12 0.133-0.067 0.020-0.107 0.093-0.087 0.113s-0.033 0.027-0.033 0.027v0.147l-0.033 0.047v0.167c0.047 0 0.040 0.067 0.040 0.067-0.067 0.013-0.053 0.1-0.053 0.1l-0.14 0.047-0.027 0.040h-0.173l-0.047 0.040-0.047-0.047h-0.333l-0.013-0.033-0.067-0.013v-0.073h-0.107l-0.020 0.047-0.107 0.007c0.007 0.067-0.107 0.167-0.12 0.14s-0.087-0.1-0.053-0.113c0.033-0.010 0.074-0.020 0.115-0.026l0.005-0.001v-0.047l-0.247-0.007-0.027 0.040-0.1 0.007v0.107l-0.047 0.013c-0.033 0.020 0.007 0.093 0.007 0.093 0.047 0.047 0 0.127 0 0.127-0.047 0.040 0.027 0.113 0.027 0.113 0.053 0.013-0.033 0.053-0.033 0.053 0.013 0.067 0.053 0.087 0.053 0.087-0.040 0.067 0.027 0.1 0.027 0.1l0.007 0.113 0.047 0.027v0.080l0.027 0.047h0.107v-0.173c-0.1-0.107 0.073-0.133 0.080-0.093s0.080 0.067 0.080 0.067c0.013 0.1 0.133 0.16 0.16 0.053 0.033-0.1 0.067-0.040 0.080 0.007 0.020 0.053 0.147 0.167 0.147 0.167h0.1l0.013 0.093c0.113-0.007 0.147 0 0.193 0.16 0.023 0.091 0.088 0.164 0.171 0.199l0.002 0.001 0.093-0.007c0-0.087 0.093 0.013 0.093 0.053s0.18 0.193 0.18 0.193l0.18 0.040 0.167 0.133 0.127-0.013h0.053c0.033-0.113 0.193 0.007 0.2 0.047 0.013 0.040 0.12 0.113 0.133 0.080s0.087-0.013 0.1 0.087c0.013 0.1 0.067 0.080 0.067 0.080l0.373-0.007 0.133-0.113 0.34-0.007c0.173-0.007 0.067-0.247 0.033-0.247-0.060-0.047 0.020-0.24 0.020-0.24l-0.487-0.453c-0.113 0-0.013-0.16-0.013-0.16 0.087-0.053-0.020-0.147-0.020-0.147 0.013-0.080-0.047-0.173-0.047-0.173-0.12-0.080-0.087-0.233-0.087-0.233v-0.113c-0.1-0.093 0.040-0.107 0.040-0.107 0.047-0.080-0.033-0.14-0.033-0.14v-0.087l-0.113-0.013-0.013-0.32-0.24-0.34c-0.047-0.013-0.013-0.1-0.013-0.1 0.067-0.033-0.013-0.113-0.013-0.113v-0.147l0.133-0.013 0.033-0.053h0.067v-0.173c0.027-0.093 0.107-0.047 0.107-0.047l0.093 0.007 0.053-0.1 0.013-0.080h-0.067c-0.087-0.053-0.047-0.227-0.047-0.227 0.133-0.193 0.273-0.080 0.273-0.080l0.093-0.007c0.14 0.093 0.013 0.267 0.013 0.267-0.027 0.040-0.013 0.167-0.013 0.167l0.033 0.22-0.087 0.067c-0.067 0.047-0.067 0.14 0.007 0.16 0.053 0.007 0.033 0.133-0.047 0.047-0.12 0 0.067 0.107 0.013 0.080 0.12 0.067 0.093-0.053 0.093-0.053l0.16-0.127c0.067-0.047 0.167 0.1 0.167 0.12s0.267 0.007 0.267 0.007c0.067 0.047 0.1 0.173 0.1 0.173 0.067-0.1 0.227-0.007 0.113 0.047 0.107 0.067 0.107 0.127 0.107 0.127 0.087-0.027 0.087 0.040 0.087 0.060l0.027-0.1c-0.1-0.073 0.133-0.1 0.067 0.033l-0.040 0.060 0.067 0.053v0.153c0.153-0.013 0.113-0.193 0.113-0.193l0.067-0.013c0-0.067 0.047-0.027 0.047-0.027-0.047-0.227 0.107-0.267 0.107-0.267 0.087-0.027 0.093-0.207 0.093-0.207-0.067-0.027-0.027-0.12 0.040-0.040s-0.040-0.16-0.040-0.16l-0.053-0.047-0.073-0.007-0.007-0.073h-0.12l-0.020 0.093-0.047 0.013-0.013-0.027-0.020 0.067h-0.12l-0.007-0.073 0.067-0.020 0.033-0.040 0.020-0.113h0.087l0.113-0.033c0-0.113 0.067-0.087 0.067-0.087l0.040 0.033 0.060 0.047v0.040l-0.033 0.020-0.007 0.053 0.020 0.080h0.047c0.020-0.113 0.16-0.113 0.2-0.040l0.040-0.1c-0.093-0.047 0-0.12 0.027-0.087s0.087-0.087 0.087-0.087 0.047 0.067 0-0.020c-0.047-0.080 0.033-0.12 0.033-0.12-0.013-0.080 0.087-0.067 0.087-0.067l0.007-0.113h-0.093c-0.020 0.093-0.1 0.007-0.060-0.013s0.080-0.060 0.080-0.060v-0.067l0.040-0.013 0.007-0.067h0.1l0.087-0.040 0.020-0.033 0.093-0.007 0.133-0.12-0.013-0.053c-0.080 0 0-0.067 0-0.067l0.013-0.1z"></path>
<path fill="#fff" d="M18.447 14.84l-0.12-0.013 0.007 0.047h0.033c0.053 0.093 0.007 0.32 0.007 0.32s-0.080 0.007-0.093-0.033c-0.013-0.040-0.047 0.087-0.020 0.113 0.027 0.020 0.12 0 0.133 0.067 0 0.080 0.053-0.040 0.053-0.040v-0.467z"></path>
<path fill="#fff" d="M18.447 15.413l0.040-0.007 0.007-0.047-0.1 0.067-0.067-0.040v0.16l0.107 0.14 0.040-0.093 0.013-0.060-0.047-0.020zM18.5 15.84v-0.067h-0.047v0.060zM18.44 16.16v-0.047l-0.053 0.007v0.047zM18.52 15.953c0.017 0 0.030-0.013 0.030-0.030s-0.013-0.030-0.030-0.030v0c-0 0-0.001 0-0.001 0-0.015 0-0.027 0.012-0.027 0.027 0 0.002 0 0.005 0.001 0.007l-0-0c0 0.013 0.013 0.027 0.027 0.027z"></path>
<path fill="#fff" d="M18.593 16.067c0 0.015-0.012 0.027-0.027 0.027s-0.027-0.012-0.027-0.027c0-0.015 0.012-0.027 0.027-0.027s0.027 0.012 0.027 0.027z"></path>
<path fill="#fff" d="M18.593 15.293c0 0.015-0.012 0.027-0.027 0.027s-0.027-0.012-0.027-0.027c0-0.015 0.012-0.027 0.027-0.027s0.027 0.012 0.027 0.027z"></path>
<path fill="#fff" d="M20.827 14.3l-0.067-0.007-0.020 0.033h-0.033v0.053h0.033l0.007 0.040-0.027 0.027-0.013 0.033-0.053 0.013-0.12 0.113v0.053l-0.040 0.047-0.040 0.107h-0.133l-0.033 0.127 0.020 0.1 0.12 0.047 0.013-0.067 0.040-0.020 0.007-0.067 0.027-0.047 0.040-0.047 0.013-0.053 0.067-0.040 0.080-0.020 0.033-0.040 0.013-0.080v-0.060l0.033-0.040 0.080-0.033v-0.133h-0.040zM21.013 14.76v-0.1l-0.013-0.087-0.1-0.047-0.067 0.067-0.020 0.093v0.067l-0.067 0.013-0.013 0.18-0.053 0.020 0.007 0.067-0.067 0.020-0.080 0.020-0.013 0.087-0.053 0.033-0.027 0.087-0.033 0.193s0.067 0.113 0.093 0.060c0.033-0.053 0.087-0.067 0.087-0.067l0.020-0.040h0.18c0.013-0.067 0.1-0.040 0.1-0.007s0.067 0 0.067 0l0.047-0.067h0.073l0.007-0.087 0.033-0.020v-0.113c0.107-0.033 0.093-0.133 0.093-0.133l0.027-0.033-0.013-0.047c-0.053-0.020-0.027-0.067 0.007-0.053s-0.047-0.067-0.047-0.067c-0.040 0.040-0.067-0.033-0.067-0.033h-0.107zM21.12 15.573c0 0.080-0.107 0.107-0.107 0.107l-0.067-0.020-0.047-0.033v-0.093l0.053-0.007 0.013 0.040 0.153 0.007zM21.48 15.14c0.013 0.067 0.013-0.093 0.040-0.087s0.007-0.093 0.007-0.093l-0.12 0.087c0.060 0.007 0.067 0.067 0.073 0.093zM21.833 14.793c0.027 0.060 0.020 0.147 0.12 0.213 0.033 0.020-0.020 0.067-0.053 0.047-0.049-0.049-0.093-0.104-0.131-0.163l-0.002-0.004v-0.087c0.027-0.053 0.053-0.033 0.067-0.007zM21.853 16.86l0.020 0.033 0.047-0.067-0.040-0.020-0.047 0.033zM21.667 16.733v0.080zM22.627 16.64l0.053-0.033-0.020-0.040-0.053 0.033zM24.553 18.040l0.060 0.033v0.113c0.087 0.080 0.347 0.013 0.347-0.007l-0.013-0.253-0.033-0.033-0.007-0.167c0.027-0.087-0.133-0.213-0.14-0.187-0.013 0.027-0.1 0-0.1 0.033 0 0.027-0.053 0.16-0.027 0.207s-0.020 0.047-0.027 0.093c-0.007 0.047-0.073 0.133-0.067 0.173zM24.407 17.773c-0.013 0.053-0.067 0.080-0.087 0.067-0.027-0.027 0.033 0.027 0.047 0.053s0.053 0.027 0.067 0c0.013-0.027 0-0.087 0.020-0.113 0.013-0.027-0.040-0.033-0.047 0zM24.093 16.533h0.047v0.133h-0.047zM24.787 15.24c-0.033-0.040 0.133-0.113 0.16-0.027 0.027 0.080 0 0.067-0.027 0.060s-0.093 0.020-0.133-0.033zM24.927 14.333v0.040l0.067 0.013 0.007-0.040zM24.627 14.44l0.053 0.033h0.020l0.040-0.027v0.013l0.040-0.013-0.013-0.033v-0.020l-0.027 0.007-0.047 0.033-0.047-0.033zM25 12.8h-0.1s0.033 0.013-0.067-0.073c-0.087-0.087-0.147 0.020-0.147 0.020l-0.107 0.013v0.107l-0.053 0.020v0.067h0.080s0 0.073 0.020 0.040c0.020-0.033 0.187 0.007 0.173 0.093-0.007 0.033 0.167 0.12 0.147 0.227 0.087 0.013 0.067 0.1 0.067 0.1l0.113 0.013 0.033-0.067 0.033 0.007v-0.040l-0.073-0.020-0.013-0.22-0.047-0.033 0.013-0.053-0.053-0.020 0.027-0.087-0.047-0.093zM25.287 13.487h-0.053l-0.12 0.013-0.067 0.133s0.033 0.020 0.067 0.067c0.020 0.047 0.033 0.32-0.047 0.367s0.007 0.020 0.007 0.020l-0.013 0.153c0.020 0.067 0.053 0.033 0.073 0s0.040-0.040 0.067-0.073c0.027-0.033 0.067-0.1 0.073-0.147s0.040-0.12 0.020-0.14c-0.020-0.020 0.020-0.113 0.020-0.113s0.027-0.053 0-0.107 0.007-0.12 0.027-0.147l-0.053-0.027zM25.367 13.767l0.007-0.053h0.040v0.053zM25.367 13.953l-0.033-0.020 0.020-0.040 0.033 0.020zM25.307 13.42l-0.027-0.067s0-0.053 0.013-0.080c0.013-0.027-0.027-0.053-0.047-0.067-0.020 0-0.013-0.053-0.020-0.080 0-0.027-0.053-0.047-0.053-0.047l-0.013-0.127c0-0.020-0.060-0.047-0.040-0.067l0.053-0.060c0.020-0.013-0.020-0.107 0.013-0.087s0.033 0.053 0.047 0.080c0.013 0.027 0 0.12 0.027 0.14 0.033 0.020 0 0.093 0.047 0.093 0.053 0 0.020 0.127 0.020 0.127s-0.013 0.093 0.020 0.1c0.033 0.007 0.013 0.167 0.013 0.167l-0.053-0.033zM24.88 12.32c0.020 0.027 0.060 0.047 0.060 0.073s-0.013 0.047 0.027 0.053c0.040 0.007 0.067 0 0.080 0.027 0.013 0.033 0.013 0.093 0 0.12 0 0.027 0.013 0.067 0.047 0.067s0.040 0 0.040 0.027c0 0.020 0.040-0.073 0.040-0.073-0.033-0.027-0.067-0.087-0.067-0.087l-0.027-0.113c0-0.013-0.047-0.027-0.067-0.033-0.020 0-0.053-0.067-0.053-0.067l-0.080 0.007zM24.947 12.26c-0.020-0.027-0.040-0.047-0.067-0.060s-0.047-0.027-0.073-0.027c-0.025-0.001-0.045-0.022-0.045-0.047 0-0.007 0.002-0.014 0.005-0.020l-0 0c0.013-0.027-0.020-0.040-0.020-0.067s0.020-0.027 0.053-0.007c0.033 0.020 0.027 0.027 0.053 0.060s0.040 0.067 0.067 0.060c0.027-0.007 0.047 0.060 0.067 0.040 0.033-0.020 0.027 0.047 0.027 0.047l-0.067 0.020zM24.167 13.020c0.033 0.040-0.2 0.027-0.2 0s0.020-0.12 0.080-0.1c0.060 0.020 0.067-0.12 0.067-0.12s-0.053 0.007-0.007-0.020c0.047-0.027 0-0.067-0.020-0.087l-0.040-0.053h0.093c0.040-0.027 0.053-0.153 0.053-0.153 0.080 0.027 0.12-0.033 0.12-0.033l0.040 0.080c0.027 0.033-0.067 0.047-0.033 0.067s0.047 0.080 0.033 0.1c-0.013 0.020-0.087 0-0.087-0.020s-0.027 0.033 0 0.067-0.033 0.080-0.047 0.080c-0.013 0-0.1 0.013-0.027 0.053 0.067 0.040 0.153 0.020 0.153 0.020s0.060 0 0.080 0.027c0.020 0.033-0.007 0.040-0.040 0.040l-0.2-0.013s-0.040 0.047-0.020 0.067zM23.74 13.087c0.033-0.007 0.113-0.013 0.133 0 0.007 0.027-0.053 0.053-0.053 0.053l-0.080 0.013c-0.027-0.033-0.033-0.067 0-0.067zM24.6 12.52c0.053-0.027 0.167-0.027 0.16-0.067-0.007-0.047 0.067-0.060 0.067-0.060l0.020 0.080 0.060 0.047v0.067l-0.047 0.013c-0.073 0.020-0.027 0.053-0.027 0.053h-0.167l-0.020-0.067-0.053-0.067zM24.333 12.153c0.047 0-0.007 0.153 0.1 0.14s0 0.047 0.087 0.053c0.080 0.007 0.060-0.060 0.087-0.107s0.013-0.073-0.033-0.087c-0.047-0.013-0.047-0.013-0.067-0.067-0.007-0.053-0.067-0.067-0.067-0.067l-0.013-0.080-0.087 0.053-0.087 0.113c0 0.087 0.047 0.047 0.087 0.047zM24.513 12.72l0.020-0.040 0.040 0.020-0.020 0.040zM24.447 12.653h0.040v0.053h-0.040zM24.48 11.76v0.060h-0.033l-0.007-0.053zM24.367 12.387h0.040v0.033h-0.040zM24.26 12.387v-0.040h0.067v0.033zM23.713 13.040l-0.040-0.020 0.020-0.047 0.040 0.020zM23.5 12.913v-0.040h0.067v0.033zM22.347 12.9l-0.147 0.007v0.040h0.153zM22.107 12.96l-0.013-0.060 0.040-0.007 0.013 0.060zM22.080 13l-0.013-0.033 0.020-0.007 0.013 0.033zM22.413 12.887l-0.007 0.047 0.067 0.007s0.033 0.027 0.033 0.047c0 0.020 0.047 0.040 0.073 0.040s0.1-0.053 0.1-0.053 0.033-0.093 0.007-0.087c-0.027 0.007-0.080 0.047-0.087 0.007 0-0.040-0.087-0.020-0.087-0.020l-0.107 0.013zM22.747 12.82c0 0.013-0.020 0.040 0.020 0.047s0.113-0.027 0.12 0.013c0.007 0.040 0.007 0.067 0.067 0.087 0.035 0.015 0.076 0.025 0.119 0.027h0.001l0.133-0.013s0.087 0.020 0.107 0.033c0.073 0.080 0.12 0.1 0.14 0.067s0-0.113-0.013-0.133c0-0.033-0.1-0.16-0.133-0.133s-0.040 0-0.1 0.020-0.187 0.007-0.193-0.020c0-0.027-0.1-0.040-0.1-0.067s-0.067-0.067-0.060-0.020c0.007 0.040-0.047 0.060-0.060 0.047s-0.053 0.040-0.053 0.040zM24.273 11.953l0.047-0.153c-0.067-0.013-0.053-0.087-0.053-0.087-0.007-0.067-0.1-0.133-0.133-0.107-0.033 0.020-0.020-0.14-0.020-0.14s0.060-0.040 0.087-0.020-0.227-0.34-0.28-0.307c-0.053 0.033-0.173-0.033-0.167-0.093 0.007-0.067-0.24-0.267-0.24-0.267s-0.080-0.053-0.093-0.013c-0.013 0.040-0.040 0.067 0 0.093 0.040 0.020 0.033-0.033 0.080 0.013s0.133 0.107 0.1 0.147c-0.033 0.040-0.067 0.053-0.067 0.053l0.040 0.053h0.073l0.013 0.113s0.080 0.040 0.1 0.087c0.020 0.047 0.020 0.073 0 0.107-0.020 0.027-0.060 0.067-0.053 0.12 0.007 0.047 0.067 0.067 0.067 0.067h0.047l0.040 0.027v0.087c0.053-0.013 0.14 0.067 0.133 0.107 0 0.047 0.013 0.020 0.080 0.067s0.047 0.053 0.093 0.093c0.047 0.033 0.087 0.013 0.107-0.053z"></path>
<path fill="#fff" d="M23.167 11.040c0-0.027-0.020-0.12 0.020-0.113 0.040 0 0.013 0 0.067 0.020s0.047-0.033 0.047-0.033h0.073l0.093 0.067-0.013 0.067h-0.067c-0.033-0.047-0.1-0.027-0.087 0.020s-0.033 0.133-0.060 0.14c-0.027 0.007-0.113 0.007-0.107-0.033l0.033-0.133zM23.113 10.86v-0.060s0-0.053-0.040-0.053-0.093-0.040-0.080-0.067c0.013-0.027-0.113-0.053-0.113-0.053s-0.113-0.107-0.067-0.093c0.033 0.013 0.013-0.047 0.013-0.047s-0.080 0.013-0.1 0c-0.020 0-0.013-0.067-0.013-0.067s-0.080-0.013-0.080 0 0.027 0.027 0.040 0.067c0.013 0.040 0.007 0.107 0.067 0.12 0.067 0.013 0.073 0.027 0.080 0.053s0.080 0.033 0.080 0.033l0.053 0.027 0.16 0.133zM22.4 10.167l-0.020-0.053-0.053-0.013v0.067zM22.38 9.887c-0.067-0.053 0.093 0.040 0.093 0.040 0.053 0 0.087 0.040 0.087 0.060s0.067 0.013 0.067 0.013l0.007-0.047-0.053-0.067-0.047-0.033s-0.067-0.007-0.067-0.027c0-0.020-0.067 0.080-0.093 0.060zM23.6 9.927c-0.020 0.060-0.027 0.14-0.060 0.14s-0.020 0.087-0.020 0.087l0.113 0.007c0.027 0.007 0.027 0.073 0.027 0.073 0.1 0 0.14 0.133 0.133 0.167-0.020 0.033 0.033 0.033 0.033 0.033s0 0.107-0.013 0.133c-0.013 0.027 0.087 0.047 0.113 0.087s-0.013 0.173-0.033 0.18c-0.020 0.013 0.053 0.033 0.047 0.067s0.020 0 0.027 0.053l0.020 0.167 0.093 0.007c0.013-0.087 0.187-0.093 0.213-0.080 0.113 0.040 0.2 0.213 0.2 0.253s-0.073 0.047-0.073 0.047l0.013 0.2c0.113 0.033 0.2 0.2 0.193 0.22-0.013 0.027 0.080 0.020 0.080 0.020 0.013-0.12 0.127-0.080 0.133-0.040 0 0.040 0.027 0.133 0.027 0.133l0.033 0.053 0.047 0.047h0.067l0.027 0.040 0.080 0.013s0.073 0.080 0.080 0.1c0.007 0.020 0.107 0.013 0.133 0.020 0.027 0 0.067 0.027 0.073 0.060s0.047 0.087 0.047 0.087 0.080 0.020 0.087 0.047l0.040 0.087 0.067 0.053 0.007 0.067h0.073l0.020 0.087 0.12-0.007 0.067-0.047c0.063-0.031 0.114-0.077 0.152-0.132l0.001-0.001c0.007-0.033 0.020-0.133 0.087-0.113s0.020-0.147 0.020-0.147-0.093-0.067-0.087-0.1c0.007-0.033-0.093-0.1-0.087-0.133 0.007-0.020-0.087-0.080-0.080-0.107s-0.047-0.1-0.047-0.1l-0.093-0.087-0.013-0.067h-0.080l-0.16-0.2 0.007-0.053h-0.047v-0.080l-0.047-0.027h-0.067l-0.153-0.167-0.013-0.073h-0.067l0.013-0.14c0.047-0.067 0.020-0.18 0.020-0.18s-0.093 0.047-0.14 0.027c-0.047-0.020 0.020-0.067 0.020-0.067v-0.053l-0.040-0.040s-0.113 0.013-0.12-0.007l-0.027-0.107-0.007-0.113-0.047-0.020-0.007-0.047-0.073 0.007v-0.080l-0.040-0.013-0.040-0.020-0.007-0.080-0.147-0.007-0.047-0.067-0.053-0.080-0.167-0.013-0.040-0.040-0.067-0.013-0.047-0.020-0.020 0.033h-0.133v0.047c-0.067 0.033-0.333 0-0.333 0.027zM24.3 9.747c-0.013-0.047 0.133-0.1 0.167-0.060s0.127 0.047 0.133 0.253c0.007 0.067-0.113-0.073-0.113-0.073l-0.1-0.033c-0.053-0.013-0.080-0.047-0.087-0.080zM22.347 9.833l-0.033-0.020 0.027-0.060 0.033 0.020zM22.007 9.167l-0.087-0.087v-0.067l-0.027-0.033-0.027-0.093-0.087-0.027-0.087 0.033-0.093 0.060-0.1 0.013-0.053 0.067 0.213 0.013 0.040 0.067 0.153 0.013 0.1 0.1c0.087 0.033 0.107-0.013 0.053-0.060zM21.993 8.833c-0.013-0.053-0.1 0.080-0.013 0.107s0.173 0 0.173 0l0.020-0.040 0.333 0.007c0.027-0.027 0.040-0.067 0.040-0.067s0.080-0.027 0.113-0.013 0-0.093-0.027-0.080c-0.033 0.013-0.1 0-0.1 0h-0.12c-0.007-0.040-0.113-0.020-0.12 0-0.007 0.033-0.047 0.040-0.047 0.040l-0.153 0.013c-0.013 0.040-0.093 0.067-0.1 0.040zM21.333 9.98c0.1 0.033 0.14 0 0.147-0.020 0.007-0.027 0.013-0.033 0.053-0.040s-0.007-0.087-0.047-0.080c-0.040 0-0.080-0.013-0.087-0.047-0.007-0.040-0.073-0.127-0.080-0.060s-0.047 0.067-0.040 0.12c0.007 0.047 0.027 0.113 0.053 0.127zM20.567 10.053c0-0.027 0.133-0.027 0.153-0.007s0.007 0.053 0.067 0.053 0.033 0.040 0.027 0.067c0 0.013-0.067 0.007-0.080-0.013 0-0.020-0.107-0.027-0.107-0.027s-0.053-0.040-0.060-0.073zM22.833 8.607l-0.053 0.040-0.033-0.033-0.033 0.033 0.060 0.060 0.013-0.013 0.067-0.053zM22.467 8.487l-0.047-0.027-0.020 0.033 0.053 0.033h0.020l0.073-0.047-0.020-0.033zM22.247 9.873h-0.007l-0.067-0.007v0.040h0.053l0.040 0.067 0.033-0.020-0.047-0.067zM20.047 11.753l0.007 0.073h0.1c0.040 0-0.033-0.047-0.033-0.047s-0.080 0.007-0.067-0.027zM20.18 11.753l0.020-0.027 0.040 0.033-0.027 0.027zM18.967 10.493l0.027-0.027 0.040 0.040-0.027 0.027zM20.9 19.18l-0.067-0.033-0.020 0.033 0.040 0.020-0.013 0.013 0.027 0.033 0.053-0.053zM20.38 18.693l-0.027-0.033-0.040 0.033-0.020 0.020 0.027 0.013 0.047 0.033 0.020-0.033-0.027-0.020zM25.327 17.413c-0.007-0.033-0.047-0.047-0.053-0.053l-0.013 0.040 0.013 0.007 0.007 0.033-0.007 0.013 0.027 0.027c0.027-0.020 0.033-0.047 0.027-0.067zM25.393 17.28h-0.067v-0.060l0.067 0.013zM26.927 16.76c0.033-0.020 0.067-0.053 0.067 0.027-0.007 0.073-0.040 0.047-0.067 0.073-0.020 0.027-0.040-0.073 0-0.1zM27.267 16.473c-0-0.001-0-0.002-0-0.003s0-0.002 0-0.003v0c-0.001-0.017-0.006-0.033-0.014-0.047l0 0.001-0.033 0.020 0.007 0.027c0 0.013 0 0.027 0.013 0.033 0.007 0.007 0.013 0.007 0.027 0l-0.007-0.033 0.007 0.007zM27.18 16.507l0.027 0.080 0.033-0.013c-0.007-0.021-0.014-0.048-0.019-0.075l-0.001-0.005-0.040 0.013zM27.033 16.667h-0.040c0 0.027 0 0.067 0.033 0.067l0.013-0.033-0.007-0.033zM26.86 15.867c-0.002-0.016-0.012-0.028-0.026-0.033l-0-0c-0.027-0.013-0.073 0.007-0.1 0.027l0.020 0.033c0.027-0.020 0.060-0.027 0.067-0.027l0.040-0.007zM25.013 13.707c-0.027 0.027-0.087 0.040-0.087 0.040l-0.020 0.067-0.027 0.033v0.067c0 0.047-0.067 0.073-0.067 0.073l-0.027 0.033h-0.18c-0.067-0.027-0.020-0.107 0.020-0.1s-0.007-0.113-0.007-0.113l0.053-0.007s0-0.12 0.027-0.12c0.020 0-0.007-0.040-0.033-0.067-0.027-0.020-0.067-0.087-0.087-0.080h-0.133l-0.020 0.040-0.073 0.013-0.007 0.067c-0.040 0.053-0.2 0.153-0.133-0.013l0.027-0.047v-0.060h-0.12s-0.067-0.027-0.067-0.053v-0.060l-0.14-0.153-0.167-0.020-0.013-0.033-0.1-0.013c-0.12-0.067-0.227-0.007-0.2 0.093 0.013 0.1 0.047 0.14-0.020 0.14s-0.080-0.053-0.080-0.053-0.053-0.020-0.053 0.007-0.020 0.080 0 0.107c0.020 0.027-0.027 0.067-0.047 0.047s-0.067-0.080-0.060-0.1c0.013-0.020-0.093-0.147 0.013-0.167s0-0.080 0.033-0.093l0.053-0.027h0.053l0.033-0.027-0.087-0.013-0.053-0.007-0.1-0.007c-0.055 0.034-0.097 0.084-0.119 0.145l-0.001 0.002c-0.053 0.1-0.18-0.040-0.133-0.093s-0.147-0.007-0.18 0.020-0.133 0.013-0.133 0.013c-0.020 0.060-0.113-0.007-0.087-0.047s0.027-0.067 0.027-0.067l-0.033-0.013-0.040 0.080c-0.087 0-0.113 0.053-0.1 0.087 0.020 0.033-0.027-0.007-0.040 0.040-0.007 0.047 0.013 0.047 0.047 0.067 0.040 0.020-0.020 0.020 0.007 0.053s0.107 0 0.067 0.047c-0.053 0.047-0.14 0.027-0.14 0.027-0.007 0.067-0.133 0.047-0.147 0.027l-0.113-0.14-0.133-0.007c-0.007-0.093 0.067-0.047 0.093-0.12s0.040-0.2 0.040-0.2-0.107 0-0.113 0.027c-0.007 0.033-0.073 0.060-0.073 0.060s-0.053 0.020-0.033 0.047c0.020 0.027-0.040 0.040-0.040 0.040s0.007 0.040-0.007 0.060c-0.053 0.053-0.187 0-0.207-0.013l-0.080-0.033-0.080-0.053-0.093 0.040-0.027 0.027h-0.1l-0.007 0.080 0.18 0.020 0.013 0.167-0.073-0.027h-0.047l-0.020-0.040h-0.040v0.14l0.040 0.033 0.033 0.033 0.067 0.007 0.013 0.087h0.167l0.020 0.040h0.1l0.193 0.2-0.013 0.067-0.033 0.013c0.013 0.047-0.087 0.020-0.087 0.020v0.040l0.047 0.007 0.047 0.027 0.067-0.113c0.067-0.047 0.107 0.020 0.113 0.067 0 0.033-0.033 0.027-0.033 0.027v0.1l0.040 0.013c0.067 0.080-0.027 0.127-0.027 0.127l-0.020 0.067c-0.020 0.060-0.093 0.047-0.093 0.047l-0.027 0.040-0.080 0.020 0.16 0.020c0.013-0.053 0.053-0.067 0.067-0.040 0.027 0.027 0.027 0.073 0.027 0.073l0.040 0.007-0.007 0.073 0.040 0.013v0.22l0.047 0.053c0.080-0.033 0.080 0.020 0.040 0.047s-0.013 0.147-0.013 0.147l-0.033 0.033v0.053l-0.040 0.027v0.080c-0.067-0.033-0.147-0.020-0.167 0-0.067-0.040-0.187-0.027-0.187 0 0.040 0.060-0.047 0.067-0.047 0.067l-0.047 0.060c0.033 0.067-0.033 0.073-0.033 0.073v0.133l-0.080 0.067v0.18c0 0.047 0.107 0.053 0.127 0.027s0.1 0.053 0.1 0.053h0.060l0.013-0.12-0.040-0.020v-0.2l0.067-0.067c0.080-0.033 0.053 0.167 0.053 0.187 0 0.080 0.040 0.067 0.067 0.053 0.067-0.027 0.020 0.080-0.033 0.067-0.053 0-0.020 0.067-0.020 0.067l0.033 0.020-0.067 0.047-0.047 0.060-0.067-0.020-0.080-0.007-0.027-0.047-0.047-0.007-0.007 0.093-0.033 0.040-0.080 0.080c0.107 0-0.013 0.073-0.040 0.073 0.060 0.020-0.007 0.080-0.16 0.033v0.047l-0.053 0.007 0.047 0.060h0.053l-0.020 0.12c0 0.087-0.22 0.027-0.24 0v0.133h-0.047l0.007 0.080v0.113l0.067-0.013v0.047l0.18 0.007 0.26-0.273 0.153-0.033c0.013-0.067 0.080 0.013 0.080 0.013 0.067-0.007 0.080 0.040 0.080 0.040l0.087 0.013c0.067 0.020 0.027 0.027 0.033 0.053 0 0.040 0.040 0.027 0.040 0.027l0.013-0.087 0.040 0.007-0.040-0.047-0.073-0.033-0.080-0.033c-0.053-0.073 0.013-0.067 0.067-0.053h0.087s0.1 0.133 0.1 0.167 0.047 0.040 0.047 0.040h0.060l0.020 0.040h0.060l0.020 0.040h0.12v-0.060l-0.107-0.020-0.007-0.067-0.080-0.020c-0.027-0.113 0.020-0.147 0.053-0.093h0.040l-0.013-0.093 0.047-0.013-0.013-0.147-0.040-0.013v-0.047l0.167 0.007c-0.013-0.087 0-0.127 0-0.127h0.053v0.033l0.207 0.020 0.147-0.167c-0.007-0.013 0.013-0.020 0-0.033-0.027-0.020-0.053 0-0.087-0.020s0-0.133 0-0.167c-0.013-0.027 0.107-0.067 0.087 0-0.020 0.053 0 0.087 0 0.087 0.087-0.087 0.16 0 0.153 0.027 0 0.020 0.047 0.040 0.080 0.020s0.073 0.060 0.067 0.1c-0.020 0.040-0.133 0.033-0.147-0.007 0-0.040-0.027-0.027-0.040-0.007s-0.067 0.033-0.107 0.013c-0.003-0.004-0.005-0.008-0.007-0.013l-0-0-0.147 0.167h0.007c0.080 0.047 0.040 0.107 0.013 0.12s-0.067 0.013-0.067 0.013l-0.020 0.027-0.173 0.013-0.013 0.067c-0.080-0.007-0.113 0.087-0.093 0.133s0 0.087 0 0.087l0.067 0.033 0.1-0.027c0.013-0.067 0.067-0.080 0.12-0.12s0.14 0.067 0.113 0.127c-0.027 0.053-0.027 0.073-0.027 0.073l0.007 0.067-0.067 0.020-0.053 0.027v0.033h-0.187l-0.027 0.033-0.087 0.007-0.027 0.047h-0.067s-0.093 0.053-0.053 0.107c0.040 0.053-0.167 0.047-0.213-0.027-0.013 0.067-0.087 0-0.087 0l-0.073-0.013-0.007-0.1c-0.013-0.067-0.14-0.067-0.133-0.020 0 0.047-0.24 0.020-0.24 0.020l-0.080 0.033-0.073 0.047-0.007 0.033-0.12 0.013-0.053 0.027-0.020-0.040h-0.053l-0.053 0.067c-0.133 0.013-0.267 0.093-0.26 0.133 0.013 0.027-0.053 0.067-0.053 0.067l-0.060 0.013-0.040 0.067-0.080 0.020-0.013 0.147-0.040 0.027v0.060l-0.047 0.013v0.033h-0.067l0.040 0.107 0.053 0.027c0.093 0.013 0.053 0.133 0.053 0.133h0.053l0.027 0.073 0.053 0.113c0.020 0.080 0.080 0.060 0.107 0.053s0.053 0.080 0.053 0.080l0.267 0.007s-0.013 0.027 0.033 0.040c0.047 0.013 0.353 0.027 0.367 0.007-0.013-0.060 0.167-0.073 0.24-0.020 0.067 0.053 0.173 0.020 0.173 0.020l0.1 0.12 0.067 0.153 0.113 0.033 0.080 0.020 0.027 0.113h0.060l0.020 0.080c0.067 0.053-0.020 0.167-0.020 0.167v0.153l0.053 0.027-0.007 0.053 0.087 0.087h0.1l0.247 0.273 0.2 0.067 0.033 0.107 0.053-0.007 0.040-0.033 0.16-0.007 0.080-0.080 0.087-0.013 0.733-0.627-0.067-0.040v-0.147c0.127-0.087 0.133-0.247 0.020-0.26-0.087-0.007-0.047-0.1 0.033-0.113l0.047-0.020v-0.060l0.153-0.14v-0.107l-0.333-0.28c-0.147-0.053 0-0.38 0.1-0.373s-0.007-0.493-0.007-0.493l-0.053-0.027 0.013-0.167h-0.073l-0.12 0.16-0.033 0.107c-0.013 0.14-0.427 0.113-0.447 0.093s-0.16-0.080-0.16-0.080-0.107-0.087-0.127-0.067c-0.020 0.033-0.113-0.027-0.113-0.007s-0.087-0.053-0.087-0.053l-0.133-0.047 0.1-0.020-0.020-0.080 0.173 0.087c0.020 0.027 0.107 0.020 0.107 0.020l0.027 0.033s0.053 0 0.087 0.033c0.033 0.047 0.207 0.013 0.207 0.013l0.047 0.040 0.073 0.027h0.207l0.007-0.127 0.040-0.040v-0.080l0.040-0.040v-0.067l0.040-0.013 0.007-0.147 0.033-0.007v-0.327l-0.1-0.093c-0.007 0.033-0.113 0.033-0.113 0.033s-0.027 0.047-0.047 0.047c-0.020 0 0.027 0.067 0.013 0.1-0.013 0.040-0.067 0.040-0.067 0.040l-0.1 0.027-0.027 0.033h-0.107l-0.013-0.087 0.12-0.033 0.067-0.033 0.033-0.067c0.007-0.067 0.087-0.060 0.087-0.060s0.153-0.133 0.16-0.187c0.007-0.067 0.060-0.233 0.153-0.233h0.173c0.067-0.027 0.047-0.113 0.047-0.113l0.087-0.013 0.013 0.047s0.12 0.013 0.133 0c0.013-0.027 0.040-0.067 0.067-0.053 0.040 0.020 0.147-0.047 0.147-0.047 0-0.047 0.173-0.027 0.173-0.027l0.020-0.067s-0.113-0.153-0.133-0.153c-0.020 0-0.133-0.093-0.14-0.060-0.107-0.027-0.1-0.173-0.1-0.173l-0.040-0.093c0-0.053-0.1-0.167-0.12-0.153-0.030-0.018-0.050-0.050-0.050-0.087s0.020-0.069 0.050-0.086l0-0c0.027 0 0.093-0.1 0.093-0.1l0.033-0.093 0.113-0.033 0.013-0.087-0.067-0.007s0.067-0.127 0.107-0.127 0.253 0 0.267-0.013c0.027-0.013 0.067-0.12 0.067-0.133 0-0.027 0.053-0.033 0.067-0.040 0.027 0 0.067-0.060 0.087-0.087 0.013-0.027-0.033-0.2-0.067-0.167z"></path>
<path fill="#fff" d="M21.333 16.133c0.007 0 0.020 0.033 0.040 0.027 0.020 0 0.033 0.040 0.007 0.040-0.013 0-0.013 0.020-0.013 0.033 0 0.007 0 0.033-0.020 0.053-0.013 0.013-0.027 0-0.047-0.007-0.020-0.013-0.033-0.013-0.060-0.013-0.020 0 0 0.040 0 0.040s-0.107 0-0.087-0.020c0.020-0.013 0.040-0.020 0.027-0.027-0.013-0.013 0-0.020 0-0.040s0.047-0.013 0.033-0.027c-0.013-0.013 0-0.073 0.027-0.040l0.013-0.033c-0.013-0.020 0-0.020-0.033-0.033s-0.007-0.067-0.007-0.067v-0.047c0.013-0.047 0.113-0.053 0.12-0.007v0.073l0.033 0.013s-0.007 0.027-0.033 0.027 0 0.013-0.013 0.033l0.013 0.027zM21 16.187c0.020-0.027 0.053-0.16 0.093-0.12s0.067 0 0.067 0 0.020 0.020 0.007 0.067c-0.007 0.033-0.020 0.073-0.040 0.080-0.027 0-0.047 0.020-0.080 0.027-0.027 0-0.040-0.053-0.040-0.053z"></path>
</svg>
