<!-- Generated by IcoMoon.io -->
<svg version="1.1" xmlns="http://www.w3.org/2000/svg" width="48" height="32" viewBox="0 0 48 32">
<title>unknown</title>
<path fill="#64666d" d="M48 0.031h-48v31.938h48v-31.938z"></path>
<path fill="#fff" d="M25.561 21.401v3.933h-3.404v-3.933h3.404zM18.667 12.974c0.014-0.919 0.145-1.762 0.39-2.528 0.26-0.766 0.614-1.43 1.062-1.992 0.462-0.562 1.012-0.996 1.648-1.302 0.65-0.323 1.373-0.485 2.168-0.485 1.026 0 1.879 0.17 2.558 0.511 0.694 0.323 1.25 0.732 1.669 1.226s0.715 1.030 0.889 1.609c0.188 0.562 0.282 1.090 0.282 1.583 0 0.817-0.094 1.49-0.282 2.017-0.173 0.528-0.397 0.979-0.672 1.353-0.26 0.375-0.557 0.698-0.889 0.97-0.318 0.255-0.621 0.519-0.91 0.792-0.289 0.255-0.549 0.553-0.78 0.894-0.217 0.34-0.354 0.766-0.412 1.277v0.97h-2.927v-1.149c0.043-0.732 0.159-1.345 0.347-1.839 0.202-0.494 0.434-0.911 0.694-1.251 0.26-0.357 0.535-0.664 0.824-0.919s0.556-0.511 0.802-0.766c0.246-0.255 0.441-0.536 0.585-0.843 0.159-0.306 0.231-0.689 0.217-1.149 0-0.783-0.166-1.362-0.499-1.736-0.318-0.374-0.766-0.562-1.344-0.562-0.39 0-0.73 0.094-1.019 0.281-0.275 0.17-0.506 0.409-0.694 0.715-0.173 0.289-0.304 0.638-0.39 1.047-0.087 0.392-0.13 0.817-0.13 1.277h-3.187z"></path>
</svg>
