<!-- Generated by IcoMoon.io -->
<svg version="1.1" xmlns="http://www.w3.org/2000/svg" width="43" height="32" viewBox="0 0 43 32">
<title>uy</title>
<path fill="#fff" d="M0 0h42.667v32h-42.667z"></path>
<path fill="#0038a8" d="M17.733 3.553h24.933v3.56h-24.933zM17.733 10.667h24.933v3.553h-24.933zM0 17.78h42.667v3.553h-42.667zM0 24.887h42.667v3.56h-42.667z"></path>
<path fill="#fcd116" d="M8.484 10.625l0.588 0.879c-2.418 1.75-0.942 2.785-2.656 3.345 1.066-1.040-0.168-1.128 0.73-3.296"></path>
<path fill="#fcd116" d="M8.887 8.887h1.173l-1.173 6.453-1.173-6.453h1.173v6.453"></path>
<path fill="#fcd116" d="M7.373 9.831l-0.205 1.038c-2.947-0.473-2.635 1.303-4.243 0.488 1.489 0.018 0.679-0.916 2.847-1.814"></path>
<path fill="#fcd116" d="M8.887 8.887l0.83 0.83-5.393 3.734 3.734-5.393 0.83 0.83-4.563 4.563"></path>
<path fill="#fcd116" d="M7.148 8.484l-0.879 0.588c-1.75-2.418-2.785-0.942-3.345-2.656 1.040 1.066 1.128-0.168 3.296 0.73"></path>
<path fill="#fcd116" d="M8.887 8.887v1.173l-6.453-1.173 6.453-1.173v1.173h-6.453"></path>
<path fill="#fcd116" d="M8.887 8.887l-0.83 0.83-3.734-5.393 5.393 3.734-0.83 0.83-4.563-4.563"></path>
<path fill="#fcd116" stroke="#000" stroke-linejoin="miter" stroke-linecap="square" stroke-miterlimit="20" stroke-width="0.0400" d="M9.289 7.148l-0.588-0.879c2.418-1.75 0.942-2.785 2.656-3.345-1.066 1.040 0.168 1.128-0.73 3.296"></path>
<path fill="none" stroke="#000" stroke-linejoin="miter" stroke-linecap="butt" stroke-miterlimit="20" stroke-width="0.0400" d="M9.71 6.899c1.334-2.199 0.459-3.408 1.646-3.975"></path>
<path fill="#fcd116" stroke="#000" stroke-linejoin="miter" stroke-linecap="butt" stroke-miterlimit="20" stroke-width="0.0400" d="M8.887 8.887h-1.173l1.173-6.453 1.173 6.453h-1.173v-6.453"></path>
<path fill="none" stroke="#000" stroke-linejoin="miter" stroke-linecap="butt" stroke-miterlimit="20" stroke-width="0.0400" d="M10.874 8.063c2.498-0.612 2.735-2.085 3.975-1.646"></path>
<path fill="#fcd116" stroke="#000" stroke-linejoin="miter" stroke-linecap="square" stroke-miterlimit="20" stroke-width="0.0400" d="M10.4 7.942l0.205-1.038c2.947 0.473 2.635-1.303 4.243-0.488-1.489-0.018-0.679 0.916-2.847 1.814"></path>
<path fill="#fcd116" stroke="#000" stroke-linejoin="miter" stroke-linecap="butt" stroke-miterlimit="20" stroke-width="0.0400" d="M8.887 8.887l-0.83-0.83 5.393-3.734-3.734 5.393-0.83-0.83 4.563-4.563"></path>
<path fill="none" stroke="#000" stroke-linejoin="miter" stroke-linecap="butt" stroke-miterlimit="20" stroke-width="0.0400" d="M10.874 9.71c2.199 1.334 3.408 0.459 3.975 1.646"></path>
<path fill="#fcd116" stroke="#000" stroke-linejoin="miter" stroke-linecap="square" stroke-miterlimit="20" stroke-width="0.0400" d="M10.625 9.289l0.879-0.588c1.75 2.418 2.785 0.942 3.345 2.656-1.040-1.066-1.128 0.168-3.296-0.73"></path>
<path fill="#fcd116" stroke="#000" stroke-linejoin="miter" stroke-linecap="butt" stroke-miterlimit="20" stroke-width="0.0400" d="M8.887 8.887v-1.173l6.453 1.173-6.453 1.173v-1.173h6.453"></path>
<path fill="#fcd116" stroke="#000" stroke-linejoin="miter" stroke-linecap="square" stroke-miterlimit="20" stroke-width="0.0400" d="M9.831 10.4l1.038 0.205c-0.473 2.947 1.303 2.635 0.488 4.243 0.018-1.489-0.916-0.679-1.814-2.847"></path>
<path fill="#fcd116" stroke="#000" stroke-linejoin="miter" stroke-linecap="butt" stroke-miterlimit="20" stroke-width="0.0400" d="M8.887 8.887l0.83-0.83 3.734 5.393-5.393-3.734 0.83-0.83 4.563 4.563"></path>
<path fill="#fcd116" stroke="#000" stroke-linejoin="miter" stroke-linecap="butt" stroke-miterlimit="20" stroke-width="0.0400" d="M11.038 8.887c0 1.188-0.963 2.151-2.151 2.151s-2.151-0.963-2.151-2.151c0-1.188 0.963-2.151 2.151-2.151s2.151 0.963 2.151 2.151z"></path>
<path fill="#000" d="M10.471 8.026c-0.137 0.156-0.215-0.117-0.704-0.117s-0.567 0.293-0.645 0.235 0.411-0.411 0.567-0.43 0.606 0.137 0.782 0.313zM9.904 8.202c0.137 0.117 0.020 0.372-0.117 0.372s-0.391-0.235-0.274-0.391z"></path>
<path fill="#000" d="M9.258 8.378c0.020-0.235 0.215-0.274 0.528-0.274s0.45 0.235 0.567 0.293c-0.137 0-0.254-0.196-0.567-0.196s-0.313 0-0.528 0.196zM9.317 8.437c0.078-0.117 0.176 0.117 0.391 0.117s0.332-0.059 0.469-0.156-0.196 0.235-0.411 0.235-0.508-0.117-0.45-0.196z"></path>
<path fill="#000" d="M9.982 8.554c0.254-0.137 0.098-0.332 0-0.372 0.039 0.039 0.196 0.235 0 0.372zM8.887 9.728c0.117 0 0.156-0.039 0.313-0.039s0.528 0.215 0.743 0.137c-0.45 0.176-0.274 0.059-1.056 0.059h-0.098zM10.021 10.001c-0.078-0.137-0.059-0.098-0.215-0.313 0.156 0.117 0.196 0.176 0.215 0.313zM8.887 10.197c0.489 0 0.411-0.098 1.056-0.372-0.469 0.059-0.567 0.215-1.056 0.215h-0.098zM8.887 9.473c0.137 0 0.176-0.098 0.332-0.098s0.372 0.059 0.469 0.137c0.020 0.020-0.059-0.156-0.215-0.176s-0.098-0.274-0.274-0.313c0 0.078 0.059 0.059 0.078 0.176 0 0.098-0.176 0.098-0.215 0 0.039 0.156-0.078 0.156-0.176 0.156z"></path>
<path fill="#000" d="M7.303 8.026c0.137 0.156 0.215-0.117 0.704-0.117s0.567 0.293 0.645 0.235-0.411-0.411-0.567-0.43-0.606 0.137-0.782 0.313zM7.87 8.202c-0.137 0.117-0.020 0.372 0.117 0.372s0.391-0.235 0.274-0.391z"></path>
<path fill="#000" d="M8.515 8.378c-0.020-0.235-0.215-0.274-0.528-0.274s-0.45 0.235-0.567 0.293c0.137 0 0.254-0.196 0.567-0.196s0.313 0 0.528 0.196zM8.456 8.437c-0.078-0.117-0.176 0.117-0.391 0.117s-0.332-0.059-0.469-0.156 0.196 0.235 0.411 0.235 0.508-0.117 0.45-0.196z"></path>
<path fill="#000" d="M7.792 8.554c-0.254-0.137-0.098-0.332 0-0.372-0.039 0.039-0.196 0.235 0 0.372zM8.887 9.728c-0.117 0-0.156-0.039-0.313-0.039s-0.528 0.215-0.743 0.137c0.45 0.176 0.274 0.059 1.056 0.059h0.098zM7.752 10.001c0.078-0.137 0.059-0.098 0.215-0.313-0.156 0.117-0.196 0.176-0.215 0.313zM8.887 10.197c-0.489 0-0.411-0.098-1.056-0.372 0.469 0.059 0.567 0.215 1.056 0.215h0.098zM8.887 9.473c-0.137 0-0.176-0.098-0.332-0.098s-0.372 0.059-0.469 0.137c-0.020 0.020 0.059-0.156 0.215-0.176s0.098-0.274 0.274-0.313c0 0.078-0.059 0.059-0.078 0.176 0 0.098 0.176 0.098 0.215 0-0.039 0.156 0.078 0.156 0.176 0.156z"></path>
<path fill="#000" d="M8.887 10.373c-0.098 0-0.352 0.059 0 0.059s0.098-0.059 0-0.059z"></path>
</svg>
