<!-- Generated by IcoMoon.io -->
<svg version="1.1" xmlns="http://www.w3.org/2000/svg" width="43" height="32" viewBox="0 0 43 32">
<title>uz</title>
<path fill="#1eb53a" d="M0 21.333h42.667v10.667h-42.667z"></path>
<path fill="#0099b5" d="M0 0h42.667v10.667h-42.667z"></path>
<path fill="#ce1126" d="M0 10.24h42.667v11.52h-42.667z"></path>
<path fill="#fff" d="M0 10.88h42.667v10.24h-42.667z"></path>
<path fill="#fff" d="M12.8 5.12c0 2.121-1.719 3.84-3.84 3.84s-3.84-1.719-3.84-3.84c0-2.121 1.719-3.84 3.84-3.84s3.84 1.719 3.84 3.84z"></path>
<path fill="#0099b5" d="M14.080 5.12c0 2.121-1.719 3.84-3.84 3.84s-3.84-1.719-3.84-3.84c0-2.121 1.719-3.84 3.84-3.84s3.84 1.719 3.84 3.84z"></path>
<path fill="#fff" d="M17.407 7.425l-0.243 0.73 0.371 0.128z"></path>
<path fill="#fff" d="M17.407 7.425l0.243 0.73-0.371 0.128z"></path>
<path fill="#fff" d="M18.137 7.956l-0.769-0.006-0.007 0.393z"></path>
<path fill="#fff" d="M18.137 7.956l-0.619 0.457-0.236-0.313z"></path>
<path fill="#fff" d="M16.676 7.956l0.619 0.457 0.236-0.313z"></path>
<path fill="#fff" d="M16.676 7.956l0.769-0.006 0.007 0.393z"></path>
<path fill="#fff" d="M17.858 8.815l-0.232-0.733-0.376 0.115z"></path>
<path fill="#fff" d="M17.858 8.815l-0.626-0.447 0.225-0.322z"></path>
<path fill="#fff" d="M16.955 8.815l0.232-0.733 0.376 0.115z"></path>
<path fill="#fff" d="M17.407 4.353l-0.243 0.73 0.371 0.128z"></path>
<path fill="#fff" d="M17.407 4.353l0.243 0.73-0.371 0.128z"></path>
<path fill="#fff" d="M18.137 4.884l-0.619 0.457-0.236-0.313z"></path>
<path fill="#fff" d="M16.676 4.884l0.769-0.006 0.007 0.393z"></path>
<path fill="#fff" d="M17.858 5.743l-0.626-0.447 0.225-0.322z"></path>
<path fill="#fff" d="M17.858 5.743l-0.232-0.733-0.376 0.115z"></path>
<path fill="#fff" d="M16.955 5.743l0.232-0.733 0.376 0.115z"></path>
<path fill="#fff" d="M17.407 1.281l-0.243 0.73 0.371 0.128z"></path>
<path fill="#fff" d="M17.407 1.281l0.243 0.73-0.371 0.128z"></path>
<path fill="#fff" d="M18.137 1.812l-0.619 0.457-0.236-0.313z"></path>
<path fill="#fff" d="M16.676 1.812l0.769-0.006 0.007 0.393z"></path>
<path fill="#fff" d="M17.858 2.671l-0.626-0.447 0.225-0.322z"></path>
<path fill="#fff" d="M17.858 2.671l-0.232-0.733-0.376 0.115z"></path>
<path fill="#fff" d="M16.955 2.671l0.232-0.733 0.376 0.115z"></path>
<path fill="#fff" d="M20.479 7.425l-0.243 0.73 0.371 0.128z"></path>
<path fill="#fff" d="M20.479 7.425l0.243 0.73-0.371 0.128z"></path>
<path fill="#fff" d="M21.209 7.956l-0.619 0.457-0.236-0.313z"></path>
<path fill="#fff" d="M19.748 7.956l0.769-0.006 0.007 0.393z"></path>
<path fill="#fff" d="M20.93 8.815l-0.626-0.447 0.225-0.322z"></path>
<path fill="#fff" d="M20.93 8.815l-0.232-0.733-0.376 0.115z"></path>
<path fill="#fff" d="M20.027 8.815l0.232-0.733 0.376 0.115z"></path>
<path fill="#fff" d="M21.209 1.812l-0.619 0.457-0.236-0.313z"></path>
<path fill="#fff" d="M19.748 1.812l0.619 0.457 0.236-0.313z"></path>
<path fill="#fff" d="M20.027 2.671l0.626-0.447-0.225-0.322z"></path>
<path fill="#fff" d="M20.479 1.281l0.243 0.73-0.371 0.128z"></path>
<path fill="#fff" d="M19.748 1.812l0.769-0.006 0.007 0.393z"></path>
<path fill="#fff" d="M20.93 2.671l-0.232-0.733-0.376 0.115z"></path>
<path fill="#fff" d="M20.027 2.671l0.232-0.733 0.376 0.115z"></path>
<path fill="#fff" d="M23.551 7.425l-0.243 0.73 0.371 0.128z"></path>
<path fill="#fff" d="M23.551 7.425l0.243 0.73-0.371 0.128z"></path>
<path fill="#fff" d="M24.281 7.956l-0.619 0.457-0.236-0.313z"></path>
<path fill="#fff" d="M22.82 7.956l0.769-0.006 0.007 0.393z"></path>
<path fill="#fff" d="M24.002 8.815l-0.626-0.447 0.225-0.322z"></path>
<path fill="#fff" d="M24.002 8.815l-0.232-0.733-0.376 0.115z"></path>
<path fill="#fff" d="M23.099 8.815l0.232-0.733 0.376 0.115z"></path>
<path fill="#fff" d="M24.281 1.812l-0.619 0.457-0.236-0.313z"></path>
<path fill="#fff" d="M22.82 1.812l0.619 0.457 0.236-0.313z"></path>
<path fill="#fff" d="M23.099 2.671l0.626-0.447-0.225-0.322z"></path>
<path fill="#fff" d="M23.551 1.281l0.243 0.73-0.371 0.128z"></path>
<path fill="#fff" d="M22.82 1.812l0.769-0.006 0.007 0.393z"></path>
<path fill="#fff" d="M24.002 2.671l-0.232-0.733-0.376 0.115z"></path>
<path fill="#fff" d="M23.099 2.671l0.232-0.733 0.376 0.115z"></path>
<path fill="#fff" d="M11.263 7.425l-0.243 0.73 0.371 0.128z"></path>
<path fill="#fff" d="M11.263 7.425l0.243 0.73-0.371 0.128z"></path>
<path fill="#fff" d="M11.993 7.956l-0.619 0.457-0.236-0.313z"></path>
<path fill="#fff" d="M10.532 7.956l0.769-0.006 0.007 0.393z"></path>
<path fill="#fff" d="M11.714 8.815l-0.626-0.447 0.225-0.322z"></path>
<path fill="#fff" d="M11.714 8.815l-0.232-0.733-0.376 0.115z"></path>
<path fill="#fff" d="M10.811 8.815l0.232-0.733 0.376 0.115z"></path>
<path fill="#fff" d="M14.335 7.425l-0.243 0.73 0.371 0.128z"></path>
<path fill="#fff" d="M14.335 7.425l0.243 0.73-0.371 0.128z"></path>
<path fill="#fff" d="M15.065 7.956l-0.619 0.457-0.236-0.313z"></path>
<path fill="#fff" d="M13.604 7.956l0.769-0.006 0.007 0.393z"></path>
<path fill="#fff" d="M14.786 8.815l-0.626-0.447 0.225-0.322z"></path>
<path fill="#fff" d="M14.786 8.815l-0.232-0.733-0.376 0.115z"></path>
<path fill="#fff" d="M13.883 8.815l0.232-0.733 0.376 0.115z"></path>
<path fill="#fff" d="M14.335 4.353l-0.243 0.73 0.371 0.128z"></path>
<path fill="#fff" d="M14.335 4.353l0.243 0.73-0.371 0.128z"></path>
<path fill="#fff" d="M15.065 4.884l-0.619 0.457-0.236-0.313z"></path>
<path fill="#fff" d="M13.604 4.884l0.769-0.006 0.007 0.393z"></path>
<path fill="#fff" d="M14.786 5.743l-0.626-0.447 0.225-0.322z"></path>
<path fill="#fff" d="M14.786 5.743l-0.232-0.733-0.376 0.115z"></path>
<path fill="#fff" d="M13.883 5.743l0.232-0.733 0.376 0.115z"></path>
</svg>
