<!-- Generated by IcoMoon.io -->
<svg version="1.1" xmlns="http://www.w3.org/2000/svg" width="43" height="32" viewBox="0 0 43 32">
<title>va</title>
<path fill="#fff133" d="M31.049 15.005l0.14 0.296s0.027-0.128 0.14-0.15l0.113-0.021s0.415 0.662 0.497 0.78c0.082 0.118-0.063 0.222-0.035 0.222s0.428-0.145 0.428-0.145-0.17 0.009-0.238-0.087-0.536-0.806-0.536-0.806 0.098-0.033 0.184-0.066c0.086-0.034 0.167 0.109 0.167 0.109l-0.202-0.357s-0.003 0.118-0.074 0.139c-0.071 0.023-0.129 0.046-0.129 0.046s-0.054-0.083-0.123-0.179c-0.068-0.094 0.077-0.186 0.077-0.186l-0.372 0.146s0.126 0.061 0.167 0.12l0.082 0.118s-0.052 0.023-0.132 0.044c-0.058 0.024-0.123-0.002-0.151-0.025z"></path>
<path fill="#fff133" d="M30.017 14.885l-0.14 0.296s-0.027-0.128-0.14-0.15l-0.113-0.021s-0.415 0.662-0.497 0.78c-0.082 0.118 0.063 0.222 0.035 0.222s-0.428-0.145-0.428-0.145 0.17 0.009 0.238-0.087 0.536-0.806 0.536-0.806-0.098-0.033-0.184-0.066c-0.086-0.034-0.167 0.109-0.167 0.109l0.202-0.357s0.003 0.118 0.074 0.139c0.071 0.023 0.129 0.046 0.129 0.046s0.054-0.083 0.123-0.179c0.068-0.094-0.077-0.186-0.077-0.186l0.372 0.146s-0.126 0.061-0.167 0.12l-0.082 0.118s0.052 0.023 0.132 0.044c0.058 0.024 0.123-0.002 0.151-0.025z"></path>
<path fill="#fff133" d="M25.214 12.482l0.362 0.303c0.241 0.201 1.086 1.11 1.086 1.11s1.129 0.744 1.37 0.945l0.363 0.303c-0.241-0.201-1.732-1.046-1.732-1.046s0.888 1.146 1.25 1.449l-0.362-0.303c-0.241-0.201-1.129-1.146-1.129-1.146s-0.965-0.605-1.207-0.807l-0.481-0.403c0.241 0.201 1.687 1.009 1.687 1.009s-0.964-1.211-1.206-1.413z"></path>
<path fill="#c0c0c0" d="M31.123 17.831c0.333 0.416 0.69 0.779 1.085 1.11l-0-0c0.124 0.108 0.291 0.182 0.478 0.201l0.004 0s0-0.201-0.241-0.403c-0.396-0.331-0.829-0.63-1.295-0.892l-0.031-0.016zM30.52 16.922c0.843 0.707 1.808 1.11 2.411 1.615 0.482 0.403 0.148 0.712 0.013 0.811s-0.5 0.405-0.978-0.003c-0.603-0.504-1.086-1.312-1.93-2.019 0-0.201 0.242-0.403 0.482-0.403z"></path>
<path fill="#c0c0c0" d="M25.059 12.894l-0.391 0.32 0.391 0.32-0.194 0.159-0.391-0.32-0.784 0.642 0.391 0.32-0.194 0.159-0.391-0.32-0.393 0.32 1.175 0.962 0.782-0.64-0.391-0.322-0.197 0.161-0.194-0.161 0.782-0.64 0.197 0.161-0.197 0.159 0.391 0.32 0.391-0.32-0.194-0.159 0.194-0.161 0.784 0.64-0.197 0.161-0.194-0.161-0.393 0.322 0.393 0.32 0.194-0.161 0.197 0.161-0.784 0.64-0.194-0.161 0.194-0.159-0.391-0.32-0.782 0.64 1.173 0.96 0.393-0.32-0.393-0.32 0.199-0.159 0.389 0.32 0.784-0.642-0.393-0.32 0.197-0.159 0.391 0.32 0.391-0.32-2.739-2.242z"></path>
<path fill="#c0c0c0" d="M25.842 16.736l-1.174-0.961h-0.392l1.174 0.961h0.392zM25.254 16.896l-1.174-0.961 0.195-0.16 1.174 0.96-0.195 0.16z"></path>
<path fill="#c0c0c0" d="M24.277 15.454l-1.174-0.961h-0.392l1.174 0.961h0.392zM23.689 15.615l-1.174-0.961 0.195-0.16 1.174 0.96-0.195 0.16z"></path>
<path fill="#c0c0c0" d="M32.338 21.391c0.038 1.165 1.184 2.098 2.591 2.098s2.553-0.933 2.591-2.095l0-0.003v-0.269c0-0.441-0.647 1.885-2.59 1.885s-2.592-1.895-2.592-1.885v0.269z"></path>
<path fill="#c0c0c0" d="M32.338 21.122v0c0-1.19 1.16-2.155 2.592-2.155s2.592 0.965 2.592 2.155v0c0 1.19-1.16 2.155-2.592 2.155s-2.592-0.965-2.592-2.155zM33.311 21.122c0 0.223-0.417 0.046-0.172 0.654 0.151 0.409 0.537 0.722 1.024 0.834l0.010 0.002c0.735 0.193 0.488-0.143 0.757-0.143 0.267 0 0.020 0.336 0.755 0.143 0.505-0.116 0.895-0.44 1.032-0.852l0.002-0.009c0.234-0.611-0.17-0.406-0.17-0.629s0.402-0.017 0.17-0.628c-0.139-0.42-0.529-0.744-1.024-0.858l-0.010-0.002c-0.735-0.195-0.488 0.141-0.755 0.141-0.269 0-0.022-0.334-0.757-0.141-0.505 0.116-0.895 0.44-1.032 0.852l-0.002 0.009c-0.232 0.611 0.172 0.404 0.172 0.628z"></path>
<path fill="#c0c0c0" d="M32.663 21.123c-0.001 0.022-0.002 0.047-0.002 0.072 0 0.241 0.066 0.469 0.184 0.669l-0.004-0.008c0.146 0.224-0.179-0.733 0.146-0.733-0.324 0-0.031-0.959-0.146-0.733-0.113 0.215-0.179 0.467-0.179 0.733v0z"></path>
<path fill="#c0c0c0" d="M34.047 22.857c0.26 0.094 0.563 0.149 0.882 0.149s0.622-0.055 0.897-0.154l-0.015 0.005c0.272-0.094-0.881 0.149-0.881-0.12 0 0.269-1.153 0.026-0.883 0.122zM34.93 19.508c0-0.269 1.152-0.026 0.881-0.122-0.26-0.095-0.563-0.15-0.882-0.15s-0.622 0.055-0.896 0.155l0.014-0.005c-0.271 0.096 0.883-0.147 0.883 0.122z"></path>
<path fill="#fff133" d="M36.436 19.367c0.132 0.076 0.268 0.175 0.394 0.288s0.234 0.233 0.326 0.36l-0.009-0.012 0.112-0.056c-0.086-0.12-0.2-0.247-0.332-0.366s-0.276-0.222-0.429-0.311l0.014 0.009-0.076 0.088z"></path>
<path fill="#fff133" d="M32.719 22.242c0.082 0.115 0.191 0.235 0.316 0.348s0.263 0.211 0.408 0.297l-0.014-0.009-0.075 0.089c-0.138-0.080-0.282-0.184-0.414-0.302s-0.246-0.245-0.342-0.378l0.010 0.013 0.111-0.057z"></path>
<path fill="#fff133" d="M32.551 22.556c0.089 0.122 0.238 0.235 0.36 0.344 0.121 0.108 0.276 0.187 0.416 0.27l0.028-0.205c-0.138-0.080-0.282-0.184-0.414-0.302s-0.246-0.245-0.342-0.378l0.010 0.013-0.059 0.26z"></path>
<path fill="#fff133" d="M36.272 22.97c0.138-0.068 0.283-0.159 0.418-0.263s0.254-0.218 0.357-0.339l-0.010 0.011 0.107 0.062c-0.097 0.115-0.222 0.234-0.364 0.344s-0.295 0.205-0.455 0.285l0.015-0.008-0.068-0.092z"></path>
<path fill="#fff133" d="M36.347 23.050c0.147-0.074 0.266-0.144 0.398-0.245s0.298-0.247 0.399-0.364l0.031 0.242c-0.097 0.115-0.222 0.234-0.364 0.344s-0.295 0.205-0.455 0.285l0.015-0.008-0.024-0.253z"></path>
<path fill="#fff133" d="M36.283 22.991l0.016 0.225 0.059 0.068-0.018-0.228-0.055-0.065zM33.422 22.897l-0.066 0.064-0.018 0.207 0.053-0.046 0.031-0.225z"></path>
<path fill="#fff" stroke="#000" stroke-linejoin="miter" stroke-linecap="butt" stroke-miterlimit="4" stroke-width="0.0800" d="M27.379 11.805l-0.566-0.235-0.566 0.235s1.173 0.471 1.173 2.117c0 1.176-2.003 1.411-2.003 2.822 0 0.605 0.546 1.176 1.114 1.176s1.418-0.235 2.267-0.941c-0.566 0.235-1.216 0.495-1.701 0.478-0.314-0.004-0.88-0.235-0.88-0.703 0-0.942 1.965-1.42 1.965-2.831 0-1.646-0.8-2.116-0.8-2.116z"></path>
<path fill="#fff" stroke="#000" stroke-linejoin="miter" stroke-linecap="butt" stroke-miterlimit="4" stroke-width="0.0800" d="M27.275 11.805l-0.746-0.235-0.16 0.235s1.13 0.471 1.13 2.117c0 1.176-2.014 1.411-2.014 2.822 0 0.605 0.427 1.16 1.045 1.176 1.174 0.031 1.446-0.319 2.267-0.941-0.69 0.429-1.68 0.621-2.064 0.454-0.47-0.204-0.56-0.478-0.56-0.714 0-0.941 1.934-1.386 1.934-2.797 0-1.646-0.832-2.116-0.832-2.116z"></path>
<path fill="#fff133" stroke="#000" stroke-linejoin="miter" stroke-linecap="butt" stroke-miterlimit="4" stroke-width="0.0800" d="M27.471 15.116l-0.218 0.242s0.024-0.114-0.060-0.144l-0.084-0.029s-0.571 0.532-0.679 0.626c-0.108 0.094-0.028 0.199-0.051 0.196s-0.294-0.169-0.294-0.169 0.134 0.025 0.223-0.051 0.72-0.645 0.72-0.645-0.068-0.038-0.125-0.076c-0.057-0.038-0.174 0.078-0.174 0.078l0.29-0.289s-0.040 0.103 0.010 0.128c0.049 0.027 0.088 0.053 0.088 0.053s0.073-0.067 0.163-0.143c0.088-0.075 0.004-0.169 0.004-0.169l0.248 0.164s-0.124 0.040-0.177 0.087l-0.108 0.094s0.034 0.025 0.091 0.052c0.038 0.027 0.1 0.011 0.131-0.007z"></path>
<path fill="#fff133" stroke="#000" stroke-linejoin="miter" stroke-linecap="butt" stroke-miterlimit="4" stroke-width="0.0800" d="M25.332 12.173l0.114-0.181s0.016 0.088 0.098 0.115l0.083 0.026s0.33-0.392 0.395-0.462c0.065-0.069-0.039-0.154-0.018-0.151s0.312 0.144 0.312 0.144-0.125-0.025-0.179 0.031-0.425 0.475-0.425 0.475 0.072 0.033 0.134 0.064c0.062 0.032 0.127-0.054 0.127-0.054l-0.162 0.214s0.002-0.079-0.050-0.101c-0.052-0.023-0.094-0.045-0.094-0.045s-0.043 0.049-0.098 0.105c-0.054 0.055 0.050 0.132 0.050 0.132l-0.27-0.139s0.096-0.026 0.127-0.061l0.065-0.069s-0.038-0.021-0.096-0.044c-0.042-0.023-0.091-0.012-0.113-0z"></path>
<path fill="#c0c0c0" stroke="#000" stroke-linejoin="miter" stroke-linecap="butt" stroke-miterlimit="4" stroke-width="0.0800" d="M36.423 12.223l0.482 0.403c0.062 0 0.124-0.020 0.171-0.059s0.071-0.091 0.071-0.143v0c-0.105-0.209-0.241-0.31-0.483-0.404-0.060 0.003-0.119 0.024-0.165 0.063s-0.071 0.088-0.075 0.139l0-0z"></path>
<path fill="#c0c0c0" stroke="#000" stroke-linejoin="miter" stroke-linecap="butt" stroke-miterlimit="4" stroke-width="0.0800" d="M36.063 12.525l0.482 0.403c0.062-0 0.123-0.020 0.17-0.059s0.071-0.091 0.071-0.142v0c-0.105-0.209-0.241-0.31-0.483-0.404-0.060 0.003-0.12 0.024-0.166 0.063s-0.072 0.089-0.076 0.139l0-0z"></path>
<path fill="#c0c0c0" stroke="#000" stroke-linejoin="miter" stroke-linecap="butt" stroke-miterlimit="4" stroke-width="0.0800" d="M32.617 15.409l0.482 0.403c0.062-0 0.123-0.020 0.17-0.059s0.071-0.091 0.071-0.142v0c-0.105-0.209-0.241-0.31-0.483-0.404-0.060 0.003-0.119 0.024-0.165 0.063s-0.071 0.088-0.075 0.139l0-0z"></path>
<path fill="#fff133" stroke="#000" stroke-linejoin="miter" stroke-linecap="butt" stroke-miterlimit="4" stroke-width="0.0800" d="M31.29 16.317l0.723 0.606c0.062 0 0.124-0.019 0.171-0.059s0.071-0.091 0.070-0.143v-0s0-0.202-0.242-0.404-0.482-0.202-0.482-0.202c-0.112 0.013-0.206 0.101-0.242 0.202z"></path>
<path fill="#fff133" stroke="#000" stroke-linejoin="miter" stroke-linecap="butt" stroke-miterlimit="4" stroke-width="0.0800" d="M30.205 17.831c-0.286 0.367-0.658 0.753-1.084 1.11l-0.001 0.001c-0.004 0.003-0.008 0.007-0.012 0.010-0.133 0.111-0.3 0.175-0.473 0.191l0.002-0s0-0.202 0.242-0.404c0.12-0.101 0.603-0.505 1.326-0.908zM30.809 16.923c-0.844 0.706-1.809 1.111-2.412 1.616-0.482 0.403-0.148 0.712-0.014 0.81 0.135 0.099 0.501 0.406 0.979-0.003 0.602-0.504 1.085-1.311 1.929-2.018 0-0.202-0.242-0.404-0.483-0.404z"></path>
<path fill="#c0c0c0" stroke="#000" stroke-linejoin="miter" stroke-linecap="butt" stroke-miterlimit="4" stroke-width="0.0800" d="M36.114 12.482l-0.362 0.303c-0.241 0.202-1.086 1.109-1.086 1.109s-1.128 0.744-1.369 0.946l-0.362 0.303c0.241-0.202 1.731-1.046 1.731-1.046s-0.887 1.147-1.249 1.45l0.362-0.303c0.241-0.202 1.129-1.147 1.129-1.147s0.964-0.606 1.205-0.807l0.483-0.404c-0.241 0.202-1.688 1.010-1.688 1.010s0.964-1.212 1.205-1.413z"></path>
<path fill="#fff133" stroke="#000" stroke-linejoin="miter" stroke-linecap="butt" stroke-miterlimit="4" stroke-width="0.0800" d="M28.989 21.391c-0.038 1.165-1.184 2.098-2.591 2.098s-2.553-0.933-2.591-2.095l-0-0.003v-0.269c0-0.441 0.647 1.885 2.59 1.885s2.592-1.895 2.592-1.885v0.269z"></path>
<path fill="#fff133" stroke="#000" stroke-linejoin="miter" stroke-linecap="butt" stroke-miterlimit="4" stroke-width="0.0800" d="M28.989 21.122v0c0-1.19-1.16-2.155-2.592-2.155s-2.592 0.965-2.592 2.155v0c0 1.19 1.16 2.155 2.592 2.155s2.592-0.965 2.592-2.155zM28.016 21.122c0 0.223 0.417 0.046 0.172 0.654-0.151 0.409-0.537 0.722-1.024 0.834l-0.010 0.002c-0.735 0.193-0.488-0.143-0.757-0.143-0.267 0-0.020 0.336-0.755 0.143-0.505-0.116-0.895-0.44-1.032-0.852l-0.002-0.009c-0.234-0.611 0.17-0.406 0.17-0.629s-0.402-0.017-0.17-0.628c0.139-0.42 0.529-0.744 1.024-0.858l0.010-0.002c0.735-0.195 0.488 0.141 0.755 0.141 0.269 0 0.022-0.334 0.757-0.141 0.505 0.116 0.895 0.44 1.032 0.852l0.002 0.009c0.232 0.611-0.172 0.404-0.172 0.628z"></path>
<path fill="#fff133" stroke="#000" stroke-linejoin="miter" stroke-linecap="butt" stroke-miterlimit="4" stroke-width="0.0800" d="M28.663 21.123c0.001 0.022 0.002 0.047 0.002 0.072 0 0.241-0.066 0.469-0.184 0.669l0.004-0.008c-0.146 0.224 0.179-0.733-0.146-0.733 0.324 0 0.031-0.959 0.146-0.733 0.113 0.215 0.179 0.467 0.179 0.733v0z"></path>
<path fill="#fff133" stroke="#000" stroke-linejoin="miter" stroke-linecap="butt" stroke-miterlimit="4" stroke-width="0.0800" d="M27.28 22.857c-0.26 0.094-0.563 0.149-0.882 0.149s-0.622-0.055-0.897-0.154l0.015 0.005c-0.272-0.094 0.881 0.149 0.881-0.12 0 0.269 1.153 0.026 0.883 0.122zM26.397 19.508c0-0.269-1.152-0.026-0.881-0.122 0.26-0.095 0.563-0.15 0.882-0.15s0.622 0.055 0.896 0.155l-0.015-0.005c0.271 0.096-0.883-0.147-0.883 0.122z"></path>
<path fill="#c0c0c0" stroke="#000" stroke-linejoin="miter" stroke-linecap="butt" stroke-miterlimit="4" stroke-width="0.0800" d="M24.892 19.367c-0.131 0.076-0.268 0.175-0.394 0.288s-0.234 0.233-0.326 0.36l0.009-0.012-0.112-0.056c0.086-0.12 0.2-0.247 0.332-0.366s0.276-0.222 0.429-0.311l-0.014 0.009 0.076 0.088z"></path>
<path fill="#c0c0c0" stroke="#000" stroke-linejoin="miter" stroke-linecap="butt" stroke-miterlimit="4" stroke-width="0.0800" d="M28.608 22.242c-0.082 0.115-0.191 0.235-0.316 0.348s-0.263 0.211-0.408 0.297l0.014-0.009 0.075 0.089c0.138-0.080 0.282-0.184 0.414-0.302s0.246-0.245 0.342-0.378l-0.010 0.013-0.111-0.057z"></path>
<path fill="#c0c0c0" stroke="#000" stroke-linejoin="miter" stroke-linecap="butt" stroke-miterlimit="4" stroke-width="0.0800" d="M28.776 22.556c-0.089 0.122-0.238 0.235-0.36 0.344-0.121 0.108-0.276 0.187-0.416 0.27l-0.028-0.205c0.138-0.080 0.282-0.184 0.414-0.302s0.246-0.245 0.342-0.378l-0.010 0.013 0.059 0.26z"></path>
<path fill="#c0c0c0" stroke="#000" stroke-linejoin="miter" stroke-linecap="butt" stroke-miterlimit="4" stroke-width="0.0800" d="M25.055 22.97c-0.138-0.068-0.283-0.159-0.418-0.263s-0.254-0.218-0.357-0.339l0.010 0.011-0.107 0.062c0.097 0.115 0.222 0.234 0.364 0.344s0.295 0.205 0.455 0.285l-0.015-0.008 0.068-0.092z"></path>
<path fill="#c0c0c0" stroke="#000" stroke-linejoin="miter" stroke-linecap="butt" stroke-miterlimit="4" stroke-width="0.0800" d="M24.98 23.050c-0.147-0.074-0.266-0.144-0.398-0.245s-0.298-0.247-0.399-0.364l-0.031 0.242c0.097 0.115 0.222 0.234 0.364 0.344s0.295 0.205 0.455 0.285l-0.015-0.008 0.024-0.253z"></path>
<path fill="#c0c0c0" stroke="#000" stroke-linejoin="miter" stroke-linecap="butt" stroke-miterlimit="4" stroke-width="0.0800" d="M25.044 22.991l-0.016 0.225-0.058 0.068 0.018-0.228 0.055-0.065zM27.905 22.897l0.066 0.064 0.018 0.207-0.053-0.046-0.031-0.225z"></path>
<path fill="#fff133" stroke="#000" stroke-linejoin="miter" stroke-linecap="butt" stroke-miterlimit="4" stroke-width="0.0400" d="M36.269 12.894l0.391 0.32-0.391 0.32 0.194 0.159 0.391-0.32 0.784 0.642-0.391 0.32 0.194 0.159 0.391-0.32 0.393 0.32-1.175 0.962-0.782-0.64 0.391-0.322 0.197 0.161 0.194-0.161-0.782-0.64-0.197 0.161 0.197 0.159-0.391 0.32-0.391-0.32 0.194-0.159-0.194-0.161-0.784 0.64 0.197 0.161 0.194-0.161 0.393 0.322-0.393 0.32-0.194-0.161-0.197 0.161 0.784 0.64 0.194-0.161-0.194-0.159 0.391-0.32 0.782 0.64-1.173 0.96-0.393-0.32 0.393-0.32-0.199-0.159-0.389 0.32-0.784-0.642 0.393-0.32-0.197-0.159-0.391 0.32-0.391-0.32 2.739-2.242z"></path>
<path fill="#fff133" stroke="#000" stroke-linejoin="miter" stroke-linecap="butt" stroke-miterlimit="4" stroke-width="0.0733" d="M35.486 16.736l1.174-0.961h0.392l-1.174 0.961h-0.392zM36.074 16.896l1.174-0.961-0.195-0.16-1.174 0.96 0.195 0.16z"></path>
<path fill="#fff133" stroke="#000" stroke-linejoin="miter" stroke-linecap="butt" stroke-miterlimit="4" stroke-width="0.0733" d="M37.051 15.454l1.174-0.961h0.392l-1.174 0.961h-0.392zM37.639 15.615l1.174-0.961-0.195-0.16-1.174 0.96 0.195 0.16z"></path>
<path fill="#b00" stroke="#000" stroke-linejoin="miter" stroke-linecap="butt" stroke-miterlimit="4" stroke-width="0.8533" d="M33.644 23.414c0.034 0.021 0.033 0.058-0.002 0.074s-0.106 0.012-0.14-0.009l-0.189-0.114c-0.034-0.021-0.033-0.058 0.003-0.074 0.037-0.017 0.106-0.012 0.14 0.009l0.189 0.114z"></path>
<path fill="#b00" stroke="#000" stroke-linejoin="miter" stroke-linecap="butt" stroke-miterlimit="4" stroke-width="0.8533" d="M33.795 23.374c0.033 0.021 0.031 0.059-0.006 0.075s-0.105 0.011-0.139-0.010l-0.183-0.117c-0.033-0.021-0.031-0.059 0.006-0.075 0.038-0.017 0.105-0.011 0.139 0.010l0.183 0.117z"></path>
<path fill="#b00" stroke="#000" stroke-linejoin="miter" stroke-linecap="butt" stroke-miterlimit="4" stroke-width="0.8533" d="M33.97 23.334c0.034 0.021 0.033 0.058-0.002 0.074s-0.106 0.012-0.14-0.009l-0.189-0.114c-0.034-0.021-0.033-0.058 0.003-0.074 0.037-0.017 0.106-0.012 0.14 0.009l0.189 0.114z"></path>
<path fill="#b00" stroke="#000" stroke-linejoin="miter" stroke-linecap="butt" stroke-miterlimit="4" stroke-width="0.8533" d="M34.129 23.287c0.033 0.021 0.031 0.059-0.006 0.075s-0.105 0.011-0.139-0.010l-0.183-0.117c-0.033-0.021-0.031-0.059 0.006-0.075 0.038-0.017 0.105-0.011 0.139 0.010l0.183 0.117z"></path>
<path fill="#b00" stroke="#000" stroke-linejoin="miter" stroke-linecap="butt" stroke-miterlimit="4" stroke-width="0.8533" d="M34.81 22.775c0.041-0.007 0.073 0.020 0.063 0.053s-0.060 0.073-0.101 0.080l-0.226 0.037c-0.041 0.007-0.073-0.020-0.063-0.053 0.010-0.035 0.060-0.073 0.101-0.080l0.225-0.037z"></path>
<path fill="#b00" stroke="#000" stroke-linejoin="miter" stroke-linecap="butt" stroke-miterlimit="4" stroke-width="0.8533" d="M34.687 22.521c0.027-0.027 0.071-0.024 0.088 0.007s0.007 0.089-0.020 0.116l-0.149 0.15c-0.027 0.027-0.071 0.024-0.088-0.007-0.018-0.032-0.007-0.089 0.020-0.116l0.149-0.15z"></path>
<path fill="#b00" stroke="#000" stroke-linejoin="miter" stroke-linecap="butt" stroke-miterlimit="4" stroke-width="0.8533" d="M34.875 22.636c0.041-0.008 0.074 0.018 0.065 0.051s-0.060 0.074-0.101 0.082l-0.227 0.043c-0.041 0.008-0.074-0.018-0.065-0.051 0.010-0.035 0.060-0.074 0.101-0.082l0.227-0.043z"></path>
<path fill="#b00" stroke="#000" stroke-linejoin="miter" stroke-linecap="butt" stroke-miterlimit="4" stroke-width="0.8533" d="M33.003 23.573c0.032 0.023 0.027 0.060-0.010 0.074s-0.107 0.004-0.139-0.019l-0.177-0.127c-0.032-0.023-0.027-0.060 0.010-0.074 0.039-0.014 0.107-0.004 0.139 0.019l0.177 0.127z"></path>
<path fill="#b00" stroke="#000" stroke-linejoin="miter" stroke-linecap="butt" stroke-miterlimit="4" stroke-width="0.8533" d="M33.162 23.54c0.031 0.024 0.024 0.061-0.013 0.074s-0.106 0.003-0.137-0.020l-0.17-0.13c-0.031-0.024-0.024-0.061 0.013-0.074 0.039-0.014 0.106-0.003 0.137 0.020l0.17 0.129z"></path>
<path fill="#b00" stroke="#000" stroke-linejoin="miter" stroke-linecap="butt" stroke-miterlimit="4" stroke-width="0.8533" d="M33.329 23.473c0.035 0.020 0.036 0.057 0.001 0.074s-0.105 0.015-0.141-0.005l-0.194-0.108c-0.035-0.020-0.036-0.057-0.001-0.074 0.036-0.018 0.105-0.015 0.141 0.005l0.194 0.108z"></path>
<path fill="#b00" stroke="#000" stroke-linejoin="miter" stroke-linecap="butt" stroke-miterlimit="4" stroke-width="0.8533" d="M33.465 23.472c0.030 0.025 0.021 0.061-0.017 0.073s-0.106-0.001-0.136-0.025l-0.163-0.136c-0.030-0.025-0.021-0.061 0.017-0.073 0.040-0.012 0.106 0.001 0.136 0.026l0.163 0.136z"></path>
<path fill="#b00" stroke="#000" stroke-linejoin="miter" stroke-linecap="butt" stroke-miterlimit="4" stroke-width="0.8533" d="M34.29 23.24c0.034 0.021 0.033 0.058-0.002 0.074s-0.106 0.012-0.14-0.009l-0.189-0.114c-0.034-0.021-0.033-0.058 0.003-0.074 0.037-0.017 0.106-0.012 0.14 0.009l0.189 0.114z"></path>
<path fill="#b00" stroke="#000" stroke-linejoin="miter" stroke-linecap="butt" stroke-miterlimit="4" stroke-width="0.8533" d="M34.449 23.2c0.033 0.021 0.031 0.059-0.006 0.075s-0.105 0.011-0.139-0.010l-0.183-0.117c-0.033-0.021-0.031-0.059 0.006-0.075 0.038-0.017 0.105-0.011 0.139 0.010l0.183 0.117z"></path>
<path fill="#b00" stroke="#000" stroke-linejoin="miter" stroke-linecap="butt" stroke-miterlimit="4" stroke-width="0.8533" d="M30.933 23.741c0.026 0.028 0.012 0.063-0.028 0.070s-0.105-0.014-0.131-0.042l-0.142-0.154c-0.026-0.028-0.012-0.063 0.028-0.070 0.041-0.007 0.105 0.014 0.131 0.042l0.142 0.154z"></path>
<path fill="#b00" stroke="#000" stroke-linejoin="miter" stroke-linecap="butt" stroke-miterlimit="4" stroke-width="0.8533" d="M31.098 23.743c0.025 0.028 0.009 0.063-0.031 0.070s-0.105-0.015-0.129-0.043l-0.135-0.156c-0.025-0.028-0.009-0.063 0.031-0.070 0.042-0.007 0.105 0.015 0.129 0.043l0.135 0.155z"></path>
<path fill="#b00" stroke="#000" stroke-linejoin="miter" stroke-linecap="butt" stroke-miterlimit="4" stroke-width="0.8533" d="M31.273 23.741c0.026 0.028 0.012 0.063-0.028 0.070s-0.105-0.014-0.131-0.042l-0.142-0.154c-0.026-0.028-0.012-0.063 0.028-0.070 0.041-0.007 0.105 0.014 0.131 0.042l0.142 0.154z"></path>
<path fill="#b00" stroke="#000" stroke-linejoin="miter" stroke-linecap="butt" stroke-miterlimit="4" stroke-width="0.8533" d="M31.438 23.743c0.025 0.028 0.009 0.063-0.031 0.070s-0.105-0.015-0.129-0.043l-0.135-0.156c-0.025-0.028-0.009-0.063 0.031-0.070 0.042-0.007 0.105 0.015 0.129 0.043l0.135 0.155z"></path>
<path fill="#b00" stroke="#000" stroke-linejoin="miter" stroke-linecap="butt" stroke-miterlimit="4" stroke-width="0.8533" d="M30.253 23.761c0.026 0.028 0.012 0.063-0.028 0.070s-0.105-0.014-0.131-0.042l-0.142-0.154c-0.026-0.028-0.012-0.063 0.028-0.070 0.041-0.007 0.105 0.014 0.131 0.042l0.142 0.154z"></path>
<path fill="#b00" stroke="#000" stroke-linejoin="miter" stroke-linecap="butt" stroke-miterlimit="4" stroke-width="0.8533" d="M30.418 23.757c0.025 0.028 0.009 0.063-0.031 0.070s-0.105-0.015-0.129-0.043l-0.135-0.156c-0.025-0.028-0.009-0.063 0.031-0.070 0.042-0.007 0.105 0.015 0.129 0.043l0.135 0.155z"></path>
<path fill="#b00" stroke="#000" stroke-linejoin="miter" stroke-linecap="butt" stroke-miterlimit="4" stroke-width="0.8533" d="M30.593 23.754c0.026 0.028 0.012 0.063-0.028 0.070s-0.105-0.014-0.131-0.042l-0.142-0.154c-0.026-0.028-0.012-0.063 0.028-0.070 0.041-0.007 0.105 0.014 0.131 0.042l0.142 0.154z"></path>
<path fill="#b00" stroke="#000" stroke-linejoin="miter" stroke-linecap="butt" stroke-miterlimit="4" stroke-width="0.8533" d="M30.758 23.75c0.025 0.028 0.009 0.063-0.031 0.070s-0.105-0.015-0.129-0.043l-0.135-0.156c-0.025-0.028-0.009-0.063 0.031-0.070 0.042-0.007 0.105 0.015 0.129 0.043l0.135 0.155z"></path>
<path fill="#b00" stroke="#000" stroke-linejoin="miter" stroke-linecap="butt" stroke-miterlimit="4" stroke-width="0.8533" d="M32.318 23.683c0.029 0.026 0.020 0.062-0.018 0.072s-0.107-0.004-0.136-0.030l-0.162-0.14c-0.029-0.026-0.020-0.062 0.018-0.072 0.040-0.011 0.107 0.004 0.136 0.030l0.161 0.14z"></path>
<path fill="#b00" stroke="#000" stroke-linejoin="miter" stroke-linecap="butt" stroke-miterlimit="4" stroke-width="0.8533" d="M32.485 23.657c0.029 0.025 0.020 0.062-0.019 0.073s-0.106-0.002-0.135-0.027l-0.16-0.138c-0.029-0.025-0.020-0.062 0.019-0.073 0.040-0.012 0.106 0.002 0.135 0.028l0.16 0.138z"></path>
<path fill="#b00" stroke="#000" stroke-linejoin="miter" stroke-linecap="butt" stroke-miterlimit="4" stroke-width="0.8533" d="M32.66 23.635c0.030 0.025 0.023 0.061-0.016 0.073s-0.107-0.001-0.137-0.026l-0.167-0.136c-0.030-0.025-0.023-0.061 0.016-0.073 0.040-0.012 0.107 0.001 0.137 0.026l0.167 0.136z"></path>
<path fill="#b00" stroke="#000" stroke-linejoin="miter" stroke-linecap="butt" stroke-miterlimit="4" stroke-width="0.8533" d="M32.828 23.607c0.031 0.024 0.024 0.061-0.013 0.074s-0.106 0.003-0.137-0.020l-0.17-0.13c-0.031-0.024-0.024-0.061 0.013-0.074 0.039-0.014 0.106-0.003 0.137 0.020l0.17 0.129z"></path>
<path fill="#b00" stroke="#000" stroke-linejoin="miter" stroke-linecap="butt" stroke-miterlimit="4" stroke-width="0.8533" d="M31.62 23.734c0.026 0.028 0.012 0.063-0.028 0.070s-0.105-0.014-0.131-0.042l-0.142-0.154c-0.026-0.028-0.012-0.063 0.028-0.070 0.041-0.007 0.105 0.014 0.131 0.042l0.142 0.154z"></path>
<path fill="#b00" stroke="#000" stroke-linejoin="miter" stroke-linecap="butt" stroke-miterlimit="4" stroke-width="0.8533" d="M31.785 23.718c0.027 0.027 0.014 0.063-0.025 0.072s-0.106-0.009-0.132-0.036l-0.147-0.148c-0.027-0.027-0.014-0.063 0.026-0.072 0.041-0.009 0.106 0.009 0.132 0.036l0.147 0.148z"></path>
<path fill="#b00" stroke="#000" stroke-linejoin="miter" stroke-linecap="butt" stroke-miterlimit="4" stroke-width="0.8533" d="M31.969 23.695c0.029 0.025 0.021 0.062-0.018 0.073s-0.107-0.004-0.136-0.029l-0.162-0.14c-0.029-0.025-0.021-0.062 0.018-0.073 0.040-0.011 0.107 0.004 0.136 0.029l0.162 0.14z"></path>
<path fill="#b00" stroke="#000" stroke-linejoin="miter" stroke-linecap="butt" stroke-miterlimit="4" stroke-width="0.8533" d="M32.123 23.689c0.026 0.027 0.013 0.063-0.027 0.071s-0.105-0.011-0.132-0.038l-0.144-0.15c-0.026-0.027-0.013-0.063 0.027-0.071 0.041-0.009 0.105 0.011 0.132 0.038l0.144 0.15z"></path>
<path fill="#b00" stroke="#000" stroke-linejoin="miter" stroke-linecap="butt" stroke-miterlimit="4" stroke-width="0.8533" d="M28.183 23.678c0.019 0.031-0.002 0.064-0.042 0.065s-0.101-0.030-0.12-0.061l-0.107-0.173c-0.019-0.031 0.002-0.064 0.042-0.065 0.042-0.001 0.101 0.030 0.12 0.061l0.107 0.173z"></path>
<path fill="#b00" stroke="#000" stroke-linejoin="miter" stroke-linecap="butt" stroke-miterlimit="4" stroke-width="0.8533" d="M28.347 23.696c0.018 0.032-0.005 0.064-0.045 0.064s-0.1-0.030-0.118-0.062l-0.1-0.173c-0.018-0.032 0.005-0.064 0.045-0.064 0.043-0.001 0.1 0.030 0.118 0.062l0.1 0.173z"></path>
<path fill="#b00" stroke="#000" stroke-linejoin="miter" stroke-linecap="butt" stroke-miterlimit="4" stroke-width="0.8533" d="M28.536 23.711c0.023 0.030 0.006 0.064-0.034 0.068s-0.104-0.021-0.127-0.050l-0.128-0.163c-0.023-0.030-0.006-0.064 0.034-0.068 0.042-0.005 0.104 0.021 0.127 0.050l0.128 0.163z"></path>
<path fill="#b00" stroke="#000" stroke-linejoin="miter" stroke-linecap="butt" stroke-miterlimit="4" stroke-width="0.8533" d="M28.694 23.721c0.022 0.030 0.003 0.064-0.037 0.068s-0.103-0.022-0.125-0.051l-0.12-0.164c-0.022-0.030-0.003-0.064 0.037-0.068 0.042-0.004 0.103 0.022 0.125 0.051l0.12 0.164z"></path>
<path fill="#b00" stroke="#000" stroke-linejoin="miter" stroke-linecap="butt" stroke-miterlimit="4" stroke-width="0.8533" d="M27.667 23.609c0.018 0.032-0.005 0.064-0.045 0.064s-0.1-0.030-0.118-0.062l-0.1-0.173c-0.018-0.032 0.005-0.064 0.045-0.064 0.043-0.001 0.1 0.030 0.118 0.062l0.1 0.173z"></path>
<path fill="#b00" stroke="#000" stroke-linejoin="miter" stroke-linecap="butt" stroke-miterlimit="4" stroke-width="0.8533" d="M27.843 23.631c0.019 0.031-0.002 0.064-0.042 0.065s-0.101-0.030-0.12-0.061l-0.107-0.173c-0.019-0.031 0.002-0.064 0.042-0.065 0.042-0.001 0.101 0.030 0.12 0.061l0.107 0.173z"></path>
<path fill="#b00" stroke="#000" stroke-linejoin="miter" stroke-linecap="butt" stroke-miterlimit="4" stroke-width="0.8533" d="M28.007 23.656c0.018 0.032-0.005 0.064-0.045 0.064s-0.1-0.030-0.118-0.062l-0.1-0.173c-0.018-0.032 0.005-0.064 0.045-0.064 0.043-0.001 0.1 0.030 0.118 0.062l0.1 0.173z"></path>
<path fill="#b00" stroke="#000" stroke-linejoin="miter" stroke-linecap="butt" stroke-miterlimit="4" stroke-width="0.8533" d="M29.556 23.758c0.023 0.030 0.006 0.064-0.034 0.068s-0.104-0.021-0.127-0.050l-0.128-0.163c-0.023-0.030-0.006-0.064 0.034-0.068 0.042-0.005 0.104 0.021 0.127 0.050l0.128 0.163z"></path>
<path fill="#b00" stroke="#000" stroke-linejoin="miter" stroke-linecap="butt" stroke-miterlimit="4" stroke-width="0.8533" d="M29.721 23.768c0.022 0.030 0.003 0.064-0.037 0.068s-0.103-0.022-0.125-0.051l-0.12-0.164c-0.022-0.030-0.003-0.064 0.037-0.068 0.042-0.004 0.103 0.022 0.125 0.051l0.12 0.164z"></path>
<path fill="#b00" stroke="#000" stroke-linejoin="miter" stroke-linecap="butt" stroke-miterlimit="4" stroke-width="0.8533" d="M29.913 23.768c0.026 0.028 0.012 0.063-0.028 0.070s-0.105-0.014-0.131-0.042l-0.142-0.154c-0.026-0.028-0.012-0.063 0.028-0.070 0.041-0.007 0.105 0.014 0.131 0.042l0.142 0.154z"></path>
<path fill="#b00" stroke="#000" stroke-linejoin="miter" stroke-linecap="butt" stroke-miterlimit="4" stroke-width="0.8533" d="M30.078 23.763c0.025 0.028 0.009 0.063-0.031 0.070s-0.105-0.015-0.129-0.043l-0.135-0.156c-0.025-0.028-0.009-0.063 0.031-0.070 0.042-0.007 0.105 0.015 0.129 0.043l0.135 0.155z"></path>
<path fill="#b00" stroke="#000" stroke-linejoin="miter" stroke-linecap="butt" stroke-miterlimit="4" stroke-width="0.8533" d="M28.876 23.725c0.023 0.030 0.006 0.064-0.034 0.068s-0.104-0.021-0.127-0.050l-0.128-0.163c-0.023-0.030-0.006-0.064 0.034-0.068 0.042-0.005 0.104 0.021 0.127 0.050l0.128 0.163z"></path>
<path fill="#b00" stroke="#000" stroke-linejoin="miter" stroke-linecap="butt" stroke-miterlimit="4" stroke-width="0.8533" d="M29.041 23.735c0.022 0.030 0.003 0.064-0.037 0.068s-0.103-0.022-0.125-0.051l-0.12-0.164c-0.022-0.030-0.003-0.064 0.037-0.068 0.042-0.004 0.103 0.022 0.125 0.051l0.12 0.164z"></path>
<path fill="#b00" stroke="#000" stroke-linejoin="miter" stroke-linecap="butt" stroke-miterlimit="4" stroke-width="0.8533" d="M29.216 23.745c0.023 0.030 0.006 0.064-0.034 0.068s-0.104-0.021-0.127-0.050l-0.128-0.163c-0.023-0.030-0.006-0.064 0.034-0.068 0.042-0.005 0.104 0.021 0.127 0.050l0.128 0.163z"></path>
<path fill="#b00" stroke="#000" stroke-linejoin="miter" stroke-linecap="butt" stroke-miterlimit="4" stroke-width="0.8533" d="M29.381 23.755c0.022 0.030 0.003 0.064-0.037 0.068s-0.103-0.022-0.125-0.051l-0.12-0.164c-0.022-0.030-0.003-0.064 0.037-0.068 0.042-0.004 0.103 0.022 0.125 0.051l0.12 0.164z"></path>
<path fill="#b00" stroke="#000" stroke-linejoin="miter" stroke-linecap="butt" stroke-miterlimit="4" stroke-width="0.8533" d="M26.759 22.958c-0.042 0.005-0.072-0.022-0.060-0.054s0.066-0.070 0.108-0.076l0.23-0.029c0.042-0.005 0.072 0.022 0.060 0.054-0.012 0.034-0.066 0.070-0.108 0.076l-0.23 0.029z"></path>
<path fill="#b00" stroke="#000" stroke-linejoin="miter" stroke-linecap="butt" stroke-miterlimit="4" stroke-width="0.8533" d="M26.787 23.14c-0.033 0.021-0.076 0.009-0.084-0.024s0.016-0.088 0.049-0.109l0.183-0.116c0.033-0.021 0.076-0.009 0.084 0.024 0.009 0.035-0.016 0.088-0.049 0.109l-0.183 0.116z"></path>
<path fill="#b00" stroke="#000" stroke-linejoin="miter" stroke-linecap="butt" stroke-miterlimit="4" stroke-width="0.8533" d="M26.881 23.307c-0.022 0.030-0.067 0.032-0.088 0.003s-0.021-0.088 0.001-0.118l0.123-0.166c0.022-0.030 0.067-0.032 0.088-0.003 0.023 0.030 0.021 0.088-0.001 0.118l-0.123 0.166z"></path>
<path fill="#b00" stroke="#000" stroke-linejoin="miter" stroke-linecap="butt" stroke-miterlimit="4" stroke-width="0.8533" d="M26.985 23.404c-0.009 0.034-0.050 0.048-0.083 0.027s-0.056-0.075-0.048-0.11l0.049-0.188c0.009-0.034 0.050-0.048 0.083-0.027 0.034 0.021 0.056 0.075 0.047 0.11l-0.049 0.188z"></path>
<path fill="#b00" stroke="#000" stroke-linejoin="miter" stroke-linecap="butt" stroke-miterlimit="4" stroke-width="0.8533" d="M27.029 22.599c-0.042-0.002-0.064-0.035-0.045-0.065s0.081-0.058 0.122-0.056l0.229 0.012c0.042 0.002 0.064 0.035 0.045 0.065-0.020 0.031-0.080 0.058-0.122 0.056l-0.229-0.012z"></path>
<path fill="#b00" stroke="#000" stroke-linejoin="miter" stroke-linecap="butt" stroke-miterlimit="4" stroke-width="0.8533" d="M26.926 22.713c-0.042-0.001-0.066-0.033-0.047-0.063s0.080-0.059 0.122-0.058l0.233 0.007c0.042 0.001 0.066 0.033 0.047 0.063-0.020 0.031-0.080 0.059-0.123 0.058l-0.233-0.007z"></path>
<path fill="#b00" stroke="#000" stroke-linejoin="miter" stroke-linecap="butt" stroke-miterlimit="4" stroke-width="0.8533" d="M26.838 22.825c-0.041 0.004-0.071-0.024-0.058-0.057s0.066-0.070 0.108-0.074l0.228-0.023c0.041-0.004 0.071 0.024 0.058 0.057-0.013 0.034-0.066 0.069-0.108 0.074l-0.228 0.023z"></path>
<path fill="#b00" stroke="#000" stroke-linejoin="miter" stroke-linecap="butt" stroke-miterlimit="4" stroke-width="0.8533" d="M27.113 23.52c0.002 0.035-0.033 0.058-0.070 0.045s-0.078-0.061-0.080-0.097l-0.013-0.195c-0.002-0.035 0.033-0.058 0.070-0.045 0.039 0.014 0.077 0.061 0.080 0.097l0.013 0.195z"></path>
<path fill="#b00" stroke="#000" stroke-linejoin="miter" stroke-linecap="butt" stroke-miterlimit="4" stroke-width="0.8533" d="M27.299 23.568c0.010 0.034-0.019 0.062-0.060 0.056s-0.091-0.046-0.101-0.080l-0.057-0.186c-0.010-0.034 0.019-0.062 0.060-0.056 0.042 0.006 0.091 0.046 0.101 0.080l0.057 0.186z"></path>
<path fill="#b00" stroke="#000" stroke-linejoin="miter" stroke-linecap="butt" stroke-miterlimit="4" stroke-width="0.8533" d="M27.503 23.585c0.019 0.031-0.002 0.064-0.042 0.065s-0.101-0.030-0.12-0.061l-0.107-0.173c-0.019-0.031 0.002-0.064 0.042-0.065 0.042-0.001 0.101 0.030 0.12 0.061l0.107 0.173z"></path>
<path fill="#b00" stroke="#000" stroke-linejoin="miter" stroke-linecap="butt" stroke-miterlimit="4" stroke-width="0.8533" d="M34.531 23.060c0.041 0.009 0.056 0.043 0.031 0.069s-0.093 0.044-0.134 0.035l-0.226-0.047c-0.041-0.009-0.056-0.043-0.030-0.070 0.027-0.027 0.093-0.044 0.134-0.035l0.226 0.047z"></path>
<path fill="#b00" stroke="#000" stroke-linejoin="miter" stroke-linecap="butt" stroke-miterlimit="4" stroke-width="0.8533" d="M34.579 23.087c0.040 0.011 0.052 0.047 0.024 0.072s-0.096 0.039-0.135 0.028l-0.218-0.061c-0.040-0.011-0.052-0.047-0.024-0.072 0.029-0.026 0.095-0.039 0.135-0.028l0.218 0.061z"></path>
<path fill="#b00" stroke="#000" stroke-linejoin="miter" stroke-linecap="butt" stroke-miterlimit="4" stroke-width="0.8533" d="M34.836 22.903c0.042 0.006 0.059 0.040 0.036 0.068s-0.090 0.049-0.131 0.042l-0.229-0.035c-0.042-0.006-0.059-0.040-0.035-0.068 0.025-0.029 0.090-0.049 0.131-0.042l0.229 0.035z"></path>
<path fill="#b00" stroke="#000" stroke-linejoin="miter" stroke-linecap="butt" stroke-miterlimit="4" stroke-width="0.8533" d="M34.702 23.016c0.039 0.012 0.050 0.048 0.022 0.073s-0.096 0.037-0.136 0.025l-0.217-0.065c-0.039-0.012-0.050-0.048-0.022-0.073 0.030-0.026 0.096-0.037 0.136-0.025l0.216 0.065z"></path>
<path fill="#b00" stroke="#000" stroke-linejoin="miter" stroke-linecap="butt" stroke-miterlimit="4" stroke-width="0.8533" d="M33.933 22.366c-0.039 0.015-0.046 0.051-0.015 0.073s0.101 0.029 0.14 0.014l0.212-0.081c0.039-0.015 0.046-0.051 0.015-0.073-0.032-0.023-0.101-0.029-0.14-0.014l-0.212 0.080z"></path>
<path fill="#b00" stroke="#000" stroke-linejoin="miter" stroke-linecap="butt" stroke-miterlimit="4" stroke-width="0.8533" d="M33.795 22.297c-0.038 0.015-0.044 0.052-0.012 0.074s0.101 0.028 0.138 0.013l0.207-0.084c0.038-0.015 0.044-0.052 0.012-0.074-0.033-0.023-0.101-0.028-0.138-0.013l-0.206 0.084z"></path>
<path fill="#b00" stroke="#000" stroke-linejoin="miter" stroke-linecap="butt" stroke-miterlimit="4" stroke-width="0.8533" d="M33.628 22.216c-0.040 0.012-0.051 0.048-0.022 0.072s0.098 0.036 0.138 0.023l0.219-0.067c0.040-0.012 0.051-0.048 0.022-0.072-0.030-0.025-0.098-0.035-0.138-0.023l-0.219 0.066z"></path>
<path fill="#b00" stroke="#000" stroke-linejoin="miter" stroke-linecap="butt" stroke-miterlimit="4" stroke-width="0.8533" d="M34.388 22.583c-0.038 0.015-0.044 0.052-0.012 0.074s0.101 0.028 0.138 0.013l0.207-0.084c0.038-0.015 0.044-0.052 0.012-0.074-0.033-0.023-0.101-0.028-0.138-0.013l-0.206 0.084z"></path>
<path fill="#b00" stroke="#000" stroke-linejoin="miter" stroke-linecap="butt" stroke-miterlimit="4" stroke-width="0.8533" d="M34.233 22.506c-0.039 0.015-0.046 0.051-0.015 0.073s0.101 0.029 0.14 0.014l0.212-0.081c0.039-0.015 0.046-0.051 0.015-0.073-0.032-0.023-0.101-0.029-0.14-0.014l-0.212 0.080z"></path>
<path fill="#b00" stroke="#000" stroke-linejoin="miter" stroke-linecap="butt" stroke-miterlimit="4" stroke-width="0.8533" d="M34.088 22.443c-0.038 0.015-0.044 0.052-0.012 0.074s0.101 0.028 0.138 0.013l0.207-0.084c0.038-0.015 0.044-0.052 0.012-0.074-0.033-0.023-0.101-0.028-0.138-0.013l-0.206 0.084z"></path>
<path fill="#fff133" stroke="#000" stroke-linejoin="miter" stroke-linecap="butt" stroke-miterlimit="4" stroke-width="0.0800" d="M30.368 6.485v0.339h-0.285v0.226h0.285v0.678h0.19v-0.678h0.286v-0.226h-0.286v-0.338h-0.19z"></path>
<path fill="#fff133" stroke="#000" stroke-linejoin="miter" stroke-linecap="butt" stroke-miterlimit="4" stroke-width="0.0800" d="M30.653 7.728c0 0.125-0.085 0.226-0.19 0.226s-0.19-0.101-0.19-0.226c0-0.125 0.085-0.226 0.19-0.226s0.19 0.101 0.19 0.226z"></path>
<path fill="#fff" stroke="#000" stroke-linejoin="miter" stroke-linecap="butt" stroke-miterlimit="4" stroke-width="0.0800" d="M32.616 11.962c0 0.585-0.060 1.244-0.166 1.75-0.681-0.225-1.522-0.339-1.925-0.339-0.497 0-1.398 0.114-1.961 0.226-0.109-0.489-0.172-1.052-0.173-1.636v-0.001c0-2.337 0.597-3.331 2.087-4.234 1.325 0.903 2.138 1.897 2.138 4.234z"></path>
<path fill="#fff133" stroke="#000" stroke-linejoin="miter" stroke-linecap="butt" stroke-miterlimit="4" stroke-width="0.0800" d="M32.617 12.034c0-0.209-0.949-0.378-2.118-0.378s-2.117 0.169-2.117 0.378v0.126c0-0.209 0.948-0.336 2.117-0.336s2.118 0.212 2.118 0.42v-0.21z"></path>
<path fill="#fff133" stroke="#000" stroke-linejoin="miter" stroke-linecap="butt" stroke-miterlimit="4" stroke-width="0.0800" d="M30.499 10.395l-0.334 0.252 0.223 0.168-0.111 0.084-0.223-0.168-0.334 0.252 0.334 0.252 0.224-0.169 0.111 0.084v0.252h0.222v-0.252l0.111-0.084 0.223 0.168 0.334-0.252-0.334-0.252-0.223 0.168-0.112-0.084 0.223-0.168-0.335-0.252z"></path>
<path fill="#fff133" stroke="#000" stroke-linejoin="miter" stroke-linecap="butt" stroke-miterlimit="4" stroke-width="0.0800" d="M28.252 10.66l0.033 0.254 0.056 0.163-0.080 0.102-0.056-0.163-0.024 0.265 0.192 0.223-0.056-0.164 0.136 0.061 0.084 0.244 0.108-0.021-0.084-0.244 0.080-0.103 0.056 0.163 0.025-0.266-0.192-0.223 0.056 0.163-0.136-0.060-0.056-0.163-0.141-0.233z"></path>
<path fill="#fff133" stroke="#000" stroke-linejoin="miter" stroke-linecap="butt" stroke-miterlimit="4" stroke-width="0.0800" d="M32.745 10.663l-0.128 0.237-0.051 0.164-0.134 0.063 0.051-0.164-0.185 0.226 0.032 0.265 0.051-0.165 0.083 0.101-0.076 0.245 0.108 0.019 0.076-0.245 0.134-0.063-0.051 0.164 0.185-0.227-0.033-0.265-0.051 0.164-0.083-0.101 0.051-0.164 0.019-0.256z"></path>
<path fill="#fff133" stroke="#000" stroke-linejoin="miter" stroke-linecap="butt" stroke-miterlimit="4" stroke-width="0.0800" d="M29.060 11.007c-0.012-0.090 0.048-0.17 0.14-0.187l0.001-0c0.088-0.011 0.194 0.061 0.212 0.144s-0.052 0.177-0.052 0.177l0.423 0.289-0.176 0.021-0.317-0.217-0.211 0.281-0.176 0.021 0.281-0.375s-0.106-0.072-0.124-0.155z"></path>
<path fill="#fff133" stroke="#000" stroke-linejoin="miter" stroke-linecap="butt" stroke-miterlimit="4" stroke-width="0.0800" d="M31.583 10.965c0.025-0.088 0.115-0.15 0.21-0.145l0.001 0c0.088 0.010 0.159 0.104 0.142 0.187s-0.122 0.156-0.122 0.156l0.284 0.374-0.176-0.021-0.213-0.28-0.316 0.218-0.176-0.021 0.421-0.291s-0.072-0.093-0.055-0.176z"></path>
<path fill="#fff133" stroke="#000" stroke-linejoin="miter" stroke-linecap="butt" stroke-miterlimit="4" stroke-width="0.0800" d="M32.619 11.782c0-0.209-0.95-0.378-2.119-0.378s-2.119 0.169-2.119 0.378v0.126c0-0.209 0.949-0.336 2.119-0.336s2.119 0.212 2.119 0.42v-0.21z"></path>
<path fill="#fff133" stroke="#000" stroke-linejoin="miter" stroke-linecap="butt" stroke-miterlimit="4" stroke-width="0.0800" d="M32.444 13.615c0-0.209-0.87-0.378-1.941-0.378s-1.94 0.169-1.94 0.378v0.126c0-0.209 0.869-0.336 1.94-0.336s1.941 0.212 1.941 0.42v-0.21z"></path>
<path fill="#fff133" stroke="#000" stroke-linejoin="miter" stroke-linecap="butt" stroke-miterlimit="4" stroke-width="0.0800" d="M30.523 11.975l-0.315 0.252 0.21 0.168-0.105 0.084-0.21-0.168-0.315 0.252 0.315 0.252 0.211-0.169 0.105 0.084v0.252h0.209v-0.252l0.105-0.084 0.21 0.168 0.315-0.252-0.315-0.252-0.21 0.168-0.106-0.084 0.21-0.168-0.315-0.252z"></path>
<path fill="#fff133" stroke="#000" stroke-linejoin="miter" stroke-linecap="butt" stroke-miterlimit="4" stroke-width="0.0800" d="M28.407 12.24l0.031 0.254 0.053 0.163-0.075 0.102-0.053-0.163-0.023 0.265 0.181 0.223-0.053-0.164 0.128 0.061 0.079 0.244 0.102-0.021-0.079-0.244 0.075-0.103 0.053 0.163 0.023-0.266-0.181-0.223 0.053 0.163-0.128-0.060-0.053-0.163-0.132-0.233z"></path>
<path fill="#fff133" stroke="#000" stroke-linejoin="miter" stroke-linecap="butt" stroke-miterlimit="4" stroke-width="0.0800" d="M32.638 12.244l-0.12 0.237-0.048 0.164-0.126 0.063 0.048-0.164-0.174 0.226 0.030 0.265 0.048-0.165 0.078 0.101-0.072 0.245 0.102 0.019 0.072-0.245 0.126-0.063-0.048 0.164 0.175-0.227-0.031-0.265-0.048 0.164-0.078-0.101 0.048-0.164 0.018-0.256z"></path>
<path fill="#fff133" stroke="#000" stroke-linejoin="miter" stroke-linecap="butt" stroke-miterlimit="4" stroke-width="0.0800" d="M29.168 12.588c-0.012-0.090 0.045-0.17 0.132-0.187l0.001-0c0.083-0.011 0.182 0.061 0.199 0.144s-0.049 0.177-0.049 0.177l0.399 0.289-0.166 0.021-0.299-0.217-0.199 0.281-0.166 0.021 0.265-0.375s-0.1-0.072-0.117-0.155z"></path>
<path fill="#fff133" stroke="#000" stroke-linejoin="miter" stroke-linecap="butt" stroke-miterlimit="4" stroke-width="0.0800" d="M31.544 12.546c0.024-0.088 0.108-0.15 0.198-0.145l0.001 0c0.083 0.010 0.15 0.104 0.134 0.187s-0.115 0.156-0.115 0.156l0.268 0.374-0.166-0.021-0.201-0.28-0.297 0.218-0.166-0.021 0.396-0.291s-0.067-0.093-0.051-0.176z"></path>
<path fill="#fff133" stroke="#000" stroke-linejoin="miter" stroke-linecap="butt" stroke-miterlimit="4" stroke-width="0.0800" d="M32.519 13.363c0-0.209-0.895-0.378-1.996-0.378s-1.995 0.169-1.995 0.378v0.126c0-0.209 0.894-0.336 1.995-0.336s1.996 0.212 1.996 0.42v-0.21z"></path>
<path fill="#fff133" stroke="#000" stroke-linejoin="miter" stroke-linecap="butt" stroke-miterlimit="4" stroke-width="0.0800" d="M32.504 10.566c0-0.209-0.895-0.378-1.997-0.378s-1.997 0.169-1.997 0.378v0.126c0-0.209 0.895-0.336 1.997-0.336s1.997 0.212 1.997 0.42v-0.21z"></path>
<path fill="#fff133" stroke="#000" stroke-linejoin="miter" stroke-linecap="butt" stroke-miterlimit="4" stroke-width="0.0800" d="M30.529 8.931l-0.308 0.238 0.205 0.158-0.103 0.079-0.206-0.158-0.308 0.238 0.308 0.238 0.206-0.159 0.103 0.080v0.238h0.205v-0.238l0.103-0.080 0.206 0.159 0.308-0.238-0.308-0.238-0.205 0.158-0.103-0.079 0.206-0.159-0.308-0.238z"></path>
<path fill="#fff133" stroke="#000" stroke-linejoin="miter" stroke-linecap="butt" stroke-miterlimit="4" stroke-width="0.0800" d="M28.459 9.181l0.030 0.24 0.051 0.153-0.074 0.097-0.051-0.153-0.022 0.25 0.177 0.211-0.052-0.154 0.125 0.057 0.077 0.23 0.099-0.020-0.077-0.23 0.073-0.097 0.052 0.154 0.023-0.251-0.177-0.21 0.051 0.153-0.125-0.056-0.051-0.153-0.129-0.22z"></path>
<path fill="#fff133" stroke="#000" stroke-linejoin="miter" stroke-linecap="butt" stroke-miterlimit="4" stroke-width="0.0800" d="M32.597 9.184l-0.118 0.223-0.047 0.154-0.123 0.059 0.047-0.154-0.17 0.213 0.030 0.25 0.047-0.155 0.076 0.096-0.070 0.231 0.1 0.018 0.070-0.231 0.123-0.059-0.047 0.155 0.171-0.214-0.030-0.25-0.047 0.154-0.077-0.095 0.047-0.154 0.018-0.241z"></path>
<path fill="#fff133" stroke="#000" stroke-linejoin="miter" stroke-linecap="butt" stroke-miterlimit="4" stroke-width="0.0800" d="M29.204 9.509c-0.011-0.085 0.044-0.16 0.129-0.177l0.001-0c0.081-0.010 0.178 0.058 0.195 0.136s-0.048 0.167-0.048 0.167l0.39 0.273-0.162 0.020-0.292-0.204-0.194 0.265-0.162 0.020 0.259-0.354s-0.098-0.068-0.114-0.146z"></path>
<path fill="#fff133" stroke="#000" stroke-linejoin="miter" stroke-linecap="butt" stroke-miterlimit="4" stroke-width="0.0800" d="M31.528 9.469c0.023-0.083 0.106-0.142 0.194-0.137l0.001 0c0.081 0.010 0.147 0.098 0.131 0.176s-0.112 0.147-0.112 0.147l0.262 0.352-0.162-0.019-0.196-0.264-0.291 0.206-0.162-0.019 0.388-0.275s-0.066-0.088-0.050-0.166z"></path>
<path fill="#fff133" stroke="#000" stroke-linejoin="miter" stroke-linecap="butt" stroke-miterlimit="4" stroke-width="0.0800" d="M32.481 10.24c0-0.197-0.875-0.357-1.952-0.357s-1.951 0.16-1.951 0.357v0.119c0-0.197 0.874-0.317 1.951-0.317s1.952 0.2 1.952 0.397v-0.198z"></path>
<path fill="#b90000" d="M32.461 13.733c0 0.176-0.873 0.318-1.95 0.318s-1.95-0.142-1.95-0.318c0-0.176 0.873-0.318 1.95-0.318s1.95 0.142 1.95 0.318z"></path>
<path fill="#fff" stroke="#000" stroke-linejoin="miter" stroke-linecap="butt" stroke-miterlimit="4" stroke-width="0.0800" d="M33.681 11.925l0.566-0.235 0.566 0.235s-1.173 0.471-1.173 2.117c0 1.176 2.003 1.411 2.003 2.822 0 0.605-0.546 1.176-1.114 1.176s-1.418-0.235-2.267-0.941c0.566 0.235 1.216 0.495 1.701 0.478 0.314-0.004 0.88-0.235 0.88-0.703 0-0.942-1.965-1.42-1.965-2.831 0-1.646 0.8-2.116 0.8-2.116z"></path>
<path fill="#b00" stroke="#000" stroke-linejoin="miter" stroke-linecap="butt" stroke-miterlimit="4" stroke-width="1.2" d="M30.3 24.902c-0.049 0.003-0.076 0.060-0.053 0.113s0.094 0.102 0.143 0.099l0.269-0.019c0.049-0.003 0.076-0.060 0.053-0.113-0.023-0.055-0.094-0.102-0.143-0.099l-0.269 0.019z"></path>
<path fill="#fff" stroke="#000" stroke-linejoin="miter" stroke-linecap="butt" stroke-miterlimit="4" stroke-width="0.0800" d="M33.785 11.925l0.746-0.235 0.16 0.235s-1.13 0.471-1.13 2.117c0 1.176 2.014 1.411 2.014 2.822 0 0.605-0.427 1.16-1.045 1.176-1.174 0.031-1.446-0.319-2.267-0.941 0.69 0.429 1.68 0.621 2.064 0.454 0.47-0.204 0.56-0.478 0.56-0.714 0-0.941-1.934-1.386-1.934-2.797 0-1.646 0.832-2.116 0.832-2.116z"></path>
<path fill="#fff" stroke="#000" stroke-linejoin="miter" stroke-linecap="butt" stroke-miterlimit="4" stroke-width="0.0800" d="M33.673 11.931c0.112-0.032 0.576-0.242 1.141 0.23 0.285 0.235 0.285 0.705 0.285 0.94l0.85-0.705s-0.464-1.153-1.722-0.711c-0.219 0.085-0.4 0.167-0.575 0.258l0.023-0.011z"></path>
<path fill="#fff" stroke="#000" stroke-linejoin="miter" stroke-linecap="butt" stroke-miterlimit="4" stroke-width="0.0800" d="M33.841 11.848c0.141-0.037 0.587-0.084 1.034 0.247 0.283 0.235 0.304 0.569 0.304 0.804l0.65-0.504c0.054-0.041-0.397-1.078-1.587-0.717-0.154 0.052-0.286 0.11-0.41 0.176l0.010-0.005z"></path>
<path fill="#fff133" stroke="#000" stroke-linejoin="miter" stroke-linecap="butt" stroke-miterlimit="4" stroke-width="0.0800" d="M33.596 15.242l0.218 0.242s-0.024-0.114 0.060-0.144l0.084-0.029s0.571 0.532 0.679 0.626c0.108 0.094 0.028 0.199 0.051 0.196s0.294-0.169 0.294-0.169-0.134 0.025-0.223-0.051-0.72-0.645-0.72-0.645 0.068-0.038 0.125-0.076c0.057-0.038 0.174 0.078 0.174 0.078l-0.29-0.289s0.040 0.103-0.010 0.128c-0.049 0.027-0.088 0.053-0.088 0.053s-0.073-0.067-0.163-0.143c-0.088-0.075-0.004-0.169-0.004-0.169l-0.248 0.164s0.124 0.040 0.177 0.087l0.108 0.094s-0.034 0.025-0.091 0.052c-0.038 0.027-0.1 0.011-0.131-0.007z"></path>
<path fill="#fff133" stroke="#000" stroke-linejoin="miter" stroke-linecap="butt" stroke-miterlimit="4" stroke-width="0.0800" d="M35.734 12.293l-0.114-0.181s-0.016 0.088-0.098 0.115l-0.083 0.026s-0.33-0.392-0.395-0.462c-0.065-0.069 0.039-0.154 0.018-0.151s-0.312 0.144-0.312 0.144 0.125-0.025 0.179 0.031 0.425 0.475 0.425 0.475-0.072 0.033-0.134 0.064c-0.062 0.032-0.127-0.054-0.127-0.054l0.162 0.214s-0.002-0.079 0.050-0.101c0.052-0.023 0.094-0.045 0.094-0.045s0.043 0.049 0.098 0.105c0.054 0.055-0.050 0.132-0.050 0.132l0.27-0.139s-0.096-0.026-0.127-0.061l-0.065-0.069s0.038-0.021 0.096-0.044c0.042-0.023 0.091-0.012 0.113-0z"></path>
<path fill="#b00" stroke="#000" stroke-linejoin="miter" stroke-linecap="butt" stroke-miterlimit="4" stroke-width="1.2" d="M30.534 24.889c-0.049 0.003-0.076 0.060-0.053 0.113s0.094 0.102 0.143 0.099l0.269-0.019c0.049-0.003 0.076-0.060 0.053-0.113-0.023-0.055-0.094-0.102-0.143-0.099l-0.269 0.019z"></path>
<path fill="#b00" stroke="#000" stroke-linejoin="miter" stroke-linecap="butt" stroke-miterlimit="4" stroke-width="1.2" d="M30.192 25.082c-0.082 0.003-0.127 0.060-0.090 0.113s0.158 0.102 0.24 0.099l0.453-0.019c0.082-0.003 0.127-0.060 0.089-0.113-0.039-0.055-0.158-0.102-0.24-0.099l-0.453 0.019z"></path>
<path fill="#b00" stroke="#000" stroke-linejoin="miter" stroke-linecap="butt" stroke-miterlimit="4" stroke-width="1.2" d="M30.412 25.069c-0.082 0.003-0.127 0.060-0.090 0.113s0.158 0.102 0.24 0.099l0.453-0.019c0.082-0.003 0.127-0.060 0.089-0.113-0.039-0.055-0.158-0.102-0.24-0.099l-0.453 0.019z"></path>
<path fill="#b00" stroke="#000" stroke-linejoin="miter" stroke-linecap="butt" stroke-miterlimit="4" stroke-width="1.2" d="M30.108 25.296c-0.102 0.003-0.158 0.060-0.111 0.113s0.196 0.102 0.298 0.099l0.562-0.019c0.102-0.003 0.158-0.060 0.111-0.113-0.049-0.055-0.196-0.102-0.298-0.099l-0.561 0.019z"></path>
<path fill="#b00" stroke="#000" stroke-linejoin="miter" stroke-linecap="butt" stroke-miterlimit="4" stroke-width="1.2" d="M30.375 25.276c-0.102 0.003-0.158 0.060-0.111 0.113s0.196 0.102 0.298 0.099l0.562-0.019c0.102-0.003 0.158-0.060 0.111-0.113-0.049-0.055-0.196-0.102-0.298-0.099l-0.561 0.019z"></path>
<path fill="#ffe000" d="M0 0h21.333v32h-21.333z"></path>
</svg>
