<!-- Generated by IcoMoon.io -->
<svg version="1.1" xmlns="http://www.w3.org/2000/svg" width="43" height="32" viewBox="0 0 43 32">
<title>ve</title>
<path fill="#cf142b" d="M0 0h42.667v32h-42.667z"></path>
<path fill="#00247d" d="M0 0h42.667v21.333h-42.667z"></path>
<path fill="#fc0" d="M0 0h42.667v10.667h-42.667z"></path>
<path fill="#000" d="M21.565 21.087l-0.616 1.191 0.694 0.366z"></path>
<path fill="#000" d="M21.565 21.087l0.172 1.33-0.777 0.107z"></path>
<path fill="#000" d="M22.654 22.214l-1.323-0.218-0.134 0.773z"></path>
<path fill="#000" d="M22.654 22.214l-1.212 0.574-0.342-0.706z"></path>
<path fill="#000" d="M20.156 21.774l0.942 0.954 0.562-0.547z"></path>
<path fill="#000" d="M20.156 21.774l1.318 0.248-0.139 0.772z"></path>
<path fill="#000" d="M21.918 23.598l-0.202-1.326-0.776 0.112z"></path>
<path fill="#000" d="M21.918 23.598l-0.921-0.975 0.566-0.543z"></path>
<path fill="#000" d="M20.374 23.326l1.199-0.601-0.346-0.704z"></path>
<path fill="#000" d="M20.374 23.326l0.643-1.177 0.691 0.37z"></path>
<path fill="#000" d="M22 21.245l-0.986 0.909 0.527 0.581z"></path>
<path fill="#000" d="M22 21.245l-0.294 1.308-0.767-0.166z"></path>
<path fill="#000" d="M22.638 22.677l-1.169-0.657-0.39 0.68z"></path>
<path fill="#000" d="M22.638 22.677l-1.335 0.125-0.079-0.78z"></path>
<path fill="#000" d="M20.441 21.409l0.559 1.219 0.715-0.321z"></path>
<path fill="#000" d="M20.441 21.409l1.154 0.684-0.394 0.678z"></path>
<path fill="#000" d="M21.473 23.726l0.264-1.315-0.768-0.161z"></path>
<path fill="#000" d="M21.473 23.726l-0.532-1.231 0.718-0.317z"></path>
<path fill="#000" d="M20.115 22.942l1.332-0.155-0.084-0.78z"></path>
<path fill="#000" d="M20.115 22.942l1.007-0.886 0.523 0.584z"></path>
<path fill="#000" d="M22.355 21.543l-0.723 1.129-0.664-0.418z"></path>
<path fill="#000" d="M21.011 23.694l0.698-1.145-0.666-0.413z"></path>
<path fill="#000" d="M22.464 23.107l-1.297-0.339 0.192-0.76z"></path>
<path fill="#000" d="M20.834 21.164l0.85 1.037-0.602 0.502z"></path>
<path fill="#000" d="M21.011 23.694l-0.078-1.339 0.783-0.052z"></path>
<path fill="#000" d="M20.003 22.493l1.305 0.31 0.187-0.762z"></path>
<path fill="#000" d="M20.003 22.493l1.249-0.488 0.291 0.728z"></path>
<path fill="#000" d="M22.586 21.944l-1.066 0.814-0.481-0.62z"></path>
<path fill="#000" d="M20.588 23.505l1.047-0.837-0.485-0.616z"></path>
<path fill="#000" d="M22.154 23.451l-1.103-0.762 0.441-0.649z"></path>
<path fill="#000" d="M21.287 21.067l0.444 1.265-0.738 0.266z"></path>
<path fill="#000" d="M20.588 23.505l0.384-1.285 0.753 0.219z"></path>
<path fill="#000" d="M20.052 22.032l1.12 0.737 0.436-0.652z"></path>
<path fill="#000" d="M20.052 22.032l1.341-0.032 0.025 0.784z"></path>
</svg>
