<!-- Generated by IcoMoon.io -->
<svg version="1.1" xmlns="http://www.w3.org/2000/svg" width="43" height="32" viewBox="0 0 43 32">
<title>vg</title>
<path fill="#006" d="M0 0h42.667v32h-42.667z"></path>
<path fill="#012169" d="M0 0h21.333v16h-21.333z"></path>
<path fill="#fff" d="M2.5 0l8.133 6.033 8.1-6.033h2.6v2.067l-8 5.967 8 5.933v2.033h-2.667l-8-5.967-7.967 5.967h-2.7v-2l7.967-5.933-7.967-5.933v-2.133z"></path>
<path fill="#c8102e" d="M14.133 9.367l7.2 5.3v1.333l-9.033-6.633zM8 10.033l0.2 1.167-6.4 4.8h-1.8zM21.333 0v0.1l-8.3 6.267 0.067-1.467 6.567-4.9zM0 0l7.967 5.867h-2l-5.967-4.467z"></path>
<path fill="#fff" d="M8.033 0v16h5.333v-16zM0 5.333v5.333h21.333v-5.333z"></path>
<path fill="#c8102e" d="M0 6.433v3.2h21.333v-3.2zM9.1 0v16h3.2v-16z"></path>
<path fill="#fff" d="M25.607 6.813l12.937-0.046-0.026 11.521s0.455 1.757-5.425 4.417c2.113-0.217 4.417-2.47 4.417-2.47s0.935-1.204 1.395-0.532c0.455 0.672 0.883 1.013 1.219 1.276 0.336 0.258 0.599 0.982 0.098 1.509-0.506 0.532-1.297 0.599-1.514-0.047-0.336 0.171-2.397 2.666-6.623 2.785-4.299-0.072-6.649-2.811-6.649-2.811s-0.573 0.914-1.395 0.196c-0.79-0.94-0.191-1.54-0.191-1.54s0.672-0.382 0.868-0.646c0.31-0.362 0.408-0.842 0.93-0.842 0.63 0.052 0.868 0.553 0.868 0.553s2.16 2.278 4.49 2.568c-5.254-2.521-5.451-4.082-5.425-4.464l0.026-11.423z"></path>
<path fill="#006129" d="M25.917 7.128l12.338-0.072v11.087c0.026 1.447-2.402 2.909-6.195 4.779-3.911-2.015-6.169-3.239-6.189-4.805l0.047-10.989z"></path>
<path fill="#ffc72c" d="M28.47 8.363c0 0.080-0.065 0.145-0.145 0.145s-0.145-0.065-0.145-0.145v0c0-0.080 0.065-0.145 0.145-0.145s0.145 0.065 0.145 0.145v0z"></path>
<path fill="#ffc72c" d="M27.731 9.556h1.131s0.015-0.145-0.119-0.232c0.594-0.083 0.439-0.599 0.93-0.63 0.103 0.015-0.258 0.222-0.258 0.222s-0.294 0.207-0.155 0.315c0.103 0.088 0.155-0.052 0.165-0.155 0.015-0.103 0.48-0.171 0.413-0.465-0.108-0.243-0.759 0.165-0.759 0.165l-0.465-0.005c-0.031-0.052-0.155-0.258-0.289-0.258-0.155 0-0.269 0.258-0.269 0.258h-1.049s-0.036 0.274 0.496 0.325c0.119 0.155 0.212 0.196 0.32 0.238-0.072 0.057-0.093 0.129-0.093 0.222z"></path>
<path fill="#ffc72c" d="M27.813 9.329h0.94"></path>
<path fill="#ffc72c" d="M27.385 8.776s0.072 0.439 0.424 0.542"></path>
<path fill="#000" d="M27.328 8.766c0.031-0.165 0.098-0.196 0.165-0.413 0.010-0.207-0.165-0.181-0.114-0.31 0.093-0.15 0.047-0.289-0.129-0.398 0.036 0.191-0.227 0.372-0.227 0.527s0.134 0.124 0.119 0.362c0.010 0.134-0.036 0.103-0.052 0.232h0.238z"></path>
<path fill="#ffc72c" d="M28.459 7.728c0 0.074-0.060 0.134-0.134 0.134s-0.134-0.060-0.134-0.134v0c0-0.074 0.060-0.134 0.134-0.134s0.134 0.060 0.134 0.134v0z"></path>
<path fill="#ffc72c" d="M28.428 10.497c0 0.080-0.065 0.145-0.145 0.145s-0.145-0.065-0.145-0.145v0c0-0.080 0.065-0.145 0.145-0.145s0.145 0.065 0.145 0.145v0z"></path>
<path fill="#ffc72c" d="M27.689 11.69h1.131s0.015-0.145-0.119-0.232c0.594-0.083 0.439-0.599 0.93-0.63 0.103 0.015-0.258 0.222-0.258 0.222s-0.294 0.207-0.155 0.315c0.103 0.088 0.155-0.052 0.165-0.155 0.015-0.103 0.48-0.171 0.413-0.465-0.108-0.243-0.759 0.165-0.759 0.165l-0.465-0.005c-0.031-0.052-0.155-0.258-0.289-0.258-0.155 0-0.269 0.258-0.269 0.258h-1.049s-0.036 0.274 0.496 0.325c0.119 0.155 0.212 0.196 0.32 0.238-0.072 0.057-0.093 0.129-0.093 0.222z"></path>
<path fill="#ffc72c" d="M27.772 11.463h0.94"></path>
<path fill="#ffc72c" d="M27.343 10.91s0.072 0.439 0.424 0.542"></path>
<path fill="#000" d="M27.286 10.9c0.031-0.165 0.098-0.196 0.165-0.413 0.010-0.207-0.165-0.181-0.114-0.31 0.093-0.15 0.047-0.289-0.129-0.398 0.036 0.191-0.227 0.372-0.227 0.527s0.134 0.124 0.119 0.362c0.010 0.134-0.036 0.103-0.052 0.232h0.238z"></path>
<path fill="#ffc72c" d="M28.418 9.861c0 0.074-0.060 0.134-0.134 0.134s-0.134-0.060-0.134-0.134v0c0-0.074 0.060-0.134 0.134-0.134s0.134 0.060 0.134 0.134v0z"></path>
<path fill="#ffc72c" d="M28.413 12.6c0 0.080-0.065 0.145-0.145 0.145s-0.145-0.065-0.145-0.145v0c0-0.080 0.065-0.145 0.145-0.145s0.145 0.065 0.145 0.145v0z"></path>
<path fill="#ffc72c" d="M27.674 13.793h1.131s0.015-0.145-0.119-0.232c0.594-0.083 0.439-0.599 0.93-0.63 0.103 0.015-0.258 0.222-0.258 0.222s-0.294 0.207-0.155 0.315c0.103 0.088 0.155-0.052 0.165-0.155 0.015-0.103 0.48-0.171 0.413-0.465-0.108-0.243-0.759 0.165-0.759 0.165l-0.465-0.005c-0.031-0.052-0.155-0.258-0.289-0.258-0.155 0-0.269 0.258-0.269 0.258h-1.049s-0.036 0.274 0.496 0.325c0.119 0.155 0.212 0.196 0.32 0.238-0.072 0.057-0.093 0.129-0.093 0.222z"></path>
<path fill="#ffc72c" d="M27.757 13.566h0.94"></path>
<path fill="#ffc72c" d="M27.328 13.013s0.072 0.439 0.424 0.542"></path>
<path fill="#000" d="M27.271 13.002c0.031-0.165 0.098-0.196 0.165-0.413 0.010-0.207-0.165-0.181-0.114-0.31 0.093-0.15 0.047-0.289-0.129-0.398 0.036 0.191-0.227 0.372-0.227 0.527s0.134 0.124 0.119 0.362c0.010 0.134-0.036 0.103-0.052 0.232h0.238z"></path>
<path fill="#ffc72c" d="M28.402 11.964c0 0.074-0.060 0.134-0.134 0.134s-0.134-0.060-0.134-0.134v0c0-0.074 0.060-0.134 0.134-0.134s0.134 0.060 0.134 0.134v0z"></path>
<path fill="#ffc72c" d="M29.792 14.878c0 0.080-0.065 0.145-0.145 0.145s-0.145-0.065-0.145-0.145v0c0-0.080 0.065-0.145 0.145-0.145s0.145 0.065 0.145 0.145v0z"></path>
<path fill="#ffc72c" d="M29.053 16.071h1.131s0.015-0.145-0.119-0.232c0.594-0.083 0.439-0.599 0.93-0.63 0.103 0.015-0.258 0.222-0.258 0.222s-0.294 0.207-0.155 0.315c0.103 0.088 0.155-0.052 0.165-0.155 0.015-0.103 0.48-0.171 0.413-0.465-0.108-0.243-0.759 0.165-0.759 0.165l-0.465-0.005c-0.031-0.052-0.155-0.258-0.289-0.258-0.155 0-0.269 0.258-0.269 0.258h-1.049s-0.036 0.274 0.496 0.325c0.119 0.155 0.212 0.196 0.32 0.238-0.072 0.057-0.093 0.129-0.093 0.222z"></path>
<path fill="#ffc72c" d="M29.136 15.844h0.94"></path>
<path fill="#ffc72c" d="M28.707 15.291s0.072 0.439 0.424 0.542"></path>
<path fill="#000" d="M28.65 15.281c0.031-0.165 0.098-0.196 0.165-0.413 0.010-0.207-0.165-0.181-0.114-0.31 0.093-0.15 0.047-0.289-0.129-0.398 0.036 0.191-0.227 0.372-0.227 0.527s0.134 0.124 0.119 0.362c0.010 0.134-0.036 0.103-0.052 0.232h0.238z"></path>
<path fill="#ffc72c" d="M29.782 14.242c0 0.074-0.060 0.134-0.134 0.134s-0.134-0.060-0.134-0.134v0c0-0.074 0.060-0.134 0.134-0.134s0.134 0.060 0.134 0.134v0z"></path>
<path fill="#ffc72c" d="M28.232 16.743c0 0.080-0.065 0.145-0.145 0.145s-0.145-0.065-0.145-0.145v0c0-0.080 0.065-0.145 0.145-0.145s0.145 0.065 0.145 0.145v0z"></path>
<path fill="#ffc72c" d="M27.493 17.936h1.131s0.015-0.145-0.119-0.233c0.594-0.083 0.439-0.599 0.93-0.63 0.103 0.015-0.258 0.222-0.258 0.222s-0.294 0.207-0.155 0.315c0.103 0.088 0.155-0.052 0.165-0.155 0.015-0.103 0.48-0.171 0.413-0.465-0.108-0.243-0.759 0.165-0.759 0.165l-0.465-0.005c-0.031-0.052-0.155-0.258-0.289-0.258-0.155 0-0.269 0.258-0.269 0.258h-1.049s-0.036 0.274 0.496 0.326c0.119 0.155 0.212 0.196 0.32 0.238-0.072 0.057-0.093 0.129-0.093 0.222z"></path>
<path fill="#ffc72c" d="M27.576 17.709h0.94"></path>
<path fill="#ffc72c" d="M27.147 17.156s0.072 0.439 0.424 0.542"></path>
<path fill="#000" d="M27.090 17.146c0.031-0.165 0.098-0.196 0.165-0.413 0.010-0.207-0.165-0.181-0.114-0.31 0.093-0.15 0.047-0.289-0.129-0.398 0.036 0.191-0.227 0.372-0.227 0.527s0.134 0.124 0.119 0.362c0.010 0.134-0.036 0.103-0.052 0.233h0.238z"></path>
<path fill="#ffc72c" d="M28.221 16.108c0 0.074-0.060 0.134-0.134 0.134s-0.134-0.060-0.134-0.134v0c0-0.074 0.060-0.134 0.134-0.134s0.134 0.060 0.134 0.134v0z"></path>
<path fill="#ffc72c" d="M28.273 18.944c0 0.080-0.065 0.145-0.145 0.145s-0.145-0.065-0.145-0.145v0c0-0.080 0.065-0.145 0.145-0.145s0.145 0.065 0.145 0.145v0z"></path>
<path fill="#ffc72c" d="M27.534 20.137h1.131s0.015-0.145-0.119-0.233c0.594-0.083 0.439-0.599 0.93-0.63 0.103 0.015-0.258 0.222-0.258 0.222s-0.294 0.207-0.155 0.315c0.103 0.088 0.155-0.052 0.165-0.155 0.015-0.103 0.48-0.171 0.413-0.465-0.108-0.243-0.759 0.165-0.759 0.165l-0.465-0.005c-0.031-0.052-0.155-0.258-0.289-0.258-0.155 0-0.269 0.258-0.269 0.258h-1.049s-0.036 0.274 0.496 0.326c0.119 0.155 0.212 0.196 0.32 0.238-0.072 0.057-0.093 0.129-0.093 0.222z"></path>
<path fill="#ffc72c" d="M27.617 19.91h0.94"></path>
<path fill="#ffc72c" d="M27.188 19.357s0.072 0.439 0.424 0.542"></path>
<path fill="#000" d="M27.131 19.347c0.031-0.165 0.098-0.196 0.165-0.413 0.010-0.207-0.165-0.181-0.114-0.31 0.093-0.15 0.047-0.289-0.129-0.398 0.036 0.191-0.227 0.372-0.227 0.527s0.134 0.124 0.119 0.362c0.010 0.134-0.036 0.103-0.052 0.233h0.238z"></path>
<path fill="#ffc72c" d="M28.263 18.308c0 0.074-0.060 0.134-0.134 0.134s-0.134-0.060-0.134-0.134v0c0-0.074 0.060-0.134 0.134-0.134s0.134 0.060 0.134 0.134v0z"></path>
<path fill="#ffc72c" d="M36.028 8.399c0 0.080-0.065 0.145-0.145 0.145s-0.145-0.065-0.145-0.145v0c0-0.080 0.065-0.145 0.145-0.145s0.145 0.065 0.145 0.145v0z"></path>
<path fill="#ffc72c" d="M35.289 9.593h1.131s0.016-0.145-0.119-0.232c0.594-0.083 0.439-0.599 0.93-0.63 0.103 0.015-0.258 0.222-0.258 0.222s-0.294 0.207-0.155 0.315c0.103 0.088 0.155-0.052 0.165-0.155 0.016-0.103 0.48-0.171 0.413-0.465-0.108-0.243-0.759 0.165-0.759 0.165l-0.465-0.005c-0.031-0.052-0.155-0.258-0.289-0.258-0.155 0-0.269 0.258-0.269 0.258h-1.049s-0.036 0.274 0.496 0.325c0.119 0.155 0.212 0.196 0.32 0.238-0.072 0.057-0.093 0.129-0.093 0.222z"></path>
<path fill="#ffc72c" d="M35.372 9.365h0.94"></path>
<path fill="#ffc72c" d="M34.943 8.812s0.072 0.439 0.424 0.542"></path>
<path fill="#000" d="M34.886 8.802c0.031-0.165 0.098-0.196 0.165-0.413 0.010-0.207-0.165-0.181-0.114-0.31 0.093-0.15 0.047-0.289-0.129-0.398 0.036 0.191-0.227 0.372-0.227 0.527s0.134 0.124 0.119 0.362c0.010 0.134-0.036 0.103-0.052 0.232h0.238z"></path>
<path fill="#ffc72c" d="M36.018 7.764c0 0.074-0.060 0.134-0.134 0.134s-0.134-0.060-0.134-0.134v0c0-0.074 0.060-0.134 0.134-0.134s0.134 0.060 0.134 0.134v0z"></path>
<path fill="#ffc72c" d="M35.956 10.492c0 0.080-0.065 0.145-0.145 0.145s-0.145-0.065-0.145-0.145v0c0-0.080 0.065-0.145 0.145-0.145s0.145 0.065 0.145 0.145v0z"></path>
<path fill="#ffc72c" d="M35.217 11.685h1.131s0.016-0.145-0.119-0.232c0.594-0.083 0.439-0.599 0.93-0.63 0.103 0.015-0.258 0.222-0.258 0.222s-0.294 0.207-0.155 0.315c0.103 0.088 0.155-0.052 0.165-0.155 0.016-0.103 0.48-0.171 0.413-0.465-0.108-0.243-0.759 0.165-0.759 0.165l-0.465-0.005c-0.031-0.052-0.155-0.258-0.289-0.258-0.155 0-0.269 0.258-0.269 0.258h-1.049s-0.036 0.274 0.496 0.325c0.119 0.155 0.212 0.196 0.32 0.238-0.072 0.057-0.093 0.129-0.093 0.222z"></path>
<path fill="#ffc72c" d="M35.3 11.458h0.94"></path>
<path fill="#ffc72c" d="M34.871 10.905s0.072 0.439 0.424 0.542"></path>
<path fill="#000" d="M34.814 10.895c0.031-0.165 0.098-0.196 0.165-0.413 0.010-0.207-0.165-0.181-0.114-0.31 0.093-0.15 0.047-0.289-0.129-0.398 0.036 0.191-0.227 0.372-0.227 0.527s0.134 0.124 0.119 0.362c0.010 0.134-0.036 0.103-0.052 0.232h0.238z"></path>
<path fill="#ffc72c" d="M35.945 9.856c0 0.074-0.060 0.134-0.134 0.134s-0.134-0.060-0.134-0.134v0c0-0.074 0.060-0.134 0.134-0.134s0.134 0.060 0.134 0.134v0z"></path>
<path fill="#ffc72c" d="M35.863 12.636c0 0.080-0.065 0.145-0.145 0.145s-0.145-0.065-0.145-0.145v0c0-0.080 0.065-0.145 0.145-0.145s0.145 0.065 0.145 0.145v0z"></path>
<path fill="#ffc72c" d="M35.124 13.829h1.131s0.016-0.145-0.119-0.232c0.594-0.083 0.439-0.599 0.93-0.63 0.103 0.015-0.258 0.222-0.258 0.222s-0.294 0.207-0.155 0.315c0.103 0.088 0.155-0.052 0.165-0.155 0.016-0.103 0.48-0.171 0.413-0.465-0.108-0.243-0.759 0.165-0.759 0.165l-0.465-0.005c-0.031-0.052-0.155-0.258-0.289-0.258-0.155 0-0.269 0.258-0.269 0.258h-1.049s-0.036 0.274 0.496 0.325c0.119 0.155 0.212 0.196 0.32 0.238-0.072 0.057-0.093 0.129-0.093 0.222z"></path>
<path fill="#ffc72c" d="M35.207 13.602h0.94"></path>
<path fill="#ffc72c" d="M34.778 13.049s0.072 0.439 0.424 0.542"></path>
<path fill="#000" d="M34.721 13.039c0.031-0.165 0.098-0.196 0.165-0.413 0.010-0.207-0.165-0.181-0.114-0.31 0.093-0.15 0.047-0.289-0.129-0.398 0.036 0.191-0.227 0.372-0.227 0.527s0.134 0.124 0.119 0.362c0.010 0.134-0.036 0.103-0.052 0.232h0.238z"></path>
<path fill="#ffc72c" d="M35.852 12c0 0.074-0.060 0.134-0.134 0.134s-0.134-0.060-0.134-0.134v0c0-0.074 0.060-0.134 0.134-0.134s0.134 0.060 0.134 0.134v0z"></path>
<path fill="#ffc72c" d="M35.971 14.738c0 0.080-0.065 0.145-0.145 0.145s-0.145-0.065-0.145-0.145v0c0-0.080 0.065-0.145 0.145-0.145s0.145 0.065 0.145 0.145v0z"></path>
<path fill="#ffc72c" d="M35.232 15.932h1.131s0.016-0.145-0.119-0.232c0.594-0.083 0.439-0.599 0.93-0.63 0.103 0.015-0.258 0.222-0.258 0.222s-0.294 0.207-0.155 0.315c0.103 0.088 0.155-0.052 0.165-0.155 0.016-0.103 0.48-0.171 0.413-0.465-0.108-0.243-0.759 0.165-0.759 0.165l-0.465-0.005c-0.031-0.052-0.155-0.258-0.289-0.258-0.155 0-0.269 0.258-0.269 0.258h-1.049s-0.036 0.274 0.496 0.325c0.119 0.155 0.212 0.196 0.32 0.238-0.072 0.057-0.093 0.129-0.093 0.222z"></path>
<path fill="#ffc72c" d="M35.315 15.705h0.94"></path>
<path fill="#ffc72c" d="M34.886 15.152s0.072 0.439 0.424 0.542"></path>
<path fill="#000" d="M34.829 15.141c0.031-0.165 0.098-0.196 0.165-0.413 0.010-0.207-0.165-0.181-0.114-0.31 0.093-0.15 0.047-0.289-0.129-0.398 0.036 0.191-0.227 0.372-0.227 0.527s0.134 0.124 0.119 0.362c0.010 0.134-0.036 0.103-0.052 0.232h0.238z"></path>
<path fill="#ffc72c" d="M35.961 14.103c0 0.074-0.060 0.134-0.134 0.134s-0.134-0.060-0.134-0.134v0c0-0.074 0.060-0.134 0.134-0.134s0.134 0.060 0.134 0.134v0z"></path>
<path fill="#ffc72c" d="M35.945 16.846c0 0.080-0.065 0.145-0.145 0.145s-0.145-0.065-0.145-0.145v0c0-0.080 0.065-0.145 0.145-0.145s0.145 0.065 0.145 0.145v0z"></path>
<path fill="#ffc72c" d="M35.207 18.040h1.131s0.016-0.145-0.119-0.233c0.594-0.083 0.439-0.599 0.93-0.63 0.103 0.015-0.258 0.222-0.258 0.222s-0.294 0.207-0.155 0.315c0.103 0.088 0.155-0.052 0.165-0.155 0.016-0.103 0.48-0.171 0.413-0.465-0.108-0.243-0.759 0.165-0.759 0.165l-0.465-0.005c-0.031-0.052-0.155-0.258-0.289-0.258-0.155 0-0.269 0.258-0.269 0.258h-1.049s-0.036 0.274 0.496 0.326c0.119 0.155 0.212 0.196 0.32 0.238-0.072 0.057-0.093 0.129-0.093 0.222z"></path>
<path fill="#ffc72c" d="M35.289 17.812h0.94"></path>
<path fill="#ffc72c" d="M34.86 17.26s0.072 0.439 0.424 0.542"></path>
<path fill="#000" d="M34.804 17.249c0.031-0.165 0.098-0.196 0.165-0.413 0.010-0.207-0.165-0.181-0.114-0.31 0.093-0.15 0.047-0.289-0.129-0.398 0.036 0.191-0.227 0.372-0.227 0.527s0.134 0.124 0.119 0.362c0.010 0.134-0.036 0.103-0.052 0.233h0.238z"></path>
<path fill="#ffc72c" d="M35.935 16.211c0 0.074-0.060 0.134-0.134 0.134s-0.134-0.060-0.134-0.134v0c0-0.074 0.060-0.134 0.134-0.134s0.134 0.060 0.134 0.134v0z"></path>
<path fill="#ffc72c" d="M35.956 18.965c0 0.080-0.065 0.145-0.145 0.145s-0.145-0.065-0.145-0.145v0c0-0.080 0.065-0.145 0.145-0.145s0.145 0.065 0.145 0.145v0z"></path>
<path fill="#ffc72c" d="M35.217 20.158h1.131s0.016-0.145-0.119-0.233c0.594-0.083 0.439-0.599 0.93-0.63 0.103 0.015-0.258 0.222-0.258 0.222s-0.294 0.207-0.155 0.315c0.103 0.088 0.155-0.052 0.165-0.155 0.016-0.103 0.48-0.171 0.413-0.465-0.108-0.243-0.759 0.165-0.759 0.165l-0.465-0.005c-0.031-0.052-0.155-0.258-0.289-0.258-0.155 0-0.269 0.258-0.269 0.258h-1.049s-0.036 0.274 0.496 0.326c0.119 0.155 0.212 0.196 0.32 0.238-0.072 0.057-0.093 0.129-0.093 0.222z"></path>
<path fill="#ffc72c" d="M35.3 19.931h0.94"></path>
<path fill="#ffc72c" d="M34.871 19.378s0.072 0.439 0.424 0.542"></path>
<path fill="#000" d="M34.814 19.368c0.031-0.165 0.098-0.196 0.165-0.413 0.010-0.207-0.165-0.181-0.114-0.31 0.093-0.15 0.047-0.289-0.129-0.398 0.036 0.191-0.227 0.372-0.227 0.527s0.134 0.124 0.119 0.362c0.010 0.134-0.036 0.103-0.052 0.233h0.238z"></path>
<path fill="#ffc72c" d="M35.945 18.329c0 0.074-0.060 0.134-0.134 0.134s-0.134-0.060-0.134-0.134v0c0-0.074 0.060-0.134 0.134-0.134s0.134 0.060 0.134 0.134v0z"></path>
<path fill="#ffc72c" d="M32.815 20.365s0.294 0.682 0.63 0.258c0.336-0.413 0.217-0.594 0.217-0.594l-0.754-0.408-0.222 0.465 0.129 0.279z"></path>
<path fill="#ffc6b5" d="M33.465 20.277s0.052 0.005 0.088-0.067c0.041-0.072-0.088-0.103-0.15-0.186l-0.062 0.129z"></path>
<path fill="#ffc6b5" d="M31.761 20.091l-0.661 0.362s-0.331 0.067-0.351 0c-0.026-0.062 0.005-0.119 0.181-0.129 0.171-0.005 0.635-0.434 0.635-0.434l0.196 0.207z"></path>
<path fill="#ffc6b5" d="M31.771 8.316l0.021 0.238c0.010 0.083-0.129 0.258-0.134 0.248-0.010-0.010-0.078 0.010-0.067 0.057 0.005 0.052 0.103 0.067 0.103 0.067s-0.036 0.171 0 0.181c0.041 0.005-0.103 0.217 0 0.274 0.108 0.057 0.289 0.134 0.372 0.119 0.083-0.021 0 0.315 0 0.315l-0.233 0.491 1.261-0.129-0.258-0.413s-0.124-0.088-0.093-0.325c0.036-0.232-0.016-1.307-0.016-1.307l-0.899-0.124-0.057 0.31z"></path>
<path fill="#ffc6b5" d="M31.538 10.187s-0.408 0.186-0.393 0.692c-0.103 0.491-0.16 0.982-0.16 0.982s-0.486 0.548-0.63 0.749c-0.15 0.196-0.372 0.594-0.449 0.703-0.083 0.103-0.403 0.455-0.398 0.589 0.010 0.129-0.072 0.713 0.248 0.775 0.083 0.036 0.346-0.672 0.346-0.672s0.015-0.3-0.078-0.362c-0.088-0.052 0.196-0.248 0.196-0.248l0.672-0.501c0.124-0.103 0.46-0.475 0.46-0.475l0.186-2.232z"></path>
<path fill="#fff" d="M32.009 9.799s0.103 0.289 0.341 0.238 0.517-0.269 0.517-0.269 0.222-0.010 0.253 0.026c0.031 0.031 0.599 0.579 0.579 0.749-0.016 0.176-0.258 0.124-0.351 0.238-0.088 0.114-0.238 0.403-0.196 0.62 0.041 0.207 0.165 0.486 0.15 0.594-0.016 0.103-0.103 0.139-0.103 0.196 0 0.052 0.072 0.155 0.072 0.258 0 0.108-0.103 0.264-0.083 0.372 0.016 0.103 0.021 0.413 0.021 0.413l-0.021 1.447s0.083 0.046 0.088 0.129c0.010 0.078 0.558 2.459 0.558 2.459s-0.026 0.078-0.083 0.067c-0.057-0.010 0.222 0.367 0.227 0.475 0.010 0.103 0.289 0.94 0.279 1.054-0.005 0.114-0.052 0.372-0.072 0.377-0.026 0.010 0.181 0.527 0.145 0.604-0.031 0.083-0.362 0.078-0.362 0.078l-0.093-0.021s0.005 0.108-0.057 0.119c-0.067 0.005-0.548-0.026-0.548-0.026s-0.139 0.212-0.222 0.207c-0.083-0.010-0.191-0.155-0.212-0.134-0.026 0.026 0.072 0.165 0.052 0.207-0.031 0.041-0.444 0.129-0.527-0.067s0.052-0.145 0.021-0.186c-0.021-0.041-0.207-0.15-0.269-0.119-0.052 0.036 0.15 0.083 0.139 0.165-0.005 0.083-0.181 0.207-0.243 0.207-0.067 0-0.222-0.305-0.455-0.274-0.227 0.036-0.372 0.093-0.372 0.093s-0.274 0.114-0.387 0.088c-0.114-0.021-0.165-0.114-0.165-0.16 0-0.052 0.083-0.264 0.078-0.331-0.010-0.062-0.078-0.129-0.078-0.227 0-0.103 0.191-0.434 0.191-0.434l-0.010-1.509s-0.171 0-0.181-0.103c-0.005-0.103 0.264-2.382 0.31-2.532l0.145-0.672s-0.124 0.062-0.134 0c-0.005-0.052 0.372-1.354 0.372-1.354s0.062-0.651 0.062-0.821c0-0.171-0.031-0.408-0.031-0.408s-0.336-0.145-0.346-0.362c-0.031-0.346 0.32-0.537 0.362-0.651l0.165-0.465s0.181-0.31 0.475-0.357z"></path>
<path fill="#ffc72c" d="M31.885 20.194s-0.796 0.413-0.909 0.449c-0.114 0.031-0.186-0.14-0.072-0.171 0.114-0.036 0.294-0.052 0.294-0.052s-0.269-0.212-0.258-0.222l0.372-0.134c0.010 0 0.114 0.207 0.186 0.196 0.11-0.054 0.205-0.114 0.293-0.183l-0.003 0.003 0.098 0.114z"></path>
<path fill="#ffc6b5" d="M33.001 20.422c0.078 0.098 0.103 0.264 0.279 0.165 0.17-0.098-0.088-0.279-0.088-0.279z"></path>
<path fill="#ffc6b5" d="M33.316 20.406s0.083 0.067 0.155-0.010c0.072-0.072-0.145-0.227-0.145-0.227l-0.108 0.124z"></path>
<path fill="#ffc6b5" d="M33.667 10.585c0.010 0 0.269 0.806 0.305 1.013 0.031 0.207 0.139 1.023 0.098 1.137s-0.46 0.661-0.506 0.801c-0.052 0.139-0.346 0.672-0.346 0.672s-0.072 0.527-0.103 0.548c-0.036 0.026 0.083 0.155 0.072 0.196-0.016 0.052-0.238 0.279-0.336 0.258-0.103-0.026-0.258-0.139-0.258-0.248-0.016-0.103 0-0.46 0.078-0.548 0.072-0.093 0.46-0.997 0.48-1.054 0.026-0.062 0.351-0.775 0.362-0.894 0.010-0.124-0.103-0.408-0.217-0.511-0.258-0.759-0.155-1.214 0.372-1.369z"></path>
<path fill="#9c5100" d="M31.74 8.27s0.186 0.026 0.284-0.031 0.212-0.083 0.294 0.031c0.083 0.114 0.139 0.103 0.139 0.103s-0.124 0.31 0 0.341c0.119 0.031 0.181 0.031 0.186 0.072 0.010 0.041-0.103 0.129-0.072 0.171s0.088 0.088 0.098 0.124c0.005 0.031-0.072 0.171-0.052 0.207 0.026 0.031 0.103 0.16 0.15 0.16 0.052 0 0.016 0.207 0.165 0.155 0.145-0.052 0.139-0.181 0.139-0.181s0.155-0.021 0.196-0.16c0.036-0.139 0.134-0.176 0.134-0.176s0.196-0.103-0.062-0.269c0-1.147-0.754-1.023-0.754-1.023s-0.088-0.207-0.238-0.181c-0.145 0.026-0.155 0.196-0.258 0.181-0.108-0.016-0.134-0.088-0.14-0.083-0.010 0.010-0.103 0.176-0.103 0.212 0 0.041-0.284-0.052-0.258 0.155 0.026 0.217 0.165 0.207 0.155 0.191z"></path>
<path fill="#ffc72c" d="M32.014 23.067c2.241-0.109 4.233-1.093 5.658-2.615l0.004-0.005c-0.021-0.021 0.46-0.692 0.842-0.599 0.382 0.098 0.935 1.224 1.607 1.467 0.336 0.527-0.093 1.007-0.238 1.1-0.145 0.098-0.796 0.362-0.889-0.021-0.098-0.387-0.289-0.31-0.289-0.31s-3.074 2.997-6.623 2.878c-3.668 0.021-6.696-2.883-6.696-2.883l-0.264 0.289s-0.289 0.31-0.434 0.289c-0.145-0.026-0.77-0.434-0.816-0.842-0.052-0.408 0.382-0.672 0.382-0.672s1.059-0.816 1.178-1.245c0.243-0.243 0.697 0.165 0.697 0.165s2.785 3.193 5.879 2.997z"></path>
<path fill="#000" d="M27.85 21.971c-0.021 0.052-0.072 0-0.114 0.010-0.103 0-0.196 0.072-0.289 0.124l-0.951 0.553c-0.031-0.010-0.026-0.036-0.015-0.062l0.258-1.188c0.010-0.067 0.031-0.155-0.036-0.207-0.026-0.021 0.015-0.057 0.036-0.021l0.486 0.346c-0.015 0.047-0.047 0.010-0.072-0.005-0.067-0.067-0.15-0.005-0.145 0.078l-0.176 0.78c0.217-0.124 0.434-0.248 0.651-0.382 0.072-0.031 0.129-0.134 0.052-0.196-0.031-0.021-0.083-0.067-0.031-0.078l0.346 0.248z"></path>
<path fill="#000" d="M28.191 23.625c-0.010 0.031-0.026 0.036-0.052 0.015l-0.568-0.31c0.005-0.036 0.021-0.041 0.047-0.021 0.052 0.036 0.134 0.052 0.176-0.010l0.207-0.377 0.289-0.527c0.041-0.067-0.005-0.145-0.067-0.171-0.021-0.010-0.052-0.021-0.026-0.041 0.010-0.015 0.041 0.015 0.057 0.021l0.548 0.3c-0.005 0.031-0.021 0.036-0.047 0.015-0.052-0.036-0.134-0.052-0.176 0.010l-0.207 0.377-0.289 0.527c-0.041 0.062 0.005 0.145 0.067 0.171l0.041 0.021z"></path>
<path fill="#000" d="M30.391 23.108l-0.155 0.434c-0.067-0.005-0.021-0.088-0.041-0.129-0.022-0.205-0.167-0.37-0.358-0.423l-0.003-0.001c-0.155-0.041-0.31 0.036-0.403 0.16-0.13 0.175-0.213 0.392-0.227 0.627l-0 0.003c-0.001 0.008-0.001 0.017-0.001 0.026 0 0.127 0.066 0.239 0.165 0.303l0.001 0.001c0.078 0.049 0.172 0.078 0.274 0.078 0.011 0 0.022-0 0.033-0.001l-0.001 0 0.108-0.326c0.015-0.072-0.062-0.119-0.119-0.134-0.010-0.021 0.010-0.052 0.036-0.026l0.568 0.207c0 0.067-0.083-0.010-0.129 0.021-0.067 0.026-0.072 0.108-0.103 0.171l-0.067 0.196c-0.258 0.015-0.517-0.036-0.744-0.165-0.212-0.134-0.362-0.398-0.315-0.656 0.031-0.222 0.171-0.429 0.372-0.527 0.186-0.103 0.413-0.098 0.61-0.021 0.103 0.036 0.196 0.103 0.279 0.176 0.052 0.067 0.145 0.067 0.186-0.005l0.036 0.010z"></path>
<path fill="#000" d="M31.316 24.596c0 0.021 0 0.047-0.031 0.031l-0.651-0.098c0-0.026 0-0.047 0.031-0.031 0.052 0.010 0.134 0.010 0.155-0.052 0.031-0.088 0.036-0.181 0.052-0.269l0.114-0.754c0.015-0.052 0-0.114-0.057-0.134-0.036-0.015-0.067-0.015-0.103-0.026 0-0.021 0-0.041 0.031-0.031l0.651 0.103c0 0.021 0 0.041-0.031 0.031-0.052-0.015-0.129-0.010-0.155 0.052-0.031 0.083-0.036 0.176-0.052 0.264l-0.114 0.754c-0.015 0.052 0 0.119 0.062 0.14l0.103 0.021z"></path>
<path fill="#000" d="M33.083 24.172l-0.026 0.46-1.168 0.057c-0.005-0.026 0-0.041 0.031-0.036 0.057 0 0.134-0.026 0.145-0.093l-0.016-0.341-0.036-0.692c0.005-0.067-0.052-0.119-0.119-0.114-0.021-0.010-0.078 0.021-0.072-0.015-0.010-0.031 0.036-0.015 0.052-0.021l0.651-0.036c0 0.031 0 0.047-0.036 0.041-0.057 0-0.134 0.010-0.155 0.083-0.005 0.098 0.005 0.196 0.010 0.294l0.036 0.723c0 0.057 0.052 0.114 0.114 0.103 0.093-0.005 0.191 0 0.284-0.026 0.129-0.036 0.196-0.165 0.233-0.284 0.026-0.031 0-0.114 0.052-0.103h0.021z"></path>
<path fill="#000" d="M33.987 23.046c-0.031 0-0.016 0.041-0.026 0.062-0.052 0.387-0.098 0.775-0.155 1.157-0.010 0.088-0.031 0.186-0.114 0.227-0.031 0.015-0.005 0.062 0.026 0.036l0.388-0.119c-0.005-0.062-0.083 0-0.124-0.015-0.088 0-0.103-0.108-0.088-0.176 0-0.052 0.010-0.093 0.016-0.14l0.444-0.134c0.057 0.072 0.119 0.14 0.17 0.217 0.041 0.072-0.052 0.103-0.103 0.119-0.031 0-0.010 0.052 0.016 0.031l0.584-0.176c0-0.067-0.083 0-0.119-0.052-0.114-0.078-0.191-0.191-0.279-0.294l-0.635-0.744zM33.987 23.511l0.31 0.377-0.377 0.114 0.067-0.491z"></path>
<path fill="#000" d="M35.982 22.178l0.17 0.31c-0.052 0.052-0.083-0.057-0.129-0.072-0.042-0.037-0.099-0.060-0.16-0.060-0.046 0-0.089 0.013-0.125 0.035l0.001-0.001-0.103 0.057 0.506 0.945c0.026 0.078 0.124 0.093 0.191 0.052 0.021-0.021 0.047-0.031 0.052 0.005-0.083 0.052-0.181 0.098-0.269 0.145l-0.336 0.181c-0.026-0.026-0.010-0.041 0.021-0.052 0.048-0.018 0.082-0.063 0.082-0.117 0-0.028-0.009-0.054-0.025-0.075l0 0-0.501-0.93c-0.093 0.052-0.207 0.093-0.233 0.207-0.026 0.078 0.010 0.165 0.010 0.227-0.026 0.031-0.036-0.010-0.052-0.031l-0.139-0.269 1.038-0.558z"></path>
<path fill="#000" d="M36.772 21.708l0.32 0.429c0.072-0.052 0.134-0.134 0.114-0.227 0.010-0.072-0.093-0.155-0.057-0.207 0.021-0.010 0.036 0.041 0.052 0.057l0.372 0.491c-0.052 0.052-0.083-0.057-0.134-0.072-0.072-0.052-0.17-0.078-0.248-0.021-0.057 0.021-0.052 0.052-0.016 0.088 0.083 0.108 0.165 0.227 0.258 0.336 0.052 0.052 0.124 0 0.17-0.041 0.124-0.083 0.233-0.217 0.227-0.372 0.010-0.072-0.036-0.145-0.036-0.207 0.031-0.036 0.036 0.021 0.052 0.041l0.176 0.31-0.909 0.687c-0.036-0.026 0-0.047 0.026-0.062 0.083-0.052 0.057-0.16 0-0.217l-0.589-0.77c-0.052-0.067-0.145-0.031-0.191 0.015-0.026 0.031-0.052-0.026-0.016-0.031l0.852-0.646 0.233 0.31c-0.052 0.052-0.103-0.067-0.16-0.072-0.114-0.062-0.248-0.015-0.341 0.062l-0.16 0.119z"></path>
</svg>
