<!-- Generated by IcoMoon.io -->
<svg version="1.1" xmlns="http://www.w3.org/2000/svg" width="43" height="32" viewBox="0 0 43 32">
<title>vi</title>
<path fill="#fff" d="M0 0h42.667v32h-42.667z"></path>
<path fill="#369443" d="M13.62 21s-0.033-0.24 0.413-0.407c0.44-0.173 0.48-0.813 0.387-1.24 0 0-0.227 0.4-0.513 0.54 0 0-0.453 0.24-0.48 0.693 0 0 0 0.167-0.033 0.3-0.020 0.067-0.227-0.573 0.16-1.053 0.4-0.487 0.507-0.887 0.193-1.667 0 0-0.033 0.467-0.34 0.74-0.313 0.267-0.353 0.293-0.347 0.933 0 0 0 0.227-0.113 0.3 0 0-0.24-0.353-0.307-0.587s-0.093-0.333 0.187-0.6c0 0 0.88-0.58 0.247-1.827 0 0-0.020 0.427-0.333 0.68-0.3 0.26-0.28 0.427-0.293 0.867-0.013 0.447-0.040 0.413-0.073 0.48 0 0-0.567-1.040-0.133-1.587 0.433-0.553 0.68-0.667 0.2-1.693 0 0 0.020 0.533-0.367 0.787-0.38 0.267-0.293 0.867-0.293 0.867s0.027 0.233-0.053 0.4c0 0-0.54-1.060-0.027-1.627 0.44-0.487 0.467-0.827 0.233-1.507 0 0-0.027 0.313-0.267 0.487-0.247 0.173-0.44 0.34-0.393 1 0 0 0.020 0.467-0.040 0.6 0 0-0.227-0.427-0.293-0.7-0.067-0.28-0.087-0.44 0.080-0.713s0.833-1.067 0.040-2.2c0 0-0.020 0.367-0.227 0.7-0.2 0.333-0.107 0.727-0.067 1.027 0.047 0.3-0.1 0.593-0.1 0.593s-0.347-0.633-0.267-1.36c0.067-0.733-0.227-1.333-0.9-1.76 0 0-0.487 1.133 0.18 1.713 0 0 0.567 0.56 0.713 1.24 0 0-0.433-0.040-0.82-0.8-0.393-0.76-1.2-0.64-1.253-0.647 0 0 0.133 1.173 1.373 1.507 0 0 0.8 0.133 0.947 0.72 0 0 0.133 0.4 0.187 0.613 0 0-0.253-0.1-0.487-0.447-0.233-0.333-0.2-0.38-0.987-0.46 0 0-0.313-0.033-0.48-0.26 0 0 0.333 1.24 1.18 1.233 0 0 0.773-0.087 1.2 0.933l-0.193-0.133c-0.113-0.073-0.4-0.22-0.967-0.153s-0.727-0.027-0.867-0.067c0 0 0.573 1.047 1.38 0.733 0.813-0.313 1.2 0.827 1.213 0.847 0 0-0.113-0.080-0.253-0.22-0.147-0.14-0.44-0.313-1-0.133 0 0-0.407 0.153-0.82 0.027 0 0 0.4 0.767 1.32 0.633 0.059-0.012 0.126-0.019 0.195-0.019 0.446 0 0.824 0.29 0.956 0.692l0.002 0.007s-0.12-0.067-0.2-0.133c-0.087-0.067-0.4-0.247-1.067-0.053-0.667 0.2-0.907-0.027-0.907-0.027s0.367 0.667 1.080 0.753c0 0 0.4-0.007 0.56-0.067 0.167-0.067 0.613-0.167 0.92 0.28 0 0-0.087 0.013-0.213-0.047 0 0-0.467-0.167-0.833 0.133 0 0-0.32 0.327-0.773 0.267 0 0 0.587 0.567 1.52 0.087 0 0 0.313-0.227 0.547-0.053 0.233 0.18 0.767-0.173 0.767-0.173z"></path>
<path fill="#f4c53d" d="M18.813 6.913s-0.107-0.967 0.667-1.067c0.131-0.024 0.282-0.038 0.436-0.038 0.273 0 0.535 0.043 0.782 0.123l-0.018-0.005 0.367 0.707-0.133 0.48-0.493 0.227s0.087-0.733-0.587-0.747c-0.173 0-0.267 0.067-0.54 0.020s-0.42 0.253-0.48 0.3z"></path>
<path fill="#f4c53d" d="M24.253 9.307c-0.12 0.147-0.58 0.2-0.58 0.2s0.473 0.367 0.68 0.887c0.2 0.513-5.493 0-5.493 0s0.253-0.173 0.42-0.507c0 0-0.253 0.093-0.507-0.16 0 0 0.187 0.067 0.433-0.307 0 0 0.367-0.467 0.627-0.6 0 0-0.12 0.080-0.407-0.080 0 0 0.493-0.067 0.667-0.9 0 0 0.033-0.187 0.22-0.467 0.187-0.267 0.147 0.060 0.493-0.36 0 0 0.16-0.293 0.020-0.467-0.133-0.187-0.287-0.12-0.573-0.293-0.293-0.173-0.42-0.267-0.32-0.533s0.353-0.227 0.393-0.227 0.053-0.233 0.367-0.393 1.16-0.087 1.28-0.020c0.133 0.067 0.633 0.22 0.933 0.967 0.293 0.747-0.080 1.027 0.72 2.16 0 0-0.32 0.067-0.527 0 0 0 0.42 0.747 1.153 1.1z"></path>
<path fill="#f4c53d" d="M21.867 6.233s-0.113-0.053-0.213-0.187c-0.133-0.18-0.447-0.267-0.607-0.093 0 0-0.167 0.187-0.32 0.2 0 0 0.173 0.047 0.287 0.153s0.233 0.187 0.407 0.16c0.173-0.020 0.2-0.113 0.28-0.167 0.087-0.053 0.167-0.067 0.167-0.067z"></path>
<path fill="#369443" d="M13.52 22.433s-0.013-0.427 0.52-0.453l1.567 2.18s-0.060 0.14-0.767 0.127c0 0-0.080 0-0.12 0.080-0.060 0.133-1.2-1.933-1.2-1.933z"></path>
<path fill="#f4c53d" stroke="#010002" stroke-linejoin="miter" stroke-linecap="butt" stroke-miterlimit="4" stroke-width="0.6667" d="M15.245 19.892s-0.501 0.859-1.106 0.873c0 0-1.041-0.126-1.335 0.146-0.206 0.19-0.416 0.346-0.502 0.831-0.084 0.485 0.166 0.589 0.225 0.61 0 0 0.046 0.346 0.388 0.256 0 0 0.020 0.361 0.624 0.188 0.605-0.174 0.856-0.118 0.974-0.721 0.119-0.603 0.229-0.593 0.336-0.665 0.145-0.097 0.417-0.189 0.618-0.305 0.181-0.104 0.875-0.458 1.112-0.485s0.185-0.825 0.185-0.825h-0.612l-0.296-0.437-0.612 0.534zM17.172 15.582s-0.612 0.499-1.126 0c0 0-0.207 0.249-0.622 0.177-0.413-0.073-0.483-0.291-0.522-0.416 0 0-0.359 0.209-0.662 0.043-0.301-0.165-0.301-0.415-0.301-0.415s-0.527 0.104-0.797-0.253c-0.27-0.356-0.105-0.71 0.040-0.752 0 0-0.569 0.15-0.725-0.339-0.023-0.059-0.037-0.128-0.037-0.199 0-0.173 0.078-0.327 0.2-0.43l0.001-0.001s-1.198-0.006-1.69-0.381c0 0-0.409-0.257-0.165-0.527 0 0-1.079-0.173-1.349-0.602 0 0-0.118-0.118-0.079-0.326 0 0 0.007-0.117 0.125-0.124 0 0-1.23-0.191-1.586-0.596 0 0-0.171-0.187-0.085-0.437 0 0 0.018-0.065 0.047-0.11 0 0-1.12-0.236-1.672-0.735 0 0-0.319-0.284-0.155-0.665 0 0-1.872-0.512-1.438-1.337 0 0-0.875-0.284-0.598-1.074 0 0-0.724-0.367-0.409-0.949 0.302-0.557 1.231 0.097 2.329 0.401 0 0 2.975 0.935 4.439 1.184l4.161 6.196 2.428 0.935 0.246 1.732z"></path>
<path fill="#f4c53d" stroke="#010002" stroke-linejoin="miter" stroke-linecap="butt" stroke-miterlimit="4" stroke-width="0.6667" d="M17.201 11.020s-0.39-0.293-1.086 0.051c0 0-0.234 0.162-0.419-0.015-0.071-0.068-0.116-0.164-0.116-0.271 0-0.126 0.062-0.238 0.158-0.306l0.001-0.001c0.519-0.384 0.711-1.538-0.078-2.016 0 0-1.144-0.678-5.343-1.746 0 0-0.351-0.098-0.54-0.051-0.186 0.049-0.33 0.193-0.377 0.376l-0.001 0.004s-0.189 0.535 0.444 0.841c0 0 0.285 0.13 0.579 0.215 0 0-0.323-0.070-0.462 0.249-0.13 0.305 0.060 0.617 0.652 0.818 0 0 0.161 0.062 0.388 0.117 0 0-0.507 0.146-0.263 0.555 0 0 0.217 0.43 0.984 0.506 0 0-0.572 0.062-0.169 0.606 0 0 0.178 0.298 0.737 0.409 0 0-0.424 0.014-0.211 0.394 0.215 0.381 0.718 0.596 1.213 0.631 0 0 0.268 0.014 0.456-0.028 0 0-0.472 0.236-0.195 0.63 0 0 0.204 0.281 0.714 0.267 0 0-0.131 0.442 0.242 0.608 0.291 0.13 0.533-0.078 0.533-0.078s-0.098 0.473 0.326 0.639c0 0 0.212 0.109 0.528 0 0 0 0.241 0.541 1.1 0.161 0.859-0.378 0.203-3.564 0.203-3.564zM17.251 15.931s-0.125 0.676-1.124 1.528c0 0-0.771 0.679-0.752 1.462 0.020 0.798-0.137 0.887-0.441 1.157 0 0 0.625 0.049 0.927-0.367 0 0-0.013 0.693-0.105 0.756 0 0 0.197 0.012 0.481-0.298 0 0 0.171-0.181 0.329-0.25 0 0-0.185 0.479-0.040 0.922 0 0 0.046-0.174 0.29-0.25 0 0 0.442-0.090 0.612-0.728 0 0 0.111-0.422 0.803-0.797 0 0 0.783-0.295 0.763-0.68s-1.742-2.455-1.742-2.455z"></path>
<path fill="#f4c53d" stroke="#010002" stroke-linejoin="miter" stroke-linecap="butt" stroke-miterlimit="10" stroke-width="0.6667" d="M20.88 24.652s-0.18 0.791-0.803 0.728c0 0-0.441-0.042-0.407-0.777 0 0-0.651 0.347-0.757-0.512 0 0-0.592 0.137-0.585-0.665 0 0-0.552 0.096-0.487-0.617 0 0-0.599 0.161-0.599-0.512 0 0-1.401-0.233 1.52-2.897l2.606 1.552-0.487 3.701z"></path>
<path fill="#f4c53d" stroke="#010002" stroke-linejoin="miter" stroke-linecap="butt" stroke-miterlimit="4" stroke-width="0.6667" d="M21.17 21.1s-0.435 0.385-0.744-0.191c0 0-0.422-0.020-0.487-0.339 0 0-0.342-0.034-0.409-0.36 0 0-0.467-0.048-0.454-0.443 0 0-0.849-0.066 0-1.028s2.289 1.596 2.289 1.596l-0.197 0.765zM21.654 20.861c0.422 0 0.898 2.63 0.775 4.214-0.045 0.575-0.353 1.045-0.775 1.045s-0.729-0.47-0.773-1.045c-0.124-1.585 0.352-4.214 0.773-4.214"></path>
<path fill="#f4c53d" stroke="#010002" stroke-linejoin="miter" stroke-linecap="butt" stroke-miterlimit="4" stroke-width="0.6667" d="M22.236 20.841c0 0.477-0.261 0.863-0.582 0.863s-0.582-0.386-0.582-0.863c0-0.477 0.261-0.863 0.582-0.863s0.582 0.386 0.582 0.863z"></path>
<path fill="none" stroke="#010002" stroke-linejoin="miter" stroke-linecap="butt" stroke-miterlimit="10" stroke-width="0.6667" d="M19.67 24.603s0.066-1.392 1.273-3.388M18.913 24.091s-0.188-0.804 1.514-3.182c0 0-0.198-0.567 0.407-0.931M18.328 23.426s-0.053-0.87 1.612-2.855c0 0-0.148-0.512 0.456-0.921M17.841 22.809s0.062-0.879 1.69-2.599c0 0-0.080-0.526 0.502-0.852M17.243 22.297s0.117-1.005 1.835-2.529c0 0-0.059-0.395 0.513-0.797"></path>
<path fill="none" stroke="#010002" stroke-linejoin="miter" stroke-linecap="butt" stroke-miterlimit="4" stroke-width="0.6667" d="M3.977 6.082s1.348 0.781 5.549 1.562M4.575 7.156s3.65 1.19 5.351 1.337M6.012 8.493s2.142 0.672 4.65 1.097M7.84 9.894s2.419 0.581 3.575 0.677M9.464 11.037s2.046 0.427 2.564 0.478M10.766 12.089s1.493 0.227 2.088 0.215M12.621 12.997s0.604-0.028 0.894-0.076M13.18 13.967s0.514-0.139 0.816-0.332M13.937 14.972s0.395-0.153 0.586-0.568M14.902 15.343s0.305-0.274 0.325-0.579M16.046 15.582s-0.114-0.099-0.036-0.529M15.898 14.423s-0.060-0.122-0.040-0.317M13.74 8.271s0.691 0.277 0.92 0.658c0.231 0.381 0.079 0.752 0 0.964-0.039 0.107-0.526 1.046 0.046 1.725M13.749 12.355s0.004-0.003 0.247-0.080M12.292 11.358s0.412 0.082 0.816 0.086M11.723 10.342s0.484 0.049 0.938 0.042M11.003 9.282s0.698 0.139 1.072 0.146M10.424 8.1s0.86 0.245 1.499 0.332M13.345 8.938s-0.618 0.575 0.125 1.109c0 0-0.309 0.485 0.309 0.991M13.615 11.276s-0.092 0.925 1.040 0.925c0 0-0.218 0.824 0.875 0.797 0 0 0.124 0.658 0.913 0.526M14.706 20.766s-0.18 0.040-0.568 0M13.046 21.251s-0.546-0.083-0.52 1.102M13.375 21.521s-0.494-0.062-0.462 1.088M18.139 18.75s-0.237 0.048-0.401 0.236c-0.164 0.187-0.48 0.152-0.48 0.152s0.171-0.139 0.231-0.485c0.058-0.346 0.25-0.451 0.25-0.451M17.174 17.875s-0.237 0.048-0.401 0.235c-0.165 0.188-0.481 0.153-0.481 0.153s0.171-0.139 0.231-0.485c0.059-0.346 0.25-0.451 0.25-0.451M17.010 19.218s-0.207 0.043-0.35 0.206c-0.144 0.164-0.42 0.134-0.42 0.134s0.151-0.12 0.201-0.424c0.052-0.302 0.219-0.393 0.219-0.393"></path>
<path fill="#f4c53d" stroke="#010002" stroke-linejoin="miter" stroke-linecap="butt" stroke-miterlimit="4" stroke-width="0.6667" d="M-56.52 120.527s3.327 5.707 7.347 5.8c0 0 6.913-0.84 8.867 0.967 1.367 1.26 2.76 2.3 3.333 5.52 0.56 3.22-1.1 3.913-1.493 4.053 0 0-0.307 2.3-2.58 1.7 0 0-0.133 2.4-4.147 1.247-4.020-1.153-5.687-0.787-6.467-4.787-0.793-4.007-1.52-3.94-2.233-4.42-0.96-0.647-2.767-1.253-4.107-2.027-1.2-0.693-5.813-3.040-7.387-3.22-1.573-0.187-1.227-5.48-1.227-5.48h4.067l1.967-2.9 4.067 3.547zM-69.32 91.9s4.067 3.313 7.48 0c0 0 1.373 1.653 4.133 1.173 2.747-0.487 3.207-1.933 3.467-2.76 0 0 2.387 1.387 4.4 0.287 2-1.093 2-2.753 2-2.753s3.5 0.693 5.293-1.68c1.793-2.367 0.7-4.713-0.267-4.993 0 0 3.78 0.993 4.813-2.253 0.154-0.393 0.243-0.849 0.243-1.325 0-1.147-0.517-2.173-1.331-2.857l-0.006-0.005s7.96-0.040 11.227-2.533c0 0 2.713-1.707 1.093-3.5 0 0 7.167-1.147 8.96-4 0 0 0.787-0.787 0.527-2.167 0 0-0.047-0.78-0.833-0.827 0 0 8.173-1.267 10.533-3.96 0 0 1.133-1.24 0.567-2.9 0 0-0.12-0.433-0.313-0.733 0 0 7.44-1.567 11.107-4.88 0 0 2.12-1.887 1.027-4.42 0 0 12.433-3.4 9.553-8.88 0 0 5.813-1.887 3.973-7.133 0 0 4.807-2.44 2.713-6.307-2.007-3.7-8.173 0.647-15.467 2.667 0 0-19.76 6.213-29.487 7.867l-27.64 41.153-16.127 6.213-1.633 11.507z"></path>
<path fill="none" stroke="#010002" stroke-linejoin="miter" stroke-linecap="butt" stroke-miterlimit="4" stroke-width="0.6667" d="M18.327 28.8s-8.953 5.187-36.86 10.373M14.353 35.933s-24.247 7.907-35.54 8.88M4.807 44.813s-14.227 4.467-30.887 7.287M-7.333 54.12s-16.067 3.86-23.747 4.5M-18.12 61.707s-13.593 2.833-17.033 3.173M-26.773 68.7s-9.92 1.507-13.867 1.427M-39.093 74.727s-4.013-0.187-5.94-0.507M-42.807 81.173s-3.413-0.92-5.42-2.207M-47.833 87.847s-2.627-1.013-3.893-3.773M-54.24 90.313s-2.027-1.82-2.16-3.847M-61.84 91.9s0.76-0.66 0.24-3.513M-60.86 84.2s0.4-0.813 0.267-2.107M-46.527 43.34s-4.587 1.84-6.113 4.373c-1.533 2.533-0.527 4.993 0 6.4 0.26 0.713 3.493 6.947-0.307 11.46M-46.587 70.467s-0.027-0.020-1.64-0.533M-36.907 63.84s-2.733 0.547-5.42 0.573M-33.127 57.093s-3.213 0.327-6.233 0.28M-28.347 50.053s-4.633 0.92-7.12 0.967M-24.5 42.2s-5.713 1.627-9.96 2.207M-43.9 47.767s4.107 3.82-0.833 7.367c0 0 2.053 3.22-2.053 6.58M-45.693 63.3s0.613 6.147-6.907 6.147c0 0 1.447 5.473-5.813 5.293 0 0-0.827 4.373-6.067 3.493M-52.94 126.333s1.193 0.267 3.773 0M-41.913 129.553s3.627-0.553 3.453 7.32M-44.1 131.347s3.28-0.413 3.067 7.227M-75.747 112.94s1.573 0.32 2.667 1.567c1.087 1.24 3.187 1.007 3.187 1.007s-1.133-0.92-1.533-3.22c-0.387-2.3-1.66-2.993-1.66-2.993M-69.333 107.127s1.573 0.32 2.667 1.56c1.093 1.247 3.193 1.013 3.193 1.013s-1.133-0.92-1.533-3.22c-0.393-2.3-1.66-2.993-1.66-2.993M-68.247 116.053s1.373 0.287 2.327 1.367c0.953 1.087 2.787 0.887 2.787 0.887s-1-0.8-1.333-2.813c-0.347-2.007-1.453-2.613-1.453-2.613"></path>
<path fill="#0081c6" d="M31.067 17.067l-0.953 4.113-0.393-0.28 0.933-3.947-0.653 0.013 1.54-2.82 0.1 3.247zM33.533 17.933l-2.867 3.387-0.307-0.347 2.853-3.347-0.58-0.307 2.613-1.733-1.353 2.92z"></path>
<path fill="#0081c6" d="M32.84 16.133l-2.567 4.933-0.393-0.233 2.58-4.92-0.627-0.16 2.18-2.307-0.7 3.167zM29.64 22.573l-0.193 0.78 0.533 0.533-0.747 3.133-0.667-0.887-0.973 0.453 0.74-3.133 0.693-0.2 0.173-0.78s0.213-0.080 0.44 0.1z"></path>
<path fill="#0081c6" d="M29.82 22.053l-0.38 0.707 0.38 0.647-1.493 2.833-0.42-1.040-1.060 0.173 1.493-2.827h0.713l0.367-0.707s0.267 0 0.4 0.213z"></path>
<path fill="#0081c6" d="M29.88 22.26l-1 1.28 0.227 0.72-2.060 2.4-0.187-1.107-1.067-0.080 2.053-2.4 0.693 0.167 1.067-1.36s0.293 0.147 0.273 0.38zM4.367 19.26c0.24-0.1 0.413-0.193 0.413-0.447 0-0.067-0.033-0.2-0.1-0.407l-1.613-4.94c-0.063-0.208-0.131-0.383-0.21-0.551l0.010 0.024c-0.073-0.133-0.213-0.193-0.407-0.267h2.047c-0.22 0.1-0.427 0.18-0.42 0.42 0 0.087 0.027 0.213 0.073 0.38l1.24 3.867 1.233-3.867c0.041-0.112 0.067-0.242 0.073-0.377l0-0.003c0-0.247-0.213-0.333-0.42-0.427h1.987c-0.18 0.073-0.333 0.133-0.4 0.273-0.070 0.145-0.14 0.322-0.198 0.504l-0.008 0.030-1.613 4.927c-0.040 0.114-0.075 0.251-0.098 0.392l-0.002 0.015s-0.073 0.313 0.413 0.447h-2zM38.72 18.753v-5.58c0-0.093-0.020-0.167-0.053-0.22s-0.167-0.2-0.367-0.28h1.847c-0.151 0.056-0.276 0.153-0.365 0.278l-0.002 0.002c-0.033 0.053-0.047 0.127-0.047 0.22v5.58c0 0.1 0.013 0.173 0.047 0.227s0.167 0.187 0.367 0.28h-1.847c0.2-0.093 0.333-0.227 0.367-0.28s0.053-0.127 0.053-0.227z"></path>
<path fill="#fff" d="M21.653 20.653s4.947-2.193 4.953-7.253h-9.907c0.013 5.067 4.953 7.253 4.953 7.253z"></path>
<path fill="#a60032" d="M17.467 13.4v3.233s0.373 0.753 0.76 1.22v-4.453h-0.76zM18.987 13.4v5.333s0.48 0.467 0.76 0.693v-6.027h-0.76zM20.513 13.4v6.593s0.54 0.347 0.76 0.467v-7.067h-0.76zM25.847 13.4v3.233s-0.38 0.753-0.767 1.22v-4.453h0.767zM24.32 13.4v5.333s-0.473 0.467-0.76 0.693v-6.027h0.76zM22.8 13.4v6.593s-0.547 0.347-0.767 0.467v-7.067h0.767z"></path>
<path fill="#162667" d="M26.607 9.72s-2.427 1.267-4.953-0.107c-2.527 1.373-4.953 0.107-4.953 0.107v3.68h9.907v-3.68z"></path>
</svg>
