<!-- Generated by IcoMoon.io -->
<svg version="1.1" xmlns="http://www.w3.org/2000/svg" width="43" height="32" viewBox="0 0 43 32">
<title>vu</title>
<path fill="#000" d="M0 0l21.712 13.713h26.288v4.575h-26.288l-21.712 13.712v-32z"></path>
<path fill="#ff0" d="M0 30.856l22.169-14.169h25.831v-1.375h-25.831l-22.169-14.169v2.056l20.8 12.8-20.8 12.8v2.056z"></path>
<path fill="#40aa40" d="M0 32l22.169-14.169h25.831v14.169h-48z"></path>
<path fill="#ce0000" d="M0 0l22.169 14.169h25.831v-14.169h-48z"></path>
<path fill="#ff0" d="M5.987 16.663c0.075 0.019 0.1 0.038 0.175-0.069 0.013-0.063 0.063-0.137 0.106-0.206 0.050-0.094 0.075-0.125 0.125-0.063 0.037 0.044 0.175-0.031 0.225 0.006 0.088 0.063 0.037 0.050 0.106-0.012 0.056-0.113 0.006-0.1-0.063-0.15-0.063-0.038-0.194 0.038-0.25 0 0.019-0.113 0.056-0.125 0.125-0.15 0.050 0.031 0.194-0.025 0.237-0.025 0.063 0.013 0.125 0.019 0.144-0.075 0.031-0.063 0.019-0.019-0.013-0.063-0.050-0.044-0.188 0.031-0.244 0-0.063-0.056-0.056-0.075-0.013-0.162 0.050-0.031 0.094-0.019 0.162 0.025 0.063 0.050 0.175-0.044 0.237-0.050 0.056-0.063 0.119-0.081 0.075-0.156-0.019-0.063-0.037-0.063-0.112-0.081-0.075-0.050-0.175 0.044-0.206-0.031 0.063-0.088 0.081-0.069 0.156-0.019 0.050 0.012 0.188-0.069 0.237-0.075 0.069-0.019 0.037 0.063 0.088-0.113-0.019-0.075-0.144 0.044-0.213 0.025-0.063 0.012-0.125-0.012-0.125-0.088 0-0.094 0.050-0.1 0.119-0.088 0.063 0.012 0.194-0.063 0.25-0.063 0.063 0.037 0.094 0.025 0.15-0.063 0.037-0.106-0.006-0.063-0.081-0.125-0.050-0.031-0.188 0.044-0.244 0.006 0.013-0.037 0.031-0.088 0.063-0.106 0.056 0.012 0.1 0.012 0.169 0.050 0.063 0.031 0.175-0.094 0.231-0.137-0.013-0.063-0.125 0.025-0.188-0.019-0.037-0.031-0.094-0.063-0.106-0.094 0.037-0.106 0.019-0.1 0.125-0.063 0.050-0.019 0.144-0.019 0.081-0.119-0.013-0.012-0.063-0.012-0.112-0.031-0.056-0.037-0.106-0.081-0.169-0.094-0.044-0.006-0.106-0.025-0.138-0.012 0 0.063 0.013 0.1 0.006 0.175 0.031 0.044 0.081 0.044 0.094 0.063-0.056 0.050-0.088 0.025-0.144 0.025-0.075-0.044-0.031-0.194-0.119-0.162 0.019 0.044 0.013 0.213 0.050 0.25 0.037 0.025 0.088 0.050 0.094 0.081-0.063 0.094-0.081 0.088-0.156 0.044-0.063-0.037-0.037-0.175-0.094-0.169-0.063 0.050-0.063 0.044-0.050 0.113 0 0.088-0.031 0.213 0.044 0.262 0.081 0.063 0.094 0.050 0.025 0.169-0.044 0.056-0.069 0.044-0.125 0.019-0.056-0.037-0.044-0.188-0.088-0.231-0.088-0.050-0.037-0.050-0.106 0.012-0.019 0.081 0 0.1 0.031 0.169 0.025 0.044 0.025 0.188 0.075 0.2 0.075 0.044 0.081 0.037-0.013 0.125-0.063 0-0.1 0.019-0.15-0.044-0.063-0.050-0.025-0.2-0.106-0.2-0.075 0.006-0.094 0.006-0.088 0.113 0.019 0.094-0.019 0.238 0.056 0.294 0.069 0.031 0.112 0.025 0.138 0.069-0.025 0.019-0.063 0.081-0.088 0.094-0.050 0-0.1-0.031-0.156-0.044-0.063-0.031-0.031-0.088-0.088-0.125-0.063 0.019-0.063-0.063-0.094 0.019 0.013 0.075-0.013 0.162 0.063 0.213 0.050 0.031 0.094 0.106 0.15 0.144 0.063 0.075 0.037 0.088 0 0.188-0.056 0.006-0.112-0.031-0.169-0.063-0.056-0.044-0.044-0.188-0.1-0.219-0.044-0.050-0.031-0.088-0.106 0.012 0 0.063 0.006 0.075 0.025 0.125 0 0.063-0.013 0.2 0.050 0.244 0.063 0.012 0.138 0.044 0.188 0.063 0.050 0.063 0.006 0.050-0.050 0.137-0.031 0.087-0.031 0.106-0.088 0.15-0.050 0.063-0.063 0.094-0.025 0.175z"></path>
<path fill="#ff0" d="M7.563 16.744c0.044-0.075 0.069-0.087 0-0.212-0.050-0.044-0.1-0.125-0.15-0.194-0.063-0.1-0.081-0.137 0-0.169 0.050-0.019 0.037-0.188 0.094-0.231 0.088-0.069 0.063-0.019 0.031-0.119-0.088-0.106-0.094-0.050-0.169 0.012-0.063 0.044-0.044 0.219-0.094 0.263-0.1-0.063-0.1-0.113-0.094-0.188 0.056-0.044 0.056-0.225 0.075-0.269 0.037-0.063 0.063-0.125-0.013-0.181-0.050-0.063-0.013-0.025-0.063-0.019-0.063 0.044-0.044 0.219-0.1 0.262-0.075 0.050-0.088 0.031-0.15-0.050-0.006-0.063 0.019-0.106 0.088-0.162 0.069-0.050 0.031-0.206 0.050-0.269-0.037-0.088-0.031-0.162-0.112-0.15-0.063 0-0.075 0.019-0.125 0.094-0.075 0.063-0.025 0.2-0.112 0.2-0.056-0.1-0.025-0.113 0.050-0.175 0.031-0.044 0.013-0.231 0.025-0.281 0.013-0.075 0.063-0.012-0.069-0.125-0.075-0.019-0.013 0.162-0.063 0.225-0.019 0.075-0.063 0.125-0.125 0.1-0.094-0.037-0.075-0.094-0.037-0.156s0.019-0.238 0.044-0.294c0.063-0.063 0.063-0.088 0-0.188-0.081-0.088-0.063-0.019-0.138 0.037-0.063 0.044-0.044 0.219-0.1 0.262-0.031-0.031-0.063-0.063-0.069-0.113 0.031-0.050 0.044-0.1 0.112-0.156 0.050-0.056-0.025-0.219-0.037-0.3-0.063-0.012-0.025 0.137-0.094 0.188-0.044 0.031-0.088 0.075-0.125 0.075-0.081-0.081-0.088-0.063-0.013-0.156 0.006-0.063 0.044-0.156-0.075-0.125-0.019 0-0.031 0.063-0.069 0.1-0.063 0.044-0.119 0.081-0.156 0.137-0.025 0.044-0.063 0.106-0.063 0.144 0.050 0.031 0.094 0.031 0.162 0.063 0.050-0.012 0.075-0.063 0.094-0.069 0.019 0.075-0.013 0.1-0.031 0.162-0.075 0.063-0.2-0.044-0.2 0.063 0.050-0.006 0.2 0.063 0.25 0.044 0.037-0.031 0.081-0.075 0.112-0.063 0.063 0.094 0.050 0.119-0.019 0.175-0.063 0.050-0.188-0.025-0.194 0.031 0.019 0.088 0.013 0.088 0.081 0.1 0.081 0.031 0.181 0.119 0.25 0.063 0.094-0.063 0.094-0.081 0.169 0.037 0.037 0.069 0.019 0.094-0.031 0.137-0.056 0.050-0.188-0.025-0.25 0-0.075 0.075-0.056 0.025-0.025 0.125 0.063 0.050 0.088 0.044 0.169 0.031 0.050-0.012 0.188 0.050 0.213 0 0.069-0.063 0.063-0.069 0.106 0.063-0.025 0.075-0.019 0.113-0.1 0.144-0.069 0.050-0.188-0.056-0.225 0.031-0.025 0.088-0.031 0.106 0.069 0.137 0.094 0.019 0.213 0.113 0.294 0.063 0.056-0.063 0.063-0.113 0.119-0.125 0.006 0.037 0.044 0.1 0.044 0.131-0.013 0.056-0.063 0.094-0.1 0.15-0.050 0.056-0.094 0-0.144 0.044-0.006 0.069-0.088 0.038-0.019 0.106 0.063 0.012 0.144 0.075 0.213 0.025 0.056-0.044 0.144-0.063 0.194-0.106 0.094-0.038 0.094 0 0.175 0.075-0.019 0.063-0.075 0.106-0.125 0.15-0.063 0.044-0.188-0.025-0.244 0.019-0.063 0.031-0.088 0-0.031 0.119 0.063 0.031 0.075 0.019 0.125 0.019 0.063 0.031 0.175 0.1 0.244 0.050 0.037-0.063 0.1-0.125 0.138-0.175 0.069-0.025 0.044 0.012 0.1 0.106 0.069 0.075 0.088 0.081 0.106 0.156 0.037 0.075 0.063 0.106 0.15 0.094z"></path>
<path fill="#ff0" d="M6.125 19.656c0-0.331-0.050-0.663 0-0.663 2.925 0 3.656-2 3.656-3.325s-1.012-2.669-2.925-2.669c-2.188 0-2.925 1.3-2.925 2.662-0 0.006-0 0.014-0 0.022 0 1.235 0.969 2.245 2.188 2.309l0.006 0c1.462 0 1.831-0.331 2.925-1.663-0.363 1.663-2.188 2.325-2.925 2.325-1.462 0-2.925-1-2.925-2.988 0-1.662 1.094-3.325 3.656-3.325 2.194 0 3.656 1.662 3.656 3.325 0 2.325-1.825 3.988-4.388 3.988z"></path>
</svg>
