<!-- Generated by IcoMoon.io -->
<svg version="1.1" xmlns="http://www.w3.org/2000/svg" width="43" height="32" viewBox="0 0 43 32">
<title>ws</title>
<path fill="#ce1126" d="M0 0h42.667v32h-42.667z"></path>
<path fill="#002b7f" d="M0 0h21.333v16h-21.333z"></path>
<path fill="#fff" d="M12 15.287l-1.38-0.933-1.327 0.94 0.433-1.66-1.267-1.013 1.633-0.1 0.54-1.573 0.587 1.6 1.6 0.047-1.267 1.087zM11.76 4.247l-1.107-0.713-1.067 0.693 0.293-1.333-0.973-0.847 1.293-0.107 0.48-1.24 0.493 1.247 1.273 0.113-0.98 0.893zM6.893 8.213l-1.067-0.733-1.113 0.733 0.347-1.293-1.007-0.853 1.28-0.067 0.467-1.267 0.453 1.26 1.307 0.073-1 0.833zM16.667 7.333l-1.027-0.667-1 0.667 0.293-1.22-0.933-0.787 1.22-0.1 0.42-1.147 0.467 1.16 1.18 0.067-0.913 0.82zM13.793 10.227l-0.687-0.427-0.687 0.44 0.18-0.82-0.613-0.553 0.8-0.067 0.307-0.773 0.327 0.773 0.793 0.067-0.607 0.553z"></path>
</svg>
