<!-- Generated by IcoMoon.io -->
<svg version="1.1" xmlns="http://www.w3.org/2000/svg" width="43" height="32" viewBox="0 0 43 32">
<title>xk</title>
<path fill="#244aa5" d="M0 0h42.667v32h-42.667z"></path>
<path fill="#d0a650" d="M16.867 14.987s0.080-0.053 0.107-0.060c0.033 0 0.133-0.040 0.133-0.040s0.067-0.033 0.1-0.033c0.040 0 0.107 0.040 0.133 0.073 0.020 0.033 0.133 0.093 0.133 0.093s0.080 0.027 0.1 0c0.013-0.027 0.047-0.047 0.087-0.047 0.033 0 0.040-0.033 0.040-0.060s0.013-0.060 0.040-0.093c0.033-0.033 0.087-0.053 0.087-0.053s0.080-0.033 0.087-0.080c0.013-0.047 0.087-0.080 0.133-0.087 0.047 0 0-0.027 0.12-0.013 0.113 0.013 0.133-0.027 0.133-0.060 0.007-0.033 0-0.067 0.073-0.067 0.073 0.013 0.107 0.013 0.107-0.027s0.067-0.067-0.047-0.093c-0.12-0.033-0.107-0.007-0.12-0.067 0-0.047 0-0.040-0.073-0.047-0.080-0.007-0.040-0.047-0.047-0.087s-0.027-0.067-0.040-0.087c-0.020-0.027-0.060-0.027-0.060-0.067s-0.007-0.067-0.047-0.067c-0.047 0-0.067 0-0.067-0.033 0-0.040 0.013-0.067 0.053-0.067 0.047 0 0.067-0.040 0.067-0.080-0.013-0.040-0.013-0.127-0.013-0.127l0.060-0.067s0.173-0.14 0.187-0.167c0.013-0.027 0.073-0.047 0.1 0.007s0.040 0.067 0.067 0.093c0.020 0.027 0.087 0.007 0.1-0.020s0.020-0.127 0.060-0.18c0.040-0.047 0.067-0.073 0.073-0.12s0.033-0.080 0.080-0.080c0.040 0 0.067-0.060 0.067-0.093s0.027-0.067 0.080-0.080c0.053-0.007 0.087-0.040 0.107 0.013s0.040 0.047 0.073 0.067c0.040 0.020 0.093 0.040 0.12 0.020 0.033-0.027 0.047-0.067 0.087-0.047 0.040 0.027 0.067 0 0.080-0.047l0.020-0.127s0.007-0.033 0.073-0.033 0.020-0.040 0.053-0.067c0.040-0.027 0.040-0.053 0.087-0.040 0.047 0.020 0.12-0.020 0.087-0.067-0.040-0.040-0.12-0.107-0.073-0.16s0.067-0.133 0.020-0.147c-0.047-0.007-0.12 0.007-0.127-0.040-0.007-0.053-0.027-0.093 0.033-0.1 0.053-0.007 0.147-0.007 0.18-0.033 0.027-0.027 0.12-0.047 0.12-0.12 0-0.080 0.027-0.087 0.040-0.133 0.007-0.040 0.007-0.133-0.033-0.173-0.040-0.047-0.093-0.107-0.1-0.133-0.013-0.027-0.047-0.067-0.107-0.087-0.053-0.013-0.107-0.027-0.107-0.067 0-0.047 0.040 0.007 0.040-0.107s-0.073-0.133-0.073-0.133l-0.113-0.067s-0.2-0.053-0.253-0.053-0.12-0.053-0.060-0.093c0.067-0.033 0.080-0.1 0.060-0.147-0.027-0.047-0.040-0.087-0.127-0.107s-0.107-0.040-0.067-0.093c0.033-0.047 0.047-0.087 0.093-0.047 0.040 0.033 0.12 0.047 0.18 0.020 0.067-0.027 0.087-0.053 0.12-0.020 0.027 0.027 0.067 0.053 0.113 0.013 0.047-0.047 0.133-0.053 0.173-0.033 0.033 0.027 0.133 0.020 0.16 0 0.027-0.013 0.093-0.067 0.093-0.087s0.040-0.080 0.073-0.1c0.040-0.027 0.087-0.093 0.127-0.093s0.053-0.047 0.053-0.067c0-0.033 0.033-0.093 0.040-0.113 0-0.020 0.080-0.053 0.133 0 0.060 0.033 0.133 0.053 0.133 0.053s0.067 0.013 0.113 0c0.020-0.012 0.044-0.020 0.070-0.020s0.050 0.007 0.071 0.020l-0.001-0c0.060 0.040 0.133 0.040 0.133 0.040l0.020-0.087c0-0.027 0.013-0.080-0.020-0.1-0.027-0.020-0.067-0.047-0.007-0.093 0.067-0.040 0.067-0.033 0.127-0.033l0.147 0.007c0.047 0 0.12 0.047 0.12 0.087s0.033 0.067 0.067 0.093c0.040 0.020 0.087 0.040 0.067 0.080-0.007 0.033-0.007 0.067 0.040 0.053 0.047-0.007 0.060 0.020 0.060 0.060 0 0.033 0.013 0.053 0.067 0.067 0.040 0.013 0.067 0.047 0.067 0.080s-0.013 0.060 0 0.093l0.067 0.093s0.087 0.1-0.027 0.047c-0.107-0.047-0.133-0.067-0.167-0.067l-0.067 0.033-0.087 0.013c-0.040 0-0.080 0.080-0.013 0.093 0.060 0.013 0.080 0.027 0.080 0.080s-0.020 0.033-0.053 0.067c-0.027 0.040-0.053 0.013-0.107 0.013s-0.067 0.047-0.067 0.087 0.020 0.040 0.040 0.067c0.027 0.040 0.067 0.047 0.107 0.013 0.033-0.033 0.067-0.060 0.087 0.007 0.027 0.067 0.060 0.067 0.1 0.067 0.047 0 0.067 0 0.107-0.027 0.033-0.020 0.080 0 0.087 0.060 0.013 0.053 0.047 0.067 0.087 0.087s0.067 0.033 0.067 0.067c0.013 0.040 0.033 0.053 0.073 0.033 0.040-0.027 0.1-0.040 0.127-0.007l0.060 0.080v0.073l0.153 0.053 0.013 0.067c0 0.020 0.027 0.040 0.067 0.027h0.107s0.053-0.020 0.053-0.067c0-0.040 0.020-0.053 0.067-0.053 0.033 0 0.12 0.033 0.14-0.013 0.027-0.040 0.093-0.053 0.147-0.033l0.2 0.080s-0.020 0 0.027 0.073 0.133 0.073 0.133 0.073 0 0.067 0.020 0.093c0.013 0.027 0.087 0.040 0.12 0.013 0.040-0.027 0.093-0.067 0.14-0.067s0.080 0 0.080-0.027-0.047-0.047-0.047-0.093 0.047-0.040 0.053-0.087c0.007-0.040 0.053 0 0.087 0.027s0.067 0.053 0.067 0.080c0 0.033 0.067 0.133 0.1 0.147 0.040 0.013 0.14 0.020 0.173-0.013 0.027-0.040 0.107-0.053 0.1 0.033s-0.027 0.093 0.027 0.12c0.053 0.027 0.067 0.133 0.020 0.16s-0.067 0.033-0.067 0.080-0.013 0.107 0.027 0.133c0.040 0.033 0.067 0.053 0.067 0.080 0 0.033 0.040 0.16 0.040 0.16s0.027 0.127 0.013 0.153c0 0.033-0.020 0.080 0.047 0.073s0.087-0.007 0.087 0.047 0.027 0.080-0.013 0.1c-0.040 0.027-0.067 0.093-0.027 0.107s0.067 0.040 0.080 0.067c0.007 0.027 0.067 0.080 0.107 0.047 0.040-0.027 0.047-0.040 0.080-0.047 0.027-0.007 0.053-0.027 0.020-0.067-0.027-0.033-0.040-0.067-0.007-0.093 0.033-0.020 0.047-0.087 0.047-0.087s0.047-0.067 0.1 0 0.067 0.040 0.1 0.040 0.053 0.033 0.053 0.067c0 0.040 0.080 0.033 0.080 0.087l0.013 0.2s0 0.073 0.047 0.1c0.047 0.033 0.040 0.040 0.013 0.067-0.020 0.040-0.013 0.1-0.013 0.133s0.013 0.033-0.020 0.067c-0.040 0.027-0.060 0.067-0.033 0.107 0.020 0.040 0.013 0.067 0.073 0.12 0.067 0.047 0.060 0.067 0.060 0.107 0 0.033 0.060 0.087 0.060 0.12s0.047 0.080 0.087 0.087 0.080 0.067 0.080 0.107l0.007 0.127s0 0.020 0.040 0.020c0.047 0 0.080 0.053 0.093 0 0.013-0.067 0.067-0.067 0.093-0.087s0.093-0.040 0.127-0.020 0.067 0.020 0.1 0.020l0.173 0.007s0.040 0 0.067 0.053c0.020 0.053 0.087 0.12 0.053 0.147-0.040 0.033-0.040 0.087 0 0.087s0.1 0 0.1 0.033c0 0.040 0 0.067 0.047 0.047 0.033-0.020 0.060-0.027 0.073 0 0.020 0.027 0.047 0.027 0.087 0.047 0.040 0.027 0.053 0.007 0.080-0.020 0.020-0.027 0.113-0.053 0.113-0.053s0.12-0.033 0.167-0.020l0.113 0.047s0.027 0.067 0.013 0.113c-0.013 0.040-0.033 0.033-0.013 0.1 0.013 0.067-0.020 0.067-0.047 0.067-0.033-0.013-0.067-0.013-0.067 0.047 0 0.053-0.027 0.067-0.027 0.12s0 0.040-0.033 0.067c-0.027 0.020-0.040 0.053 0.007 0.067 0.047 0 0.033 0.053 0.033 0.080l-0.007 0.093s0 0.033-0.047 0.033-0.1 0-0.107 0.033c-0.013 0.033-0.067 0.087-0.020 0.127 0.053 0.033 0.040 0.053 0.007 0.067-0.027 0.020-0.053 0.087 0.013 0.107 0.060 0.027 0.053 0.047 0.013 0.073s-0.113 0.053-0.113 0.093-0.020 0.040-0.067 0.047c-0.047 0.007-0.067 0.067-0.013 0.133 0.053 0.073 0.067 0.067 0.107 0.067s0.040-0.067 0.040-0.067l0.167 0.013c0.040 0 0.093 0 0.127-0.020 0.033-0.027 0.113-0.060 0.113 0 0 0.067 0.020 0.067 0.053 0.087 0.040 0.033 0.047 0.007 0.080 0.053 0.033 0.040 0.040 0 0.067-0.047 0.020-0.047 0.067-0.093 0.107-0.040 0.033 0.060 0.033 0.040 0.080 0.040s0.067 0.027 0.067 0.060 0.040 0.033 0.1 0.027c0.053 0 0.060 0.033 0.080 0.067s0.033 0.027 0.067 0.027c0.027 0 0.060 0 0.080-0.027 0.027-0.027 0.053-0.067 0.087-0.020 0.033 0.040 0.093 0.033 0.107-0.013 0.020-0.053 0.087-0.093 0.127-0.040 0.040 0.060 0.067 0.060 0.107 0.067 0.040 0 0.093 0 0.113 0.040 0.027 0.040 0.1 0.093 0.047 0.133-0.053 0.047-0.113 0.1-0.067 0.12 0.043 0.011 0.080 0.034 0.106 0.066l0 0c0.033 0.027 0.133 0.047 0.18 0.053 0.047 0 0.080 0.013 0.133-0.033 0.060-0.040 0.113-0.040 0.107 0.020-0.007 0.053 0.020 0.12 0.020 0.12s0.040 0.093 0.040 0.127-0.007 0.040 0.067 0.087c0.067 0.040 0.053 0.067 0.113 0.027 0.053-0.040 0.067-0.067 0.067-0.1v-0.113s0.080-0.013 0.107-0.033c0.033-0.027 0.153-0.087 0.187-0.060s0.067 0.020 0.1 0.007c0.033-0.013 0.093-0.013 0.127-0.013 0.027 0 0.080 0.007 0.147-0.040 0.060-0.053 0.060-0.040 0.1 0 0.033 0.033 0.033 0.073 0.013 0.107-0.027 0.027 0 0.087 0.053 0.087s0.067 0.033 0.067 0.067l0.020 0.113c0 0.027 0 0.047 0.093 0.067 0.080 0.020 0.067 0.067 0.080 0.107 0.020 0.033 0.020 0.067-0.027 0.067s-0.067 0.020-0.067 0.053c-0.013 0.033-0.080 0.047-0.080 0.047l-0.067-0.013s-0.053 0-0.073 0.027c-0.027 0.033-0.067 0.087-0.040 0.133 0.033 0.053 0.033 0.080 0 0.107-0.027 0.020-0.047 0.127-0.073 0.107-0.033-0.027-0.067 0-0.1 0.020-0.033 0.013-0.027 0.113 0.033 0.147 0.067 0.040 0.080 0.087 0.080 0.087l0.067 0.107s-0.020 0.020-0.033 0.060c-0.020 0.033-0.067 0.107-0.020 0.12s0.027 0.093-0.020 0.093-0.1-0.027-0.107 0.033-0.033 0.040-0.080 0.033c-0.047 0-0.16-0.033-0.193 0.020-0.033 0.060-0.040 0.080-0.093 0.073-0.053 0-0.033 0.087-0.013 0.12l0.067 0.087s0.047 0.033 0.047 0.107c0 0.067-0.033 0.067-0.067 0.013-0.027-0.047-0.087-0.040-0.093 0.013-0.007 0.060-0.020 0.147-0.067 0.147-0.060 0-0.080 0.013-0.107 0.040-0.020 0.027-0.060 0.080-0.060 0.107s-0.007 0.060-0.047 0.067-0.047 0.080-0.047 0.080-0.093 0.020-0.1 0.053c-0.007 0.033 0.007 0.093-0.067 0.1-0.062 0.008-0.115 0.043-0.146 0.093l-0 0.001c-0.027 0.033-0.033 0.067 0 0.1s0.053 0.147 0.093 0.167c0.033 0.020 0.067 0.033 0.060 0.087-0.007 0.060-0.053 0.1 0.007 0.1 0.067 0 0.1 0.013 0.080 0.067-0.027 0.047-0.027 0.053-0.067 0.073-0.053 0.027-0.073 0.027-0.073 0.080s0.013 0.060-0.027 0.080-0.040 0.047-0.040 0.093-0.013 0.027-0.060 0.073c-0.047 0.053-0.107 0.053-0.147 0.040s-0.047-0.013-0.053-0.060c-0.007-0.040-0.073-0.040-0.113-0.033-0.040 0-0.093 0.047-0.093 0.047s-0.067 0.047-0.040 0.080c0.033 0.033 0.013 0.093-0.040 0.087s-0.173 0.053-0.213-0.007c-0.040-0.067-0.147-0.107-0.167-0.020-0.013 0.080 0.047 0.073 0.040 0.16 0 0.087-0.020 0.087-0.053 0.113-0.027 0.027-0.027 0.053-0.040 0.087 0 0.033-0.013 0.113 0.040 0.14 0.053 0.033 0.080 0.107 0.080 0.153 0 0.040 0 0.087 0.053 0.087s0.1-0.013 0.107-0.060c0.007-0.047 0.113-0.080 0.127 0.020 0 0.1 0 0.153 0.047 0.193 0.033 0.040 0.067 0.1 0.1 0.12 0.027 0.020 0.080 0.2 0.080 0.2-0.073 0.020-0.093 0.12-0.14 0.133-0.027 0.013-0.060 0-0.087 0.020-0.013 0.020-0.013 0.047-0.040 0.053-0.060 0.027-0.047-0.060-0.12-0.027-0.060 0.027-0.067 0.1-0.153 0.067-0.047-0.013-0.073-0.2-0.087-0.24l-0.073-0.12c-0.053-0.080-0.153 0-0.187-0.027-0.053-0.033-0.033-0.093-0.113-0.1-0.16-0.013-0.047 0.1-0.113 0.12-0.133 0.047-0.133-0.12-0.227-0.040-0.033 0.027 0.067 0.047 0.040 0.093-0.020 0.040-0.113 0.107-0.113 0.153 0.013 0.067 0.080 0.087 0.1 0.133 0.067 0.153-0.033 0.253-0.18 0.133-0.080-0.060-0.1-0.18-0.22-0.167-0.033 0-0.040 0.027-0.067 0.033-0.033 0-0.053-0.027-0.087-0.020-0.047 0.020 0 0.053-0.013 0.080 0 0-0.067 0.047-0.067 0.067-0.040 0.040-0.027 0.080-0.080 0.12-0.040 0.033-0.073 0.013-0.12 0.067-0.047 0.047-0.053 0.127-0.113 0.173-0.033 0.027-0.053-0.073-0.093-0.007l-0.013 0.027c-0.013 0.020-0.013 0.027 0 0.047 0.080 0.16-0.093 0.213-0.147 0.327-0.020 0.047 0.040 0.087 0.020 0.127l-0.1 0.113c0 0.013-0.013 0.053-0.027 0.067s-0.067 0-0.067 0.027 0.053 0.047 0.067 0.060c0.013 0.020-0.013 0.047 0 0.053 0.080 0.087 0.033 0.060 0.073 0.133 0.007 0.013 0.033-0.007 0.047 0.020 0.007 0.027-0.027 0.027-0.013 0.053 0 0.013 0.067 0.093 0.067 0.093 0 0.027-0.12 0.080-0.147 0.080-0.073 0 0.067-0.147-0.053-0.147-0.053 0-0.060 0.113-0.067 0.133h-0.067c-0.080 0-0.133 0.093-0.16 0.1-0.020 0.007-0.067-0.013-0.1 0-0.027 0-0.067 0.033-0.093 0.033-0.020 0-0.027-0.013-0.047-0.027-0.033-0.020-0.1-0.027-0.133-0.040-0.027 0-0.067 0.027-0.080 0.020-0.020-0.013 0.020-0.067-0.040-0.093l-0.047-0.113c0.020-0.067 0.040-0.133 0.033-0.207-0.013-0.073-0.133-0.133-0.16-0.2-0.020-0.040-0.040-0.16-0.087-0.187-0.050-0.039-0.091-0.088-0.119-0.144l-0.001-0.002c0-0.013 0.020-0.040 0-0.067-0.020-0.020-0.053-0.033-0.067-0.067-0.007-0.027 0-0.12-0.033-0.14s-0.267-0.053-0.333-0.060c-0.027 0-0.047 0-0.067-0.020l-0.040-0.047-0.067 0.013c-0.020 0-0.053-0.013-0.067 0-0.073 0.047-0.093 0.113-0.167 0.173-0.073 0.053-0.153 0.053-0.227 0.113-0.047 0.040-0.080 0.14-0.127 0.187-0.020 0.020-0.047 0-0.053 0.007-0.040 0.047-0.093 0.080-0.133 0.12-0.007 0.013 0 0.027-0.013 0.033l-0.087 0.027h-0.080c-0.033 0.013-0.033 0.053-0.167 0.080l-0.033 0.020-0.040 0.033h-0.060c-0.033 0-0.053 0.033-0.080 0.033-0.067 0.013-0.187-0.033-0.24-0.007-0.033 0.007-0.12 0.113-0.153 0.12-0.020 0.007-0.040 0-0.067-0.007l-0.040 0.147-0.16 0.14c-0.020 0.020-0.027 0.047-0.053 0.067-0.013 0.020-0.040 0.033-0.067 0.033s-0.073-0.027-0.107-0.027c-0.053-0.013-0.22-0.020-0.267-0.007-0.060 0.007-0.040 0.16-0.173 0.173l-0.22 0.027c-0.007 0-0.053-0.027-0.1-0.020-0.020 0.007-0.073 0.067-0.073 0.080v0.033l0.013 0.027c-0.027 0.033-0.093 0.087-0.113 0.133l-0.027 0.027c-0.013 0.013-0.107 0.047-0.113 0.060-0.020 0.053 0.067 0.107 0.053 0.127-0.020 0.067-0.113 0.133-0.147 0.2-0.007 0.027 0.033 0.113 0.033 0.14-0.013 0.087-0.040 0.193-0.033 0.273l0.013 0.113 0.047 0.033 0.12 0.24c0.020 0.147-0.2 0.093-0.067 0.24 0.013 0.027 0.027 0.047 0.053 0.067l0.187 0.153c0 0.027-0.133 0.047-0.153 0.067-0.067 0.067-0.113 0.173-0.173 0.24-0.040 0.033-0.067-0.007-0.12 0.087-0.013 0.033 0 0.107-0.020 0.133-0.033 0.027-0.053-0.013-0.087 0-0.013 0-0.020 0.047-0.033 0.053-0.033 0.033-0.347 0.2-0.373 0.18-0.013-0.007-0.033-0.060-0.033-0.073 0-0.020-0.027-0.060-0.040-0.067-0.080-0.067-0.2-0.087-0.28 0-0.020 0.020-0.020 0.053-0.047 0.067l-0.133 0.107-0.033 0.033c-0.033 0-0.107-0.087-0.133-0.113-0.027-0.040-0.133-0.133-0.14-0.18 0-0.16-0.127-0.327-0.173-0.48h0.073c0.087-0.060 0.067-0.2 0.22-0.147 0.020-0.027 0.020-0.053 0.053-0.067 0.013-0.013 0.040-0.020 0.047-0.033 0.053-0.080 0.113-0.387 0.060-0.467-0.047-0.067-0.1-0.067-0.133-0.18-0.013-0.033 0-0.067 0-0.107l-0.067-0.207c-0.013-0.020-0.047-0.033-0.047-0.047l-0.013-0.207c-0.047-0.147-0.227-0.233-0.233-0.253l-0.067-0.113c-0.027-0.047-0.027-0.067-0.040-0.107-0.007-0.020-0.040-0.040-0.040-0.060 0-0.040 0.107-0.113 0.1-0.18 0-0.020-0.067-0.087-0.053-0.12 0.013-0.040 0.080-0.12 0.080-0.167 0-0.053-0.107-0.173-0.12-0.227-0.007-0.033 0.040-0.053 0.027-0.073-0.013-0.027-0.12-0.127-0.133-0.153-0.020-0.020 0.033-0.047 0-0.087-0.040-0.033-0.007-0.027-0.020-0.053-0.013-0.033-0.047-0.067-0.067-0.1-0.013-0.033-0.107-0.367-0.1-0.387-0.020-0.020-0.047-0.040-0.060-0.067l-0.027-0.080s-0.107-0.033-0.127-0.067c-0.013-0.020-0.020-0.107-0.047-0.147-0.013-0.020-0.033-0.013-0.047-0.027s-0.013-0.033-0.020-0.047c-0.033-0.040-0.093 0-0.133-0.16-0.067-0.040-0.113-0.067-0.16-0.12l-0.027-0.027c-0.040-0.013-0.1-0.020-0.133-0.047-0.020 0-0.12 0-0.133-0.013l-0.027-0.053c-0.053-0.007-0.147 0-0.193-0.040-0.033-0.033-0.040-0.187-0.107-0.167-0.004-0.001-0.009-0.002-0.013-0.002s-0.009 0.001-0.014 0.002l0-0c-0.047-0.067-0.193-0.067-0.253-0.107-0.013-0.007-0.067 0-0.067-0.013l0.007-0.087-0.073-0.093c-0.060-0.013-0.040-0.020-0.067-0.040-0.1 0-0.113 0.013-0.173 0.067-0.013 0.013-0.047 0.020-0.067 0.027-0.033 0.020-0.040 0.080-0.087 0.053l-0.040-0.033c-0.027-0.027-0.040-0.013-0.053-0.053-0.080-0.047-0.3 0.1-0.347 0-0.040-0.020-0.067 0-0.1-0.027-0.013-0.013 0.047-0.2-0.113-0.267l0.107-0.073c0.013-0.020 0-0.053 0-0.067 0-0.033 0.020-0.093 0.013-0.113 0-0.020-0.027-0.040-0.033-0.067-0.013-0.020 0-0.053-0.013-0.080l-0.053-0.027c-0.040-0.033-0.080-0.053-0.113-0.093l-0.027-0.033c-0.027-0.020-0.12-0.053-0.12-0.093 0-0.013 0.027-0.020 0.027-0.033 0.007-0.020 0-0.040 0.020-0.053 0.040-0.067 0.14-0.033 0.127-0.147-0.007-0.053-0.047-0.093-0.053-0.147-0.020-0.013-0.020-0.033-0.033-0.047-0.1-0.007-0.087-0.107-0.12-0.133-0.1-0.067-0.18-0.027-0.067-0.16 0.013-0.047-0.1-0.12-0.12-0.14-0.040-0.040-0.020-0.127-0.040-0.167 0-0.020-0.073-0.060-0.093-0.087l-0.033-0.067v-0.007c0.020-0.020 0.013-0.053 0-0.067-0.007-0.020-0.040-0.013-0.047-0.027-0.093-0.080-0.2-0.12-0.327-0.167-0.033-0.013-0.020-0.040-0.053-0.053l-0.2-0.080c-0.013 0-0.027-0.073-0.040-0.1l-0.060-0.067c0-0.067-0.040-0.067-0.093-0.107v-0.040l0.040-0.14c0.007-0.027 0.040-0.053 0.033-0.080l-0.027-0.153c-0.053-0.133-0.113-0.12-0.080-0.3 0-0.040-0.007-0.060 0.020-0.093l0.013-0.020 0.080-0.060c0.027-0.040 0.047-0.127 0.080-0.153l0.12-0.080c0.013-0.013 0.027-0.060 0.020-0.080-0.027-0.013-0.053-0.007-0.080-0.013-0.013 0-0.047-0.027-0.073-0.027-0.007-0.013-0.020-0.020-0.020-0.033l-0.013-0.013c-0.033 0-0.067-0.020-0.093-0.033-0.033-0.013-0.080-0.013-0.113-0.033-0.067-0.033-0.133-0.133-0.193-0.147-0.080-0.020-0.133 0.007-0.213 0.013-0.047 0-0.047-0.027-0.087-0.040-0.053-0.020-0.013 0.027-0.133-0.013-0.020-0.013 0-0.053 0-0.067h-0.067c-0.093-0.027-0.060-0.12-0.087-0.18-0.007-0.013-0.053-0.013-0.067-0.013s-0.013-0.013-0.013-0.013l0.013-0.007c0.013-0.027-0.047-0.093-0.047-0.107 0.007-0.020 0.133-0.040 0.147-0.040 0.007-0.020-0.007-0.033-0.013-0.047 0-0.033 0.020-0.080 0.033-0.113v-0.013c-0.040-0.020-0.047-0.047-0.080-0.067 0-0.020 0.020-0.027 0.027-0.047 0.060-0.167 0.153-0.033 0.233-0.187 0.007-0.013 0.033-0.047 0.040-0.073h0.013c0.013 0 0.040 0.013 0.053 0s0.033-0.013 0.053-0.020h0.033c0.147-0.027 0.113-0.080 0.2-0.14 0.027-0.020 0.093-0.027 0.12-0.040 0.033 0.020 0.080 0.067 0.14 0.093 0.047 0.013 0.2 0.047 0.227 0.067 0.033 0.013 0.040 0.053 0.067 0.067 0.087 0.053 0.033-0.027 0.12-0.013 0.087 0.020 0.153 0.093 0.233 0.127l0.067-0.007c0.020-0.007 0.153-0.033 0.167-0.027l0.053 0.020c0.020 0.007 0.033-0.033 0.053-0.033 0.053 0.013 0.053 0.033 0.133 0.027 0 0 0.040-0.22 0.080-0.227 0.020-0.007 0.080 0.047 0.093 0.053 0.027 0.007 0-0.047 0-0.047-0.013-0.020-0.053-0.153-0.047-0.167 0 0 0.033 0.013 0.053 0.007 0.040-0.013 0.1-0.027 0.133-0.060l0.067-0.1c0.007-0.013-0.013-0.053 0-0.067l0.060-0.040c0.027-0.027 0.027-0.067 0.067-0.087 0.133-0.013 0.18-0.12 0.307-0.133h0.040l0.027 0.040c0 0.007 0.087 0.060 0.1 0.053 0.013 0 0.020-0.020 0.033-0.027 0.020 0.007 0.093-0.033 0.1-0.060 0 0-0.013-0.020-0.007-0.040 0.032-0.028 0.067-0.055 0.103-0.078l0.003-0.002h0.093c0.013 0.013 0.013 0.040 0.033 0.040h0.080c0.013 0 0.020-0.033 0.047-0.033z"></path>
<path fill="#fff" d="M23.46 4.893l1.073 3.307-2.813-2.047h3.48l-2.813 2.047 1.067-3.307z"></path>
<path fill="#fff" d="M27.647 5.633l1.067 3.307-2.807-2.047h3.473l-2.813 2.047 1.080-3.307z"></path>
<path fill="#fff" d="M31.64 7.087l1.067 3.307-2.807-2.047h3.473l-2.813 2.053 1.080-3.307z"></path>
<path fill="#fff" d="M19.207 4.893l-1.073 3.307 2.813-2.047h-3.48l2.813 2.047-1.067-3.307z"></path>
<path fill="#fff" d="M15.020 5.633l-1.067 3.307 2.807-2.047h-3.473l2.813 2.047-1.080-3.307z"></path>
<path fill="#fff" d="M11.047 7.087l1.080 3.307-2.813-2.047h3.473l-2.813 2.047 1.073-3.307z"></path>
</svg>
