<!-- Generated by IcoMoon.io -->
<svg version="1.1" xmlns="http://www.w3.org/2000/svg" width="43" height="32" viewBox="0 0 43 32">
<title>za</title>
<path fill="#000" d="M-0 25.487v-18.962l14.118 9.481-14.125 9.481z"></path>
<path fill="#00c" d="M9.631 32.006l15.85-10.662h22.512v10.656h-38.362z"></path>
<path fill="#f00" d="M8.618 0h39.374v10.675h-22.518s-16.65-10.781-16.856-10.675z"></path>
<path fill="#fc0" d="M-0 4v2.525l14.118 9.475-14.125 9.487v2.519l17.781-12-17.781-12.006z"></path>
<path fill="#093" d="M-0 4v-4h5.937l18.825 12.75h23.237v6.512h-23.237l-18.831 12.737h-5.931v-3.994l17.775-12-17.768-12.006z"></path>
<path fill="#fff" d="M5.931 0h3.7l15.85 10.669h22.512v2.081h-23.231l-18.831-12.743zM5.931 32.006h3.7l15.85-10.662h22.512v-2.075h-23.231l-18.831 12.731z"></path>
</svg>
