<!-- Generated by IcoMoon.io -->
<svg version="1.1" xmlns="http://www.w3.org/2000/svg" width="43" height="32" viewBox="0 0 43 32">
<title>zm</title>
<path fill="#198a00" d="M-5.333 0h48v32h-48z"></path>
<path fill="#ef7d00" d="M37.035 11.5h5.631v20.5h-5.631z"></path>
<path fill="#000" d="M31.41 11.488h5.625v20.5h-5.625z"></path>
<path fill="#de2010" d="M25.667 11.5h5.744v20.5h-5.75z"></path>
<path fill="#ef7d00" d="M38.892 4.1s2.125-0.906 2.325-1.094c0.094 0.112-0.85 1.25-2.681 1.669 1.663-0.388 3.081-1.625 3.375-1.587 0.081 0.019 0.063 1.206-3.75 2.237 2.638-0.688 4.169-1.962 4.15-1.825 0.019 0.031-0.263 1-2.569 1.756 0.644-0.15 2.394-1.213 2.375-1.006 0.056 0.081-1.688 2.325-4.85 1.594 2.525 0.656 4.156-0.925 4.388-0.894 0.050 0.006-0.462 1.375-3.638 1.462 1.519-0.156 1.081-0.006 1.081-0.006s-0.894 0.7-1.981 0.225c0.85 0.231 0.944 0.244 0.962 0.313-0.056 0.1-0.75 0.237-1.431-0.125 0.544 0.225 1.031 0.263 1.038 0.344-0.006 0.025-0.35 0.225-0.663 0.081-0.306-0.138-3.144-1.881-3.144-1.881l4.837-1.331 0.175 0.063zM33.204 8.825c-0.425 0-0.438 0.375-0.438 0.375s-0.031 0.031-0.013 0.213l0.106-0.162c0.050 0.006 0.244 0.063 0.55-0.175-0.281 0.294-0.112 0.4-0.112 0.4s-0.063 0.231 0.15 0.275c-0.063-0.094-0.025-0.175-0.025-0.175s0.3-0.031 0.281-0.394c0.006 0.331 0.188 0.412 0.188 0.412s0 0.181 0.194 0.2c-0.1-0.094-0.081-0.238-0.081-0.238s0.25-0.188 0.044-0.5c0.125-0.075 0.231-0.281 0.231-0.281s-0.175-0.075-0.256-0.137c-0.038-0.081 0-0.531 0-0.531l-0.112-0.581-0.3 0.906c0.013-0.125 0.019 0.394-0.406 0.394z"></path>
<path fill="#ef7d00" d="M35.304 7.519c0.013 0.006 0.319 0.35 0.619 0.331 0.112-0.094-0.231-0.294-0.231-0.344 0.125 0.112 0.631 0.55 0.962 0.394 0.125-0.188-0.237-0.156-0.638-0.662 0.281 0.188 0.981 0.594 1.313 0.438 0.131-0.15-0.731-0.619-1.025-0.981l-0.75-0.381-1.013 0.831 0.769 0.375z"></path>
<path fill="#ef7d00" d="M34.16 4.675s0.344-0.2 1.725-0.1c0.15 0.019 0.938-0.269 1.194-0.356 0.4-0.075 1.688-0.35 2.025-0.612 0.25-0.031-0.063 0.444-0.375 0.563-0.325 0.144-1.506 0.556-1.931 0.5 0.506 0.006 0.225 0.419-0.612 0.225 0.4 0.225 0.25 0.263 0.25 0.263s-0.706 0.037-0.894-0.125c0.475 0.181 0.275 0.25 0.275 0.25s-0.481 0.044-0.706-0.063c0.344 0.106 0.169 0.169 0.169 0.169s-0.281 0.050-0.513-0.037c-0.237-0.081-0.587-0.669-0.606-0.669z"></path>
<path fill="#ef7d00" d="M34.71 7.713l0.050 0.912-0.050 0.075c-0.019 0.025-0.644-0.1-0.563 0.375 0 0.2 0 0.25 0.138 0.356-0.031-0.125-0.025-0.219-0.025-0.219s0.181 0.106 0.35-0.188c-0.119 0.287-0.038 0.394-0.006 0.4 0.025 0.050-0.050 0.281 0.188 0.275-0.094-0.088-0.050-0.213-0.050-0.213s0.25-0.037 0.163-0.481c0.087-0.088 0.125 0 0.125 0s0.025 0.262 0.244 0.206c0.094 0.056-0.019 0.2-0.019 0.2s0.156 0 0.206-0.125c0.044-0.137 0.1-0.375-0.156-0.475-0.031-0.094 0.1-0.1 0.1-0.1s0.163 0.056 0.212 0.137 0.031-0.213-0.175-0.25c-0.25 0-0.263-0.056-0.263-0.063l-0.063-0.856-0.406 0.031z"></path>
<path fill="#ef7d00" d="M35.579 8.488c0-0.044-0.425-0.619-0.313-0.688 0.106 0.019 0.281 0.281 0.431 0.194-0.044-0.1-0.175-0.044-0.319-0.306-0.15-0.3-0.169-0.744-0.688-1.225 0.337 0.513 1.087 0.813 1.125 0.662s-0.669-0.713-0.631-0.85c0.138 0.275 0.837 0.9 1.35 0.85 0.038-0.125-0.419-0.362-0.538-0.588-0.331-0.225-1.212-0.981-1.225-1.156-0.159-0.267-0.366-0.488-0.612-0.658l-0.007-0.005c-0.022-0.030-0.039-0.066-0.050-0.104l-0.001-0.002c-0.2-0.469 0.063-0.625 0.219-0.644 0.125-0.019 0.163 0 0.25-0.044l-0.319-0.125c0.144 0.106 0.5 0.013 0.425 0.313 0.156-0.063 0.494-0.462-0.381-0.55-0.288-0.325-1.456-0.513-1.75 0.912 0.025 0.019 0.038 0.037 0.112 0.088-0.375-0.175-1.369-0.313-1.725-0.375-0.975-0.275-1.981-0.95-2.075-0.869-0.125 0.063 0.587 0.725 0.55 0.738-0.466-0.273-1.030-0.557-1.612-0.809l-0.106-0.041c-0.375-0.138-0.744-0.462-0.781-0.4-0.137 0.281 0.594 0.994 0.731 1.075s1.206 0.581 1.188 0.588c-1.613-0.731-1.875-0.869-1.962-0.95-0.144-0.031-0.488-0.5-0.581-0.469-0.056 0.050 0.050 0.788 0.819 1.125 0.125 0.088 1.65 0.631 1.637 0.675 0 0.013-1.75-0.719-1.813-0.75-0.337-0.125-0.75-0.587-0.825-0.538s0.188 0.55 0.525 0.706c0.181 0.075 0.863 0.412 1.475 0.625 0.038 0.019-1.106-0.431-1.656-0.656-0.25-0.138-0.363-0.313-0.4-0.275-0.063 0.038 0.087 0.775 1.856 1.188 0.044 0.025 0.625-0.131 0.594-0.112-0.277 0.074-0.613 0.135-0.956 0.172l-0.031 0.003c-0.019 0.050 0.113 0.313 1.025 0.263 0.113-0.006 0.75-0.231 0.694-0.188-0.227 0.092-0.535 0.197-0.848 0.287l-0.077 0.019c-0.056 0-0.35 0.037-0.363 0.063-0.012 0.050 0.219 0.237 0.706 0.263 0.438 0.025 1.262-0.263 1.25-0.244-0.025 0.019-0.8 0.287-0.819 0.3-0.031 0.019-0.313 0.031-0.325 0.056-0.025 0.056 0.413 0.463 1.694 0.025-0.125 0.175-0.75 0.294-0.75 0.325 0 0.025 0.137 0.156 0.356 0.206 0.106 0.025 0.256 0.019 0.394 0 0.25-0.050 0.5-0.144 0.831-0.45 0.038 0.094-0.819 0.531-0.781 0.569 0.188 0.175 0.806-0.019 0.844-0.044 0.044-0.019 1.188-0.669 1.188-0.75 0.019 0.1-1.481 0.919-1.462 0.95 0.094 0.15 0.606-0.006 0.625-0.025l0.675-0.362c0.019-0.006-0.738 0.438-0.675 0.513-0.031 0.294 1.187-0.2 1.281-0.263 0.044-0.031-0.587 0.275-0.587 0.419 0.206 0.344 0.856 0.237 0.956 0.162 0.050-0.037-0.063 0.25-0.025 0.225 0.075-0.077 0.138-0.165 0.185-0.263l0.003-0.006c-0.013 0.1-0.087 0.25-0.125 0.425-0.044 0.169-0.056 0.369-0.112 0.575-0.013 0.088 0.4-0.181 0.337-0.825 0.038 0.338-0.125 0.962-0.081 1 0.081 0.063 0.325-0.313 0.35-0.569 0.069 0.125 0.219 0.394 0.35 0.456-0.013-0.194 0-0.188-0.063-0.375 0.038-0.256 0.044-0.606 0.050-1.006 0.35 0.669 0.494 0.956 0.394 1.469 0.106 0.044 0.269-0.363 0.256-0.563 0.082 0.341 0.365 0.598 0.715 0.637l0.004 0z"></path>
<path fill="#ef7d00" d="M29.754 4.231s-0.244 0.181-0.538 0.169c0.075 0.3 0.688 0.069 0.688 0.069s-0.294 0.331-0.506 0.381c0.125 0.106 0.663 0.069 0.75 0.019 0.087-0.056 0.25-0.263 0.25-0.263s-0.55 0.638-0.625 0.631c-0.019 0.075 0.569 0.050 0.688-0.063 0.125-0.112 0.438-0.275 0.438-0.275s-0.813 0.563-0.844 0.563c0.3 0.075 0.906-0.1 1.294-0.338-0.575 0.381-0.625 0.45-0.919 0.581 0.262 0.056 0.394 0.231 1.269-0.15 0.5-0.237 0.787-0.675 0.787-0.675-0.379 0.446-0.825 0.82-1.326 1.112l-0.024 0.013c-0.031 0.063 0.587 0.325 1.369-0.494"></path>
<path fill="#ef7d00" d="M33.31 6.7s-0.063-0.088 0.050-0.419c0.1 0.125 0.212 0.144 0.256 0.188 0.050 0.056 0.563 0.125 0.587 0.469"></path>
<path fill="#ef7d00" d="M33.91 3.594c0-0.025-0.106-0.25-0.487 0.025 0.206 0.013 0.406 0.131 0.487-0.025z"></path>
<path fill="#ef7d00" d="M37.548 4.594c0.019 0.013 1.138 0.25 1.513 0.131-0.475 0.638-1.431 0.206-1.431 0.206 0.469 0.138 0.487 0.125 0.638 0.263 0.050 0.125-0.862 0.063-1.156-0.106 0.831 0.263 0.85 0.25 0.875 0.344 0.038 0.144-1.362-0.037-1.481-0.219 0.375 0.287 0.575 0.344 0.781 0.475-0.25 0.112-0.719 0.225-1.575-0.381 1.125 1.025 2.144 0.963 2.306 1.144-0.394 0.581-1.919-0.344-2.619-0.813s1.531 1.131 1.737 1.106c-0.1 0.156-0.837 0.019-0.888-0.063"></path>
<path fill="#ef7d00" d="M37.835 5.669c-0.125 0.019-0.519 0.019-0.575 0.006"></path>
<path fill="#ef7d00" d="M29.423 4.063s0.85 0.45 1.212 0.419c-0.066 0.056-0.146 0.099-0.233 0.124l-0.004 0.001c0.087 0.037 0.337 0.169 0.712 0.088l-0.206 0.188s0.325 0.125 0.688-0.063c-0.057 0.068-0.115 0.143-0.169 0.221l-0.006 0.010 0.256 0.019"></path>
</svg>
