<!-- Generated by IcoMoon.io -->
<svg version="1.1" xmlns="http://www.w3.org/2000/svg" width="43" height="32" viewBox="0 0 43 32">
<title>zw</title>
<path fill="#006400" d="M-0.153-0.007h65.643v31.993h-65.643z"></path>
<path fill="#ffd200" d="M-0.153 4.564h65.643v22.852h-65.643z"></path>
<path fill="#d40000" d="M-0.153 9.134h65.643v13.711h-65.643z"></path>
<path fill="#000" d="M-0.153 13.705h65.643v4.57h-65.643z"></path>
<path fill="#000" stroke="#000" stroke-linejoin="miter" stroke-linecap="butt" stroke-miterlimit="4" stroke-width="1.3333" d="M-0.153-0.007v31.993l21.881-15.996z"></path>
<path fill="#fff" d="M-0.153-0.007v31.993l21.881-15.996z"></path>
<path fill="#d40000" d="M8.169 7.946l4.337 13.003-11.347-8.036h14.027l-11.355 8.036z"></path>
<path fill="#fc0" d="M6.317 19.319l0.766-0.137 1.414-0.053 0.524 0.046 1.172 0.19 0.086-0.114v-0.823l0.141-0.708 0.234-0.716 0.258-0.571 0.328-0.594 0.531 0.13h0.141l0.016-0.099-1.125-0.937-1.172-0.876-1.696-1.234-0.156-0.038-0.18-1.295-0.133-0.388-0.18-0.152-0.336-0.107-0.375 0.015-0.172 0.091-0.359 0.076-0.188 0.030-0.125 0.145-0.016 0.183 0.524 0.015 0.133 0.053-0.016 0.053-0.297 0.038-0.141 0.046 0.164 0.122 0.172 0.061 0.219 0.076 0.047 0.152 0.016 1.965-0.117 0.305-0.039 0.571 0.172 0.686-0.438 0.487-0.25 0.434-0.047 0.267-0.133 0.267-0.016 0.168 0.086 0.183 0.336 1.082 0.172 0.891z"></path>
<path fill="#000" d="M6.724 10.81c-0.141 0-0.203 0.015-0.336 0.084-0.103 0.059-0.226 0.097-0.357 0.106l-0.003 0c-0.195 0-0.352 0.137-0.352 0.312v0.114l0.281-0.008c0.828 0.023 0.078 0.099 0.016 0.107-0.203 0.038 0.047 0.198 0.289 0.282 0.258 0.076 0.242 0.030 0.242 1.143 0 0.906 0 1.036-0.078 1.242-0.102 0.305-0.102 0.762 0 1.066 0.047 0.122 0.078 0.229 0.078 0.251 0 0.015-0.125 0.16-0.274 0.328-0.274 0.305-0.438 0.617-0.438 0.838-0.011 0.075-0.038 0.142-0.079 0.2l0.001-0.002c-0.102 0.13-0.102 0.35-0.008 0.434 0.102 0.091 0.516 1.661 0.524 1.958 0 0.107 0.016 0.107 0.649-0.015 0.516-0.099 1.727-0.122 2.344-0.046 0.281 0.038 0.61 0.099 0.727 0.122 0.375 0.099 0.359 0.114 0.359-0.328 0.003-0.733 0.149-1.431 0.412-2.072l-0.014 0.038c0.169-0.414 0.35-0.765 0.558-1.098l-0.018 0.032s0.141 0.015 0.313 0.061c0.32 0.076 0.414 0.069 0.414-0.076 0-0.076-0.336-0.35-1.985-1.6-0.591-0.476-1.26-0.973-1.949-1.446l-0.107-0.069c-0.047 0-0.094-0.023-0.102-0.053l-0.117-0.724c-0.055-0.373-0.133-0.739-0.164-0.815-0.109-0.229-0.32-0.343-0.672-0.366-0.023-0.001-0.051-0.001-0.078-0.001s-0.055 0-0.082 0.001l0.004-0zM6.731 10.886h0.156c0.516 0.030 0.61 0.168 0.75 1.066 0.030 0.168 0.063 0.413 0.089 0.66l0.005 0.056c0 0.061-0.070 0.137-0.25 0.251-0.3 0.207-0.557 0.446-0.776 0.716l-0.006 0.008-0.102 0.137-0.023-0.32v-0.899c0.023-0.663 0-0.724-0.219-0.8-0.18-0.061-0.414-0.122-0.352-0.16 0.078-0.046 0.156-0.015 0.344-0.069 0.078-0.015 0.070-0.008 0.055-0.069-0.016-0.099-0.125-0.152-0.414-0.137-0.234 0.015-0.258 0.008-0.242-0.053 0.031-0.122 0.156-0.198 0.352-0.221 0.128-0.015 0.244-0.050 0.35-0.102l-0.006 0.003c0.080-0.048 0.178-0.076 0.282-0.076 0.003 0 0.005 0 0.008 0h-0zM7.896 12.851h0.031c0.133 0.023 3.97 2.948 3.97 3.032 0 0.030-0.031 0.053-0.078 0.053-0.031 0-1.008-0.267-2.165-0.594-1.844-0.533-2.11-0.609-2.188-0.708-0.054-0.066-0.086-0.15-0.086-0.241 0-0.087 0.029-0.167 0.079-0.232l-0.001 0.001c0.036-0.043 0.063-0.094 0.078-0.15l0.001-0.003c0-0.091-0.195 0.137-0.234 0.267-0.039 0.152 0.039 0.411 0.156 0.495 0.047 0.038 0.399 0.152 0.781 0.267 0.656 0.183 0.703 0.206 0.735 0.312 0.078 0.251-0.195 0.548-0.586 0.632-0.155 0.037-0.291 0.1-0.41 0.185l0.003-0.002c-0.386 0.314-0.83 0.58-1.309 0.779l-0.035 0.013c-0.031 0.023-0.070 0.145-0.094 0.259-0.047 0.251-0.063 0.289-0.141 0.289-0.039 0-0.047-0.023-0.016-0.107 0.055-0.152 0.047-0.335-0.008-0.335-0.039 0-0.055 0.053-0.055 0.137 0 0.076-0.023 0.168-0.055 0.19-0.039 0.046-0.047 0.015-0.031-0.175 0.016-0.13 0.008-0.229-0.008-0.229-0.039 0-0.109 0.19-0.133 0.358-0.016 0.099-0.016 0.099-0.047-0.023-0.023-0.091-0.016-0.152 0.055-0.267 0.042-0.077 0.070-0.168 0.078-0.264l0-0.002c0-0.099 0.078-0.198 0.445-0.556 0.234-0.236 0.524-0.533 0.625-0.663 0.18-0.213 0.188-0.229 0.18-0.449 0-0.122-0.016-0.236-0.031-0.251-0.047-0.046-0.109 0.198-0.078 0.328 0.016 0.122 0 0.16-0.258 0.457-0.19 0.212-0.382 0.406-0.582 0.59l-0.004 0.004c-0.305 0.274-0.414 0.427-0.414 0.564 0 0.046-0.031 0.152-0.078 0.251s-0.063 0.198-0.047 0.221c0.016 0.023 0 0.023-0.023 0-0.039-0.038-0.039-0.099-0.008-0.229 0.012-0.042 0.019-0.090 0.019-0.139 0-0.021-0.001-0.041-0.004-0.061l0 0.002c-0.039-0.076-0.094 0.015-0.117 0.206-0.016 0.107-0.039 0.19-0.063 0.175-0.055-0.030-0.039-0.229 0.031-0.335 0.039-0.053 0.078-0.175 0.102-0.274 0.055-0.282 0.18-0.51 0.453-0.815 0.083-0.088 0.165-0.182 0.242-0.28l0.008-0.010-0.078-0.251c-0.053-0.164-0.083-0.353-0.083-0.549 0-0.176 0.025-0.347 0.070-0.508l-0.003 0.013c0.102-0.289 0.305-0.579 0.625-0.891 0.313-0.297 0.617-0.48 0.781-0.488zM9.068 15.304c0.002-0 0.005-0 0.008-0 0.039 0 0.070 0.020 0.070 0.046 0 0 0 0 0 0v0c-0.010 0.018-0.036 0.031-0.066 0.031s-0.057-0.013-0.066-0.030l-0-0c0-0-0-0.001-0-0.001 0-0.022 0.023-0.040 0.054-0.044l0-0zM9.263 15.327c0.002-0 0.005-0 0.008-0 0.039 0 0.070 0.020 0.070 0.046 0 0 0 0 0 0v0c-0.010 0.018-0.036 0.031-0.066 0.031s-0.057-0.013-0.066-0.030l-0-0c0-0-0-0.001-0-0.001 0-0.022 0.023-0.040 0.054-0.044l0-0zM9.467 15.365c0.002-0 0.005-0 0.008-0 0.039 0 0.070 0.020 0.070 0.046 0 0 0 0 0 0v0c-0.010 0.018-0.036 0.031-0.066 0.031s-0.057-0.013-0.066-0.030l-0-0c0-0-0-0.001-0-0.001 0-0.022 0.023-0.040 0.054-0.044l0-0zM9.654 15.403c0.002-0 0.005-0 0.008-0 0.039 0 0.070 0.020 0.070 0.046 0 0 0 0 0 0v0c-0.010 0.018-0.036 0.031-0.066 0.031s-0.057-0.013-0.066-0.030l-0-0c0-0-0-0.001-0-0.001 0-0.022 0.023-0.040 0.054-0.044l0-0zM9.162 15.449c0.002-0 0.005-0 0.008-0 0.039 0 0.070 0.020 0.070 0.046 0 0 0 0 0 0v0c-0.010 0.018-0.036 0.031-0.066 0.031s-0.057-0.013-0.066-0.030l-0-0c0-0-0-0.001-0-0.001 0-0.022 0.023-0.040 0.054-0.044l0-0zM9.349 15.479c0.002-0 0.005-0 0.008-0 0.039 0 0.070 0.020 0.070 0.046 0 0 0 0 0 0v0c-0.010 0.018-0.036 0.031-0.066 0.031s-0.057-0.013-0.066-0.030l-0-0c0-0-0-0.001-0-0.001 0-0.022 0.023-0.040 0.054-0.044l0-0zM9.756 15.495c0.002-0 0.005-0 0.008-0 0.039 0 0.070 0.020 0.070 0.046 0 0 0 0 0 0v0c-0.010 0.018-0.036 0.031-0.066 0.031s-0.057-0.013-0.066-0.030l-0-0c0-0-0-0.001-0-0.001 0-0.022 0.023-0.040 0.054-0.044l0-0zM9.545 15.495c0.002-0 0.005-0 0.008-0 0.039 0 0.070 0.020 0.070 0.046 0 0 0 0 0 0v0c-0.010 0.018-0.036 0.031-0.066 0.031s-0.057-0.013-0.066-0.030l-0-0c0-0-0-0.001-0-0.001 0-0.022 0.023-0.040 0.054-0.044l0-0zM9.935 15.54c0.008 0 0.289 0.061 0.625 0.152l0.617 0.175-0.117 0.206c-0.046 0.074-0.108 0.183-0.168 0.295l-0.020 0.041c-0.078 0.152-0.094 0.152-0.469 0.069-0.406-0.091-1.047-0.175-1.704-0.229l-0.625-0.053 0.234-0.084c0.167-0.063 0.303-0.124 0.435-0.193l-0.021 0.010c0.156-0.084 0.219-0.099 0.461-0.076 0.352 0.023 0.586-0.046 0.68-0.183l0.078-0.13zM9.248 15.586c0.002-0 0.005-0 0.008-0 0.039 0 0.070 0.020 0.070 0.046 0 0 0 0 0 0v0c-0.010 0.018-0.036 0.031-0.066 0.031s-0.057-0.013-0.066-0.030l-0-0c0-0-0-0.001-0-0.001 0-0.022 0.023-0.040 0.054-0.044l0-0zM9.685 15.586c0.002-0 0.005-0 0.008-0 0.039 0 0.070 0.020 0.070 0.046 0 0 0 0 0 0v0c-0.012 0.015-0.035 0.025-0.063 0.025s-0.051-0.010-0.062-0.024l-0-0c0-0-0-0.001-0-0.001 0-0.022 0.023-0.040 0.054-0.044l0-0zM9.060 15.586c0.002-0 0.005-0 0.008-0 0.039 0 0.070 0.020 0.070 0.046 0 0 0 0 0 0v0c-0.010 0.018-0.036 0.031-0.066 0.031s-0.057-0.013-0.066-0.030l-0-0c0.004-0.019 0.026-0.034 0.054-0.038l0-0zM9.474 15.601c0.003-0 0.006-0 0.009-0 0.035 0 0.064 0.017 0.069 0.038l0 0c-0.010 0.018-0.036 0.031-0.066 0.031s-0.057-0.013-0.066-0.030l-0-0c0.004-0.019 0.026-0.034 0.054-0.038l0-0zM8.959 15.685c0.002-0 0.005-0 0.008-0 0.039 0 0.070 0.020 0.070 0.046 0 0 0 0 0 0v0c-0.010 0.018-0.036 0.031-0.066 0.031s-0.057-0.013-0.066-0.030l-0-0c0-0-0-0.001-0-0.001 0-0.022 0.023-0.040 0.054-0.044l0-0zM9.154 15.685c0.003-0 0.006-0 0.009-0 0.039 0 0.070 0.020 0.070 0.046 0 0.003-0 0.006-0.001 0.008l0-0c-0.010 0.018-0.036 0.031-0.066 0.031s-0.057-0.013-0.066-0.030l-0-0c0-0-0-0.001-0-0.001 0-0.022 0.023-0.040 0.054-0.044l0-0zM9.357 15.7c0.003-0 0.006-0 0.009-0 0.035 0 0.064 0.017 0.069 0.038l0 0c-0.010 0.018-0.036 0.031-0.066 0.031s-0.057-0.013-0.066-0.030l-0-0c0.004-0.019 0.026-0.034 0.054-0.038l0-0zM9.576 15.7c0.002-0 0.005-0 0.008-0 0.039 0 0.070 0.020 0.070 0.046 0 0 0 0 0 0v0c-0.010 0.018-0.036 0.031-0.066 0.031s-0.057-0.013-0.066-0.030l-0-0c0-0-0-0.001-0-0.001 0-0.022 0.023-0.040 0.054-0.044l0-0zM7.99 16.317c0.987 0.026 1.93 0.141 2.842 0.338l-0.099-0.018c0.008 0.008-0.047 0.19-0.133 0.411l-0.156 0.457c-0.008 0.038-0.063 0.038-0.195 0.023-0.649-0.099-2.524-0.091-3.243 0.015-0.414 0.061-0.469 0.053-0.438-0.030l0.078-0.267 0.047-0.206 0.422-0.213c0.304-0.152 0.565-0.317 0.808-0.503l-0.011 0.008h0.070zM5.88 17.399c0.023 0 0.070 0.023 0.125 0.061 0.078 0.046 0.172 0.084 0.211 0.084 0.203 0 0.313 0.282 0.484 1.219l0.063 0.335c0.016 0.076 0 0.091-0.18 0.13-0.219 0.046-0.274 0.053-0.274 0.023 0-0.076-0.219-1.044-0.313-1.386-0.034-0.099-0.077-0.252-0.115-0.407l-0.010-0.050c0.001-0.001 0.002-0.001 0.004-0.001s0.003 0 0.004 0.001l-0-0zM8.115 17.551h0.227l-0.078 0.076c-0.133 0.152-0.195 0.16-0.289 0.061-0.032-0.032-0.058-0.070-0.077-0.112l-0.001-0.002c0-0.015 0.102-0.030 0.219-0.030zM8.591 17.551h0.422l-0.094 0.091c-0.109 0.122-0.117 0.122-0.234 0l-0.094-0.099zM9.232 17.551h0.102c0.055 0 0.156 0 0.219 0.015l0.117 0.023-0.109 0.099c-0.063 0.053-0.117 0.099-0.125 0.091l-0.109-0.122-0.094-0.114zM9.896 17.574l0.094 0.023c0.055 0.015 0.172 0.023 0.258 0.030h0.156l-0.117 0.099c-0.041 0.037-0.087 0.070-0.137 0.097l-0.004 0.002c-0.008 0-0.078-0.061-0.133-0.13l-0.117-0.122zM7.536 17.582h0.016c0.008 0.015-0.023 0.076-0.078 0.13l-0.078 0.107-0.117-0.091-0.117-0.099 0.375-0.046zM7.716 17.597l0.125 0.107 0.125 0.114-0.234 0.015-0.234 0.008 0.109-0.114 0.109-0.13zM9.123 17.597c0.023 0 0.039 0.008 0.063 0.023 0.040 0.037 0.074 0.080 0.1 0.127l0.001 0.003c0.031 0.061 0.023 0.076-0.078 0.076l-0.195-0.038-0.094-0.023 0.102-0.099c0.047-0.046 0.078-0.076 0.109-0.076zM8.474 17.597c0.039 0 0.078 0.023 0.125 0.099 0.055 0.084 0.055 0.084-0.156 0.084h-0.211l0.109-0.099c0.055-0.053 0.102-0.076 0.133-0.076zM9.803 17.612l0.094 0.091c0.109 0.099 0.125 0.16 0.047 0.152l-0.219-0.023-0.172-0.015 0.125-0.099 0.125-0.107zM7.052 17.666c0.016 0 0.078 0.038 0.125 0.091l0.094 0.099-0.195 0.030-0.274 0.038c-0.055 0.015-0.039-0.023 0.078-0.122 0.078-0.076 0.156-0.137 0.172-0.137zM6.763 17.666h0.031c0.063 0.015 0.063 0.030-0.047 0.137l-0.117 0.114-0.039-0.099c-0.031-0.076-0.023-0.099 0.047-0.13 0.037-0.014 0.080-0.022 0.125-0.023h0zM10.357 17.803c0.016 0 0.016 0.015 0 0.046-0.016 0.061-0.086 0.076-0.086 0.015 0-0.015 0.023-0.038 0.055-0.053h0.023zM8.685 17.925c0.602 0 1.211 0.015 1.36 0.030 0.242 0.030 0.266 0.038 0.266 0.13 0 0.107-0.031 0.114-0.359 0.061-0.094-0.023-0.492-0.053-0.875-0.084-0.211-0.013-0.457-0.021-0.706-0.021-0.537 0-1.065 0.035-1.582 0.103l0.060-0.006c-0.148 0.015-0.188 0-0.188-0.046 0-0.099 0.797-0.168 2.024-0.168zM7.88 18.145h0.422l-0.094 0.099c-0.117 0.122-0.125 0.122-0.234 0l-0.094-0.099zM8.427 18.145l0.109 0.107 0.109 0.122-0.227 0.008h-0.227l0.117-0.122 0.109-0.114zM8.591 18.145h0.422l-0.094 0.099c-0.109 0.122-0.117 0.122-0.234 0l-0.094-0.099zM7.591 18.145c0.016 0 0 0.038-0.055 0.114-0.055 0.069-0.109 0.122-0.117 0.122-0.016 0-0.070-0.046-0.117-0.099l-0.094-0.099h0.141c0.001 0 0.002 0 0.004 0 0.074 0 0.145-0.011 0.212-0.032l-0.005 0.001c0.005-0.001 0.010-0.002 0.016-0.002s0.011 0.001 0.016 0.002l-0-0zM7.747 18.184l0.102 0.091 0.117 0.099-0.203 0.015-0.227 0.015 0.109-0.114 0.102-0.107zM9.107 18.184l0.109 0.122c0.125 0.13 0.117 0.137-0.164 0.084l-0.133-0.023 0.188-0.183zM9.263 18.184h0.188c0.203 0 0.227 0.030 0.109 0.137-0.094 0.076-0.094 0.076-0.203-0.038l-0.094-0.099zM6.872 18.222c0.094 0 0.086 0.008-0.031 0.122-0.086 0.084-0.094 0.084-0.125 0.023-0.023-0.076 0.047-0.137 0.156-0.145zM9.904 18.237c0.031 0 0.094 0 0.156 0.015l0.18 0.030-0.102 0.091-0.094 0.091-0.086-0.107-0.078-0.122h0.023zM7.091 18.275c0.023 0 0.047 0.015 0.086 0.053 0.078 0.076 0.078 0.076 0.016 0.107-0.056 0.019-0.12 0.030-0.187 0.030h-0.125l0.102-0.107c0.055-0.053 0.078-0.076 0.102-0.084zM9.756 18.298c0.031 0 0.055 0.015 0.094 0.076l0.070 0.091h-0.164c-0.109 0-0.156-0.015-0.156-0.046 0.016-0.030 0.055-0.076 0.102-0.099l0.055-0.023zM10.256 18.397c0.016 0 0.016 0.015 0.016 0.038 0 0.076-0.070 0.13-0.102 0.076-0.008-0.023 0.008-0.061 0.039-0.084l0.047-0.030zM8.232 18.488c0.68 0 1.43 0.046 1.876 0.122l0.125 0.023v0.335c0 0.251-0.016 0.335-0.055 0.335l-0.391-0.076c-0.495-0.086-1.065-0.135-1.646-0.135-0.384 0-0.762 0.021-1.135 0.063l0.045-0.004-0.18 0.023-0.047-0.282c-0.018-0.086-0.030-0.186-0.031-0.288v-0.001s0.18-0.038 0.391-0.061c0.258-0.038 0.641-0.053 1.047-0.053z"></path>
<path fill="#000" d="M9.599 16.584c-0.234 0-0.399 0.16-0.399 0.396 0 0.366 0.422 0.548 0.672 0.289s0.078-0.686-0.274-0.686zM9.599 16.675c0.173 0 0.313 0.136 0.313 0.305v0c0 0.229-0.258 0.381-0.469 0.282-0.211-0.114-0.195-0.465 0.031-0.556 0.034-0.016 0.074-0.027 0.116-0.030l0.001-0z"></path>
<path fill="#000" d="M8.029 16.538c-0.234 0-0.399 0.16-0.399 0.396 0 0.366 0.422 0.548 0.672 0.289s0.078-0.686-0.274-0.686zM8.029 16.63c0.173 0 0.313 0.136 0.313 0.305v0c0 0.229-0.258 0.381-0.469 0.282-0.211-0.114-0.195-0.465 0.031-0.556 0.034-0.016 0.074-0.027 0.116-0.030l0.001-0z"></path>
<path fill="#000" d="M6.724 11.061c-0.068 0.004-0.121 0.060-0.125 0.129v0c0 0.078 0.061 0.141 0.137 0.141s0.137-0.063 0.137-0.141v0c-0.004-0.073-0.062-0.13-0.133-0.13-0.006 0-0.011 0-0.016 0.001l0.001-0zM6.731 11.107c0.052 0 0.094 0.037 0.094 0.084v0c0 0.046-0.042 0.084-0.094 0.084s-0.094-0.037-0.094-0.084v0c0-0.046 0.042-0.084 0.094-0.084v0z"></path>
</svg>
